G04 Layer_Physical_Order=3*
G04 Layer_Color=16440176*
%FSLAX43Y43*%
%MOMM*%
G71*
G01*
G75*
%ADD12R,1.500X1.500*%
%ADD53C,1.500*%
%ADD57O,1.600X2.400*%
%ADD60C,0.610*%
%ADD61C,1.016*%
G36*
X65764Y51879D02*
X65545Y51788D01*
X65356Y51644D01*
X65212Y51455D01*
X65121Y51236D01*
X65090Y51000D01*
X65121Y50764D01*
X65212Y50545D01*
X65356Y50356D01*
X65545Y50212D01*
X65764Y50121D01*
X65894Y50104D01*
X65940Y49984D01*
X65874Y49894D01*
X65764Y49879D01*
X65545Y49788D01*
X65356Y49644D01*
X65212Y49455D01*
X65121Y49236D01*
X65106Y49126D01*
X65021Y49060D01*
X64897Y49102D01*
X64879Y49236D01*
X64788Y49455D01*
X64644Y49644D01*
X64455Y49788D01*
X64236Y49879D01*
X64000Y49910D01*
X63764Y49879D01*
X63545Y49788D01*
X63356Y49644D01*
X63212Y49455D01*
X63121Y49236D01*
X63090Y49000D01*
X63121Y48764D01*
X63212Y48545D01*
X63356Y48356D01*
X63545Y48212D01*
X63764Y48121D01*
X64000Y48090D01*
X64236Y48121D01*
X64455Y48212D01*
X64644Y48356D01*
X64788Y48545D01*
X64879Y48764D01*
X65000Y48739D01*
Y35000D01*
X69000Y31000D01*
Y27205D01*
X68882Y27133D01*
X68873Y27134D01*
X68777Y27277D01*
X68626Y27378D01*
X68448Y27414D01*
X68269Y27378D01*
X68118Y27277D01*
X68017Y27126D01*
X67982Y26948D01*
X68017Y26769D01*
X68118Y26618D01*
X68269Y26517D01*
X68448Y26482D01*
X68626Y26517D01*
X68777Y26618D01*
X68873Y26761D01*
X68882Y26763D01*
X69000Y26691D01*
Y23277D01*
X68936Y23225D01*
X68757Y23189D01*
X68606Y23088D01*
X68505Y22937D01*
X68469Y22758D01*
X68505Y22580D01*
X68606Y22429D01*
X68757Y22328D01*
X68936Y22292D01*
X69000Y22239D01*
Y21000D01*
X26272D01*
X26060Y21042D01*
X25849Y21000D01*
X19353D01*
X19291Y21075D01*
X19256Y21253D01*
X19155Y21405D01*
X19003Y21506D01*
X18825Y21541D01*
X18647Y21506D01*
X18495Y21405D01*
X18394Y21253D01*
X18359Y21075D01*
X18297Y21000D01*
X15000D01*
Y16000D01*
X11000Y12000D01*
Y10803D01*
X10873Y10765D01*
X10830Y10830D01*
X10678Y10931D01*
X10500Y10966D01*
X10322Y10931D01*
X10170Y10830D01*
X10069Y10678D01*
X10034Y10500D01*
X10069Y10322D01*
X10170Y10170D01*
X10322Y10069D01*
X10500Y10034D01*
X10678Y10069D01*
X10830Y10170D01*
X10873Y10235D01*
X11000Y10197D01*
Y7467D01*
X10871Y7441D01*
X10719Y7340D01*
X10618Y7189D01*
X10583Y7010D01*
X10618Y6832D01*
X10719Y6681D01*
X10871Y6580D01*
X11000Y6554D01*
Y3116D01*
X10873Y3054D01*
X10770Y3123D01*
X10592Y3159D01*
X10413Y3123D01*
X10262Y3022D01*
X10247Y3000D01*
X9000D01*
X8658Y2658D01*
X8541Y2721D01*
X8545Y2743D01*
X8128D01*
Y2326D01*
X8151Y2330D01*
X8213Y2213D01*
X6311Y311D01*
X311D01*
X311Y4500D01*
Y14000D01*
Y21189D01*
X14500D01*
X14619Y21213D01*
X14720Y21280D01*
X14787Y21381D01*
X14811Y21500D01*
Y30988D01*
X14787Y31107D01*
X14720Y31208D01*
X14619Y31275D01*
X14500Y31299D01*
X311D01*
X311Y34844D01*
X393Y34937D01*
X438Y34937D01*
X1270D01*
Y35941D01*
X1397D01*
Y36068D01*
X2401D01*
Y36945D01*
X1992D01*
X1920Y37049D01*
X1924Y37072D01*
X1941Y37160D01*
X853D01*
X870Y37072D01*
X874Y37049D01*
X802Y36945D01*
X438D01*
X311Y37038D01*
X311Y40000D01*
Y49500D01*
Y52000D01*
X11000D01*
Y48000D01*
X51000D01*
Y48739D01*
X51121Y48764D01*
X51212Y48545D01*
X51356Y48356D01*
X51545Y48212D01*
X51764Y48121D01*
X52000Y48090D01*
X52236Y48121D01*
X52455Y48212D01*
X52644Y48356D01*
X52788Y48545D01*
X52879Y48764D01*
X52910Y49000D01*
X52879Y49236D01*
X52788Y49455D01*
X52644Y49644D01*
X52455Y49788D01*
X52236Y49879D01*
X52000Y49910D01*
X51764Y49879D01*
X51545Y49788D01*
X51356Y49644D01*
X51212Y49455D01*
X51121Y49236D01*
X51000Y49261D01*
Y50739D01*
X51121Y50764D01*
X51212Y50545D01*
X51356Y50356D01*
X51545Y50212D01*
X51764Y50121D01*
X52000Y50090D01*
X52236Y50121D01*
X52455Y50212D01*
X52644Y50356D01*
X52788Y50545D01*
X52879Y50764D01*
X52885Y50807D01*
X53013D01*
X53022Y50738D01*
X53123Y50494D01*
X53284Y50284D01*
X53494Y50123D01*
X53738Y50022D01*
X53807Y50013D01*
Y49885D01*
X53764Y49879D01*
X53545Y49788D01*
X53356Y49644D01*
X53212Y49455D01*
X53121Y49236D01*
X53090Y49000D01*
X53121Y48764D01*
X53212Y48545D01*
X53356Y48356D01*
X53545Y48212D01*
X53764Y48121D01*
X54000Y48090D01*
X54236Y48121D01*
X54455Y48212D01*
X54644Y48356D01*
X54788Y48545D01*
X54879Y48764D01*
X54910Y49000D01*
X54879Y49236D01*
X54788Y49455D01*
X54644Y49644D01*
X54455Y49788D01*
X54236Y49879D01*
X54193Y49885D01*
Y50013D01*
X54262Y50022D01*
X54506Y50123D01*
X54716Y50284D01*
X54877Y50494D01*
X54978Y50738D01*
X54987Y50807D01*
X55115D01*
X55121Y50764D01*
X55212Y50545D01*
X55356Y50356D01*
X55545Y50212D01*
X55764Y50121D01*
X56000Y50090D01*
X56236Y50121D01*
X56455Y50212D01*
X56644Y50356D01*
X56788Y50545D01*
X56879Y50764D01*
X56910Y51000D01*
X56879Y51236D01*
X56788Y51455D01*
X56644Y51644D01*
X56455Y51788D01*
X56236Y51879D01*
X56261Y52000D01*
X57739D01*
X57764Y51879D01*
X57545Y51788D01*
X57356Y51644D01*
X57212Y51455D01*
X57121Y51236D01*
X57090Y51000D01*
X57121Y50764D01*
X57212Y50545D01*
X57356Y50356D01*
X57545Y50212D01*
X57764Y50121D01*
X58000Y50090D01*
X58236Y50121D01*
X58455Y50212D01*
X58644Y50356D01*
X58788Y50545D01*
X58879Y50764D01*
X58910Y51000D01*
X58879Y51236D01*
X58788Y51455D01*
X58644Y51644D01*
X58455Y51788D01*
X58236Y51879D01*
X58261Y52000D01*
X59739D01*
X59764Y51879D01*
X59545Y51788D01*
X59356Y51644D01*
X59212Y51455D01*
X59121Y51236D01*
X59090Y51000D01*
X59121Y50764D01*
X59212Y50545D01*
X59356Y50356D01*
X59545Y50212D01*
X59764Y50121D01*
X59807Y50115D01*
Y49987D01*
X59738Y49978D01*
X59494Y49877D01*
X59284Y49716D01*
X59123Y49506D01*
X59022Y49262D01*
X59013Y49193D01*
X58885D01*
X58879Y49236D01*
X58788Y49455D01*
X58644Y49644D01*
X58455Y49788D01*
X58236Y49879D01*
X58000Y49910D01*
X57764Y49879D01*
X57545Y49788D01*
X57356Y49644D01*
X57212Y49455D01*
X57121Y49236D01*
X57090Y49000D01*
X57121Y48764D01*
X57212Y48545D01*
X57356Y48356D01*
X57545Y48212D01*
X57764Y48121D01*
X58000Y48090D01*
X58236Y48121D01*
X58455Y48212D01*
X58644Y48356D01*
X58788Y48545D01*
X58879Y48764D01*
X58885Y48807D01*
X59013D01*
X59022Y48738D01*
X59123Y48494D01*
X59284Y48284D01*
X59494Y48123D01*
X59738Y48022D01*
X59873Y48004D01*
Y49000D01*
X60127D01*
Y48004D01*
X60262Y48022D01*
X60506Y48123D01*
X60716Y48284D01*
X60877Y48494D01*
X60978Y48738D01*
X60987Y48807D01*
X61115D01*
X61121Y48764D01*
X61212Y48545D01*
X61356Y48356D01*
X61545Y48212D01*
X61764Y48121D01*
X62000Y48090D01*
X62236Y48121D01*
X62455Y48212D01*
X62644Y48356D01*
X62788Y48545D01*
X62879Y48764D01*
X62910Y49000D01*
X62879Y49236D01*
X62788Y49455D01*
X62644Y49644D01*
X62455Y49788D01*
X62236Y49879D01*
X62000Y49910D01*
X61764Y49879D01*
X61545Y49788D01*
X61356Y49644D01*
X61212Y49455D01*
X61121Y49236D01*
X61115Y49193D01*
X60987D01*
X60978Y49262D01*
X60877Y49506D01*
X60716Y49716D01*
X60506Y49877D01*
X60262Y49978D01*
X60193Y49987D01*
Y50115D01*
X60236Y50121D01*
X60455Y50212D01*
X60644Y50356D01*
X60788Y50545D01*
X60879Y50764D01*
X60910Y51000D01*
X60879Y51236D01*
X60788Y51455D01*
X60644Y51644D01*
X60455Y51788D01*
X60236Y51879D01*
X60261Y52000D01*
X61739D01*
X61764Y51879D01*
X61545Y51788D01*
X61356Y51644D01*
X61212Y51455D01*
X61121Y51236D01*
X61090Y51000D01*
X61121Y50764D01*
X61212Y50545D01*
X61356Y50356D01*
X61545Y50212D01*
X61764Y50121D01*
X62000Y50090D01*
X62236Y50121D01*
X62455Y50212D01*
X62644Y50356D01*
X62788Y50545D01*
X62879Y50764D01*
X62910Y51000D01*
X62879Y51236D01*
X62788Y51455D01*
X62644Y51644D01*
X62455Y51788D01*
X62236Y51879D01*
X62261Y52000D01*
X63739D01*
X63764Y51879D01*
X63545Y51788D01*
X63356Y51644D01*
X63212Y51455D01*
X63121Y51236D01*
X63090Y51000D01*
X63121Y50764D01*
X63212Y50545D01*
X63356Y50356D01*
X63545Y50212D01*
X63764Y50121D01*
X64000Y50090D01*
X64236Y50121D01*
X64455Y50212D01*
X64644Y50356D01*
X64788Y50545D01*
X64879Y50764D01*
X64910Y51000D01*
X64879Y51236D01*
X64788Y51455D01*
X64644Y51644D01*
X64455Y51788D01*
X64236Y51879D01*
X64261Y52000D01*
X65739D01*
X65764Y51879D01*
D02*
G37*
G36*
X84689Y15311D02*
X68250Y15311D01*
X68131Y15287D01*
X68030Y15220D01*
X67963Y15119D01*
X67939Y15000D01*
Y14900D01*
X64561D01*
Y15000D01*
X64537Y15119D01*
X64470Y15220D01*
X64369Y15287D01*
X64250Y15311D01*
X49000Y15311D01*
X48881Y15287D01*
X48780Y15220D01*
X48713Y15119D01*
X48689Y15000D01*
X48689Y12344D01*
X48656Y12311D01*
X34000D01*
X33881Y12287D01*
X33780Y12220D01*
X33713Y12119D01*
X33689Y12000D01*
Y8195D01*
X33562Y8157D01*
X33550Y8175D01*
X33365Y8299D01*
X33274Y8317D01*
Y7772D01*
Y7228D01*
X33365Y7246D01*
X33550Y7370D01*
X33562Y7388D01*
X33689Y7350D01*
Y311D01*
X11500D01*
Y2000D01*
X12000Y2500D01*
Y7960D01*
X12040Y7992D01*
X12218Y8028D01*
X12369Y8129D01*
X12470Y8280D01*
X12506Y8458D01*
X12470Y8637D01*
X12369Y8788D01*
X12218Y8889D01*
X12040Y8924D01*
X12000Y8957D01*
Y10229D01*
X12090Y10303D01*
X12269Y10339D01*
X12420Y10440D01*
X12521Y10591D01*
X12557Y10770D01*
X12521Y10948D01*
X12420Y11099D01*
X12335Y11156D01*
X12311Y11311D01*
X15500Y14500D01*
Y18500D01*
X17000Y20000D01*
X24115D01*
X24154Y19873D01*
X24057Y19808D01*
X23934Y19624D01*
X23916Y19533D01*
X25005D01*
X24987Y19624D01*
X24863Y19808D01*
X24767Y19873D01*
X24805Y20000D01*
X29940D01*
X30016Y19873D01*
X29988Y19736D01*
X30024Y19557D01*
X30125Y19406D01*
X30276Y19305D01*
X30455Y19270D01*
X30633Y19305D01*
X30784Y19406D01*
X30885Y19557D01*
X30921Y19736D01*
X30893Y19873D01*
X30969Y20000D01*
X31534D01*
X31617Y19873D01*
X31610Y19839D01*
X32699D01*
X32692Y19873D01*
X32775Y20000D01*
X33500D01*
X33543Y19873D01*
X33459Y19764D01*
X33393Y19603D01*
X33370Y19431D01*
X33393Y19259D01*
X33459Y19098D01*
X33565Y18960D01*
X33703Y18854D01*
X33864Y18788D01*
X34036Y18765D01*
X34208Y18788D01*
X34369Y18854D01*
X34507Y18960D01*
X34613Y19098D01*
X34679Y19259D01*
X34702Y19431D01*
X34679Y19603D01*
X34613Y19764D01*
X34529Y19873D01*
X34572Y20000D01*
X35485D01*
X35539Y19939D01*
X35570Y19703D01*
X35661Y19484D01*
X35805Y19295D01*
X35994Y19151D01*
X36213Y19060D01*
X36449Y19029D01*
X36685Y19060D01*
X36904Y19151D01*
X37093Y19295D01*
X37237Y19484D01*
X37328Y19703D01*
X37359Y19939D01*
X37413Y20000D01*
X43900D01*
X43963Y19873D01*
X43899Y19789D01*
X43832Y19629D01*
X43809Y19456D01*
X43832Y19284D01*
X43899Y19123D01*
X44004Y18985D01*
X44142Y18880D01*
X44303Y18813D01*
X44475Y18790D01*
X44648Y18813D01*
X44808Y18880D01*
X44946Y18985D01*
X45052Y19123D01*
X45119Y19284D01*
X45141Y19456D01*
X45119Y19629D01*
X45052Y19789D01*
X44988Y19873D01*
X45051Y20000D01*
X51903D01*
X51994Y19863D01*
X52146Y19762D01*
X52324Y19727D01*
X52502Y19762D01*
X52654Y19863D01*
X52745Y20000D01*
X69500D01*
Y22732D01*
X69505Y22758D01*
X69500Y22785D01*
Y31500D01*
X66500Y34500D01*
Y42000D01*
X67500Y43000D01*
Y52500D01*
X49900D01*
X49400Y52000D01*
Y48200D01*
X48805D01*
X48749Y48327D01*
X48877Y48494D01*
X48978Y48738D01*
X48996Y48873D01*
X48000D01*
Y49127D01*
X48996D01*
X48978Y49262D01*
X48877Y49506D01*
X48716Y49716D01*
X48506Y49877D01*
X48375Y49931D01*
Y50069D01*
X48506Y50123D01*
X48716Y50284D01*
X48877Y50494D01*
X48978Y50738D01*
X48996Y50873D01*
X48000D01*
Y51000D01*
X47873D01*
Y51996D01*
X47738Y51978D01*
X47494Y51877D01*
X47284Y51716D01*
X47123Y51506D01*
X47022Y51262D01*
X46900Y51286D01*
Y53689D01*
X84689D01*
X84689Y15311D01*
D02*
G37*
%LPC*%
G36*
X13818Y19211D02*
X13639Y19176D01*
X13488Y19075D01*
X13387Y18924D01*
X13351Y18745D01*
X13387Y18567D01*
X13488Y18416D01*
X13639Y18315D01*
X13818Y18279D01*
X13996Y18315D01*
X14147Y18416D01*
X14248Y18567D01*
X14284Y18745D01*
X14248Y18924D01*
X14147Y19075D01*
X13996Y19176D01*
X13818Y19211D01*
D02*
G37*
G36*
X18000Y22391D02*
X17822Y22356D01*
X17670Y22255D01*
X17569Y22103D01*
X17534Y21925D01*
X17569Y21747D01*
X17670Y21595D01*
X17822Y21494D01*
X18000Y21459D01*
X18178Y21494D01*
X18330Y21595D01*
X18431Y21747D01*
X18466Y21925D01*
X18431Y22103D01*
X18330Y22255D01*
X18178Y22356D01*
X18000Y22391D01*
D02*
G37*
G36*
X48233Y22691D02*
X48055Y22656D01*
X47903Y22555D01*
X47802Y22403D01*
X47767Y22225D01*
X47802Y22047D01*
X47903Y21895D01*
X48055Y21794D01*
X48233Y21759D01*
X48411Y21794D01*
X48563Y21895D01*
X48664Y22047D01*
X48699Y22225D01*
X48664Y22403D01*
X48563Y22555D01*
X48411Y22656D01*
X48233Y22691D01*
D02*
G37*
G36*
X10592Y19846D02*
X10413Y19811D01*
X10262Y19710D01*
X10161Y19559D01*
X10126Y19380D01*
X10161Y19202D01*
X10262Y19051D01*
X10413Y18950D01*
X10592Y18914D01*
X10770Y18950D01*
X10921Y19051D01*
X11022Y19202D01*
X11058Y19380D01*
X11022Y19559D01*
X10921Y19710D01*
X10770Y19811D01*
X10592Y19846D01*
D02*
G37*
G36*
X4000Y20663D02*
X3578Y20621D01*
X3172Y20498D01*
X2798Y20298D01*
X2471Y20029D01*
X2202Y19702D01*
X2002Y19328D01*
X1879Y18922D01*
X1837Y18500D01*
X1879Y18078D01*
X2002Y17672D01*
X2202Y17298D01*
X2471Y16971D01*
X2798Y16702D01*
X3172Y16502D01*
X3578Y16379D01*
X4000Y16337D01*
X4422Y16379D01*
X4828Y16502D01*
X5202Y16702D01*
X5529Y16971D01*
X5798Y17298D01*
X5998Y17672D01*
X6121Y18078D01*
X6163Y18500D01*
X6121Y18922D01*
X5998Y19328D01*
X5798Y19702D01*
X5529Y20029D01*
X5202Y20298D01*
X4828Y20498D01*
X4422Y20621D01*
X4000Y20663D01*
D02*
G37*
G36*
X54377Y25144D02*
Y24727D01*
X54794D01*
X54776Y24818D01*
X54653Y25003D01*
X54468Y25126D01*
X54377Y25144D01*
D02*
G37*
G36*
X54123D02*
X54032Y25126D01*
X53847Y25003D01*
X53724Y24818D01*
X53706Y24727D01*
X54123D01*
Y25144D01*
D02*
G37*
G36*
X20508Y25436D02*
X20417Y25418D01*
X20232Y25295D01*
X20109Y25110D01*
X20091Y25019D01*
X20508D01*
Y25436D01*
D02*
G37*
G36*
X51550Y26041D02*
X51372Y26006D01*
X51220Y25905D01*
X51119Y25753D01*
X51084Y25575D01*
X51119Y25397D01*
X51220Y25245D01*
X51372Y25144D01*
X51550Y25109D01*
X51728Y25144D01*
X51880Y25245D01*
X51981Y25397D01*
X52016Y25575D01*
X51981Y25753D01*
X51880Y25905D01*
X51728Y26006D01*
X51550Y26041D01*
D02*
G37*
G36*
X20762Y25436D02*
Y25019D01*
X21179D01*
X21161Y25110D01*
X21038Y25295D01*
X20853Y25418D01*
X20762Y25436D01*
D02*
G37*
G36*
X66827Y24844D02*
Y24427D01*
X67244D01*
X67226Y24518D01*
X67103Y24703D01*
X66918Y24826D01*
X66827Y24844D01*
D02*
G37*
G36*
X40066Y24586D02*
Y24169D01*
X40483D01*
X40465Y24260D01*
X40342Y24445D01*
X40157Y24568D01*
X40066Y24586D01*
D02*
G37*
G36*
X39812D02*
X39721Y24568D01*
X39536Y24445D01*
X39413Y24260D01*
X39395Y24169D01*
X39812D01*
Y24586D01*
D02*
G37*
G36*
X20508Y24765D02*
X20091D01*
X20109Y24674D01*
X20232Y24489D01*
X20417Y24366D01*
X20508Y24348D01*
Y24765D01*
D02*
G37*
G36*
X66573Y24844D02*
X66482Y24826D01*
X66297Y24703D01*
X66174Y24518D01*
X66156Y24427D01*
X66573D01*
Y24844D01*
D02*
G37*
G36*
X21179Y24765D02*
X20762D01*
Y24348D01*
X20853Y24366D01*
X21038Y24489D01*
X21161Y24674D01*
X21179Y24765D01*
D02*
G37*
G36*
X48741Y26247D02*
X48563Y26212D01*
X48411Y26111D01*
X48310Y25959D01*
X48275Y25781D01*
X48310Y25603D01*
X48411Y25451D01*
X48563Y25350D01*
X48741Y25315D01*
X48919Y25350D01*
X49071Y25451D01*
X49172Y25603D01*
X49207Y25781D01*
X49172Y25959D01*
X49071Y26111D01*
X48919Y26212D01*
X48741Y26247D01*
D02*
G37*
G36*
X46330Y26213D02*
X45912D01*
X45930Y26122D01*
X46054Y25937D01*
X46239Y25813D01*
X46330Y25795D01*
Y26213D01*
D02*
G37*
G36*
X18525Y26616D02*
X18347Y26581D01*
X18195Y26480D01*
X18094Y26328D01*
X18059Y26150D01*
X18094Y25972D01*
X18195Y25820D01*
X18347Y25719D01*
X18525Y25684D01*
X18703Y25719D01*
X18855Y25820D01*
X18956Y25972D01*
X18991Y26150D01*
X18956Y26328D01*
X18855Y26480D01*
X18703Y26581D01*
X18525Y26616D01*
D02*
G37*
G36*
X47001Y26213D02*
X46584D01*
Y25795D01*
X46675Y25813D01*
X46859Y25937D01*
X46983Y26122D01*
X47001Y26213D01*
D02*
G37*
G36*
X17502Y26569D02*
Y26152D01*
X17919D01*
X17901Y26243D01*
X17778Y26428D01*
X17593Y26551D01*
X17502Y26569D01*
D02*
G37*
G36*
X17248D02*
X17157Y26551D01*
X16972Y26428D01*
X16849Y26243D01*
X16831Y26152D01*
X17248D01*
Y26569D01*
D02*
G37*
G36*
Y25898D02*
X16831D01*
X16849Y25807D01*
X16972Y25622D01*
X17157Y25499D01*
X17248Y25481D01*
Y25898D01*
D02*
G37*
G36*
X45034Y26349D02*
X44856Y26313D01*
X44705Y26212D01*
X44604Y26061D01*
X44568Y25883D01*
X44604Y25704D01*
X44705Y25553D01*
X44856Y25452D01*
X45034Y25416D01*
X45213Y25452D01*
X45364Y25553D01*
X45465Y25704D01*
X45500Y25883D01*
X45465Y26061D01*
X45364Y26212D01*
X45213Y26313D01*
X45034Y26349D01*
D02*
G37*
G36*
X17919Y25898D02*
X17502D01*
Y25481D01*
X17593Y25499D01*
X17778Y25622D01*
X17901Y25807D01*
X17919Y25898D01*
D02*
G37*
G36*
X28004Y26462D02*
X27826Y26427D01*
X27674Y26326D01*
X27573Y26174D01*
X27538Y25996D01*
X27573Y25818D01*
X27674Y25666D01*
X27826Y25565D01*
X28004Y25530D01*
X28182Y25565D01*
X28334Y25666D01*
X28435Y25818D01*
X28470Y25996D01*
X28435Y26174D01*
X28334Y26326D01*
X28182Y26427D01*
X28004Y26462D01*
D02*
G37*
G36*
X49073Y23481D02*
X48982Y23463D01*
X48797Y23339D01*
X48673Y23154D01*
X48655Y23063D01*
X49073D01*
Y23481D01*
D02*
G37*
G36*
X26477Y23707D02*
X26299Y23672D01*
X26147Y23571D01*
X26046Y23419D01*
X26011Y23241D01*
X26046Y23063D01*
X26147Y22911D01*
X26299Y22810D01*
X26477Y22775D01*
X26655Y22810D01*
X26807Y22911D01*
X26908Y23063D01*
X26943Y23241D01*
X26908Y23419D01*
X26807Y23571D01*
X26655Y23672D01*
X26477Y23707D01*
D02*
G37*
G36*
X49327Y23481D02*
Y23063D01*
X49744D01*
X49726Y23154D01*
X49603Y23339D01*
X49418Y23463D01*
X49327Y23481D01*
D02*
G37*
G36*
X28890Y23861D02*
X28799Y23843D01*
X28614Y23720D01*
X28491Y23535D01*
X28473Y23444D01*
X28890D01*
Y23861D01*
D02*
G37*
G36*
X43534Y24723D02*
X43356Y24688D01*
X43204Y24587D01*
X43103Y24435D01*
X43068Y24257D01*
X43103Y24079D01*
X43204Y23927D01*
X43356Y23826D01*
X43510Y23796D01*
X43542Y23721D01*
X43549Y23668D01*
X43512Y23644D01*
X43389Y23459D01*
X43371Y23368D01*
X44459D01*
X44441Y23459D01*
X44318Y23644D01*
X44133Y23767D01*
X43917Y23810D01*
X43911Y23820D01*
X43869Y23914D01*
X43866Y23930D01*
X43965Y24079D01*
X44000Y24257D01*
X43965Y24435D01*
X43864Y24587D01*
X43712Y24688D01*
X43534Y24723D01*
D02*
G37*
G36*
X29561Y23190D02*
X29144D01*
Y22773D01*
X29235Y22791D01*
X29420Y22914D01*
X29543Y23099D01*
X29561Y23190D01*
D02*
G37*
G36*
X49744Y22809D02*
X49327D01*
Y22392D01*
X49418Y22410D01*
X49603Y22533D01*
X49726Y22718D01*
X49744Y22809D01*
D02*
G37*
G36*
X49073D02*
X48655D01*
X48673Y22718D01*
X48797Y22533D01*
X48982Y22410D01*
X49073Y22392D01*
Y22809D01*
D02*
G37*
G36*
X43788Y23114D02*
X43371D01*
X43389Y23023D01*
X43512Y22838D01*
X43697Y22715D01*
X43788Y22697D01*
Y23114D01*
D02*
G37*
G36*
X28890Y23190D02*
X28473D01*
X28491Y23099D01*
X28614Y22914D01*
X28799Y22791D01*
X28890Y22773D01*
Y23190D01*
D02*
G37*
G36*
X44459Y23114D02*
X44042D01*
Y22697D01*
X44133Y22715D01*
X44318Y22838D01*
X44441Y23023D01*
X44459Y23114D01*
D02*
G37*
G36*
X29144Y23861D02*
Y23444D01*
X29561D01*
X29543Y23535D01*
X29420Y23720D01*
X29235Y23843D01*
X29144Y23861D01*
D02*
G37*
G36*
X54123Y24473D02*
X53706D01*
X53724Y24382D01*
X53847Y24197D01*
X54032Y24074D01*
X54123Y24056D01*
Y24473D01*
D02*
G37*
G36*
X67244Y24173D02*
X66827D01*
Y23756D01*
X66918Y23774D01*
X67103Y23897D01*
X67226Y24082D01*
X67244Y24173D01*
D02*
G37*
G36*
X54794Y24473D02*
X54377D01*
Y24056D01*
X54468Y24074D01*
X54653Y24197D01*
X54776Y24382D01*
X54794Y24473D01*
D02*
G37*
G36*
X37438Y24547D02*
Y24130D01*
X37855D01*
X37837Y24221D01*
X37714Y24406D01*
X37529Y24529D01*
X37438Y24547D01*
D02*
G37*
G36*
X37184D02*
X37093Y24529D01*
X36908Y24406D01*
X36785Y24221D01*
X36767Y24130D01*
X37184D01*
Y24547D01*
D02*
G37*
G36*
X66573Y24173D02*
X66156D01*
X66174Y24082D01*
X66297Y23897D01*
X66482Y23774D01*
X66573Y23756D01*
Y24173D01*
D02*
G37*
G36*
X37855Y23876D02*
X37438D01*
Y23459D01*
X37529Y23477D01*
X37714Y23600D01*
X37837Y23785D01*
X37855Y23876D01*
D02*
G37*
G36*
X37184D02*
X36767D01*
X36785Y23785D01*
X36908Y23600D01*
X37093Y23477D01*
X37184Y23459D01*
Y23876D01*
D02*
G37*
G36*
X40483Y23915D02*
X40066D01*
Y23498D01*
X40157Y23516D01*
X40342Y23639D01*
X40465Y23824D01*
X40483Y23915D01*
D02*
G37*
G36*
X39812D02*
X39395D01*
X39413Y23824D01*
X39536Y23639D01*
X39721Y23516D01*
X39812Y23498D01*
Y23915D01*
D02*
G37*
G36*
X10312Y9712D02*
X10134Y9676D01*
X9983Y9575D01*
X9882Y9424D01*
X9846Y9246D01*
X9882Y9067D01*
X9983Y8916D01*
X10134Y8815D01*
X10312Y8779D01*
X10491Y8815D01*
X10642Y8916D01*
X10743Y9067D01*
X10779Y9246D01*
X10743Y9424D01*
X10642Y9575D01*
X10491Y9676D01*
X10312Y9712D01*
D02*
G37*
G36*
X5500Y7664D02*
X5265Y7617D01*
X5066Y7484D01*
X4933Y7285D01*
X4886Y7050D01*
X4933Y6815D01*
X5066Y6616D01*
X5265Y6483D01*
X5500Y6436D01*
X5735Y6483D01*
X5934Y6616D01*
X6067Y6815D01*
X6114Y7050D01*
X6067Y7285D01*
X5934Y7484D01*
X5735Y7617D01*
X5500Y7664D01*
D02*
G37*
G36*
X3034Y2743D02*
X2616D01*
Y2326D01*
X2707Y2344D01*
X2892Y2467D01*
X3016Y2652D01*
X3034Y2743D01*
D02*
G37*
G36*
X2362D02*
X1945D01*
X1963Y2652D01*
X2086Y2467D01*
X2271Y2344D01*
X2362Y2326D01*
Y2743D01*
D02*
G37*
G36*
X7874D02*
X7457D01*
X7475Y2652D01*
X7598Y2467D01*
X7783Y2344D01*
X7874Y2326D01*
Y2743D01*
D02*
G37*
G36*
X8128Y3415D02*
Y2997D01*
X8545D01*
X8527Y3088D01*
X8404Y3273D01*
X8219Y3397D01*
X8128Y3415D01*
D02*
G37*
G36*
X2362D02*
X2271Y3397D01*
X2086Y3273D01*
X1963Y3088D01*
X1945Y2997D01*
X2362D01*
Y3415D01*
D02*
G37*
G36*
X7874D02*
X7783Y3397D01*
X7598Y3273D01*
X7475Y3088D01*
X7457Y2997D01*
X7874D01*
Y3415D01*
D02*
G37*
G36*
X2616D02*
Y2997D01*
X3034D01*
X3016Y3088D01*
X2892Y3273D01*
X2707Y3397D01*
X2616Y3415D01*
D02*
G37*
G36*
X2565Y12330D02*
Y11913D01*
X2983D01*
X2965Y12004D01*
X2841Y12188D01*
X2656Y12312D01*
X2565Y12330D01*
D02*
G37*
G36*
X6553Y16089D02*
X6462Y16071D01*
X6277Y15948D01*
X6154Y15763D01*
X6136Y15672D01*
X6553D01*
Y16089D01*
D02*
G37*
G36*
X6807D02*
Y15672D01*
X7225D01*
X7207Y15763D01*
X7083Y15948D01*
X6898Y16071D01*
X6807Y16089D01*
D02*
G37*
G36*
X7225Y15418D02*
X6807D01*
Y15000D01*
X6898Y15018D01*
X7083Y15142D01*
X7207Y15327D01*
X7225Y15418D01*
D02*
G37*
G36*
X6553D02*
X6136D01*
X6154Y15327D01*
X6277Y15142D01*
X6462Y15018D01*
X6553Y15000D01*
Y15418D01*
D02*
G37*
G36*
X8100Y12266D02*
X7922Y12231D01*
X7770Y12130D01*
X7669Y11978D01*
X7634Y11800D01*
X7669Y11622D01*
X7770Y11470D01*
X7922Y11369D01*
X8100Y11334D01*
X8278Y11369D01*
X8430Y11470D01*
X8531Y11622D01*
X8566Y11800D01*
X8531Y11978D01*
X8430Y12130D01*
X8278Y12231D01*
X8100Y12266D01*
D02*
G37*
G36*
X2983Y11659D02*
X2565D01*
Y11241D01*
X2656Y11259D01*
X2841Y11383D01*
X2965Y11568D01*
X2983Y11659D01*
D02*
G37*
G36*
X2311Y12330D02*
X2220Y12312D01*
X2036Y12188D01*
X1912Y12004D01*
X1894Y11913D01*
X2311D01*
Y12330D01*
D02*
G37*
G36*
Y11659D02*
X1894D01*
X1912Y11568D01*
X2036Y11383D01*
X2220Y11259D01*
X2311Y11241D01*
Y11659D01*
D02*
G37*
G36*
X5500Y12064D02*
X5265Y12017D01*
X5066Y11884D01*
X4933Y11685D01*
X4886Y11450D01*
X4933Y11215D01*
X5066Y11016D01*
X5265Y10883D01*
X5500Y10836D01*
X5735Y10883D01*
X5934Y11016D01*
X6067Y11215D01*
X6114Y11450D01*
X6067Y11685D01*
X5934Y11884D01*
X5735Y12017D01*
X5500Y12064D01*
D02*
G37*
G36*
X20952Y41275D02*
X20535D01*
Y40858D01*
X20626Y40876D01*
X20811Y40999D01*
X20934Y41184D01*
X20952Y41275D01*
D02*
G37*
G36*
X20535Y41946D02*
Y41529D01*
X20952D01*
X20934Y41620D01*
X20811Y41805D01*
X20626Y41928D01*
X20535Y41946D01*
D02*
G37*
G36*
X20281D02*
X20190Y41928D01*
X20005Y41805D01*
X19882Y41620D01*
X19864Y41529D01*
X20281D01*
Y41946D01*
D02*
G37*
G36*
Y41275D02*
X19864D01*
X19882Y41184D01*
X20005Y40999D01*
X20190Y40876D01*
X20281Y40858D01*
Y41275D01*
D02*
G37*
G36*
X32004Y42566D02*
X31768Y42535D01*
X31549Y42444D01*
X31360Y42300D01*
X31216Y42111D01*
X31125Y41892D01*
X31094Y41656D01*
X31125Y41420D01*
X31216Y41201D01*
X31360Y41012D01*
X31549Y40868D01*
X31768Y40777D01*
X32004Y40746D01*
X32240Y40777D01*
X32459Y40868D01*
X32648Y41012D01*
X32792Y41201D01*
X32883Y41420D01*
X32914Y41656D01*
X32883Y41892D01*
X32792Y42111D01*
X32648Y42300D01*
X32459Y42444D01*
X32240Y42535D01*
X32004Y42566D01*
D02*
G37*
G36*
X41605Y41210D02*
Y40792D01*
X42023D01*
X42005Y40883D01*
X41881Y41068D01*
X41696Y41192D01*
X41605Y41210D01*
D02*
G37*
G36*
X41351D02*
X41260Y41192D01*
X41075Y41068D01*
X40952Y40883D01*
X40934Y40792D01*
X41351D01*
Y41210D01*
D02*
G37*
G36*
X2388Y41961D02*
X1970D01*
X1988Y41870D01*
X2112Y41685D01*
X2297Y41561D01*
X2388Y41543D01*
Y41961D01*
D02*
G37*
G36*
X29718Y42799D02*
X29301D01*
X29319Y42708D01*
X29442Y42523D01*
X29627Y42400D01*
X29718Y42382D01*
Y42799D01*
D02*
G37*
G36*
X2642Y42632D02*
Y42215D01*
X3059D01*
X3041Y42306D01*
X2917Y42491D01*
X2733Y42614D01*
X2642Y42632D01*
D02*
G37*
G36*
X30389Y42799D02*
X29972D01*
Y42382D01*
X30063Y42400D01*
X30248Y42523D01*
X30371Y42708D01*
X30389Y42799D01*
D02*
G37*
G36*
X58054Y42805D02*
Y42387D01*
X58472D01*
X58454Y42478D01*
X58330Y42663D01*
X58145Y42787D01*
X58054Y42805D01*
D02*
G37*
G36*
X57800D02*
X57709Y42787D01*
X57524Y42663D01*
X57401Y42478D01*
X57383Y42387D01*
X57800D01*
Y42805D01*
D02*
G37*
G36*
X2388Y42632D02*
X2297Y42614D01*
X2112Y42491D01*
X1988Y42306D01*
X1970Y42215D01*
X2388D01*
Y42632D01*
D02*
G37*
G36*
X57800Y42133D02*
X57383D01*
X57401Y42042D01*
X57524Y41857D01*
X57709Y41734D01*
X57800Y41716D01*
Y42133D01*
D02*
G37*
G36*
X3059Y41961D02*
X2642D01*
Y41543D01*
X2733Y41561D01*
X2917Y41685D01*
X3041Y41870D01*
X3059Y41961D01*
D02*
G37*
G36*
X58472Y42133D02*
X58054D01*
Y41716D01*
X58145Y41734D01*
X58330Y41857D01*
X58454Y42042D01*
X58472Y42133D01*
D02*
G37*
G36*
X5500Y43164D02*
X5265Y43117D01*
X5066Y42984D01*
X4933Y42785D01*
X4886Y42550D01*
X4933Y42315D01*
X5066Y42116D01*
X5265Y41983D01*
X5500Y41936D01*
X5735Y41983D01*
X5934Y42116D01*
X6067Y42315D01*
X6114Y42550D01*
X6067Y42785D01*
X5934Y42984D01*
X5735Y43117D01*
X5500Y43164D01*
D02*
G37*
G36*
X46875Y39891D02*
X46697Y39856D01*
X46545Y39755D01*
X46444Y39603D01*
X46409Y39425D01*
X46444Y39247D01*
X46545Y39095D01*
X46697Y38994D01*
X46875Y38959D01*
X47053Y38994D01*
X47205Y39095D01*
X47306Y39247D01*
X47341Y39425D01*
X47306Y39603D01*
X47205Y39755D01*
X47053Y39856D01*
X46875Y39891D01*
D02*
G37*
G36*
X44069Y40090D02*
X43891Y40055D01*
X43739Y39954D01*
X43638Y39802D01*
X43603Y39624D01*
X43638Y39446D01*
X43739Y39294D01*
X43891Y39193D01*
X44069Y39158D01*
X44247Y39193D01*
X44399Y39294D01*
X44500Y39446D01*
X44535Y39624D01*
X44500Y39802D01*
X44399Y39954D01*
X44247Y40055D01*
X44069Y40090D01*
D02*
G37*
G36*
X63652Y39669D02*
X63561Y39651D01*
X63377Y39528D01*
X63253Y39343D01*
X63235Y39252D01*
X63652D01*
Y39669D01*
D02*
G37*
G36*
X40437Y40141D02*
X40258Y40105D01*
X40107Y40004D01*
X40006Y39853D01*
X39971Y39675D01*
X40006Y39496D01*
X40107Y39345D01*
X40258Y39244D01*
X40437Y39209D01*
X40615Y39244D01*
X40766Y39345D01*
X40867Y39496D01*
X40903Y39675D01*
X40867Y39853D01*
X40766Y40004D01*
X40615Y40105D01*
X40437Y40141D01*
D02*
G37*
G36*
X16090Y39279D02*
Y38862D01*
X16507D01*
X16489Y38953D01*
X16366Y39138D01*
X16181Y39261D01*
X16090Y39279D01*
D02*
G37*
G36*
X64324Y38998D02*
X63906D01*
Y38581D01*
X63997Y38599D01*
X64182Y38722D01*
X64306Y38907D01*
X64324Y38998D01*
D02*
G37*
G36*
X63652D02*
X63235D01*
X63253Y38907D01*
X63377Y38722D01*
X63561Y38599D01*
X63652Y38581D01*
Y38998D01*
D02*
G37*
G36*
X49598Y39094D02*
X49507Y39076D01*
X49322Y38953D01*
X49199Y38768D01*
X49181Y38677D01*
X49598D01*
Y39094D01*
D02*
G37*
G36*
X15836Y39279D02*
X15745Y39261D01*
X15560Y39138D01*
X15437Y38953D01*
X15419Y38862D01*
X15836D01*
Y39279D01*
D02*
G37*
G36*
X49852Y39094D02*
Y38677D01*
X50269D01*
X50251Y38768D01*
X50128Y38953D01*
X49943Y39076D01*
X49852Y39094D01*
D02*
G37*
G36*
X63906Y39669D02*
Y39252D01*
X64324D01*
X64306Y39343D01*
X64182Y39528D01*
X63997Y39651D01*
X63906Y39669D01*
D02*
G37*
G36*
X6248Y40854D02*
Y40437D01*
X6666D01*
X6648Y40528D01*
X6524Y40713D01*
X6339Y40836D01*
X6248Y40854D01*
D02*
G37*
G36*
X5994D02*
X5903Y40836D01*
X5719Y40713D01*
X5595Y40528D01*
X5577Y40437D01*
X5994D01*
Y40854D01*
D02*
G37*
G36*
X6666Y40183D02*
X6248D01*
Y39765D01*
X6339Y39783D01*
X6524Y39907D01*
X6648Y40092D01*
X6666Y40183D01*
D02*
G37*
G36*
X5994D02*
X5577D01*
X5595Y40092D01*
X5719Y39907D01*
X5903Y39783D01*
X5994Y39765D01*
Y40183D01*
D02*
G37*
G36*
X41351Y40538D02*
X40934D01*
X40952Y40447D01*
X41075Y40263D01*
X41260Y40139D01*
X41351Y40121D01*
Y40538D01*
D02*
G37*
G36*
X63667Y41245D02*
X63489Y41210D01*
X63337Y41109D01*
X63236Y40957D01*
X63201Y40779D01*
X63236Y40601D01*
X63337Y40449D01*
X63489Y40348D01*
X63667Y40313D01*
X63845Y40348D01*
X63997Y40449D01*
X64098Y40601D01*
X64133Y40779D01*
X64098Y40957D01*
X63997Y41109D01*
X63845Y41210D01*
X63667Y41245D01*
D02*
G37*
G36*
X42023Y40538D02*
X41605D01*
Y40121D01*
X41696Y40139D01*
X41881Y40263D01*
X42005Y40447D01*
X42023Y40538D01*
D02*
G37*
G36*
X29718Y43470D02*
X29627Y43452D01*
X29442Y43329D01*
X29319Y43144D01*
X29301Y43053D01*
X29718D01*
Y43470D01*
D02*
G37*
G36*
X25378Y47468D02*
Y47051D01*
X25795D01*
X25777Y47142D01*
X25654Y47327D01*
X25469Y47450D01*
X25378Y47468D01*
D02*
G37*
G36*
X25124D02*
X25033Y47450D01*
X24848Y47327D01*
X24725Y47142D01*
X24707Y47051D01*
X25124D01*
Y47468D01*
D02*
G37*
G36*
X51410Y47945D02*
X51338Y47936D01*
X51152Y47859D01*
X50993Y47737D01*
X50871Y47577D01*
X50794Y47392D01*
X50785Y47320D01*
X51410D01*
Y47945D01*
D02*
G37*
G36*
X51664D02*
Y47320D01*
X52288D01*
X52279Y47392D01*
X52202Y47577D01*
X52080Y47737D01*
X51921Y47859D01*
X51736Y47936D01*
X51664Y47945D01*
D02*
G37*
G36*
X8103Y47863D02*
X7924Y47827D01*
X7773Y47726D01*
X7672Y47575D01*
X7636Y47396D01*
X7672Y47218D01*
X7773Y47067D01*
X7924Y46966D01*
X8103Y46930D01*
X8281Y46966D01*
X8432Y47067D01*
X8533Y47218D01*
X8569Y47396D01*
X8533Y47575D01*
X8432Y47726D01*
X8281Y47827D01*
X8103Y47863D01*
D02*
G37*
G36*
X19177Y47153D02*
Y46736D01*
X19594D01*
X19576Y46827D01*
X19453Y47012D01*
X19268Y47135D01*
X19177Y47153D01*
D02*
G37*
G36*
X18923D02*
X18832Y47135D01*
X18647Y47012D01*
X18524Y46827D01*
X18506Y46736D01*
X18923D01*
Y47153D01*
D02*
G37*
G36*
X10719Y47761D02*
X10540Y47725D01*
X10389Y47624D01*
X10288Y47473D01*
X10253Y47295D01*
X10288Y47116D01*
X10389Y46965D01*
X10540Y46864D01*
X10719Y46829D01*
X10897Y46864D01*
X11048Y46965D01*
X11149Y47116D01*
X11185Y47295D01*
X11149Y47473D01*
X11048Y47624D01*
X10897Y47725D01*
X10719Y47761D01*
D02*
G37*
G36*
X3034Y47295D02*
X2616D01*
Y46877D01*
X2707Y46895D01*
X2892Y47019D01*
X3016Y47204D01*
X3034Y47295D01*
D02*
G37*
G36*
X2362D02*
X1945D01*
X1963Y47204D01*
X2086Y47019D01*
X2271Y46895D01*
X2362Y46877D01*
Y47295D01*
D02*
G37*
G36*
X8545Y50775D02*
X8128D01*
Y50357D01*
X8219Y50375D01*
X8404Y50499D01*
X8527Y50684D01*
X8545Y50775D01*
D02*
G37*
G36*
X7874D02*
X7457D01*
X7475Y50684D01*
X7598Y50499D01*
X7783Y50375D01*
X7874Y50357D01*
Y50775D01*
D02*
G37*
G36*
Y51446D02*
X7783Y51428D01*
X7598Y51304D01*
X7475Y51120D01*
X7457Y51029D01*
X7874D01*
Y51446D01*
D02*
G37*
G36*
X8128D02*
Y51029D01*
X8545D01*
X8527Y51120D01*
X8404Y51304D01*
X8219Y51428D01*
X8128Y51446D01*
D02*
G37*
G36*
X2616Y47966D02*
Y47549D01*
X3034D01*
X3016Y47640D01*
X2892Y47825D01*
X2707Y47948D01*
X2616Y47966D01*
D02*
G37*
G36*
X2362D02*
X2271Y47948D01*
X2086Y47825D01*
X1963Y47640D01*
X1945Y47549D01*
X2362D01*
Y47966D01*
D02*
G37*
G36*
X56000Y49910D02*
X55764Y49879D01*
X55545Y49788D01*
X55356Y49644D01*
X55212Y49455D01*
X55121Y49236D01*
X55090Y49000D01*
X55121Y48764D01*
X55212Y48545D01*
X55356Y48356D01*
X55545Y48212D01*
X55764Y48121D01*
X56000Y48090D01*
X56236Y48121D01*
X56455Y48212D01*
X56644Y48356D01*
X56788Y48545D01*
X56879Y48764D01*
X56910Y49000D01*
X56879Y49236D01*
X56788Y49455D01*
X56644Y49644D01*
X56455Y49788D01*
X56236Y49879D01*
X56000Y49910D01*
D02*
G37*
G36*
X48697Y45561D02*
X48279D01*
X48297Y45470D01*
X48421Y45285D01*
X48606Y45161D01*
X48697Y45143D01*
Y45561D01*
D02*
G37*
G36*
X49368D02*
X48951D01*
Y45143D01*
X49042Y45161D01*
X49226Y45285D01*
X49350Y45470D01*
X49368Y45561D01*
D02*
G37*
G36*
X48697Y46232D02*
X48606Y46214D01*
X48421Y46090D01*
X48297Y45906D01*
X48279Y45815D01*
X48697D01*
Y46232D01*
D02*
G37*
G36*
X33800Y46166D02*
X33622Y46131D01*
X33470Y46030D01*
X33369Y45878D01*
X33334Y45700D01*
X33369Y45522D01*
X33470Y45370D01*
X33622Y45269D01*
X33800Y45234D01*
X33978Y45269D01*
X34130Y45370D01*
X34231Y45522D01*
X34266Y45700D01*
X34231Y45878D01*
X34130Y46030D01*
X33978Y46131D01*
X33800Y46166D01*
D02*
G37*
G36*
X29972Y43470D02*
Y43053D01*
X30389D01*
X30371Y43144D01*
X30248Y43329D01*
X30063Y43452D01*
X29972Y43470D01*
D02*
G37*
G36*
X52300Y45666D02*
X52122Y45631D01*
X51970Y45530D01*
X51869Y45378D01*
X51834Y45200D01*
X51869Y45022D01*
X51970Y44870D01*
X52122Y44769D01*
X52300Y44734D01*
X52478Y44769D01*
X52630Y44870D01*
X52731Y45022D01*
X52766Y45200D01*
X52731Y45378D01*
X52630Y45530D01*
X52478Y45631D01*
X52300Y45666D01*
D02*
G37*
G36*
X5639Y45221D02*
X5460Y45185D01*
X5309Y45084D01*
X5208Y44933D01*
X5173Y44755D01*
X5208Y44576D01*
X5309Y44425D01*
X5460Y44324D01*
X5639Y44289D01*
X5817Y44324D01*
X5968Y44425D01*
X6069Y44576D01*
X6105Y44755D01*
X6069Y44933D01*
X5968Y45084D01*
X5817Y45185D01*
X5639Y45221D01*
D02*
G37*
G36*
X48951Y46232D02*
Y45815D01*
X49368D01*
X49350Y45906D01*
X49226Y46090D01*
X49042Y46214D01*
X48951Y46232D01*
D02*
G37*
G36*
X51410Y47066D02*
X50785D01*
X50794Y46994D01*
X50871Y46809D01*
X50993Y46650D01*
X51152Y46528D01*
X51338Y46451D01*
X51410Y46441D01*
Y47066D01*
D02*
G37*
G36*
X25795Y46797D02*
X25378D01*
Y46380D01*
X25469Y46398D01*
X25654Y46521D01*
X25777Y46706D01*
X25795Y46797D01*
D02*
G37*
G36*
X52288Y47066D02*
X51664D01*
Y46441D01*
X51736Y46451D01*
X51921Y46528D01*
X52080Y46650D01*
X52202Y46809D01*
X52279Y46994D01*
X52288Y47066D01*
D02*
G37*
G36*
X25124Y46797D02*
X24707D01*
X24725Y46706D01*
X24848Y46521D01*
X25033Y46398D01*
X25124Y46380D01*
Y46797D01*
D02*
G37*
G36*
X19594Y46482D02*
X19177D01*
Y46065D01*
X19268Y46083D01*
X19453Y46206D01*
X19576Y46391D01*
X19594Y46482D01*
D02*
G37*
G36*
X18923D02*
X18506D01*
X18524Y46391D01*
X18647Y46206D01*
X18832Y46083D01*
X18923Y46065D01*
Y46482D01*
D02*
G37*
G36*
X23368Y47075D02*
X23190Y47040D01*
X23038Y46939D01*
X22937Y46787D01*
X22902Y46609D01*
X22937Y46431D01*
X23038Y46279D01*
X23190Y46178D01*
X23368Y46143D01*
X23546Y46178D01*
X23698Y46279D01*
X23799Y46431D01*
X23834Y46609D01*
X23799Y46787D01*
X23698Y46939D01*
X23546Y47040D01*
X23368Y47075D01*
D02*
G37*
G36*
X5500Y47564D02*
X5265Y47517D01*
X5066Y47384D01*
X4933Y47185D01*
X4886Y46950D01*
X4933Y46715D01*
X5066Y46516D01*
X5265Y46383D01*
X5500Y46336D01*
X5735Y46383D01*
X5934Y46516D01*
X6067Y46715D01*
X6114Y46950D01*
X6067Y47185D01*
X5934Y47384D01*
X5735Y47517D01*
X5500Y47564D01*
D02*
G37*
G36*
X45212Y47075D02*
X45034Y47040D01*
X44882Y46939D01*
X44781Y46787D01*
X44746Y46609D01*
X44781Y46431D01*
X44882Y46279D01*
X45034Y46178D01*
X45212Y46143D01*
X45390Y46178D01*
X45542Y46279D01*
X45643Y46431D01*
X45678Y46609D01*
X45643Y46787D01*
X45542Y46939D01*
X45390Y47040D01*
X45212Y47075D01*
D02*
G37*
G36*
X54040Y31718D02*
X53623D01*
Y31300D01*
X53714Y31318D01*
X53898Y31442D01*
X54022Y31627D01*
X54040Y31718D01*
D02*
G37*
G36*
X53369D02*
X52951D01*
X52969Y31627D01*
X53093Y31442D01*
X53278Y31318D01*
X53369Y31300D01*
Y31718D01*
D02*
G37*
G36*
X38700Y32266D02*
X38522Y32231D01*
X38370Y32130D01*
X38269Y31978D01*
X38234Y31800D01*
X38269Y31622D01*
X38370Y31470D01*
X38522Y31369D01*
X38700Y31334D01*
X38878Y31369D01*
X39030Y31470D01*
X39131Y31622D01*
X39166Y31800D01*
X39131Y31978D01*
X39030Y32130D01*
X38878Y32231D01*
X38700Y32266D01*
D02*
G37*
G36*
X53623Y32389D02*
Y31972D01*
X54040D01*
X54022Y32063D01*
X53898Y32247D01*
X53714Y32371D01*
X53623Y32389D01*
D02*
G37*
G36*
X53369D02*
X53278Y32371D01*
X53093Y32247D01*
X52969Y32063D01*
X52951Y31972D01*
X53369D01*
Y32389D01*
D02*
G37*
G36*
X62726Y28962D02*
Y28544D01*
X63144D01*
X63126Y28635D01*
X63002Y28820D01*
X62817Y28944D01*
X62726Y28962D01*
D02*
G37*
G36*
X62472D02*
X62381Y28944D01*
X62196Y28820D01*
X62073Y28635D01*
X62055Y28544D01*
X62472D01*
Y28962D01*
D02*
G37*
G36*
X34390Y29627D02*
X34299Y29609D01*
X34114Y29486D01*
X33991Y29301D01*
X33973Y29210D01*
X34390D01*
Y29627D01*
D02*
G37*
G36*
X34644D02*
Y29210D01*
X35061D01*
X35043Y29301D01*
X34920Y29486D01*
X34735Y29609D01*
X34644Y29627D01*
D02*
G37*
G36*
X23595Y32639D02*
X23178D01*
X23196Y32548D01*
X23319Y32363D01*
X23504Y32240D01*
X23595Y32222D01*
Y32639D01*
D02*
G37*
G36*
Y33310D02*
X23504Y33292D01*
X23319Y33169D01*
X23196Y32984D01*
X23178Y32893D01*
X23595D01*
Y33310D01*
D02*
G37*
G36*
X30467Y32954D02*
X30050D01*
Y32537D01*
X30141Y32555D01*
X30326Y32678D01*
X30449Y32863D01*
X30467Y32954D01*
D02*
G37*
G36*
X23849Y33310D02*
Y32893D01*
X24266D01*
X24248Y32984D01*
X24125Y33169D01*
X23940Y33292D01*
X23849Y33310D01*
D02*
G37*
G36*
X30050Y33625D02*
Y33208D01*
X30467D01*
X30449Y33299D01*
X30326Y33484D01*
X30141Y33607D01*
X30050Y33625D01*
D02*
G37*
G36*
X29796D02*
X29705Y33607D01*
X29520Y33484D01*
X29397Y33299D01*
X29379Y33208D01*
X29796D01*
Y33625D01*
D02*
G37*
G36*
Y32954D02*
X29379D01*
X29397Y32863D01*
X29520Y32678D01*
X29705Y32555D01*
X29796Y32537D01*
Y32954D01*
D02*
G37*
G36*
X58242Y33181D02*
X58064Y33146D01*
X57913Y33045D01*
X57812Y32894D01*
X57776Y32715D01*
X57812Y32537D01*
X57913Y32386D01*
X58064Y32285D01*
X58242Y32249D01*
X58421Y32285D01*
X58572Y32386D01*
X58673Y32537D01*
X58708Y32715D01*
X58673Y32894D01*
X58572Y33045D01*
X58421Y33146D01*
X58242Y33181D01*
D02*
G37*
G36*
X24266Y32639D02*
X23849D01*
Y32222D01*
X23940Y32240D01*
X24125Y32363D01*
X24248Y32548D01*
X24266Y32639D01*
D02*
G37*
G36*
X28040Y33232D02*
X27862Y33197D01*
X27710Y33096D01*
X27609Y32944D01*
X27574Y32766D01*
X27609Y32588D01*
X27710Y32436D01*
X27862Y32335D01*
X28040Y32300D01*
X28218Y32335D01*
X28370Y32436D01*
X28471Y32588D01*
X28506Y32766D01*
X28471Y32944D01*
X28370Y33096D01*
X28218Y33197D01*
X28040Y33232D01*
D02*
G37*
G36*
X16561Y33283D02*
X16382Y33247D01*
X16231Y33146D01*
X16130Y32995D01*
X16095Y32817D01*
X16130Y32638D01*
X16231Y32487D01*
X16382Y32386D01*
X16561Y32351D01*
X16739Y32386D01*
X16890Y32487D01*
X16991Y32638D01*
X17027Y32817D01*
X16991Y32995D01*
X16890Y33146D01*
X16739Y33247D01*
X16561Y33283D01*
D02*
G37*
G36*
X49884Y33232D02*
X49706Y33197D01*
X49554Y33096D01*
X49453Y32944D01*
X49418Y32766D01*
X49453Y32588D01*
X49554Y32436D01*
X49706Y32335D01*
X49884Y32300D01*
X50062Y32335D01*
X50214Y32436D01*
X50315Y32588D01*
X50350Y32766D01*
X50315Y32944D01*
X50214Y33096D01*
X50062Y33197D01*
X49884Y33232D01*
D02*
G37*
G36*
X25624Y27432D02*
X25207D01*
Y27015D01*
X25298Y27033D01*
X25483Y27156D01*
X25606Y27341D01*
X25624Y27432D01*
D02*
G37*
G36*
X24953D02*
X24536D01*
X24554Y27341D01*
X24677Y27156D01*
X24862Y27033D01*
X24953Y27015D01*
Y27432D01*
D02*
G37*
G36*
X36676Y28723D02*
X36440Y28692D01*
X36221Y28601D01*
X36032Y28457D01*
X35888Y28268D01*
X35797Y28049D01*
X35766Y27813D01*
X35797Y27577D01*
X35888Y27358D01*
X36032Y27169D01*
X36221Y27025D01*
X36440Y26934D01*
X36676Y26903D01*
X36912Y26934D01*
X37131Y27025D01*
X37320Y27169D01*
X37464Y27358D01*
X37555Y27577D01*
X37586Y27813D01*
X37555Y28049D01*
X37464Y28268D01*
X37320Y28457D01*
X37131Y28601D01*
X36912Y28692D01*
X36676Y28723D01*
D02*
G37*
G36*
X46330Y26884D02*
X46239Y26866D01*
X46054Y26743D01*
X45930Y26558D01*
X45912Y26467D01*
X46330D01*
Y26884D01*
D02*
G37*
G36*
X46584D02*
Y26467D01*
X47001D01*
X46983Y26558D01*
X46859Y26743D01*
X46675Y26866D01*
X46584Y26884D01*
D02*
G37*
G36*
X35061Y28956D02*
X34644D01*
Y28539D01*
X34735Y28557D01*
X34920Y28680D01*
X35043Y28865D01*
X35061Y28956D01*
D02*
G37*
G36*
X34390D02*
X33973D01*
X33991Y28865D01*
X34114Y28680D01*
X34299Y28557D01*
X34390Y28539D01*
Y28956D01*
D02*
G37*
G36*
X63144Y28290D02*
X62726D01*
Y27873D01*
X62817Y27891D01*
X63002Y28014D01*
X63126Y28199D01*
X63144Y28290D01*
D02*
G37*
G36*
X25207Y28103D02*
Y27686D01*
X25624D01*
X25606Y27777D01*
X25483Y27962D01*
X25298Y28085D01*
X25207Y28103D01*
D02*
G37*
G36*
X24953D02*
X24862Y28085D01*
X24677Y27962D01*
X24554Y27777D01*
X24536Y27686D01*
X24953D01*
Y28103D01*
D02*
G37*
G36*
X62472Y28290D02*
X62055D01*
X62073Y28199D01*
X62196Y28014D01*
X62381Y27891D01*
X62472Y27873D01*
Y28290D01*
D02*
G37*
G36*
X18085Y34604D02*
X17906Y34568D01*
X17755Y34467D01*
X17654Y34316D01*
X17619Y34138D01*
X17654Y33959D01*
X17755Y33808D01*
X17906Y33707D01*
X18085Y33671D01*
X18263Y33707D01*
X18414Y33808D01*
X18515Y33959D01*
X18551Y34138D01*
X18515Y34316D01*
X18414Y34467D01*
X18263Y34568D01*
X18085Y34604D01*
D02*
G37*
G36*
X1270Y37832D02*
X1179Y37814D01*
X994Y37690D01*
X871Y37505D01*
X853Y37414D01*
X1270D01*
Y37832D01*
D02*
G37*
G36*
X35811Y37758D02*
X35394D01*
Y37341D01*
X35485Y37359D01*
X35670Y37482D01*
X35793Y37667D01*
X35811Y37758D01*
D02*
G37*
G36*
X1524Y37832D02*
Y37414D01*
X1941D01*
X1923Y37505D01*
X1800Y37690D01*
X1615Y37814D01*
X1524Y37832D01*
D02*
G37*
G36*
X12794Y38123D02*
X12377D01*
Y37706D01*
X12468Y37724D01*
X12653Y37847D01*
X12776Y38032D01*
X12794Y38123D01*
D02*
G37*
G36*
X12123D02*
X11706D01*
X11724Y38032D01*
X11847Y37847D01*
X12032Y37724D01*
X12123Y37706D01*
Y38123D01*
D02*
G37*
G36*
X35140Y37758D02*
X34723D01*
X34741Y37667D01*
X34864Y37482D01*
X35049Y37359D01*
X35140Y37341D01*
Y37758D01*
D02*
G37*
G36*
X24218Y37689D02*
X24127Y37671D01*
X23942Y37548D01*
X23819Y37363D01*
X23801Y37272D01*
X24218D01*
Y37689D01*
D02*
G37*
G36*
X38862Y38566D02*
X38684Y38531D01*
X38532Y38430D01*
X38431Y38278D01*
X38396Y38100D01*
X38431Y37922D01*
X38532Y37770D01*
X38684Y37669D01*
X38838Y37639D01*
X38870Y37564D01*
X38877Y37511D01*
X38840Y37487D01*
X38717Y37302D01*
X38699Y37211D01*
X39787D01*
X39769Y37302D01*
X39646Y37487D01*
X39461Y37610D01*
X39245Y37653D01*
X39239Y37663D01*
X39197Y37757D01*
X39194Y37773D01*
X39293Y37922D01*
X39328Y38100D01*
X39293Y38278D01*
X39192Y38430D01*
X39040Y38531D01*
X38862Y38566D01*
D02*
G37*
G36*
X24472Y37689D02*
Y37272D01*
X24889D01*
X24871Y37363D01*
X24748Y37548D01*
X24563Y37671D01*
X24472Y37689D01*
D02*
G37*
G36*
X33183Y37719D02*
X32766D01*
Y37302D01*
X32857Y37320D01*
X33042Y37443D01*
X33165Y37628D01*
X33183Y37719D01*
D02*
G37*
G36*
X32512D02*
X32095D01*
X32113Y37628D01*
X32236Y37443D01*
X32421Y37320D01*
X32512Y37302D01*
Y37719D01*
D02*
G37*
G36*
Y38390D02*
X32421Y38372D01*
X32236Y38249D01*
X32113Y38064D01*
X32095Y37973D01*
X32512D01*
Y38390D01*
D02*
G37*
G36*
X15836Y38608D02*
X15419D01*
X15437Y38517D01*
X15560Y38332D01*
X15745Y38209D01*
X15836Y38191D01*
Y38608D01*
D02*
G37*
G36*
X16507D02*
X16090D01*
Y38191D01*
X16181Y38209D01*
X16366Y38332D01*
X16489Y38517D01*
X16507Y38608D01*
D02*
G37*
G36*
X12377Y38794D02*
Y38377D01*
X12794D01*
X12776Y38468D01*
X12653Y38653D01*
X12468Y38776D01*
X12377Y38794D01*
D02*
G37*
G36*
X12123D02*
X12032Y38776D01*
X11847Y38653D01*
X11724Y38468D01*
X11706Y38377D01*
X12123D01*
Y38794D01*
D02*
G37*
G36*
X49598Y38423D02*
X49181D01*
X49199Y38332D01*
X49322Y38147D01*
X49507Y38024D01*
X49598Y38006D01*
Y38423D01*
D02*
G37*
G36*
X32766Y38390D02*
Y37973D01*
X33183D01*
X33165Y38064D01*
X33042Y38249D01*
X32857Y38372D01*
X32766Y38390D01*
D02*
G37*
G36*
X50269Y38423D02*
X49852D01*
Y38006D01*
X49943Y38024D01*
X50128Y38147D01*
X50251Y38332D01*
X50269Y38423D01*
D02*
G37*
G36*
X35394Y38429D02*
Y38012D01*
X35811D01*
X35793Y38103D01*
X35670Y38288D01*
X35485Y38411D01*
X35394Y38429D01*
D02*
G37*
G36*
X35140D02*
X35049Y38411D01*
X34864Y38288D01*
X34741Y38103D01*
X34723Y38012D01*
X35140D01*
Y38429D01*
D02*
G37*
G36*
X2401Y35814D02*
X1524D01*
Y34937D01*
X2401D01*
Y35814D01*
D02*
G37*
G36*
X3937Y36851D02*
X3701Y36820D01*
X3482Y36729D01*
X3293Y36585D01*
X3149Y36396D01*
X3058Y36177D01*
X3027Y35941D01*
X3058Y35705D01*
X3149Y35486D01*
X3293Y35297D01*
X3482Y35153D01*
X3701Y35062D01*
X3937Y35031D01*
X4173Y35062D01*
X4392Y35153D01*
X4581Y35297D01*
X4725Y35486D01*
X4816Y35705D01*
X4847Y35941D01*
X4816Y36177D01*
X4725Y36396D01*
X4581Y36585D01*
X4392Y36729D01*
X4173Y36820D01*
X3937Y36851D01*
D02*
G37*
G36*
X23100Y36591D02*
X22922Y36556D01*
X22770Y36455D01*
X22669Y36303D01*
X22634Y36125D01*
X22669Y35947D01*
X22770Y35795D01*
X22922Y35694D01*
X23100Y35659D01*
X23278Y35694D01*
X23430Y35795D01*
X23531Y35947D01*
X23566Y36125D01*
X23531Y36303D01*
X23430Y36455D01*
X23278Y36556D01*
X23100Y36591D01*
D02*
G37*
G36*
X43561Y36534D02*
X43383Y36499D01*
X43231Y36398D01*
X43130Y36246D01*
X43095Y36068D01*
X43130Y35890D01*
X43231Y35738D01*
X43383Y35637D01*
X43561Y35602D01*
X43739Y35637D01*
X43891Y35738D01*
X43992Y35890D01*
X44027Y36068D01*
X43992Y36246D01*
X43891Y36398D01*
X43739Y36499D01*
X43561Y36534D01*
D02*
G37*
G36*
X33000Y35266D02*
X32822Y35231D01*
X32670Y35130D01*
X32569Y34978D01*
X32534Y34800D01*
X32569Y34622D01*
X32670Y34470D01*
X32822Y34369D01*
X33000Y34334D01*
X33178Y34369D01*
X33330Y34470D01*
X33431Y34622D01*
X33466Y34800D01*
X33431Y34978D01*
X33330Y35130D01*
X33178Y35231D01*
X33000Y35266D01*
D02*
G37*
G36*
X58200Y34766D02*
X58022Y34731D01*
X57870Y34630D01*
X57769Y34478D01*
X57734Y34300D01*
X57769Y34122D01*
X57870Y33970D01*
X58022Y33869D01*
X58200Y33834D01*
X58378Y33869D01*
X58530Y33970D01*
X58631Y34122D01*
X58666Y34300D01*
X58631Y34478D01*
X58530Y34630D01*
X58378Y34731D01*
X58200Y34766D01*
D02*
G37*
G36*
X7500Y34666D02*
X7322Y34631D01*
X7170Y34530D01*
X7069Y34378D01*
X7034Y34200D01*
X7069Y34022D01*
X7170Y33870D01*
X7322Y33769D01*
X7500Y33734D01*
X7678Y33769D01*
X7830Y33870D01*
X7931Y34022D01*
X7966Y34200D01*
X7931Y34378D01*
X7830Y34530D01*
X7678Y34631D01*
X7500Y34666D01*
D02*
G37*
G36*
X28900Y35266D02*
X28722Y35231D01*
X28570Y35130D01*
X28469Y34978D01*
X28434Y34800D01*
X28469Y34622D01*
X28570Y34470D01*
X28722Y34369D01*
X28900Y34334D01*
X29078Y34369D01*
X29230Y34470D01*
X29331Y34622D01*
X29366Y34800D01*
X29331Y34978D01*
X29230Y35130D01*
X29078Y35231D01*
X28900Y35266D01*
D02*
G37*
G36*
X12903Y34909D02*
X12725Y34873D01*
X12574Y34772D01*
X12473Y34621D01*
X12437Y34442D01*
X12473Y34264D01*
X12574Y34113D01*
X12725Y34012D01*
X12903Y33976D01*
X13082Y34012D01*
X13233Y34113D01*
X13334Y34264D01*
X13369Y34442D01*
X13334Y34621D01*
X13233Y34772D01*
X13082Y34873D01*
X12903Y34909D01*
D02*
G37*
G36*
X15225Y37091D02*
X15047Y37056D01*
X14895Y36955D01*
X14794Y36803D01*
X14759Y36625D01*
X14794Y36447D01*
X14895Y36295D01*
X15047Y36194D01*
X15225Y36159D01*
X15403Y36194D01*
X15555Y36295D01*
X15656Y36447D01*
X15691Y36625D01*
X15656Y36803D01*
X15555Y36955D01*
X15403Y37056D01*
X15225Y37091D01*
D02*
G37*
G36*
X8915Y37703D02*
X8737Y37667D01*
X8586Y37566D01*
X8485Y37415D01*
X8449Y37236D01*
X8485Y37058D01*
X8586Y36907D01*
X8737Y36806D01*
X8915Y36770D01*
X9094Y36806D01*
X9245Y36907D01*
X9346Y37058D01*
X9382Y37236D01*
X9346Y37415D01*
X9245Y37566D01*
X9094Y37667D01*
X8915Y37703D01*
D02*
G37*
G36*
X21805Y37550D02*
X21627Y37515D01*
X21475Y37414D01*
X21374Y37262D01*
X21339Y37084D01*
X21374Y36906D01*
X21475Y36754D01*
X21627Y36653D01*
X21805Y36618D01*
X21983Y36653D01*
X22135Y36754D01*
X22236Y36906D01*
X22271Y37084D01*
X22236Y37262D01*
X22135Y37414D01*
X21983Y37515D01*
X21805Y37550D01*
D02*
G37*
G36*
X10871Y37779D02*
X10693Y37743D01*
X10542Y37642D01*
X10441Y37491D01*
X10405Y37313D01*
X10441Y37134D01*
X10542Y36983D01*
X10693Y36882D01*
X10871Y36846D01*
X11050Y36882D01*
X11201Y36983D01*
X11302Y37134D01*
X11337Y37313D01*
X11302Y37491D01*
X11201Y37642D01*
X11050Y37743D01*
X10871Y37779D01*
D02*
G37*
G36*
X44704Y37273D02*
Y36855D01*
X45121D01*
X45103Y36946D01*
X44980Y37131D01*
X44795Y37255D01*
X44704Y37273D01*
D02*
G37*
G36*
X44450D02*
X44359Y37255D01*
X44174Y37131D01*
X44051Y36946D01*
X44033Y36855D01*
X44450D01*
Y37273D01*
D02*
G37*
G36*
X24889Y37018D02*
X24472D01*
Y36601D01*
X24563Y36619D01*
X24748Y36742D01*
X24871Y36927D01*
X24889Y37018D01*
D02*
G37*
G36*
X45121Y36601D02*
X44704D01*
Y36184D01*
X44795Y36202D01*
X44980Y36326D01*
X45103Y36510D01*
X45121Y36601D01*
D02*
G37*
G36*
X44450D02*
X44033D01*
X44051Y36510D01*
X44174Y36326D01*
X44359Y36202D01*
X44450Y36184D01*
Y36601D01*
D02*
G37*
G36*
X39116Y36957D02*
X38699D01*
X38717Y36866D01*
X38840Y36681D01*
X39025Y36558D01*
X39116Y36540D01*
Y36957D01*
D02*
G37*
G36*
X24218Y37018D02*
X23801D01*
X23819Y36927D01*
X23942Y36742D01*
X24127Y36619D01*
X24218Y36601D01*
Y37018D01*
D02*
G37*
G36*
X39787Y36957D02*
X39370D01*
Y36540D01*
X39461Y36558D01*
X39646Y36681D01*
X39769Y36866D01*
X39787Y36957D01*
D02*
G37*
G36*
X47142Y18974D02*
X46518D01*
X46527Y18902D01*
X46604Y18717D01*
X46726Y18557D01*
X46885Y18435D01*
X47070Y18358D01*
X47142Y18349D01*
Y18974D01*
D02*
G37*
G36*
X48021D02*
X47396D01*
Y18349D01*
X47468Y18358D01*
X47654Y18435D01*
X47813Y18557D01*
X47935Y18717D01*
X48012Y18902D01*
X48021Y18974D01*
D02*
G37*
G36*
X25005Y19279D02*
X24587D01*
Y18861D01*
X24678Y18879D01*
X24863Y19003D01*
X24987Y19188D01*
X25005Y19279D01*
D02*
G37*
G36*
X24333D02*
X23916D01*
X23934Y19188D01*
X24057Y19003D01*
X24242Y18879D01*
X24333Y18861D01*
Y19279D01*
D02*
G37*
G36*
X83200Y20210D02*
X82964Y20179D01*
X82745Y20088D01*
X82556Y19944D01*
X82412Y19755D01*
X82321Y19536D01*
X82290Y19300D01*
X82321Y19064D01*
X82412Y18845D01*
X82556Y18656D01*
X82745Y18512D01*
X82964Y18421D01*
X83200Y18390D01*
X83436Y18421D01*
X83655Y18512D01*
X83844Y18656D01*
X83988Y18845D01*
X84079Y19064D01*
X84110Y19300D01*
X84079Y19536D01*
X83988Y19755D01*
X83844Y19944D01*
X83655Y20088D01*
X83436Y20179D01*
X83200Y20210D01*
D02*
G37*
G36*
X30353Y17867D02*
X30262Y17849D01*
X30077Y17726D01*
X29954Y17541D01*
X29936Y17450D01*
X30353D01*
Y17867D01*
D02*
G37*
G36*
X68148Y18221D02*
X67970Y18185D01*
X67819Y18084D01*
X67718Y17933D01*
X67682Y17755D01*
X67718Y17576D01*
X67819Y17425D01*
X67970Y17324D01*
X68148Y17288D01*
X68327Y17324D01*
X68478Y17425D01*
X68579Y17576D01*
X68614Y17755D01*
X68579Y17933D01*
X68478Y18084D01*
X68327Y18185D01*
X68148Y18221D01*
D02*
G37*
G36*
X20066Y19071D02*
X19830Y19040D01*
X19611Y18949D01*
X19422Y18805D01*
X19278Y18616D01*
X19187Y18397D01*
X19156Y18161D01*
X19187Y17925D01*
X19278Y17706D01*
X19422Y17517D01*
X19611Y17373D01*
X19830Y17282D01*
X20066Y17251D01*
X20302Y17282D01*
X20521Y17373D01*
X20710Y17517D01*
X20854Y17706D01*
X20945Y17925D01*
X20976Y18161D01*
X20945Y18397D01*
X20854Y18616D01*
X20710Y18805D01*
X20521Y18949D01*
X20302Y19040D01*
X20066Y19071D01*
D02*
G37*
G36*
X21768Y18602D02*
X21589Y18566D01*
X21438Y18465D01*
X21337Y18314D01*
X21302Y18136D01*
X21337Y17957D01*
X21438Y17806D01*
X21589Y17705D01*
X21768Y17669D01*
X21946Y17705D01*
X22097Y17806D01*
X22198Y17957D01*
X22234Y18136D01*
X22198Y18314D01*
X22097Y18465D01*
X21946Y18566D01*
X21768Y18602D01*
D02*
G37*
G36*
X30607Y17867D02*
Y17450D01*
X31024D01*
X31006Y17541D01*
X30883Y17726D01*
X30698Y17849D01*
X30607Y17867D01*
D02*
G37*
G36*
X83073Y21713D02*
X82204D01*
X82222Y21578D01*
X82323Y21334D01*
X82484Y21124D01*
X82694Y20963D01*
X82938Y20862D01*
X83073Y20844D01*
Y21713D01*
D02*
G37*
G36*
X84196D02*
X83327D01*
Y20844D01*
X83462Y20862D01*
X83706Y20963D01*
X83916Y21124D01*
X84077Y21334D01*
X84178Y21578D01*
X84196Y21713D01*
D02*
G37*
G36*
X83073Y22836D02*
X82938Y22818D01*
X82694Y22717D01*
X82484Y22556D01*
X82323Y22346D01*
X82222Y22102D01*
X82204Y21967D01*
X83073D01*
Y22836D01*
D02*
G37*
G36*
X73533Y21240D02*
X73361Y21217D01*
X73200Y21151D01*
X73062Y21045D01*
X72956Y20907D01*
X72890Y20746D01*
X72867Y20574D01*
X72890Y20402D01*
X72956Y20241D01*
X73062Y20103D01*
X73200Y19997D01*
X73361Y19931D01*
X73533Y19908D01*
X73705Y19931D01*
X73866Y19997D01*
X74004Y20103D01*
X74110Y20241D01*
X74176Y20402D01*
X74199Y20574D01*
X74176Y20746D01*
X74110Y20907D01*
X74004Y21045D01*
X73866Y21151D01*
X73705Y21217D01*
X73533Y21240D01*
D02*
G37*
G36*
X32028Y19585D02*
X31610D01*
X31628Y19494D01*
X31752Y19309D01*
X31937Y19186D01*
X32028Y19168D01*
Y19585D01*
D02*
G37*
G36*
X32699D02*
X32282D01*
Y19168D01*
X32373Y19186D01*
X32557Y19309D01*
X32681Y19494D01*
X32699Y19585D01*
D02*
G37*
G36*
X47396Y19853D02*
Y19228D01*
X48021D01*
X48012Y19300D01*
X47935Y19485D01*
X47813Y19644D01*
X47654Y19766D01*
X47468Y19843D01*
X47396Y19853D01*
D02*
G37*
G36*
X47142D02*
X47070Y19843D01*
X46885Y19766D01*
X46726Y19644D01*
X46604Y19485D01*
X46527Y19300D01*
X46518Y19228D01*
X47142D01*
Y19853D01*
D02*
G37*
G36*
X60696Y16764D02*
X60071D01*
Y16139D01*
X60143Y16149D01*
X60328Y16225D01*
X60487Y16348D01*
X60610Y16507D01*
X60686Y16692D01*
X60696Y16764D01*
D02*
G37*
G36*
X59817D02*
X59192D01*
X59202Y16692D01*
X59278Y16507D01*
X59401Y16348D01*
X59560Y16225D01*
X59745Y16149D01*
X59817Y16139D01*
Y16764D01*
D02*
G37*
G36*
X16840Y16623D02*
X16749Y16605D01*
X16564Y16481D01*
X16441Y16296D01*
X16423Y16205D01*
X16840D01*
Y16623D01*
D02*
G37*
G36*
X71552Y16840D02*
X70927D01*
X70936Y16768D01*
X71013Y16583D01*
X71135Y16424D01*
X71295Y16302D01*
X71480Y16225D01*
X71552Y16215D01*
Y16840D01*
D02*
G37*
G36*
X17094Y16623D02*
Y16205D01*
X17512D01*
X17494Y16296D01*
X17370Y16481D01*
X17185Y16605D01*
X17094Y16623D01*
D02*
G37*
G36*
X19583Y17052D02*
X19405Y17017D01*
X19254Y16916D01*
X19153Y16765D01*
X19117Y16586D01*
X19153Y16408D01*
X19254Y16257D01*
X19405Y16156D01*
X19583Y16120D01*
X19762Y16156D01*
X19913Y16257D01*
X20014Y16408D01*
X20050Y16586D01*
X20014Y16765D01*
X19913Y16916D01*
X19762Y17017D01*
X19583Y17052D01*
D02*
G37*
G36*
X32512Y17176D02*
X32340Y17153D01*
X32179Y17087D01*
X32041Y16981D01*
X31935Y16843D01*
X31869Y16682D01*
X31846Y16510D01*
X31869Y16338D01*
X31935Y16177D01*
X32041Y16039D01*
X32179Y15933D01*
X32340Y15867D01*
X32512Y15844D01*
X32684Y15867D01*
X32845Y15933D01*
X32983Y16039D01*
X33089Y16177D01*
X33155Y16338D01*
X33178Y16510D01*
X33155Y16682D01*
X33089Y16843D01*
X32983Y16981D01*
X32845Y17087D01*
X32684Y17153D01*
X32512Y17176D01*
D02*
G37*
G36*
X83073Y16633D02*
X82204D01*
X82222Y16498D01*
X82323Y16254D01*
X82484Y16044D01*
X82694Y15883D01*
X82938Y15782D01*
X83073Y15764D01*
Y16633D01*
D02*
G37*
G36*
X56134Y16510D02*
X55509D01*
X55519Y16438D01*
X55595Y16253D01*
X55718Y16094D01*
X55877Y15971D01*
X56062Y15895D01*
X56134Y15885D01*
Y16510D01*
D02*
G37*
G36*
X73533Y17430D02*
X73361Y17407D01*
X73200Y17341D01*
X73062Y17235D01*
X72956Y17097D01*
X72890Y16936D01*
X72867Y16764D01*
X72890Y16592D01*
X72956Y16431D01*
X73062Y16293D01*
X73200Y16187D01*
X73361Y16121D01*
X73533Y16098D01*
X73705Y16121D01*
X73866Y16187D01*
X74004Y16293D01*
X74110Y16431D01*
X74176Y16592D01*
X74199Y16764D01*
X74176Y16936D01*
X74110Y17097D01*
X74004Y17235D01*
X73866Y17341D01*
X73705Y17407D01*
X73533Y17430D01*
D02*
G37*
G36*
X57013Y16510D02*
X56388D01*
Y15885D01*
X56460Y15895D01*
X56645Y15971D01*
X56804Y16094D01*
X56927Y16253D01*
X57003Y16438D01*
X57013Y16510D01*
D02*
G37*
G36*
X72431Y16840D02*
X71806D01*
Y16215D01*
X71878Y16225D01*
X72063Y16302D01*
X72222Y16424D01*
X72344Y16583D01*
X72421Y16768D01*
X72431Y16840D01*
D02*
G37*
G36*
X59817Y17643D02*
X59745Y17633D01*
X59560Y17557D01*
X59401Y17434D01*
X59278Y17275D01*
X59202Y17090D01*
X59192Y17018D01*
X59817D01*
Y17643D01*
D02*
G37*
G36*
X83327Y17756D02*
Y16887D01*
X84196D01*
X84178Y17022D01*
X84077Y17266D01*
X83916Y17476D01*
X83706Y17637D01*
X83462Y17738D01*
X83327Y17756D01*
D02*
G37*
G36*
X60071Y17643D02*
Y17018D01*
X60696D01*
X60686Y17090D01*
X60610Y17275D01*
X60487Y17434D01*
X60328Y17557D01*
X60143Y17633D01*
X60071Y17643D01*
D02*
G37*
G36*
X71806Y17719D02*
Y17094D01*
X72431D01*
X72421Y17166D01*
X72344Y17351D01*
X72222Y17511D01*
X72063Y17633D01*
X71878Y17710D01*
X71806Y17719D01*
D02*
G37*
G36*
X71552D02*
X71480Y17710D01*
X71295Y17633D01*
X71135Y17511D01*
X71013Y17351D01*
X70936Y17166D01*
X70927Y17094D01*
X71552D01*
Y17719D01*
D02*
G37*
G36*
X83073Y17756D02*
X82938Y17738D01*
X82694Y17637D01*
X82484Y17476D01*
X82323Y17266D01*
X82222Y17022D01*
X82204Y16887D01*
X83073D01*
Y17756D01*
D02*
G37*
G36*
X56134Y17389D02*
X56062Y17379D01*
X55877Y17303D01*
X55718Y17180D01*
X55595Y17021D01*
X55519Y16836D01*
X55509Y16764D01*
X56134D01*
Y17389D01*
D02*
G37*
G36*
X56388D02*
Y16764D01*
X57013D01*
X57003Y16836D01*
X56927Y17021D01*
X56804Y17180D01*
X56645Y17303D01*
X56460Y17379D01*
X56388Y17389D01*
D02*
G37*
G36*
X31024Y17196D02*
X30607D01*
Y16778D01*
X30698Y16796D01*
X30883Y16920D01*
X31006Y17105D01*
X31024Y17196D01*
D02*
G37*
G36*
X30353D02*
X29936D01*
X29954Y17105D01*
X30077Y16920D01*
X30262Y16796D01*
X30353Y16778D01*
Y17196D01*
D02*
G37*
G36*
X83327Y22836D02*
Y21967D01*
X84196D01*
X84178Y22102D01*
X84077Y22346D01*
X83916Y22556D01*
X83706Y22717D01*
X83462Y22818D01*
X83327Y22836D01*
D02*
G37*
G36*
X76338Y25984D02*
X75921D01*
Y25567D01*
X76012Y25585D01*
X76196Y25708D01*
X76320Y25893D01*
X76338Y25984D01*
D02*
G37*
G36*
X75667D02*
X75249D01*
X75267Y25893D01*
X75391Y25708D01*
X75576Y25585D01*
X75667Y25567D01*
Y25984D01*
D02*
G37*
G36*
X84102Y25282D02*
X82298D01*
Y23478D01*
X84102D01*
Y25282D01*
D02*
G37*
G36*
X22708Y5944D02*
X22290D01*
X22308Y5853D01*
X22432Y5668D01*
X22617Y5544D01*
X22708Y5526D01*
Y5944D01*
D02*
G37*
G36*
X19750Y6316D02*
X19572Y6281D01*
X19420Y6180D01*
X19319Y6028D01*
X19284Y5850D01*
X19319Y5672D01*
X19420Y5520D01*
X19572Y5419D01*
X19750Y5384D01*
X19928Y5419D01*
X20080Y5520D01*
X20181Y5672D01*
X20216Y5850D01*
X20181Y6028D01*
X20080Y6180D01*
X19928Y6281D01*
X19750Y6316D01*
D02*
G37*
G36*
X23379Y5944D02*
X22962D01*
Y5526D01*
X23053Y5544D01*
X23237Y5668D01*
X23361Y5853D01*
X23379Y5944D01*
D02*
G37*
G36*
X22708Y6615D02*
X22617Y6597D01*
X22432Y6473D01*
X22308Y6289D01*
X22290Y6198D01*
X22708D01*
Y6615D01*
D02*
G37*
G36*
X31203Y6588D02*
X31025Y6552D01*
X30874Y6451D01*
X30773Y6300D01*
X30737Y6121D01*
X30773Y5943D01*
X30874Y5792D01*
X31025Y5691D01*
X31203Y5655D01*
X31382Y5691D01*
X31533Y5792D01*
X31634Y5943D01*
X31669Y6121D01*
X31634Y6300D01*
X31533Y6451D01*
X31382Y6552D01*
X31203Y6588D01*
D02*
G37*
G36*
X26695Y6080D02*
X26517Y6044D01*
X26366Y5943D01*
X26265Y5792D01*
X26229Y5613D01*
X26265Y5435D01*
X26366Y5284D01*
X26517Y5183D01*
X26695Y5147D01*
X26874Y5183D01*
X27025Y5284D01*
X27126Y5435D01*
X27162Y5613D01*
X27126Y5792D01*
X27025Y5943D01*
X26874Y6044D01*
X26695Y6080D01*
D02*
G37*
G36*
X25934Y4341D02*
X25843Y4323D01*
X25658Y4199D01*
X25534Y4014D01*
X25516Y3923D01*
X25934D01*
Y4341D01*
D02*
G37*
G36*
X19355Y3745D02*
Y3327D01*
X19772D01*
X19754Y3418D01*
X19631Y3603D01*
X19446Y3727D01*
X19355Y3745D01*
D02*
G37*
G36*
X26188Y4341D02*
Y3923D01*
X26605D01*
X26587Y4014D01*
X26464Y4199D01*
X26279Y4323D01*
X26188Y4341D01*
D02*
G37*
G36*
X32588D02*
Y3923D01*
X33005D01*
X32987Y4014D01*
X32864Y4199D01*
X32679Y4323D01*
X32588Y4341D01*
D02*
G37*
G36*
X32334D02*
X32243Y4323D01*
X32058Y4199D01*
X31934Y4014D01*
X31916Y3923D01*
X32334D01*
Y4341D01*
D02*
G37*
G36*
X22962Y6615D02*
Y6198D01*
X23379D01*
X23361Y6289D01*
X23237Y6473D01*
X23053Y6597D01*
X22962Y6615D01*
D02*
G37*
G36*
X21615Y8534D02*
X21198D01*
X21216Y8443D01*
X21340Y8259D01*
X21524Y8135D01*
X21615Y8117D01*
Y8534D01*
D02*
G37*
G36*
X31482Y9982D02*
X31064D01*
Y9565D01*
X31149Y9582D01*
X31158Y9574D01*
X31217Y9462D01*
X31212Y9455D01*
X31121Y9236D01*
X31090Y9000D01*
X31121Y8764D01*
X31212Y8545D01*
X31356Y8356D01*
X31545Y8212D01*
X31764Y8121D01*
X32000Y8090D01*
X32236Y8121D01*
X32455Y8212D01*
X32644Y8356D01*
X32788Y8545D01*
X32879Y8764D01*
X32910Y9000D01*
X32879Y9236D01*
X32788Y9455D01*
X32644Y9644D01*
X32455Y9788D01*
X32236Y9879D01*
X32000Y9910D01*
X31764Y9879D01*
X31545Y9788D01*
X31456Y9880D01*
X31464Y9891D01*
X31482Y9982D01*
D02*
G37*
G36*
X22287Y8534D02*
X21869D01*
Y8117D01*
X21960Y8135D01*
X22145Y8259D01*
X22269Y8443D01*
X22287Y8534D01*
D02*
G37*
G36*
X21615Y9206D02*
X21524Y9188D01*
X21340Y9064D01*
X21216Y8879D01*
X21198Y8788D01*
X21615D01*
Y9206D01*
D02*
G37*
G36*
X23927Y8975D02*
X23748Y8940D01*
X23597Y8839D01*
X23496Y8687D01*
X23461Y8509D01*
X23496Y8331D01*
X23597Y8179D01*
X23748Y8078D01*
X23927Y8043D01*
X24105Y8078D01*
X24256Y8179D01*
X24357Y8331D01*
X24393Y8509D01*
X24357Y8687D01*
X24256Y8839D01*
X24105Y8940D01*
X23927Y8975D01*
D02*
G37*
G36*
X24486Y7578D02*
X24307Y7543D01*
X24156Y7442D01*
X24055Y7290D01*
X24019Y7112D01*
X24055Y6934D01*
X24156Y6782D01*
X24307Y6681D01*
X24486Y6646D01*
X24664Y6681D01*
X24815Y6782D01*
X24916Y6934D01*
X24952Y7112D01*
X24916Y7290D01*
X24815Y7442D01*
X24664Y7543D01*
X24486Y7578D01*
D02*
G37*
G36*
X31217Y7934D02*
X31038Y7898D01*
X30887Y7797D01*
X30786Y7646D01*
X30750Y7468D01*
X30786Y7289D01*
X30887Y7138D01*
X31038Y7037D01*
X31217Y7001D01*
X31395Y7037D01*
X31546Y7138D01*
X31647Y7289D01*
X31683Y7468D01*
X31647Y7646D01*
X31546Y7797D01*
X31395Y7898D01*
X31217Y7934D01*
D02*
G37*
G36*
X33020Y8317D02*
X32929Y8299D01*
X32744Y8175D01*
X32621Y7990D01*
X32603Y7899D01*
X33020D01*
Y8317D01*
D02*
G37*
G36*
Y7645D02*
X32603D01*
X32621Y7554D01*
X32744Y7370D01*
X32929Y7246D01*
X33020Y7228D01*
Y7645D01*
D02*
G37*
G36*
X19101Y3073D02*
X18683D01*
X18701Y2982D01*
X18825Y2798D01*
X19010Y2674D01*
X19101Y2656D01*
Y3073D01*
D02*
G37*
G36*
X31140Y3362D02*
X30962Y3326D01*
X30811Y3225D01*
X30710Y3074D01*
X30674Y2896D01*
X30710Y2717D01*
X30811Y2566D01*
X30962Y2465D01*
X31140Y2429D01*
X31319Y2465D01*
X31470Y2566D01*
X31571Y2717D01*
X31607Y2896D01*
X31571Y3074D01*
X31470Y3225D01*
X31319Y3326D01*
X31140Y3362D01*
D02*
G37*
G36*
X12675Y3108D02*
X12496Y3072D01*
X12345Y2971D01*
X12244Y2820D01*
X12208Y2642D01*
X12244Y2463D01*
X12345Y2312D01*
X12496Y2211D01*
X12675Y2175D01*
X12853Y2211D01*
X13004Y2312D01*
X13105Y2463D01*
X13141Y2642D01*
X13105Y2820D01*
X13004Y2971D01*
X12853Y3072D01*
X12675Y3108D01*
D02*
G37*
G36*
X32563Y2106D02*
X32406Y2075D01*
X32273Y1986D01*
X32184Y1853D01*
X32153Y1696D01*
Y996D01*
X32184Y839D01*
X32273Y706D01*
X32406Y617D01*
X32563Y586D01*
X32720Y617D01*
X32853Y706D01*
X32942Y839D01*
X32973Y996D01*
Y1696D01*
X32942Y1853D01*
X32853Y1986D01*
X32720Y2075D01*
X32563Y2106D01*
D02*
G37*
G36*
X25984D02*
X25827Y2075D01*
X25694Y1986D01*
X25605Y1853D01*
X25574Y1696D01*
Y996D01*
X25605Y839D01*
X25694Y706D01*
X25827Y617D01*
X25984Y586D01*
X26141Y617D01*
X26274Y706D01*
X26363Y839D01*
X26394Y996D01*
Y1696D01*
X26363Y1853D01*
X26274Y1986D01*
X26141Y2075D01*
X25984Y2106D01*
D02*
G37*
G36*
X18872Y1685D02*
X18694Y1650D01*
X18543Y1549D01*
X18442Y1398D01*
X18406Y1219D01*
X18442Y1041D01*
X18543Y890D01*
X18694Y789D01*
X18872Y753D01*
X19051Y789D01*
X19202Y890D01*
X19303Y1041D01*
X19338Y1219D01*
X19303Y1398D01*
X19202Y1549D01*
X19051Y1650D01*
X18872Y1685D01*
D02*
G37*
G36*
X18426Y2464D02*
X18009D01*
Y2046D01*
X18100Y2064D01*
X18284Y2188D01*
X18408Y2373D01*
X18426Y2464D01*
D02*
G37*
G36*
X17755D02*
X17337D01*
X17355Y2373D01*
X17479Y2188D01*
X17664Y2064D01*
X17755Y2046D01*
Y2464D01*
D02*
G37*
G36*
X19772Y3073D02*
X19355D01*
Y2656D01*
X19446Y2674D01*
X19631Y2798D01*
X19754Y2982D01*
X19772Y3073D01*
D02*
G37*
G36*
X26605Y3669D02*
X26188D01*
Y3252D01*
X26279Y3270D01*
X26464Y3393D01*
X26587Y3578D01*
X26605Y3669D01*
D02*
G37*
G36*
X25934D02*
X25516D01*
X25534Y3578D01*
X25658Y3393D01*
X25843Y3270D01*
X25934Y3252D01*
Y3669D01*
D02*
G37*
G36*
X32334D02*
X31916D01*
X31934Y3578D01*
X32058Y3393D01*
X32243Y3270D01*
X32334Y3252D01*
Y3669D01*
D02*
G37*
G36*
X19101Y3745D02*
X19010Y3727D01*
X18825Y3603D01*
X18701Y3418D01*
X18683Y3327D01*
X19101D01*
Y3745D01*
D02*
G37*
G36*
X33005Y3669D02*
X32588D01*
Y3252D01*
X32679Y3270D01*
X32864Y3393D01*
X32987Y3578D01*
X33005Y3669D01*
D02*
G37*
G36*
X18009Y3135D02*
Y2718D01*
X18426D01*
X18408Y2809D01*
X18284Y2994D01*
X18100Y3117D01*
X18009Y3135D01*
D02*
G37*
G36*
X17755D02*
X17664Y3117D01*
X17479Y2994D01*
X17355Y2809D01*
X17337Y2718D01*
X17755D01*
Y3135D01*
D02*
G37*
G36*
X21869Y9206D02*
Y8788D01*
X22287D01*
X22269Y8879D01*
X22145Y9064D01*
X21960Y9188D01*
X21869Y9206D01*
D02*
G37*
G36*
X39319Y14499D02*
X39084Y14468D01*
X38864Y14377D01*
X38676Y14233D01*
X38531Y14044D01*
X38440Y13825D01*
X38409Y13589D01*
X38440Y13353D01*
X38531Y13134D01*
X38676Y12945D01*
X38864Y12801D01*
X39084Y12710D01*
X39319Y12679D01*
X39555Y12710D01*
X39774Y12801D01*
X39963Y12945D01*
X40107Y13134D01*
X40198Y13353D01*
X40229Y13589D01*
X40198Y13825D01*
X40107Y14044D01*
X39963Y14233D01*
X39774Y14377D01*
X39555Y14468D01*
X39319Y14499D01*
D02*
G37*
G36*
X42855Y13462D02*
X41986D01*
Y12593D01*
X42121Y12611D01*
X42366Y12712D01*
X42575Y12873D01*
X42736Y13083D01*
X42837Y13327D01*
X42855Y13462D01*
D02*
G37*
G36*
X45302Y14491D02*
X43497D01*
Y12687D01*
X45302D01*
Y14491D01*
D02*
G37*
G36*
X34163Y14636D02*
X33991Y14613D01*
X33830Y14547D01*
X33692Y14441D01*
X33586Y14303D01*
X33520Y14142D01*
X33497Y13970D01*
X33520Y13798D01*
X33586Y13637D01*
X33692Y13499D01*
X33830Y13393D01*
X33991Y13327D01*
X34163Y13304D01*
X34335Y13327D01*
X34496Y13393D01*
X34634Y13499D01*
X34740Y13637D01*
X34806Y13798D01*
X34829Y13970D01*
X34806Y14142D01*
X34740Y14303D01*
X34634Y14441D01*
X34496Y14547D01*
X34335Y14613D01*
X34163Y14636D01*
D02*
G37*
G36*
X17780Y13700D02*
X17602Y13664D01*
X17450Y13563D01*
X17349Y13412D01*
X17314Y13233D01*
X17349Y13055D01*
X17450Y12904D01*
X17602Y12803D01*
X17780Y12767D01*
X17958Y12803D01*
X18110Y12904D01*
X18211Y13055D01*
X18246Y13233D01*
X18211Y13412D01*
X18110Y13563D01*
X17958Y13664D01*
X17780Y13700D01*
D02*
G37*
G36*
X41732Y13462D02*
X40863D01*
X40881Y13327D01*
X40982Y13083D01*
X41143Y12873D01*
X41353Y12712D01*
X41597Y12611D01*
X41732Y12593D01*
Y13462D01*
D02*
G37*
G36*
X20300Y13666D02*
X20122Y13631D01*
X19970Y13530D01*
X19869Y13378D01*
X19834Y13200D01*
X19869Y13022D01*
X19970Y12870D01*
X20122Y12769D01*
X20300Y12734D01*
X20477Y12769D01*
X20482Y12766D01*
X20566Y12682D01*
X20569Y12677D01*
X20534Y12500D01*
X20569Y12322D01*
X20670Y12170D01*
X20822Y12069D01*
X21000Y12034D01*
X21178Y12069D01*
X21330Y12170D01*
X21431Y12322D01*
X21466Y12500D01*
X21431Y12678D01*
X21330Y12830D01*
X21178Y12931D01*
X21000Y12966D01*
X20823Y12931D01*
X20818Y12934D01*
X20734Y13018D01*
X20731Y13023D01*
X20766Y13200D01*
X20731Y13378D01*
X20630Y13530D01*
X20478Y13631D01*
X20300Y13666D01*
D02*
G37*
G36*
X21895Y13623D02*
X21716Y13588D01*
X21565Y13487D01*
X21464Y13336D01*
X21429Y13157D01*
X21464Y12979D01*
X21565Y12828D01*
X21716Y12727D01*
X21895Y12691D01*
X22073Y12727D01*
X22224Y12828D01*
X22325Y12979D01*
X22361Y13157D01*
X22344Y13240D01*
X22464Y13290D01*
X22483Y13262D01*
X22666Y13140D01*
X22667Y13131D01*
X22663Y13010D01*
X22631Y13004D01*
X22480Y12903D01*
X22379Y12751D01*
X22343Y12573D01*
X22379Y12395D01*
X22480Y12243D01*
X22631Y12142D01*
X22809Y12107D01*
X22988Y12142D01*
X23139Y12243D01*
X23240Y12395D01*
X23275Y12573D01*
X23240Y12751D01*
X23139Y12903D01*
X23008Y12990D01*
X23007Y13072D01*
X23021Y13122D01*
X23103Y13139D01*
X23288Y13262D01*
X23412Y13447D01*
X23430Y13538D01*
X22332D01*
X22236Y13492D01*
X22221Y13489D01*
X22073Y13588D01*
X21895Y13623D01*
D02*
G37*
G36*
X30124Y12762D02*
Y12344D01*
X30542D01*
X30524Y12435D01*
X30400Y12620D01*
X30215Y12744D01*
X30124Y12762D01*
D02*
G37*
G36*
X29870D02*
X29779Y12744D01*
X29595Y12620D01*
X29471Y12435D01*
X29453Y12344D01*
X29870D01*
Y12762D01*
D02*
G37*
G36*
X41732Y14585D02*
X41597Y14567D01*
X41353Y14466D01*
X41143Y14305D01*
X40982Y14095D01*
X40881Y13851D01*
X40863Y13716D01*
X41732D01*
Y14585D01*
D02*
G37*
G36*
X17512Y15951D02*
X17094D01*
Y15534D01*
X17185Y15552D01*
X17370Y15675D01*
X17494Y15860D01*
X17512Y15951D01*
D02*
G37*
G36*
X16840D02*
X16423D01*
X16441Y15860D01*
X16564Y15675D01*
X16749Y15552D01*
X16840Y15534D01*
Y15951D01*
D02*
G37*
G36*
X84196Y16633D02*
X83327D01*
Y15764D01*
X83462Y15782D01*
X83706Y15883D01*
X83916Y16044D01*
X84077Y16254D01*
X84178Y16498D01*
X84196Y16633D01*
D02*
G37*
G36*
X22758Y14210D02*
X22667Y14192D01*
X22483Y14068D01*
X22359Y13883D01*
X22341Y13792D01*
X22758D01*
Y14210D01*
D02*
G37*
G36*
X41986Y14585D02*
Y13716D01*
X42855D01*
X42837Y13851D01*
X42736Y14095D01*
X42575Y14305D01*
X42366Y14466D01*
X42121Y14567D01*
X41986Y14585D01*
D02*
G37*
G36*
X23012Y14210D02*
Y13792D01*
X23430D01*
X23412Y13883D01*
X23288Y14068D01*
X23103Y14192D01*
X23012Y14210D01*
D02*
G37*
G36*
X26670Y14792D02*
X26492Y14756D01*
X26340Y14655D01*
X26239Y14504D01*
X26204Y14326D01*
X26239Y14147D01*
X26340Y13996D01*
X26492Y13895D01*
X26670Y13859D01*
X26848Y13895D01*
X27000Y13996D01*
X27101Y14147D01*
X27136Y14326D01*
X27101Y14504D01*
X27000Y14655D01*
X26848Y14756D01*
X26670Y14792D01*
D02*
G37*
G36*
X29845Y10273D02*
Y9855D01*
X30262D01*
X30244Y9946D01*
X30121Y10131D01*
X29936Y10255D01*
X29845Y10273D01*
D02*
G37*
G36*
X29591D02*
X29500Y10255D01*
X29315Y10131D01*
X29192Y9946D01*
X29174Y9855D01*
X29591D01*
Y10273D01*
D02*
G37*
G36*
X25654Y10398D02*
X25476Y10362D01*
X25324Y10261D01*
X25223Y10110D01*
X25191Y9945D01*
X25149Y9924D01*
X25063Y9907D01*
X24965Y10055D01*
X24780Y10178D01*
X24689Y10196D01*
Y9652D01*
Y9108D01*
X24780Y9126D01*
X24965Y9249D01*
X25088Y9434D01*
X25132Y9652D01*
X25129Y9666D01*
X25248Y9715D01*
X25324Y9602D01*
X25476Y9501D01*
X25654Y9465D01*
X25832Y9501D01*
X25984Y9602D01*
X26085Y9753D01*
X26120Y9931D01*
X26085Y10110D01*
X25984Y10261D01*
X25832Y10362D01*
X25654Y10398D01*
D02*
G37*
G36*
X16115Y10617D02*
X15697D01*
Y10200D01*
X15788Y10218D01*
X15973Y10341D01*
X16097Y10526D01*
X16115Y10617D01*
D02*
G37*
G36*
X15443D02*
X15026D01*
X15044Y10526D01*
X15167Y10341D01*
X15352Y10218D01*
X15443Y10200D01*
Y10617D01*
D02*
G37*
G36*
X24435Y10196D02*
X24344Y10178D01*
X24159Y10055D01*
X24035Y9870D01*
X24017Y9779D01*
X24435D01*
Y10196D01*
D02*
G37*
G36*
Y9525D02*
X24017D01*
X24035Y9434D01*
X24159Y9249D01*
X24344Y9126D01*
X24435Y9108D01*
Y9525D01*
D02*
G37*
G36*
X15189Y9839D02*
X15011Y9803D01*
X14860Y9702D01*
X14759Y9551D01*
X14723Y9373D01*
X14759Y9194D01*
X14860Y9043D01*
X15011Y8942D01*
X15189Y8906D01*
X15368Y8942D01*
X15519Y9043D01*
X15620Y9194D01*
X15655Y9373D01*
X15620Y9551D01*
X15519Y9702D01*
X15368Y9803D01*
X15189Y9839D01*
D02*
G37*
G36*
X29591Y9601D02*
X29174D01*
X29192Y9510D01*
X29315Y9325D01*
X29500Y9202D01*
X29591Y9184D01*
Y9601D01*
D02*
G37*
G36*
X30810Y9982D02*
X30393D01*
X30411Y9891D01*
X30534Y9706D01*
X30719Y9583D01*
X30810Y9565D01*
Y9982D01*
D02*
G37*
G36*
X30262Y9601D02*
X29845D01*
Y9184D01*
X29936Y9202D01*
X30121Y9325D01*
X30244Y9510D01*
X30262Y9601D01*
D02*
G37*
G36*
X30810Y10654D02*
X30719Y10636D01*
X30534Y10512D01*
X30411Y10327D01*
X30393Y10236D01*
X30810D01*
Y10654D01*
D02*
G37*
G36*
X29870Y12090D02*
X29453D01*
X29471Y11999D01*
X29595Y11815D01*
X29779Y11691D01*
X29870Y11673D01*
Y12090D01*
D02*
G37*
G36*
X30542D02*
X30124D01*
Y11673D01*
X30215Y11691D01*
X30400Y11815D01*
X30524Y11999D01*
X30542Y12090D01*
D02*
G37*
G36*
X31064Y10654D02*
Y10236D01*
X31482D01*
X31464Y10327D01*
X31340Y10512D01*
X31155Y10636D01*
X31064Y10654D01*
D02*
G37*
G36*
X20218Y11795D02*
X20040Y11759D01*
X19889Y11658D01*
X19788Y11507D01*
X19752Y11328D01*
X19788Y11150D01*
X19889Y10999D01*
X20040Y10898D01*
X20218Y10862D01*
X20397Y10898D01*
X20548Y10999D01*
X20649Y11150D01*
X20685Y11328D01*
X20649Y11507D01*
X20548Y11658D01*
X20397Y11759D01*
X20218Y11795D01*
D02*
G37*
G36*
X15697Y11289D02*
Y10871D01*
X16115D01*
X16097Y10962D01*
X15973Y11147D01*
X15788Y11271D01*
X15697Y11289D01*
D02*
G37*
G36*
X15443D02*
X15352Y11271D01*
X15167Y11147D01*
X15044Y10962D01*
X15026Y10871D01*
X15443D01*
Y11289D01*
D02*
G37*
G36*
X67437Y42027D02*
X67365Y42017D01*
X67180Y41941D01*
X67021Y41818D01*
X66898Y41659D01*
X66822Y41474D01*
X66812Y41402D01*
X67437D01*
Y42027D01*
D02*
G37*
G36*
X67691D02*
Y41402D01*
X68316D01*
X68306Y41474D01*
X68230Y41659D01*
X68107Y41818D01*
X67948Y41941D01*
X67763Y42017D01*
X67691Y42027D01*
D02*
G37*
G36*
X78200Y42309D02*
X77991Y42282D01*
X77795Y42201D01*
X77628Y42072D01*
X77499Y41905D01*
X77418Y41709D01*
X77391Y41500D01*
X77418Y41291D01*
X77499Y41095D01*
X77628Y40928D01*
X77795Y40799D01*
X77991Y40718D01*
X78200Y40691D01*
X78409Y40718D01*
X78605Y40799D01*
X78772Y40928D01*
X78901Y41095D01*
X78982Y41291D01*
X79009Y41500D01*
X78982Y41709D01*
X78901Y41905D01*
X78772Y42072D01*
X78605Y42201D01*
X78409Y42282D01*
X78200Y42309D01*
D02*
G37*
G36*
X73200Y43361D02*
X72951Y43328D01*
X72720Y43232D01*
X72521Y43079D01*
X72368Y42880D01*
X72272Y42649D01*
X72239Y42400D01*
Y41600D01*
X72272Y41351D01*
X72368Y41120D01*
X72521Y40921D01*
X72720Y40768D01*
X72951Y40672D01*
X73200Y40639D01*
X73449Y40672D01*
X73680Y40768D01*
X73879Y40921D01*
X74032Y41120D01*
X74128Y41351D01*
X74161Y41600D01*
Y42400D01*
X74128Y42649D01*
X74032Y42880D01*
X73879Y43079D01*
X73680Y43232D01*
X73449Y43328D01*
X73200Y43361D01*
D02*
G37*
G36*
X70863Y44773D02*
X69800D01*
X68737D01*
Y44500D01*
X68773Y44225D01*
X68879Y43968D01*
X69048Y43748D01*
X69268Y43579D01*
X69415Y43519D01*
Y43381D01*
X69268Y43321D01*
X69048Y43152D01*
X68879Y42932D01*
X68773Y42675D01*
X68737Y42400D01*
Y42127D01*
X69800D01*
X70863D01*
Y42400D01*
X70827Y42675D01*
X70721Y42932D01*
X70552Y43152D01*
X70332Y43321D01*
X70185Y43381D01*
Y43519D01*
X70332Y43579D01*
X70552Y43748D01*
X70721Y43968D01*
X70827Y44225D01*
X70863Y44500D01*
Y44773D01*
D02*
G37*
G36*
X70100Y39866D02*
X69922Y39831D01*
X69770Y39730D01*
X69669Y39578D01*
X69634Y39400D01*
X69669Y39222D01*
X69770Y39070D01*
X69922Y38969D01*
X70100Y38934D01*
X70278Y38969D01*
X70430Y39070D01*
X70531Y39222D01*
X70566Y39400D01*
X70531Y39578D01*
X70430Y39730D01*
X70278Y39831D01*
X70100Y39866D01*
D02*
G37*
G36*
X67437Y41148D02*
X66812D01*
X66822Y41076D01*
X66898Y40891D01*
X67021Y40732D01*
X67180Y40609D01*
X67365Y40533D01*
X67437Y40523D01*
Y41148D01*
D02*
G37*
G36*
X68316D02*
X67691D01*
Y40523D01*
X67763Y40533D01*
X67948Y40609D01*
X68107Y40732D01*
X68230Y40891D01*
X68306Y41076D01*
X68316Y41148D01*
D02*
G37*
G36*
X70863Y41873D02*
X69927D01*
Y40554D01*
X70075Y40573D01*
X70332Y40679D01*
X70552Y40848D01*
X70721Y41068D01*
X70827Y41325D01*
X70863Y41600D01*
Y41873D01*
D02*
G37*
G36*
X69673D02*
X68737D01*
Y41600D01*
X68773Y41325D01*
X68879Y41068D01*
X69048Y40848D01*
X69268Y40679D01*
X69525Y40573D01*
X69673Y40554D01*
Y41873D01*
D02*
G37*
G36*
X71120Y48123D02*
X71048Y48113D01*
X70863Y48037D01*
X70704Y47914D01*
X70581Y47755D01*
X70505Y47570D01*
X70495Y47498D01*
X71120D01*
Y48123D01*
D02*
G37*
G36*
X71374D02*
Y47498D01*
X71999D01*
X71989Y47570D01*
X71913Y47755D01*
X71790Y47914D01*
X71631Y48037D01*
X71446Y48113D01*
X71374Y48123D01*
D02*
G37*
G36*
X48127Y51996D02*
Y51127D01*
X48996D01*
X48978Y51262D01*
X48877Y51506D01*
X48716Y51716D01*
X48506Y51877D01*
X48262Y51978D01*
X48127Y51996D01*
D02*
G37*
G36*
X74700Y50961D02*
X74425Y50925D01*
X74169Y50819D01*
X73949Y50651D01*
X73781Y50431D01*
X73675Y50175D01*
X73639Y49900D01*
X73675Y49625D01*
X73781Y49369D01*
X73949Y49149D01*
X74169Y48981D01*
X74425Y48875D01*
X74700Y48839D01*
X74975Y48875D01*
X75231Y48981D01*
X75451Y49149D01*
X75619Y49369D01*
X75725Y49625D01*
X75761Y49900D01*
X75725Y50175D01*
X75619Y50431D01*
X75451Y50651D01*
X75231Y50819D01*
X74975Y50925D01*
X74700Y50961D01*
D02*
G37*
G36*
X81000Y52163D02*
X80578Y52121D01*
X80172Y51998D01*
X79798Y51798D01*
X79471Y51529D01*
X79202Y51202D01*
X79002Y50828D01*
X78879Y50422D01*
X78837Y50000D01*
X78879Y49578D01*
X79002Y49172D01*
X79202Y48798D01*
X79471Y48471D01*
X79798Y48202D01*
X80172Y48002D01*
X80578Y47879D01*
X81000Y47837D01*
X81422Y47879D01*
X81828Y48002D01*
X82202Y48202D01*
X82529Y48471D01*
X82798Y48798D01*
X82998Y49172D01*
X83121Y49578D01*
X83163Y50000D01*
X83121Y50422D01*
X82998Y50828D01*
X82798Y51202D01*
X82529Y51529D01*
X82202Y51798D01*
X81828Y51998D01*
X81422Y52121D01*
X81000Y52163D01*
D02*
G37*
G36*
X70700Y50961D02*
X70425Y50925D01*
X70169Y50819D01*
X69949Y50651D01*
X69781Y50431D01*
X69675Y50175D01*
X69639Y49900D01*
X69675Y49625D01*
X69781Y49369D01*
X69949Y49149D01*
X70169Y48981D01*
X70425Y48875D01*
X70700Y48839D01*
X70975Y48875D01*
X71231Y48981D01*
X71451Y49149D01*
X71619Y49369D01*
X71725Y49625D01*
X71761Y49900D01*
X71725Y50175D01*
X71619Y50431D01*
X71451Y50651D01*
X71231Y50819D01*
X70975Y50925D01*
X70700Y50961D01*
D02*
G37*
G36*
X69927Y46346D02*
Y45027D01*
X70863D01*
Y45300D01*
X70827Y45575D01*
X70721Y45832D01*
X70552Y46052D01*
X70332Y46221D01*
X70075Y46327D01*
X69927Y46346D01*
D02*
G37*
G36*
X69673Y46346D02*
X69525Y46327D01*
X69268Y46221D01*
X69048Y46052D01*
X68879Y45832D01*
X68773Y45575D01*
X68737Y45300D01*
Y45027D01*
X69673D01*
Y46346D01*
D02*
G37*
G36*
X78200Y44849D02*
X77991Y44822D01*
X77795Y44741D01*
X77628Y44612D01*
X77499Y44445D01*
X77418Y44249D01*
X77391Y44040D01*
X77418Y43831D01*
X77499Y43635D01*
X77628Y43468D01*
X77795Y43339D01*
X77991Y43258D01*
X78200Y43231D01*
X78409Y43258D01*
X78605Y43339D01*
X78772Y43468D01*
X78901Y43635D01*
X78982Y43831D01*
X79009Y44040D01*
X78982Y44249D01*
X78901Y44445D01*
X78772Y44612D01*
X78605Y44741D01*
X78409Y44822D01*
X78200Y44849D01*
D02*
G37*
G36*
X83280D02*
X83071Y44822D01*
X82875Y44741D01*
X82708Y44612D01*
X82579Y44445D01*
X82498Y44249D01*
X82471Y44040D01*
X82498Y43831D01*
X82579Y43635D01*
X82708Y43468D01*
X82875Y43339D01*
X83071Y43258D01*
X83280Y43231D01*
X83489Y43258D01*
X83685Y43339D01*
X83852Y43468D01*
X83981Y43635D01*
X84062Y43831D01*
X84089Y44040D01*
X84062Y44249D01*
X83981Y44445D01*
X83852Y44612D01*
X83685Y44741D01*
X83489Y44822D01*
X83280Y44849D01*
D02*
G37*
G36*
X71999Y47244D02*
X71374D01*
Y46619D01*
X71446Y46629D01*
X71631Y46705D01*
X71790Y46828D01*
X71913Y46987D01*
X71989Y47172D01*
X71999Y47244D01*
D02*
G37*
G36*
X71120D02*
X70495D01*
X70505Y47172D01*
X70581Y46987D01*
X70704Y46828D01*
X70863Y46705D01*
X71048Y46629D01*
X71120Y46619D01*
Y47244D01*
D02*
G37*
G36*
X81700Y31966D02*
X81528Y31943D01*
X81367Y31877D01*
X81229Y31771D01*
X81123Y31633D01*
X81057Y31472D01*
X81034Y31300D01*
X81057Y31128D01*
X81123Y30967D01*
X81229Y30829D01*
X81367Y30723D01*
X81528Y30657D01*
X81700Y30634D01*
X81872Y30657D01*
X82033Y30723D01*
X82171Y30829D01*
X82277Y30967D01*
X82343Y31128D01*
X82366Y31300D01*
X82343Y31472D01*
X82277Y31633D01*
X82171Y31771D01*
X82033Y31877D01*
X81872Y31943D01*
X81700Y31966D01*
D02*
G37*
G36*
X77470Y30692D02*
X77292Y30657D01*
X77140Y30556D01*
X77039Y30404D01*
X77004Y30226D01*
X77039Y30048D01*
X77140Y29896D01*
X77292Y29795D01*
X77470Y29760D01*
X77648Y29795D01*
X77800Y29896D01*
X77901Y30048D01*
X77936Y30226D01*
X77901Y30404D01*
X77800Y30556D01*
X77648Y30657D01*
X77470Y30692D01*
D02*
G37*
G36*
X70256Y27508D02*
X69839D01*
X69857Y27417D01*
X69981Y27232D01*
X70165Y27109D01*
X70256Y27091D01*
Y27508D01*
D02*
G37*
G36*
X72644Y28330D02*
X72466Y28294D01*
X72314Y28193D01*
X72213Y28042D01*
X72178Y27864D01*
X72213Y27685D01*
X72314Y27534D01*
X72466Y27433D01*
X72644Y27398D01*
X72822Y27433D01*
X72974Y27534D01*
X73075Y27685D01*
X73110Y27864D01*
X73075Y28042D01*
X72974Y28193D01*
X72822Y28294D01*
X72644Y28330D01*
D02*
G37*
G36*
X70928Y27508D02*
X70510D01*
Y27091D01*
X70601Y27109D01*
X70786Y27232D01*
X70910Y27417D01*
X70928Y27508D01*
D02*
G37*
G36*
X75921Y26656D02*
Y26238D01*
X76338D01*
X76320Y26329D01*
X76196Y26514D01*
X76012Y26638D01*
X75921Y26656D01*
D02*
G37*
G36*
X75667D02*
X75576Y26638D01*
X75391Y26514D01*
X75267Y26329D01*
X75249Y26238D01*
X75667D01*
Y26656D01*
D02*
G37*
G36*
X83856Y28067D02*
X83439D01*
Y27650D01*
X83480Y27658D01*
X83557Y27545D01*
X83516Y27483D01*
X83481Y27305D01*
X83516Y27127D01*
X83617Y26975D01*
X83769Y26874D01*
X83947Y26839D01*
X84125Y26874D01*
X84277Y26975D01*
X84378Y27127D01*
X84413Y27305D01*
X84378Y27483D01*
X84277Y27635D01*
X84125Y27736D01*
X83947Y27771D01*
X83840Y27750D01*
X83764Y27864D01*
X83838Y27976D01*
X83856Y28067D01*
D02*
G37*
G36*
X83185D02*
X82768D01*
X82786Y27976D01*
X82909Y27791D01*
X83094Y27668D01*
X83185Y27650D01*
Y28067D01*
D02*
G37*
G36*
Y28738D02*
X83094Y28720D01*
X82909Y28597D01*
X82786Y28412D01*
X82768Y28321D01*
X83185D01*
Y28738D01*
D02*
G37*
G36*
X79375Y29368D02*
X79203Y29345D01*
X79042Y29279D01*
X78904Y29173D01*
X78798Y29035D01*
X78732Y28874D01*
X78709Y28702D01*
X78732Y28530D01*
X78798Y28369D01*
X78904Y28231D01*
X79042Y28125D01*
X79203Y28059D01*
X79375Y28036D01*
X79547Y28059D01*
X79708Y28125D01*
X79846Y28231D01*
X79952Y28369D01*
X80018Y28530D01*
X80041Y28702D01*
X80018Y28874D01*
X79952Y29035D01*
X79846Y29173D01*
X79708Y29279D01*
X79547Y29345D01*
X79375Y29368D01*
D02*
G37*
G36*
X83439Y28738D02*
Y28321D01*
X83856D01*
X83838Y28412D01*
X83715Y28597D01*
X83530Y28720D01*
X83439Y28738D01*
D02*
G37*
G36*
X70256Y28180D02*
X70165Y28162D01*
X69981Y28038D01*
X69857Y27853D01*
X69839Y27762D01*
X70256D01*
Y28180D01*
D02*
G37*
G36*
X70510D02*
Y27762D01*
X70928D01*
X70910Y27853D01*
X70786Y28038D01*
X70601Y28162D01*
X70510Y28180D01*
D02*
G37*
G36*
X83280Y39769D02*
X83071Y39742D01*
X82875Y39661D01*
X82708Y39532D01*
X82579Y39365D01*
X82498Y39169D01*
X82471Y38960D01*
X82498Y38751D01*
X82579Y38555D01*
X82708Y38388D01*
X82875Y38259D01*
X83071Y38178D01*
X83280Y38151D01*
X83489Y38178D01*
X83685Y38259D01*
X83852Y38388D01*
X83981Y38555D01*
X84062Y38751D01*
X84089Y38960D01*
X84062Y39169D01*
X83981Y39365D01*
X83852Y39532D01*
X83685Y39661D01*
X83489Y39742D01*
X83280Y39769D01*
D02*
G37*
G36*
X78200D02*
X77991Y39742D01*
X77795Y39661D01*
X77628Y39532D01*
X77499Y39365D01*
X77418Y39169D01*
X77391Y38960D01*
X77418Y38751D01*
X77499Y38555D01*
X77628Y38388D01*
X77795Y38259D01*
X77991Y38178D01*
X78200Y38151D01*
X78409Y38178D01*
X78605Y38259D01*
X78772Y38388D01*
X78901Y38555D01*
X78982Y38751D01*
X79009Y38960D01*
X78982Y39169D01*
X78901Y39365D01*
X78772Y39532D01*
X78605Y39661D01*
X78409Y39742D01*
X78200Y39769D01*
D02*
G37*
G36*
X81280Y35718D02*
X81108Y35695D01*
X80947Y35629D01*
X80809Y35523D01*
X80703Y35385D01*
X80637Y35224D01*
X80614Y35052D01*
X80637Y34880D01*
X80703Y34719D01*
X80809Y34581D01*
X80947Y34475D01*
X81108Y34409D01*
X81280Y34386D01*
X81452Y34409D01*
X81613Y34475D01*
X81751Y34581D01*
X81857Y34719D01*
X81923Y34880D01*
X81946Y35052D01*
X81923Y35224D01*
X81857Y35385D01*
X81751Y35523D01*
X81613Y35629D01*
X81452Y35695D01*
X81280Y35718D01*
D02*
G37*
G36*
X68466Y34870D02*
X68287Y34835D01*
X68136Y34734D01*
X68035Y34583D01*
X68000Y34404D01*
X68035Y34226D01*
X68136Y34075D01*
X68287Y33974D01*
X68466Y33938D01*
X68644Y33974D01*
X68795Y34075D01*
X68896Y34226D01*
X68932Y34404D01*
X68896Y34583D01*
X68795Y34734D01*
X68644Y34835D01*
X68466Y34870D01*
D02*
G37*
%LPD*%
D12*
X1397Y35941D02*
D03*
D53*
X41859Y13589D02*
D03*
X60000Y49000D02*
D03*
X48000Y51000D02*
D03*
Y49000D02*
D03*
X83200Y16760D02*
D03*
Y21840D02*
D03*
D57*
X69800Y42000D02*
D03*
Y44900D02*
D03*
D60*
X70383Y27635D02*
D03*
X75794Y26111D02*
D03*
X6680Y15545D02*
D03*
X2438Y11786D02*
D03*
X2489Y2870D02*
D03*
X8001D02*
D03*
Y50902D02*
D03*
X2489Y47422D02*
D03*
X2515Y42088D02*
D03*
X6121Y40310D02*
D03*
X63779Y39125D02*
D03*
X22835Y6071D02*
D03*
X15570Y10744D02*
D03*
X16967Y16078D02*
D03*
X39243Y37084D02*
D03*
X44577Y36728D02*
D03*
X49200Y22936D02*
D03*
X17375Y26025D02*
D03*
X54250Y24600D02*
D03*
X49725Y38550D02*
D03*
X12250Y38250D02*
D03*
X1397Y37287D02*
D03*
X29997Y12217D02*
D03*
X22885Y13665D02*
D03*
X24562Y9652D02*
D03*
X30937Y10109D02*
D03*
X29718Y9728D02*
D03*
X32461Y3796D02*
D03*
X26061D02*
D03*
X33147Y7772D02*
D03*
X19228Y3200D02*
D03*
X17882Y2591D02*
D03*
X83312Y28194D02*
D03*
X21742Y8661D02*
D03*
X15963Y38735D02*
D03*
X20408Y41402D02*
D03*
X48824Y45688D02*
D03*
X29845Y42926D02*
D03*
X19050Y46609D02*
D03*
X57927Y42260D02*
D03*
X35267Y37885D02*
D03*
X32639Y37846D02*
D03*
X25251Y46924D02*
D03*
X25080Y27559D02*
D03*
X62599Y28417D02*
D03*
X37311Y24003D02*
D03*
X53496Y31845D02*
D03*
X34517Y29083D02*
D03*
X23722Y32766D02*
D03*
X39939Y24042D02*
D03*
X29923Y33081D02*
D03*
X20635Y24892D02*
D03*
X43915Y23241D02*
D03*
X24460Y19406D02*
D03*
X30480Y17323D02*
D03*
X32155Y19712D02*
D03*
X24345Y37145D02*
D03*
X66700Y24300D02*
D03*
X29017Y23317D02*
D03*
X41478Y40665D02*
D03*
X46457Y26340D02*
D03*
D61*
X71679Y16967D02*
D03*
X51537Y47193D02*
D03*
X47269Y19101D02*
D03*
X67564Y41275D02*
D03*
X71247Y47371D02*
D03*
X59944Y16891D02*
D03*
X56261Y16637D02*
D03*
M02*
