G04 Layer_Color=32896*
%FSLAX43Y43*%
%MOMM*%
G71*
G01*
G75*
%ADD42C,0.152*%
%ADD43C,0.254*%
%ADD64C,0.200*%
%ADD71C,0.152*%
%ADD118C,0.500*%
D42*
X12013Y30498D02*
X14513D01*
Y22490D02*
Y30490D01*
X-4237Y27990D02*
X-3237Y26740D01*
X-4237Y25740D02*
X-3237Y26740D01*
X-4237Y25740D02*
X-3237Y26740D01*
X-6487D02*
X-3237D01*
X2013Y22490D02*
Y30490D01*
X8018Y30491D02*
X11018D01*
X3005D02*
X7005D01*
X-1987Y30472D02*
X2031D01*
X-1987Y22490D02*
X14513D01*
X-1987D02*
Y33971D01*
Y22490D02*
Y33971D01*
X-1149Y34021D02*
X14513D01*
D43*
X68200Y50400D02*
X68580Y50392D01*
X74498Y41400D02*
X75700D01*
Y44400D01*
X76700D01*
Y50400D01*
X77200D01*
Y51400D01*
X76200D02*
X77200D01*
X76200D02*
Y52900D01*
X77200D01*
Y53900D01*
X73200D02*
X77200D01*
X70942Y41401D02*
X72022Y41400D01*
X68580Y41392D02*
Y50392D01*
X68200Y50400D02*
Y51400D01*
X69200D01*
Y52900D01*
X68200D02*
X69200D01*
X68200D02*
Y53900D01*
X73200D01*
X42875Y12802D02*
Y14072D01*
X43129Y14326D01*
X43637D01*
X43891Y14072D01*
Y12802D01*
X45160Y14326D02*
Y12802D01*
X44399Y13564D01*
X45414D01*
D64*
X66674Y33957D02*
X76074D01*
X71374Y39957D02*
X75974D01*
X71374D02*
X75974D01*
X66574D02*
X71374D01*
X67274Y33957D02*
Y34857D01*
X67574D01*
Y33957D02*
Y34857D01*
X67474Y39057D02*
Y39957D01*
X67174Y39057D02*
X67474D01*
X67174D02*
Y39957D01*
X66547Y32439D02*
X75947D01*
X66647Y26439D02*
X71247D01*
X66647D02*
X71247D01*
X76047D01*
X75347Y31539D02*
Y32439D01*
X75047Y31539D02*
X75347D01*
X75047D02*
Y32439D01*
X75147Y26439D02*
Y27339D01*
X75447D01*
Y26439D02*
Y27339D01*
D71*
X75047Y32639D02*
Y33439D01*
X75447D01*
X75580Y33305D01*
Y32772D01*
X75447Y32639D01*
X75047D01*
X76380Y33439D02*
X75847D01*
X76380Y32905D01*
Y32772D01*
X76247Y32639D01*
X75980D01*
X75847Y32772D01*
X74143Y39967D02*
Y40767D01*
X74542D01*
X74676Y40634D01*
Y40101D01*
X74542Y39967D01*
X74143D01*
X74942Y40767D02*
X75209D01*
X75076D01*
Y39967D01*
X74942Y40101D01*
D118*
X45819Y12089D02*
Y15089D01*
X37819D02*
X45819D01*
X37819Y12089D02*
Y15089D01*
M02*
