M48
;Layer_Color=9474304
;FILE_FORMAT=4:2
METRIC,LZ
;TYPE=PLATED
T3F00S00C0.40
T4F00S00C0.50
;TYPE=NON_PLATED
%
G90
G05
T03
G00X000605Y-004424
M15
G01X000555
M16
G00X001195Y-004424
M15
G01X001245
M16
G00X002705Y-004424
M15
G01X002655
M16
G00X003295Y-004424
M15
G01X003345
M16
G00X004805Y-004424
M15
G01X004755
M16
G00X005395Y-004424
M15
G01X005445
M16
T04
G00X000292Y-00493
M15
G01Y-00483
M16
G00X000292Y-004554
M15
G01Y-004454
M16
G00X000453Y-0043
M15
G01Y-00424
M16
G00X001348Y-0043
M15
G01Y-00424
M16
G00X001507Y-004554
M15
G01Y-004454
M16
G00X001507Y-00494
M15
G01Y-00484
M16
G00X002392Y-00493
M15
G01Y-00483
M16
G00X002392Y-004554
M15
G01Y-004454
M16
G00X002552Y-0043
M15
G01Y-00424
M16
G00X003447Y-0043
M15
G01Y-00424
M16
G00X003607Y-004554
M15
G01Y-004454
M16
G00X003607Y-00494
M15
G01Y-00484
M16
G00X004492Y-00493
M15
G01Y-00483
M16
G00X004492Y-004554
M15
G01Y-004454
M16
G00X004652Y-0043
M15
G01Y-00424
M16
G00X005547Y-0043
M15
G01Y-00424
M16
G00X005707Y-004554
M15
G01Y-004454
M16
G00X005707Y-00494
M15
G01Y-00484
M16
G00X00229Y-00009
M15
G01Y-00016
M16
G00X00163Y-00009
M15
G01Y-00016
M16
G00X00119Y-000088
M15
G01Y-000158
M16
G00X00053Y-000088
M15
G01Y-000158
M16
M17
M30
