G04*
G04 #@! TF.GenerationSoftware,Altium Limited,Altium Designer,19.0.15 (446)*
G04*
G04 Layer_Color=32896*
%FSLAX42Y42*%
%MOMM*%
G71*
G01*
G75*
%ADD10C,0.25*%
%ADD11C,0.25*%
%ADD12C,0.20*%
%ADD13C,0.50*%
%ADD14C,0.10*%
%ADD15C,0.20*%
%ADD17C,0.13*%
%ADD19C,0.15*%
%ADD181C,0.60*%
%ADD182C,0.40*%
%ADD183R,29.00X6.00*%
D10*
X4881Y-1226D02*
G03*
X4881Y-1154I29J36D01*
G01*
X4999Y-1190D02*
G03*
X4999Y-1190I-89J0D01*
G01*
X5840Y-895D02*
X5852Y-901D01*
X5864Y-913D01*
X5870Y-932D01*
Y-944D01*
X5864Y-962D01*
X5852Y-974D01*
X5840Y-980D01*
X5822D01*
X5810Y-974D01*
X5797Y-962D01*
X5791Y-944D01*
Y-932D01*
X5797Y-913D01*
X5810Y-901D01*
X5822Y-895D01*
X5840D01*
X5764D02*
Y-1022D01*
Y-913D02*
X5751Y-901D01*
X5739Y-895D01*
X5721D01*
X5709Y-901D01*
X5697Y-913D01*
X5691Y-932D01*
Y-944D01*
X5697Y-962D01*
X5709Y-974D01*
X5721Y-980D01*
X5739D01*
X5751Y-974D01*
X5764Y-962D01*
X5664Y-932D02*
X5591D01*
Y-920D01*
X5597Y-907D01*
X5603Y-901D01*
X5615Y-895D01*
X5634D01*
X5646Y-901D01*
X5658Y-913D01*
X5664Y-932D01*
Y-944D01*
X5658Y-962D01*
X5646Y-974D01*
X5634Y-980D01*
X5615D01*
X5603Y-974D01*
X5591Y-962D01*
X5564Y-895D02*
Y-980D01*
Y-920D02*
X5546Y-901D01*
X5534Y-895D01*
X5516D01*
X5504Y-901D01*
X5498Y-920D01*
Y-980D01*
X5398Y-913D02*
X5404Y-901D01*
X5422Y-895D01*
X5440D01*
X5458Y-901D01*
X5464Y-913D01*
X5458Y-926D01*
X5446Y-932D01*
X5416Y-938D01*
X5404Y-944D01*
X5398Y-956D01*
Y-962D01*
X5404Y-974D01*
X5422Y-980D01*
X5440D01*
X5458Y-974D01*
X5464Y-962D01*
X5371Y-895D02*
Y-1022D01*
Y-913D02*
X5359Y-901D01*
X5347Y-895D01*
X5329D01*
X5317Y-901D01*
X5305Y-913D01*
X5299Y-932D01*
Y-944D01*
X5305Y-962D01*
X5317Y-974D01*
X5329Y-980D01*
X5347D01*
X5359Y-974D01*
X5371Y-962D01*
X5271Y-932D02*
X5199D01*
Y-920D01*
X5205Y-907D01*
X5211Y-901D01*
X5223Y-895D01*
X5241D01*
X5253Y-901D01*
X5265Y-913D01*
X5271Y-932D01*
Y-944D01*
X5265Y-962D01*
X5253Y-974D01*
X5241Y-980D01*
X5223D01*
X5211Y-974D01*
X5199Y-962D01*
X5172Y-932D02*
X5099D01*
Y-920D01*
X5105Y-907D01*
X5111Y-901D01*
X5123Y-895D01*
X5141D01*
X5154Y-901D01*
X5166Y-913D01*
X5172Y-932D01*
Y-944D01*
X5166Y-962D01*
X5154Y-974D01*
X5141Y-980D01*
X5123D01*
X5111Y-974D01*
X5099Y-962D01*
X4999Y-913D02*
X5011Y-901D01*
X5024Y-895D01*
X5042D01*
X5054Y-901D01*
X5066Y-913D01*
X5072Y-932D01*
Y-944D01*
X5066Y-962D01*
X5054Y-974D01*
X5042Y-980D01*
X5024D01*
X5011Y-974D01*
X4999Y-962D01*
X4972Y-853D02*
Y-980D01*
Y-920D02*
X4954Y-901D01*
X4942Y-895D01*
X4924D01*
X4912Y-901D01*
X4906Y-920D01*
Y-980D01*
X4872Y-895D02*
Y-1022D01*
Y-913D02*
X4860Y-901D01*
X4848Y-895D01*
X4830D01*
X4818Y-901D01*
X4806Y-913D01*
X4800Y-932D01*
Y-944D01*
X4806Y-962D01*
X4818Y-974D01*
X4830Y-980D01*
X4848D01*
X4860Y-974D01*
X4872Y-962D01*
X4773Y-853D02*
Y-980D01*
X4673Y-895D02*
Y-980D01*
Y-913D02*
X4686Y-901D01*
X4698Y-895D01*
X4716D01*
X4728Y-901D01*
X4740Y-913D01*
X4746Y-932D01*
Y-944D01*
X4740Y-962D01*
X4728Y-974D01*
X4716Y-980D01*
X4698D01*
X4686Y-974D01*
X4673Y-962D01*
X4621Y-853D02*
Y-956D01*
X4615Y-974D01*
X4603Y-980D01*
X4591D01*
X4640Y-895D02*
X4597D01*
X4525Y-853D02*
X4537D01*
X4549Y-859D01*
X4555Y-877D01*
Y-980D01*
X4573Y-895D02*
X4531D01*
X4476D02*
X4488Y-901D01*
X4501Y-913D01*
X4507Y-932D01*
Y-944D01*
X4501Y-962D01*
X4488Y-974D01*
X4476Y-980D01*
X4458D01*
X4446Y-974D01*
X4434Y-962D01*
X4428Y-944D01*
Y-932D01*
X4434Y-913D01*
X4446Y-901D01*
X4458Y-895D01*
X4476D01*
X4400D02*
Y-980D01*
Y-932D02*
X4394Y-913D01*
X4382Y-901D01*
X4370Y-895D01*
X4352D01*
X4340D02*
Y-980D01*
Y-920D02*
X4322Y-901D01*
X4310Y-895D01*
X4292D01*
X4280Y-901D01*
X4274Y-920D01*
Y-980D01*
Y-920D02*
X4256Y-901D01*
X4244Y-895D01*
X4225D01*
X4213Y-901D01*
X4207Y-920D01*
Y-980D01*
X4161Y-968D02*
X4167Y-974D01*
X4161Y-980D01*
X4155Y-974D01*
X4161Y-968D01*
X4127Y-895D02*
Y-956D01*
X4121Y-974D01*
X4109Y-980D01*
X4091D01*
X4079Y-974D01*
X4061Y-956D01*
Y-895D02*
Y-980D01*
X3955Y-913D02*
X3967Y-901D01*
X3979Y-895D01*
X3997D01*
X4010Y-901D01*
X4022Y-913D01*
X4028Y-932D01*
Y-944D01*
X4022Y-962D01*
X4010Y-974D01*
X3997Y-980D01*
X3979D01*
X3967Y-974D01*
X3955Y-962D01*
X3861Y-913D02*
X3867Y-901D01*
X3886Y-895D01*
X3904D01*
X3922Y-901D01*
X3928Y-913D01*
X3922Y-926D01*
X3910Y-932D01*
X3880Y-938D01*
X3867Y-944D01*
X3861Y-956D01*
Y-962D01*
X3867Y-974D01*
X3886Y-980D01*
X3904D01*
X3922Y-974D01*
X3928Y-962D01*
X3762Y-853D02*
Y-980D01*
Y-913D02*
X3774Y-901D01*
X3786Y-895D01*
X3805D01*
X3817Y-901D01*
X3829Y-913D01*
X3835Y-932D01*
Y-944D01*
X3829Y-962D01*
X3817Y-974D01*
X3805Y-980D01*
X3786D01*
X3774Y-974D01*
X3762Y-962D01*
X3722Y-968D02*
X3728Y-974D01*
X3722Y-980D01*
X3716Y-974D01*
X3722Y-968D01*
X3688Y-932D02*
X3616D01*
Y-920D01*
X3622Y-907D01*
X3628Y-901D01*
X3640Y-895D01*
X3658D01*
X3670Y-901D01*
X3682Y-913D01*
X3688Y-932D01*
Y-944D01*
X3682Y-962D01*
X3670Y-974D01*
X3658Y-980D01*
X3640D01*
X3628Y-974D01*
X3616Y-962D01*
X3516Y-853D02*
Y-980D01*
Y-913D02*
X3528Y-901D01*
X3540Y-895D01*
X3558D01*
X3571Y-901D01*
X3583Y-913D01*
X3589Y-932D01*
Y-944D01*
X3583Y-962D01*
X3571Y-974D01*
X3558Y-980D01*
X3540D01*
X3528Y-974D01*
X3516Y-962D01*
X3482Y-895D02*
Y-956D01*
X3476Y-974D01*
X3464Y-980D01*
X3446D01*
X3434Y-974D01*
X3416Y-956D01*
Y-895D02*
Y-980D01*
X5834Y-613D02*
X5846Y-619D01*
X5858Y-631D01*
X5864Y-643D01*
X5870Y-661D01*
Y-692D01*
X5864Y-710D01*
X5858Y-722D01*
X5846Y-734D01*
X5834Y-740D01*
X5810D01*
X5797Y-734D01*
X5785Y-722D01*
X5779Y-710D01*
X5773Y-692D01*
Y-661D01*
X5779Y-643D01*
X5785Y-631D01*
X5797Y-619D01*
X5810Y-613D01*
X5834D01*
X5659Y-631D02*
X5671Y-619D01*
X5689Y-613D01*
X5713D01*
X5732Y-619D01*
X5744Y-631D01*
Y-643D01*
X5738Y-655D01*
X5732Y-661D01*
X5719Y-667D01*
X5683Y-680D01*
X5671Y-686D01*
X5665Y-692D01*
X5659Y-704D01*
Y-722D01*
X5671Y-734D01*
X5689Y-740D01*
X5713D01*
X5732Y-734D01*
X5744Y-722D01*
X5631Y-680D02*
X5576D01*
X5558Y-673D01*
X5552Y-667D01*
X5546Y-655D01*
Y-637D01*
X5552Y-625D01*
X5558Y-619D01*
X5576Y-613D01*
X5631D01*
Y-740D01*
X5517Y-782D02*
X5421D01*
X5314Y-643D02*
X5320Y-631D01*
X5332Y-619D01*
X5344Y-613D01*
X5368D01*
X5380Y-619D01*
X5392Y-631D01*
X5398Y-643D01*
X5404Y-661D01*
Y-692D01*
X5398Y-710D01*
X5392Y-722D01*
X5380Y-734D01*
X5368Y-740D01*
X5344D01*
X5332Y-734D01*
X5320Y-722D01*
X5314Y-710D01*
X5206Y-655D02*
Y-740D01*
Y-673D02*
X5218Y-661D01*
X5230Y-655D01*
X5248D01*
X5260Y-661D01*
X5272Y-673D01*
X5278Y-692D01*
Y-704D01*
X5272Y-722D01*
X5260Y-734D01*
X5248Y-740D01*
X5230D01*
X5218Y-734D01*
X5206Y-722D01*
X5172Y-655D02*
Y-740D01*
Y-692D02*
X5166Y-673D01*
X5154Y-661D01*
X5141Y-655D01*
X5123D01*
X5112D02*
Y-740D01*
Y-692D02*
X5106Y-673D01*
X5094Y-661D01*
X5082Y-655D01*
X5063D01*
X5040Y-613D02*
X5034Y-619D01*
X5028Y-613D01*
X5034Y-607D01*
X5040Y-613D01*
X5034Y-655D02*
Y-740D01*
X5005Y-692D02*
X4933D01*
Y-680D01*
X4939Y-667D01*
X4945Y-661D01*
X4957Y-655D01*
X4975D01*
X4987Y-661D01*
X4999Y-673D01*
X5005Y-692D01*
Y-704D01*
X4999Y-722D01*
X4987Y-734D01*
X4975Y-740D01*
X4957D01*
X4945Y-734D01*
X4933Y-722D01*
X4906Y-655D02*
Y-740D01*
Y-692D02*
X4900Y-673D01*
X4887Y-661D01*
X4875Y-655D01*
X4857D01*
X4746Y-613D02*
X4698Y-740D01*
X4649Y-613D02*
X4698Y-740D01*
X4603Y-613D02*
X4621Y-619D01*
X4627Y-631D01*
Y-643D01*
X4621Y-655D01*
X4609Y-661D01*
X4585Y-667D01*
X4566Y-673D01*
X4554Y-686D01*
X4548Y-698D01*
Y-716D01*
X4554Y-728D01*
X4560Y-734D01*
X4579Y-740D01*
X4603D01*
X4621Y-734D01*
X4627Y-728D01*
X4633Y-716D01*
Y-698D01*
X4627Y-686D01*
X4615Y-673D01*
X4597Y-667D01*
X4572Y-661D01*
X4560Y-655D01*
X4554Y-643D01*
Y-631D01*
X4560Y-619D01*
X4579Y-613D01*
X4603D01*
X4514Y-728D02*
X4520Y-734D01*
X4514Y-740D01*
X4508Y-734D01*
X4514Y-728D01*
X4444Y-613D02*
X4462Y-619D01*
X4474Y-637D01*
X4480Y-667D01*
Y-686D01*
X4474Y-716D01*
X4462Y-734D01*
X4444Y-740D01*
X4432D01*
X4413Y-734D01*
X4401Y-716D01*
X4395Y-686D01*
Y-667D01*
X4401Y-637D01*
X4413Y-619D01*
X4432Y-613D01*
X4444D01*
X5779Y-1153D02*
X5785Y-1141D01*
X5797Y-1129D01*
X5810Y-1123D01*
X5834D01*
X5846Y-1129D01*
X5858Y-1141D01*
X5864Y-1153D01*
X5870Y-1171D01*
Y-1202D01*
X5864Y-1220D01*
X5858Y-1232D01*
X5846Y-1244D01*
X5834Y-1250D01*
X5810D01*
X5797Y-1244D01*
X5785Y-1232D01*
X5779Y-1220D01*
X5713Y-1165D02*
X5725Y-1171D01*
X5738Y-1183D01*
X5744Y-1202D01*
Y-1214D01*
X5738Y-1232D01*
X5725Y-1244D01*
X5713Y-1250D01*
X5695D01*
X5683Y-1244D01*
X5671Y-1232D01*
X5665Y-1214D01*
Y-1202D01*
X5671Y-1183D01*
X5683Y-1171D01*
X5695Y-1165D01*
X5713D01*
X5637D02*
Y-1292D01*
Y-1183D02*
X5625Y-1171D01*
X5613Y-1165D01*
X5595D01*
X5583Y-1171D01*
X5571Y-1183D01*
X5565Y-1202D01*
Y-1214D01*
X5571Y-1232D01*
X5583Y-1244D01*
X5595Y-1250D01*
X5613D01*
X5625Y-1244D01*
X5637Y-1232D01*
X5531Y-1165D02*
X5495Y-1250D01*
X5459Y-1165D02*
X5495Y-1250D01*
X5507Y-1274D01*
X5519Y-1286D01*
X5531Y-1292D01*
X5537D01*
X5438Y-1165D02*
Y-1250D01*
Y-1202D02*
X5432Y-1183D01*
X5420Y-1171D01*
X5407Y-1165D01*
X5389D01*
X5366Y-1123D02*
X5360Y-1129D01*
X5354Y-1123D01*
X5360Y-1117D01*
X5366Y-1123D01*
X5360Y-1165D02*
Y-1250D01*
X5259Y-1165D02*
Y-1262D01*
X5265Y-1280D01*
X5271Y-1286D01*
X5283Y-1292D01*
X5301D01*
X5313Y-1286D01*
X5259Y-1183D02*
X5271Y-1171D01*
X5283Y-1165D01*
X5301D01*
X5313Y-1171D01*
X5325Y-1183D01*
X5331Y-1202D01*
Y-1214D01*
X5325Y-1232D01*
X5313Y-1244D01*
X5301Y-1250D01*
X5283D01*
X5271Y-1244D01*
X5259Y-1232D01*
X5225Y-1123D02*
Y-1250D01*
Y-1190D02*
X5207Y-1171D01*
X5195Y-1165D01*
X5176D01*
X5164Y-1171D01*
X5158Y-1190D01*
Y-1250D01*
X5107Y-1123D02*
Y-1226D01*
X5101Y-1244D01*
X5089Y-1250D01*
X5077D01*
X5125Y-1165D02*
X5083D01*
X4753Y-1153D02*
Y-1147D01*
X4747Y-1135D01*
X4741Y-1129D01*
X4729Y-1123D01*
X4705D01*
X4693Y-1129D01*
X4687Y-1135D01*
X4681Y-1147D01*
Y-1159D01*
X4687Y-1171D01*
X4699Y-1190D01*
X4759Y-1250D01*
X4675D01*
X4610Y-1123D02*
X4628Y-1129D01*
X4640Y-1147D01*
X4646Y-1177D01*
Y-1196D01*
X4640Y-1226D01*
X4628Y-1244D01*
X4610Y-1250D01*
X4598D01*
X4580Y-1244D01*
X4568Y-1226D01*
X4562Y-1196D01*
Y-1177D01*
X4568Y-1147D01*
X4580Y-1129D01*
X4598Y-1123D01*
X4610D01*
X4533Y-1147D02*
X4521Y-1141D01*
X4503Y-1123D01*
Y-1250D01*
X4361Y-1165D02*
X4367Y-1183D01*
X4380Y-1196D01*
X4398Y-1202D01*
X4404D01*
X4422Y-1196D01*
X4434Y-1183D01*
X4440Y-1165D01*
Y-1159D01*
X4434Y-1141D01*
X4422Y-1129D01*
X4404Y-1123D01*
X4398D01*
X4380Y-1129D01*
X4367Y-1141D01*
X4361Y-1165D01*
Y-1196D01*
X4367Y-1226D01*
X4380Y-1244D01*
X4398Y-1250D01*
X4410D01*
X4428Y-1244D01*
X4434Y-1232D01*
X4227Y-1123D02*
Y-1214D01*
X4221Y-1232D01*
X4209Y-1244D01*
X4191Y-1250D01*
X4179D01*
X4161Y-1244D01*
X4149Y-1232D01*
X4143Y-1214D01*
Y-1123D01*
X4017Y-1153D02*
X4023Y-1141D01*
X4035Y-1129D01*
X4047Y-1123D01*
X4071D01*
X4083Y-1129D01*
X4095Y-1141D01*
X4101Y-1153D01*
X4107Y-1171D01*
Y-1202D01*
X4101Y-1220D01*
X4095Y-1232D01*
X4083Y-1244D01*
X4071Y-1250D01*
X4047D01*
X4035Y-1244D01*
X4023Y-1232D01*
X4017Y-1220D01*
X3896Y-1141D02*
X3909Y-1129D01*
X3927Y-1123D01*
X3951D01*
X3969Y-1129D01*
X3981Y-1141D01*
Y-1153D01*
X3975Y-1165D01*
X3969Y-1171D01*
X3957Y-1177D01*
X3921Y-1190D01*
X3909Y-1196D01*
X3903Y-1202D01*
X3896Y-1214D01*
Y-1232D01*
X3909Y-1244D01*
X3927Y-1250D01*
X3951D01*
X3969Y-1244D01*
X3981Y-1232D01*
X3868Y-1123D02*
Y-1250D01*
Y-1123D02*
X3826D01*
X3808Y-1129D01*
X3796Y-1141D01*
X3789Y-1153D01*
X3783Y-1171D01*
Y-1202D01*
X3789Y-1220D01*
X3796Y-1232D01*
X3808Y-1244D01*
X3826Y-1250D01*
X3868D01*
X3655Y-1268D02*
X3571Y-1123D01*
X3420D02*
Y-1250D01*
X3462Y-1123D02*
X3378D01*
X3363D02*
Y-1250D01*
X3278Y-1123D02*
Y-1250D01*
X3363Y-1183D02*
X3278D01*
X3164Y-1123D02*
X3243D01*
Y-1250D01*
X3164D01*
X3243Y-1183D02*
X3195D01*
X3143Y-1292D02*
X3046D01*
X3030Y-1123D02*
Y-1250D01*
X2957D01*
X2871Y-1165D02*
Y-1250D01*
Y-1183D02*
X2883Y-1171D01*
X2895Y-1165D01*
X2913D01*
X2925Y-1171D01*
X2938Y-1183D01*
X2944Y-1202D01*
Y-1214D01*
X2938Y-1232D01*
X2925Y-1244D01*
X2913Y-1250D01*
X2895D01*
X2883Y-1244D01*
X2871Y-1232D01*
X2837Y-1123D02*
Y-1250D01*
Y-1183D02*
X2825Y-1171D01*
X2813Y-1165D01*
X2795D01*
X2783Y-1171D01*
X2771Y-1183D01*
X2765Y-1202D01*
Y-1214D01*
X2771Y-1232D01*
X2783Y-1244D01*
X2795Y-1250D01*
X2813D01*
X2825Y-1244D01*
X2837Y-1232D01*
D11*
X1108Y-3234D02*
G03*
X1108Y-3234I-12J0D01*
G01*
X1745Y-2875D02*
G03*
X1745Y-2875I-12J0D01*
G01*
X1390Y-2065D02*
G03*
X1390Y-2065I-12J0D01*
G01*
X1034Y-975D02*
G03*
X1034Y-975I-12J0D01*
G01*
X367Y-1140D02*
G03*
X367Y-1140I-12J0D01*
G01*
X4008Y-3525D02*
G03*
X4008Y-3525I-12J0D01*
G01*
X5437Y-3803D02*
G03*
X5437Y-3803I-12J0D01*
G01*
X5013Y-3357D02*
G03*
X5013Y-3357I-12J0D01*
G01*
X5305D02*
G03*
X5305Y-3357I-12J0D01*
G01*
X4721Y-3357D02*
G03*
X4721Y-3357I-12J0D01*
G01*
X4724Y-2922D02*
G03*
X4724Y-2922I-12J0D01*
G01*
X5308D02*
G03*
X5308Y-2922I-12J0D01*
G01*
X5016D02*
G03*
X5016Y-2922I-12J0D01*
G01*
D12*
X1183Y-3209D02*
X1283D01*
X1183Y-2899D02*
X1283D01*
X1183Y-3209D02*
Y-2899D01*
X1283Y-3209D02*
Y-2899D01*
X1820Y-2850D02*
X1920D01*
X1820Y-2540D02*
X1920D01*
X1820Y-2850D02*
Y-2540D01*
X1920Y-2850D02*
Y-2540D01*
X1410Y-2250D02*
Y-2150D01*
Y-2250D02*
X1488D01*
X1710D02*
Y-2150D01*
X1633Y-2250D02*
X1710D01*
X1047Y-1088D02*
X1547D01*
X1047Y-1407D02*
X1547D01*
X1047D02*
Y-1088D01*
X1547Y-1407D02*
Y-1088D01*
X255Y-1155D02*
X998D01*
Y-1202D02*
Y-1155D01*
X255Y-1295D02*
Y-1155D01*
X998Y-1485D02*
Y-1438D01*
X255Y-1295D02*
X274D01*
Y-1155D01*
Y-1485D02*
Y-1345D01*
X255D02*
X274D01*
X255Y-1485D02*
X998D01*
X255D02*
Y-1345D01*
X590Y-1370D02*
Y-1270D01*
Y-1320D02*
X660Y-1280D01*
X590Y-1320D02*
X660Y-1370D01*
Y-1280D01*
X580Y-1320D02*
X590D01*
X660D02*
X680D01*
X440Y-1110D02*
X540D01*
Y-1030D01*
X440Y-810D02*
X540D01*
Y-890D02*
Y-810D01*
X45Y-195D02*
X788D01*
Y-242D02*
Y-195D01*
X45Y-335D02*
Y-195D01*
X788Y-525D02*
Y-478D01*
X45Y-335D02*
X64D01*
Y-195D01*
Y-525D02*
Y-385D01*
X45D02*
X64D01*
X45Y-525D02*
X788D01*
X45D02*
Y-385D01*
X380Y-410D02*
Y-310D01*
Y-360D02*
X450Y-320D01*
X380Y-360D02*
X450Y-410D01*
Y-320D01*
X370Y-360D02*
X380D01*
X450D02*
X470D01*
X4225Y-3688D02*
X4260D01*
Y-3588D01*
X4040Y-3688D02*
X4075D01*
X4040D02*
Y-3588D01*
X5610Y-3547D02*
Y-3470D01*
X5510D02*
X5610D01*
Y-3770D02*
Y-3692D01*
X5510Y-3770D02*
X5610D01*
X1390Y-4950D02*
X1440D01*
X1390Y-4830D02*
X1440D01*
X1370Y-4450D02*
X1440D01*
X1430Y-4610D02*
X1440Y-4610D01*
X1370Y-4540D02*
Y-4370D01*
X900Y-4200D02*
X1280D01*
X520D02*
X900D01*
X430Y-4540D02*
Y-4370D01*
X360Y-4610D02*
X370Y-4610D01*
X360Y-4450D02*
X430D01*
X360Y-4830D02*
X410D01*
X360Y-4950D02*
X410D01*
X2460D02*
X2510D01*
X2460Y-4830D02*
X2510D01*
X2460Y-4450D02*
X2530D01*
X2460Y-4610D02*
X2470Y-4610D01*
X2530Y-4540D02*
Y-4370D01*
X2620Y-4200D02*
X3000D01*
X3380D01*
X3470Y-4540D02*
Y-4370D01*
X3530Y-4610D02*
X3540Y-4610D01*
X3470Y-4450D02*
X3540D01*
X3490Y-4830D02*
X3540D01*
X3490Y-4950D02*
X3540D01*
X4560D02*
X4610D01*
X4560Y-4830D02*
X4610D01*
X4560Y-4450D02*
X4630D01*
X4560Y-4610D02*
X4570Y-4610D01*
X4630Y-4540D02*
Y-4370D01*
X4720Y-4200D02*
X5100D01*
X5480D01*
X5570Y-4540D02*
Y-4370D01*
X5630Y-4610D02*
X5640Y-4610D01*
X5570Y-4450D02*
X5640D01*
X5590Y-4830D02*
X5640D01*
X5590Y-4950D02*
X5640D01*
X4735Y-3194D02*
X4770D01*
X4735Y-3294D02*
Y-3194D01*
X4920D02*
X4955D01*
Y-3294D02*
Y-3194D01*
X5027D02*
X5062D01*
X5027Y-3294D02*
Y-3194D01*
X5212D02*
X5247D01*
Y-3294D02*
Y-3194D01*
X4443Y-3195D02*
X4478D01*
X4443Y-3295D02*
Y-3195D01*
X4628D02*
X4663D01*
Y-3295D02*
Y-3195D01*
X4446Y-2760D02*
X4481D01*
X4446Y-2860D02*
Y-2760D01*
X4631D02*
X4666D01*
Y-2860D02*
Y-2760D01*
X5030D02*
X5065D01*
X5030Y-2860D02*
Y-2760D01*
X5215D02*
X5250D01*
Y-2860D02*
Y-2760D01*
X4738D02*
X4773D01*
X4738Y-2860D02*
Y-2760D01*
X4923D02*
X4958D01*
Y-2860D02*
Y-2760D01*
D13*
X4340Y-468D02*
G03*
X4340Y-468I-10J0D01*
G01*
Y-2428D02*
G03*
X4340Y-2428I-10J0D01*
G01*
Y-468D02*
G03*
X4340Y-468I-10J0D01*
G01*
Y-2428D02*
G03*
X4340Y-2428I-10J0D01*
G01*
D14*
X5792Y-3040D02*
X5828Y-3015D01*
Y-3040D02*
Y-3015D01*
X5792Y-3040D02*
Y-3017D01*
Y-3062D02*
Y-3040D01*
X5828Y-3065D02*
Y-3040D01*
X5792D02*
X5828Y-3065D01*
X5788Y-2590D02*
X5824Y-2565D01*
Y-2590D02*
Y-2565D01*
X5788Y-2590D02*
Y-2567D01*
Y-2612D02*
Y-2590D01*
X5824Y-2615D02*
Y-2590D01*
X5788D02*
X5824Y-2615D01*
X5788Y-2740D02*
X5824Y-2715D01*
Y-2740D02*
Y-2715D01*
X5788Y-2740D02*
Y-2717D01*
Y-2762D02*
Y-2740D01*
X5824Y-2765D02*
Y-2740D01*
X5788D02*
X5824Y-2765D01*
X5788Y-2890D02*
X5824Y-2865D01*
Y-2890D02*
Y-2865D01*
X5788Y-2890D02*
Y-2867D01*
Y-2912D02*
Y-2890D01*
X5824Y-2915D02*
Y-2890D01*
X5788D02*
X5824Y-2915D01*
X5788Y-3340D02*
X5824Y-3315D01*
Y-3340D02*
Y-3315D01*
X5788Y-3340D02*
Y-3317D01*
Y-3362D02*
Y-3340D01*
X5824Y-3365D02*
Y-3340D01*
X5788D02*
X5824Y-3365D01*
X5788Y-3190D02*
X5824Y-3215D01*
Y-3190D01*
X5788Y-3212D02*
Y-3190D01*
Y-3167D01*
X5824Y-3190D02*
Y-3165D01*
X5788Y-3190D02*
X5824Y-3165D01*
X2360Y-418D02*
Y-118D01*
X2490D01*
X2360Y-418D02*
X2490D01*
X4290Y-118D02*
X4420D01*
Y-418D02*
Y-118D01*
X4290Y-418D02*
X4420D01*
X2360Y-2378D02*
Y-2078D01*
X2490D01*
X2360Y-2378D02*
X2490D01*
X4290Y-2078D02*
X4420D01*
Y-2378D02*
Y-2078D01*
X4290Y-2378D02*
X4420D01*
X1740Y-2498D02*
Y2D01*
Y-2498D02*
X6000D01*
Y2D01*
X1740D02*
X6000D01*
X2360Y-418D02*
Y-118D01*
X2490D01*
X2360Y-418D02*
X2490D01*
X4290Y-118D02*
X4420D01*
Y-418D02*
Y-118D01*
X4290Y-418D02*
X4420D01*
X4290Y-2378D02*
X4420D01*
Y-2078D01*
X4290D02*
X4420D01*
X2360Y-2378D02*
X2490D01*
X2360Y-2078D02*
X2490D01*
X2360Y-2378D02*
Y-2078D01*
D15*
X5630Y-3135D02*
X5606Y-3236D01*
X5582Y-3135D02*
X5606Y-3236D01*
X5582Y-3135D02*
X5557Y-3236D01*
X5533Y-3135D02*
X5557Y-3236D01*
X5513Y-3135D02*
Y-3236D01*
X5492Y-3135D02*
Y-3236D01*
Y-3135D02*
X5429D01*
X5492Y-3183D02*
X5453D01*
X5417Y-3135D02*
Y-3236D01*
X5630Y-3288D02*
Y-3390D01*
Y-3288D02*
X5586D01*
X5572Y-3293D01*
X5567Y-3298D01*
X5562Y-3308D01*
Y-3317D01*
X5567Y-3327D01*
X5572Y-3332D01*
X5586Y-3337D01*
X5630D02*
X5586D01*
X5572Y-3342D01*
X5567Y-3346D01*
X5562Y-3356D01*
Y-3371D01*
X5567Y-3380D01*
X5572Y-3385D01*
X5586Y-3390D01*
X5630D01*
X5506Y-3288D02*
Y-3390D01*
X5540Y-3288D02*
X5472D01*
X5630Y-2988D02*
Y-3090D01*
Y-2988D02*
X5591Y-3090D01*
X5553Y-2988D02*
X5591Y-3090D01*
X5553Y-2988D02*
Y-3090D01*
X5524Y-2988D02*
Y-3061D01*
X5519Y-3075D01*
X5509Y-3085D01*
X5495Y-3090D01*
X5485D01*
X5470Y-3085D01*
X5461Y-3075D01*
X5456Y-3061D01*
Y-2988D01*
X5394D02*
Y-3090D01*
X5428Y-2988D02*
X5360D01*
X5285D02*
X5348D01*
Y-3090D01*
X5285D01*
X5348Y-3037D02*
X5309D01*
X5630Y-2838D02*
Y-2911D01*
X5625Y-2925D01*
X5615Y-2935D01*
X5601Y-2940D01*
X5591D01*
X5577Y-2935D01*
X5567Y-2925D01*
X5562Y-2911D01*
Y-2838D01*
X5467Y-2853D02*
X5476Y-2843D01*
X5491Y-2838D01*
X5510D01*
X5525Y-2843D01*
X5534Y-2853D01*
Y-2863D01*
X5529Y-2872D01*
X5525Y-2877D01*
X5515Y-2882D01*
X5486Y-2892D01*
X5476Y-2896D01*
X5471Y-2901D01*
X5467Y-2911D01*
Y-2925D01*
X5476Y-2935D01*
X5491Y-2940D01*
X5510D01*
X5525Y-2935D01*
X5534Y-2925D01*
X5444Y-2838D02*
Y-2940D01*
Y-2838D02*
X5400D01*
X5386Y-2843D01*
X5381Y-2848D01*
X5376Y-2858D01*
Y-2867D01*
X5381Y-2877D01*
X5386Y-2882D01*
X5400Y-2887D01*
X5444D01*
X5410D02*
X5376Y-2940D01*
X5344Y-2838D02*
X5290D01*
X5319Y-2877D01*
X5305D01*
X5295Y-2882D01*
X5290Y-2887D01*
X5286Y-2901D01*
Y-2911D01*
X5290Y-2925D01*
X5300Y-2935D01*
X5315Y-2940D01*
X5329D01*
X5344Y-2935D01*
X5348Y-2930D01*
X5353Y-2921D01*
X5557Y-2710D02*
X5562Y-2700D01*
X5572Y-2691D01*
X5582Y-2686D01*
X5601D01*
X5611Y-2691D01*
X5620Y-2700D01*
X5625Y-2710D01*
X5630Y-2725D01*
Y-2749D01*
X5625Y-2763D01*
X5620Y-2773D01*
X5611Y-2783D01*
X5601Y-2787D01*
X5582D01*
X5572Y-2783D01*
X5562Y-2773D01*
X5557Y-2763D01*
Y-2749D01*
X5582D02*
X5557D01*
X5505Y-2686D02*
X5515Y-2691D01*
X5525Y-2700D01*
X5529Y-2710D01*
X5534Y-2725D01*
Y-2749D01*
X5529Y-2763D01*
X5525Y-2773D01*
X5515Y-2783D01*
X5505Y-2787D01*
X5486D01*
X5476Y-2783D01*
X5467Y-2773D01*
X5462Y-2763D01*
X5457Y-2749D01*
Y-2725D01*
X5462Y-2710D01*
X5467Y-2700D01*
X5476Y-2691D01*
X5486Y-2686D01*
X5505D01*
X5404D02*
X5414Y-2691D01*
X5423Y-2700D01*
X5428Y-2710D01*
X5433Y-2725D01*
Y-2749D01*
X5428Y-2763D01*
X5423Y-2773D01*
X5414Y-2783D01*
X5404Y-2787D01*
X5385D01*
X5375Y-2783D01*
X5365Y-2773D01*
X5361Y-2763D01*
X5356Y-2749D01*
Y-2725D01*
X5361Y-2710D01*
X5365Y-2700D01*
X5375Y-2691D01*
X5385Y-2686D01*
X5404D01*
X5332D02*
Y-2787D01*
Y-2686D02*
X5298D01*
X5284Y-2691D01*
X5274Y-2700D01*
X5269Y-2710D01*
X5264Y-2725D01*
Y-2749D01*
X5269Y-2763D01*
X5274Y-2773D01*
X5284Y-2783D01*
X5298Y-2787D01*
X5332D01*
X5620Y-2538D02*
Y-2640D01*
X5562D01*
X5522Y-2538D02*
X5531Y-2543D01*
X5541Y-2553D01*
X5546Y-2563D01*
X5551Y-2577D01*
Y-2601D01*
X5546Y-2616D01*
X5541Y-2625D01*
X5531Y-2635D01*
X5522Y-2640D01*
X5502D01*
X5493Y-2635D01*
X5483Y-2625D01*
X5478Y-2616D01*
X5473Y-2601D01*
Y-2577D01*
X5478Y-2563D01*
X5483Y-2553D01*
X5493Y-2543D01*
X5502Y-2538D01*
X5522D01*
X5450D02*
X5426Y-2640D01*
X5401Y-2538D02*
X5426Y-2640D01*
X5401Y-2538D02*
X5377Y-2640D01*
X5353Y-2538D02*
X5377Y-2640D01*
X68Y-4340D02*
X170D01*
X68D02*
X170Y-4379D01*
X68Y-4417D02*
X170Y-4379D01*
X68Y-4417D02*
X170D01*
X68Y-4446D02*
X170D01*
X93Y-4540D02*
X83Y-4535D01*
X73Y-4526D01*
X68Y-4516D01*
Y-4497D01*
X73Y-4487D01*
X83Y-4477D01*
X93Y-4473D01*
X107Y-4468D01*
X131D01*
X146Y-4473D01*
X155Y-4477D01*
X165Y-4487D01*
X170Y-4497D01*
Y-4516D01*
X165Y-4526D01*
X155Y-4535D01*
X146Y-4540D01*
X68Y-4649D02*
X170D01*
X68D02*
Y-4692D01*
X73Y-4707D01*
X78Y-4711D01*
X88Y-4716D01*
X97D01*
X107Y-4711D01*
X112Y-4707D01*
X117Y-4692D01*
Y-4649D01*
Y-4682D02*
X170Y-4716D01*
X5828Y-4340D02*
X5930D01*
X5828D02*
X5930Y-4379D01*
X5828Y-4417D02*
X5930Y-4379D01*
X5828Y-4417D02*
X5930D01*
X5828Y-4446D02*
X5930D01*
X5853Y-4540D02*
X5843Y-4535D01*
X5833Y-4526D01*
X5828Y-4516D01*
Y-4497D01*
X5833Y-4487D01*
X5843Y-4477D01*
X5853Y-4473D01*
X5867Y-4468D01*
X5891D01*
X5906Y-4473D01*
X5915Y-4477D01*
X5925Y-4487D01*
X5930Y-4497D01*
Y-4516D01*
X5925Y-4526D01*
X5915Y-4535D01*
X5906Y-4540D01*
X5828Y-4649D02*
X5930D01*
Y-4707D01*
D17*
X5943Y-4208D02*
G03*
X5943Y-4208I-93J0D01*
G01*
X243Y-4210D02*
G03*
X243Y-4210I-93J0D01*
G01*
X4310Y-389D02*
X4315Y-392D01*
X4322Y-399D01*
Y-348D01*
X4312Y-177D02*
Y-179D01*
X4315Y-184D01*
X4317Y-186D01*
X4322Y-189D01*
X4332D01*
X4337Y-186D01*
X4339Y-184D01*
X4341Y-179D01*
Y-174D01*
X4339Y-169D01*
X4334Y-162D01*
X4310Y-138D01*
X4344D01*
X2412Y-399D02*
X2405Y-396D01*
X2402Y-392D01*
Y-387D01*
X2405Y-382D01*
X2410Y-379D01*
X2419Y-377D01*
X2427Y-375D01*
X2431Y-370D01*
X2434Y-365D01*
Y-358D01*
X2431Y-353D01*
X2429Y-350D01*
X2422Y-348D01*
X2412D01*
X2405Y-350D01*
X2402Y-353D01*
X2400Y-358D01*
Y-365D01*
X2402Y-370D01*
X2407Y-375D01*
X2415Y-377D01*
X2424Y-379D01*
X2429Y-382D01*
X2431Y-387D01*
Y-392D01*
X2429Y-396D01*
X2422Y-399D01*
X2412D01*
X2477Y-382D02*
X2474Y-375D01*
X2469Y-370D01*
X2462Y-367D01*
X2460D01*
X2452Y-370D01*
X2448Y-375D01*
X2445Y-382D01*
Y-384D01*
X2448Y-392D01*
X2452Y-396D01*
X2460Y-399D01*
X2462D01*
X2469Y-396D01*
X2474Y-392D01*
X2477Y-382D01*
Y-370D01*
X2474Y-358D01*
X2469Y-350D01*
X2462Y-348D01*
X2457D01*
X2450Y-350D01*
X2448Y-355D01*
X2431Y-172D02*
X2429Y-165D01*
X2424Y-160D01*
X2417Y-157D01*
X2415D01*
X2407Y-160D01*
X2402Y-165D01*
X2400Y-172D01*
Y-174D01*
X2402Y-182D01*
X2407Y-186D01*
X2415Y-189D01*
X2417D01*
X2424Y-186D01*
X2429Y-182D01*
X2431Y-172D01*
Y-160D01*
X2429Y-148D01*
X2424Y-140D01*
X2417Y-138D01*
X2412D01*
X2405Y-140D01*
X2402Y-145D01*
X2460Y-189D02*
X2452Y-186D01*
X2448Y-179D01*
X2445Y-167D01*
Y-160D01*
X2448Y-148D01*
X2452Y-140D01*
X2460Y-138D01*
X2465D01*
X2472Y-140D01*
X2477Y-148D01*
X2479Y-160D01*
Y-167D01*
X2477Y-179D01*
X2472Y-186D01*
X2465Y-189D01*
X2460D01*
X4310Y-2349D02*
X4315Y-2352D01*
X4322Y-2359D01*
Y-2308D01*
X4312Y-2137D02*
Y-2139D01*
X4315Y-2144D01*
X4317Y-2146D01*
X4322Y-2149D01*
X4332D01*
X4337Y-2146D01*
X4339Y-2144D01*
X4341Y-2139D01*
Y-2134D01*
X4339Y-2129D01*
X4334Y-2122D01*
X4310Y-2098D01*
X4344D01*
X2412Y-2359D02*
X2405Y-2356D01*
X2402Y-2352D01*
Y-2347D01*
X2405Y-2342D01*
X2410Y-2339D01*
X2419Y-2337D01*
X2427Y-2335D01*
X2431Y-2330D01*
X2434Y-2325D01*
Y-2318D01*
X2431Y-2313D01*
X2429Y-2310D01*
X2422Y-2308D01*
X2412D01*
X2405Y-2310D01*
X2402Y-2313D01*
X2400Y-2318D01*
Y-2325D01*
X2402Y-2330D01*
X2407Y-2335D01*
X2415Y-2337D01*
X2424Y-2339D01*
X2429Y-2342D01*
X2431Y-2347D01*
Y-2352D01*
X2429Y-2356D01*
X2422Y-2359D01*
X2412D01*
X2477Y-2342D02*
X2474Y-2335D01*
X2469Y-2330D01*
X2462Y-2327D01*
X2460D01*
X2452Y-2330D01*
X2448Y-2335D01*
X2445Y-2342D01*
Y-2344D01*
X2448Y-2352D01*
X2452Y-2356D01*
X2460Y-2359D01*
X2462D01*
X2469Y-2356D01*
X2474Y-2352D01*
X2477Y-2342D01*
Y-2330D01*
X2474Y-2318D01*
X2469Y-2310D01*
X2462Y-2308D01*
X2457D01*
X2450Y-2310D01*
X2448Y-2315D01*
X2431Y-2132D02*
X2429Y-2125D01*
X2424Y-2120D01*
X2417Y-2117D01*
X2415D01*
X2407Y-2120D01*
X2402Y-2125D01*
X2400Y-2132D01*
Y-2134D01*
X2402Y-2142D01*
X2407Y-2146D01*
X2415Y-2149D01*
X2417D01*
X2424Y-2146D01*
X2429Y-2142D01*
X2431Y-2132D01*
Y-2120D01*
X2429Y-2108D01*
X2424Y-2100D01*
X2417Y-2098D01*
X2412D01*
X2405Y-2100D01*
X2402Y-2105D01*
X2460Y-2149D02*
X2452Y-2146D01*
X2448Y-2139D01*
X2445Y-2127D01*
Y-2120D01*
X2448Y-2108D01*
X2452Y-2100D01*
X2460Y-2098D01*
X2465D01*
X2472Y-2100D01*
X2477Y-2108D01*
X2479Y-2120D01*
Y-2127D01*
X2477Y-2139D01*
X2472Y-2146D01*
X2465Y-2149D01*
X2460D01*
X3384Y-289D02*
Y-250D01*
X3382Y-243D01*
X3379Y-240D01*
X3375Y-238D01*
X3370D01*
X3365Y-240D01*
X3362Y-243D01*
X3360Y-250D01*
Y-255D01*
X3397Y-279D02*
X3402Y-282D01*
X3409Y-289D01*
Y-238D01*
X4310Y-389D02*
X4315Y-392D01*
X4322Y-399D01*
Y-348D01*
X4312Y-177D02*
Y-179D01*
X4315Y-184D01*
X4317Y-186D01*
X4322Y-189D01*
X4332D01*
X4337Y-186D01*
X4339Y-184D01*
X4341Y-179D01*
Y-174D01*
X4339Y-169D01*
X4334Y-162D01*
X4310Y-138D01*
X4344D01*
X2412Y-399D02*
X2405Y-396D01*
X2402Y-392D01*
Y-387D01*
X2405Y-382D01*
X2410Y-379D01*
X2419Y-377D01*
X2427Y-375D01*
X2431Y-370D01*
X2434Y-365D01*
Y-358D01*
X2431Y-353D01*
X2429Y-350D01*
X2422Y-348D01*
X2412D01*
X2405Y-350D01*
X2402Y-353D01*
X2400Y-358D01*
Y-365D01*
X2402Y-370D01*
X2407Y-375D01*
X2415Y-377D01*
X2424Y-379D01*
X2429Y-382D01*
X2431Y-387D01*
Y-392D01*
X2429Y-396D01*
X2422Y-399D01*
X2412D01*
X2477Y-382D02*
X2474Y-375D01*
X2469Y-370D01*
X2462Y-367D01*
X2460D01*
X2452Y-370D01*
X2448Y-375D01*
X2445Y-382D01*
Y-384D01*
X2448Y-392D01*
X2452Y-396D01*
X2460Y-399D01*
X2462D01*
X2469Y-396D01*
X2474Y-392D01*
X2477Y-382D01*
Y-370D01*
X2474Y-358D01*
X2469Y-350D01*
X2462Y-348D01*
X2457D01*
X2450Y-350D01*
X2448Y-355D01*
X2431Y-172D02*
X2429Y-165D01*
X2424Y-160D01*
X2417Y-157D01*
X2415D01*
X2407Y-160D01*
X2402Y-165D01*
X2400Y-172D01*
Y-174D01*
X2402Y-182D01*
X2407Y-186D01*
X2415Y-189D01*
X2417D01*
X2424Y-186D01*
X2429Y-182D01*
X2431Y-172D01*
Y-160D01*
X2429Y-148D01*
X2424Y-140D01*
X2417Y-138D01*
X2412D01*
X2405Y-140D01*
X2402Y-145D01*
X2460Y-189D02*
X2452Y-186D01*
X2448Y-179D01*
X2445Y-167D01*
Y-160D01*
X2448Y-148D01*
X2452Y-140D01*
X2460Y-138D01*
X2465D01*
X2472Y-140D01*
X2477Y-148D01*
X2479Y-160D01*
Y-167D01*
X2477Y-179D01*
X2472Y-186D01*
X2465Y-189D01*
X2460D01*
X2431Y-2132D02*
X2429Y-2125D01*
X2424Y-2120D01*
X2417Y-2117D01*
X2415D01*
X2407Y-2120D01*
X2402Y-2125D01*
X2400Y-2132D01*
Y-2134D01*
X2402Y-2142D01*
X2407Y-2146D01*
X2415Y-2149D01*
X2417D01*
X2424Y-2146D01*
X2429Y-2142D01*
X2431Y-2132D01*
Y-2120D01*
X2429Y-2108D01*
X2424Y-2100D01*
X2417Y-2098D01*
X2412D01*
X2405Y-2100D01*
X2402Y-2105D01*
X2460Y-2149D02*
X2452Y-2146D01*
X2448Y-2139D01*
X2445Y-2127D01*
Y-2120D01*
X2448Y-2108D01*
X2452Y-2100D01*
X2460Y-2098D01*
X2465D01*
X2472Y-2100D01*
X2477Y-2108D01*
X2479Y-2120D01*
Y-2127D01*
X2477Y-2139D01*
X2472Y-2146D01*
X2465Y-2149D01*
X2460D01*
X2412Y-2359D02*
X2405Y-2356D01*
X2402Y-2352D01*
Y-2347D01*
X2405Y-2342D01*
X2410Y-2339D01*
X2419Y-2337D01*
X2427Y-2335D01*
X2431Y-2330D01*
X2434Y-2325D01*
Y-2318D01*
X2431Y-2313D01*
X2429Y-2310D01*
X2422Y-2308D01*
X2412D01*
X2405Y-2310D01*
X2402Y-2313D01*
X2400Y-2318D01*
Y-2325D01*
X2402Y-2330D01*
X2407Y-2335D01*
X2415Y-2337D01*
X2424Y-2339D01*
X2429Y-2342D01*
X2431Y-2347D01*
Y-2352D01*
X2429Y-2356D01*
X2422Y-2359D01*
X2412D01*
X2477Y-2342D02*
X2474Y-2335D01*
X2469Y-2330D01*
X2462Y-2327D01*
X2460D01*
X2452Y-2330D01*
X2448Y-2335D01*
X2445Y-2342D01*
Y-2344D01*
X2448Y-2352D01*
X2452Y-2356D01*
X2460Y-2359D01*
X2462D01*
X2469Y-2356D01*
X2474Y-2352D01*
X2477Y-2342D01*
Y-2330D01*
X2474Y-2318D01*
X2469Y-2310D01*
X2462Y-2308D01*
X2457D01*
X2450Y-2310D01*
X2448Y-2315D01*
X4312Y-2137D02*
Y-2139D01*
X4315Y-2144D01*
X4317Y-2146D01*
X4322Y-2149D01*
X4332D01*
X4337Y-2146D01*
X4339Y-2144D01*
X4341Y-2139D01*
Y-2134D01*
X4339Y-2129D01*
X4334Y-2122D01*
X4310Y-2098D01*
X4344D01*
X4310Y-2349D02*
X4315Y-2352D01*
X4322Y-2359D01*
Y-2308D01*
X3374Y-2249D02*
Y-2210D01*
X3372Y-2203D01*
X3369Y-2200D01*
X3365Y-2198D01*
X3360D01*
X3355Y-2200D01*
X3352Y-2203D01*
X3350Y-2210D01*
Y-2215D01*
X3390Y-2237D02*
Y-2239D01*
X3392Y-2244D01*
X3395Y-2246D01*
X3399Y-2249D01*
X3409D01*
X3414Y-2246D01*
X3416Y-2244D01*
X3419Y-2239D01*
Y-2234D01*
X3416Y-2229D01*
X3411Y-2222D01*
X3387Y-2198D01*
X3421D01*
D19*
X5810Y-3110D02*
Y-3075D01*
X5658Y-3015D02*
X5670D01*
X5658D02*
Y-2970D01*
X5670D01*
X5658Y-3065D02*
X5670D01*
X5658Y-3110D02*
Y-3065D01*
Y-3110D02*
X5670D01*
X5810Y-3005D02*
Y-2970D01*
X5962Y-2989D02*
Y-2970D01*
X5660D02*
X5962D01*
X5670Y-3015D02*
Y-2970D01*
Y-3110D02*
Y-3065D01*
X5670Y-3110D02*
X5962D01*
Y-3091D01*
X5821Y-3820D02*
X5841D01*
Y-3620D01*
X5821D02*
X5841D01*
X5741D02*
X5761D01*
X5741Y-3820D02*
Y-3620D01*
Y-3820D02*
X5761D01*
X5140Y-2650D02*
Y-2548D01*
X5026Y-2650D02*
Y-2637D01*
Y-2650D02*
X5254D01*
Y-2637D01*
Y-2561D02*
Y-2548D01*
X5026D02*
X5254D01*
X5026Y-2561D02*
Y-2548D01*
X4880Y-2650D02*
Y-2548D01*
X4766Y-2650D02*
Y-2637D01*
Y-2650D02*
X4994D01*
Y-2637D01*
Y-2561D02*
Y-2548D01*
X4766D02*
X4994D01*
X4766Y-2561D02*
Y-2548D01*
X4622Y-2650D02*
Y-2548D01*
X4508Y-2650D02*
Y-2637D01*
Y-2650D02*
X4737D01*
Y-2637D01*
Y-2561D02*
Y-2548D01*
X4508D02*
X4737D01*
X4508Y-2561D02*
Y-2548D01*
X4617Y-3101D02*
Y-2999D01*
X4503Y-3101D02*
Y-3088D01*
Y-3101D02*
X4732D01*
Y-3088D01*
Y-3012D02*
Y-2999D01*
X4503D02*
X4732D01*
X4503Y-3012D02*
Y-2999D01*
X4875Y-3101D02*
Y-2999D01*
X4761Y-3101D02*
Y-3088D01*
Y-3101D02*
X4989D01*
Y-3088D01*
Y-3012D02*
Y-2999D01*
X4761D02*
X4989D01*
X4761Y-3012D02*
Y-2999D01*
X5137Y-3101D02*
Y-2999D01*
X5023Y-3101D02*
Y-3088D01*
Y-3101D02*
X5251D01*
Y-3088D01*
Y-3012D02*
Y-2999D01*
X5023D02*
X5251D01*
X5023Y-3012D02*
Y-2999D01*
X5654Y-2565D02*
X5666D01*
X5654D02*
Y-2520D01*
X5666D01*
X5654Y-2615D02*
X5666D01*
X5654Y-2660D02*
Y-2615D01*
Y-2660D02*
X5666D01*
X5958Y-2539D02*
Y-2520D01*
X5656D02*
X5958D01*
X5666Y-2565D02*
Y-2520D01*
Y-2660D02*
Y-2615D01*
X5656Y-2660D02*
X5958D01*
Y-2641D01*
X5806Y-2660D02*
Y-2625D01*
Y-2555D02*
Y-2520D01*
X1290Y-2780D02*
Y-2760D01*
X1490D01*
Y-2780D02*
Y-2760D01*
Y-2860D02*
Y-2840D01*
X1290Y-2860D02*
X1490D01*
X1290D02*
Y-2840D01*
X903Y-3208D02*
X923D01*
X903D02*
Y-3008D01*
X923D01*
X983D02*
X1003D01*
Y-3208D02*
Y-3008D01*
X983Y-3208D02*
X1003D01*
X1463D02*
X1483D01*
X1463D02*
Y-3008D01*
X1483D01*
X1543D02*
X1563D01*
Y-3208D02*
Y-3008D01*
X1543Y-3208D02*
X1563D01*
X5958Y-2810D02*
Y-2791D01*
X5656Y-2810D02*
X5958D01*
X5666D02*
Y-2765D01*
Y-2714D02*
Y-2670D01*
X5656D02*
X5958D01*
Y-2689D02*
Y-2670D01*
X5654Y-2810D02*
X5666D01*
X5654D02*
Y-2765D01*
X5666D01*
X5654Y-2670D02*
X5666D01*
X5654Y-2714D02*
Y-2670D01*
Y-2714D02*
X5666D01*
X5806Y-2810D02*
Y-2775D01*
Y-2705D02*
Y-2670D01*
X5958Y-2960D02*
Y-2941D01*
X5656Y-2960D02*
X5958D01*
X5666D02*
Y-2915D01*
Y-2864D02*
Y-2820D01*
X5656D02*
X5958D01*
Y-2839D02*
Y-2820D01*
X5654Y-2960D02*
X5666D01*
X5654D02*
Y-2915D01*
X5666D01*
X5654Y-2820D02*
X5666D01*
X5654Y-2864D02*
Y-2820D01*
Y-2864D02*
X5666D01*
X5806Y-2960D02*
Y-2925D01*
Y-2855D02*
Y-2820D01*
X5654Y-3315D02*
X5666D01*
X5654D02*
Y-3270D01*
X5666D01*
X5654Y-3365D02*
X5666D01*
X5654Y-3410D02*
Y-3365D01*
Y-3410D02*
X5666D01*
X5958Y-3289D02*
Y-3270D01*
X5656D02*
X5958D01*
X5666Y-3315D02*
Y-3270D01*
Y-3410D02*
Y-3365D01*
X5656Y-3410D02*
X5958D01*
Y-3391D01*
X5806Y-3410D02*
Y-3375D01*
Y-3305D02*
Y-3270D01*
X5958Y-3260D02*
Y-3241D01*
X5666Y-3260D02*
X5958D01*
X5666D02*
Y-3215D01*
Y-3165D02*
Y-3120D01*
X5656D02*
X5958D01*
Y-3139D02*
Y-3120D01*
X5806Y-3155D02*
Y-3120D01*
X5654Y-3260D02*
X5666D01*
X5654D02*
Y-3215D01*
X5666D01*
X5654Y-3120D02*
X5666D01*
X5654Y-3165D02*
Y-3120D01*
Y-3165D02*
X5666D01*
X5806Y-3260D02*
Y-3225D01*
X1620Y-2845D02*
X1640D01*
Y-2645D01*
X1620D02*
X1640D01*
X1540D02*
X1560D01*
X1540Y-2845D02*
Y-2645D01*
Y-2845D02*
X1560D01*
X2180D02*
X2200D01*
Y-2645D01*
X2180D02*
X2200D01*
X2100D02*
X2120D01*
X2100Y-2845D02*
Y-2645D01*
Y-2845D02*
X2120D01*
X1610Y-2401D02*
Y-2381D01*
X1410D02*
X1610D01*
X1410Y-2401D02*
Y-2381D01*
Y-2481D02*
Y-2461D01*
Y-2481D02*
X1610D01*
Y-2461D01*
Y-2520D02*
Y-2500D01*
X1410D02*
X1610D01*
X1410Y-2520D02*
Y-2500D01*
Y-2600D02*
Y-2580D01*
Y-2600D02*
X1610D01*
Y-2580D01*
X1710Y-1900D02*
Y-1880D01*
X1510D02*
X1710D01*
X1510Y-1900D02*
Y-1880D01*
Y-1980D02*
Y-1960D01*
Y-1980D02*
X1710D01*
Y-1960D01*
X1300Y-1850D02*
Y-1630D01*
X1540Y-1850D02*
Y-1820D01*
X1060Y-1850D02*
X1540D01*
X1060D02*
Y-1820D01*
Y-1660D02*
Y-1630D01*
X1540D01*
Y-1660D02*
Y-1630D01*
X905Y-2110D02*
X1130D01*
X905Y-1873D02*
X930D01*
X905Y-2348D02*
Y-1873D01*
Y-2348D02*
X930D01*
X1105D02*
X1130D01*
Y-1873D01*
X1105D02*
X1130D01*
X1155Y-2110D02*
X1380D01*
X1155Y-1873D02*
X1180D01*
X1155Y-2348D02*
Y-1873D01*
Y-2348D02*
X1180D01*
X1355D02*
X1380D01*
Y-1873D01*
X1355D02*
X1380D01*
X1570Y-1830D02*
X1590D01*
X1570D02*
Y-1630D01*
X1590D01*
X1650D02*
X1670D01*
Y-1830D02*
Y-1630D01*
X1650Y-1830D02*
X1670D01*
X1180Y-780D02*
Y-760D01*
X1380D01*
Y-780D02*
Y-760D01*
Y-860D02*
Y-840D01*
X1180Y-860D02*
X1380D01*
X1180D02*
Y-840D01*
X1160Y-860D02*
Y-840D01*
X960Y-860D02*
X1160D01*
X960D02*
Y-840D01*
Y-780D02*
Y-760D01*
X1160D01*
Y-780D02*
Y-760D01*
X978Y-886D02*
X991D01*
Y-1114D02*
Y-886D01*
X978Y-1114D02*
X991D01*
X889D02*
X902D01*
X889D02*
Y-886D01*
X902D01*
X889Y-1000D02*
X991D01*
X484Y-782D02*
Y-557D01*
X246Y-782D02*
Y-757D01*
Y-782D02*
X722D01*
Y-757D01*
Y-582D02*
Y-557D01*
X246D02*
X722D01*
X246Y-582D02*
Y-557D01*
X2900Y-3540D02*
X2920D01*
X2900D02*
Y-3340D01*
X2920D01*
X2980D02*
X3000D01*
Y-3540D02*
Y-3340D01*
X2980Y-3540D02*
X3000D01*
X2890Y-3130D02*
Y-3110D01*
X3090D01*
Y-3130D02*
Y-3110D01*
Y-3210D02*
Y-3190D01*
X2890Y-3210D02*
X3090D01*
X2890D02*
Y-3190D01*
X3050Y-2970D02*
Y-2950D01*
X3250D01*
Y-2970D02*
Y-2950D01*
Y-3050D02*
Y-3030D01*
X3050Y-3050D02*
X3250D01*
X3050D02*
Y-3030D01*
X3460Y-2940D02*
X3480D01*
Y-3140D02*
Y-2940D01*
X3460Y-3140D02*
X3480D01*
X3380D02*
X3400D01*
X3380D02*
Y-2940D01*
X3400D01*
X3490Y-3690D02*
Y-3670D01*
X3290Y-3690D02*
X3490D01*
X3290D02*
Y-3670D01*
Y-3610D02*
Y-3590D01*
X3490D01*
Y-3610D02*
Y-3590D01*
X3060Y-3700D02*
X3080D01*
X3060D02*
Y-3500D01*
X3080D01*
X3140D02*
X3160D01*
Y-3700D02*
Y-3500D01*
X3140Y-3700D02*
X3160D01*
X5320Y-3430D02*
X5340D01*
Y-3630D02*
Y-3430D01*
X5320Y-3630D02*
X5340D01*
X5240D02*
X5260D01*
X5240D02*
Y-3430D01*
X5260D01*
X5320Y-3650D02*
X5340D01*
Y-3850D02*
Y-3650D01*
X5320Y-3850D02*
X5340D01*
X5240D02*
X5260D01*
X5240D02*
Y-3650D01*
X5260D01*
X4393Y-3518D02*
Y-3505D01*
X4622D01*
Y-3518D02*
Y-3505D01*
Y-3607D02*
Y-3594D01*
X4393Y-3607D02*
X4622D01*
X4393D02*
Y-3594D01*
X4508Y-3607D02*
Y-3505D01*
X4624Y-3958D02*
Y-3946D01*
X4396Y-3958D02*
X4624D01*
X4396D02*
Y-3946D01*
Y-3869D02*
Y-3857D01*
X4624D01*
Y-3869D02*
Y-3857D01*
X4510Y-3958D02*
Y-3857D01*
X4624Y-3727D02*
Y-3714D01*
X4396Y-3727D02*
X4624D01*
X4396D02*
Y-3714D01*
Y-3638D02*
Y-3625D01*
X4624D01*
Y-3638D02*
Y-3625D01*
X4510Y-3727D02*
Y-3625D01*
Y-3841D02*
Y-3739D01*
X4624Y-3752D02*
Y-3739D01*
X4396D02*
X4624D01*
X4396Y-3752D02*
Y-3739D01*
Y-3841D02*
Y-3828D01*
Y-3841D02*
X4624D01*
Y-3828D01*
X4208Y-3776D02*
X4221D01*
Y-4004D02*
Y-3776D01*
X4208Y-4004D02*
X4221D01*
X4119D02*
X4132D01*
X4119D02*
Y-3776D01*
X4132D01*
X4119Y-3890D02*
X4221D01*
X4070Y-3770D02*
X4090D01*
Y-3970D02*
Y-3770D01*
X4070Y-3970D02*
X4090D01*
X3990D02*
X4010D01*
X3990D02*
Y-3770D01*
X4010D01*
X3650Y-3410D02*
Y-3390D01*
X3450Y-3410D02*
X3650D01*
X3450D02*
Y-3390D01*
Y-3330D02*
Y-3310D01*
X3650D01*
Y-3330D02*
Y-3310D01*
X3540Y-3300D02*
X3560D01*
X3540D02*
Y-3100D01*
X3560D01*
X3620D02*
X3640D01*
Y-3300D02*
Y-3100D01*
X3620Y-3300D02*
X3640D01*
X2890Y-3250D02*
Y-3230D01*
X3090D01*
Y-3250D02*
Y-3230D01*
Y-3330D02*
Y-3310D01*
X2890Y-3330D02*
X3090D01*
X2890D02*
Y-3310D01*
X3450Y-3450D02*
Y-3430D01*
X3650D01*
Y-3450D02*
Y-3430D01*
Y-3530D02*
Y-3510D01*
X3450Y-3530D02*
X3650D01*
X3450D02*
Y-3510D01*
X3180Y-3700D02*
X3200D01*
X3180D02*
Y-3500D01*
X3200D01*
X3260D02*
X3280D01*
Y-3700D02*
Y-3500D01*
X3260Y-3700D02*
X3280D01*
X3340Y-2940D02*
X3360D01*
Y-3140D02*
Y-2940D01*
X3340Y-3140D02*
X3360D01*
X3260D02*
X3280D01*
X3260D02*
Y-2940D01*
X3280D01*
X3300Y-3580D02*
X3320D01*
X3300D02*
Y-3380D01*
X3320D01*
X3380D02*
X3400D01*
Y-3580D02*
Y-3380D01*
X3380Y-3580D02*
X3400D01*
X3220Y-3060D02*
X3240D01*
Y-3260D02*
Y-3060D01*
X3220Y-3260D02*
X3240D01*
X3140D02*
X3160D01*
X3140D02*
Y-3060D01*
X3160D01*
X3010Y-3370D02*
Y-3350D01*
X3210D01*
Y-3370D02*
Y-3350D01*
Y-3450D02*
Y-3430D01*
X3010Y-3450D02*
X3210D01*
X3010D02*
Y-3430D01*
X3530Y-3210D02*
Y-3190D01*
X3330D02*
X3530D01*
X3330Y-3210D02*
Y-3190D01*
Y-3290D02*
Y-3270D01*
Y-3290D02*
X3530D01*
Y-3270D01*
X979Y-3974D02*
X992D01*
X979D02*
Y-3746D01*
X992D01*
X1068D02*
X1081D01*
Y-3974D02*
Y-3746D01*
X1068Y-3974D02*
X1081D01*
X979Y-3860D02*
X1081D01*
X1109Y-3714D02*
X1122D01*
X1109D02*
Y-3486D01*
X1122D01*
X1198D02*
X1211D01*
Y-3714D02*
Y-3486D01*
X1198Y-3714D02*
X1211D01*
X1109Y-3600D02*
X1211D01*
X1198Y-3746D02*
X1211D01*
Y-3974D02*
Y-3746D01*
X1198Y-3974D02*
X1211D01*
X1109D02*
X1122D01*
X1109D02*
Y-3746D01*
X1122D01*
X1109Y-3860D02*
X1211D01*
X1439Y-3974D02*
X1452D01*
X1439D02*
Y-3746D01*
X1452D01*
X1528D02*
X1541D01*
Y-3974D02*
Y-3746D01*
X1528Y-3974D02*
X1541D01*
X1439Y-3860D02*
X1541D01*
X1309Y-3714D02*
X1322D01*
X1309D02*
Y-3486D01*
X1322D01*
X1398D02*
X1411D01*
Y-3714D02*
Y-3486D01*
X1398Y-3714D02*
X1411D01*
X1309Y-3600D02*
X1411D01*
X1090Y-3720D02*
Y-3700D01*
X890Y-3720D02*
X1090D01*
X890D02*
Y-3700D01*
Y-3640D02*
Y-3620D01*
X1090D01*
Y-3640D02*
Y-3620D01*
X790Y-3920D02*
Y-3740D01*
X960Y-3920D02*
Y-3880D01*
X620Y-3920D02*
X960D01*
X620D02*
Y-3880D01*
Y-3780D02*
Y-3740D01*
X960D01*
Y-3780D02*
Y-3740D01*
X1630Y-3720D02*
Y-3700D01*
X1430Y-3720D02*
X1630D01*
X1430D02*
Y-3700D01*
Y-3640D02*
Y-3620D01*
X1630D01*
Y-3640D02*
Y-3620D01*
X1820Y-3960D02*
Y-3780D01*
X1650Y-3960D02*
Y-3940D01*
Y-3960D02*
X1990D01*
Y-3940D01*
X1650Y-3800D02*
Y-3780D01*
X1990D01*
Y-3800D02*
Y-3780D01*
X1820Y-3760D02*
Y-3580D01*
X1650Y-3620D02*
Y-3580D01*
X1990D01*
Y-3620D02*
Y-3580D01*
Y-3760D02*
Y-3720D01*
X1650Y-3760D02*
X1990D01*
X1650D02*
Y-3720D01*
X1309Y-3860D02*
X1411D01*
X1309Y-3746D02*
X1322D01*
X1309Y-3974D02*
Y-3746D01*
Y-3974D02*
X1322D01*
X1398D02*
X1411D01*
Y-3746D01*
X1398D02*
X1411D01*
D181*
X1177Y-1188D02*
G03*
X1177Y-1188I-30J0D01*
G01*
D182*
X480Y-2090D02*
X640D01*
X480Y-1530D02*
X640D01*
D183*
X4440Y-1640D02*
D03*
M02*
