G04*
G04 #@! TF.GenerationSoftware,Altium Limited,Altium Designer,19.0.15 (446)*
G04*
G04 Layer_Physical_Order=2*
G04 Layer_Color=36540*
%FSLAX42Y42*%
%MOMM*%
G71*
G01*
G75*
%ADD138O,1.15X0.65*%
%ADD140O,1.00X1.60*%
%ADD141O,1.00X2.56*%
%ADD142O,0.90X1.60*%
%ADD144C,0.46*%
G36*
X5730Y-40D02*
X5730Y-44D01*
X5706Y-64D01*
X5685Y-89D01*
X5670Y-118D01*
X5660Y-149D01*
X5657Y-181D01*
X5660Y-213D01*
X5670Y-244D01*
X5685Y-273D01*
X5706Y-298D01*
X5731Y-319D01*
X5760Y-334D01*
X5791Y-344D01*
X5823Y-347D01*
X5855Y-344D01*
X5886Y-334D01*
X5915Y-319D01*
X5940Y-298D01*
X5956Y-279D01*
X5969Y-283D01*
Y-5079D01*
X5631D01*
Y-5012D01*
X5631Y-5012D01*
X5644Y-5009D01*
X5654Y-5022D01*
X5669Y-5034D01*
X5688Y-5041D01*
X5695Y-5042D01*
Y-4890D01*
Y-4738D01*
X5688Y-4739D01*
X5669Y-4746D01*
X5654Y-4758D01*
X5644Y-4771D01*
X5631Y-4768D01*
X5631Y-4768D01*
Y-4626D01*
X5631Y-4626D01*
X5644Y-4623D01*
X5654Y-4636D01*
X5669Y-4648D01*
X5688Y-4655D01*
X5695Y-4656D01*
Y-4517D01*
X5631D01*
Y-4550D01*
X5630Y-4552D01*
X5619Y-4556D01*
X5612Y-4551D01*
X5600Y-4549D01*
X5404D01*
X5398Y-4538D01*
X5400Y-4535D01*
X5404Y-4514D01*
X5400Y-4496D01*
X5405Y-4487D01*
X5407Y-4484D01*
Y-4437D01*
X5338D01*
X5340Y-4447D01*
X5343Y-4451D01*
X5338Y-4462D01*
X5329Y-4464D01*
X5320Y-4471D01*
X5310Y-4475D01*
X5300Y-4471D01*
X5291Y-4464D01*
X5283Y-4463D01*
X5277Y-4449D01*
X5280Y-4445D01*
X5284Y-4424D01*
X5280Y-4403D01*
X5268Y-4386D01*
X5251Y-4374D01*
X5230Y-4370D01*
X5209Y-4374D01*
X5192Y-4386D01*
X5191Y-4387D01*
X5179D01*
X5178Y-4386D01*
X5161Y-4374D01*
X5140Y-4370D01*
X5119Y-4374D01*
X5102Y-4386D01*
X5098D01*
X5081Y-4374D01*
X5060Y-4370D01*
X5039Y-4374D01*
X5022Y-4386D01*
X5021Y-4387D01*
X5009D01*
X5008Y-4386D01*
X4991Y-4374D01*
X4970Y-4370D01*
X4949Y-4374D01*
X4932Y-4386D01*
X4920Y-4403D01*
X4916Y-4424D01*
X4920Y-4445D01*
X4923Y-4449D01*
X4917Y-4463D01*
X4909Y-4464D01*
X4900Y-4471D01*
X4890Y-4475D01*
X4880Y-4471D01*
X4871Y-4464D01*
X4862Y-4462D01*
X4857Y-4451D01*
X4860Y-4447D01*
X4862Y-4437D01*
X4793D01*
Y-4484D01*
X4795Y-4487D01*
X4800Y-4496D01*
X4796Y-4514D01*
X4800Y-4535D01*
X4802Y-4538D01*
X4796Y-4549D01*
X4600D01*
X4588Y-4551D01*
X4581Y-4556D01*
X4570Y-4552D01*
X4569Y-4550D01*
Y-4517D01*
X4505D01*
Y-4656D01*
X4512Y-4655D01*
X4531Y-4648D01*
X4546Y-4636D01*
X4556Y-4623D01*
X4569Y-4626D01*
X4569Y-4626D01*
Y-4758D01*
X4569Y-4758D01*
X4556Y-4761D01*
X4546Y-4748D01*
X4531Y-4736D01*
X4512Y-4729D01*
X4505Y-4728D01*
Y-4880D01*
Y-5032D01*
X4512Y-5031D01*
X4531Y-5024D01*
X4546Y-5012D01*
X4556Y-4999D01*
X4569Y-5002D01*
X4569Y-5002D01*
Y-5079D01*
X3531D01*
Y-5012D01*
X3531Y-5012D01*
X3544Y-5009D01*
X3554Y-5022D01*
X3569Y-5034D01*
X3588Y-5041D01*
X3595Y-5042D01*
Y-4890D01*
Y-4738D01*
X3588Y-4739D01*
X3569Y-4746D01*
X3554Y-4758D01*
X3544Y-4771D01*
X3531Y-4768D01*
X3531Y-4768D01*
Y-4626D01*
X3531Y-4626D01*
X3544Y-4623D01*
X3554Y-4636D01*
X3569Y-4648D01*
X3588Y-4655D01*
X3595Y-4656D01*
Y-4517D01*
X3531D01*
Y-4550D01*
X3530Y-4552D01*
X3519Y-4556D01*
X3512Y-4551D01*
X3500Y-4549D01*
X3304D01*
X3298Y-4538D01*
X3300Y-4535D01*
X3304Y-4514D01*
X3300Y-4493D01*
X3298Y-4491D01*
X3305Y-4478D01*
X3345D01*
X3366Y-4474D01*
X3383Y-4462D01*
X3395Y-4445D01*
X3399Y-4424D01*
X3395Y-4403D01*
X3383Y-4386D01*
X3366Y-4374D01*
X3355Y-4372D01*
Y-4359D01*
X3365Y-4357D01*
X3381Y-4346D01*
X3388Y-4346D01*
X3394Y-4354D01*
X3409Y-4366D01*
X3428Y-4373D01*
X3435Y-4374D01*
Y-4270D01*
Y-4166D01*
X3428Y-4167D01*
X3409Y-4174D01*
X3394Y-4186D01*
X3382Y-4202D01*
X3374Y-4220D01*
X3371Y-4240D01*
Y-4253D01*
X3359Y-4261D01*
X3345Y-4259D01*
X3325Y-4263D01*
X3309Y-4274D01*
X3298Y-4290D01*
X3294Y-4310D01*
X3298Y-4330D01*
X3309Y-4346D01*
X3325Y-4357D01*
X3326Y-4357D01*
X3324Y-4370D01*
X3295D01*
X3274Y-4374D01*
X3257Y-4386D01*
X3245Y-4403D01*
X3241Y-4424D01*
X3245Y-4445D01*
X3247Y-4448D01*
X3241Y-4462D01*
X3229Y-4464D01*
X3220Y-4471D01*
X3210Y-4475D01*
X3200Y-4471D01*
X3191Y-4464D01*
X3183Y-4463D01*
X3177Y-4449D01*
X3180Y-4445D01*
X3184Y-4424D01*
X3180Y-4403D01*
X3168Y-4386D01*
X3151Y-4374D01*
X3130Y-4370D01*
X3109Y-4374D01*
X3092Y-4386D01*
X3091Y-4387D01*
X3079D01*
X3078Y-4386D01*
X3061Y-4374D01*
X3040Y-4370D01*
X3019Y-4374D01*
X3002Y-4386D01*
X2998D01*
X2981Y-4374D01*
X2960Y-4370D01*
X2939Y-4374D01*
X2922Y-4386D01*
X2921Y-4387D01*
X2909D01*
X2908Y-4386D01*
X2891Y-4374D01*
X2870Y-4370D01*
X2849Y-4374D01*
X2832Y-4386D01*
X2820Y-4403D01*
X2816Y-4424D01*
X2820Y-4445D01*
X2823Y-4449D01*
X2817Y-4463D01*
X2809Y-4464D01*
X2800Y-4471D01*
X2790Y-4475D01*
X2780Y-4471D01*
X2771Y-4464D01*
X2759Y-4462D01*
X2753Y-4448D01*
X2755Y-4445D01*
X2759Y-4424D01*
X2755Y-4403D01*
X2743Y-4386D01*
X2726Y-4374D01*
X2705Y-4370D01*
X2676D01*
X2674Y-4357D01*
X2675Y-4357D01*
X2691Y-4346D01*
X2702Y-4330D01*
X2706Y-4310D01*
X2702Y-4290D01*
X2691Y-4274D01*
X2675Y-4263D01*
X2655Y-4259D01*
X2641Y-4261D01*
X2629Y-4253D01*
Y-4240D01*
X2626Y-4220D01*
X2618Y-4202D01*
X2606Y-4186D01*
X2591Y-4174D01*
X2572Y-4167D01*
X2565Y-4166D01*
Y-4270D01*
Y-4374D01*
X2572Y-4373D01*
X2591Y-4366D01*
X2606Y-4354D01*
X2612Y-4346D01*
X2619Y-4346D01*
X2635Y-4357D01*
X2645Y-4359D01*
Y-4372D01*
X2634Y-4374D01*
X2617Y-4386D01*
X2605Y-4403D01*
X2601Y-4424D01*
X2605Y-4445D01*
X2617Y-4462D01*
X2634Y-4474D01*
X2655Y-4478D01*
X2695D01*
X2702Y-4491D01*
X2700Y-4493D01*
X2696Y-4514D01*
X2700Y-4535D01*
X2702Y-4538D01*
X2696Y-4549D01*
X2500D01*
X2488Y-4551D01*
X2481Y-4556D01*
X2470Y-4552D01*
X2469Y-4550D01*
Y-4517D01*
X2405D01*
Y-4656D01*
X2412Y-4655D01*
X2431Y-4648D01*
X2446Y-4636D01*
X2456Y-4623D01*
X2469Y-4626D01*
X2469Y-4626D01*
Y-4758D01*
X2469Y-4758D01*
X2456Y-4761D01*
X2446Y-4748D01*
X2431Y-4736D01*
X2412Y-4729D01*
X2405Y-4728D01*
Y-4880D01*
Y-5032D01*
X2412Y-5031D01*
X2431Y-5024D01*
X2446Y-5012D01*
X2456Y-4999D01*
X2469Y-5002D01*
X2469Y-5002D01*
Y-5079D01*
X1431D01*
Y-5012D01*
X1431Y-5012D01*
X1444Y-5009D01*
X1454Y-5022D01*
X1469Y-5034D01*
X1488Y-5041D01*
X1495Y-5042D01*
Y-4890D01*
Y-4738D01*
X1488Y-4739D01*
X1469Y-4746D01*
X1454Y-4758D01*
X1444Y-4771D01*
X1431Y-4768D01*
X1431Y-4768D01*
Y-4626D01*
X1431Y-4626D01*
X1444Y-4623D01*
X1454Y-4636D01*
X1469Y-4648D01*
X1488Y-4655D01*
X1495Y-4656D01*
Y-4517D01*
X1431D01*
Y-4550D01*
X1430Y-4552D01*
X1419Y-4556D01*
X1412Y-4551D01*
X1400Y-4549D01*
X1204D01*
X1198Y-4538D01*
X1200Y-4535D01*
X1204Y-4514D01*
X1200Y-4496D01*
X1205Y-4487D01*
X1207Y-4484D01*
Y-4437D01*
X1138D01*
X1140Y-4447D01*
X1143Y-4451D01*
X1138Y-4462D01*
X1129Y-4464D01*
X1112Y-4476D01*
X1108D01*
X1091Y-4464D01*
X1083Y-4463D01*
X1077Y-4449D01*
X1080Y-4445D01*
X1084Y-4424D01*
X1080Y-4403D01*
X1068Y-4386D01*
X1051Y-4374D01*
X1030Y-4370D01*
X1009Y-4374D01*
X992Y-4386D01*
X991Y-4387D01*
X979D01*
X978Y-4386D01*
X961Y-4374D01*
X940Y-4370D01*
X919Y-4374D01*
X902Y-4386D01*
X898D01*
X881Y-4374D01*
X860Y-4370D01*
X839Y-4374D01*
X822Y-4386D01*
X821Y-4387D01*
X809D01*
X808Y-4386D01*
X791Y-4374D01*
X770Y-4370D01*
X749Y-4374D01*
X732Y-4386D01*
X720Y-4403D01*
X716Y-4424D01*
X720Y-4445D01*
X723Y-4449D01*
X717Y-4463D01*
X709Y-4464D01*
X700Y-4471D01*
X690Y-4475D01*
X680Y-4471D01*
X671Y-4464D01*
X662Y-4462D01*
X657Y-4451D01*
X660Y-4447D01*
X662Y-4437D01*
X593D01*
Y-4484D01*
X595Y-4487D01*
X600Y-4496D01*
X596Y-4514D01*
X600Y-4535D01*
X602Y-4538D01*
X596Y-4549D01*
X400D01*
X388Y-4551D01*
X381Y-4556D01*
X370Y-4552D01*
X369Y-4550D01*
Y-4517D01*
X305D01*
Y-4656D01*
X312Y-4655D01*
X331Y-4648D01*
X346Y-4636D01*
X356Y-4623D01*
X369Y-4626D01*
X369Y-4626D01*
Y-4758D01*
X369Y-4758D01*
X356Y-4761D01*
X346Y-4748D01*
X331Y-4736D01*
X312Y-4729D01*
X305Y-4728D01*
Y-4880D01*
Y-5032D01*
X312Y-5031D01*
X331Y-5024D01*
X346Y-5012D01*
X356Y-4999D01*
X369Y-5002D01*
X369Y-5002D01*
Y-5079D01*
X31D01*
Y-2260D01*
X29Y-2248D01*
X22Y-2238D01*
X12Y-2231D01*
X-0Y-2229D01*
X-379D01*
Y-2211D01*
X-366Y-2204D01*
X-357Y-2211D01*
X-340Y-2214D01*
X-323Y-2211D01*
X-310Y-2202D01*
X-297Y-2211D01*
X-280Y-2214D01*
X-263Y-2211D01*
X-250Y-2202D01*
X-237Y-2211D01*
X-220Y-2214D01*
X-203Y-2211D01*
X-190Y-2202D01*
X-177Y-2211D01*
X-160Y-2214D01*
X-143Y-2211D01*
X-130Y-2202D01*
X-117Y-2211D01*
X-100Y-2214D01*
X-83Y-2211D01*
X-70Y-2202D01*
X-57Y-2211D01*
X-40Y-2214D01*
X-23Y-2211D01*
X-10Y-2202D01*
X3Y-2211D01*
X20Y-2214D01*
X37Y-2211D01*
X51Y-2201D01*
X61Y-2187D01*
X64Y-2170D01*
X61Y-2153D01*
X52Y-2140D01*
X61Y-2127D01*
X64Y-2110D01*
X61Y-2093D01*
X52Y-2080D01*
X61Y-2067D01*
X64Y-2050D01*
X61Y-2033D01*
X51Y-2019D01*
X37Y-2009D01*
X20Y-2006D01*
X3Y-2009D01*
X-10Y-2018D01*
X-23Y-2009D01*
X-40Y-2006D01*
X-57Y-2009D01*
X-70Y-2018D01*
X-83Y-2009D01*
X-100Y-2006D01*
X-117Y-2009D01*
X-130Y-2018D01*
X-143Y-2009D01*
X-160Y-2006D01*
X-177Y-2009D01*
X-190Y-2018D01*
X-203Y-2009D01*
X-220Y-2006D01*
X-237Y-2009D01*
X-250Y-2018D01*
X-263Y-2009D01*
X-280Y-2006D01*
X-297Y-2009D01*
X-310Y-2018D01*
X-323Y-2009D01*
X-340Y-2006D01*
X-357Y-2009D01*
X-366Y-2016D01*
X-379Y-2009D01*
Y-1711D01*
X-366Y-1704D01*
X-357Y-1711D01*
X-340Y-1714D01*
X-323Y-1711D01*
X-310Y-1702D01*
X-297Y-1711D01*
X-280Y-1714D01*
X-263Y-1711D01*
X-250Y-1702D01*
X-237Y-1711D01*
X-220Y-1714D01*
X-203Y-1711D01*
X-190Y-1702D01*
X-177Y-1711D01*
X-160Y-1714D01*
X-143Y-1711D01*
X-130Y-1702D01*
X-117Y-1711D01*
X-100Y-1714D01*
X-83Y-1711D01*
X-70Y-1702D01*
X-57Y-1711D01*
X-40Y-1714D01*
X-23Y-1711D01*
X-10Y-1702D01*
X3Y-1711D01*
X20Y-1714D01*
X37Y-1711D01*
X51Y-1701D01*
X61Y-1687D01*
X64Y-1670D01*
X61Y-1653D01*
X52Y-1640D01*
X61Y-1627D01*
X64Y-1610D01*
X61Y-1593D01*
X52Y-1580D01*
X61Y-1567D01*
X64Y-1550D01*
X61Y-1533D01*
X51Y-1519D01*
X37Y-1509D01*
X20Y-1506D01*
X3Y-1509D01*
X-10Y-1518D01*
X-23Y-1509D01*
X-40Y-1506D01*
X-57Y-1509D01*
X-70Y-1518D01*
X-83Y-1509D01*
X-100Y-1506D01*
X-117Y-1509D01*
X-130Y-1518D01*
X-143Y-1509D01*
X-160Y-1506D01*
X-177Y-1509D01*
X-190Y-1518D01*
X-203Y-1509D01*
X-220Y-1506D01*
X-237Y-1509D01*
X-250Y-1518D01*
X-263Y-1509D01*
X-280Y-1506D01*
X-297Y-1509D01*
X-310Y-1518D01*
X-323Y-1509D01*
X-340Y-1506D01*
X-357Y-1509D01*
X-366Y-1516D01*
X-379Y-1509D01*
Y-1461D01*
X-366Y-1454D01*
X-357Y-1461D01*
X-340Y-1464D01*
X-323Y-1461D01*
X-310Y-1452D01*
X-297Y-1461D01*
X-280Y-1464D01*
X-263Y-1461D01*
X-250Y-1452D01*
X-237Y-1461D01*
X-220Y-1464D01*
X-203Y-1461D01*
X-190Y-1452D01*
X-177Y-1461D01*
X-160Y-1464D01*
X-143Y-1461D01*
X-130Y-1452D01*
X-117Y-1461D01*
X-100Y-1464D01*
X-83Y-1461D01*
X-70Y-1452D01*
X-57Y-1461D01*
X-40Y-1464D01*
X-23Y-1461D01*
X-10Y-1452D01*
X3Y-1461D01*
X20Y-1464D01*
X37Y-1461D01*
X51Y-1451D01*
X61Y-1437D01*
X64Y-1420D01*
X61Y-1403D01*
X52Y-1390D01*
X61Y-1377D01*
X64Y-1360D01*
X61Y-1343D01*
X52Y-1330D01*
X61Y-1317D01*
X64Y-1300D01*
X61Y-1283D01*
X51Y-1269D01*
X37Y-1259D01*
X20Y-1256D01*
X3Y-1259D01*
X-10Y-1268D01*
X-23Y-1259D01*
X-40Y-1256D01*
X-57Y-1259D01*
X-70Y-1268D01*
X-83Y-1259D01*
X-100Y-1256D01*
X-117Y-1259D01*
X-130Y-1268D01*
X-143Y-1259D01*
X-160Y-1256D01*
X-177Y-1259D01*
X-190Y-1268D01*
X-203Y-1259D01*
X-220Y-1256D01*
X-237Y-1259D01*
X-250Y-1268D01*
X-263Y-1259D01*
X-280Y-1256D01*
X-297Y-1259D01*
X-310Y-1268D01*
X-323Y-1259D01*
X-340Y-1256D01*
X-357Y-1259D01*
X-366Y-1266D01*
X-379Y-1259D01*
Y-1241D01*
X-0D01*
X12Y-1239D01*
X22Y-1232D01*
X29Y-1222D01*
X31Y-1210D01*
Y-31D01*
X469D01*
X475Y-44D01*
X469Y-52D01*
X461Y-69D01*
X459Y-88D01*
Y-110D01*
X530D01*
X601D01*
Y-88D01*
X599Y-69D01*
X591Y-52D01*
X585Y-44D01*
X591Y-31D01*
X1129D01*
X1135Y-44D01*
X1129Y-52D01*
X1121Y-69D01*
X1119Y-88D01*
Y-110D01*
X1190D01*
X1261D01*
Y-88D01*
X1259Y-69D01*
X1251Y-52D01*
X1245Y-44D01*
X1251Y-31D01*
X1571D01*
X1577Y-44D01*
X1569Y-54D01*
X1561Y-72D01*
X1559Y-90D01*
Y-112D01*
X1630D01*
X1701D01*
Y-90D01*
X1699Y-72D01*
X1691Y-54D01*
X1683Y-44D01*
X1689Y-31D01*
X2231D01*
X2237Y-44D01*
X2229Y-54D01*
X2221Y-72D01*
X2219Y-90D01*
Y-112D01*
X2290D01*
X2361D01*
Y-90D01*
X2359Y-72D01*
X2351Y-54D01*
X2343Y-44D01*
X2349Y-31D01*
X2393D01*
X2396Y-44D01*
X2389Y-49D01*
X2379Y-63D01*
X2376Y-80D01*
X2379Y-97D01*
X2389Y-111D01*
X2403Y-121D01*
X2420Y-124D01*
X2437Y-121D01*
X2451Y-111D01*
X2461Y-97D01*
X2464Y-80D01*
X2461Y-63D01*
X2451Y-49D01*
X2444Y-44D01*
X2447Y-31D01*
X5728D01*
X5730Y-40D01*
D02*
G37*
%LPC*%
G36*
X1261Y-135D02*
X1203D01*
Y-227D01*
X1208Y-226D01*
X1226Y-219D01*
X1240Y-208D01*
X1251Y-193D01*
X1259Y-176D01*
X1261Y-158D01*
Y-135D01*
D02*
G37*
G36*
X601Y-135D02*
X543D01*
Y-227D01*
X548Y-226D01*
X566Y-219D01*
X580Y-208D01*
X591Y-193D01*
X599Y-176D01*
X601Y-158D01*
Y-135D01*
D02*
G37*
G36*
X517D02*
X459D01*
Y-158D01*
X461Y-176D01*
X469Y-193D01*
X480Y-208D01*
X494Y-219D01*
X512Y-226D01*
X517Y-227D01*
Y-135D01*
D02*
G37*
G36*
X1177Y-135D02*
X1119D01*
Y-158D01*
X1121Y-176D01*
X1129Y-193D01*
X1140Y-208D01*
X1154Y-219D01*
X1172Y-226D01*
X1177Y-227D01*
Y-135D01*
D02*
G37*
G36*
X2361Y-138D02*
X2303D01*
Y-229D01*
X2308Y-229D01*
X2326Y-221D01*
X2340Y-210D01*
X2351Y-196D01*
X2359Y-178D01*
X2361Y-160D01*
Y-138D01*
D02*
G37*
G36*
X1701Y-138D02*
X1643D01*
Y-229D01*
X1648Y-229D01*
X1666Y-221D01*
X1680Y-210D01*
X1691Y-196D01*
X1699Y-178D01*
X1701Y-160D01*
Y-138D01*
D02*
G37*
G36*
X1617D02*
X1559D01*
Y-160D01*
X1561Y-178D01*
X1569Y-196D01*
X1580Y-210D01*
X1594Y-221D01*
X1612Y-229D01*
X1617Y-229D01*
Y-138D01*
D02*
G37*
G36*
X2277Y-138D02*
X2219D01*
Y-160D01*
X2221Y-178D01*
X2229Y-196D01*
X2240Y-210D01*
X2254Y-221D01*
X2272Y-229D01*
X2277Y-229D01*
Y-138D01*
D02*
G37*
G36*
X4250Y-236D02*
X4233Y-239D01*
X4219Y-249D01*
X4216Y-253D01*
X4204D01*
X4201Y-249D01*
X4187Y-239D01*
X4170Y-236D01*
X4153Y-239D01*
X4139Y-249D01*
X4129Y-263D01*
X4126Y-280D01*
X4129Y-297D01*
X4139Y-311D01*
X4153Y-321D01*
X4170Y-324D01*
X4187Y-321D01*
X4201Y-311D01*
X4204Y-307D01*
X4216D01*
X4219Y-311D01*
X4233Y-321D01*
X4250Y-324D01*
X4267Y-321D01*
X4281Y-311D01*
X4291Y-297D01*
X4294Y-280D01*
X4291Y-263D01*
X4281Y-249D01*
X4267Y-239D01*
X4250Y-236D01*
D02*
G37*
G36*
X2930Y-216D02*
X2913Y-219D01*
X2899Y-229D01*
X2889Y-243D01*
X2887Y-257D01*
X2880Y-256D01*
X2863Y-259D01*
X2850Y-268D01*
X2837Y-259D01*
X2820Y-256D01*
X2813Y-257D01*
X2811Y-243D01*
X2801Y-229D01*
X2787Y-219D01*
X2770Y-216D01*
X2753Y-219D01*
X2739Y-229D01*
X2729Y-243D01*
X2726Y-260D01*
X2729Y-277D01*
X2739Y-291D01*
X2753Y-301D01*
X2770Y-304D01*
X2777Y-303D01*
X2779Y-317D01*
X2789Y-331D01*
X2803Y-341D01*
X2820Y-344D01*
X2837Y-341D01*
X2850Y-332D01*
X2863Y-341D01*
X2880Y-344D01*
X2897Y-341D01*
X2911Y-331D01*
X2921Y-317D01*
X2923Y-303D01*
X2930Y-304D01*
X2947Y-301D01*
X2961Y-291D01*
X2971Y-277D01*
X2974Y-260D01*
X2971Y-243D01*
X2961Y-229D01*
X2947Y-219D01*
X2930Y-216D01*
D02*
G37*
G36*
X3850Y-256D02*
X3833Y-259D01*
X3819Y-269D01*
X3809Y-283D01*
X3806Y-297D01*
X3794D01*
X3791Y-283D01*
X3781Y-269D01*
X3767Y-259D01*
X3750Y-256D01*
X3733Y-259D01*
X3719Y-269D01*
X3709Y-283D01*
X3706Y-300D01*
X3709Y-317D01*
X3719Y-331D01*
X3733Y-341D01*
X3750Y-344D01*
X3767Y-341D01*
X3781Y-331D01*
X3791Y-317D01*
X3794Y-303D01*
X3806D01*
X3809Y-317D01*
X3819Y-331D01*
X3833Y-341D01*
X3850Y-344D01*
X3867Y-341D01*
X3881Y-331D01*
X3891Y-317D01*
X3894Y-300D01*
X3891Y-283D01*
X3881Y-269D01*
X3867Y-259D01*
X3850Y-256D01*
D02*
G37*
G36*
X990Y-246D02*
X973Y-249D01*
X959Y-259D01*
X949Y-273D01*
X946Y-290D01*
X949Y-307D01*
X959Y-321D01*
X973Y-331D01*
X990Y-334D01*
X1007Y-331D01*
X1021Y-321D01*
X1031Y-307D01*
X1034Y-290D01*
X1031Y-273D01*
X1021Y-259D01*
X1007Y-249D01*
X990Y-246D01*
D02*
G37*
G36*
X3470Y-256D02*
X3453Y-259D01*
X3439Y-269D01*
X3429Y-283D01*
X3426Y-300D01*
X3429Y-317D01*
X3439Y-331D01*
X3453Y-341D01*
X3470Y-344D01*
X3487Y-341D01*
X3501Y-331D01*
X3511Y-317D01*
X3514Y-300D01*
X3511Y-283D01*
X3501Y-269D01*
X3487Y-259D01*
X3470Y-256D01*
D02*
G37*
G36*
X1050Y-326D02*
X1033Y-329D01*
X1019Y-339D01*
X1009Y-353D01*
X1006Y-370D01*
X1009Y-387D01*
X1019Y-401D01*
X1033Y-411D01*
X1050Y-414D01*
X1067Y-411D01*
X1081Y-401D01*
X1091Y-387D01*
X1094Y-370D01*
X1091Y-353D01*
X1081Y-339D01*
X1067Y-329D01*
X1050Y-326D01*
D02*
G37*
G36*
X860Y-446D02*
X843Y-449D01*
X829Y-459D01*
X826Y-464D01*
X812Y-454D01*
X795Y-451D01*
X778Y-454D01*
X764Y-464D01*
X754Y-478D01*
X751Y-495D01*
X754Y-512D01*
X764Y-526D01*
X778Y-536D01*
X795Y-539D01*
X812Y-536D01*
X826Y-526D01*
X829Y-521D01*
X843Y-531D01*
X860Y-534D01*
X877Y-531D01*
X891Y-521D01*
X894Y-526D01*
X908Y-536D01*
X925Y-539D01*
X942Y-536D01*
X956Y-526D01*
X966Y-512D01*
X969Y-495D01*
X966Y-478D01*
X956Y-464D01*
X942Y-454D01*
X925Y-451D01*
X908Y-454D01*
X894Y-464D01*
X891Y-459D01*
X877Y-449D01*
X860Y-446D01*
D02*
G37*
G36*
X4250Y-456D02*
X4233Y-459D01*
X4219Y-469D01*
X4216Y-473D01*
X4204D01*
X4201Y-469D01*
X4187Y-459D01*
X4170Y-456D01*
X4153Y-459D01*
X4139Y-469D01*
X4136Y-473D01*
X4124D01*
X4121Y-469D01*
X4107Y-459D01*
X4090Y-456D01*
X4073Y-459D01*
X4059Y-469D01*
X4049Y-483D01*
X4046Y-500D01*
X4049Y-517D01*
X4059Y-531D01*
X4073Y-541D01*
X4090Y-544D01*
X4107Y-541D01*
X4121Y-531D01*
X4124Y-527D01*
X4136D01*
X4139Y-531D01*
X4153Y-541D01*
X4170Y-544D01*
X4187Y-541D01*
X4201Y-531D01*
X4204Y-527D01*
X4216D01*
X4219Y-531D01*
X4233Y-541D01*
X4250Y-544D01*
X4267Y-541D01*
X4281Y-531D01*
X4291Y-517D01*
X4294Y-500D01*
X4291Y-483D01*
X4281Y-469D01*
X4267Y-459D01*
X4250Y-456D01*
D02*
G37*
G36*
X1320Y-396D02*
X1303Y-399D01*
X1289Y-409D01*
X1279Y-423D01*
X1276Y-440D01*
X1279Y-457D01*
X1289Y-471D01*
X1303Y-481D01*
X1320Y-484D01*
X1337Y-481D01*
X1351Y-471D01*
X1361Y-457D01*
X1364Y-440D01*
X1361Y-423D01*
X1351Y-409D01*
X1337Y-399D01*
X1320Y-396D01*
D02*
G37*
G36*
X1060Y-436D02*
X1043Y-439D01*
X1029Y-449D01*
X1019Y-463D01*
X1016Y-480D01*
X1019Y-497D01*
X1029Y-511D01*
X1043Y-521D01*
X1060Y-524D01*
X1077Y-521D01*
X1091Y-511D01*
X1101Y-497D01*
X1104Y-480D01*
X1101Y-463D01*
X1091Y-449D01*
X1077Y-439D01*
X1060Y-436D01*
D02*
G37*
G36*
X1160Y-446D02*
X1143Y-449D01*
X1129Y-459D01*
X1119Y-473D01*
X1116Y-490D01*
X1119Y-507D01*
X1129Y-521D01*
X1143Y-531D01*
X1160Y-534D01*
X1177Y-531D01*
X1191Y-521D01*
X1201Y-507D01*
X1204Y-490D01*
X1201Y-473D01*
X1191Y-459D01*
X1177Y-449D01*
X1160Y-446D01*
D02*
G37*
G36*
X2530Y-456D02*
X2513Y-459D01*
X2499Y-469D01*
X2489Y-483D01*
X2486Y-500D01*
X2489Y-517D01*
X2499Y-531D01*
X2513Y-541D01*
X2530Y-544D01*
X2547Y-541D01*
X2561Y-531D01*
X2571Y-517D01*
X2574Y-500D01*
X2571Y-483D01*
X2561Y-469D01*
X2547Y-459D01*
X2530Y-456D01*
D02*
G37*
G36*
X3410Y-466D02*
X3393Y-469D01*
X3379Y-479D01*
X3369Y-493D01*
X3366Y-510D01*
X3369Y-527D01*
X3379Y-541D01*
X3393Y-551D01*
X3410Y-554D01*
X3427Y-551D01*
X3441Y-541D01*
X3451Y-527D01*
X3454Y-510D01*
X3451Y-493D01*
X3441Y-479D01*
X3427Y-469D01*
X3410Y-466D01*
D02*
G37*
G36*
X3500Y-556D02*
X3483Y-559D01*
X3469Y-569D01*
X3460Y-583D01*
X3457Y-585D01*
X3450Y-588D01*
X3445Y-589D01*
X3430Y-586D01*
X3413Y-589D01*
X3399Y-599D01*
X3389Y-613D01*
X3386Y-630D01*
X3389Y-647D01*
X3399Y-661D01*
X3413Y-671D01*
X3430Y-674D01*
X3447Y-671D01*
X3461Y-661D01*
X3470Y-647D01*
X3473Y-645D01*
X3480Y-642D01*
X3485Y-641D01*
X3500Y-644D01*
X3517Y-641D01*
X3531Y-631D01*
X3541Y-617D01*
X3544Y-600D01*
X3541Y-583D01*
X3531Y-569D01*
X3517Y-559D01*
X3500Y-556D01*
D02*
G37*
G36*
X170Y-482D02*
X152Y-484D01*
X136Y-491D01*
X122Y-502D01*
X111Y-516D01*
X104Y-532D01*
X102Y-550D01*
X104Y-568D01*
X111Y-584D01*
X122Y-598D01*
X136Y-609D01*
X152Y-616D01*
X170Y-618D01*
X188Y-616D01*
X204Y-609D01*
X218Y-598D01*
X229Y-584D01*
X236Y-568D01*
X238Y-550D01*
X236Y-532D01*
X229Y-516D01*
X218Y-502D01*
X204Y-491D01*
X188Y-484D01*
X170Y-482D01*
D02*
G37*
G36*
X3830Y-616D02*
X3813Y-619D01*
X3799Y-629D01*
X3789Y-643D01*
X3786Y-660D01*
X3789Y-677D01*
X3799Y-691D01*
X3813Y-701D01*
X3830Y-704D01*
X3847Y-701D01*
X3861Y-691D01*
X3864Y-688D01*
X3872Y-689D01*
X3876Y-691D01*
X3879Y-707D01*
X3889Y-721D01*
X3903Y-731D01*
X3920Y-734D01*
X3937Y-731D01*
X3951Y-721D01*
X3961Y-707D01*
X3964Y-690D01*
X3961Y-673D01*
X3951Y-659D01*
X3937Y-649D01*
X3920Y-646D01*
X3903Y-649D01*
X3889Y-659D01*
X3886Y-662D01*
X3878Y-661D01*
X3874Y-659D01*
X3871Y-643D01*
X3861Y-629D01*
X3847Y-619D01*
X3830Y-616D01*
D02*
G37*
G36*
X2970Y-556D02*
X2953Y-559D01*
X2939Y-569D01*
X2929Y-583D01*
X2926Y-600D01*
X2929Y-617D01*
X2939Y-631D01*
X2953Y-641D01*
X2970Y-644D01*
X2974Y-643D01*
X2986Y-650D01*
X2989Y-667D01*
X2990Y-668D01*
X2986Y-684D01*
X2979Y-689D01*
X2969Y-703D01*
X2966Y-720D01*
X2969Y-737D01*
X2979Y-751D01*
X2993Y-761D01*
X3010Y-764D01*
X3027Y-761D01*
X3041Y-751D01*
X3051Y-737D01*
X3054Y-720D01*
X3051Y-703D01*
X3050Y-702D01*
X3054Y-686D01*
X3061Y-681D01*
X3071Y-667D01*
X3074Y-650D01*
X3071Y-633D01*
X3061Y-619D01*
X3047Y-609D01*
X3030Y-606D01*
X3026Y-607D01*
X3014Y-600D01*
X3011Y-583D01*
X3001Y-569D01*
X2987Y-559D01*
X2970Y-556D01*
D02*
G37*
G36*
X220Y-686D02*
X203Y-689D01*
X189Y-699D01*
X179Y-713D01*
X176Y-730D01*
X179Y-747D01*
X189Y-761D01*
X203Y-771D01*
X220Y-774D01*
X237Y-771D01*
X251Y-761D01*
X261Y-747D01*
X264Y-730D01*
X261Y-713D01*
X251Y-699D01*
X237Y-689D01*
X220Y-686D01*
D02*
G37*
G36*
X3538Y-706D02*
X3521Y-709D01*
X3507Y-719D01*
X3497Y-733D01*
X3494Y-750D01*
X3497Y-767D01*
X3507Y-781D01*
X3521Y-791D01*
X3538Y-794D01*
X3555Y-791D01*
X3569Y-781D01*
X3579Y-767D01*
X3582Y-750D01*
X3579Y-733D01*
X3569Y-719D01*
X3555Y-709D01*
X3538Y-706D01*
D02*
G37*
G36*
X490Y-726D02*
X473Y-729D01*
X459Y-739D01*
X449Y-753D01*
X446Y-770D01*
X449Y-787D01*
X459Y-801D01*
X473Y-811D01*
X490Y-814D01*
X507Y-811D01*
X521Y-801D01*
X531Y-787D01*
X534Y-770D01*
X531Y-753D01*
X521Y-739D01*
X507Y-729D01*
X490Y-726D01*
D02*
G37*
G36*
X2700Y-736D02*
X2683Y-739D01*
X2669Y-749D01*
X2659Y-763D01*
X2656Y-780D01*
X2659Y-797D01*
X2669Y-811D01*
X2683Y-821D01*
X2700Y-824D01*
X2717Y-821D01*
X2731Y-811D01*
X2741Y-797D01*
X2744Y-780D01*
X2741Y-763D01*
X2731Y-749D01*
X2717Y-739D01*
X2700Y-736D01*
D02*
G37*
G36*
X170Y-782D02*
X152Y-784D01*
X136Y-791D01*
X122Y-802D01*
X111Y-816D01*
X104Y-832D01*
X102Y-850D01*
X104Y-868D01*
X111Y-884D01*
X122Y-898D01*
X136Y-909D01*
X152Y-916D01*
X170Y-918D01*
X188Y-916D01*
X204Y-909D01*
X218Y-898D01*
X229Y-884D01*
X236Y-868D01*
X238Y-850D01*
X236Y-832D01*
X229Y-816D01*
X218Y-802D01*
X204Y-791D01*
X188Y-784D01*
X170Y-782D01*
D02*
G37*
G36*
X2550Y-856D02*
X2533Y-859D01*
X2519Y-869D01*
X2509Y-883D01*
X2506Y-900D01*
X2509Y-917D01*
X2519Y-931D01*
X2533Y-941D01*
X2550Y-944D01*
X2567Y-941D01*
X2581Y-931D01*
X2591Y-917D01*
X2594Y-900D01*
X2591Y-883D01*
X2581Y-869D01*
X2567Y-859D01*
X2550Y-856D01*
D02*
G37*
G36*
X850Y-946D02*
X833Y-949D01*
X820Y-958D01*
X807Y-949D01*
X790Y-946D01*
X773Y-949D01*
X760Y-958D01*
X747Y-949D01*
X730Y-946D01*
X713Y-949D01*
X699Y-959D01*
X689Y-973D01*
X686Y-990D01*
X689Y-1007D01*
X699Y-1021D01*
X713Y-1031D01*
X730Y-1034D01*
X747Y-1031D01*
X760Y-1022D01*
X773Y-1031D01*
X790Y-1034D01*
X807Y-1031D01*
X820Y-1022D01*
X833Y-1031D01*
X850Y-1034D01*
X867Y-1031D01*
X881Y-1021D01*
X891Y-1007D01*
X894Y-990D01*
X891Y-973D01*
X881Y-959D01*
X867Y-949D01*
X850Y-946D01*
D02*
G37*
G36*
X3600Y-1016D02*
X3583Y-1019D01*
X3569Y-1029D01*
X3559Y-1043D01*
X3556Y-1060D01*
X3559Y-1077D01*
X3569Y-1091D01*
X3583Y-1101D01*
X3600Y-1104D01*
X3617Y-1101D01*
X3631Y-1091D01*
X3641Y-1077D01*
X3644Y-1060D01*
X3641Y-1043D01*
X3631Y-1029D01*
X3617Y-1019D01*
X3600Y-1016D01*
D02*
G37*
G36*
X2540Y-1046D02*
X2523Y-1049D01*
X2509Y-1059D01*
X2499Y-1073D01*
X2496Y-1090D01*
X2499Y-1107D01*
X2509Y-1121D01*
X2523Y-1131D01*
X2540Y-1134D01*
X2557Y-1131D01*
X2571Y-1121D01*
X2581Y-1107D01*
X2584Y-1090D01*
X2581Y-1073D01*
X2571Y-1059D01*
X2557Y-1049D01*
X2540Y-1046D01*
D02*
G37*
G36*
X1360D02*
X1343Y-1049D01*
X1329Y-1059D01*
X1319Y-1073D01*
X1316Y-1090D01*
X1319Y-1107D01*
X1329Y-1121D01*
X1343Y-1131D01*
X1360Y-1134D01*
X1377Y-1131D01*
X1391Y-1121D01*
X1401Y-1107D01*
X1404Y-1090D01*
X1401Y-1073D01*
X1391Y-1059D01*
X1377Y-1049D01*
X1360Y-1046D01*
D02*
G37*
G36*
X484Y-1066D02*
X467Y-1069D01*
X453Y-1079D01*
X443Y-1093D01*
X440Y-1110D01*
X443Y-1127D01*
X453Y-1141D01*
X467Y-1151D01*
X484Y-1154D01*
X501Y-1151D01*
X515Y-1141D01*
X525Y-1127D01*
X528Y-1110D01*
X525Y-1093D01*
X515Y-1079D01*
X501Y-1069D01*
X484Y-1066D01*
D02*
G37*
G36*
X2810Y-1136D02*
X2793Y-1139D01*
X2779Y-1149D01*
X2769Y-1163D01*
X2766Y-1180D01*
X2769Y-1197D01*
X2779Y-1211D01*
X2793Y-1221D01*
X2810Y-1224D01*
X2827Y-1221D01*
X2841Y-1211D01*
X2851Y-1197D01*
X2854Y-1180D01*
X2851Y-1163D01*
X2841Y-1149D01*
X2827Y-1139D01*
X2810Y-1136D01*
D02*
G37*
G36*
X2730Y-1206D02*
X2713Y-1209D01*
X2699Y-1219D01*
X2689Y-1233D01*
X2686Y-1250D01*
X2689Y-1267D01*
X2699Y-1281D01*
X2713Y-1291D01*
X2730Y-1294D01*
X2747Y-1291D01*
X2761Y-1281D01*
X2771Y-1267D01*
X2774Y-1250D01*
X2771Y-1233D01*
X2761Y-1219D01*
X2747Y-1209D01*
X2730Y-1206D01*
D02*
G37*
G36*
X3130Y-1136D02*
X3113Y-1139D01*
X3099Y-1149D01*
X3089Y-1163D01*
X3086Y-1180D01*
X3089Y-1197D01*
X3099Y-1211D01*
Y-1219D01*
X3089Y-1233D01*
X3086Y-1250D01*
X3089Y-1267D01*
X3099Y-1281D01*
X3113Y-1291D01*
X3120Y-1292D01*
X3130Y-1306D01*
X3130Y-1306D01*
X3133Y-1323D01*
X3143Y-1337D01*
X3157Y-1347D01*
X3174Y-1350D01*
X3191Y-1347D01*
X3205Y-1337D01*
X3214Y-1323D01*
X3218Y-1306D01*
X3214Y-1289D01*
X3205Y-1275D01*
X3191Y-1266D01*
X3184Y-1264D01*
X3174Y-1250D01*
X3174Y-1250D01*
X3171Y-1233D01*
X3161Y-1219D01*
Y-1211D01*
X3171Y-1197D01*
X3174Y-1180D01*
X3171Y-1163D01*
X3161Y-1149D01*
X3147Y-1139D01*
X3130Y-1136D01*
D02*
G37*
G36*
X2850Y-1266D02*
X2833Y-1269D01*
X2819Y-1279D01*
X2809Y-1293D01*
X2806Y-1310D01*
X2809Y-1327D01*
X2819Y-1341D01*
X2833Y-1351D01*
X2850Y-1354D01*
X2867Y-1351D01*
X2881Y-1341D01*
X2891Y-1327D01*
X2894Y-1310D01*
X2891Y-1293D01*
X2881Y-1279D01*
X2867Y-1269D01*
X2850Y-1266D01*
D02*
G37*
G36*
X1487Y-1369D02*
X1470Y-1372D01*
X1456Y-1382D01*
X1446Y-1396D01*
X1443Y-1413D01*
X1446Y-1430D01*
X1456Y-1444D01*
X1470Y-1454D01*
X1487Y-1457D01*
X1504Y-1454D01*
X1518Y-1444D01*
X1528Y-1430D01*
X1531Y-1413D01*
X1528Y-1396D01*
X1518Y-1382D01*
X1504Y-1372D01*
X1487Y-1369D01*
D02*
G37*
G36*
X1106Y-1372D02*
X1089Y-1375D01*
X1075Y-1385D01*
X1065Y-1399D01*
X1062Y-1416D01*
X1065Y-1433D01*
X1075Y-1447D01*
X1089Y-1457D01*
X1106Y-1460D01*
X1123Y-1457D01*
X1137Y-1447D01*
X1147Y-1433D01*
X1150Y-1416D01*
X1147Y-1399D01*
X1137Y-1385D01*
X1123Y-1375D01*
X1106Y-1372D01*
D02*
G37*
G36*
X3850Y-1436D02*
X3833Y-1439D01*
X3819Y-1449D01*
X3809Y-1463D01*
X3806Y-1480D01*
X3809Y-1497D01*
X3819Y-1511D01*
X3827Y-1516D01*
X3822Y-1528D01*
X3810Y-1526D01*
X3795Y-1529D01*
X3790Y-1528D01*
X3781Y-1525D01*
X3781Y-1523D01*
X3771Y-1509D01*
X3757Y-1499D01*
X3740Y-1496D01*
X3723Y-1499D01*
X3709Y-1509D01*
X3699Y-1523D01*
X3696Y-1540D01*
X3699Y-1557D01*
X3709Y-1571D01*
X3723Y-1581D01*
X3740Y-1584D01*
X3755Y-1581D01*
X3760Y-1582D01*
X3769Y-1585D01*
X3769Y-1587D01*
X3779Y-1601D01*
X3793Y-1611D01*
X3810Y-1614D01*
X3827Y-1611D01*
X3841Y-1601D01*
X3851Y-1587D01*
X3854Y-1570D01*
X3851Y-1553D01*
X3841Y-1539D01*
X3833Y-1534D01*
X3838Y-1522D01*
X3850Y-1524D01*
X3867Y-1521D01*
X3881Y-1511D01*
X3891Y-1497D01*
X3894Y-1480D01*
X3891Y-1463D01*
X3881Y-1449D01*
X3867Y-1439D01*
X3850Y-1436D01*
D02*
G37*
G36*
X2730D02*
X2713Y-1439D01*
X2699Y-1449D01*
X2689Y-1463D01*
X2686Y-1480D01*
X2687Y-1484D01*
X2680Y-1496D01*
X2663Y-1499D01*
X2649Y-1509D01*
X2639Y-1523D01*
X2636Y-1540D01*
X2639Y-1557D01*
X2649Y-1571D01*
X2663Y-1581D01*
X2678Y-1584D01*
X2680Y-1585D01*
X2688Y-1595D01*
X2686Y-1605D01*
X2689Y-1622D01*
X2699Y-1636D01*
X2713Y-1646D01*
X2730Y-1649D01*
X2747Y-1646D01*
X2761Y-1636D01*
X2771Y-1622D01*
X2774Y-1605D01*
X2771Y-1588D01*
X2761Y-1574D01*
X2747Y-1564D01*
X2732Y-1561D01*
X2730Y-1560D01*
X2722Y-1550D01*
X2724Y-1540D01*
X2723Y-1536D01*
X2730Y-1524D01*
X2747Y-1521D01*
X2761Y-1511D01*
X2771Y-1497D01*
X2774Y-1480D01*
X2771Y-1463D01*
X2761Y-1449D01*
X2747Y-1439D01*
X2730Y-1436D01*
D02*
G37*
G36*
X970Y-1606D02*
X953Y-1609D01*
X939Y-1619D01*
X929Y-1633D01*
X926Y-1650D01*
X929Y-1667D01*
X939Y-1681D01*
X953Y-1691D01*
X970Y-1694D01*
X987Y-1691D01*
X1001Y-1681D01*
X1011Y-1667D01*
X1014Y-1650D01*
X1011Y-1633D01*
X1001Y-1619D01*
X987Y-1609D01*
X970Y-1606D01*
D02*
G37*
G36*
X3130Y-1626D02*
X3113Y-1629D01*
X3099Y-1639D01*
X3089Y-1653D01*
X3086Y-1670D01*
X3089Y-1687D01*
X3099Y-1701D01*
X3113Y-1711D01*
X3130Y-1714D01*
X3147Y-1711D01*
X3161Y-1701D01*
X3171Y-1687D01*
X3174Y-1670D01*
X3171Y-1653D01*
X3161Y-1639D01*
X3147Y-1629D01*
X3130Y-1626D01*
D02*
G37*
G36*
X2630Y-1666D02*
X2613Y-1669D01*
X2599Y-1679D01*
X2589Y-1693D01*
X2586Y-1710D01*
X2589Y-1727D01*
X2599Y-1741D01*
X2613Y-1751D01*
X2630Y-1754D01*
X2647Y-1751D01*
X2661Y-1741D01*
X2671Y-1727D01*
X2674Y-1710D01*
X2671Y-1693D01*
X2661Y-1679D01*
X2647Y-1669D01*
X2630Y-1666D01*
D02*
G37*
G36*
X2300D02*
X2283Y-1669D01*
X2269Y-1679D01*
X2259Y-1693D01*
X2256Y-1710D01*
X2259Y-1727D01*
X2269Y-1741D01*
X2283Y-1751D01*
X2300Y-1754D01*
X2317Y-1751D01*
X2331Y-1741D01*
X2341Y-1727D01*
X2344Y-1710D01*
X2341Y-1693D01*
X2331Y-1679D01*
X2317Y-1669D01*
X2300Y-1666D01*
D02*
G37*
G36*
X4430Y-1726D02*
X4413Y-1729D01*
X4399Y-1739D01*
X4389Y-1753D01*
X4386Y-1770D01*
X4389Y-1787D01*
X4399Y-1801D01*
X4413Y-1811D01*
X4430Y-1814D01*
X4447Y-1811D01*
X4461Y-1801D01*
X4471Y-1787D01*
X4474Y-1770D01*
X4471Y-1753D01*
X4461Y-1739D01*
X4447Y-1729D01*
X4430Y-1726D01*
D02*
G37*
G36*
X3750Y-1766D02*
X3733Y-1769D01*
X3719Y-1779D01*
X3709Y-1793D01*
X3706Y-1810D01*
X3709Y-1827D01*
X3719Y-1841D01*
X3733Y-1851D01*
X3750Y-1854D01*
X3767Y-1851D01*
X3781Y-1841D01*
X3791Y-1827D01*
X3794Y-1810D01*
X3791Y-1793D01*
X3781Y-1779D01*
X3767Y-1769D01*
X3750Y-1766D01*
D02*
G37*
G36*
X4730D02*
X4713Y-1769D01*
X4699Y-1779D01*
X4689Y-1793D01*
X4686Y-1810D01*
X4689Y-1827D01*
X4699Y-1841D01*
X4713Y-1851D01*
X4730Y-1854D01*
X4737Y-1853D01*
X4739Y-1867D01*
X4749Y-1881D01*
X4763Y-1891D01*
X4780Y-1894D01*
X4797Y-1891D01*
X4811Y-1881D01*
X4821Y-1867D01*
X4824Y-1850D01*
X4821Y-1833D01*
X4811Y-1819D01*
X4797Y-1809D01*
X4780Y-1806D01*
X4773Y-1807D01*
X4771Y-1793D01*
X4761Y-1779D01*
X4747Y-1769D01*
X4730Y-1766D01*
D02*
G37*
G36*
X1830Y-1856D02*
X1813Y-1859D01*
X1799Y-1869D01*
X1789Y-1883D01*
X1786Y-1900D01*
X1789Y-1917D01*
X1799Y-1931D01*
X1813Y-1941D01*
X1830Y-1944D01*
X1847Y-1941D01*
X1861Y-1931D01*
X1871Y-1917D01*
X1874Y-1900D01*
X1871Y-1883D01*
X1861Y-1869D01*
X1847Y-1859D01*
X1830Y-1856D01*
D02*
G37*
G36*
X3820Y-1886D02*
X3803Y-1889D01*
X3789Y-1899D01*
X3779Y-1913D01*
X3776Y-1930D01*
X3778Y-1942D01*
X3767Y-1949D01*
X3767Y-1949D01*
X3750Y-1946D01*
X3733Y-1949D01*
X3719Y-1959D01*
X3709Y-1973D01*
X3706Y-1990D01*
X3709Y-2007D01*
X3719Y-2021D01*
X3733Y-2031D01*
X3750Y-2034D01*
X3767Y-2031D01*
X3781Y-2021D01*
X3791Y-2007D01*
X3794Y-1990D01*
X3792Y-1978D01*
X3803Y-1971D01*
X3803Y-1971D01*
X3820Y-1974D01*
X3827Y-1986D01*
X3826Y-1990D01*
X3829Y-2007D01*
X3839Y-2021D01*
X3853Y-2031D01*
X3870Y-2034D01*
X3887Y-2031D01*
X3901Y-2021D01*
X3911Y-2007D01*
X3914Y-1990D01*
X3911Y-1973D01*
X3901Y-1959D01*
X3887Y-1949D01*
X3870Y-1946D01*
X3863Y-1934D01*
X3864Y-1930D01*
X3861Y-1913D01*
X3851Y-1899D01*
X3837Y-1889D01*
X3820Y-1886D01*
D02*
G37*
G36*
X5370Y-1788D02*
X5353Y-1792D01*
X5339Y-1801D01*
X5329Y-1816D01*
X5326Y-1833D01*
X5329Y-1849D01*
X5339Y-1864D01*
X5341Y-1865D01*
Y-1878D01*
X5339Y-1879D01*
X5329Y-1893D01*
X5326Y-1910D01*
X5329Y-1927D01*
X5339Y-1941D01*
X5353Y-1951D01*
X5370Y-1954D01*
X5387Y-1951D01*
X5401Y-1941D01*
X5411Y-1927D01*
X5414Y-1910D01*
X5411Y-1893D01*
X5401Y-1879D01*
X5399Y-1878D01*
Y-1865D01*
X5401Y-1864D01*
X5411Y-1849D01*
X5414Y-1833D01*
X5411Y-1816D01*
X5401Y-1801D01*
X5387Y-1792D01*
X5370Y-1788D01*
D02*
G37*
G36*
X2460Y-1866D02*
X2443Y-1869D01*
X2429Y-1879D01*
X2419Y-1893D01*
X2416Y-1910D01*
X2419Y-1927D01*
X2429Y-1941D01*
X2443Y-1951D01*
X2460Y-1954D01*
X2477Y-1951D01*
X2491Y-1941D01*
X2501Y-1927D01*
X2504Y-1910D01*
X2501Y-1893D01*
X2491Y-1879D01*
X2477Y-1869D01*
X2460Y-1866D01*
D02*
G37*
G36*
X2110D02*
X2093Y-1869D01*
X2079Y-1879D01*
X2069Y-1893D01*
X2066Y-1910D01*
X2069Y-1927D01*
X2079Y-1941D01*
X2093Y-1951D01*
X2110Y-1954D01*
X2127Y-1951D01*
X2141Y-1941D01*
X2151Y-1927D01*
X2154Y-1910D01*
X2151Y-1893D01*
X2141Y-1879D01*
X2127Y-1869D01*
X2110Y-1866D01*
D02*
G37*
G36*
X2630Y-1946D02*
X2613Y-1949D01*
X2599Y-1959D01*
X2589Y-1973D01*
X2586Y-1990D01*
X2589Y-2007D01*
X2599Y-2021D01*
X2613Y-2031D01*
X2630Y-2034D01*
X2647Y-2031D01*
X2661Y-2021D01*
X2671Y-2007D01*
X2674Y-1990D01*
X2671Y-1973D01*
X2661Y-1959D01*
X2647Y-1949D01*
X2630Y-1946D01*
D02*
G37*
G36*
X5260Y-2036D02*
X5243Y-2039D01*
X5229Y-2049D01*
X5226Y-2053D01*
X5214D01*
X5211Y-2049D01*
X5197Y-2039D01*
X5180Y-2036D01*
X5163Y-2039D01*
X5149Y-2049D01*
X5139Y-2063D01*
X5136Y-2080D01*
X5139Y-2097D01*
X5149Y-2111D01*
X5163Y-2121D01*
X5180Y-2124D01*
X5197Y-2121D01*
X5211Y-2111D01*
X5214Y-2107D01*
X5226D01*
X5229Y-2111D01*
X5243Y-2121D01*
X5260Y-2124D01*
X5277Y-2121D01*
X5291Y-2111D01*
X5301Y-2097D01*
X5304Y-2080D01*
X5301Y-2063D01*
X5291Y-2049D01*
X5277Y-2039D01*
X5260Y-2036D01*
D02*
G37*
G36*
X1318Y-2016D02*
X1301Y-2019D01*
X1287Y-2029D01*
X1277Y-2043D01*
X1274Y-2057D01*
X1261D01*
X1259Y-2043D01*
X1249Y-2029D01*
X1235Y-2019D01*
X1218Y-2016D01*
X1201Y-2019D01*
X1187Y-2029D01*
X1177Y-2043D01*
X1174Y-2060D01*
X1177Y-2077D01*
X1187Y-2091D01*
X1201Y-2101D01*
X1218Y-2104D01*
X1235Y-2101D01*
X1249Y-2091D01*
X1259Y-2077D01*
X1261Y-2063D01*
X1274D01*
X1277Y-2077D01*
X1287Y-2091D01*
X1301Y-2101D01*
X1318Y-2104D01*
X1335Y-2101D01*
X1349Y-2091D01*
X1359Y-2077D01*
X1362Y-2060D01*
X1359Y-2043D01*
X1349Y-2029D01*
X1335Y-2019D01*
X1318Y-2016D01*
D02*
G37*
G36*
X1068D02*
X1051Y-2019D01*
X1037Y-2029D01*
X1027Y-2043D01*
X1024Y-2057D01*
X1011D01*
X1009Y-2043D01*
X999Y-2029D01*
X985Y-2019D01*
X968Y-2016D01*
X951Y-2019D01*
X937Y-2029D01*
X927Y-2043D01*
X924Y-2060D01*
X927Y-2077D01*
X937Y-2091D01*
X951Y-2101D01*
X968Y-2104D01*
X985Y-2101D01*
X999Y-2091D01*
X1009Y-2077D01*
X1011Y-2063D01*
X1024D01*
X1027Y-2077D01*
X1037Y-2091D01*
X1051Y-2101D01*
X1068Y-2104D01*
X1085Y-2101D01*
X1099Y-2091D01*
X1109Y-2077D01*
X1112Y-2060D01*
X1109Y-2043D01*
X1099Y-2029D01*
X1085Y-2019D01*
X1068Y-2016D01*
D02*
G37*
G36*
X4912Y-2013D02*
X4896Y-2017D01*
X4881Y-2026D01*
X4872Y-2041D01*
X4868Y-2058D01*
X4872Y-2074D01*
X4881Y-2089D01*
X4896Y-2098D01*
X4912Y-2102D01*
X4929Y-2098D01*
X4944Y-2089D01*
X4953Y-2074D01*
X4957Y-2058D01*
X4953Y-2041D01*
X4944Y-2026D01*
X4929Y-2017D01*
X4912Y-2013D01*
D02*
G37*
G36*
X5426Y-2022D02*
X5409Y-2025D01*
X5395Y-2035D01*
X5385Y-2049D01*
X5382Y-2066D01*
X5385Y-2083D01*
X5395Y-2097D01*
X5409Y-2107D01*
X5426Y-2110D01*
X5443Y-2107D01*
X5457Y-2097D01*
X5467Y-2083D01*
X5470Y-2066D01*
X5467Y-2049D01*
X5457Y-2035D01*
X5443Y-2025D01*
X5426Y-2022D01*
D02*
G37*
G36*
X3270Y-2146D02*
X3253Y-2149D01*
X3239Y-2159D01*
X3229Y-2173D01*
X3226Y-2190D01*
X3229Y-2207D01*
X3239Y-2221D01*
X3253Y-2231D01*
X3270Y-2234D01*
X3287Y-2231D01*
X3301Y-2221D01*
X3311Y-2207D01*
X3314Y-2190D01*
X3311Y-2173D01*
X3301Y-2159D01*
X3287Y-2149D01*
X3270Y-2146D01*
D02*
G37*
G36*
X3110D02*
X3093Y-2149D01*
X3079Y-2159D01*
X3069Y-2173D01*
X3066Y-2190D01*
X3069Y-2207D01*
X3079Y-2221D01*
X3093Y-2231D01*
X3110Y-2234D01*
X3127Y-2231D01*
X3141Y-2221D01*
X3151Y-2207D01*
X3154Y-2190D01*
X3151Y-2173D01*
X3141Y-2159D01*
X3127Y-2149D01*
X3110Y-2146D01*
D02*
G37*
G36*
X4710Y-2166D02*
X4693Y-2169D01*
X4679Y-2179D01*
X4669Y-2193D01*
X4666Y-2210D01*
X4669Y-2227D01*
X4679Y-2241D01*
X4693Y-2251D01*
X4710Y-2254D01*
X4727Y-2251D01*
X4741Y-2241D01*
X4751Y-2227D01*
X4754Y-2210D01*
X4751Y-2193D01*
X4741Y-2179D01*
X4727Y-2169D01*
X4710Y-2166D01*
D02*
G37*
G36*
X5050Y-2196D02*
X5033Y-2199D01*
X5019Y-2209D01*
X5009Y-2223D01*
X5006Y-2240D01*
X5009Y-2257D01*
X5019Y-2271D01*
X5033Y-2281D01*
X5050Y-2284D01*
X5067Y-2281D01*
X5081Y-2271D01*
X5091Y-2257D01*
X5094Y-2240D01*
X5091Y-2223D01*
X5081Y-2209D01*
X5067Y-2199D01*
X5050Y-2196D01*
D02*
G37*
G36*
X4250Y-2416D02*
X4233Y-2419D01*
X4219Y-2429D01*
X4216Y-2433D01*
X4204D01*
X4201Y-2429D01*
X4187Y-2419D01*
X4170Y-2416D01*
X4153Y-2419D01*
X4139Y-2429D01*
X4136Y-2433D01*
X4124D01*
X4121Y-2429D01*
X4107Y-2419D01*
X4090Y-2416D01*
X4073Y-2419D01*
X4059Y-2429D01*
X4051D01*
X4037Y-2419D01*
X4020Y-2416D01*
X4003Y-2419D01*
X3989Y-2429D01*
X3979Y-2443D01*
X3976Y-2460D01*
X3979Y-2477D01*
X3989Y-2491D01*
X4003Y-2501D01*
X4020Y-2504D01*
X4037Y-2501D01*
X4051Y-2491D01*
X4059D01*
X4073Y-2501D01*
X4090Y-2504D01*
X4107Y-2501D01*
X4121Y-2491D01*
X4124Y-2487D01*
X4136D01*
X4139Y-2491D01*
X4153Y-2501D01*
X4170Y-2504D01*
X4187Y-2501D01*
X4201Y-2491D01*
X4204Y-2487D01*
X4216D01*
X4219Y-2491D01*
X4233Y-2501D01*
X4250Y-2504D01*
X4267Y-2501D01*
X4281Y-2491D01*
X4291Y-2477D01*
X4294Y-2460D01*
X4291Y-2443D01*
X4281Y-2429D01*
X4267Y-2419D01*
X4250Y-2416D01*
D02*
G37*
G36*
X1921Y-2151D02*
X1889Y-2154D01*
X1858Y-2164D01*
X1829Y-2179D01*
X1804Y-2200D01*
X1783Y-2225D01*
X1768Y-2254D01*
X1758Y-2285D01*
X1755Y-2317D01*
X1758Y-2349D01*
X1768Y-2380D01*
X1783Y-2409D01*
X1804Y-2434D01*
X1829Y-2455D01*
X1858Y-2470D01*
X1889Y-2480D01*
X1921Y-2483D01*
X1953Y-2480D01*
X1984Y-2470D01*
X2013Y-2455D01*
X2038Y-2434D01*
X2059Y-2409D01*
X2074Y-2380D01*
X2084Y-2349D01*
X2087Y-2317D01*
X2084Y-2285D01*
X2074Y-2254D01*
X2059Y-2225D01*
X2038Y-2200D01*
X2013Y-2179D01*
X1984Y-2164D01*
X1953Y-2154D01*
X1921Y-2151D01*
D02*
G37*
G36*
X4120Y-2606D02*
X4103Y-2609D01*
X4089Y-2619D01*
X4081D01*
X4067Y-2609D01*
X4050Y-2606D01*
X4033Y-2609D01*
X4019Y-2619D01*
X4009Y-2633D01*
X4006Y-2650D01*
X4009Y-2667D01*
X4019Y-2681D01*
X4033Y-2691D01*
X4050Y-2694D01*
X4067Y-2691D01*
X4081Y-2681D01*
X4089D01*
X4103Y-2691D01*
X4120Y-2694D01*
X4124Y-2693D01*
X4136Y-2700D01*
X4139Y-2717D01*
X4149Y-2731D01*
X4163Y-2741D01*
X4180Y-2744D01*
X4197Y-2741D01*
X4211Y-2731D01*
X4221Y-2717D01*
X4224Y-2700D01*
X4221Y-2683D01*
X4211Y-2669D01*
X4197Y-2659D01*
X4180Y-2656D01*
X4176Y-2657D01*
X4164Y-2650D01*
X4161Y-2633D01*
X4151Y-2619D01*
X4137Y-2609D01*
X4120Y-2606D01*
D02*
G37*
G36*
X2251Y-2536D02*
X2234Y-2539D01*
X2220Y-2549D01*
X2210Y-2563D01*
X2207Y-2580D01*
X2210Y-2597D01*
X2220Y-2611D01*
X2234Y-2621D01*
X2251Y-2624D01*
X2267Y-2621D01*
X2282Y-2611D01*
X2291Y-2597D01*
X2295Y-2580D01*
X2291Y-2563D01*
X2282Y-2549D01*
X2267Y-2539D01*
X2251Y-2536D01*
D02*
G37*
G36*
X1655Y-2556D02*
X1638Y-2559D01*
X1624Y-2568D01*
X1614Y-2583D01*
X1611Y-2600D01*
X1614Y-2616D01*
X1624Y-2631D01*
X1638Y-2640D01*
X1655Y-2644D01*
X1672Y-2640D01*
X1686Y-2631D01*
X1696Y-2616D01*
X1699Y-2600D01*
X1696Y-2583D01*
X1686Y-2568D01*
X1672Y-2559D01*
X1655Y-2556D01*
D02*
G37*
G36*
X3330Y-2446D02*
X3313Y-2449D01*
X3299Y-2459D01*
X3289Y-2473D01*
X3286Y-2490D01*
X3289Y-2507D01*
X3299Y-2521D01*
X3313Y-2531D01*
X3329Y-2534D01*
X3326Y-2550D01*
X3329Y-2567D01*
X3339Y-2581D01*
X3353Y-2591D01*
X3369Y-2594D01*
X3366Y-2610D01*
X3369Y-2627D01*
X3379Y-2641D01*
X3393Y-2651D01*
X3410Y-2654D01*
X3427Y-2651D01*
X3441Y-2641D01*
X3451Y-2627D01*
X3454Y-2610D01*
X3451Y-2593D01*
X3441Y-2579D01*
X3427Y-2569D01*
X3411Y-2566D01*
X3414Y-2550D01*
X3411Y-2533D01*
X3401Y-2519D01*
X3387Y-2509D01*
X3371Y-2506D01*
X3374Y-2490D01*
X3371Y-2473D01*
X3361Y-2459D01*
X3347Y-2449D01*
X3330Y-2446D01*
D02*
G37*
G36*
X1470Y-2566D02*
X1453Y-2569D01*
X1439Y-2579D01*
X1429Y-2593D01*
X1426Y-2610D01*
X1429Y-2627D01*
X1439Y-2641D01*
X1453Y-2651D01*
X1470Y-2654D01*
X1487Y-2651D01*
X1501Y-2641D01*
X1511Y-2627D01*
X1514Y-2610D01*
X1511Y-2593D01*
X1501Y-2579D01*
X1487Y-2569D01*
X1470Y-2566D01*
D02*
G37*
G36*
X3870Y-2596D02*
X3853Y-2599D01*
X3839Y-2609D01*
X3829Y-2623D01*
X3826Y-2640D01*
X3829Y-2657D01*
X3839Y-2671D01*
X3853Y-2681D01*
X3870Y-2684D01*
X3887Y-2681D01*
X3901Y-2671D01*
X3911Y-2657D01*
X3914Y-2640D01*
X3911Y-2623D01*
X3901Y-2609D01*
X3887Y-2599D01*
X3870Y-2596D01*
D02*
G37*
G36*
X2670D02*
X2653Y-2599D01*
X2639Y-2609D01*
X2629Y-2623D01*
X2626Y-2640D01*
X2629Y-2657D01*
X2639Y-2671D01*
X2653Y-2681D01*
X2670Y-2684D01*
X2687Y-2681D01*
X2701Y-2671D01*
X2711Y-2657D01*
X2714Y-2640D01*
X2711Y-2623D01*
X2701Y-2609D01*
X2687Y-2599D01*
X2670Y-2596D01*
D02*
G37*
G36*
X3650Y-2426D02*
X3633Y-2429D01*
X3619Y-2439D01*
X3609Y-2453D01*
X3606Y-2470D01*
X3609Y-2487D01*
X3619Y-2501D01*
X3633Y-2511D01*
X3649Y-2514D01*
X3646Y-2530D01*
X3649Y-2547D01*
X3659Y-2561D01*
X3673Y-2571D01*
X3689Y-2574D01*
X3686Y-2590D01*
X3689Y-2607D01*
X3699Y-2621D01*
X3713Y-2631D01*
X3729Y-2634D01*
X3726Y-2650D01*
X3729Y-2667D01*
X3739Y-2681D01*
X3753Y-2691D01*
X3770Y-2694D01*
X3787Y-2691D01*
X3801Y-2681D01*
X3811Y-2667D01*
X3814Y-2650D01*
X3811Y-2633D01*
X3801Y-2619D01*
X3787Y-2609D01*
X3771Y-2606D01*
X3774Y-2590D01*
X3771Y-2573D01*
X3761Y-2559D01*
X3747Y-2549D01*
X3731Y-2546D01*
X3734Y-2530D01*
X3731Y-2513D01*
X3721Y-2499D01*
X3707Y-2489D01*
X3691Y-2486D01*
X3694Y-2470D01*
X3691Y-2453D01*
X3681Y-2439D01*
X3667Y-2429D01*
X3650Y-2426D01*
D02*
G37*
G36*
X2890D02*
X2873Y-2429D01*
X2859Y-2439D01*
X2849Y-2453D01*
X2846Y-2470D01*
X2849Y-2486D01*
X2833Y-2489D01*
X2819Y-2499D01*
X2809Y-2513D01*
X2806Y-2530D01*
X2809Y-2546D01*
X2793Y-2549D01*
X2779Y-2559D01*
X2769Y-2573D01*
X2766Y-2590D01*
X2769Y-2606D01*
X2753Y-2609D01*
X2739Y-2619D01*
X2729Y-2633D01*
X2726Y-2650D01*
X2729Y-2667D01*
X2739Y-2681D01*
X2753Y-2691D01*
X2770Y-2694D01*
X2787Y-2691D01*
X2801Y-2681D01*
X2811Y-2667D01*
X2814Y-2650D01*
X2811Y-2634D01*
X2827Y-2631D01*
X2841Y-2621D01*
X2851Y-2607D01*
X2854Y-2590D01*
X2851Y-2574D01*
X2867Y-2571D01*
X2881Y-2561D01*
X2891Y-2547D01*
X2894Y-2530D01*
X2891Y-2514D01*
X2907Y-2511D01*
X2914Y-2506D01*
X2928Y-2512D01*
X2929Y-2517D01*
X2939Y-2531D01*
X2953Y-2541D01*
X2967Y-2543D01*
X2966Y-2550D01*
X2969Y-2567D01*
X2979Y-2581D01*
X2993Y-2591D01*
X3009Y-2594D01*
X3006Y-2610D01*
X3009Y-2627D01*
X3019Y-2641D01*
X3033Y-2651D01*
X3049Y-2654D01*
X3046Y-2670D01*
X3049Y-2687D01*
X3059Y-2701D01*
X3073Y-2711D01*
X3090Y-2714D01*
X3107Y-2711D01*
X3121Y-2701D01*
X3131Y-2687D01*
X3134Y-2670D01*
X3131Y-2653D01*
X3121Y-2639D01*
X3107Y-2629D01*
X3091Y-2626D01*
X3094Y-2610D01*
X3091Y-2593D01*
X3081Y-2579D01*
X3067Y-2569D01*
X3051Y-2566D01*
X3054Y-2550D01*
X3051Y-2533D01*
X3041Y-2519D01*
X3027Y-2509D01*
X3013Y-2507D01*
X3014Y-2500D01*
X3011Y-2483D01*
X3001Y-2469D01*
X2987Y-2459D01*
X2970Y-2456D01*
X2953Y-2459D01*
X2946Y-2464D01*
X2932Y-2458D01*
X2931Y-2453D01*
X2921Y-2439D01*
X2907Y-2429D01*
X2890Y-2426D01*
D02*
G37*
G36*
X4290Y-2648D02*
X4273Y-2651D01*
X4259Y-2661D01*
X4249Y-2675D01*
X4246Y-2692D01*
X4249Y-2709D01*
X4259Y-2723D01*
X4273Y-2733D01*
X4290Y-2736D01*
X4307Y-2733D01*
X4321Y-2723D01*
X4331Y-2709D01*
X4334Y-2692D01*
X4331Y-2675D01*
X4321Y-2661D01*
X4307Y-2651D01*
X4290Y-2648D01*
D02*
G37*
G36*
X2410Y-2702D02*
X2393Y-2705D01*
X2379Y-2715D01*
X2369Y-2729D01*
X2366Y-2746D01*
X2369Y-2763D01*
X2379Y-2777D01*
X2393Y-2787D01*
X2410Y-2790D01*
X2427Y-2787D01*
X2441Y-2777D01*
X2451Y-2763D01*
X2454Y-2746D01*
X2451Y-2729D01*
X2441Y-2715D01*
X2427Y-2705D01*
X2410Y-2702D01*
D02*
G37*
G36*
X1526Y-2745D02*
X1509Y-2748D01*
X1495Y-2757D01*
X1485Y-2772D01*
X1482Y-2789D01*
X1485Y-2805D01*
X1495Y-2820D01*
X1509Y-2829D01*
X1526Y-2833D01*
X1543Y-2829D01*
X1557Y-2820D01*
X1567Y-2805D01*
X1570Y-2789D01*
X1567Y-2772D01*
X1557Y-2757D01*
X1543Y-2748D01*
X1526Y-2745D01*
D02*
G37*
G36*
X2150Y-2796D02*
X2133Y-2799D01*
X2119Y-2809D01*
X2109Y-2823D01*
X2106Y-2840D01*
X2109Y-2857D01*
X2119Y-2871D01*
X2133Y-2881D01*
X2150Y-2884D01*
X2167Y-2881D01*
X2181Y-2871D01*
X2191Y-2857D01*
X2194Y-2840D01*
X2191Y-2823D01*
X2181Y-2809D01*
X2167Y-2799D01*
X2150Y-2796D01*
D02*
G37*
G36*
X4150Y-2826D02*
X4133Y-2829D01*
X4119Y-2839D01*
X4109Y-2853D01*
X4106Y-2870D01*
X4109Y-2887D01*
X4119Y-2901D01*
X4133Y-2911D01*
X4150Y-2914D01*
X4167Y-2911D01*
X4181Y-2901D01*
X4191Y-2887D01*
X4194Y-2870D01*
X4191Y-2853D01*
X4181Y-2839D01*
X4167Y-2829D01*
X4150Y-2826D01*
D02*
G37*
G36*
X3930Y-2876D02*
X3913Y-2879D01*
X3899Y-2889D01*
X3889Y-2903D01*
X3886Y-2920D01*
X3889Y-2937D01*
X3899Y-2951D01*
X3913Y-2961D01*
X3930Y-2964D01*
X3947Y-2961D01*
X3961Y-2951D01*
X3971Y-2937D01*
X3974Y-2920D01*
X3971Y-2903D01*
X3961Y-2889D01*
X3947Y-2879D01*
X3930Y-2876D01*
D02*
G37*
G36*
X3430D02*
X3413Y-2879D01*
X3399Y-2889D01*
X3389Y-2903D01*
X3386Y-2920D01*
X3389Y-2937D01*
X3399Y-2951D01*
X3413Y-2961D01*
X3430Y-2964D01*
X3447Y-2961D01*
X3461Y-2951D01*
X3471Y-2937D01*
X3474Y-2920D01*
X3471Y-2903D01*
X3461Y-2889D01*
X3447Y-2879D01*
X3430Y-2876D01*
D02*
G37*
G36*
X3110D02*
X3093Y-2879D01*
X3079Y-2889D01*
X3069Y-2903D01*
X3066Y-2920D01*
X3069Y-2937D01*
X3079Y-2951D01*
X3093Y-2961D01*
X3110Y-2964D01*
X3127Y-2961D01*
X3141Y-2951D01*
X3151Y-2937D01*
X3154Y-2920D01*
X3151Y-2903D01*
X3141Y-2889D01*
X3127Y-2879D01*
X3110Y-2876D01*
D02*
G37*
G36*
X2530D02*
X2513Y-2879D01*
X2499Y-2889D01*
X2489Y-2903D01*
X2486Y-2920D01*
X2489Y-2937D01*
X2499Y-2951D01*
X2513Y-2961D01*
X2530Y-2964D01*
X2547Y-2961D01*
X2561Y-2951D01*
X2571Y-2937D01*
X2574Y-2920D01*
X2571Y-2903D01*
X2561Y-2889D01*
X2547Y-2879D01*
X2530Y-2876D01*
D02*
G37*
G36*
X1175Y-2916D02*
X1158Y-2919D01*
X1144Y-2929D01*
X1134Y-2943D01*
X1131Y-2960D01*
X1134Y-2977D01*
X1144Y-2991D01*
X1158Y-3001D01*
X1175Y-3004D01*
X1192Y-3001D01*
X1206Y-2991D01*
X1216Y-2977D01*
X1219Y-2960D01*
X1216Y-2943D01*
X1206Y-2929D01*
X1192Y-2919D01*
X1175Y-2916D01*
D02*
G37*
G36*
X3510Y-2956D02*
X3493Y-2959D01*
X3479Y-2969D01*
X3469Y-2983D01*
X3466Y-3000D01*
X3469Y-3017D01*
X3479Y-3031D01*
X3493Y-3041D01*
X3510Y-3044D01*
X3527Y-3041D01*
X3541Y-3031D01*
X3551Y-3017D01*
X3554Y-3000D01*
X3551Y-2983D01*
X3541Y-2969D01*
X3527Y-2959D01*
X3510Y-2956D01*
D02*
G37*
G36*
X3030D02*
X3013Y-2959D01*
X2999Y-2969D01*
X2989Y-2983D01*
X2986Y-3000D01*
X2989Y-3017D01*
X2999Y-3031D01*
X3013Y-3041D01*
X3030Y-3044D01*
X3047Y-3041D01*
X3061Y-3031D01*
X3071Y-3017D01*
X3074Y-3000D01*
X3071Y-2983D01*
X3061Y-2969D01*
X3047Y-2959D01*
X3030Y-2956D01*
D02*
G37*
G36*
X3590Y-3036D02*
X3573Y-3039D01*
X3559Y-3049D01*
X3549Y-3063D01*
X3546Y-3080D01*
X3549Y-3097D01*
X3559Y-3111D01*
X3573Y-3121D01*
X3590Y-3124D01*
X3607Y-3121D01*
X3621Y-3111D01*
X3631Y-3097D01*
X3634Y-3080D01*
X3631Y-3063D01*
X3621Y-3049D01*
X3607Y-3039D01*
X3590Y-3036D01*
D02*
G37*
G36*
X2950D02*
X2933Y-3039D01*
X2919Y-3049D01*
X2909Y-3063D01*
X2906Y-3080D01*
X2909Y-3097D01*
X2919Y-3111D01*
X2933Y-3121D01*
X2950Y-3124D01*
X2967Y-3121D01*
X2981Y-3111D01*
X2991Y-3097D01*
X2994Y-3080D01*
X2991Y-3063D01*
X2981Y-3049D01*
X2967Y-3039D01*
X2950Y-3036D01*
D02*
G37*
G36*
X3430Y-3116D02*
X3413Y-3119D01*
X3399Y-3129D01*
X3389Y-3143D01*
X3386Y-3160D01*
X3389Y-3177D01*
X3399Y-3191D01*
X3413Y-3201D01*
X3430Y-3204D01*
X3447Y-3201D01*
X3461Y-3191D01*
X3471Y-3177D01*
X3474Y-3160D01*
X3471Y-3143D01*
X3461Y-3129D01*
X3447Y-3119D01*
X3430Y-3116D01*
D02*
G37*
G36*
X3270D02*
X3253Y-3119D01*
X3239Y-3129D01*
X3229Y-3143D01*
X3226Y-3160D01*
X3229Y-3177D01*
X3239Y-3191D01*
X3253Y-3201D01*
X3270Y-3204D01*
X3287Y-3201D01*
X3301Y-3191D01*
X3311Y-3177D01*
X3314Y-3160D01*
X3311Y-3143D01*
X3301Y-3129D01*
X3287Y-3119D01*
X3270Y-3116D01*
D02*
G37*
G36*
X3110D02*
X3093Y-3119D01*
X3079Y-3129D01*
X3069Y-3143D01*
X3066Y-3160D01*
X3069Y-3177D01*
X3079Y-3191D01*
X3093Y-3201D01*
X3110Y-3204D01*
X3127Y-3201D01*
X3141Y-3191D01*
X3151Y-3177D01*
X3154Y-3160D01*
X3151Y-3143D01*
X3141Y-3129D01*
X3127Y-3119D01*
X3110Y-3116D01*
D02*
G37*
G36*
X953Y-3170D02*
X936Y-3173D01*
X922Y-3183D01*
X912Y-3197D01*
X909Y-3214D01*
X912Y-3231D01*
X922Y-3245D01*
X936Y-3255D01*
X953Y-3258D01*
X970Y-3255D01*
X984Y-3245D01*
X994Y-3231D01*
X997Y-3214D01*
X994Y-3197D01*
X984Y-3183D01*
X970Y-3173D01*
X953Y-3170D01*
D02*
G37*
G36*
X4360Y-3186D02*
X4343Y-3189D01*
X4329Y-3199D01*
X4319Y-3213D01*
X4316Y-3230D01*
X4319Y-3247D01*
X4329Y-3261D01*
X4343Y-3271D01*
X4360Y-3274D01*
X4377Y-3271D01*
X4391Y-3261D01*
X4401Y-3247D01*
X4404Y-3230D01*
X4401Y-3213D01*
X4391Y-3199D01*
X4377Y-3189D01*
X4360Y-3186D01*
D02*
G37*
G36*
X2366Y-3192D02*
X2349Y-3195D01*
X2335Y-3205D01*
X2325Y-3219D01*
X2322Y-3236D01*
X2325Y-3253D01*
X2335Y-3267D01*
X2349Y-3277D01*
X2366Y-3280D01*
X2383Y-3277D01*
X2397Y-3267D01*
X2407Y-3253D01*
X2410Y-3236D01*
X2407Y-3219D01*
X2397Y-3205D01*
X2383Y-3195D01*
X2366Y-3192D01*
D02*
G37*
G36*
X3430Y-3276D02*
X3413Y-3279D01*
X3399Y-3289D01*
X3389Y-3303D01*
X3386Y-3320D01*
X3389Y-3337D01*
X3399Y-3351D01*
X3413Y-3361D01*
X3430Y-3364D01*
X3447Y-3361D01*
X3461Y-3351D01*
X3471Y-3337D01*
X3474Y-3320D01*
X3471Y-3303D01*
X3461Y-3289D01*
X3447Y-3279D01*
X3430Y-3276D01*
D02*
G37*
G36*
X3110D02*
X3093Y-3279D01*
X3079Y-3289D01*
X3069Y-3303D01*
X3066Y-3320D01*
X3069Y-3337D01*
X3079Y-3351D01*
X3093Y-3361D01*
X3110Y-3364D01*
X3127Y-3361D01*
X3141Y-3351D01*
X3151Y-3337D01*
X3154Y-3320D01*
X3151Y-3303D01*
X3141Y-3289D01*
X3127Y-3279D01*
X3110Y-3276D01*
D02*
G37*
G36*
X5894Y-3402D02*
X5877Y-3405D01*
X5863Y-3415D01*
X5853Y-3429D01*
X5850Y-3446D01*
X5853Y-3463D01*
X5863Y-3477D01*
X5877Y-3487D01*
X5894Y-3490D01*
X5911Y-3487D01*
X5925Y-3477D01*
X5935Y-3463D01*
X5938Y-3446D01*
X5935Y-3429D01*
X5925Y-3415D01*
X5911Y-3405D01*
X5894Y-3402D01*
D02*
G37*
G36*
X3430Y-3436D02*
X3413Y-3439D01*
X3399Y-3449D01*
X3389Y-3463D01*
X3386Y-3480D01*
X3389Y-3497D01*
X3399Y-3511D01*
X3413Y-3521D01*
X3430Y-3524D01*
X3447Y-3521D01*
X3461Y-3511D01*
X3471Y-3497D01*
X3474Y-3480D01*
X3471Y-3463D01*
X3461Y-3449D01*
X3447Y-3439D01*
X3430Y-3436D01*
D02*
G37*
G36*
X3270D02*
X3253Y-3439D01*
X3239Y-3449D01*
X3229Y-3463D01*
X3226Y-3480D01*
X3229Y-3497D01*
X3239Y-3511D01*
X3253Y-3521D01*
X3270Y-3524D01*
X3287Y-3521D01*
X3301Y-3511D01*
X3311Y-3497D01*
X3314Y-3480D01*
X3311Y-3463D01*
X3301Y-3449D01*
X3287Y-3439D01*
X3270Y-3436D01*
D02*
G37*
G36*
X3110D02*
X3093Y-3439D01*
X3079Y-3449D01*
X3069Y-3463D01*
X3066Y-3480D01*
X3069Y-3497D01*
X3079Y-3511D01*
X3093Y-3521D01*
X3110Y-3524D01*
X3127Y-3521D01*
X3141Y-3511D01*
X3151Y-3497D01*
X3154Y-3480D01*
X3151Y-3463D01*
X3141Y-3449D01*
X3127Y-3439D01*
X3110Y-3436D01*
D02*
G37*
G36*
X4700Y-3512D02*
X4683Y-3515D01*
X4669Y-3525D01*
X4659Y-3539D01*
X4656Y-3556D01*
X4659Y-3573D01*
X4669Y-3587D01*
X4683Y-3597D01*
X4700Y-3600D01*
X4717Y-3597D01*
X4731Y-3587D01*
X4741Y-3573D01*
X4744Y-3556D01*
X4741Y-3539D01*
X4731Y-3525D01*
X4717Y-3515D01*
X4700Y-3512D01*
D02*
G37*
G36*
X3590Y-3516D02*
X3573Y-3519D01*
X3559Y-3529D01*
X3549Y-3543D01*
X3546Y-3560D01*
X3549Y-3577D01*
X3559Y-3591D01*
X3573Y-3601D01*
X3590Y-3604D01*
X3607Y-3601D01*
X3621Y-3591D01*
X3631Y-3577D01*
X3634Y-3560D01*
X3631Y-3543D01*
X3621Y-3529D01*
X3607Y-3519D01*
X3590Y-3516D01*
D02*
G37*
G36*
X2950D02*
X2933Y-3519D01*
X2919Y-3529D01*
X2909Y-3543D01*
X2906Y-3560D01*
X2909Y-3577D01*
X2919Y-3591D01*
X2933Y-3601D01*
X2950Y-3604D01*
X2967Y-3601D01*
X2981Y-3591D01*
X2991Y-3577D01*
X2994Y-3560D01*
X2991Y-3543D01*
X2981Y-3529D01*
X2967Y-3519D01*
X2950Y-3516D01*
D02*
G37*
G36*
X3510Y-3596D02*
X3493Y-3599D01*
X3479Y-3609D01*
X3469Y-3623D01*
X3466Y-3640D01*
X3469Y-3657D01*
X3479Y-3671D01*
X3493Y-3681D01*
X3510Y-3684D01*
X3527Y-3681D01*
X3541Y-3671D01*
X3551Y-3657D01*
X3554Y-3640D01*
X3551Y-3623D01*
X3541Y-3609D01*
X3527Y-3599D01*
X3510Y-3596D01*
D02*
G37*
G36*
X3030D02*
X3013Y-3599D01*
X2999Y-3609D01*
X2989Y-3623D01*
X2986Y-3640D01*
X2989Y-3657D01*
X2999Y-3671D01*
X3013Y-3681D01*
X3030Y-3684D01*
X3047Y-3681D01*
X3061Y-3671D01*
X3071Y-3657D01*
X3074Y-3640D01*
X3071Y-3623D01*
X3061Y-3609D01*
X3047Y-3599D01*
X3030Y-3596D01*
D02*
G37*
G36*
X4650Y-3626D02*
X4633Y-3629D01*
X4619Y-3639D01*
X4609Y-3653D01*
X4606Y-3670D01*
X4609Y-3687D01*
X4619Y-3701D01*
X4633Y-3711D01*
X4650Y-3714D01*
X4667Y-3711D01*
X4681Y-3701D01*
X4691Y-3687D01*
X4694Y-3670D01*
X4691Y-3653D01*
X4681Y-3639D01*
X4667Y-3629D01*
X4650Y-3626D01*
D02*
G37*
G36*
X5226Y-3662D02*
X5209Y-3665D01*
X5195Y-3675D01*
X5185Y-3689D01*
X5182Y-3706D01*
X5185Y-3723D01*
X5195Y-3737D01*
X5209Y-3747D01*
X5226Y-3750D01*
X5243Y-3747D01*
X5257Y-3737D01*
X5267Y-3723D01*
X5270Y-3706D01*
X5267Y-3689D01*
X5257Y-3675D01*
X5243Y-3665D01*
X5226Y-3662D01*
D02*
G37*
G36*
X4340Y-3676D02*
X4323Y-3679D01*
X4309Y-3689D01*
X4299Y-3703D01*
X4296Y-3720D01*
X4299Y-3737D01*
X4309Y-3751D01*
X4323Y-3761D01*
X4340Y-3764D01*
X4357Y-3761D01*
X4371Y-3751D01*
X4381Y-3737D01*
X4384Y-3720D01*
X4381Y-3703D01*
X4371Y-3689D01*
X4357Y-3679D01*
X4340Y-3676D01*
D02*
G37*
G36*
X4810Y-3696D02*
X4793Y-3699D01*
X4779Y-3709D01*
X4769Y-3723D01*
X4766Y-3740D01*
X4769Y-3757D01*
X4779Y-3771D01*
X4793Y-3781D01*
X4810Y-3784D01*
X4827Y-3781D01*
X4841Y-3771D01*
X4851Y-3757D01*
X4854Y-3740D01*
X4851Y-3723D01*
X4841Y-3709D01*
X4827Y-3699D01*
X4810Y-3696D01*
D02*
G37*
G36*
X4650Y-3736D02*
X4633Y-3739D01*
X4619Y-3749D01*
X4609Y-3763D01*
X4606Y-3780D01*
X4609Y-3797D01*
X4619Y-3811D01*
X4633Y-3820D01*
X4650Y-3824D01*
X4667Y-3820D01*
X4681Y-3811D01*
X4691Y-3797D01*
X4694Y-3780D01*
X4691Y-3763D01*
X4681Y-3749D01*
X4667Y-3739D01*
X4650Y-3736D01*
D02*
G37*
G36*
X5890Y-3786D02*
X5873Y-3789D01*
X5859Y-3799D01*
X5849Y-3813D01*
X5846Y-3827D01*
X5834D01*
X5831Y-3813D01*
X5821Y-3799D01*
X5807Y-3789D01*
X5790Y-3786D01*
X5773Y-3789D01*
X5759Y-3799D01*
X5749Y-3813D01*
X5746Y-3830D01*
X5749Y-3847D01*
X5759Y-3861D01*
X5773Y-3871D01*
X5790Y-3874D01*
X5807Y-3871D01*
X5821Y-3861D01*
X5831Y-3847D01*
X5834Y-3833D01*
X5846D01*
X5849Y-3847D01*
X5859Y-3861D01*
X5873Y-3871D01*
X5890Y-3874D01*
X5907Y-3871D01*
X5921Y-3861D01*
X5931Y-3847D01*
X5934Y-3830D01*
X5931Y-3813D01*
X5921Y-3799D01*
X5907Y-3789D01*
X5890Y-3786D01*
D02*
G37*
G36*
X4740Y-3853D02*
X4723Y-3857D01*
X4709Y-3866D01*
X4704Y-3874D01*
X4689D01*
X4684Y-3866D01*
X4669Y-3857D01*
X4652Y-3853D01*
X4636Y-3857D01*
X4621Y-3866D01*
X4612Y-3881D01*
X4608Y-3897D01*
X4612Y-3914D01*
X4621Y-3929D01*
X4636Y-3938D01*
X4652Y-3942D01*
X4669Y-3938D01*
X4684Y-3929D01*
X4689Y-3921D01*
X4704D01*
X4709Y-3929D01*
X4723Y-3938D01*
X4740Y-3942D01*
X4757Y-3938D01*
X4771Y-3929D01*
X4781Y-3914D01*
X4784Y-3897D01*
X4781Y-3881D01*
X4771Y-3866D01*
X4757Y-3857D01*
X4740Y-3853D01*
D02*
G37*
G36*
X3940Y-3786D02*
X3923Y-3789D01*
X3909Y-3799D01*
X3899Y-3813D01*
X3896Y-3830D01*
X3899Y-3847D01*
X3909Y-3861D01*
X3923Y-3871D01*
X3940Y-3874D01*
X3957Y-3871D01*
X3971Y-3861D01*
X3981Y-3847D01*
X3984Y-3830D01*
X3981Y-3813D01*
X3971Y-3799D01*
X3957Y-3789D01*
X3940Y-3786D01*
D02*
G37*
G36*
X2406Y-3792D02*
X2389Y-3795D01*
X2375Y-3805D01*
X2365Y-3819D01*
X2362Y-3836D01*
X2365Y-3853D01*
X2375Y-3867D01*
X2389Y-3877D01*
X2406Y-3880D01*
X2423Y-3877D01*
X2437Y-3867D01*
X2447Y-3853D01*
X2450Y-3836D01*
X2447Y-3819D01*
X2437Y-3805D01*
X2423Y-3795D01*
X2406Y-3792D01*
D02*
G37*
G36*
X5700Y-3836D02*
X5683Y-3839D01*
X5669Y-3849D01*
X5659Y-3863D01*
X5656Y-3880D01*
X5659Y-3897D01*
X5669Y-3911D01*
X5683Y-3921D01*
X5700Y-3924D01*
X5717Y-3921D01*
X5731Y-3911D01*
X5741Y-3897D01*
X5744Y-3880D01*
X5741Y-3863D01*
X5731Y-3849D01*
X5717Y-3839D01*
X5700Y-3836D01*
D02*
G37*
G36*
X4370D02*
X4353Y-3839D01*
X4339Y-3849D01*
X4329Y-3863D01*
X4326Y-3880D01*
X4329Y-3897D01*
X4339Y-3911D01*
X4353Y-3921D01*
X4370Y-3924D01*
X4387Y-3921D01*
X4401Y-3911D01*
X4411Y-3897D01*
X4414Y-3880D01*
X4411Y-3863D01*
X4401Y-3849D01*
X4387Y-3839D01*
X4370Y-3836D01*
D02*
G37*
G36*
X3350Y-3946D02*
X3333Y-3949D01*
X3319Y-3959D01*
X3316Y-3963D01*
X3304D01*
X3301Y-3959D01*
X3287Y-3949D01*
X3270Y-3946D01*
X3253Y-3949D01*
X3239Y-3959D01*
X3229Y-3973D01*
X3226Y-3990D01*
X3229Y-4007D01*
X3239Y-4021D01*
X3253Y-4031D01*
X3270Y-4034D01*
X3287Y-4031D01*
X3301Y-4021D01*
X3304Y-4017D01*
X3316D01*
X3319Y-4021D01*
X3333Y-4031D01*
X3350Y-4034D01*
X3367Y-4031D01*
X3369Y-4035D01*
X3369Y-4037D01*
X3379Y-4051D01*
X3393Y-4061D01*
X3410Y-4064D01*
X3427Y-4061D01*
X3430Y-4058D01*
X3439Y-4071D01*
X3453Y-4081D01*
X3470Y-4084D01*
X3487Y-4081D01*
X3501Y-4071D01*
X3511Y-4057D01*
X3514Y-4040D01*
X3511Y-4023D01*
X3501Y-4009D01*
X3487Y-3999D01*
X3470Y-3996D01*
X3453Y-3999D01*
X3450Y-4002D01*
X3441Y-3989D01*
X3427Y-3979D01*
X3410Y-3976D01*
X3393Y-3979D01*
X3391Y-3975D01*
X3391Y-3973D01*
X3381Y-3959D01*
X3367Y-3949D01*
X3350Y-3946D01*
D02*
G37*
G36*
X3980Y-4026D02*
X3963Y-4029D01*
X3949Y-4039D01*
X3939Y-4053D01*
X3936Y-4070D01*
X3939Y-4087D01*
X3949Y-4101D01*
X3963Y-4111D01*
X3980Y-4114D01*
X3997Y-4111D01*
X4011Y-4101D01*
X4021Y-4087D01*
X4024Y-4070D01*
X4021Y-4053D01*
X4011Y-4039D01*
X3997Y-4029D01*
X3980Y-4026D01*
D02*
G37*
G36*
X1150Y-4116D02*
X1133Y-4119D01*
X1119Y-4129D01*
X1116Y-4133D01*
X1104D01*
X1101Y-4129D01*
X1087Y-4119D01*
X1070Y-4116D01*
X1053Y-4119D01*
X1039Y-4129D01*
X1029Y-4143D01*
X1026Y-4160D01*
X1029Y-4177D01*
X1039Y-4191D01*
X1053Y-4201D01*
X1070Y-4204D01*
X1087Y-4201D01*
X1101Y-4191D01*
X1104Y-4187D01*
X1116D01*
X1119Y-4191D01*
X1133Y-4201D01*
X1150Y-4204D01*
X1167Y-4201D01*
X1181Y-4191D01*
X1191Y-4177D01*
X1194Y-4160D01*
X1191Y-4143D01*
X1181Y-4129D01*
X1167Y-4119D01*
X1150Y-4116D01*
D02*
G37*
G36*
X1409Y-2870D02*
X1401Y-2872D01*
X1395Y-2876D01*
X1395Y-2876D01*
X645Y-3625D01*
X641Y-3632D01*
X639Y-3640D01*
X639Y-3640D01*
Y-4072D01*
X639Y-4072D01*
X639Y-4072D01*
X640Y-4076D01*
X641Y-4080D01*
X641Y-4080D01*
X641Y-4080D01*
X643Y-4083D01*
X645Y-4087D01*
X645Y-4087D01*
X645Y-4087D01*
X654Y-4096D01*
X654Y-4096D01*
X654Y-4096D01*
X658Y-4098D01*
X661Y-4100D01*
X661Y-4100D01*
X661Y-4100D01*
X665Y-4101D01*
X669Y-4102D01*
X669Y-4102D01*
X669Y-4102D01*
X1521Y-4100D01*
X1571Y-4150D01*
X1571Y-4150D01*
X1571Y-4150D01*
X1574Y-4152D01*
X1578Y-4155D01*
X1578Y-4155D01*
X1578Y-4155D01*
X1582Y-4155D01*
X1585Y-4156D01*
X1586Y-4156D01*
X1586Y-4156D01*
X1598Y-4156D01*
X1599Y-4156D01*
X1599Y-4156D01*
X1603Y-4155D01*
X1606Y-4154D01*
X1607Y-4154D01*
X1607Y-4154D01*
X1610Y-4152D01*
X1613Y-4150D01*
X1613Y-4150D01*
X1613Y-4149D01*
X1669Y-4090D01*
X2022Y-4091D01*
X2096Y-4165D01*
X2096Y-4165D01*
X2102Y-4169D01*
X2110Y-4171D01*
X2110Y-4171D01*
X2290D01*
X2298Y-4169D01*
X2305Y-4165D01*
X2305Y-4165D01*
X2425Y-4045D01*
X2429Y-4038D01*
X2431Y-4030D01*
X2431Y-4030D01*
Y-3950D01*
X2431Y-3950D01*
X2431Y-3949D01*
X2430Y-3946D01*
X2429Y-3942D01*
X2429Y-3942D01*
X2429Y-3941D01*
X2427Y-3938D01*
X2425Y-3935D01*
X2424Y-3935D01*
X2424Y-3935D01*
X2271Y-3792D01*
X2271Y-3180D01*
X2271Y-3180D01*
X2269Y-3172D01*
X2265Y-3165D01*
X2265Y-3165D01*
X1975Y-2876D01*
X1975Y-2876D01*
X1969Y-2872D01*
X1961Y-2870D01*
X1961Y-2870D01*
X1409Y-2870D01*
X1409Y-2870D01*
D02*
G37*
G36*
X4880Y-4036D02*
X4863Y-4039D01*
X4849Y-4049D01*
X4839Y-4063D01*
X4836Y-4080D01*
X4839Y-4097D01*
X4849Y-4111D01*
X4863Y-4121D01*
X4880Y-4124D01*
X4888Y-4122D01*
X4896Y-4134D01*
X4889Y-4143D01*
X4886Y-4160D01*
X4889Y-4177D01*
X4899Y-4191D01*
X4913Y-4201D01*
X4930Y-4204D01*
X4947Y-4201D01*
X4961Y-4191D01*
X4971Y-4177D01*
X4974Y-4160D01*
X4971Y-4143D01*
X4961Y-4129D01*
X4947Y-4119D01*
X4930Y-4116D01*
X4922Y-4118D01*
X4914Y-4106D01*
X4921Y-4097D01*
X4924Y-4080D01*
X4921Y-4063D01*
X4911Y-4049D01*
X4897Y-4039D01*
X4880Y-4036D01*
D02*
G37*
G36*
X2540Y-4166D02*
X2533Y-4167D01*
X2514Y-4174D01*
X2499Y-4186D01*
X2487Y-4202D01*
X2479Y-4220D01*
X2476Y-4240D01*
Y-4257D01*
X2540D01*
Y-4166D01*
D02*
G37*
G36*
X440D02*
X433Y-4167D01*
X414Y-4174D01*
X399Y-4186D01*
X387Y-4202D01*
X379Y-4220D01*
X376Y-4240D01*
Y-4257D01*
X440D01*
Y-4166D01*
D02*
G37*
G36*
X3460Y-4166D02*
Y-4257D01*
X3524D01*
Y-4240D01*
X3521Y-4220D01*
X3513Y-4202D01*
X3501Y-4186D01*
X3486Y-4174D01*
X3467Y-4167D01*
X3460Y-4166D01*
D02*
G37*
G36*
X1360D02*
Y-4257D01*
X1424D01*
Y-4240D01*
X1421Y-4220D01*
X1413Y-4202D01*
X1401Y-4186D01*
X1386Y-4174D01*
X1367Y-4167D01*
X1360Y-4166D01*
D02*
G37*
G36*
X4640Y-4166D02*
X4633Y-4167D01*
X4614Y-4174D01*
X4599Y-4186D01*
X4587Y-4202D01*
X4579Y-4220D01*
X4576Y-4240D01*
Y-4257D01*
X4640D01*
Y-4166D01*
D02*
G37*
G36*
X5560Y-4166D02*
Y-4257D01*
X5624D01*
Y-4240D01*
X5621Y-4220D01*
X5613Y-4202D01*
X5601Y-4186D01*
X5586Y-4174D01*
X5567Y-4167D01*
X5560Y-4166D01*
D02*
G37*
G36*
X5535Y-4166D02*
X5528Y-4167D01*
X5509Y-4174D01*
X5494Y-4186D01*
X5482Y-4202D01*
X5474Y-4220D01*
X5471Y-4240D01*
Y-4253D01*
X5459Y-4261D01*
X5445Y-4259D01*
X5425Y-4263D01*
X5409Y-4274D01*
X5398Y-4290D01*
X5394Y-4310D01*
X5398Y-4330D01*
X5409Y-4346D01*
X5418Y-4352D01*
X5414Y-4365D01*
X5395D01*
X5372Y-4369D01*
X5353Y-4382D01*
X5340Y-4401D01*
X5338Y-4411D01*
X5502D01*
X5500Y-4401D01*
X5487Y-4382D01*
X5468Y-4369D01*
X5466Y-4363D01*
X5466Y-4356D01*
X5481Y-4346D01*
X5488Y-4346D01*
X5494Y-4354D01*
X5509Y-4366D01*
X5528Y-4373D01*
X5535Y-4374D01*
Y-4270D01*
Y-4166D01*
D02*
G37*
G36*
X1335D02*
X1328Y-4167D01*
X1309Y-4174D01*
X1294Y-4186D01*
X1282Y-4202D01*
X1274Y-4220D01*
X1271Y-4240D01*
Y-4253D01*
X1259Y-4261D01*
X1245Y-4259D01*
X1225Y-4263D01*
X1209Y-4274D01*
X1198Y-4290D01*
X1194Y-4310D01*
X1198Y-4330D01*
X1209Y-4346D01*
X1218Y-4352D01*
X1214Y-4365D01*
X1195D01*
X1172Y-4369D01*
X1153Y-4382D01*
X1140Y-4401D01*
X1138Y-4411D01*
X1302D01*
X1300Y-4401D01*
X1287Y-4382D01*
X1268Y-4369D01*
X1266Y-4363D01*
X1266Y-4356D01*
X1281Y-4346D01*
X1288Y-4346D01*
X1294Y-4354D01*
X1309Y-4366D01*
X1328Y-4373D01*
X1335Y-4374D01*
Y-4270D01*
Y-4166D01*
D02*
G37*
G36*
X2800Y-4186D02*
X2783Y-4189D01*
X2769Y-4199D01*
X2759Y-4213D01*
X2756Y-4230D01*
X2759Y-4247D01*
X2769Y-4261D01*
X2783Y-4271D01*
X2800Y-4274D01*
X2817Y-4271D01*
X2831Y-4261D01*
X2841Y-4247D01*
X2844Y-4230D01*
X2841Y-4213D01*
X2831Y-4199D01*
X2817Y-4189D01*
X2800Y-4186D01*
D02*
G37*
G36*
X5851Y-4114D02*
X5827Y-4118D01*
X5804Y-4127D01*
X5785Y-4142D01*
X5770Y-4161D01*
X5760Y-4184D01*
X5757Y-4208D01*
X5760Y-4232D01*
X5770Y-4255D01*
X5785Y-4274D01*
X5804Y-4289D01*
X5827Y-4298D01*
X5851Y-4302D01*
X5875Y-4298D01*
X5898Y-4289D01*
X5917Y-4274D01*
X5932Y-4255D01*
X5941Y-4232D01*
X5944Y-4208D01*
X5941Y-4184D01*
X5932Y-4161D01*
X5917Y-4142D01*
X5898Y-4127D01*
X5875Y-4118D01*
X5851Y-4114D01*
D02*
G37*
G36*
X150Y-4116D02*
X126Y-4120D01*
X103Y-4129D01*
X84Y-4144D01*
X69Y-4163D01*
X60Y-4186D01*
X56Y-4210D01*
X60Y-4234D01*
X69Y-4257D01*
X84Y-4276D01*
X103Y-4291D01*
X126Y-4300D01*
X150Y-4304D01*
X174Y-4300D01*
X197Y-4291D01*
X216Y-4276D01*
X231Y-4257D01*
X240Y-4234D01*
X244Y-4210D01*
X240Y-4186D01*
X231Y-4163D01*
X216Y-4144D01*
X197Y-4129D01*
X174Y-4120D01*
X150Y-4116D01*
D02*
G37*
G36*
X5624Y-4283D02*
X5560D01*
Y-4374D01*
X5567Y-4373D01*
X5586Y-4366D01*
X5601Y-4354D01*
X5613Y-4338D01*
X5621Y-4320D01*
X5624Y-4300D01*
Y-4283D01*
D02*
G37*
G36*
X1424Y-4283D02*
X1360D01*
Y-4374D01*
X1367Y-4373D01*
X1386Y-4366D01*
X1401Y-4354D01*
X1413Y-4338D01*
X1421Y-4320D01*
X1424Y-4300D01*
Y-4283D01*
D02*
G37*
G36*
X3524Y-4283D02*
X3460D01*
Y-4374D01*
X3467Y-4373D01*
X3486Y-4366D01*
X3501Y-4354D01*
X3513Y-4338D01*
X3521Y-4320D01*
X3524Y-4300D01*
Y-4283D01*
D02*
G37*
G36*
X2540Y-4283D02*
X2476D01*
Y-4300D01*
X2479Y-4320D01*
X2487Y-4338D01*
X2499Y-4354D01*
X2514Y-4366D01*
X2533Y-4373D01*
X2540Y-4374D01*
Y-4283D01*
D02*
G37*
G36*
X440Y-4283D02*
X376D01*
Y-4300D01*
X379Y-4320D01*
X387Y-4338D01*
X399Y-4354D01*
X414Y-4366D01*
X433Y-4373D01*
X440Y-4374D01*
Y-4283D01*
D02*
G37*
G36*
X4640Y-4283D02*
X4576D01*
Y-4300D01*
X4579Y-4320D01*
X4587Y-4338D01*
X4599Y-4354D01*
X4614Y-4366D01*
X4633Y-4373D01*
X4640Y-4374D01*
Y-4283D01*
D02*
G37*
G36*
X465Y-4166D02*
Y-4270D01*
Y-4374D01*
X472Y-4373D01*
X491Y-4366D01*
X506Y-4354D01*
X512Y-4346D01*
X519Y-4346D01*
X534Y-4356D01*
X534Y-4363D01*
X532Y-4369D01*
X513Y-4382D01*
X500Y-4401D01*
X498Y-4411D01*
X580D01*
X662D01*
X660Y-4401D01*
X647Y-4382D01*
X628Y-4369D01*
X605Y-4365D01*
X586D01*
X582Y-4352D01*
X591Y-4346D01*
X602Y-4330D01*
X606Y-4310D01*
X602Y-4290D01*
X591Y-4274D01*
X575Y-4263D01*
X555Y-4259D01*
X541Y-4261D01*
X529Y-4253D01*
Y-4240D01*
X526Y-4220D01*
X518Y-4202D01*
X506Y-4186D01*
X491Y-4174D01*
X472Y-4167D01*
X465Y-4166D01*
D02*
G37*
G36*
X4665D02*
Y-4270D01*
Y-4374D01*
X4672Y-4373D01*
X4691Y-4366D01*
X4706Y-4354D01*
X4712Y-4346D01*
X4719Y-4346D01*
X4734Y-4356D01*
X4734Y-4363D01*
X4732Y-4369D01*
X4713Y-4382D01*
X4700Y-4401D01*
X4698Y-4411D01*
X4780D01*
X4862D01*
X4860Y-4401D01*
X4847Y-4382D01*
X4828Y-4369D01*
X4805Y-4365D01*
X4786D01*
X4782Y-4352D01*
X4791Y-4346D01*
X4802Y-4330D01*
X4806Y-4310D01*
X4802Y-4290D01*
X4791Y-4274D01*
X4775Y-4263D01*
X4755Y-4259D01*
X4741Y-4261D01*
X4729Y-4253D01*
Y-4240D01*
X4726Y-4220D01*
X4718Y-4202D01*
X4706Y-4186D01*
X4691Y-4174D01*
X4672Y-4167D01*
X4665Y-4166D01*
D02*
G37*
G36*
X5502Y-4437D02*
X5433D01*
Y-4483D01*
X5445D01*
X5468Y-4479D01*
X5487Y-4466D01*
X5500Y-4447D01*
X5502Y-4437D01*
D02*
G37*
G36*
X4767Y-4437D02*
X4698D01*
X4700Y-4447D01*
X4713Y-4466D01*
X4732Y-4479D01*
X4755Y-4483D01*
X4767D01*
Y-4437D01*
D02*
G37*
G36*
X1302Y-4437D02*
X1233D01*
Y-4483D01*
X1245D01*
X1268Y-4479D01*
X1287Y-4466D01*
X1300Y-4447D01*
X1302Y-4437D01*
D02*
G37*
G36*
X567Y-4437D02*
X498D01*
X500Y-4447D01*
X513Y-4466D01*
X532Y-4479D01*
X555Y-4483D01*
X567D01*
Y-4437D01*
D02*
G37*
G36*
X3620Y-4352D02*
Y-4491D01*
X3684D01*
Y-4426D01*
X3681Y-4406D01*
X3673Y-4388D01*
X3661Y-4372D01*
X3646Y-4360D01*
X3627Y-4353D01*
X3620Y-4352D01*
D02*
G37*
G36*
X2405D02*
Y-4491D01*
X2469D01*
Y-4426D01*
X2466Y-4406D01*
X2458Y-4388D01*
X2446Y-4372D01*
X2431Y-4360D01*
X2412Y-4353D01*
X2405Y-4352D01*
D02*
G37*
G36*
X3595Y-4352D02*
X3588Y-4353D01*
X3569Y-4360D01*
X3554Y-4372D01*
X3542Y-4388D01*
X3534Y-4406D01*
X3531Y-4426D01*
Y-4491D01*
X3595D01*
Y-4352D01*
D02*
G37*
G36*
X2380D02*
X2373Y-4353D01*
X2354Y-4360D01*
X2339Y-4372D01*
X2327Y-4388D01*
X2319Y-4406D01*
X2316Y-4426D01*
Y-4491D01*
X2380D01*
Y-4352D01*
D02*
G37*
G36*
X1520Y-4352D02*
Y-4491D01*
X1584D01*
Y-4426D01*
X1581Y-4406D01*
X1573Y-4388D01*
X1561Y-4372D01*
X1546Y-4360D01*
X1527Y-4353D01*
X1520Y-4352D01*
D02*
G37*
G36*
X305D02*
Y-4491D01*
X369D01*
Y-4426D01*
X366Y-4406D01*
X358Y-4388D01*
X346Y-4372D01*
X331Y-4360D01*
X312Y-4353D01*
X305Y-4352D01*
D02*
G37*
G36*
X1495Y-4352D02*
X1488Y-4353D01*
X1469Y-4360D01*
X1454Y-4372D01*
X1442Y-4388D01*
X1434Y-4406D01*
X1431Y-4426D01*
Y-4491D01*
X1495D01*
Y-4352D01*
D02*
G37*
G36*
X280D02*
X273Y-4353D01*
X254Y-4360D01*
X239Y-4372D01*
X227Y-4388D01*
X219Y-4406D01*
X216Y-4426D01*
Y-4491D01*
X280D01*
Y-4352D01*
D02*
G37*
G36*
X5720D02*
Y-4491D01*
X5784D01*
Y-4426D01*
X5781Y-4406D01*
X5773Y-4388D01*
X5761Y-4372D01*
X5746Y-4360D01*
X5727Y-4353D01*
X5720Y-4352D01*
D02*
G37*
G36*
X4505D02*
Y-4491D01*
X4569D01*
Y-4426D01*
X4566Y-4406D01*
X4558Y-4388D01*
X4546Y-4372D01*
X4531Y-4360D01*
X4512Y-4353D01*
X4505Y-4352D01*
D02*
G37*
G36*
X5695Y-4352D02*
X5688Y-4353D01*
X5669Y-4360D01*
X5654Y-4372D01*
X5642Y-4388D01*
X5634Y-4406D01*
X5631Y-4426D01*
Y-4491D01*
X5695D01*
Y-4352D01*
D02*
G37*
G36*
X4480D02*
X4473Y-4353D01*
X4454Y-4360D01*
X4439Y-4372D01*
X4427Y-4388D01*
X4419Y-4406D01*
X4416Y-4426D01*
Y-4491D01*
X4480D01*
Y-4352D01*
D02*
G37*
G36*
X2010Y-4416D02*
X1993Y-4419D01*
X1979Y-4429D01*
X1969Y-4443D01*
X1966Y-4460D01*
X1969Y-4477D01*
X1979Y-4491D01*
X1993Y-4501D01*
X2010Y-4504D01*
X2027Y-4501D01*
X2041Y-4491D01*
X2051Y-4477D01*
X2054Y-4460D01*
X2051Y-4443D01*
X2041Y-4429D01*
X2027Y-4419D01*
X2010Y-4416D01*
D02*
G37*
G36*
X4090Y-4536D02*
X4073Y-4539D01*
X4059Y-4549D01*
X4049Y-4563D01*
X4046Y-4580D01*
X4049Y-4597D01*
X4059Y-4611D01*
X4073Y-4621D01*
X4090Y-4624D01*
X4107Y-4621D01*
X4121Y-4611D01*
X4131Y-4597D01*
X4134Y-4580D01*
X4131Y-4563D01*
X4121Y-4549D01*
X4107Y-4539D01*
X4090Y-4536D01*
D02*
G37*
G36*
X5784Y-4517D02*
X5720D01*
Y-4656D01*
X5727Y-4655D01*
X5746Y-4648D01*
X5761Y-4636D01*
X5773Y-4620D01*
X5781Y-4602D01*
X5784Y-4582D01*
Y-4517D01*
D02*
G37*
G36*
X2380Y-4517D02*
X2316D01*
Y-4582D01*
X2319Y-4602D01*
X2327Y-4620D01*
X2339Y-4636D01*
X2354Y-4648D01*
X2373Y-4655D01*
X2380Y-4656D01*
Y-4517D01*
D02*
G37*
G36*
X280Y-4517D02*
X216D01*
Y-4582D01*
X219Y-4602D01*
X227Y-4620D01*
X239Y-4636D01*
X254Y-4648D01*
X273Y-4655D01*
X280Y-4656D01*
Y-4517D01*
D02*
G37*
G36*
X1584D02*
X1520D01*
Y-4656D01*
X1527Y-4655D01*
X1546Y-4648D01*
X1561Y-4636D01*
X1573Y-4620D01*
X1581Y-4602D01*
X1584Y-4582D01*
Y-4517D01*
D02*
G37*
G36*
X3684Y-4517D02*
X3620D01*
Y-4656D01*
X3627Y-4655D01*
X3646Y-4648D01*
X3661Y-4636D01*
X3673Y-4620D01*
X3681Y-4602D01*
X3684Y-4582D01*
Y-4517D01*
D02*
G37*
G36*
X4480Y-4517D02*
X4416D01*
Y-4582D01*
X4419Y-4602D01*
X4427Y-4620D01*
X4439Y-4636D01*
X4454Y-4648D01*
X4473Y-4655D01*
X4480Y-4656D01*
Y-4517D01*
D02*
G37*
G36*
X2380Y-4728D02*
X2373Y-4729D01*
X2354Y-4736D01*
X2339Y-4748D01*
X2327Y-4764D01*
X2319Y-4782D01*
X2316Y-4802D01*
Y-4867D01*
X2380D01*
Y-4728D01*
D02*
G37*
G36*
X280D02*
X273Y-4729D01*
X254Y-4736D01*
X239Y-4748D01*
X227Y-4764D01*
X219Y-4782D01*
X216Y-4802D01*
Y-4867D01*
X280D01*
Y-4728D01*
D02*
G37*
G36*
X4480D02*
X4473Y-4729D01*
X4454Y-4736D01*
X4439Y-4748D01*
X4427Y-4764D01*
X4419Y-4782D01*
X4416Y-4802D01*
Y-4867D01*
X4480D01*
Y-4728D01*
D02*
G37*
G36*
X3620Y-4738D02*
Y-4877D01*
X3684D01*
Y-4812D01*
X3681Y-4792D01*
X3673Y-4774D01*
X3661Y-4758D01*
X3646Y-4746D01*
X3627Y-4739D01*
X3620Y-4738D01*
D02*
G37*
G36*
X1520D02*
Y-4877D01*
X1584D01*
Y-4812D01*
X1581Y-4792D01*
X1573Y-4774D01*
X1561Y-4758D01*
X1546Y-4746D01*
X1527Y-4739D01*
X1520Y-4738D01*
D02*
G37*
G36*
X5720D02*
Y-4877D01*
X5784D01*
Y-4812D01*
X5781Y-4792D01*
X5773Y-4774D01*
X5761Y-4758D01*
X5746Y-4746D01*
X5727Y-4739D01*
X5720Y-4738D01*
D02*
G37*
G36*
X2380Y-4893D02*
X2316D01*
Y-4958D01*
X2319Y-4978D01*
X2327Y-4996D01*
X2339Y-5012D01*
X2354Y-5024D01*
X2373Y-5031D01*
X2380Y-5032D01*
Y-4893D01*
D02*
G37*
G36*
X280Y-4893D02*
X216D01*
Y-4958D01*
X219Y-4978D01*
X227Y-4996D01*
X239Y-5012D01*
X254Y-5024D01*
X273Y-5031D01*
X280Y-5032D01*
Y-4893D01*
D02*
G37*
G36*
X4480Y-4893D02*
X4416D01*
Y-4958D01*
X4419Y-4978D01*
X4427Y-4996D01*
X4439Y-5012D01*
X4454Y-5024D01*
X4473Y-5031D01*
X4480Y-5032D01*
Y-4893D01*
D02*
G37*
G36*
X5784Y-4903D02*
X5720D01*
Y-5042D01*
X5727Y-5041D01*
X5746Y-5034D01*
X5761Y-5022D01*
X5773Y-5006D01*
X5781Y-4988D01*
X5784Y-4968D01*
Y-4903D01*
D02*
G37*
G36*
X1584Y-4903D02*
X1520D01*
Y-5042D01*
X1527Y-5041D01*
X1546Y-5034D01*
X1561Y-5022D01*
X1573Y-5006D01*
X1581Y-4988D01*
X1584Y-4968D01*
Y-4903D01*
D02*
G37*
G36*
X3684Y-4903D02*
X3620D01*
Y-5042D01*
X3627Y-5041D01*
X3646Y-5034D01*
X3661Y-5022D01*
X3673Y-5006D01*
X3681Y-4988D01*
X3684Y-4968D01*
Y-4903D01*
D02*
G37*
%LPD*%
G36*
X1961Y-2891D02*
X2250Y-3180D01*
X2250Y-3801D01*
X2410Y-3950D01*
Y-4030D01*
X2290Y-4150D01*
X2110D01*
X2030Y-4070D01*
X1660Y-4070D01*
X1598Y-4135D01*
X1585Y-4135D01*
X1530Y-4080D01*
X669Y-4081D01*
X660Y-4072D01*
Y-3640D01*
X1409Y-2891D01*
X1961Y-2891D01*
D02*
G37*
%LPC*%
G36*
X1600Y-3108D02*
X1583Y-3112D01*
X1569Y-3121D01*
X1559Y-3136D01*
X1556Y-3152D01*
X1559Y-3169D01*
X1569Y-3184D01*
X1583Y-3193D01*
X1600Y-3196D01*
X1617Y-3193D01*
X1631Y-3184D01*
X1641Y-3169D01*
X1644Y-3152D01*
X1641Y-3136D01*
X1631Y-3121D01*
X1617Y-3112D01*
X1600Y-3108D01*
D02*
G37*
G36*
X1470Y-3306D02*
X1453Y-3309D01*
X1439Y-3319D01*
X1429Y-3333D01*
X1426Y-3350D01*
X1429Y-3367D01*
X1439Y-3381D01*
X1453Y-3391D01*
X1470Y-3394D01*
X1487Y-3391D01*
X1501Y-3381D01*
X1511Y-3367D01*
X1514Y-3350D01*
X1511Y-3333D01*
X1501Y-3319D01*
X1487Y-3309D01*
X1470Y-3306D01*
D02*
G37*
G36*
X1260Y-3416D02*
X1243Y-3419D01*
X1229Y-3429D01*
X1219Y-3443D01*
X1216Y-3460D01*
X1219Y-3477D01*
X1229Y-3491D01*
X1233Y-3494D01*
Y-3506D01*
X1229Y-3509D01*
X1219Y-3523D01*
X1216Y-3540D01*
X1219Y-3557D01*
X1229Y-3571D01*
X1243Y-3581D01*
X1260Y-3584D01*
X1277Y-3581D01*
X1291Y-3571D01*
X1301Y-3557D01*
X1304Y-3540D01*
X1301Y-3523D01*
X1291Y-3509D01*
X1287Y-3506D01*
Y-3494D01*
X1291Y-3491D01*
X1301Y-3477D01*
X1304Y-3460D01*
X1301Y-3443D01*
X1291Y-3429D01*
X1277Y-3419D01*
X1260Y-3416D01*
D02*
G37*
G36*
Y-3716D02*
X1243Y-3719D01*
X1229Y-3729D01*
X1219Y-3743D01*
X1216Y-3760D01*
X1219Y-3777D01*
X1229Y-3791D01*
Y-3799D01*
X1219Y-3813D01*
X1216Y-3830D01*
X1219Y-3847D01*
X1229Y-3861D01*
X1243Y-3871D01*
X1260Y-3874D01*
X1277Y-3871D01*
X1291Y-3861D01*
X1301Y-3847D01*
X1304Y-3830D01*
X1301Y-3813D01*
X1291Y-3799D01*
Y-3791D01*
X1301Y-3777D01*
X1304Y-3760D01*
X1301Y-3743D01*
X1291Y-3729D01*
X1277Y-3719D01*
X1260Y-3716D01*
D02*
G37*
G36*
X2110Y-3996D02*
X2093Y-3999D01*
X2079Y-4009D01*
X2069Y-4023D01*
X2066Y-4040D01*
X2069Y-4057D01*
X2079Y-4071D01*
X2093Y-4081D01*
X2110Y-4084D01*
X2127Y-4081D01*
X2141Y-4071D01*
X2151Y-4057D01*
X2154Y-4040D01*
X2151Y-4023D01*
X2141Y-4009D01*
X2127Y-3999D01*
X2110Y-3996D01*
D02*
G37*
%LPD*%
D138*
X1220Y-4424D02*
D03*
X580D02*
D03*
X4780D02*
D03*
X5420D02*
D03*
D140*
X453Y-4270D02*
D03*
X1348D02*
D03*
X3447D02*
D03*
X2552D02*
D03*
X5547D02*
D03*
X4652D02*
D03*
D141*
X1507Y-4504D02*
D03*
X292D02*
D03*
X1507Y-4890D02*
D03*
X292Y-4880D02*
D03*
X2392D02*
D03*
X3607Y-4890D02*
D03*
X2392Y-4504D02*
D03*
X3607D02*
D03*
X4492Y-4880D02*
D03*
X5707Y-4890D02*
D03*
X4492Y-4504D02*
D03*
X5707D02*
D03*
D142*
X530Y-123D02*
D03*
X1190D02*
D03*
X2290Y-125D02*
D03*
X1630D02*
D03*
D144*
X690Y-4050D02*
D03*
X5791Y-3610D02*
D03*
X5015Y-3355D02*
D03*
X4387Y-3320D02*
D03*
X4835Y-3355D02*
D03*
X4839Y-2920D02*
D03*
X5130D02*
D03*
X2107Y-2920D02*
D03*
X2163Y-2580D02*
D03*
X1280Y-2810D02*
D03*
X1474Y-2949D02*
D03*
X1600Y-3064D02*
D03*
X953Y-3010D02*
D03*
X1610Y-2500D02*
D03*
X970Y-2350D02*
D03*
Y-2150D02*
D03*
X1218D02*
D03*
X1870Y-3000D02*
D03*
X1567Y-1870D02*
D03*
X610Y-1770D02*
D03*
X610Y-1970D02*
D03*
X1318Y-2150D02*
D03*
X2290Y-4100D02*
D03*
X2010Y-4124D02*
D03*
X100Y-3600D02*
D03*
Y-2590D02*
D03*
X2370Y-4030D02*
D03*
X2460Y-4190D02*
D03*
X2338Y-4340D02*
D03*
X1350Y-3350D02*
D03*
X4215Y-3465D02*
D03*
X3830Y-2760D02*
D03*
X-340Y-1860D02*
D03*
X-220D02*
D03*
X-100D02*
D03*
X20D02*
D03*
X-280Y-1920D02*
D03*
X-160D02*
D03*
X-40D02*
D03*
X-280Y-1800D02*
D03*
X-160D02*
D03*
X-40D02*
D03*
X2086Y-2701D02*
D03*
X1524D02*
D03*
X5040Y-1880D02*
D03*
X5514Y-2066D02*
D03*
X3190Y-1990D02*
D03*
X3010Y-2200D02*
D03*
X2730Y-2260D02*
D03*
X5425Y-1555D02*
D03*
X4405D02*
D03*
X5110Y-1550D02*
D03*
X5153Y-1833D02*
D03*
X2850Y-500D02*
D03*
X2670Y-300D02*
D03*
X3070D02*
D03*
X4060Y-230D02*
D03*
X3670D02*
D03*
X3390D02*
D03*
X2590D02*
D03*
X2710D02*
D03*
X2990D02*
D03*
X20Y-1800D02*
D03*
X-100Y-1920D02*
D03*
Y-1800D02*
D03*
X-160Y-1860D02*
D03*
X20Y-1920D02*
D03*
X-40Y-1860D02*
D03*
X-220Y-1920D02*
D03*
Y-1800D02*
D03*
X-280Y-1860D02*
D03*
X-340Y-1920D02*
D03*
Y-1800D02*
D03*
X3470Y-1990D02*
D03*
X4190Y-2260D02*
D03*
X4070D02*
D03*
X3990D02*
D03*
X3870D02*
D03*
X3670D02*
D03*
X3710Y-2190D02*
D03*
X3590Y-2190D02*
D03*
X3550Y-2260D02*
D03*
X3310D02*
D03*
X2510D02*
D03*
X2670Y-2190D02*
D03*
X2510D02*
D03*
X5226Y-3794D02*
D03*
X3840Y-4010D02*
D03*
X4290D02*
D03*
X2320Y-490D02*
D03*
X2150Y-510D02*
D03*
X2320Y-820D02*
D03*
X2030Y-780D02*
D03*
X1840Y-640D02*
D03*
X2320Y-1150D02*
D03*
X3270Y-3240D02*
D03*
X3350Y-3320D02*
D03*
X3270Y-3400D02*
D03*
X3190Y-3320D02*
D03*
X3510Y-3080D02*
D03*
Y-3560D02*
D03*
X3670Y-3720D02*
D03*
Y-2920D02*
D03*
X3830Y-3880D02*
D03*
X3030Y-3480D02*
D03*
X3110Y-3080D02*
D03*
X3510Y-3160D02*
D03*
X3430Y-3560D02*
D03*
X3270Y-3720D02*
D03*
X3670Y-3320D02*
D03*
X3270Y-2920D02*
D03*
X752Y-638D02*
D03*
X4780Y-4190D02*
D03*
X5000Y-4190D02*
D03*
X5200D02*
D03*
X5420D02*
D03*
X580Y-4190D02*
D03*
X800Y-4190D02*
D03*
X1220D02*
D03*
X3320Y-4190D02*
D03*
X3986Y-2746D02*
D03*
X1990Y-1150D02*
D03*
X1730D02*
D03*
X2406Y-2656D02*
D03*
X2460Y-540D02*
D03*
X770Y-1190D02*
D03*
X900D02*
D03*
X1390Y-730D02*
D03*
X1550Y-740D02*
D03*
X1460Y-830D02*
D03*
X1570Y-1170D02*
D03*
X1380D02*
D03*
X1680Y-1330D02*
D03*
X1380D02*
D03*
X1100D02*
D03*
Y-1170D02*
D03*
X1620Y-1620D02*
D03*
X710Y-500D02*
D03*
X630D02*
D03*
X550D02*
D03*
X1980Y-3550D02*
D03*
X880Y-3670D02*
D03*
X1010Y-3560D02*
D03*
X3100Y-4190D02*
D03*
X710Y-3720D02*
D03*
X1900Y-3990D02*
D03*
X1590Y-4100D02*
D03*
X1260Y-3680D02*
D03*
X2870Y-2920D02*
D03*
X2870Y-3320D02*
D03*
X1980Y-3350D02*
D03*
X1780Y-3550D02*
D03*
Y-3450D02*
D03*
X1880Y-3550D02*
D03*
Y-3350D02*
D03*
X1780Y-3350D02*
D03*
X2980Y-4010D02*
D03*
X2366Y-3324D02*
D03*
X2556Y-3924D02*
D03*
X1030Y-3990D02*
D03*
X1490D02*
D03*
X1010Y-3440D02*
D03*
X2900Y-4190D02*
D03*
X2680D02*
D03*
X1000D02*
D03*
X2710Y-2760D02*
D03*
Y-3880D02*
D03*
X2870Y-3720D02*
D03*
X3030Y-3560D02*
D03*
Y-3080D02*
D03*
X1880Y-3450D02*
D03*
X2020Y-4840D02*
D03*
X2140Y-4380D02*
D03*
X1260Y-4040D02*
D03*
Y-3610D02*
D03*
X1980Y-3450D02*
D03*
X4340Y-1770D02*
D03*
X4690Y-1990D02*
D03*
X4350Y-140D02*
D03*
X5430Y-190D02*
D03*
X5520Y-1120D02*
D03*
X3330Y-1180D02*
D03*
X3586Y-1144D02*
D03*
X3586Y-1364D02*
D03*
M02*
