G04*
G04 #@! TF.GenerationSoftware,Altium Limited,Altium Designer,19.0.15 (446)*
G04*
G04 Layer_Color=8421504*
%FSLAX42Y42*%
%MOMM*%
G71*
G01*
G75*
%ADD21R,0.29X0.53*%
%ADD22R,0.65X0.27*%
%ADD23R,0.65X0.25*%
%ADD24R,0.90X1.00*%
%ADD25R,0.60X0.64*%
%ADD26R,0.75X0.60*%
%ADD27R,0.64X0.60*%
%ADD28R,0.95X0.85*%
%ADD29R,0.80X1.00*%
%ADD30R,1.50X0.70*%
%ADD31R,0.60X0.75*%
%ADD32R,0.30X0.60*%
%ADD33R,0.25X0.68*%
%ADD34R,0.68X0.25*%
%ADD35R,0.60X1.10*%
%ADD36R,0.60X1.50*%
%ADD37R,0.85X0.65*%
%ADD38R,2.00X0.60*%
%ADD39R,4.20X0.70*%
%ADD40R,0.30X0.52*%
%ADD41C,0.40*%
%ADD42R,1.90X1.80*%
G04:AMPARAMS|DCode=43|XSize=1.6mm|YSize=1.4mm|CornerRadius=0.35mm|HoleSize=0mm|Usage=FLASHONLY|Rotation=180.000|XOffset=0mm|YOffset=0mm|HoleType=Round|Shape=RoundedRectangle|*
%AMROUNDEDRECTD43*
21,1,1.60,0.70,0,0,180.0*
21,1,0.90,1.40,0,0,180.0*
1,1,0.70,-0.45,0.35*
1,1,0.70,0.45,0.35*
1,1,0.70,0.45,-0.35*
1,1,0.70,-0.45,-0.35*
%
%ADD43ROUNDEDRECTD43*%
%ADD44O,0.40X1.35*%
%ADD45R,1.05X1.40*%
%ADD46R,1.00X0.90*%
%ADD47R,0.70X1.20*%
%ADD48R,1.00X1.20*%
%ADD49R,1.00X0.80*%
%ADD50R,1.00X2.80*%
%ADD51R,1.30X1.90*%
%ADD52R,0.80X0.80*%
%ADD53R,0.65X0.95*%
%ADD54R,0.85X0.25*%
%ADD55R,1.58X2.48*%
%ADD56R,1.00X1.00*%
%ADD57R,1.00X1.00*%
%ADD58R,4.06X1.91*%
%ADD59R,1.10X1.20*%
%ADD60R,0.30X0.91*%
%ADD61R,0.91X0.30*%
%ADD62R,3.25X3.25*%
%ADD63R,1.40X1.30*%
%ADD64R,1.30X1.40*%
%ADD65R,2.50X1.25*%
D21*
X5909Y-4067D02*
D03*
X5850D02*
D03*
X5791D02*
D03*
X90Y-4069D02*
D03*
X150D02*
D03*
X209D02*
D03*
D22*
X3430Y-675D02*
D03*
Y-925D02*
D03*
D23*
Y-725D02*
D03*
X3180Y-750D02*
D03*
X3430Y-775D02*
D03*
X3180Y-800D02*
D03*
X3430Y-825D02*
D03*
X3180Y-850D02*
D03*
X3430Y-875D02*
D03*
D24*
X3708Y-570D02*
D03*
X3572D02*
D03*
X3862D02*
D03*
X3997D02*
D03*
X5047Y-1980D02*
D03*
X4912D02*
D03*
X2327Y-1240D02*
D03*
X2192D02*
D03*
D25*
X3536Y-310D02*
D03*
X3624D02*
D03*
X5894Y-3910D02*
D03*
X5806D02*
D03*
X3404Y-310D02*
D03*
X3316D02*
D03*
X2474Y-2920D02*
D03*
X2386D02*
D03*
X2251Y-2760D02*
D03*
X2163D02*
D03*
X2163Y-2920D02*
D03*
X2251D02*
D03*
Y-2640D02*
D03*
X2163D02*
D03*
X1376Y-3410D02*
D03*
X1464D02*
D03*
X4896Y-1840D02*
D03*
X4984D02*
D03*
X5426Y-1990D02*
D03*
X5514D02*
D03*
X4414Y-1840D02*
D03*
X4326D02*
D03*
X3914Y-4110D02*
D03*
X3826D02*
D03*
X2254Y-600D02*
D03*
X2166D02*
D03*
X2386D02*
D03*
X2474D02*
D03*
X1174Y-3560D02*
D03*
X1086D02*
D03*
X1804Y-3030D02*
D03*
X1716D02*
D03*
X1174Y-3440D02*
D03*
X1086D02*
D03*
D26*
X3533Y-430D02*
D03*
X3647D02*
D03*
X3408D02*
D03*
X3292D02*
D03*
X4097Y-2360D02*
D03*
X3983D02*
D03*
X5167Y-2160D02*
D03*
X5053D02*
D03*
X4592Y-2100D02*
D03*
X4708D02*
D03*
X2027Y-1910D02*
D03*
X1912D02*
D03*
X848Y-740D02*
D03*
X732D02*
D03*
X4158Y-4450D02*
D03*
X4042D02*
D03*
X4172Y-4580D02*
D03*
X4288D02*
D03*
X4042Y-4330D02*
D03*
X4158D02*
D03*
X1738Y-940D02*
D03*
X1623D02*
D03*
X2133Y-730D02*
D03*
X2248D02*
D03*
X2508D02*
D03*
X2392D02*
D03*
X3867Y-2080D02*
D03*
X3753D02*
D03*
X1823Y-4840D02*
D03*
X1938D02*
D03*
X2067Y-4710D02*
D03*
X1952D02*
D03*
Y-4590D02*
D03*
X2067D02*
D03*
X1938Y-4460D02*
D03*
X1823D02*
D03*
D27*
X2140Y-4304D02*
D03*
Y-4216D02*
D03*
X390Y-4094D02*
D03*
Y-4006D02*
D03*
X3520Y-1276D02*
D03*
Y-1364D02*
D03*
X2490Y-2656D02*
D03*
Y-2744D02*
D03*
X4340Y-3644D02*
D03*
Y-3556D02*
D03*
X3520Y-1056D02*
D03*
Y-1144D02*
D03*
X1920Y-1076D02*
D03*
Y-1164D02*
D03*
X2050Y-1076D02*
D03*
Y-1164D02*
D03*
Y-944D02*
D03*
Y-856D02*
D03*
X4060Y-2834D02*
D03*
Y-2746D02*
D03*
X2300Y-3324D02*
D03*
Y-3236D02*
D03*
X1350Y-3284D02*
D03*
Y-3196D02*
D03*
X1470Y-3254D02*
D03*
Y-3166D02*
D03*
X1350Y-2976D02*
D03*
Y-3064D02*
D03*
X2480Y-3924D02*
D03*
Y-3836D02*
D03*
D28*
X1630Y-3875D02*
D03*
Y-4005D02*
D03*
X3960Y-285D02*
D03*
Y-415D02*
D03*
D29*
X266Y-1065D02*
D03*
Y-335D02*
D03*
X74Y-1065D02*
D03*
Y-335D02*
D03*
D30*
X345Y-925D02*
D03*
Y-475D02*
D03*
Y-775D02*
D03*
D31*
X2650Y-607D02*
D03*
Y-493D02*
D03*
X4290Y-4197D02*
D03*
Y-4083D02*
D03*
Y-4447D02*
D03*
Y-4333D02*
D03*
X1410Y-422D02*
D03*
Y-538D02*
D03*
X600Y-612D02*
D03*
Y-728D02*
D03*
X1820Y-4592D02*
D03*
Y-4708D02*
D03*
D32*
X5300Y-1988D02*
D03*
X5250D02*
D03*
X5200D02*
D03*
Y-1833D02*
D03*
X5250D02*
D03*
X5300D02*
D03*
X4540D02*
D03*
X4590D02*
D03*
X4640D02*
D03*
Y-1988D02*
D03*
X4590D02*
D03*
X4540D02*
D03*
D33*
X3225Y-1306D02*
D03*
X3275D02*
D03*
X3325D02*
D03*
X3375D02*
D03*
Y-1054D02*
D03*
X3325D02*
D03*
X3275D02*
D03*
X3225D02*
D03*
D34*
X3401Y-1230D02*
D03*
Y-1180D02*
D03*
Y-1130D02*
D03*
X3199D02*
D03*
Y-1180D02*
D03*
Y-1230D02*
D03*
D35*
X610Y-1880D02*
D03*
X730D02*
D03*
X850D02*
D03*
X970D02*
D03*
D36*
X483Y-1540D02*
D03*
X1097D02*
D03*
D37*
X4055Y-3725D02*
D03*
Y-3560D02*
D03*
X4210D02*
D03*
Y-3725D02*
D03*
D38*
X4510Y-3880D02*
D03*
Y-3780D02*
D03*
Y-3680D02*
D03*
Y-3580D02*
D03*
Y-3480D02*
D03*
Y-3380D02*
D03*
D39*
X4720Y-3980D02*
D03*
Y-3280D02*
D03*
D40*
X910Y-638D02*
D03*
X860D02*
D03*
X810D02*
D03*
Y-562D02*
D03*
X860D02*
D03*
X910D02*
D03*
X2020Y-658D02*
D03*
X1970D02*
D03*
X1920D02*
D03*
Y-582D02*
D03*
X1970D02*
D03*
X2020D02*
D03*
D41*
X3870Y-3920D02*
D03*
X3790D02*
D03*
X3710D02*
D03*
X3630D02*
D03*
X3550D02*
D03*
X3470D02*
D03*
X3390D02*
D03*
X3310D02*
D03*
X3230D02*
D03*
X3150D02*
D03*
X3070D02*
D03*
X2990D02*
D03*
X2910D02*
D03*
X2830D02*
D03*
X2750D02*
D03*
X2670D02*
D03*
X3870Y-3840D02*
D03*
X3790D02*
D03*
X3710D02*
D03*
X3630D02*
D03*
X3550D02*
D03*
X3470D02*
D03*
X3390D02*
D03*
X3310D02*
D03*
X3230D02*
D03*
X3150D02*
D03*
X3070D02*
D03*
X2990D02*
D03*
X2910D02*
D03*
X2830D02*
D03*
X2750D02*
D03*
X2670D02*
D03*
X3870Y-3760D02*
D03*
X3790D02*
D03*
X3710D02*
D03*
X3630D02*
D03*
X3550D02*
D03*
X3470D02*
D03*
X3390D02*
D03*
X3310D02*
D03*
X3230D02*
D03*
X3150D02*
D03*
X3070D02*
D03*
X2990D02*
D03*
X2910D02*
D03*
X2830D02*
D03*
X2750D02*
D03*
X2670D02*
D03*
X3870Y-3680D02*
D03*
X3790D02*
D03*
X3710D02*
D03*
X3630D02*
D03*
X3550D02*
D03*
X3470D02*
D03*
X3390D02*
D03*
X3310D02*
D03*
X3230D02*
D03*
X3150D02*
D03*
X3070D02*
D03*
X2990D02*
D03*
X2910D02*
D03*
X2830D02*
D03*
X2750D02*
D03*
X2670D02*
D03*
X3870Y-3600D02*
D03*
X3790D02*
D03*
X3710D02*
D03*
X3630D02*
D03*
X3550D02*
D03*
X3470D02*
D03*
X3390D02*
D03*
X3310D02*
D03*
X3230D02*
D03*
X3150D02*
D03*
X3070D02*
D03*
X2990D02*
D03*
X2910D02*
D03*
X2830D02*
D03*
X2750D02*
D03*
X2670D02*
D03*
X3870Y-3520D02*
D03*
X3790D02*
D03*
X3710D02*
D03*
X3630D02*
D03*
X3550D02*
D03*
X3470D02*
D03*
X3390D02*
D03*
X3310D02*
D03*
X3230D02*
D03*
X3150D02*
D03*
X3070D02*
D03*
X2990D02*
D03*
X2910D02*
D03*
X2830D02*
D03*
X2750D02*
D03*
X2670D02*
D03*
X3870Y-3440D02*
D03*
X3790D02*
D03*
X3710D02*
D03*
X3630D02*
D03*
X3550D02*
D03*
X3470D02*
D03*
X3390D02*
D03*
X3310D02*
D03*
X3230D02*
D03*
X3150D02*
D03*
X3070D02*
D03*
X2990D02*
D03*
X2910D02*
D03*
X2830D02*
D03*
X2750D02*
D03*
X2670D02*
D03*
X3870Y-3360D02*
D03*
X3790D02*
D03*
X3710D02*
D03*
X3630D02*
D03*
X3550D02*
D03*
X3470D02*
D03*
X3390D02*
D03*
X3310D02*
D03*
X3230D02*
D03*
X3150D02*
D03*
X3070D02*
D03*
X2990D02*
D03*
X2910D02*
D03*
X2830D02*
D03*
X2750D02*
D03*
X2670D02*
D03*
X3870Y-3280D02*
D03*
X3790D02*
D03*
X3710D02*
D03*
X3630D02*
D03*
X3550D02*
D03*
X3470D02*
D03*
X3390D02*
D03*
X3310D02*
D03*
X3230D02*
D03*
X3150D02*
D03*
X3070D02*
D03*
X2990D02*
D03*
X2910D02*
D03*
X2830D02*
D03*
X2750D02*
D03*
X2670D02*
D03*
X3870Y-3200D02*
D03*
X3790D02*
D03*
X3710D02*
D03*
X3630D02*
D03*
X3550D02*
D03*
X3470D02*
D03*
X3390D02*
D03*
X3310D02*
D03*
X3230D02*
D03*
X3150D02*
D03*
X3070D02*
D03*
X2990D02*
D03*
X2910D02*
D03*
X2830D02*
D03*
X2750D02*
D03*
X2670D02*
D03*
X3870Y-3120D02*
D03*
X3790D02*
D03*
X3710D02*
D03*
X3630D02*
D03*
X3550D02*
D03*
X3470D02*
D03*
X3390D02*
D03*
X3310D02*
D03*
X3230D02*
D03*
X3150D02*
D03*
X3070D02*
D03*
X2990D02*
D03*
X2910D02*
D03*
X2830D02*
D03*
X2750D02*
D03*
X2670D02*
D03*
X3870Y-3040D02*
D03*
X3790D02*
D03*
X3710D02*
D03*
X3630D02*
D03*
X3550D02*
D03*
X3470D02*
D03*
X3390D02*
D03*
X3310D02*
D03*
X3230D02*
D03*
X3150D02*
D03*
X3070D02*
D03*
X2990D02*
D03*
X2910D02*
D03*
X2830D02*
D03*
X2750D02*
D03*
X2670D02*
D03*
X3870Y-2960D02*
D03*
X3790D02*
D03*
X3710D02*
D03*
X3630D02*
D03*
X3550D02*
D03*
X3470D02*
D03*
X3390D02*
D03*
X3310D02*
D03*
X3230D02*
D03*
X3150D02*
D03*
X3070D02*
D03*
X2990D02*
D03*
X2910D02*
D03*
X2830D02*
D03*
X2750D02*
D03*
X2670D02*
D03*
X3870Y-2880D02*
D03*
X3790D02*
D03*
X3710D02*
D03*
X3630D02*
D03*
X3550D02*
D03*
X3470D02*
D03*
X3390D02*
D03*
X3310D02*
D03*
X3230D02*
D03*
X3150D02*
D03*
X3070D02*
D03*
X2990D02*
D03*
X2910D02*
D03*
X2830D02*
D03*
X2750D02*
D03*
X2670D02*
D03*
X3870Y-2800D02*
D03*
X3790D02*
D03*
X3710D02*
D03*
X3630D02*
D03*
X3550D02*
D03*
X3470D02*
D03*
X3390D02*
D03*
X3310D02*
D03*
X3230D02*
D03*
X3150D02*
D03*
X3070D02*
D03*
X2990D02*
D03*
X2910D02*
D03*
X2830D02*
D03*
X2750D02*
D03*
X2670D02*
D03*
X3870Y-2720D02*
D03*
X3790D02*
D03*
X3710D02*
D03*
X3630D02*
D03*
X3550D02*
D03*
X3470D02*
D03*
X3390D02*
D03*
X3310D02*
D03*
X3230D02*
D03*
X3150D02*
D03*
X3070D02*
D03*
X2990D02*
D03*
X2910D02*
D03*
X2830D02*
D03*
X2750D02*
D03*
X2670D02*
D03*
D42*
X740Y-123D02*
D03*
X980D02*
D03*
X2080Y-125D02*
D03*
X1840D02*
D03*
D43*
X540Y-367D02*
D03*
X1180D02*
D03*
X2280Y-370D02*
D03*
X1640D02*
D03*
D44*
X860Y-390D02*
D03*
X925D02*
D03*
X990D02*
D03*
X730D02*
D03*
X795D02*
D03*
X1895Y-392D02*
D03*
X1830D02*
D03*
X2090D02*
D03*
X2025D02*
D03*
X1960D02*
D03*
D45*
X233Y-3430D02*
D03*
X88D02*
D03*
X233Y-3790D02*
D03*
X88D02*
D03*
X233Y-2410D02*
D03*
X88D02*
D03*
X233Y-2770D02*
D03*
X88D02*
D03*
D46*
X1900Y-927D02*
D03*
Y-792D02*
D03*
D47*
X4560Y-1650D02*
D03*
X4670D02*
D03*
X4780D02*
D03*
X4890D02*
D03*
X5000D02*
D03*
X5110D02*
D03*
X5220D02*
D03*
X5330D02*
D03*
X5425D02*
D03*
D48*
X4405D02*
D03*
X5520Y-1220D02*
D03*
D49*
X5535Y-600D02*
D03*
D50*
X5520Y-190D02*
D03*
D51*
X4185Y-140D02*
D03*
D52*
X1410Y-115D02*
D03*
Y-265D02*
D03*
X1730Y-780D02*
D03*
Y-630D02*
D03*
D53*
X1680Y-1085D02*
D03*
X1775Y-1315D02*
D03*
X1585D02*
D03*
D54*
X2178Y-867D02*
D03*
Y-912D02*
D03*
Y-957D02*
D03*
Y-1002D02*
D03*
Y-1047D02*
D03*
Y-1092D02*
D03*
X2461Y-867D02*
D03*
Y-912D02*
D03*
Y-957D02*
D03*
Y-1002D02*
D03*
Y-1047D02*
D03*
Y-1092D02*
D03*
D55*
X2320Y-980D02*
D03*
D56*
X4090Y-3000D02*
D03*
X4660D02*
D03*
X4280D02*
D03*
D57*
X4470D02*
D03*
D58*
X-170Y-1360D02*
D03*
Y-1610D02*
D03*
Y-1860D02*
D03*
Y-2110D02*
D03*
D59*
X1785Y-4247D02*
D03*
Y-3993D02*
D03*
X2015D02*
D03*
Y-4247D02*
D03*
D60*
X1705Y-3695D02*
D03*
X1755D02*
D03*
X1805D02*
D03*
X1855D02*
D03*
X1905D02*
D03*
X1955D02*
D03*
X2005D02*
D03*
X2055D02*
D03*
Y-3205D02*
D03*
X2005D02*
D03*
X1955D02*
D03*
X1905D02*
D03*
X1855D02*
D03*
X1805D02*
D03*
X1755D02*
D03*
X1705D02*
D03*
D61*
X2125Y-3625D02*
D03*
Y-3575D02*
D03*
Y-3525D02*
D03*
Y-3475D02*
D03*
Y-3425D02*
D03*
Y-3375D02*
D03*
Y-3325D02*
D03*
Y-3275D02*
D03*
X1635D02*
D03*
Y-3325D02*
D03*
Y-3375D02*
D03*
Y-3425D02*
D03*
Y-3475D02*
D03*
Y-3525D02*
D03*
Y-3575D02*
D03*
Y-3625D02*
D03*
D62*
X1880Y-3450D02*
D03*
D63*
X1420Y-3640D02*
D03*
Y-3800D02*
D03*
X1190Y-3280D02*
D03*
Y-3120D02*
D03*
D64*
X1840Y-2870D02*
D03*
X1680D02*
D03*
D65*
X2240Y-3920D02*
D03*
M02*
