G04*
G04 #@! TF.GenerationSoftware,Altium Limited,Altium Designer,19.0.15 (446)*
G04*
G04 Layer_Color=128*
%FSLAX42Y42*%
%MOMM*%
G71*
G01*
G75*
%ADD25R,0.60X0.64*%
%ADD26R,0.75X0.60*%
%ADD27R,0.64X0.60*%
%ADD31R,0.60X0.75*%
%ADD53R,0.65X0.95*%
%ADD64R,1.30X1.40*%
%ADD145R,0.95X0.60*%
%ADD146R,0.80X0.80*%
%ADD147R,1.15X1.70*%
%ADD148R,1.80X1.30*%
%ADD149R,2.00X6.00*%
%ADD150R,0.60X1.45*%
%ADD151R,2.50X1.70*%
%ADD152R,1.30X1.80*%
%ADD153R,0.90X0.60*%
%ADD154R,0.60X0.55*%
%ADD155R,0.95X0.65*%
%ADD156R,0.50X0.30*%
%ADD157R,0.35X0.60*%
%ADD158R,1.15X1.35*%
%ADD159R,0.20X1.14*%
D25*
X1434Y-2810D02*
D03*
X1346D02*
D03*
X1554Y-2431D02*
D03*
X1466D02*
D03*
X1554Y-2550D02*
D03*
X1466D02*
D03*
X1654Y-1930D02*
D03*
X1566D02*
D03*
X1324Y-810D02*
D03*
X1236D02*
D03*
X1016D02*
D03*
X1104D02*
D03*
X3034Y-3160D02*
D03*
X2946D02*
D03*
X3194Y-3000D02*
D03*
X3106D02*
D03*
X3346Y-3640D02*
D03*
X3434D02*
D03*
X3506Y-3360D02*
D03*
X3594D02*
D03*
X3034Y-3280D02*
D03*
X2946D02*
D03*
X3594Y-3480D02*
D03*
X3506D02*
D03*
X3154Y-3400D02*
D03*
X3066D02*
D03*
X3474Y-3240D02*
D03*
X3386D02*
D03*
X946Y-3670D02*
D03*
X1034D02*
D03*
X1486D02*
D03*
X1574D02*
D03*
D26*
X5197Y-2599D02*
D03*
X5083D02*
D03*
X4938D02*
D03*
X4822D02*
D03*
X4680D02*
D03*
X4565D02*
D03*
X4675Y-3050D02*
D03*
X4560D02*
D03*
X4933D02*
D03*
X4817D02*
D03*
X5195D02*
D03*
X5080D02*
D03*
X4450Y-3556D02*
D03*
X4565D02*
D03*
X4567Y-3907D02*
D03*
X4453D02*
D03*
X4567Y-3676D02*
D03*
X4453D02*
D03*
Y-3790D02*
D03*
X4567D02*
D03*
D27*
X5791Y-3764D02*
D03*
Y-3676D02*
D03*
X953Y-3064D02*
D03*
Y-3152D02*
D03*
X1513Y-3064D02*
D03*
Y-3152D02*
D03*
X1590Y-2789D02*
D03*
Y-2701D02*
D03*
X2150Y-2789D02*
D03*
Y-2701D02*
D03*
X1620Y-1686D02*
D03*
Y-1774D02*
D03*
X2950Y-3396D02*
D03*
Y-3484D02*
D03*
X3430Y-3084D02*
D03*
Y-2996D02*
D03*
X3110Y-3556D02*
D03*
Y-3644D02*
D03*
X5290Y-3574D02*
D03*
Y-3486D02*
D03*
Y-3794D02*
D03*
Y-3706D02*
D03*
X4040Y-3914D02*
D03*
Y-3826D02*
D03*
X3590Y-3156D02*
D03*
Y-3244D02*
D03*
X3230Y-3556D02*
D03*
Y-3644D02*
D03*
X3310Y-3084D02*
D03*
Y-2996D02*
D03*
X3350Y-3436D02*
D03*
Y-3524D02*
D03*
X3190Y-3204D02*
D03*
Y-3116D02*
D03*
D31*
X940Y-943D02*
D03*
Y-1057D02*
D03*
X4170Y-3833D02*
D03*
Y-3947D02*
D03*
X1030Y-3917D02*
D03*
Y-3803D02*
D03*
X1160Y-3658D02*
D03*
Y-3542D02*
D03*
Y-3803D02*
D03*
Y-3917D02*
D03*
X1490D02*
D03*
Y-3803D02*
D03*
X1360Y-3658D02*
D03*
Y-3542D02*
D03*
Y-3917D02*
D03*
Y-3803D02*
D03*
D53*
X1465Y-2065D02*
D03*
X1655D02*
D03*
X1560Y-2295D02*
D03*
D64*
X710Y-3830D02*
D03*
X870D02*
D03*
X1900Y-3670D02*
D03*
X1740D02*
D03*
D145*
X1095Y-3149D02*
D03*
Y-3054D02*
D03*
Y-2959D02*
D03*
X1370D02*
D03*
Y-3149D02*
D03*
X1732Y-2790D02*
D03*
Y-2695D02*
D03*
Y-2600D02*
D03*
X2007D02*
D03*
Y-2790D02*
D03*
D146*
X5885Y-3040D02*
D03*
X5735D02*
D03*
X5881Y-2590D02*
D03*
X5731D02*
D03*
X5731Y-2740D02*
D03*
X5881D02*
D03*
X5731Y-2890D02*
D03*
X5881D02*
D03*
X5881Y-3340D02*
D03*
X5731D02*
D03*
Y-3190D02*
D03*
X5881D02*
D03*
D147*
X1143Y-1740D02*
D03*
X1457D02*
D03*
D148*
X1018Y-2255D02*
D03*
Y-1965D02*
D03*
X1268Y-2255D02*
D03*
Y-1965D02*
D03*
D149*
X770Y-1810D02*
D03*
X350D02*
D03*
D150*
X1106Y-975D02*
D03*
X1233D02*
D03*
X1360D02*
D03*
X1487D02*
D03*
X1106Y-1520D02*
D03*
X1233D02*
D03*
X1360D02*
D03*
X1487D02*
D03*
D151*
X830Y-1320D02*
D03*
X430D02*
D03*
X620Y-360D02*
D03*
X220D02*
D03*
D152*
X629Y-670D02*
D03*
X339D02*
D03*
D153*
X355Y-1055D02*
D03*
Y-865D02*
D03*
X585Y-960D02*
D03*
D154*
X4150Y-3712D02*
D03*
X4215Y-3528D02*
D03*
X4085D02*
D03*
X4845Y-3169D02*
D03*
X4780Y-3354D02*
D03*
X4910D02*
D03*
X5137Y-3169D02*
D03*
X5072Y-3354D02*
D03*
X5202D02*
D03*
X4553Y-3170D02*
D03*
X4488Y-3355D02*
D03*
X4618D02*
D03*
X4556Y-2735D02*
D03*
X4491Y-2920D02*
D03*
X4621D02*
D03*
X5140Y-2735D02*
D03*
X5075Y-2920D02*
D03*
X5205D02*
D03*
X4848Y-2735D02*
D03*
X4783Y-2920D02*
D03*
X4913D02*
D03*
D155*
X5655Y-3620D02*
D03*
X5425Y-3525D02*
D03*
Y-3715D02*
D03*
D156*
X800Y-4241D02*
D03*
X580D02*
D03*
X1220D02*
D03*
X1000D02*
D03*
X3100D02*
D03*
X3320D02*
D03*
X2680D02*
D03*
X2900D02*
D03*
X5200D02*
D03*
X5420D02*
D03*
X4780D02*
D03*
X5000D02*
D03*
D157*
X1175Y-4310D02*
D03*
X1125D02*
D03*
X1075D02*
D03*
X1025D02*
D03*
X975D02*
D03*
X625D02*
D03*
X675D02*
D03*
X725D02*
D03*
X775D02*
D03*
X825D02*
D03*
X875D02*
D03*
X925D02*
D03*
X3025D02*
D03*
X2975D02*
D03*
X2925D02*
D03*
X2875D02*
D03*
X2825D02*
D03*
X2775D02*
D03*
X2725D02*
D03*
X3075D02*
D03*
X3125D02*
D03*
X3175D02*
D03*
X3225D02*
D03*
X3275D02*
D03*
X5125D02*
D03*
X5075D02*
D03*
X5025D02*
D03*
X4975D02*
D03*
X4925D02*
D03*
X4875D02*
D03*
X4825D02*
D03*
X5175D02*
D03*
X5225D02*
D03*
X5275D02*
D03*
X5325D02*
D03*
X5375D02*
D03*
D158*
X1733Y-3870D02*
D03*
X1908D02*
D03*
D159*
X2510Y-136D02*
D03*
Y-400D02*
D03*
X2550Y-136D02*
D03*
Y-400D02*
D03*
X2590Y-136D02*
D03*
Y-400D02*
D03*
X2630Y-136D02*
D03*
Y-400D02*
D03*
X2670Y-136D02*
D03*
Y-400D02*
D03*
X2710Y-136D02*
D03*
Y-400D02*
D03*
X2750Y-136D02*
D03*
Y-400D02*
D03*
X2790Y-136D02*
D03*
Y-400D02*
D03*
X2830Y-136D02*
D03*
Y-400D02*
D03*
X2870Y-136D02*
D03*
Y-400D02*
D03*
X2910Y-136D02*
D03*
Y-400D02*
D03*
X2950Y-136D02*
D03*
Y-400D02*
D03*
X2990Y-136D02*
D03*
Y-400D02*
D03*
X3030Y-136D02*
D03*
Y-400D02*
D03*
X3070Y-136D02*
D03*
Y-400D02*
D03*
X3110Y-136D02*
D03*
Y-400D02*
D03*
X3150Y-136D02*
D03*
Y-400D02*
D03*
X3190Y-136D02*
D03*
Y-400D02*
D03*
X3230Y-136D02*
D03*
Y-400D02*
D03*
X3270Y-136D02*
D03*
Y-400D02*
D03*
X3310Y-136D02*
D03*
Y-400D02*
D03*
X3350Y-136D02*
D03*
Y-400D02*
D03*
X3390Y-136D02*
D03*
Y-400D02*
D03*
X3430Y-136D02*
D03*
Y-400D02*
D03*
X3470Y-136D02*
D03*
Y-400D02*
D03*
X3510Y-136D02*
D03*
Y-400D02*
D03*
X3550Y-136D02*
D03*
Y-400D02*
D03*
X3590Y-136D02*
D03*
Y-400D02*
D03*
X3630Y-136D02*
D03*
Y-400D02*
D03*
X3670Y-136D02*
D03*
Y-400D02*
D03*
X3710Y-136D02*
D03*
Y-400D02*
D03*
X3750Y-136D02*
D03*
Y-400D02*
D03*
X3790Y-136D02*
D03*
Y-400D02*
D03*
X3830Y-136D02*
D03*
Y-400D02*
D03*
X3870Y-136D02*
D03*
Y-400D02*
D03*
X3910Y-136D02*
D03*
Y-400D02*
D03*
X3950Y-136D02*
D03*
Y-400D02*
D03*
X3990Y-136D02*
D03*
Y-400D02*
D03*
X4030Y-136D02*
D03*
Y-400D02*
D03*
X4070Y-136D02*
D03*
Y-400D02*
D03*
X4110Y-136D02*
D03*
Y-400D02*
D03*
X4150Y-136D02*
D03*
Y-400D02*
D03*
X4190Y-136D02*
D03*
Y-400D02*
D03*
X4230Y-136D02*
D03*
Y-400D02*
D03*
X4270Y-136D02*
D03*
Y-400D02*
D03*
Y-2360D02*
D03*
Y-2096D02*
D03*
X4230Y-2360D02*
D03*
Y-2096D02*
D03*
X4190Y-2360D02*
D03*
Y-2096D02*
D03*
X4150Y-2360D02*
D03*
Y-2096D02*
D03*
X4110Y-2360D02*
D03*
Y-2096D02*
D03*
X4070Y-2360D02*
D03*
Y-2096D02*
D03*
X4030Y-2360D02*
D03*
Y-2096D02*
D03*
X3990Y-2360D02*
D03*
Y-2096D02*
D03*
X3950Y-2360D02*
D03*
Y-2096D02*
D03*
X3910Y-2360D02*
D03*
Y-2096D02*
D03*
X3870Y-2360D02*
D03*
Y-2096D02*
D03*
X3830Y-2360D02*
D03*
Y-2096D02*
D03*
X3790Y-2360D02*
D03*
Y-2096D02*
D03*
X3750Y-2360D02*
D03*
Y-2096D02*
D03*
X3710Y-2360D02*
D03*
Y-2096D02*
D03*
X3670Y-2360D02*
D03*
Y-2096D02*
D03*
X3630Y-2360D02*
D03*
Y-2096D02*
D03*
X3590Y-2360D02*
D03*
Y-2096D02*
D03*
X3550Y-2360D02*
D03*
Y-2096D02*
D03*
X3510Y-2360D02*
D03*
Y-2096D02*
D03*
X3470Y-2360D02*
D03*
Y-2096D02*
D03*
X3430Y-2360D02*
D03*
Y-2096D02*
D03*
X3390Y-2360D02*
D03*
Y-2096D02*
D03*
X3350Y-2360D02*
D03*
Y-2096D02*
D03*
X3310Y-2360D02*
D03*
Y-2096D02*
D03*
X3270Y-2360D02*
D03*
Y-2096D02*
D03*
X3230Y-2360D02*
D03*
Y-2096D02*
D03*
X3190Y-2360D02*
D03*
Y-2096D02*
D03*
X3150Y-2360D02*
D03*
Y-2096D02*
D03*
X3110Y-2360D02*
D03*
Y-2096D02*
D03*
X3070Y-2360D02*
D03*
Y-2096D02*
D03*
X3030Y-2360D02*
D03*
Y-2096D02*
D03*
X2990Y-2360D02*
D03*
Y-2096D02*
D03*
X2950Y-2360D02*
D03*
Y-2096D02*
D03*
X2910Y-2360D02*
D03*
Y-2096D02*
D03*
X2870Y-2360D02*
D03*
Y-2096D02*
D03*
X2830Y-2360D02*
D03*
Y-2096D02*
D03*
X2790Y-2360D02*
D03*
Y-2096D02*
D03*
X2750Y-2360D02*
D03*
Y-2096D02*
D03*
X2710Y-2360D02*
D03*
Y-2096D02*
D03*
X2670Y-2360D02*
D03*
Y-2096D02*
D03*
X2630Y-2360D02*
D03*
Y-2096D02*
D03*
X2590Y-2360D02*
D03*
Y-2096D02*
D03*
X2550Y-2360D02*
D03*
Y-2096D02*
D03*
X2510Y-2360D02*
D03*
Y-2096D02*
D03*
M02*
