G04*
G04 #@! TF.GenerationSoftware,Altium Limited,Altium Designer,19.0.15 (446)*
G04*
G04 Layer_Physical_Order=1*
G04 Layer_Color=255*
%FSLAX42Y42*%
%MOMM*%
G71*
G01*
G75*
%ADD10C,0.25*%
%ADD15C,0.20*%
%ADD16C,0.38*%
%ADD18C,0.15*%
%ADD21R,0.29X0.53*%
%ADD22R,0.65X0.27*%
%ADD23R,0.65X0.25*%
%ADD24R,0.90X1.00*%
%ADD25R,0.60X0.64*%
%ADD26R,0.75X0.60*%
%ADD27R,0.64X0.60*%
%ADD28R,0.95X0.85*%
%ADD29R,0.80X1.00*%
%ADD30R,1.50X0.70*%
%ADD31R,0.60X0.75*%
%ADD32R,0.30X0.60*%
%ADD33R,0.25X0.68*%
%ADD34R,0.68X0.25*%
%ADD35R,0.60X1.10*%
%ADD36R,0.60X1.50*%
%ADD37R,0.85X0.65*%
%ADD38R,2.00X0.60*%
%ADD39R,4.20X0.70*%
%ADD40R,0.30X0.52*%
%ADD41C,0.40*%
%ADD42R,1.90X1.80*%
G04:AMPARAMS|DCode=43|XSize=1.6mm|YSize=1.4mm|CornerRadius=0.35mm|HoleSize=0mm|Usage=FLASHONLY|Rotation=180.000|XOffset=0mm|YOffset=0mm|HoleType=Round|Shape=RoundedRectangle|*
%AMROUNDEDRECTD43*
21,1,1.60,0.70,0,0,180.0*
21,1,0.90,1.40,0,0,180.0*
1,1,0.70,-0.45,0.35*
1,1,0.70,0.45,0.35*
1,1,0.70,0.45,-0.35*
1,1,0.70,-0.45,-0.35*
%
%ADD43ROUNDEDRECTD43*%
%ADD44O,0.40X1.35*%
%ADD45R,1.05X1.40*%
%ADD46R,1.00X0.90*%
%ADD47R,0.70X1.20*%
%ADD48R,1.00X1.20*%
%ADD49R,1.00X0.80*%
%ADD50R,1.00X2.80*%
%ADD51R,1.30X1.90*%
%ADD52R,0.80X0.80*%
%ADD53R,0.65X0.95*%
%ADD54R,0.85X0.25*%
%ADD55R,1.58X2.48*%
%ADD56R,1.00X1.00*%
%ADD57R,1.00X1.00*%
%ADD58R,4.06X1.91*%
%ADD59R,1.10X1.20*%
%ADD60R,0.30X0.91*%
%ADD61R,0.91X0.30*%
%ADD62R,3.25X3.25*%
%ADD63R,1.40X1.30*%
%ADD64R,1.30X1.40*%
%ADD65R,2.50X1.25*%
%ADD131C,0.30*%
%ADD132C,0.51*%
%ADD133C,0.76*%
%ADD134C,0.64*%
%ADD135C,1.45*%
%ADD136C,0.90*%
%ADD137C,0.65*%
%ADD138O,1.15X0.65*%
%ADD139C,0.60*%
%ADD140O,1.00X1.60*%
%ADD141O,1.00X2.56*%
%ADD142O,0.90X1.60*%
%ADD143C,2.90*%
%ADD144C,0.46*%
G36*
X1920Y-3000D02*
X1820Y-3100D01*
X1820D01*
Y-3130D01*
X1770D01*
Y-2790D01*
X1920D01*
Y-3000D01*
D02*
G37*
G36*
X1750Y-3130D02*
X1720D01*
Y-3230D01*
X1690D01*
X1650Y-3190D01*
X1650Y-3030D01*
X1610Y-2990D01*
Y-2790D01*
X1750D01*
Y-3130D01*
D02*
G37*
G36*
X1420Y-3040D02*
X1655Y-3275D01*
X1594Y-3275D01*
X1454Y-3135D01*
X1130Y-3135D01*
Y-3040D01*
X1420Y-3040D01*
D02*
G37*
G36*
X2390Y-3220D02*
Y-3270D01*
X2260D01*
X2240Y-3290D01*
X2080D01*
Y-3260D01*
X2150Y-3190D01*
X2360D01*
X2390Y-3220D01*
D02*
G37*
G36*
X1440Y-3230D02*
X1500D01*
X1580Y-3310D01*
Y-3340D01*
X1540D01*
X1480Y-3280D01*
X1440D01*
X1380Y-3220D01*
Y-3210D01*
X1320D01*
X1250Y-3280D01*
Y-3240D01*
X1320Y-3170D01*
Y-3170D01*
X1380D01*
X1440Y-3230D01*
D02*
G37*
G36*
X1400Y-3300D02*
Y-3440D01*
X1310D01*
Y-3294D01*
X1330Y-3270D01*
X1370D01*
X1400Y-3300D01*
D02*
G37*
G36*
X1520Y-3360D02*
X1570D01*
Y-3440D01*
X1440Y-3440D01*
Y-3320D01*
X1480Y-3320D01*
X1520Y-3360D01*
D02*
G37*
G36*
X1570Y-3590D02*
X1460Y-3700D01*
X1230D01*
Y-3590D01*
X1280D01*
X1310Y-3560D01*
X1570D01*
Y-3590D01*
D02*
G37*
G36*
X1660Y-3800D02*
X1550D01*
Y-3850D01*
X1230D01*
Y-3730D01*
X1520D01*
Y-3680D01*
X1590Y-3610D01*
X1660D01*
Y-3800D01*
D02*
G37*
D10*
X1350Y-2976D02*
X1351Y-2975D01*
X1350Y-3350D02*
Y-3284D01*
Y-3382D02*
Y-3350D01*
Y-3382D02*
X1376Y-3408D01*
Y-3410D02*
Y-3408D01*
X1780Y-3550D02*
X1880Y-3450D01*
X1755Y-3575D02*
X1780Y-3550D01*
X1855Y-3425D02*
X1880Y-3450D01*
X5426Y-2066D02*
Y-1990D01*
X5424Y-1988D02*
X5426Y-1990D01*
X5300Y-1988D02*
X5424D01*
X4422Y-1833D02*
X4540D01*
X860Y-562D02*
X860Y-562D01*
X860Y-562D02*
Y-490D01*
X910Y-562D02*
X925Y-547D01*
Y-495D01*
X4430Y-1824D02*
Y-1770D01*
X4414Y-1840D02*
X4422Y-1833D01*
X4430Y-1824D01*
D15*
X340Y-2860D02*
Y-2490D01*
X233Y-2967D02*
X340Y-2860D01*
X233Y-3430D02*
Y-2967D01*
X3963Y-610D02*
X4003Y-570D01*
X3850Y-1480D02*
Y-1440D01*
X3840Y-1430D02*
X3850Y-1440D01*
X3840Y-1430D02*
Y-1000D01*
X3740Y-840D02*
Y-570D01*
Y-840D02*
X3880Y-980D01*
Y-1410D02*
Y-980D01*
Y-1410D02*
X3910Y-1440D01*
Y-1610D02*
Y-1440D01*
X3540Y-825D02*
X3665D01*
X3430D02*
X3540D01*
X3538Y-823D02*
X3540Y-825D01*
X3538Y-823D02*
Y-750D01*
X3665Y-825D02*
X3840Y-1000D01*
X3910Y-1610D02*
X4420Y-2120D01*
X2420Y-80D02*
X2450Y-50D01*
X3730D01*
X3850Y-170D01*
Y-300D02*
Y-170D01*
X3960Y-650D02*
Y-620D01*
X3963Y-617D01*
Y-610D01*
X4003Y-570D02*
X4010D01*
X3920Y-690D02*
X3960Y-650D01*
X3640Y-656D02*
X3673Y-623D01*
Y-605D01*
X3708Y-570D01*
X3538Y-656D02*
X3640D01*
X3471Y-723D02*
X3538Y-656D01*
X3432Y-723D02*
X3471D01*
X3430Y-725D02*
X3432Y-723D01*
X3830Y-603D02*
X3862Y-570D01*
X3830Y-660D02*
Y-603D01*
X4420Y-2520D02*
Y-2120D01*
X4316Y-2624D02*
X4420Y-2520D01*
X4276Y-2624D02*
X4316D01*
X3150Y-1862D02*
X3912D01*
X4250Y-2200D01*
Y-2345D02*
Y-2200D01*
X4170Y-2425D02*
X4250Y-2345D01*
X4170Y-2460D02*
Y-2425D01*
X3983Y-2360D02*
X3990Y-2352D01*
Y-2260D01*
X4090Y-2367D02*
X4097Y-2360D01*
X4090Y-2460D02*
Y-2367D01*
X3624Y-410D02*
X3644Y-430D01*
X3636Y-436D02*
X3642Y-430D01*
X3630Y-480D02*
Y-430D01*
X3609Y-501D02*
X3630Y-480D01*
X3609Y-544D02*
Y-501D01*
X3583Y-570D02*
X3609Y-544D01*
X4234Y-2666D02*
X4276Y-2624D01*
X4234Y-2836D02*
Y-2666D01*
X4200Y-2870D02*
X4234Y-2836D01*
X3296Y-430D02*
X3300D01*
X3292D02*
X3296D01*
X3360Y-510D02*
X3410D01*
X3320Y-470D02*
X3360Y-510D01*
X3320Y-470D02*
Y-450D01*
X3300Y-430D02*
X3320Y-450D01*
X3030Y-650D02*
X3060Y-680D01*
Y-760D02*
Y-680D01*
X3030Y-790D02*
X3060Y-760D01*
X3644Y-430D02*
X3647D01*
X3642D02*
X3644D01*
X3296D02*
X3316Y-410D01*
Y-310D01*
X3624Y-410D02*
Y-310D01*
X1908Y-656D02*
X1920Y-668D01*
X1840Y-656D02*
X1908D01*
X1680Y-1080D02*
X1683Y-1082D01*
Y-1112D02*
Y-1082D01*
X600Y-612D02*
Y-500D01*
X2790Y-1120D02*
Y-580D01*
Y-1120D02*
Y-1120D01*
X2870Y-1330D02*
Y-1290D01*
Y-2200D02*
Y-1330D01*
X5700Y-3930D02*
Y-3880D01*
X370Y-3894D02*
Y-3040D01*
X304Y-3960D02*
X370Y-3894D01*
X140Y-3960D02*
X304D01*
X90Y-4069D02*
Y-4010D01*
X140Y-3960D01*
X275Y-2345D02*
X420Y-2200D01*
X5700Y-3930D02*
X5791Y-4021D01*
Y-4067D02*
Y-4021D01*
X3551Y-3991D02*
X3724Y-4164D01*
X4370Y-3880D02*
X4510D01*
X4290Y-4333D02*
Y-4203D01*
X4288Y-4338D02*
Y-4330D01*
X4611Y-4099D02*
X4861D01*
X4317Y-4360D02*
X4317Y-4360D01*
X4310Y-4360D02*
X4317D01*
X4288Y-4338D02*
X4310Y-4360D01*
X4317Y-4360D02*
X4350D01*
X4611Y-4099D01*
X4288Y-4450D02*
Y-4442D01*
X4317Y-4420D02*
X4317Y-4420D01*
X4310Y-4420D02*
X4317D01*
X4288Y-4442D02*
X4310Y-4420D01*
X4317Y-4420D02*
X4353D01*
X4633Y-4140D01*
X4288Y-4200D02*
X4290Y-4203D01*
X4700Y-3556D02*
X4755Y-3611D01*
Y-3883D02*
Y-3611D01*
X4740Y-3897D02*
X4755Y-3883D01*
X4515Y-3485D02*
X4629D01*
X4510Y-3480D02*
X4515Y-3485D01*
X4629D02*
X4700Y-3556D01*
X4510Y-3580D02*
X4645D01*
X4661Y-3897D02*
X4710Y-3848D01*
Y-3645D01*
X4645Y-3580D02*
X4710Y-3645D01*
X4652Y-3897D02*
X4661D01*
X4645Y-3675D02*
X4650Y-3670D01*
X4515Y-3675D02*
X4645D01*
X4510Y-3680D02*
X4515Y-3675D01*
X4510Y-3780D02*
X4650D01*
X4510Y-3780D02*
X4510Y-3780D01*
X3870Y-3520D02*
X3950D01*
X3990Y-3480D01*
X4110D01*
X4360Y-3230D01*
X3970Y-2650D02*
X4050D01*
X4150Y-2870D02*
X4200D01*
X4388Y-2692D02*
X4590Y-2490D01*
X4290Y-2692D02*
X4388D01*
X4350Y-3120D02*
X4470Y-3000D01*
X3870Y-3120D02*
X4350D01*
X4500Y-3160D02*
X4660Y-3000D01*
X3900Y-3160D02*
X4500D01*
X4590Y-2490D02*
Y-1988D01*
X2108D02*
X2616Y-1480D01*
X2730D02*
X2730Y-1480D01*
X2616Y-1480D02*
X2730D01*
X1690Y-1988D02*
X2108D01*
X1397Y-2280D02*
X1690Y-1988D01*
X2027Y-1910D02*
X2110D01*
X2005Y-1830D02*
X2027Y-1852D01*
Y-1910D02*
Y-1852D01*
X1785Y-1830D02*
X2005D01*
X1375Y-2240D02*
X1785Y-1830D01*
X2340Y-2630D02*
X2460Y-2510D01*
Y-1910D01*
X3130Y-1842D02*
X3150Y-1862D01*
X3130Y-1842D02*
Y-1670D01*
X4447Y-3380D02*
X4510D01*
X2412Y-2744D02*
X2490D01*
X2410Y-2746D02*
X2412Y-2744D01*
X1130Y-2280D02*
X1397D01*
X370Y-3040D02*
X1130Y-2280D01*
X590Y-2240D02*
X1375D01*
X1762Y-1790D02*
X2220D01*
X1352Y-2200D02*
X1762Y-1790D01*
X420Y-2200D02*
X1352D01*
X340Y-2490D02*
X590Y-2240D01*
X275Y-2368D02*
Y-2345D01*
X233Y-2410D02*
X275Y-2368D01*
X732Y-1877D02*
Y-1670D01*
X730Y-1880D02*
X732Y-1877D01*
X-40Y-1670D02*
X20D01*
X-100D02*
X-40D01*
X-110D02*
X-100D01*
X-170Y-1610D02*
X-110Y-1670D01*
X732D02*
X986Y-1416D01*
X1106D01*
X20Y-1670D02*
X732D01*
X830Y-2006D02*
Y-1937D01*
X830Y-1937D01*
Y-1900D01*
X850Y-1880D01*
X726Y-2110D02*
X830Y-2006D01*
X20Y-2110D02*
X726D01*
X2220Y-1790D02*
X2300Y-1710D01*
X1340Y-1110D02*
X1360Y-1090D01*
X484Y-1110D02*
X1340D01*
X1360Y-3660D02*
X1380Y-3680D01*
X2483Y-4019D02*
X2850D01*
X2230Y-4272D02*
X2483Y-4019D01*
X2230Y-4570D02*
Y-4272D01*
X2500Y-4060D02*
X2870D01*
X2270Y-4290D02*
X2500Y-4060D01*
X2270Y-4590D02*
Y-4290D01*
X2189Y-4671D02*
X2270Y-4590D01*
X2170Y-4630D02*
X2230Y-4570D01*
X1860Y-3742D02*
X1938Y-3820D01*
X1860Y-3742D02*
Y-3700D01*
X1855Y-3695D02*
X1860Y-3700D01*
X1938Y-3820D02*
X2190D01*
X4633Y-4140D02*
X4910D01*
X3797Y-4204D02*
X4042Y-4450D01*
X3707Y-4204D02*
X3797D01*
X3513Y-4010D02*
X3707Y-4204D01*
X3510Y-4010D02*
X3513D01*
X3876Y-4164D02*
X4042Y-4330D01*
X3724Y-4164D02*
X3876D01*
X4830Y-2060D02*
X4890Y-2120D01*
X4830Y-2060D02*
Y-1740D01*
X4800Y-1710D02*
X4830Y-1740D01*
X5050Y-2240D02*
Y-2162D01*
X4210Y-3470D02*
X4215Y-3465D01*
X3974Y-2920D02*
X4060Y-2834D01*
X3930Y-2920D02*
X3974D01*
X4210Y-3560D02*
Y-3470D01*
X3870Y-3120D02*
X3870Y-3120D01*
X3790Y-2800D02*
X3830Y-2760D01*
X-40Y-2110D02*
X20D01*
X-100D02*
X-40D01*
X-160D02*
X-100D01*
X-170D02*
X-160D01*
X-40Y-1610D02*
X20D01*
X-100D02*
X-40D01*
X-160D02*
X-100D01*
X-170D02*
X-160D01*
X233Y-3790D02*
Y-3430D01*
X2700Y-780D02*
Y-657D01*
X4708Y-2100D02*
X4710Y-2102D01*
Y-2210D02*
Y-2102D01*
X3750Y-2077D02*
X3753Y-2080D01*
X3750Y-2077D02*
Y-1990D01*
X2650Y-607D02*
X2700Y-657D01*
X5300Y-1833D02*
X5370D01*
X4590Y-1880D02*
Y-1833D01*
X5250Y-2070D02*
X5260Y-2080D01*
X5250Y-2070D02*
Y-1988D01*
X5167Y-2160D02*
X5180Y-2148D01*
Y-2080D01*
X5190D01*
X5200Y-2070D01*
X5108Y-2080D02*
X5140Y-2048D01*
X4890Y-2120D02*
X4940D01*
X4980Y-2080D02*
X5108D01*
X4940Y-2120D02*
X4980Y-2080D01*
X5162Y-1988D02*
X5200D01*
X5140Y-2010D02*
X5162Y-1988D01*
X5140Y-2048D02*
Y-2010D01*
X5200Y-2070D02*
Y-1988D01*
X4800Y-1710D02*
Y-1670D01*
X4780Y-1650D02*
X4800Y-1670D01*
X5100Y-1860D02*
Y-1780D01*
X5020Y-1700D02*
X5100Y-1780D01*
X5020Y-1700D02*
Y-1670D01*
X5100Y-1860D02*
X5150Y-1910D01*
X5220D01*
X5000Y-1650D02*
X5020Y-1670D01*
X5514Y-2066D02*
Y-1990D01*
X3410Y-2310D02*
X3590Y-2490D01*
X3370Y-2330D02*
X3550Y-2510D01*
X3270Y-2430D02*
X3350D01*
X3110Y-2270D02*
X3270Y-2430D01*
X3110Y-2270D02*
Y-2190D01*
X3290Y-2390D02*
X3370D01*
X3250Y-2350D02*
X3290Y-2390D01*
X3250Y-2350D02*
Y-2210D01*
X3270Y-2190D01*
X3350Y-2430D02*
X3470Y-2550D01*
X2910Y-2180D02*
Y-580D01*
Y-2180D02*
X3270Y-2540D01*
Y-2680D02*
Y-2540D01*
X3230Y-2720D02*
Y-2560D01*
X2870Y-2200D02*
X3230Y-2560D01*
X3190Y-2680D02*
Y-2580D01*
X3150Y-2720D02*
Y-2600D01*
X2750Y-460D02*
X2770Y-440D01*
Y-260D01*
X2910Y-580D02*
X2950Y-540D01*
Y-460D01*
X2930Y-440D02*
X2950Y-460D01*
X2930Y-440D02*
Y-260D01*
X2870Y-560D02*
X2910Y-520D01*
Y-480D01*
X2880Y-450D02*
X2910Y-480D01*
X2880Y-450D02*
Y-300D01*
X2790Y-480D02*
X2820Y-450D01*
Y-300D01*
X5280Y-1910D02*
X5370D01*
X5250Y-1880D02*
X5280Y-1910D01*
X5250Y-1880D02*
Y-1833D01*
Y-1988D02*
Y-1940D01*
X5220Y-1910D02*
X5250Y-1940D01*
X5153Y-1833D02*
X5200D01*
X4640D02*
Y-1680D01*
X4670Y-1650D01*
X4590Y-1833D02*
Y-1680D01*
X4560Y-1650D02*
X4590Y-1680D01*
X5300Y-1833D02*
Y-1680D01*
X5330Y-1650D01*
X5250Y-1833D02*
Y-1680D01*
X5220Y-1650D02*
X5250Y-1680D01*
X1320Y-510D02*
Y-440D01*
Y-510D02*
X1348Y-538D01*
X1410Y-422D02*
Y-265D01*
Y-425D02*
Y-422D01*
Y-538D02*
X1430D01*
X1348D02*
X1410D01*
X1790Y-1330D02*
X2390D01*
X2190Y-1315D02*
X2192Y-1312D01*
X1775Y-1315D02*
X1790Y-1330D01*
X2192Y-1312D02*
Y-1240D01*
X2320Y-1232D02*
X2327Y-1240D01*
X2320Y-1232D02*
Y-1150D01*
X3590Y-2690D02*
Y-2490D01*
X3550Y-2720D02*
Y-2510D01*
X3510Y-2690D02*
Y-2530D01*
X3370Y-2390D02*
X3510Y-2530D01*
X3470Y-2720D02*
Y-2550D01*
X3790Y-2720D02*
X3870Y-2640D01*
X3750Y-2670D02*
X3770Y-2650D01*
X3750Y-2690D02*
Y-2670D01*
X3710Y-2610D02*
X3730Y-2590D01*
X3670Y-2550D02*
X3690Y-2530D01*
X3670Y-2690D02*
Y-2550D01*
X3630Y-2490D02*
X3650Y-2470D01*
X3630Y-2720D02*
Y-2490D01*
X3390Y-2630D02*
X3410Y-2610D01*
X3390Y-2720D02*
Y-2630D01*
X3350Y-2570D02*
X3370Y-2550D01*
X3310Y-2510D02*
X3330Y-2490D01*
X3310Y-2720D02*
Y-2510D01*
X2670Y-2640D02*
Y-2640D01*
Y-2640D02*
X2750Y-2720D01*
X2890Y-2470D02*
X2910Y-2490D01*
Y-2720D02*
Y-2490D01*
X2850Y-2530D02*
X2870Y-2550D01*
Y-2690D02*
Y-2550D01*
X2810Y-2590D02*
X2830Y-2610D01*
Y-2720D02*
Y-2610D01*
X2790Y-2690D02*
Y-2670D01*
X2770Y-2650D02*
X2790Y-2670D01*
X2950Y-2520D02*
X2970Y-2500D01*
X2950Y-2690D02*
Y-2520D01*
X2990Y-2570D02*
X3010Y-2550D01*
X2990Y-2720D02*
Y-2570D01*
X3030Y-2630D02*
X3050Y-2610D01*
X3030Y-2690D02*
Y-2630D01*
X3070Y-2690D02*
X3090Y-2670D01*
X3070Y-2720D02*
Y-2690D01*
X4340Y-3720D02*
Y-3644D01*
X4291D02*
X4340D01*
X4210Y-3725D02*
X4291Y-3644D01*
X4055Y-3725D02*
X4210D01*
X4336Y-3560D02*
X4340Y-3556D01*
X4210Y-3560D02*
X4336D01*
X3900D02*
X4055D01*
X3590D02*
X3630Y-3600D01*
X3954Y-4070D02*
X3980D01*
X3914Y-4110D02*
X3954Y-4070D01*
X3840Y-4096D02*
Y-4010D01*
X3826Y-4110D02*
X3840Y-4096D01*
X4290Y-4083D02*
Y-4010D01*
X4090Y-4580D02*
X4172D01*
X3551Y-3991D02*
Y-3921D01*
X3550Y-3920D02*
X3551Y-3921D01*
X3510Y-4010D02*
Y-3950D01*
X795Y-547D02*
X810Y-562D01*
X795Y-547D02*
Y-495D01*
X2280Y-370D02*
X2320Y-410D01*
Y-490D02*
Y-410D01*
Y-980D02*
Y-820D01*
X2252Y-1047D02*
X2320Y-980D01*
X2150Y-584D02*
Y-510D01*
Y-584D02*
X2166Y-600D01*
X2030Y-836D02*
X2050Y-856D01*
X1830Y-440D02*
Y-392D01*
X1840Y-656D02*
Y-640D01*
X2030Y-836D02*
Y-780D01*
X2178Y-1047D02*
X2252D01*
X2320Y-1150D02*
Y-980D01*
X1585Y-1315D02*
Y-1295D01*
X1670Y-1210D01*
X1770D01*
X1844Y-1076D02*
X1920D01*
X1738Y-940D02*
X1750Y-927D01*
X1900D01*
X2124Y-1002D02*
X2178D01*
X2050Y-1076D02*
X2124Y-1002D01*
X1920Y-1076D02*
X2050D01*
X1920D02*
Y-947D01*
X1900Y-927D02*
X1920Y-947D01*
X2063Y-957D02*
X2178D01*
X2050Y-944D02*
X2063Y-957D01*
X1893Y-533D02*
Y-394D01*
X1895Y-392D01*
X1893Y-533D02*
X1920Y-560D01*
Y-592D02*
Y-582D01*
Y-560D01*
X2090Y-392D02*
X2097Y-399D01*
X2090Y-450D02*
Y-392D01*
X1980Y-740D02*
X2020Y-700D01*
X1952Y-740D02*
X1980D01*
X1900Y-792D02*
X1952Y-740D01*
X2020Y-700D02*
Y-658D01*
X2080Y-460D02*
X2090Y-450D01*
X2080Y-630D02*
Y-460D01*
X2052Y-658D02*
X2080Y-630D01*
X2020Y-658D02*
X2052D01*
X2020Y-500D02*
X2025Y-495D01*
X2020Y-592D02*
Y-582D01*
Y-500D01*
X2160Y-440D02*
Y-320D01*
X2254Y-600D02*
Y-534D01*
X2025Y-315D02*
X2050Y-290D01*
X2130D02*
X2160Y-320D01*
X2254Y-723D02*
Y-600D01*
X2248Y-730D02*
X2254Y-723D01*
X2160Y-440D02*
X2173Y-453D01*
X2173D01*
X2207Y-487D01*
Y-487D02*
Y-487D01*
Y-487D02*
X2254Y-534D01*
X2050Y-290D02*
X2130D01*
X1960Y-500D02*
X1970Y-510D01*
Y-592D02*
Y-582D01*
Y-510D01*
X2386Y-600D02*
Y-534D01*
X2165Y-260D02*
X2360D01*
X2410Y-310D01*
X2386Y-723D02*
Y-600D01*
Y-723D02*
X2392Y-730D01*
X1960Y-315D02*
X2031Y-244D01*
X2149D01*
X2165Y-260D01*
X2386Y-534D02*
X2410Y-510D01*
Y-310D01*
X2133Y-782D02*
Y-730D01*
Y-782D02*
X2178Y-828D01*
Y-867D02*
Y-828D01*
X2461Y-867D02*
Y-828D01*
X4158Y-4450D02*
X4288D01*
Y-4580D02*
Y-4450D01*
X4158Y-4330D02*
X4288D01*
X3230Y-3200D02*
X3270Y-3160D01*
X3270D01*
X3310Y-3200D02*
X3310D01*
X3270Y-3160D02*
X3310Y-3200D01*
X3150Y-3280D02*
Y-3280D01*
X3110Y-3320D02*
X3150Y-3280D01*
Y-3360D02*
Y-3360D01*
X3110Y-3320D02*
X3150Y-3360D01*
X3230Y-3440D02*
X3270Y-3480D01*
X3310Y-3440D02*
Y-3440D01*
X3270Y-3480D02*
X3310Y-3440D01*
X3390Y-3360D02*
X3390D01*
X3430Y-3320D01*
X3390Y-3280D02*
X3430Y-3320D01*
X3230Y-3280D02*
X3270Y-3240D01*
X3270D01*
X3310Y-3280D02*
Y-3280D01*
Y-3280D02*
X3350Y-3320D01*
X3270Y-3400D02*
X3310Y-3360D01*
X3190Y-3320D02*
X3230Y-3360D01*
X3030Y-3080D02*
X3070Y-3120D01*
X3470D02*
X3470D01*
X3510Y-3080D01*
X3550Y-3040D02*
Y-3040D01*
X3510Y-3080D02*
X3550Y-3040D01*
X3030Y-3560D02*
X3070Y-3520D01*
X2990Y-3600D02*
X3030Y-3560D01*
X3470Y-3520D02*
X3510Y-3560D01*
X3510D01*
X3510D02*
X3550Y-3600D01*
X3630Y-3680D02*
X3670Y-3720D01*
X3710Y-3760D01*
X3630Y-2960D02*
X3630D01*
X3670Y-2920D01*
X3710Y-2880D01*
X3110Y-3160D02*
X3150Y-3200D01*
X3110Y-3160D02*
Y-3160D01*
X3390Y-3200D02*
X3390D01*
X3430Y-3160D01*
X3390Y-3440D02*
X3430Y-3480D01*
X3110Y-3480D02*
X3150Y-3440D01*
X3110Y-3480D02*
Y-3480D01*
X3510Y-3000D02*
X3550Y-2960D01*
X3510Y-3000D02*
Y-3000D01*
X2990Y-2960D02*
X3030Y-3000D01*
X3590Y-3080D02*
X3630Y-3040D01*
X3590Y-3080D02*
Y-3080D01*
X3550Y-3680D02*
Y-3680D01*
X3510Y-3640D02*
X3550Y-3680D01*
X3790Y-3840D02*
X3830Y-3880D01*
X3790Y-2800D02*
X3790D01*
X2710Y-2760D02*
X2750Y-2800D01*
X3710Y-2720D02*
Y-2610D01*
X910Y-700D02*
Y-638D01*
X870Y-740D02*
X910Y-700D01*
X848Y-740D02*
X870D01*
X612D02*
X732D01*
X600Y-728D02*
X612Y-740D01*
X752Y-638D02*
X810D01*
X2460Y-1094D02*
X2461Y-1092D01*
X2550Y-937D02*
Y-900D01*
X2530Y-957D02*
X2550Y-937D01*
X2461Y-957D02*
X2530D01*
X3350Y-2680D02*
Y-2570D01*
X5270Y-4514D02*
X5290Y-4494D01*
Y-4210D01*
X5220Y-4140D02*
X5290Y-4210D01*
X4950Y-4140D02*
X5220D01*
X4930Y-4160D02*
X4950Y-4140D01*
X5331Y-4495D02*
X5350Y-4514D01*
X5328Y-4191D02*
X5331D01*
X5237Y-4099D02*
X5328Y-4191D01*
X5331Y-4495D02*
Y-4191D01*
X5239Y-4099D02*
X5331Y-4191D01*
X4899Y-4099D02*
X5237D01*
X4880Y-4080D02*
X4899Y-4099D01*
X4910Y-4140D02*
X4930Y-4160D01*
X4861Y-4099D02*
X4880Y-4080D01*
X4288Y-4330D02*
X4290Y-4333D01*
X1130Y-4494D02*
X1150Y-4514D01*
X1070D02*
X1089Y-4495D01*
X1150Y-4160D02*
X1170Y-4140D01*
X1370D01*
X1131Y-4099D02*
X1389D01*
X3470Y-4040D02*
Y-3920D01*
X3430Y-4000D02*
Y-3950D01*
X3410Y-4020D02*
X3430Y-4000D01*
X3390Y-3950D02*
Y-3920D01*
X3350Y-3990D02*
X3390Y-3950D01*
X3270Y-3990D02*
Y-3950D01*
X3870Y-3920D02*
X3914Y-3964D01*
Y-4110D02*
Y-3964D01*
X3986Y-2746D02*
X4060D01*
X3870Y-2720D02*
X3984Y-2834D01*
X4060D01*
X2036Y-1150D02*
X2050Y-1164D01*
X1990Y-1150D02*
X2036D01*
X1920Y-1164D02*
X1934Y-1150D01*
X1990D01*
X3790Y-3040D02*
X3830Y-3080D01*
X3870Y-3040D02*
X4050D01*
X4090Y-3000D01*
X3900Y-3080D02*
X4200D01*
X4280Y-3000D01*
X3790Y-3120D02*
X3790D01*
X3830Y-3160D01*
X1680Y-1085D02*
Y-1080D01*
X1770Y-1210D02*
X1820Y-1160D01*
Y-1100D01*
X1844Y-1076D01*
X1683Y-1112D02*
X1720Y-1150D01*
X1730D01*
X3219Y-1300D02*
X3225Y-1306D01*
X3180Y-1130D02*
X3199D01*
X3375Y-1054D02*
X3379Y-1050D01*
X3514D01*
X3520Y-1056D01*
X3401Y-1180D02*
Y-1130D01*
X3506D01*
X3520Y-1144D01*
X2490Y-2744D02*
X2576D01*
X2600Y-2720D01*
X2670D01*
X2406Y-2656D02*
X2490D01*
X1960Y-500D02*
Y-392D01*
Y-315D01*
X2025Y-495D02*
Y-392D01*
Y-315D01*
X795Y-495D02*
Y-390D01*
X2508Y-782D02*
Y-730D01*
X2461Y-828D02*
X2508Y-782D01*
X2460Y-586D02*
X2474Y-600D01*
X2460Y-586D02*
Y-540D01*
X1623Y-940D02*
Y-888D01*
X1730Y-780D01*
Y-630D02*
X1740Y-640D01*
X1840D01*
X1487Y-1413D02*
Y-903D01*
X1610Y-780D01*
Y-600D01*
X1500Y-490D02*
X1610Y-600D01*
X1500Y-490D02*
Y-205D01*
X1410Y-115D02*
X1500Y-205D01*
X732Y-793D02*
Y-740D01*
Y-793D02*
X770Y-830D01*
X910D01*
X1160Y-580D01*
Y-490D01*
X2410Y-2840D02*
X2640D01*
X2990Y-3040D02*
X3030Y-3080D01*
X2990Y-3600D02*
X2990D01*
X2240Y-3860D02*
Y-3830D01*
Y-3920D02*
Y-3860D01*
Y-3830D02*
X2310Y-3760D01*
X1460D02*
X1470Y-3750D01*
X1420Y-3800D02*
X1460Y-3760D01*
X2580Y-3360D02*
X2670D01*
X2380Y-3160D02*
X2580Y-3360D01*
X2080Y-3160D02*
X2380D01*
X2600Y-3320D02*
X2640D01*
X2400Y-3120D02*
X2600Y-3320D01*
X2030Y-3120D02*
X2400D01*
X2620Y-3280D02*
X2670D01*
X2420Y-3080D02*
X2620Y-3280D01*
X2010Y-3080D02*
X2420D01*
X2440Y-3040D02*
X2640Y-3240D01*
X1990Y-3040D02*
X2440D01*
X2470Y-3000D02*
X2670Y-3200D01*
X1970Y-3000D02*
X2470D01*
X2800Y-4484D02*
X2830Y-4514D01*
X2107Y-4671D02*
X2189D01*
X2108Y-4630D02*
X2170D01*
X1783Y-4670D02*
X1820Y-4708D01*
X1690Y-4670D02*
X1783D01*
X1640Y-4620D02*
X1690Y-4670D01*
X1783Y-4630D02*
X1820Y-4592D01*
X1710Y-4630D02*
X1783D01*
X1680Y-4600D02*
X1710Y-4630D01*
X1680Y-4600D02*
Y-4390D01*
X1389Y-4099D02*
X1680Y-4390D01*
X1640Y-4620D02*
Y-4410D01*
X1370Y-4140D02*
X1640Y-4410D01*
X1380Y-3680D02*
X1420Y-3640D01*
X1380Y-3760D02*
X1420Y-3800D01*
X2406Y-3836D02*
X2480D01*
X2586D01*
X2670Y-3920D01*
X2480Y-3924D02*
X2556D01*
X2869Y-4000D02*
Y-3950D01*
X2850Y-4019D02*
X2869Y-4000D01*
X2910Y-4020D02*
Y-3920D01*
X2870Y-4060D02*
X2910Y-4020D01*
X2800Y-4484D02*
Y-4230D01*
X1070Y-4160D02*
X1131Y-4099D01*
X1130Y-4494D02*
Y-4180D01*
X1150Y-4160D01*
X1089Y-4495D02*
Y-4179D01*
X1070Y-4160D02*
X1089Y-4179D01*
X2710Y-3880D02*
Y-3880D01*
X2750Y-3840D01*
X2950Y-3560D02*
X2950D01*
X2910Y-3600D02*
X2950Y-3560D01*
X3030Y-3640D02*
X3030D01*
X2990Y-3680D02*
X3030Y-3640D01*
X2910Y-3040D02*
X2950Y-3080D01*
X2830Y-2880D02*
X2870Y-2920D01*
Y-2920D01*
Y-2920D02*
X2910Y-2960D01*
X2830Y-3760D02*
X2870Y-3720D01*
X2830Y-3760D02*
X2830D01*
X2870Y-3720D02*
X2910Y-3680D01*
Y-3680D01*
X1820Y-4592D02*
X1823Y-4590D01*
X1952D01*
X1820Y-4838D02*
X1823Y-4840D01*
X1820Y-4838D02*
Y-4708D01*
X1823Y-4710D01*
X1952D01*
X2125Y-3525D02*
X2130Y-3520D01*
X2670D01*
X2125Y-3425D02*
X2215D01*
X2230Y-3440D01*
X2670D01*
X2125Y-3475D02*
X2205D01*
X2210Y-3480D01*
X2640D01*
X2125Y-3375D02*
X2225D01*
X2250Y-3400D01*
X2640D01*
X2299Y-3325D02*
X2300Y-3324D01*
X2055Y-3185D02*
X2080Y-3160D01*
X2055Y-3205D02*
Y-3185D01*
X2005Y-3145D02*
X2030Y-3120D01*
X2005Y-3205D02*
Y-3145D01*
X1955Y-3135D02*
X2010Y-3080D01*
X1955Y-3205D02*
Y-3135D01*
X1905Y-3125D02*
X1990Y-3040D01*
X1905Y-3205D02*
Y-3125D01*
X1855Y-3115D02*
X1970Y-3000D01*
X1855Y-3205D02*
Y-3115D01*
X2210Y-3560D02*
X2640D01*
X2195Y-3575D02*
X2210Y-3560D01*
X2125Y-3575D02*
X2195D01*
X2230Y-3600D02*
X2670D01*
X2205Y-3625D02*
X2230Y-3600D01*
X2125Y-3625D02*
X2205D01*
X2250Y-3640D02*
X2640D01*
X2150Y-3740D02*
X2250Y-3640D01*
X2080Y-3740D02*
X2150D01*
X2055Y-3715D02*
X2080Y-3740D01*
X2055Y-3715D02*
Y-3695D01*
X2270Y-3680D02*
X2670D01*
X2170Y-3780D02*
X2270Y-3680D01*
X2030Y-3780D02*
X2170D01*
X2005Y-3755D02*
X2030Y-3780D01*
X2005Y-3755D02*
Y-3695D01*
X2290Y-3720D02*
X2640D01*
X2190Y-3820D02*
X2290Y-3720D01*
X2310Y-3760D02*
X2670D01*
X1804Y-3030D02*
X1805Y-3031D01*
X1705Y-3041D02*
X1716Y-3030D01*
X2067Y-4590D02*
X2108Y-4630D01*
X2067Y-4710D02*
X2107Y-4671D01*
X1938Y-4840D02*
X2020D01*
X1630Y-4005D02*
X1773D01*
X1785Y-3993D01*
X1630Y-3875D02*
X1645Y-3860D01*
X1755Y-3858D02*
Y-3695D01*
X1752Y-3860D02*
X1755Y-3858D01*
X1645Y-3860D02*
X1752D01*
X1938Y-4460D02*
X2010D01*
X1820Y-4592D02*
Y-4462D01*
X1823Y-4460D01*
X1174Y-3560D02*
X1194Y-3540D01*
X1260D01*
X1275Y-3525D01*
X1635D01*
X1174Y-3440D02*
X1194Y-3460D01*
X1260D01*
X1275Y-3475D01*
X1635D01*
X1752Y-3860D02*
X2240D01*
X2390Y-1330D02*
X2590Y-1130D01*
X2461Y-1002D02*
X2552D01*
X2590Y-1040D01*
Y-1130D02*
Y-1040D01*
X2461Y-1092D02*
X2464Y-1090D01*
X2540D01*
X2950Y-620D02*
X2970Y-600D01*
X2950Y-2070D02*
Y-620D01*
Y-2070D02*
X3010Y-2130D01*
X3290D01*
X3370Y-2210D01*
Y-2330D02*
Y-2210D01*
X2990Y-740D02*
X3010Y-720D01*
X2990Y-2050D02*
Y-740D01*
Y-2050D02*
X3030Y-2090D01*
X3310D01*
X3410Y-2190D01*
Y-2310D02*
Y-2190D01*
X3030Y-2020D02*
Y-790D01*
Y-2020D02*
X3060Y-2050D01*
X3330D01*
X3450Y-2170D01*
Y-2290D02*
Y-2170D01*
Y-2290D02*
X3570Y-2410D01*
X3670D01*
X3840Y-2580D01*
X4326Y-1840D02*
X4340Y-1826D01*
Y-1770D01*
X5050Y-2162D02*
X5053Y-2160D01*
X4645Y-1490D02*
X5535Y-600D01*
X4250Y-1870D02*
X4290Y-1910D01*
X4550D01*
X4590Y-1950D01*
Y-1988D02*
Y-1950D01*
X4640Y-1833D02*
X4653Y-1820D01*
X4590Y-1880D02*
X4620Y-1910D01*
X4653Y-1820D02*
X4710D01*
X4720Y-1810D01*
X4730D01*
X4620Y-1910D02*
X4720D01*
X4780Y-1850D01*
X4640Y-1988D02*
X4642Y-1990D01*
X4690D01*
X2340Y-2770D02*
Y-2630D01*
Y-2770D02*
X2410Y-2840D01*
X2630Y-1990D02*
Y-1710D01*
X3870Y-2077D02*
Y-1990D01*
X3867Y-2080D02*
X3870Y-2077D01*
X3900Y-2580D02*
X3970Y-2650D01*
X3840Y-2580D02*
X3900D01*
X3070Y-1840D02*
X3130Y-1900D01*
X3790D01*
X3820Y-1930D01*
X3130Y-1180D02*
X3199D01*
X3130Y-1180D02*
X3130Y-1180D01*
X3150Y-1230D02*
X3199D01*
X3130Y-1250D02*
X3150Y-1230D01*
X3174Y-1306D02*
X3225D01*
X3070Y-1840D02*
Y-1144D01*
Y-1140D02*
X3090Y-1120D01*
X3189D01*
X3199Y-1130D01*
X3330Y-1180D02*
X3401D01*
X3520Y-1144D02*
X3586D01*
X2730Y-1250D02*
X2750Y-1230D01*
X2730Y-1250D02*
X2750Y-1270D01*
X2730Y-1250D02*
X2730D01*
X2790Y-1200D02*
X2810Y-1180D01*
X2850Y-1310D02*
X2870Y-1330D01*
X2850Y-1310D02*
X2850D01*
X2850D02*
X2870Y-1290D01*
Y-560D01*
X2790Y-1340D02*
X2830Y-1380D01*
Y-2220D02*
Y-1380D01*
X2790Y-1340D02*
Y-1200D01*
X2830Y-2220D02*
X3190Y-2580D01*
X2750Y-1360D02*
X2790Y-1400D01*
Y-2240D02*
Y-1400D01*
X2750Y-1360D02*
Y-1270D01*
X2790Y-2240D02*
X3150Y-2600D01*
X2790Y-520D02*
X2830Y-560D01*
Y-1160D02*
Y-560D01*
X2810Y-1180D02*
X2830Y-1160D01*
X2790Y-520D02*
Y-480D01*
X2750Y-540D02*
X2790Y-580D01*
X2750Y-1160D02*
X2790Y-1120D01*
X2750Y-1230D02*
Y-1160D01*
Y-540D02*
Y-460D01*
X2530Y-500D02*
X2642D01*
X2650Y-493D01*
X233Y-2770D02*
Y-2410D01*
X3474Y-1230D02*
X3520Y-1276D01*
X3401Y-1230D02*
X3474D01*
X3520Y-1364D02*
X3586D01*
X3520Y-1056D02*
X3524Y-1060D01*
X4250Y-1870D02*
Y-1610D01*
X4370Y-1490D01*
X4645D01*
D16*
X3656Y-1276D02*
X3660Y-1280D01*
X3520Y-1276D02*
X3656D01*
X3500Y-600D02*
X3501Y-599D01*
X3561D01*
X3570Y-590D01*
X3970Y-420D02*
Y-410D01*
X4089Y-499D02*
Y-469D01*
X4058Y-438D02*
X4089Y-469D01*
X3988Y-438D02*
X4058D01*
X3975Y-300D02*
X4148D01*
X4168Y-280D01*
X4170D01*
X3960Y-285D02*
X3975Y-300D01*
X4089Y-499D02*
X4090Y-500D01*
X3970Y-420D02*
X3988Y-438D01*
X4387Y-3320D02*
X4447Y-3380D01*
X860Y-490D02*
Y-390D01*
X925Y-495D02*
Y-390D01*
X952Y-638D02*
X990Y-600D01*
Y-480D02*
X1060D01*
X990Y-600D02*
Y-480D01*
Y-390D01*
Y-290D01*
X990Y-290D01*
X990Y-390D02*
X1010Y-370D01*
X1050D01*
X1662Y-392D02*
X1830D01*
X1640Y-370D02*
X1662Y-392D01*
X1630Y-360D02*
Y-125D01*
Y-360D02*
X1640Y-370D01*
X1630Y-125D02*
X1840D01*
X2080D01*
X2290D01*
X980Y-123D02*
X1190D01*
X740D02*
X980D01*
X530D02*
X740D01*
X530Y-358D02*
Y-123D01*
Y-358D02*
X540Y-367D01*
X1190Y-358D02*
Y-123D01*
X1180Y-367D02*
X1190Y-358D01*
X562Y-390D02*
X730D01*
Y-480D02*
Y-390D01*
X710Y-500D02*
X730Y-480D01*
X630Y-500D02*
X710D01*
X550D02*
Y-378D01*
X562Y-390D01*
X540Y-367D02*
X550Y-378D01*
Y-500D02*
X600D01*
X630D01*
X2140Y-4380D02*
Y-4304D01*
X3524Y-1060D02*
X3600D01*
D18*
X4020Y-4340D02*
X4042D01*
X3830Y-3160D02*
X3900D01*
X3830Y-3080D02*
X3900D01*
X3750Y-2760D02*
Y-2690D01*
X3670Y-2760D02*
Y-2690D01*
X3030Y-2760D02*
Y-2690D01*
Y-2760D02*
X3070Y-2800D01*
X2790Y-2760D02*
Y-2690D01*
Y-2760D02*
X2830Y-2800D01*
X2870Y-2760D02*
X2910Y-2800D01*
X2950Y-2760D02*
X2990Y-2800D01*
X3790Y-3600D02*
X3790D01*
X3830Y-3560D01*
X3900D01*
X3910Y-3800D02*
X3940Y-3830D01*
X3750Y-3800D02*
X3910D01*
X3510Y-3950D02*
Y-3880D01*
X3710Y-3840D02*
X3750Y-3800D01*
X3470Y-3840D02*
X3510Y-3880D01*
X3710Y-2800D02*
X3750Y-2760D01*
X3630Y-2800D02*
X3670Y-2760D01*
X3550Y-2800D02*
X3590Y-2760D01*
Y-2690D01*
X3470Y-2800D02*
X3510Y-2760D01*
Y-2690D01*
X2870Y-2760D02*
Y-2690D01*
X2950Y-2760D02*
Y-2690D01*
X3150Y-2800D02*
X3190Y-2760D01*
Y-2680D01*
X3230Y-2800D02*
X3270Y-2760D01*
Y-2680D01*
X3310Y-2800D02*
X3350Y-2760D01*
Y-2680D01*
X3430Y-3800D02*
X3470Y-3760D01*
X3430Y-3950D02*
Y-3800D01*
X3310Y-3840D02*
Y-3840D01*
X3270Y-3880D02*
X3310Y-3840D01*
X3270Y-3950D02*
Y-3880D01*
X2870Y-2840D02*
X2910Y-2880D01*
X2640Y-2840D02*
X2870D01*
X2910Y-2880D02*
Y-2880D01*
X2869Y-3801D02*
X2910Y-3760D01*
X2869Y-3950D02*
Y-3801D01*
X2640Y-3480D02*
X2710D01*
X2750Y-3440D01*
X2640Y-3400D02*
X2710D01*
X2750Y-3360D01*
X2710Y-3320D02*
X2750Y-3280D01*
X2640Y-3320D02*
X2710D01*
Y-3240D02*
X2750Y-3200D01*
X2640Y-3240D02*
X2710D01*
Y-3560D02*
X2750Y-3520D01*
X2640Y-3560D02*
X2710D01*
X2750Y-3600D02*
Y-3600D01*
X2710Y-3640D02*
X2750Y-3600D01*
X2640Y-3640D02*
X2710D01*
Y-3720D02*
X2750Y-3680D01*
X2640Y-3720D02*
X2710D01*
D21*
X5909Y-4067D02*
D03*
X5850D02*
D03*
X5791D02*
D03*
X90Y-4069D02*
D03*
X150D02*
D03*
X209D02*
D03*
D22*
X3430Y-675D02*
D03*
Y-925D02*
D03*
D23*
Y-725D02*
D03*
X3180Y-750D02*
D03*
X3430Y-775D02*
D03*
X3180Y-800D02*
D03*
X3430Y-825D02*
D03*
X3180Y-850D02*
D03*
X3430Y-875D02*
D03*
D24*
X3708Y-570D02*
D03*
X3572D02*
D03*
X3862D02*
D03*
X3997D02*
D03*
X5047Y-1980D02*
D03*
X4912D02*
D03*
X2327Y-1240D02*
D03*
X2192D02*
D03*
D25*
X3536Y-310D02*
D03*
X3624D02*
D03*
X5894Y-3910D02*
D03*
X5806D02*
D03*
X3404Y-310D02*
D03*
X3316D02*
D03*
X2474Y-2920D02*
D03*
X2386D02*
D03*
X2251Y-2760D02*
D03*
X2163D02*
D03*
X2163Y-2920D02*
D03*
X2251D02*
D03*
Y-2640D02*
D03*
X2163D02*
D03*
X1376Y-3410D02*
D03*
X1464D02*
D03*
X4896Y-1840D02*
D03*
X4984D02*
D03*
X5426Y-1990D02*
D03*
X5514D02*
D03*
X4414Y-1840D02*
D03*
X4326D02*
D03*
X3914Y-4110D02*
D03*
X3826D02*
D03*
X2254Y-600D02*
D03*
X2166D02*
D03*
X2386D02*
D03*
X2474D02*
D03*
X1174Y-3560D02*
D03*
X1086D02*
D03*
X1804Y-3030D02*
D03*
X1716D02*
D03*
X1174Y-3440D02*
D03*
X1086D02*
D03*
D26*
X3533Y-430D02*
D03*
X3647D02*
D03*
X3408D02*
D03*
X3292D02*
D03*
X4097Y-2360D02*
D03*
X3983D02*
D03*
X5167Y-2160D02*
D03*
X5053D02*
D03*
X4592Y-2100D02*
D03*
X4708D02*
D03*
X2027Y-1910D02*
D03*
X1912D02*
D03*
X848Y-740D02*
D03*
X732D02*
D03*
X4158Y-4450D02*
D03*
X4042D02*
D03*
X4172Y-4580D02*
D03*
X4288D02*
D03*
X4042Y-4330D02*
D03*
X4158D02*
D03*
X1738Y-940D02*
D03*
X1623D02*
D03*
X2133Y-730D02*
D03*
X2248D02*
D03*
X2508D02*
D03*
X2392D02*
D03*
X3867Y-2080D02*
D03*
X3753D02*
D03*
X1823Y-4840D02*
D03*
X1938D02*
D03*
X2067Y-4710D02*
D03*
X1952D02*
D03*
Y-4590D02*
D03*
X2067D02*
D03*
X1938Y-4460D02*
D03*
X1823D02*
D03*
D27*
X2140Y-4304D02*
D03*
Y-4216D02*
D03*
X390Y-4094D02*
D03*
Y-4006D02*
D03*
X3520Y-1276D02*
D03*
Y-1364D02*
D03*
X2490Y-2656D02*
D03*
Y-2744D02*
D03*
X4340Y-3644D02*
D03*
Y-3556D02*
D03*
X3520Y-1056D02*
D03*
Y-1144D02*
D03*
X1920Y-1076D02*
D03*
Y-1164D02*
D03*
X2050Y-1076D02*
D03*
Y-1164D02*
D03*
Y-944D02*
D03*
Y-856D02*
D03*
X4060Y-2834D02*
D03*
Y-2746D02*
D03*
X2300Y-3324D02*
D03*
Y-3236D02*
D03*
X1350Y-3284D02*
D03*
Y-3196D02*
D03*
X1470Y-3254D02*
D03*
Y-3166D02*
D03*
X1350Y-2976D02*
D03*
Y-3064D02*
D03*
X2480Y-3924D02*
D03*
Y-3836D02*
D03*
D28*
X1630Y-3875D02*
D03*
Y-4005D02*
D03*
X3960Y-285D02*
D03*
Y-415D02*
D03*
D29*
X266Y-1065D02*
D03*
Y-335D02*
D03*
X74Y-1065D02*
D03*
Y-335D02*
D03*
D30*
X345Y-925D02*
D03*
Y-475D02*
D03*
Y-775D02*
D03*
D31*
X2650Y-607D02*
D03*
Y-493D02*
D03*
X4290Y-4197D02*
D03*
Y-4083D02*
D03*
Y-4447D02*
D03*
Y-4333D02*
D03*
X1410Y-422D02*
D03*
Y-538D02*
D03*
X600Y-612D02*
D03*
Y-728D02*
D03*
X1820Y-4592D02*
D03*
Y-4708D02*
D03*
D32*
X5300Y-1988D02*
D03*
X5250D02*
D03*
X5200D02*
D03*
Y-1833D02*
D03*
X5250D02*
D03*
X5300D02*
D03*
X4540D02*
D03*
X4590D02*
D03*
X4640D02*
D03*
Y-1988D02*
D03*
X4590D02*
D03*
X4540D02*
D03*
D33*
X3225Y-1306D02*
D03*
X3275D02*
D03*
X3325D02*
D03*
X3375D02*
D03*
Y-1054D02*
D03*
X3325D02*
D03*
X3275D02*
D03*
X3225D02*
D03*
D34*
X3401Y-1230D02*
D03*
Y-1180D02*
D03*
Y-1130D02*
D03*
X3199D02*
D03*
Y-1180D02*
D03*
Y-1230D02*
D03*
D35*
X610Y-1880D02*
D03*
X730D02*
D03*
X850D02*
D03*
X970D02*
D03*
D36*
X483Y-1540D02*
D03*
X1097D02*
D03*
D37*
X4055Y-3725D02*
D03*
Y-3560D02*
D03*
X4210D02*
D03*
Y-3725D02*
D03*
D38*
X4510Y-3880D02*
D03*
Y-3780D02*
D03*
Y-3680D02*
D03*
Y-3580D02*
D03*
Y-3480D02*
D03*
Y-3380D02*
D03*
D39*
X4720Y-3980D02*
D03*
Y-3280D02*
D03*
D40*
X910Y-638D02*
D03*
X860D02*
D03*
X810D02*
D03*
Y-562D02*
D03*
X860D02*
D03*
X910D02*
D03*
X2020Y-658D02*
D03*
X1970D02*
D03*
X1920D02*
D03*
Y-582D02*
D03*
X1970D02*
D03*
X2020D02*
D03*
D41*
X3870Y-3920D02*
D03*
X3790D02*
D03*
X3710D02*
D03*
X3630D02*
D03*
X3550D02*
D03*
X3470D02*
D03*
X3390D02*
D03*
X3310D02*
D03*
X3230D02*
D03*
X3150D02*
D03*
X3070D02*
D03*
X2990D02*
D03*
X2910D02*
D03*
X2830D02*
D03*
X2750D02*
D03*
X2670D02*
D03*
X3870Y-3840D02*
D03*
X3790D02*
D03*
X3710D02*
D03*
X3630D02*
D03*
X3550D02*
D03*
X3470D02*
D03*
X3390D02*
D03*
X3310D02*
D03*
X3230D02*
D03*
X3150D02*
D03*
X3070D02*
D03*
X2990D02*
D03*
X2910D02*
D03*
X2830D02*
D03*
X2750D02*
D03*
X2670D02*
D03*
X3870Y-3760D02*
D03*
X3790D02*
D03*
X3710D02*
D03*
X3630D02*
D03*
X3550D02*
D03*
X3470D02*
D03*
X3390D02*
D03*
X3310D02*
D03*
X3230D02*
D03*
X3150D02*
D03*
X3070D02*
D03*
X2990D02*
D03*
X2910D02*
D03*
X2830D02*
D03*
X2750D02*
D03*
X2670D02*
D03*
X3870Y-3680D02*
D03*
X3790D02*
D03*
X3710D02*
D03*
X3630D02*
D03*
X3550D02*
D03*
X3470D02*
D03*
X3390D02*
D03*
X3310D02*
D03*
X3230D02*
D03*
X3150D02*
D03*
X3070D02*
D03*
X2990D02*
D03*
X2910D02*
D03*
X2830D02*
D03*
X2750D02*
D03*
X2670D02*
D03*
X3870Y-3600D02*
D03*
X3790D02*
D03*
X3710D02*
D03*
X3630D02*
D03*
X3550D02*
D03*
X3470D02*
D03*
X3390D02*
D03*
X3310D02*
D03*
X3230D02*
D03*
X3150D02*
D03*
X3070D02*
D03*
X2990D02*
D03*
X2910D02*
D03*
X2830D02*
D03*
X2750D02*
D03*
X2670D02*
D03*
X3870Y-3520D02*
D03*
X3790D02*
D03*
X3710D02*
D03*
X3630D02*
D03*
X3550D02*
D03*
X3470D02*
D03*
X3390D02*
D03*
X3310D02*
D03*
X3230D02*
D03*
X3150D02*
D03*
X3070D02*
D03*
X2990D02*
D03*
X2910D02*
D03*
X2830D02*
D03*
X2750D02*
D03*
X2670D02*
D03*
X3870Y-3440D02*
D03*
X3790D02*
D03*
X3710D02*
D03*
X3630D02*
D03*
X3550D02*
D03*
X3470D02*
D03*
X3390D02*
D03*
X3310D02*
D03*
X3230D02*
D03*
X3150D02*
D03*
X3070D02*
D03*
X2990D02*
D03*
X2910D02*
D03*
X2830D02*
D03*
X2750D02*
D03*
X2670D02*
D03*
X3870Y-3360D02*
D03*
X3790D02*
D03*
X3710D02*
D03*
X3630D02*
D03*
X3550D02*
D03*
X3470D02*
D03*
X3390D02*
D03*
X3310D02*
D03*
X3230D02*
D03*
X3150D02*
D03*
X3070D02*
D03*
X2990D02*
D03*
X2910D02*
D03*
X2830D02*
D03*
X2750D02*
D03*
X2670D02*
D03*
X3870Y-3280D02*
D03*
X3790D02*
D03*
X3710D02*
D03*
X3630D02*
D03*
X3550D02*
D03*
X3470D02*
D03*
X3390D02*
D03*
X3310D02*
D03*
X3230D02*
D03*
X3150D02*
D03*
X3070D02*
D03*
X2990D02*
D03*
X2910D02*
D03*
X2830D02*
D03*
X2750D02*
D03*
X2670D02*
D03*
X3870Y-3200D02*
D03*
X3790D02*
D03*
X3710D02*
D03*
X3630D02*
D03*
X3550D02*
D03*
X3470D02*
D03*
X3390D02*
D03*
X3310D02*
D03*
X3230D02*
D03*
X3150D02*
D03*
X3070D02*
D03*
X2990D02*
D03*
X2910D02*
D03*
X2830D02*
D03*
X2750D02*
D03*
X2670D02*
D03*
X3870Y-3120D02*
D03*
X3790D02*
D03*
X3710D02*
D03*
X3630D02*
D03*
X3550D02*
D03*
X3470D02*
D03*
X3390D02*
D03*
X3310D02*
D03*
X3230D02*
D03*
X3150D02*
D03*
X3070D02*
D03*
X2990D02*
D03*
X2910D02*
D03*
X2830D02*
D03*
X2750D02*
D03*
X2670D02*
D03*
X3870Y-3040D02*
D03*
X3790D02*
D03*
X3710D02*
D03*
X3630D02*
D03*
X3550D02*
D03*
X3470D02*
D03*
X3390D02*
D03*
X3310D02*
D03*
X3230D02*
D03*
X3150D02*
D03*
X3070D02*
D03*
X2990D02*
D03*
X2910D02*
D03*
X2830D02*
D03*
X2750D02*
D03*
X2670D02*
D03*
X3870Y-2960D02*
D03*
X3790D02*
D03*
X3710D02*
D03*
X3630D02*
D03*
X3550D02*
D03*
X3470D02*
D03*
X3390D02*
D03*
X3310D02*
D03*
X3230D02*
D03*
X3150D02*
D03*
X3070D02*
D03*
X2990D02*
D03*
X2910D02*
D03*
X2830D02*
D03*
X2750D02*
D03*
X2670D02*
D03*
X3870Y-2880D02*
D03*
X3790D02*
D03*
X3710D02*
D03*
X3630D02*
D03*
X3550D02*
D03*
X3470D02*
D03*
X3390D02*
D03*
X3310D02*
D03*
X3230D02*
D03*
X3150D02*
D03*
X3070D02*
D03*
X2990D02*
D03*
X2910D02*
D03*
X2830D02*
D03*
X2750D02*
D03*
X2670D02*
D03*
X3870Y-2800D02*
D03*
X3790D02*
D03*
X3710D02*
D03*
X3630D02*
D03*
X3550D02*
D03*
X3470D02*
D03*
X3390D02*
D03*
X3310D02*
D03*
X3230D02*
D03*
X3150D02*
D03*
X3070D02*
D03*
X2990D02*
D03*
X2910D02*
D03*
X2830D02*
D03*
X2750D02*
D03*
X2670D02*
D03*
X3870Y-2720D02*
D03*
X3790D02*
D03*
X3710D02*
D03*
X3630D02*
D03*
X3550D02*
D03*
X3470D02*
D03*
X3390D02*
D03*
X3310D02*
D03*
X3230D02*
D03*
X3150D02*
D03*
X3070D02*
D03*
X2990D02*
D03*
X2910D02*
D03*
X2830D02*
D03*
X2750D02*
D03*
X2670D02*
D03*
D42*
X740Y-123D02*
D03*
X980D02*
D03*
X2080Y-125D02*
D03*
X1840D02*
D03*
D43*
X540Y-367D02*
D03*
X1180D02*
D03*
X2280Y-370D02*
D03*
X1640D02*
D03*
D44*
X860Y-390D02*
D03*
X925D02*
D03*
X990D02*
D03*
X730D02*
D03*
X795D02*
D03*
X1895Y-392D02*
D03*
X1830D02*
D03*
X2090D02*
D03*
X2025D02*
D03*
X1960D02*
D03*
D45*
X233Y-3430D02*
D03*
X88D02*
D03*
X233Y-3790D02*
D03*
X88D02*
D03*
X233Y-2410D02*
D03*
X88D02*
D03*
X233Y-2770D02*
D03*
X88D02*
D03*
D46*
X1900Y-927D02*
D03*
Y-792D02*
D03*
D47*
X4560Y-1650D02*
D03*
X4670D02*
D03*
X4780D02*
D03*
X4890D02*
D03*
X5000D02*
D03*
X5110D02*
D03*
X5220D02*
D03*
X5330D02*
D03*
X5425D02*
D03*
D48*
X4405D02*
D03*
X5520Y-1220D02*
D03*
D49*
X5535Y-600D02*
D03*
D50*
X5520Y-190D02*
D03*
D51*
X4185Y-140D02*
D03*
D52*
X1410Y-115D02*
D03*
Y-265D02*
D03*
X1730Y-780D02*
D03*
Y-630D02*
D03*
D53*
X1680Y-1085D02*
D03*
X1775Y-1315D02*
D03*
X1585D02*
D03*
D54*
X2178Y-867D02*
D03*
Y-912D02*
D03*
Y-957D02*
D03*
Y-1002D02*
D03*
Y-1047D02*
D03*
Y-1092D02*
D03*
X2461Y-867D02*
D03*
Y-912D02*
D03*
Y-957D02*
D03*
Y-1002D02*
D03*
Y-1047D02*
D03*
Y-1092D02*
D03*
D55*
X2320Y-980D02*
D03*
D56*
X4090Y-3000D02*
D03*
X4660D02*
D03*
X4280D02*
D03*
D57*
X4470D02*
D03*
D58*
X-170Y-1360D02*
D03*
Y-1610D02*
D03*
Y-1860D02*
D03*
Y-2110D02*
D03*
D59*
X1785Y-4247D02*
D03*
Y-3993D02*
D03*
X2015D02*
D03*
Y-4247D02*
D03*
D60*
X1705Y-3695D02*
D03*
X1755D02*
D03*
X1805D02*
D03*
X1855D02*
D03*
X1905D02*
D03*
X1955D02*
D03*
X2005D02*
D03*
X2055D02*
D03*
Y-3205D02*
D03*
X2005D02*
D03*
X1955D02*
D03*
X1905D02*
D03*
X1855D02*
D03*
X1805D02*
D03*
X1755D02*
D03*
X1705D02*
D03*
D61*
X2125Y-3625D02*
D03*
Y-3575D02*
D03*
Y-3525D02*
D03*
Y-3475D02*
D03*
Y-3425D02*
D03*
Y-3375D02*
D03*
Y-3325D02*
D03*
Y-3275D02*
D03*
X1635D02*
D03*
Y-3325D02*
D03*
Y-3375D02*
D03*
Y-3425D02*
D03*
Y-3475D02*
D03*
Y-3525D02*
D03*
Y-3575D02*
D03*
Y-3625D02*
D03*
D62*
X1880Y-3450D02*
D03*
D63*
X1420Y-3640D02*
D03*
Y-3800D02*
D03*
X1190Y-3280D02*
D03*
Y-3120D02*
D03*
D64*
X1840Y-2870D02*
D03*
X1680D02*
D03*
D65*
X2240Y-3920D02*
D03*
D131*
X169Y-4001D02*
X397D01*
X3320Y-170D02*
X3470D01*
X3180Y-310D02*
X3320Y-170D01*
X3180Y-750D02*
Y-310D01*
X3810Y-1570D02*
Y-1530D01*
X3790Y-1510D02*
X3810Y-1530D01*
X3790Y-1510D02*
Y-1020D01*
X3760Y-990D02*
X3790Y-1020D01*
X3818Y-1588D02*
Y-1582D01*
X3810Y-1574D02*
X3818Y-1582D01*
X3810Y-1574D02*
Y-1570D01*
X3740Y-1580D02*
X3850Y-1690D01*
X3740Y-1580D02*
Y-1540D01*
Y-1040D01*
X3625Y-925D02*
X3740Y-1040D01*
X4380Y-2500D02*
Y-2150D01*
X4300Y-2580D02*
X4380Y-2500D01*
X4254Y-2580D02*
X4300D01*
X4336Y-2474D02*
Y-2176D01*
X4280Y-2530D02*
X4336Y-2474D01*
X4235Y-2530D02*
X4280D01*
X4180Y-2654D02*
X4254Y-2580D01*
X4180Y-2700D02*
Y-2654D01*
X3855Y-1695D02*
X4336Y-2176D01*
X3818Y-1588D02*
X4380Y-2150D01*
X4120Y-2650D02*
Y-2645D01*
X3645Y-875D02*
X3758Y-988D01*
X3430Y-875D02*
X3645D01*
X3430Y-925D02*
X3625D01*
X3180Y-850D02*
Y-800D01*
Y-750D01*
X3430Y-675D02*
Y-630D01*
X3180Y-850D02*
X3195D01*
X3197Y-853D01*
X3353Y-856D02*
Y-775D01*
X3255Y-925D02*
X3430D01*
X3372Y-875D02*
X3430D01*
X3353Y-775D02*
X3430D01*
X3353Y-856D02*
X3372Y-875D01*
X3197Y-867D02*
Y-853D01*
Y-867D02*
X3255Y-925D01*
X3440Y-570D02*
X3470Y-540D01*
X3400Y-570D02*
X3440D01*
X3353Y-618D02*
X3400Y-570D01*
X3353Y-775D02*
Y-618D01*
X3470Y-430D02*
X3533D01*
X3408D02*
X3470D01*
Y-540D02*
Y-430D01*
Y-170D02*
X3710D01*
X3470Y-300D02*
Y-170D01*
X3710D02*
X3750Y-210D01*
Y-300D02*
Y-210D01*
X3414Y-300D02*
X3470D01*
X3404Y-310D02*
X3414Y-300D01*
X3470D02*
X3526D01*
X3536Y-310D01*
X475Y-4064D02*
Y-3085D01*
X445Y-4094D02*
X475Y-4064D01*
X390Y-4094D02*
X445D01*
X234D02*
X390D01*
X420Y-3976D02*
Y-3062D01*
X407Y-3990D02*
X420Y-3976D01*
X407Y-3991D02*
Y-3990D01*
X397Y-4001D02*
X407Y-3991D01*
X220Y-4080D02*
X234Y-4094D01*
X209Y-4080D02*
X220D01*
X209Y-4079D02*
X209Y-4080D01*
X209Y-4079D02*
Y-4069D01*
X5890Y-3906D02*
Y-3830D01*
Y-3906D02*
X5894Y-3910D01*
X5790Y-3875D02*
Y-3830D01*
Y-3875D02*
X5791Y-3877D01*
Y-3895D02*
Y-3877D01*
Y-3895D02*
X5806Y-3910D01*
X5820Y-3961D02*
X5850Y-3991D01*
X5820Y-3961D02*
Y-3924D01*
X5806Y-3910D02*
X5820Y-3924D01*
X5850Y-4067D02*
Y-3991D01*
X5894Y-3922D02*
Y-3920D01*
Y-3922D02*
X5909Y-3937D01*
Y-4067D02*
Y-3937D01*
X4120Y-2645D02*
X4235Y-2530D01*
X2120Y-2040D02*
X2600Y-1560D01*
X2620Y-1540D02*
X2680D01*
X2600Y-1560D02*
X2620Y-1540D01*
X2625Y-1605D02*
X2730D01*
X2130Y-2100D02*
X2625Y-1605D01*
X1725Y-2100D02*
X2130D01*
X1705Y-2040D02*
X2120D01*
X1435Y-2390D02*
X1725Y-2100D01*
X1415Y-2330D02*
X1705Y-2040D01*
X1170Y-2390D02*
X1435D01*
X475Y-3085D02*
X1170Y-2390D01*
X1152Y-2330D02*
X1415D01*
X420Y-3062D02*
X1152Y-2330D01*
X150Y-4021D02*
X169Y-4001D01*
X150Y-4069D02*
Y-4021D01*
X1895Y-2925D02*
X1904Y-2934D01*
X1890Y-2925D02*
X1895D01*
X1840Y-2875D02*
X1890Y-2925D01*
X1840Y-2875D02*
Y-2870D01*
X1822Y-3000D02*
X1870D01*
X1819Y-2997D02*
X1822Y-3000D01*
X1820Y-2890D02*
X1840Y-2870D01*
X1820Y-2995D02*
Y-2890D01*
X1819Y-2997D02*
X1820Y-2995D01*
X1819Y-3015D02*
Y-2997D01*
X1804Y-3030D02*
X1819Y-3015D01*
X1700Y-2995D02*
Y-2890D01*
X1680Y-2870D02*
X1700Y-2890D01*
Y-2995D02*
X1701Y-2997D01*
Y-3015D02*
Y-2997D01*
Y-3015D02*
X1716Y-3030D01*
X1635Y-3425D02*
X1855D01*
X1650Y-2900D02*
X1680Y-2870D01*
X1350Y-3064D02*
X1365Y-3079D01*
X1383D01*
X1453Y-3149D01*
Y-3151D02*
Y-3149D01*
Y-3151D02*
X1468Y-3166D01*
X1470D01*
X1604Y-3275D02*
Y-3269D01*
X1516Y-3181D02*
X1604Y-3269D01*
X1485Y-3181D02*
X1516D01*
X1470Y-3166D02*
X1485Y-3181D01*
X1604Y-3275D02*
X1635D01*
X1239Y-3231D02*
X1279D01*
X1190Y-3280D02*
X1239Y-3231D01*
X1279D02*
X1299Y-3211D01*
X1335D01*
X1350Y-3196D01*
X1423Y-3239D02*
X1455D01*
X1470Y-3254D01*
X1394Y-3210D02*
X1423Y-3239D01*
X1364Y-3210D02*
X1394D01*
X1350Y-3196D02*
X1364Y-3210D01*
X1190Y-3120D02*
X1195D01*
X1251Y-3064D01*
X1350D01*
X1470Y-3254D02*
X1472D01*
X1487Y-3269D01*
Y-3271D02*
Y-3269D01*
Y-3271D02*
X1541Y-3325D01*
X1635D01*
X1467Y-3353D02*
X1470Y-3350D01*
X1467Y-3407D02*
Y-3353D01*
X1464Y-3410D02*
X1467Y-3407D01*
X1464Y-3410D02*
X1540D01*
X1575Y-3375D01*
X1635D01*
X1555Y-3575D02*
X1635D01*
X1755D01*
X1805Y-3304D02*
Y-3205D01*
X910Y-638D02*
X952D01*
X1600Y-3650D02*
X1625Y-3625D01*
X1635D01*
X1540Y-3590D02*
X1555Y-3575D01*
X2195Y-3275D02*
X2234Y-3236D01*
X2125Y-3275D02*
X2195D01*
X1755Y-3290D02*
Y-3205D01*
X2125Y-3325D02*
X2299D01*
X1805Y-3205D02*
Y-3031D01*
X1705Y-3205D02*
Y-3041D01*
D132*
X3660Y-1280D02*
Y-1120D01*
Y-1720D02*
Y-1280D01*
Y-1720D02*
X3750Y-1810D01*
X3600Y-1060D02*
X3660Y-1120D01*
X1988Y-4020D02*
X2010Y-4042D01*
X1908Y-1905D02*
X1912Y-1910D01*
X1830Y-1900D02*
X1871D01*
X1876Y-1905D01*
X1908D01*
X2107Y-2920D02*
X2163D01*
X2163Y-2920D01*
X2251Y-2640D02*
Y-2580D01*
X2163Y-2640D02*
Y-2580D01*
X2163Y-2640D02*
X2163Y-2640D01*
X2163Y-2760D02*
Y-2640D01*
X2474Y-2920D02*
X2530D01*
X2251D02*
X2386D01*
X2251Y-2920D02*
X2251Y-2920D01*
X2251Y-2920D02*
Y-2760D01*
X2251Y-2760D01*
Y-2640D01*
X1352Y-2976D02*
X1379Y-2949D01*
X1474D01*
X1350Y-2976D02*
X1352D01*
X1800Y-2910D02*
X1820Y-2890D01*
X2460Y-4190D02*
X2530Y-4120D01*
X2338Y-4312D02*
X2460Y-4190D01*
X2010Y-4124D02*
Y-4042D01*
X100Y-3600D02*
Y-3442D01*
X88Y-3430D02*
X100Y-3442D01*
Y-3778D02*
Y-3600D01*
X88Y-3790D02*
X100Y-3778D01*
Y-2758D02*
Y-2590D01*
X88Y-2770D02*
X100Y-2758D01*
Y-2590D02*
Y-2423D01*
X88Y-2410D02*
X100Y-2423D01*
X2530Y-4120D02*
X2900D01*
X2338Y-4340D02*
Y-4312D01*
X1360Y-3780D02*
X1380Y-3760D01*
X4912Y-2058D02*
Y-1980D01*
X5040Y-1973D02*
Y-1880D01*
Y-1973D02*
X5047Y-1980D01*
X5000Y-1840D02*
X5040Y-1880D01*
X4984Y-1840D02*
X5000D01*
X4896Y-1964D02*
X4912Y-1980D01*
X4896Y-1964D02*
Y-1840D01*
X4890Y-1834D02*
X4896Y-1840D01*
X4890Y-1834D02*
Y-1650D01*
X1460Y-3760D02*
X1550D01*
X1600Y-3710D01*
Y-3650D01*
X1420Y-3640D02*
X1460Y-3600D01*
X2234Y-3236D02*
X2300D01*
X2900Y-4120D02*
X2980Y-4040D01*
Y-4010D01*
X2300Y-3324D02*
X2366D01*
X1010Y-3560D02*
X1086D01*
X1010Y-3440D02*
X1086D01*
X2300Y-3236D02*
X2366D01*
X1785Y-4247D02*
X2015D01*
X1988Y-4020D02*
X2015Y-3993D01*
Y-4247D02*
X2046Y-4216D01*
X2110Y-4040D02*
X2140Y-4070D01*
X1340Y-3760D02*
X1360Y-3780D01*
X1260Y-3760D02*
X1340D01*
X1840Y-2870D02*
X1880Y-2910D01*
X2046Y-4216D02*
X2140D01*
Y-4070D01*
X4185Y-140D02*
X4350D01*
X4350Y-140D01*
X5430Y-190D02*
X5520D01*
Y-1220D02*
Y-1120D01*
D133*
X265Y-775D02*
X355D01*
X358Y-772D01*
X220Y-730D02*
X265Y-775D01*
X790Y-990D02*
X850D01*
X730D02*
X790D01*
X488Y-772D02*
X490Y-770D01*
X355Y-925D02*
X665D01*
X730Y-990D01*
X358Y-772D02*
X488D01*
D134*
X970Y-1880D02*
Y-1650D01*
X968Y-2060D02*
X970Y-2058D01*
Y-1880D01*
X610Y-1876D02*
Y-1770D01*
Y-1880D02*
X612Y-1878D01*
X610Y-1970D02*
Y-1880D01*
X610Y-1880D02*
X610Y-1880D01*
X5425Y-1650D02*
Y-1555D01*
X4405Y-1650D02*
Y-1555D01*
X5110Y-1650D02*
Y-1550D01*
D135*
X5851Y-4208D02*
D03*
X150Y-4210D02*
D03*
D136*
X170Y-850D02*
D03*
Y-550D02*
D03*
D137*
X730Y-4514D02*
D03*
X650D02*
D03*
X815D02*
D03*
X860Y-4424D02*
D03*
X770D02*
D03*
X1030D02*
D03*
X940D02*
D03*
X985Y-4514D02*
D03*
X1150D02*
D03*
X1070D02*
D03*
X3170D02*
D03*
X3250D02*
D03*
X3085D02*
D03*
X3040Y-4424D02*
D03*
X3130D02*
D03*
X2870D02*
D03*
X2960D02*
D03*
X2915Y-4514D02*
D03*
X2750D02*
D03*
X2830D02*
D03*
X5270D02*
D03*
X5350D02*
D03*
X5185D02*
D03*
X5140Y-4424D02*
D03*
X5230D02*
D03*
X4970D02*
D03*
X5060D02*
D03*
X5015Y-4514D02*
D03*
X4850D02*
D03*
X4930D02*
D03*
D138*
X1220Y-4424D02*
D03*
X580D02*
D03*
X2680D02*
D03*
X3320D02*
D03*
X4780D02*
D03*
X5420D02*
D03*
D139*
X555Y-4310D02*
D03*
X1245D02*
D03*
X3345D02*
D03*
X2655D02*
D03*
X5445D02*
D03*
X4755D02*
D03*
D140*
X453Y-4270D02*
D03*
X1348D02*
D03*
X3447D02*
D03*
X2552D02*
D03*
X5547D02*
D03*
X4652D02*
D03*
D141*
X1507Y-4504D02*
D03*
X292D02*
D03*
X1507Y-4890D02*
D03*
X292Y-4880D02*
D03*
X2392D02*
D03*
X3607Y-4890D02*
D03*
X2392Y-4504D02*
D03*
X3607D02*
D03*
X4492Y-4880D02*
D03*
X5707Y-4890D02*
D03*
X4492Y-4504D02*
D03*
X5707D02*
D03*
D142*
X530Y-123D02*
D03*
X1190D02*
D03*
X2290Y-125D02*
D03*
X1630D02*
D03*
D143*
X1921Y-2317D02*
D03*
X5823Y-181D02*
D03*
D144*
X3850Y-1480D02*
D03*
X2420Y-80D02*
D03*
X3850Y-300D02*
D03*
X3810Y-1570D02*
D03*
X3740Y-1540D02*
D03*
X3920Y-690D02*
D03*
X3538Y-750D02*
D03*
X3830Y-660D02*
D03*
X3500Y-600D02*
D03*
X4090Y-500D02*
D03*
X4180Y-2700D02*
D03*
X4120Y-2650D02*
D03*
X3430Y-630D02*
D03*
X5700Y-3880D02*
D03*
X690Y-4050D02*
D03*
X5890Y-3830D02*
D03*
X5790D02*
D03*
X490Y-770D02*
D03*
X220Y-730D02*
D03*
X850Y-990D02*
D03*
X790D02*
D03*
X730D02*
D03*
X4370Y-3880D02*
D03*
X4810Y-3740D02*
D03*
X4740Y-3897D02*
D03*
X4700Y-3556D02*
D03*
X4652Y-3897D02*
D03*
X4650Y-3780D02*
D03*
Y-3670D02*
D03*
X5791Y-3610D02*
D03*
X4360Y-3230D02*
D03*
X4050Y-2650D02*
D03*
X4290Y-2692D02*
D03*
X4150Y-2870D02*
D03*
X2730Y-1480D02*
D03*
X2680Y-1540D02*
D03*
X2730Y-1605D02*
D03*
X1830Y-1900D02*
D03*
X2110Y-1910D02*
D03*
X2460D02*
D03*
X3410Y-510D02*
D03*
X5015Y-3355D02*
D03*
X4387Y-3320D02*
D03*
X4835Y-3355D02*
D03*
X4839Y-2920D02*
D03*
X5130D02*
D03*
X2107Y-2920D02*
D03*
X2251Y-2580D02*
D03*
X2163D02*
D03*
X2530Y-2920D02*
D03*
X2150Y-2840D02*
D03*
X2410Y-2746D02*
D03*
X1280Y-2810D02*
D03*
X1474Y-2949D02*
D03*
X1600Y-3064D02*
D03*
Y-3152D02*
D03*
X953Y-3010D02*
D03*
X1610Y-2500D02*
D03*
X1470Y-2610D02*
D03*
X970Y-2350D02*
D03*
Y-2150D02*
D03*
X1218D02*
D03*
X1175Y-2960D02*
D03*
X953Y-3214D02*
D03*
X1526Y-2789D02*
D03*
X1870Y-3000D02*
D03*
X1567Y-1870D02*
D03*
X970Y-1650D02*
D03*
X610Y-1770D02*
D03*
X610Y-1970D02*
D03*
X1068Y-2060D02*
D03*
X1318Y-2150D02*
D03*
X2300Y-1710D02*
D03*
X2290Y-4100D02*
D03*
X2010Y-4124D02*
D03*
X100Y-3600D02*
D03*
Y-2590D02*
D03*
X2370Y-4030D02*
D03*
X2460Y-4190D02*
D03*
X2338Y-4340D02*
D03*
X1350Y-3350D02*
D03*
X1470D02*
D03*
X484Y-1110D02*
D03*
X5050Y-2240D02*
D03*
X3930Y-2920D02*
D03*
X4250Y-2460D02*
D03*
X4170D02*
D03*
X4215Y-3465D02*
D03*
X3830Y-2760D02*
D03*
X-340Y-2050D02*
D03*
Y-2170D02*
D03*
X-280Y-2110D02*
D03*
X-220Y-2050D02*
D03*
Y-2170D02*
D03*
X-160Y-2110D02*
D03*
X-100Y-2050D02*
D03*
Y-2170D02*
D03*
X-40Y-2110D02*
D03*
X20Y-2170D02*
D03*
Y-2050D02*
D03*
Y-2110D02*
D03*
X-100D02*
D03*
X-220D02*
D03*
X-340D02*
D03*
X-40Y-2050D02*
D03*
X-160D02*
D03*
X-280D02*
D03*
X-40Y-2170D02*
D03*
X-160D02*
D03*
X-280D02*
D03*
X-340Y-1550D02*
D03*
Y-1670D02*
D03*
X-280Y-1610D02*
D03*
X-220Y-1550D02*
D03*
Y-1670D02*
D03*
X-160Y-1610D02*
D03*
X-100Y-1550D02*
D03*
Y-1670D02*
D03*
X-40Y-1610D02*
D03*
X20Y-1670D02*
D03*
Y-1550D02*
D03*
Y-1610D02*
D03*
X-100D02*
D03*
X-220D02*
D03*
X-340D02*
D03*
X-40Y-1550D02*
D03*
X-160D02*
D03*
X-280D02*
D03*
X-40Y-1670D02*
D03*
X-160D02*
D03*
X-280D02*
D03*
X-340Y-1860D02*
D03*
X-220D02*
D03*
X-100D02*
D03*
X20D02*
D03*
X-280Y-1920D02*
D03*
X-160D02*
D03*
X-40D02*
D03*
X-280Y-1800D02*
D03*
X-160D02*
D03*
X-40D02*
D03*
X-280Y-1420D02*
D03*
X-160D02*
D03*
X-40D02*
D03*
X-280Y-1300D02*
D03*
X-160D02*
D03*
X-40D02*
D03*
X-340Y-1360D02*
D03*
X-220D02*
D03*
X-100D02*
D03*
X20D02*
D03*
X2086Y-2701D02*
D03*
X1655Y-2600D02*
D03*
X1524Y-2701D02*
D03*
X2700Y-780D02*
D03*
X4710Y-2210D02*
D03*
X3750Y-1990D02*
D03*
Y-1810D02*
D03*
X5370Y-1833D02*
D03*
Y-1910D02*
D03*
X5260Y-2080D02*
D03*
X5180D02*
D03*
X4912Y-2058D02*
D03*
X5040Y-1880D02*
D03*
X5514Y-2066D02*
D03*
X5426Y-2066D02*
D03*
X3190Y-1990D02*
D03*
X3270Y-2190D02*
D03*
X3110D02*
D03*
X3010Y-2200D02*
D03*
X2730Y-2260D02*
D03*
X5425Y-1555D02*
D03*
X4405D02*
D03*
X5110Y-1550D02*
D03*
X5153Y-1833D02*
D03*
X2850Y-500D02*
D03*
X2670Y-300D02*
D03*
X3070D02*
D03*
X3470D02*
D03*
X3750D02*
D03*
X4250Y-500D02*
D03*
X4170D02*
D03*
X4250Y-280D02*
D03*
X4170D02*
D03*
X4060Y-230D02*
D03*
X3670D02*
D03*
X3390D02*
D03*
X2590D02*
D03*
X2820Y-300D02*
D03*
X2880D02*
D03*
X2770Y-260D02*
D03*
X2930D02*
D03*
X2710Y-230D02*
D03*
X2990D02*
D03*
X1320Y-440D02*
D03*
X1318Y-2060D02*
D03*
X1218D02*
D03*
X968D02*
D03*
X20Y-1800D02*
D03*
X-100Y-1920D02*
D03*
Y-1800D02*
D03*
X-160Y-1860D02*
D03*
X20Y-1920D02*
D03*
X-40Y-1860D02*
D03*
X-220Y-1920D02*
D03*
Y-1800D02*
D03*
X-280Y-1860D02*
D03*
X-340Y-1920D02*
D03*
Y-1800D02*
D03*
X20Y-1300D02*
D03*
Y-1420D02*
D03*
X-40Y-1360D02*
D03*
X-100Y-1420D02*
D03*
Y-1300D02*
D03*
X-160Y-1360D02*
D03*
X-220Y-1420D02*
D03*
Y-1300D02*
D03*
X-280Y-1360D02*
D03*
X-340Y-1420D02*
D03*
Y-1300D02*
D03*
X3470Y-1990D02*
D03*
X4190Y-2260D02*
D03*
X4070D02*
D03*
X3990D02*
D03*
X3870D02*
D03*
X3670D02*
D03*
X3710Y-2190D02*
D03*
X3590Y-2190D02*
D03*
X3550Y-2260D02*
D03*
X3310D02*
D03*
X2510D02*
D03*
X2670Y-2190D02*
D03*
X2510D02*
D03*
X3870Y-2640D02*
D03*
X3770Y-2650D02*
D03*
X3730Y-2590D02*
D03*
X3690Y-2530D02*
D03*
X3650Y-2470D02*
D03*
X3410Y-2610D02*
D03*
X3370Y-2550D02*
D03*
X3330Y-2490D02*
D03*
X2670Y-2640D02*
D03*
X2890Y-2470D02*
D03*
X2850Y-2530D02*
D03*
X2810Y-2590D02*
D03*
X2770Y-2650D02*
D03*
X2970Y-2500D02*
D03*
X3010Y-2550D02*
D03*
X3050Y-2610D02*
D03*
X3090Y-2670D02*
D03*
X5226Y-3706D02*
D03*
X5226Y-3794D02*
D03*
X5894Y-3446D02*
D03*
X4340Y-3720D02*
D03*
X3590Y-3560D02*
D03*
X3980Y-4070D02*
D03*
X3840Y-4010D02*
D03*
X4290D02*
D03*
X3940Y-3830D02*
D03*
X4090Y-4580D02*
D03*
X925Y-495D02*
D03*
X860Y-490D02*
D03*
X795Y-495D02*
D03*
X2320Y-490D02*
D03*
X2150Y-510D02*
D03*
X2320Y-820D02*
D03*
X2030Y-780D02*
D03*
X1840Y-640D02*
D03*
X2320Y-1150D02*
D03*
X3270Y-3160D02*
D03*
X3110Y-3320D02*
D03*
X3270Y-3480D02*
D03*
X3430Y-3320D02*
D03*
X3270Y-3240D02*
D03*
X3350Y-3320D02*
D03*
X3270Y-3400D02*
D03*
X3190Y-3320D02*
D03*
X3510Y-3080D02*
D03*
Y-3560D02*
D03*
X3670Y-3720D02*
D03*
Y-2920D02*
D03*
X3110Y-3160D02*
D03*
X3430D02*
D03*
Y-3480D02*
D03*
X3110D02*
D03*
X3510Y-3000D02*
D03*
X3590Y-3080D02*
D03*
X3510Y-3640D02*
D03*
X3830Y-3880D02*
D03*
X3030Y-3480D02*
D03*
X3110Y-3080D02*
D03*
X3510Y-3160D02*
D03*
X3430Y-3560D02*
D03*
X3270Y-3720D02*
D03*
X3670Y-3320D02*
D03*
X3270Y-2920D02*
D03*
X752Y-638D02*
D03*
X2550Y-900D02*
D03*
X4780Y-4190D02*
D03*
X5000Y-4190D02*
D03*
X5200D02*
D03*
X5420D02*
D03*
X4930Y-4160D02*
D03*
X4880Y-4080D02*
D03*
X580Y-4190D02*
D03*
X800Y-4190D02*
D03*
X1220D02*
D03*
X1070Y-4160D02*
D03*
X1150D02*
D03*
X3320Y-4190D02*
D03*
X3470Y-4040D02*
D03*
X3410Y-4020D02*
D03*
X3350Y-3990D02*
D03*
X3270D02*
D03*
X3986Y-2746D02*
D03*
X3110Y-2920D02*
D03*
X3430D02*
D03*
X1990Y-1150D02*
D03*
X1730D02*
D03*
X2406Y-2656D02*
D03*
X2460Y-540D02*
D03*
X1060Y-480D02*
D03*
X990Y-290D02*
D03*
X1050Y-370D02*
D03*
X770Y-1190D02*
D03*
X900D02*
D03*
X1390Y-730D02*
D03*
X1550Y-740D02*
D03*
X1460Y-830D02*
D03*
X1570Y-1170D02*
D03*
X1380D02*
D03*
X1680Y-1330D02*
D03*
X1380D02*
D03*
X1100D02*
D03*
Y-1170D02*
D03*
X1360Y-1090D02*
D03*
X1620Y-1620D02*
D03*
X1487Y-1413D02*
D03*
X1106Y-1416D02*
D03*
X710Y-500D02*
D03*
X630D02*
D03*
X550D02*
D03*
X1160Y-490D02*
D03*
X1980Y-3550D02*
D03*
X880Y-3670D02*
D03*
X1010Y-3560D02*
D03*
X3100Y-4190D02*
D03*
X710Y-3720D02*
D03*
X1900Y-3990D02*
D03*
X1590Y-4100D02*
D03*
X2110Y-4040D02*
D03*
X1260Y-3830D02*
D03*
Y-3460D02*
D03*
Y-3680D02*
D03*
X2870Y-2920D02*
D03*
X2870Y-3320D02*
D03*
X1980Y-3350D02*
D03*
X1780Y-3550D02*
D03*
Y-3450D02*
D03*
X1880Y-3550D02*
D03*
Y-3350D02*
D03*
X1780Y-3350D02*
D03*
X2980Y-4010D02*
D03*
X2366Y-3324D02*
D03*
X2406Y-3836D02*
D03*
X2556Y-3924D02*
D03*
X1030Y-3990D02*
D03*
X1490D02*
D03*
X1010Y-3440D02*
D03*
X2900Y-4190D02*
D03*
X2680D02*
D03*
X1000D02*
D03*
X2710Y-2760D02*
D03*
Y-3880D02*
D03*
X2950Y-3560D02*
D03*
X3030Y-3640D02*
D03*
X2950Y-3080D02*
D03*
X3030Y-3000D02*
D03*
X2870Y-3720D02*
D03*
X3030Y-3560D02*
D03*
Y-3080D02*
D03*
X2366Y-3236D02*
D03*
X1880Y-3450D02*
D03*
X2020Y-4840D02*
D03*
X2800Y-4230D02*
D03*
X2010Y-4460D02*
D03*
X2140Y-4380D02*
D03*
X1260Y-4040D02*
D03*
Y-3760D02*
D03*
Y-3540D02*
D03*
Y-3610D02*
D03*
X1980Y-3450D02*
D03*
X2540Y-1090D02*
D03*
X2970Y-600D02*
D03*
X3010Y-720D02*
D03*
X3030Y-650D02*
D03*
X4340Y-1770D02*
D03*
X4430D02*
D03*
X4090Y-2460D02*
D03*
X4020D02*
D03*
X4730Y-1810D02*
D03*
X4780Y-1850D02*
D03*
X4690Y-1990D02*
D03*
X2630D02*
D03*
Y-1710D02*
D03*
X3870Y-1990D02*
D03*
X4350Y-140D02*
D03*
X5430Y-190D02*
D03*
X5520Y-1120D02*
D03*
X3820Y-1930D02*
D03*
X3130Y-1180D02*
D03*
Y-1250D02*
D03*
X3174Y-1306D02*
D03*
X3330Y-1180D02*
D03*
X3586Y-1144D02*
D03*
X2730Y-1250D02*
D03*
X2810Y-1180D02*
D03*
X2850Y-1310D02*
D03*
X2530Y-500D02*
D03*
X3130Y-1670D02*
D03*
X3586Y-1364D02*
D03*
X3600Y-1060D02*
D03*
M02*
