G04*
G04 #@! TF.GenerationSoftware,Altium Limited,Altium Designer,19.0.15 (446)*
G04*
G04 Layer_Color=8388736*
%FSLAX42Y42*%
%MOMM*%
G71*
G01*
G75*
%ADD66R,0.88X3.00*%
%ADD67R,0.88X1.45*%
%ADD68R,1.00X1.40*%
%ADD69R,1.00X1.40*%
%ADD70R,2.00X1.00*%
%ADD71R,0.70X0.80*%
%ADD72R,1.30X0.70*%
%ADD73R,2.20X0.70*%
%ADD74R,2.60X1.40*%
%ADD75R,1.55X0.30*%
%ADD76R,0.20X1.45*%
%ADD77R,0.49X0.73*%
%ADD78R,0.85X0.47*%
%ADD79R,0.85X0.45*%
%ADD80R,1.10X1.20*%
%ADD81R,0.80X0.84*%
%ADD82R,0.95X0.80*%
%ADD83R,0.84X0.80*%
%ADD84R,1.15X1.05*%
%ADD85R,1.00X1.20*%
%ADD86R,1.70X0.90*%
%ADD87R,0.80X0.95*%
%ADD88R,0.50X0.80*%
%ADD89R,0.45X0.88*%
%ADD90R,0.88X0.45*%
%ADD91R,0.80X1.30*%
%ADD92R,0.80X1.70*%
%ADD93R,1.05X0.85*%
%ADD94R,2.20X0.80*%
%ADD95R,4.40X0.90*%
%ADD96R,0.50X0.72*%
%ADD97C,0.60*%
%ADD98R,2.10X2.00*%
G04:AMPARAMS|DCode=99|XSize=1.8mm|YSize=1.6mm|CornerRadius=0.45mm|HoleSize=0mm|Usage=FLASHONLY|Rotation=180.000|XOffset=0mm|YOffset=0mm|HoleType=Round|Shape=RoundedRectangle|*
%AMROUNDEDRECTD99*
21,1,1.80,0.70,0,0,180.0*
21,1,0.90,1.60,0,0,180.0*
1,1,0.90,-0.45,0.35*
1,1,0.90,0.45,0.35*
1,1,0.90,0.45,-0.35*
1,1,0.90,-0.45,-0.35*
%
%ADD99ROUNDEDRECTD99*%
%ADD100O,0.60X1.55*%
%ADD101R,1.15X1.50*%
%ADD102R,1.20X1.10*%
%ADD103R,0.90X1.40*%
%ADD104R,1.20X1.40*%
%ADD105R,1.20X1.00*%
%ADD106R,1.20X3.00*%
%ADD107R,1.50X2.10*%
%ADD108R,1.00X1.00*%
%ADD109R,0.85X1.15*%
%ADD110R,1.05X0.45*%
%ADD111R,1.78X2.68*%
%ADD112R,1.20X1.20*%
%ADD113R,1.20X1.20*%
%ADD114R,4.27X2.11*%
%ADD115R,1.30X1.40*%
%ADD116R,0.56X1.17*%
%ADD117R,1.17X0.56*%
%ADD118R,3.45X3.45*%
%ADD119R,1.60X1.50*%
%ADD120R,1.50X1.60*%
%ADD121R,2.70X1.45*%
%ADD122C,1.65*%
%ADD123C,1.10*%
%ADD124C,0.85*%
%ADD125O,1.35X0.85*%
%ADD126C,0.80*%
%ADD127O,1.20X1.80*%
%ADD128O,1.20X2.76*%
%ADD129O,1.10X1.80*%
%ADD130C,3.10*%
D66*
X3429Y-800D02*
D03*
D67*
X3179D02*
D03*
D68*
X3400Y-1180D02*
D03*
D69*
X3200D02*
D03*
D70*
X3300Y-1060D02*
D03*
Y-1300D02*
D03*
D71*
X1285Y-4310D02*
D03*
X515D02*
D03*
X2615D02*
D03*
X3385D02*
D03*
X4715D02*
D03*
X5485D02*
D03*
D72*
X735Y-4515D02*
D03*
X1065D02*
D03*
X3165D02*
D03*
X2835D02*
D03*
X5265D02*
D03*
X4935D02*
D03*
D73*
X900Y-4425D02*
D03*
X3000D02*
D03*
X5100D02*
D03*
D74*
X860Y-390D02*
D03*
X1960Y-390D02*
D03*
D75*
X860Y-600D02*
D03*
X1970Y-620D02*
D03*
D76*
X5380Y-1650D02*
D03*
D77*
X5909Y-4067D02*
D03*
X5850D02*
D03*
X5791D02*
D03*
X90Y-4069D02*
D03*
X150D02*
D03*
X209D02*
D03*
D78*
X3430Y-675D02*
D03*
Y-925D02*
D03*
D79*
Y-725D02*
D03*
X3180Y-750D02*
D03*
X3430Y-775D02*
D03*
X3180Y-800D02*
D03*
X3430Y-825D02*
D03*
X3180Y-850D02*
D03*
X3430Y-875D02*
D03*
D80*
X3708Y-570D02*
D03*
X3572D02*
D03*
X3862D02*
D03*
X3997D02*
D03*
X5047Y-1980D02*
D03*
X4912D02*
D03*
X2327Y-1240D02*
D03*
X2192D02*
D03*
D81*
X3536Y-310D02*
D03*
X3624D02*
D03*
X5894Y-3910D02*
D03*
X5806D02*
D03*
X3404Y-310D02*
D03*
X3316D02*
D03*
X2474Y-2920D02*
D03*
X2386D02*
D03*
X2251Y-2760D02*
D03*
X2163D02*
D03*
X2163Y-2920D02*
D03*
X2251D02*
D03*
Y-2640D02*
D03*
X2163D02*
D03*
X1376Y-3410D02*
D03*
X1464D02*
D03*
X4896Y-1840D02*
D03*
X4984D02*
D03*
X5426Y-1990D02*
D03*
X5514D02*
D03*
X4414Y-1840D02*
D03*
X4326D02*
D03*
X3914Y-4110D02*
D03*
X3826D02*
D03*
X2254Y-600D02*
D03*
X2166D02*
D03*
X2386D02*
D03*
X2474D02*
D03*
X1174Y-3560D02*
D03*
X1086D02*
D03*
X1804Y-3030D02*
D03*
X1716D02*
D03*
X1174Y-3440D02*
D03*
X1086D02*
D03*
D82*
X3533Y-430D02*
D03*
X3647D02*
D03*
X3408D02*
D03*
X3292D02*
D03*
X4097Y-2360D02*
D03*
X3983D02*
D03*
X5167Y-2160D02*
D03*
X5053D02*
D03*
X4592Y-2100D02*
D03*
X4708D02*
D03*
X2027Y-1910D02*
D03*
X1912D02*
D03*
X848Y-740D02*
D03*
X732D02*
D03*
X4158Y-4450D02*
D03*
X4042D02*
D03*
X4172Y-4580D02*
D03*
X4288D02*
D03*
X4042Y-4330D02*
D03*
X4158D02*
D03*
X1738Y-940D02*
D03*
X1623D02*
D03*
X2133Y-730D02*
D03*
X2248D02*
D03*
X2508D02*
D03*
X2392D02*
D03*
X3867Y-2080D02*
D03*
X3753D02*
D03*
X1823Y-4840D02*
D03*
X1938D02*
D03*
X2067Y-4710D02*
D03*
X1952D02*
D03*
Y-4590D02*
D03*
X2067D02*
D03*
X1938Y-4460D02*
D03*
X1823D02*
D03*
D83*
X2140Y-4304D02*
D03*
Y-4216D02*
D03*
X390Y-4094D02*
D03*
Y-4006D02*
D03*
X3520Y-1276D02*
D03*
Y-1364D02*
D03*
X2490Y-2656D02*
D03*
Y-2744D02*
D03*
X4340Y-3644D02*
D03*
Y-3556D02*
D03*
X3520Y-1056D02*
D03*
Y-1144D02*
D03*
X1920Y-1076D02*
D03*
Y-1164D02*
D03*
X2050Y-1076D02*
D03*
Y-1164D02*
D03*
Y-944D02*
D03*
Y-856D02*
D03*
X4060Y-2834D02*
D03*
Y-2746D02*
D03*
X2300Y-3324D02*
D03*
Y-3236D02*
D03*
X1350Y-3284D02*
D03*
Y-3196D02*
D03*
X1470Y-3254D02*
D03*
Y-3166D02*
D03*
X1350Y-2976D02*
D03*
Y-3064D02*
D03*
X2480Y-3924D02*
D03*
Y-3836D02*
D03*
D84*
X1630Y-3875D02*
D03*
Y-4005D02*
D03*
X3960Y-285D02*
D03*
Y-415D02*
D03*
D85*
X266Y-1065D02*
D03*
Y-335D02*
D03*
X74Y-1065D02*
D03*
Y-335D02*
D03*
D86*
X345Y-925D02*
D03*
Y-475D02*
D03*
Y-775D02*
D03*
D87*
X2650Y-607D02*
D03*
Y-493D02*
D03*
X4290Y-4197D02*
D03*
Y-4083D02*
D03*
Y-4447D02*
D03*
Y-4333D02*
D03*
X1410Y-422D02*
D03*
Y-538D02*
D03*
X600Y-612D02*
D03*
Y-728D02*
D03*
X1820Y-4592D02*
D03*
Y-4708D02*
D03*
D88*
X5300Y-1988D02*
D03*
X5250D02*
D03*
X5200D02*
D03*
Y-1833D02*
D03*
X5250D02*
D03*
X5300D02*
D03*
X4540D02*
D03*
X4590D02*
D03*
X4640D02*
D03*
Y-1988D02*
D03*
X4590D02*
D03*
X4540D02*
D03*
D89*
X3225Y-1306D02*
D03*
X3275D02*
D03*
X3325D02*
D03*
X3375D02*
D03*
Y-1054D02*
D03*
X3325D02*
D03*
X3275D02*
D03*
X3225D02*
D03*
D90*
X3401Y-1230D02*
D03*
Y-1180D02*
D03*
Y-1130D02*
D03*
X3199D02*
D03*
Y-1180D02*
D03*
Y-1230D02*
D03*
D91*
X610Y-1880D02*
D03*
X730D02*
D03*
X850D02*
D03*
X970D02*
D03*
D92*
X483Y-1540D02*
D03*
X1097D02*
D03*
D93*
X4055Y-3725D02*
D03*
Y-3560D02*
D03*
X4210D02*
D03*
Y-3725D02*
D03*
D94*
X4510Y-3880D02*
D03*
Y-3780D02*
D03*
Y-3680D02*
D03*
Y-3580D02*
D03*
Y-3480D02*
D03*
Y-3380D02*
D03*
D95*
X4720Y-3980D02*
D03*
Y-3280D02*
D03*
D96*
X910Y-638D02*
D03*
X860D02*
D03*
X810D02*
D03*
Y-562D02*
D03*
X860D02*
D03*
X910D02*
D03*
X2020Y-658D02*
D03*
X1970D02*
D03*
X1920D02*
D03*
Y-582D02*
D03*
X1970D02*
D03*
X2020D02*
D03*
D97*
X3870Y-3920D02*
D03*
X3790D02*
D03*
X3710D02*
D03*
X3630D02*
D03*
X3550D02*
D03*
X3470D02*
D03*
X3390D02*
D03*
X3310D02*
D03*
X3230D02*
D03*
X3150D02*
D03*
X3070D02*
D03*
X2990D02*
D03*
X2910D02*
D03*
X2830D02*
D03*
X2750D02*
D03*
X2670D02*
D03*
X3870Y-3840D02*
D03*
X3790D02*
D03*
X3710D02*
D03*
X3630D02*
D03*
X3550D02*
D03*
X3470D02*
D03*
X3390D02*
D03*
X3310D02*
D03*
X3230D02*
D03*
X3150D02*
D03*
X3070D02*
D03*
X2990D02*
D03*
X2910D02*
D03*
X2830D02*
D03*
X2750D02*
D03*
X2670D02*
D03*
X3870Y-3760D02*
D03*
X3790D02*
D03*
X3710D02*
D03*
X3630D02*
D03*
X3550D02*
D03*
X3470D02*
D03*
X3390D02*
D03*
X3310D02*
D03*
X3230D02*
D03*
X3150D02*
D03*
X3070D02*
D03*
X2990D02*
D03*
X2910D02*
D03*
X2830D02*
D03*
X2750D02*
D03*
X2670D02*
D03*
X3870Y-3680D02*
D03*
X3790D02*
D03*
X3710D02*
D03*
X3630D02*
D03*
X3550D02*
D03*
X3470D02*
D03*
X3390D02*
D03*
X3310D02*
D03*
X3230D02*
D03*
X3150D02*
D03*
X3070D02*
D03*
X2990D02*
D03*
X2910D02*
D03*
X2830D02*
D03*
X2750D02*
D03*
X2670D02*
D03*
X3870Y-3600D02*
D03*
X3790D02*
D03*
X3710D02*
D03*
X3630D02*
D03*
X3550D02*
D03*
X3470D02*
D03*
X3390D02*
D03*
X3310D02*
D03*
X3230D02*
D03*
X3150D02*
D03*
X3070D02*
D03*
X2990D02*
D03*
X2910D02*
D03*
X2830D02*
D03*
X2750D02*
D03*
X2670D02*
D03*
X3870Y-3520D02*
D03*
X3790D02*
D03*
X3710D02*
D03*
X3630D02*
D03*
X3550D02*
D03*
X3470D02*
D03*
X3390D02*
D03*
X3310D02*
D03*
X3230D02*
D03*
X3150D02*
D03*
X3070D02*
D03*
X2990D02*
D03*
X2910D02*
D03*
X2830D02*
D03*
X2750D02*
D03*
X2670D02*
D03*
X3870Y-3440D02*
D03*
X3790D02*
D03*
X3710D02*
D03*
X3630D02*
D03*
X3550D02*
D03*
X3470D02*
D03*
X3390D02*
D03*
X3310D02*
D03*
X3230D02*
D03*
X3150D02*
D03*
X3070D02*
D03*
X2990D02*
D03*
X2910D02*
D03*
X2830D02*
D03*
X2750D02*
D03*
X2670D02*
D03*
X3870Y-3360D02*
D03*
X3790D02*
D03*
X3710D02*
D03*
X3630D02*
D03*
X3550D02*
D03*
X3470D02*
D03*
X3390D02*
D03*
X3310D02*
D03*
X3230D02*
D03*
X3150D02*
D03*
X3070D02*
D03*
X2990D02*
D03*
X2910D02*
D03*
X2830D02*
D03*
X2750D02*
D03*
X2670D02*
D03*
X3870Y-3280D02*
D03*
X3790D02*
D03*
X3710D02*
D03*
X3630D02*
D03*
X3550D02*
D03*
X3470D02*
D03*
X3390D02*
D03*
X3310D02*
D03*
X3230D02*
D03*
X3150D02*
D03*
X3070D02*
D03*
X2990D02*
D03*
X2910D02*
D03*
X2830D02*
D03*
X2750D02*
D03*
X2670D02*
D03*
X3870Y-3200D02*
D03*
X3790D02*
D03*
X3710D02*
D03*
X3630D02*
D03*
X3550D02*
D03*
X3470D02*
D03*
X3390D02*
D03*
X3310D02*
D03*
X3230D02*
D03*
X3150D02*
D03*
X3070D02*
D03*
X2990D02*
D03*
X2910D02*
D03*
X2830D02*
D03*
X2750D02*
D03*
X2670D02*
D03*
X3870Y-3120D02*
D03*
X3790D02*
D03*
X3710D02*
D03*
X3630D02*
D03*
X3550D02*
D03*
X3470D02*
D03*
X3390D02*
D03*
X3310D02*
D03*
X3230D02*
D03*
X3150D02*
D03*
X3070D02*
D03*
X2990D02*
D03*
X2910D02*
D03*
X2830D02*
D03*
X2750D02*
D03*
X2670D02*
D03*
X3870Y-3040D02*
D03*
X3790D02*
D03*
X3710D02*
D03*
X3630D02*
D03*
X3550D02*
D03*
X3470D02*
D03*
X3390D02*
D03*
X3310D02*
D03*
X3230D02*
D03*
X3150D02*
D03*
X3070D02*
D03*
X2990D02*
D03*
X2910D02*
D03*
X2830D02*
D03*
X2750D02*
D03*
X2670D02*
D03*
X3870Y-2960D02*
D03*
X3790D02*
D03*
X3710D02*
D03*
X3630D02*
D03*
X3550D02*
D03*
X3470D02*
D03*
X3390D02*
D03*
X3310D02*
D03*
X3230D02*
D03*
X3150D02*
D03*
X3070D02*
D03*
X2990D02*
D03*
X2910D02*
D03*
X2830D02*
D03*
X2750D02*
D03*
X2670D02*
D03*
X3870Y-2880D02*
D03*
X3790D02*
D03*
X3710D02*
D03*
X3630D02*
D03*
X3550D02*
D03*
X3470D02*
D03*
X3390D02*
D03*
X3310D02*
D03*
X3230D02*
D03*
X3150D02*
D03*
X3070D02*
D03*
X2990D02*
D03*
X2910D02*
D03*
X2830D02*
D03*
X2750D02*
D03*
X2670D02*
D03*
X3870Y-2800D02*
D03*
X3790D02*
D03*
X3710D02*
D03*
X3630D02*
D03*
X3550D02*
D03*
X3470D02*
D03*
X3390D02*
D03*
X3310D02*
D03*
X3230D02*
D03*
X3150D02*
D03*
X3070D02*
D03*
X2990D02*
D03*
X2910D02*
D03*
X2830D02*
D03*
X2750D02*
D03*
X2670D02*
D03*
X3870Y-2720D02*
D03*
X3790D02*
D03*
X3710D02*
D03*
X3630D02*
D03*
X3550D02*
D03*
X3470D02*
D03*
X3390D02*
D03*
X3310D02*
D03*
X3230D02*
D03*
X3150D02*
D03*
X3070D02*
D03*
X2990D02*
D03*
X2910D02*
D03*
X2830D02*
D03*
X2750D02*
D03*
X2670D02*
D03*
D98*
X740Y-123D02*
D03*
X980D02*
D03*
X2080Y-125D02*
D03*
X1840D02*
D03*
D99*
X540Y-367D02*
D03*
X1180D02*
D03*
X2280Y-370D02*
D03*
X1640D02*
D03*
D100*
X860Y-390D02*
D03*
X925D02*
D03*
X990D02*
D03*
X730D02*
D03*
X795D02*
D03*
X1895Y-392D02*
D03*
X1830D02*
D03*
X2090D02*
D03*
X2025D02*
D03*
X1960D02*
D03*
D101*
X233Y-3430D02*
D03*
X88D02*
D03*
X233Y-3790D02*
D03*
X88D02*
D03*
X233Y-2410D02*
D03*
X88D02*
D03*
X233Y-2770D02*
D03*
X88D02*
D03*
D102*
X1900Y-927D02*
D03*
Y-792D02*
D03*
D103*
X4560Y-1650D02*
D03*
X4670D02*
D03*
X4780D02*
D03*
X4890D02*
D03*
X5000D02*
D03*
X5110D02*
D03*
X5220D02*
D03*
X5330D02*
D03*
X5425D02*
D03*
D104*
X4405D02*
D03*
X5520Y-1220D02*
D03*
D105*
X5535Y-600D02*
D03*
D106*
X5520Y-190D02*
D03*
D107*
X4185Y-140D02*
D03*
D108*
X1410Y-115D02*
D03*
Y-265D02*
D03*
X1730Y-780D02*
D03*
Y-630D02*
D03*
D109*
X1680Y-1085D02*
D03*
X1775Y-1315D02*
D03*
X1585D02*
D03*
D110*
X2178Y-867D02*
D03*
Y-912D02*
D03*
Y-957D02*
D03*
Y-1002D02*
D03*
Y-1047D02*
D03*
Y-1092D02*
D03*
X2461Y-867D02*
D03*
Y-912D02*
D03*
Y-957D02*
D03*
Y-1002D02*
D03*
Y-1047D02*
D03*
Y-1092D02*
D03*
D111*
X2320Y-980D02*
D03*
D112*
X4090Y-3000D02*
D03*
X4660D02*
D03*
X4280D02*
D03*
D113*
X4470D02*
D03*
D114*
X-170Y-1360D02*
D03*
Y-1610D02*
D03*
Y-1860D02*
D03*
Y-2110D02*
D03*
D115*
X1785Y-4247D02*
D03*
Y-3993D02*
D03*
X2015D02*
D03*
Y-4247D02*
D03*
D116*
X1705Y-3695D02*
D03*
X1755D02*
D03*
X1805D02*
D03*
X1855D02*
D03*
X1905D02*
D03*
X1955D02*
D03*
X2005D02*
D03*
X2055D02*
D03*
Y-3205D02*
D03*
X2005D02*
D03*
X1955D02*
D03*
X1905D02*
D03*
X1855D02*
D03*
X1805D02*
D03*
X1755D02*
D03*
X1705D02*
D03*
D117*
X2125Y-3625D02*
D03*
Y-3575D02*
D03*
Y-3525D02*
D03*
Y-3475D02*
D03*
Y-3425D02*
D03*
Y-3375D02*
D03*
Y-3325D02*
D03*
Y-3275D02*
D03*
X1635D02*
D03*
Y-3325D02*
D03*
Y-3375D02*
D03*
Y-3425D02*
D03*
Y-3475D02*
D03*
Y-3525D02*
D03*
Y-3575D02*
D03*
Y-3625D02*
D03*
D118*
X1880Y-3450D02*
D03*
D119*
X1420Y-3640D02*
D03*
Y-3800D02*
D03*
X1190Y-3280D02*
D03*
Y-3120D02*
D03*
D120*
X1840Y-2870D02*
D03*
X1680D02*
D03*
D121*
X2240Y-3920D02*
D03*
D122*
X5851Y-4208D02*
D03*
X150Y-4210D02*
D03*
D123*
X170Y-850D02*
D03*
Y-550D02*
D03*
D124*
X730Y-4514D02*
D03*
X650D02*
D03*
X815D02*
D03*
X860Y-4424D02*
D03*
X770D02*
D03*
X1030D02*
D03*
X940D02*
D03*
X985Y-4514D02*
D03*
X1150D02*
D03*
X1070D02*
D03*
X3170D02*
D03*
X3250D02*
D03*
X3085D02*
D03*
X3040Y-4424D02*
D03*
X3130D02*
D03*
X2870D02*
D03*
X2960D02*
D03*
X2915Y-4514D02*
D03*
X2750D02*
D03*
X2830D02*
D03*
X5270D02*
D03*
X5350D02*
D03*
X5185D02*
D03*
X5140Y-4424D02*
D03*
X5230D02*
D03*
X4970D02*
D03*
X5060D02*
D03*
X5015Y-4514D02*
D03*
X4850D02*
D03*
X4930D02*
D03*
D125*
X1220Y-4424D02*
D03*
X580D02*
D03*
X2680D02*
D03*
X3320D02*
D03*
X4780D02*
D03*
X5420D02*
D03*
D126*
X555Y-4310D02*
D03*
X1245D02*
D03*
X3345D02*
D03*
X2655D02*
D03*
X5445D02*
D03*
X4755D02*
D03*
D127*
X453Y-4270D02*
D03*
X1348D02*
D03*
X3447D02*
D03*
X2552D02*
D03*
X5547D02*
D03*
X4652D02*
D03*
D128*
X1507Y-4504D02*
D03*
X292D02*
D03*
X1507Y-4890D02*
D03*
X292Y-4880D02*
D03*
X2392D02*
D03*
X3607Y-4890D02*
D03*
X2392Y-4504D02*
D03*
X3607D02*
D03*
X4492Y-4880D02*
D03*
X5707Y-4890D02*
D03*
X4492Y-4504D02*
D03*
X5707D02*
D03*
D129*
X530Y-123D02*
D03*
X1190D02*
D03*
X2290Y-125D02*
D03*
X1630D02*
D03*
D130*
X1921Y-2317D02*
D03*
X5823Y-181D02*
D03*
M02*
