G04*
G04 #@! TF.GenerationSoftware,Altium Limited,Altium Designer,19.0.15 (446)*
G04*
G04 Layer_Physical_Order=3*
G04 Layer_Color=16440176*
%FSLAX42Y42*%
%MOMM*%
G71*
G01*
G75*
%ADD15C,0.20*%
%ADD132C,0.51*%
%ADD137C,0.65*%
%ADD144C,0.46*%
G36*
X5730Y-40D02*
X5730Y-44D01*
X5706Y-64D01*
X5685Y-89D01*
X5670Y-118D01*
X5660Y-149D01*
X5657Y-181D01*
X5660Y-213D01*
X5670Y-244D01*
X5685Y-273D01*
X5706Y-298D01*
X5731Y-319D01*
X5760Y-334D01*
X5791Y-344D01*
X5823Y-347D01*
X5855Y-344D01*
X5886Y-334D01*
X5915Y-319D01*
X5940Y-298D01*
X5956Y-279D01*
X5969Y-283D01*
Y-770D01*
X3591Y-770D01*
X3581Y-757D01*
X3582Y-750D01*
X3579Y-733D01*
X3569Y-719D01*
X3555Y-709D01*
X3538Y-706D01*
X3521Y-709D01*
X3507Y-719D01*
X3497Y-733D01*
X3494Y-750D01*
X3495Y-757D01*
X3485Y-770D01*
X3036D01*
X3032Y-757D01*
X3041Y-751D01*
X3051Y-737D01*
X3054Y-720D01*
X3051Y-703D01*
X3050Y-702D01*
X3054Y-686D01*
X3061Y-681D01*
X3071Y-667D01*
X3074Y-650D01*
X3071Y-633D01*
X3061Y-619D01*
X3047Y-609D01*
X3030Y-606D01*
X3026Y-607D01*
X3014Y-600D01*
X3011Y-583D01*
X3001Y-569D01*
X2987Y-559D01*
X2970Y-556D01*
X2953Y-559D01*
X2939Y-569D01*
X2929Y-583D01*
X2926Y-600D01*
X2929Y-617D01*
X2939Y-631D01*
X2953Y-641D01*
X2970Y-644D01*
X2974Y-643D01*
X2986Y-650D01*
X2989Y-667D01*
X2990Y-668D01*
X2986Y-684D01*
X2979Y-689D01*
X2969Y-703D01*
X2966Y-720D01*
X2969Y-737D01*
X2979Y-751D01*
X2988Y-757D01*
X2984Y-770D01*
X2745D01*
X2743Y-762D01*
X2733Y-747D01*
X2718Y-737D01*
X2700Y-733D01*
X2570D01*
X2552Y-737D01*
X2537Y-747D01*
X1797Y-1487D01*
X1787Y-1502D01*
X1783Y-1520D01*
Y-1900D01*
X1787Y-1918D01*
X1797Y-1933D01*
X1812Y-1943D01*
X1824Y-1945D01*
X1824Y-2183D01*
X1804Y-2200D01*
X1783Y-2225D01*
X1768Y-2254D01*
X1758Y-2285D01*
X1755Y-2317D01*
X1758Y-2349D01*
X1768Y-2380D01*
X1783Y-2409D01*
X1804Y-2434D01*
X1824Y-2451D01*
Y-2869D01*
X1811D01*
X1811Y-2869D01*
X1598Y-2869D01*
X1410D01*
X1410Y-2869D01*
X1410Y-2869D01*
X1399D01*
X1000Y-3268D01*
X1000Y-3398D01*
X993Y-3399D01*
X979Y-3409D01*
X969Y-3423D01*
X966Y-3440D01*
X969Y-3457D01*
X979Y-3471D01*
X993Y-3481D01*
X1000Y-3482D01*
X1000Y-3518D01*
X993Y-3519D01*
X979Y-3529D01*
X969Y-3543D01*
X966Y-3560D01*
X969Y-3577D01*
X979Y-3591D01*
X993Y-3601D01*
X1000Y-3602D01*
X1000Y-3740D01*
X1080Y-3820D01*
X1136Y-3876D01*
X1136Y-3876D01*
X1136Y-3876D01*
X1143Y-3883D01*
X2088Y-3883D01*
X2093Y-3894D01*
X2077Y-3910D01*
X2067Y-3925D01*
X2063Y-3943D01*
Y-4040D01*
X2067Y-4058D01*
X2077Y-4073D01*
X2092Y-4083D01*
X2110Y-4087D01*
X2128Y-4083D01*
X2143Y-4073D01*
X2153Y-4058D01*
X2157Y-4040D01*
Y-3962D01*
X2236Y-3883D01*
X2237D01*
X2280Y-3840D01*
X2280D01*
X2282Y-3840D01*
X2363D01*
X2365Y-3853D01*
X2375Y-3867D01*
X2389Y-3877D01*
X2406Y-3880D01*
X2423Y-3877D01*
X2437Y-3867D01*
X2447Y-3853D01*
X2449Y-3840D01*
X2669D01*
X2670Y-3840D01*
X2671Y-3840D01*
X2672Y-3842D01*
X2675Y-3847D01*
X2675Y-3849D01*
X2676Y-3853D01*
X2669Y-3863D01*
X2666Y-3880D01*
X2669Y-3897D01*
X2679Y-3911D01*
X2693Y-3921D01*
X2710Y-3924D01*
X2727Y-3921D01*
X2741Y-3911D01*
X2751Y-3897D01*
X2754Y-3880D01*
X2751Y-3863D01*
X2744Y-3853D01*
X2745Y-3849D01*
X2745Y-3847D01*
X2748Y-3842D01*
X2749Y-3840D01*
X2750Y-3840D01*
X2751Y-3840D01*
X3789Y-3840D01*
X3790Y-3840D01*
X3791Y-3840D01*
X3792Y-3842D01*
X3795Y-3847D01*
X3795Y-3849D01*
X3796Y-3853D01*
X3789Y-3863D01*
X3786Y-3880D01*
X3789Y-3897D01*
X3799Y-3911D01*
X3813Y-3921D01*
X3830Y-3924D01*
X3847Y-3921D01*
X3861Y-3911D01*
X3871Y-3897D01*
X3874Y-3880D01*
X3871Y-3863D01*
X3864Y-3853D01*
X3865Y-3849D01*
X3865Y-3847D01*
X3868Y-3842D01*
X3869Y-3840D01*
X3870Y-3840D01*
X3871Y-3840D01*
X3898D01*
X3898Y-3840D01*
X3899Y-3847D01*
X3909Y-3861D01*
X3923Y-3871D01*
X3940Y-3874D01*
X3957Y-3871D01*
X3971Y-3861D01*
X3981Y-3847D01*
X3982Y-3840D01*
X4117D01*
X4329Y-3840D01*
X4330Y-3840D01*
X4331Y-3840D01*
X4332Y-3842D01*
X4335Y-3847D01*
X4335Y-3849D01*
X4336Y-3853D01*
X4329Y-3863D01*
X4326Y-3880D01*
X4329Y-3897D01*
X4339Y-3911D01*
X4353Y-3921D01*
X4370Y-3924D01*
X4387Y-3921D01*
X4401Y-3911D01*
X4411Y-3897D01*
X4414Y-3880D01*
X4411Y-3863D01*
X4404Y-3853D01*
X4405Y-3849D01*
X4405Y-3847D01*
X4408Y-3842D01*
X4409Y-3840D01*
X4410Y-3840D01*
X4411Y-3840D01*
X4930D01*
X4930Y-3282D01*
X4930Y-3280D01*
Y-3280D01*
X4930D01*
X4932Y-3280D01*
X5969Y-3280D01*
Y-5079D01*
X5631D01*
Y-5000D01*
X5644Y-4998D01*
X5646Y-5003D01*
X5657Y-5018D01*
X5672Y-5029D01*
X5689Y-5037D01*
X5707Y-5039D01*
X5726Y-5037D01*
X5743Y-5029D01*
X5758Y-5018D01*
X5769Y-5003D01*
X5776Y-4986D01*
X5778Y-4968D01*
Y-4812D01*
X5776Y-4794D01*
X5769Y-4777D01*
X5758Y-4762D01*
X5743Y-4751D01*
X5726Y-4743D01*
X5707Y-4741D01*
X5689Y-4743D01*
X5672Y-4751D01*
X5657Y-4762D01*
X5646Y-4777D01*
X5644Y-4782D01*
X5631Y-4780D01*
Y-4614D01*
X5644Y-4612D01*
X5646Y-4617D01*
X5657Y-4632D01*
X5672Y-4643D01*
X5689Y-4651D01*
X5707Y-4653D01*
X5726Y-4651D01*
X5743Y-4643D01*
X5758Y-4632D01*
X5769Y-4617D01*
X5776Y-4600D01*
X5778Y-4582D01*
Y-4426D01*
X5776Y-4408D01*
X5769Y-4391D01*
X5758Y-4376D01*
X5743Y-4365D01*
X5726Y-4357D01*
X5707Y-4355D01*
X5689Y-4357D01*
X5672Y-4365D01*
X5657Y-4376D01*
X5646Y-4391D01*
X5639Y-4408D01*
X5637Y-4426D01*
Y-4557D01*
X5624Y-4561D01*
X5622Y-4558D01*
X5612Y-4551D01*
X5600Y-4549D01*
X5404D01*
X5398Y-4538D01*
X5400Y-4535D01*
X5404Y-4514D01*
X5400Y-4493D01*
X5398Y-4491D01*
X5405Y-4478D01*
X5445D01*
X5466Y-4474D01*
X5483Y-4462D01*
X5495Y-4445D01*
X5499Y-4424D01*
X5495Y-4403D01*
X5483Y-4386D01*
X5466Y-4374D01*
X5455Y-4372D01*
Y-4359D01*
X5465Y-4357D01*
X5481Y-4346D01*
X5481Y-4346D01*
X5494Y-4346D01*
X5497Y-4350D01*
X5512Y-4361D01*
X5529Y-4369D01*
X5547Y-4371D01*
X5566Y-4369D01*
X5583Y-4361D01*
X5598Y-4350D01*
X5609Y-4335D01*
X5616Y-4318D01*
X5618Y-4300D01*
Y-4240D01*
X5616Y-4222D01*
X5609Y-4205D01*
X5598Y-4190D01*
X5583Y-4179D01*
X5566Y-4171D01*
X5547Y-4169D01*
X5529Y-4171D01*
X5512Y-4179D01*
X5497Y-4190D01*
X5486Y-4205D01*
X5479Y-4222D01*
X5477Y-4240D01*
Y-4256D01*
X5466Y-4262D01*
X5464Y-4262D01*
X5445Y-4259D01*
X5425Y-4263D01*
X5409Y-4274D01*
X5398Y-4290D01*
X5394Y-4310D01*
X5398Y-4330D01*
X5409Y-4346D01*
X5425Y-4357D01*
X5426Y-4357D01*
X5424Y-4370D01*
X5395D01*
X5374Y-4374D01*
X5357Y-4386D01*
X5345Y-4403D01*
X5341Y-4424D01*
X5345Y-4445D01*
X5347Y-4448D01*
X5341Y-4462D01*
X5329Y-4464D01*
X5320Y-4471D01*
X5310Y-4475D01*
X5300Y-4471D01*
X5291Y-4464D01*
X5283Y-4463D01*
X5277Y-4449D01*
X5280Y-4445D01*
X5284Y-4424D01*
X5280Y-4403D01*
X5268Y-4386D01*
X5251Y-4374D01*
X5230Y-4370D01*
X5209Y-4374D01*
X5192Y-4386D01*
X5191Y-4387D01*
X5179D01*
X5178Y-4386D01*
X5161Y-4374D01*
X5140Y-4370D01*
X5119Y-4374D01*
X5102Y-4386D01*
X5098D01*
X5081Y-4374D01*
X5060Y-4370D01*
X5039Y-4374D01*
X5022Y-4386D01*
X5010Y-4381D01*
X4993Y-4369D01*
X4983Y-4367D01*
Y-4424D01*
X4970D01*
Y-4437D01*
X4913D01*
X4915Y-4447D01*
X4919Y-4452D01*
X4914Y-4463D01*
X4909Y-4464D01*
X4900Y-4471D01*
X4890Y-4475D01*
X4880Y-4471D01*
X4871Y-4464D01*
X4859Y-4462D01*
X4853Y-4448D01*
X4855Y-4445D01*
X4859Y-4424D01*
X4855Y-4403D01*
X4843Y-4386D01*
X4826Y-4374D01*
X4805Y-4370D01*
X4776D01*
X4774Y-4357D01*
X4775Y-4357D01*
X4791Y-4346D01*
X4802Y-4330D01*
X4806Y-4310D01*
X4802Y-4290D01*
X4791Y-4274D01*
X4775Y-4263D01*
X4755Y-4259D01*
X4736Y-4262D01*
X4734Y-4262D01*
X4723Y-4256D01*
Y-4240D01*
X4721Y-4222D01*
X4714Y-4205D01*
X4703Y-4190D01*
X4688Y-4179D01*
X4671Y-4171D01*
X4652Y-4169D01*
X4634Y-4171D01*
X4617Y-4179D01*
X4602Y-4190D01*
X4591Y-4205D01*
X4584Y-4222D01*
X4582Y-4240D01*
Y-4300D01*
X4584Y-4318D01*
X4591Y-4335D01*
X4602Y-4350D01*
X4617Y-4361D01*
X4634Y-4369D01*
X4652Y-4371D01*
X4671Y-4369D01*
X4688Y-4361D01*
X4703Y-4350D01*
X4706Y-4346D01*
X4719Y-4346D01*
X4719Y-4346D01*
X4735Y-4357D01*
X4745Y-4359D01*
Y-4372D01*
X4734Y-4374D01*
X4717Y-4386D01*
X4705Y-4403D01*
X4701Y-4424D01*
X4705Y-4445D01*
X4717Y-4462D01*
X4734Y-4474D01*
X4755Y-4478D01*
X4795D01*
X4802Y-4491D01*
X4800Y-4493D01*
X4796Y-4514D01*
X4800Y-4535D01*
X4802Y-4538D01*
X4796Y-4549D01*
X4600D01*
X4588Y-4551D01*
X4578Y-4558D01*
X4576Y-4561D01*
X4563Y-4557D01*
Y-4426D01*
X4561Y-4408D01*
X4554Y-4391D01*
X4543Y-4376D01*
X4528Y-4365D01*
X4511Y-4357D01*
X4492Y-4355D01*
X4474Y-4357D01*
X4457Y-4365D01*
X4442Y-4376D01*
X4431Y-4391D01*
X4424Y-4408D01*
X4422Y-4426D01*
Y-4582D01*
X4424Y-4600D01*
X4431Y-4617D01*
X4442Y-4632D01*
X4457Y-4643D01*
X4474Y-4651D01*
X4492Y-4653D01*
X4511Y-4651D01*
X4528Y-4643D01*
X4543Y-4632D01*
X4554Y-4617D01*
X4556Y-4612D01*
X4569Y-4614D01*
Y-4770D01*
X4556Y-4772D01*
X4554Y-4767D01*
X4543Y-4752D01*
X4528Y-4741D01*
X4511Y-4733D01*
X4492Y-4731D01*
X4474Y-4733D01*
X4457Y-4741D01*
X4442Y-4752D01*
X4431Y-4767D01*
X4424Y-4784D01*
X4422Y-4802D01*
Y-4958D01*
X4424Y-4976D01*
X4431Y-4993D01*
X4442Y-5008D01*
X4457Y-5019D01*
X4474Y-5027D01*
X4492Y-5029D01*
X4511Y-5027D01*
X4528Y-5019D01*
X4543Y-5008D01*
X4554Y-4993D01*
X4556Y-4988D01*
X4569Y-4990D01*
Y-5079D01*
X3531D01*
Y-5000D01*
X3544Y-4998D01*
X3546Y-5003D01*
X3557Y-5018D01*
X3572Y-5029D01*
X3589Y-5037D01*
X3607Y-5039D01*
X3626Y-5037D01*
X3643Y-5029D01*
X3658Y-5018D01*
X3669Y-5003D01*
X3676Y-4986D01*
X3678Y-4968D01*
Y-4812D01*
X3676Y-4794D01*
X3669Y-4777D01*
X3658Y-4762D01*
X3643Y-4751D01*
X3626Y-4743D01*
X3607Y-4741D01*
X3589Y-4743D01*
X3572Y-4751D01*
X3557Y-4762D01*
X3546Y-4777D01*
X3544Y-4782D01*
X3531Y-4780D01*
Y-4614D01*
X3544Y-4612D01*
X3546Y-4617D01*
X3557Y-4632D01*
X3572Y-4643D01*
X3589Y-4651D01*
X3607Y-4653D01*
X3626Y-4651D01*
X3643Y-4643D01*
X3658Y-4632D01*
X3669Y-4617D01*
X3676Y-4600D01*
X3678Y-4582D01*
Y-4426D01*
X3676Y-4408D01*
X3669Y-4391D01*
X3658Y-4376D01*
X3643Y-4365D01*
X3626Y-4357D01*
X3607Y-4355D01*
X3589Y-4357D01*
X3572Y-4365D01*
X3557Y-4376D01*
X3546Y-4391D01*
X3539Y-4408D01*
X3537Y-4426D01*
Y-4557D01*
X3524Y-4561D01*
X3522Y-4558D01*
X3512Y-4551D01*
X3500Y-4549D01*
X3304D01*
X3298Y-4538D01*
X3300Y-4535D01*
X3304Y-4514D01*
X3300Y-4493D01*
X3298Y-4491D01*
X3305Y-4478D01*
X3345D01*
X3366Y-4474D01*
X3383Y-4462D01*
X3395Y-4445D01*
X3399Y-4424D01*
X3395Y-4403D01*
X3383Y-4386D01*
X3366Y-4374D01*
X3355Y-4372D01*
Y-4359D01*
X3365Y-4357D01*
X3381Y-4346D01*
X3381Y-4346D01*
X3394Y-4346D01*
X3397Y-4350D01*
X3412Y-4361D01*
X3429Y-4369D01*
X3447Y-4371D01*
X3466Y-4369D01*
X3483Y-4361D01*
X3498Y-4350D01*
X3509Y-4335D01*
X3516Y-4318D01*
X3518Y-4300D01*
Y-4240D01*
X3516Y-4222D01*
X3509Y-4205D01*
X3498Y-4190D01*
X3483Y-4179D01*
X3466Y-4171D01*
X3447Y-4169D01*
X3429Y-4171D01*
X3412Y-4179D01*
X3397Y-4190D01*
X3386Y-4205D01*
X3379Y-4222D01*
X3377Y-4240D01*
Y-4256D01*
X3366Y-4262D01*
X3364Y-4262D01*
X3345Y-4259D01*
X3325Y-4263D01*
X3309Y-4274D01*
X3298Y-4290D01*
X3294Y-4310D01*
X3298Y-4330D01*
X3309Y-4346D01*
X3325Y-4357D01*
X3326Y-4357D01*
X3324Y-4370D01*
X3295D01*
X3274Y-4374D01*
X3257Y-4386D01*
X3245Y-4403D01*
X3241Y-4424D01*
X3245Y-4445D01*
X3247Y-4448D01*
X3241Y-4462D01*
X3229Y-4464D01*
X3212Y-4476D01*
X3208D01*
X3191Y-4464D01*
X3186Y-4463D01*
X3181Y-4452D01*
X3185Y-4447D01*
X3187Y-4437D01*
X3130D01*
Y-4424D01*
X3117D01*
Y-4367D01*
X3107Y-4369D01*
X3090Y-4381D01*
X3078Y-4386D01*
X3061Y-4374D01*
X3040Y-4370D01*
X3019Y-4374D01*
X3002Y-4386D01*
X2998D01*
X2981Y-4374D01*
X2960Y-4370D01*
X2939Y-4374D01*
X2922Y-4386D01*
X2921Y-4387D01*
X2909D01*
X2908Y-4386D01*
X2891Y-4374D01*
X2870Y-4370D01*
X2849Y-4374D01*
X2832Y-4386D01*
X2820Y-4403D01*
X2816Y-4424D01*
X2820Y-4445D01*
X2823Y-4449D01*
X2817Y-4463D01*
X2809Y-4464D01*
X2800Y-4471D01*
X2790Y-4475D01*
X2780Y-4471D01*
X2771Y-4464D01*
X2759Y-4462D01*
X2753Y-4448D01*
X2755Y-4445D01*
X2759Y-4424D01*
X2755Y-4403D01*
X2743Y-4386D01*
X2726Y-4374D01*
X2705Y-4370D01*
X2676D01*
X2674Y-4357D01*
X2675Y-4357D01*
X2691Y-4346D01*
X2702Y-4330D01*
X2706Y-4310D01*
X2702Y-4290D01*
X2691Y-4274D01*
X2675Y-4263D01*
X2655Y-4259D01*
X2636Y-4262D01*
X2634Y-4262D01*
X2623Y-4256D01*
Y-4240D01*
X2621Y-4222D01*
X2614Y-4205D01*
X2603Y-4190D01*
X2588Y-4179D01*
X2571Y-4171D01*
X2552Y-4169D01*
X2534Y-4171D01*
X2517Y-4179D01*
X2513Y-4181D01*
X2501Y-4177D01*
X2501Y-4173D01*
X2491Y-4159D01*
X2477Y-4149D01*
X2460Y-4146D01*
X2443Y-4149D01*
X2429Y-4159D01*
X2419Y-4173D01*
X2416Y-4190D01*
X2419Y-4207D01*
X2429Y-4221D01*
X2443Y-4231D01*
X2460Y-4234D01*
X2470Y-4232D01*
X2478Y-4237D01*
X2482Y-4242D01*
X2482Y-4242D01*
Y-4300D01*
X2484Y-4318D01*
X2491Y-4335D01*
X2502Y-4350D01*
X2517Y-4361D01*
X2534Y-4369D01*
X2552Y-4371D01*
X2571Y-4369D01*
X2588Y-4361D01*
X2603Y-4350D01*
X2606Y-4346D01*
X2619Y-4346D01*
X2619Y-4346D01*
X2635Y-4357D01*
X2645Y-4359D01*
Y-4372D01*
X2634Y-4374D01*
X2617Y-4386D01*
X2605Y-4403D01*
X2601Y-4424D01*
X2605Y-4445D01*
X2617Y-4462D01*
X2634Y-4474D01*
X2655Y-4478D01*
X2695D01*
X2702Y-4491D01*
X2700Y-4493D01*
X2696Y-4514D01*
X2700Y-4535D01*
X2702Y-4538D01*
X2696Y-4549D01*
X2500D01*
X2488Y-4551D01*
X2478Y-4558D01*
X2476Y-4561D01*
X2463Y-4557D01*
Y-4426D01*
X2461Y-4408D01*
X2454Y-4391D01*
X2443Y-4376D01*
X2428Y-4365D01*
X2411Y-4357D01*
X2392Y-4355D01*
X2391Y-4355D01*
X2381Y-4344D01*
X2382Y-4340D01*
X2378Y-4323D01*
X2369Y-4309D01*
X2354Y-4299D01*
X2338Y-4296D01*
X2321Y-4299D01*
X2306Y-4309D01*
X2297Y-4323D01*
X2293Y-4340D01*
X2297Y-4357D01*
X2306Y-4371D01*
X2321Y-4381D01*
X2324Y-4381D01*
X2329Y-4395D01*
X2324Y-4408D01*
X2322Y-4426D01*
Y-4582D01*
X2324Y-4600D01*
X2331Y-4617D01*
X2342Y-4632D01*
X2357Y-4643D01*
X2374Y-4651D01*
X2392Y-4653D01*
X2411Y-4651D01*
X2428Y-4643D01*
X2443Y-4632D01*
X2454Y-4617D01*
X2456Y-4612D01*
X2469Y-4614D01*
Y-4770D01*
X2456Y-4772D01*
X2454Y-4767D01*
X2443Y-4752D01*
X2428Y-4741D01*
X2411Y-4733D01*
X2392Y-4731D01*
X2374Y-4733D01*
X2357Y-4741D01*
X2342Y-4752D01*
X2331Y-4767D01*
X2324Y-4784D01*
X2322Y-4802D01*
Y-4958D01*
X2324Y-4976D01*
X2331Y-4993D01*
X2342Y-5008D01*
X2357Y-5019D01*
X2374Y-5027D01*
X2392Y-5029D01*
X2411Y-5027D01*
X2428Y-5019D01*
X2443Y-5008D01*
X2454Y-4993D01*
X2456Y-4988D01*
X2469Y-4990D01*
Y-5079D01*
X1431D01*
Y-5000D01*
X1444Y-4998D01*
X1446Y-5003D01*
X1457Y-5018D01*
X1472Y-5029D01*
X1489Y-5037D01*
X1507Y-5039D01*
X1526Y-5037D01*
X1543Y-5029D01*
X1558Y-5018D01*
X1569Y-5003D01*
X1576Y-4986D01*
X1578Y-4968D01*
Y-4812D01*
X1576Y-4794D01*
X1569Y-4777D01*
X1558Y-4762D01*
X1543Y-4751D01*
X1526Y-4743D01*
X1507Y-4741D01*
X1489Y-4743D01*
X1472Y-4751D01*
X1457Y-4762D01*
X1446Y-4777D01*
X1444Y-4782D01*
X1431Y-4780D01*
Y-4614D01*
X1444Y-4612D01*
X1446Y-4617D01*
X1457Y-4632D01*
X1472Y-4643D01*
X1489Y-4651D01*
X1507Y-4653D01*
X1526Y-4651D01*
X1543Y-4643D01*
X1558Y-4632D01*
X1569Y-4617D01*
X1576Y-4600D01*
X1578Y-4582D01*
Y-4426D01*
X1576Y-4408D01*
X1569Y-4391D01*
X1558Y-4376D01*
X1543Y-4365D01*
X1526Y-4357D01*
X1507Y-4355D01*
X1489Y-4357D01*
X1472Y-4365D01*
X1457Y-4376D01*
X1446Y-4391D01*
X1439Y-4408D01*
X1437Y-4426D01*
Y-4557D01*
X1424Y-4561D01*
X1422Y-4558D01*
X1412Y-4551D01*
X1400Y-4549D01*
X1204D01*
X1198Y-4538D01*
X1200Y-4535D01*
X1204Y-4514D01*
X1200Y-4493D01*
X1198Y-4491D01*
X1205Y-4478D01*
X1245D01*
X1266Y-4474D01*
X1283Y-4462D01*
X1295Y-4445D01*
X1299Y-4424D01*
X1295Y-4403D01*
X1283Y-4386D01*
X1266Y-4374D01*
X1255Y-4372D01*
Y-4359D01*
X1265Y-4357D01*
X1281Y-4346D01*
X1281Y-4346D01*
X1294Y-4346D01*
X1297Y-4350D01*
X1312Y-4361D01*
X1329Y-4369D01*
X1348Y-4371D01*
X1366Y-4369D01*
X1383Y-4361D01*
X1398Y-4350D01*
X1409Y-4335D01*
X1416Y-4318D01*
X1418Y-4300D01*
Y-4240D01*
X1416Y-4222D01*
X1409Y-4205D01*
X1398Y-4190D01*
X1383Y-4179D01*
X1366Y-4171D01*
X1348Y-4169D01*
X1329Y-4171D01*
X1312Y-4179D01*
X1297Y-4190D01*
X1286Y-4205D01*
X1279Y-4222D01*
X1277Y-4240D01*
Y-4256D01*
X1266Y-4262D01*
X1264Y-4262D01*
X1245Y-4259D01*
X1225Y-4263D01*
X1209Y-4274D01*
X1198Y-4290D01*
X1194Y-4310D01*
X1198Y-4330D01*
X1209Y-4346D01*
X1225Y-4357D01*
X1226Y-4357D01*
X1224Y-4370D01*
X1195D01*
X1174Y-4374D01*
X1157Y-4386D01*
X1145Y-4403D01*
X1141Y-4424D01*
X1145Y-4445D01*
X1147Y-4448D01*
X1141Y-4462D01*
X1129Y-4464D01*
X1120Y-4471D01*
X1110Y-4475D01*
X1100Y-4471D01*
X1091Y-4464D01*
X1083Y-4463D01*
X1077Y-4449D01*
X1080Y-4445D01*
X1084Y-4424D01*
X1080Y-4403D01*
X1068Y-4386D01*
X1051Y-4374D01*
X1030Y-4370D01*
X1009Y-4374D01*
X992Y-4386D01*
X991Y-4387D01*
X979D01*
X978Y-4386D01*
X961Y-4374D01*
X940Y-4370D01*
X919Y-4374D01*
X902Y-4386D01*
X898D01*
X881Y-4374D01*
X860Y-4370D01*
X839Y-4374D01*
X822Y-4386D01*
X810Y-4381D01*
X793Y-4369D01*
X783Y-4367D01*
Y-4424D01*
X770D01*
Y-4437D01*
X713D01*
X715Y-4447D01*
X719Y-4452D01*
X714Y-4463D01*
X709Y-4464D01*
X692Y-4476D01*
X688D01*
X671Y-4464D01*
X659Y-4462D01*
X653Y-4448D01*
X655Y-4445D01*
X659Y-4424D01*
X655Y-4403D01*
X643Y-4386D01*
X626Y-4374D01*
X605Y-4370D01*
X576D01*
X574Y-4357D01*
X575Y-4357D01*
X591Y-4346D01*
X602Y-4330D01*
X606Y-4310D01*
X602Y-4290D01*
X591Y-4274D01*
X575Y-4263D01*
X555Y-4259D01*
X536Y-4262D01*
X534Y-4262D01*
X523Y-4256D01*
Y-4240D01*
X521Y-4222D01*
X514Y-4205D01*
X503Y-4190D01*
X488Y-4179D01*
X471Y-4171D01*
X453Y-4169D01*
X434Y-4171D01*
X417Y-4179D01*
X402Y-4190D01*
X391Y-4205D01*
X384Y-4222D01*
X382Y-4240D01*
Y-4300D01*
X384Y-4318D01*
X391Y-4335D01*
X402Y-4350D01*
X417Y-4361D01*
X434Y-4369D01*
X453Y-4371D01*
X471Y-4369D01*
X488Y-4361D01*
X503Y-4350D01*
X506Y-4346D01*
X519Y-4346D01*
X519Y-4346D01*
X535Y-4357D01*
X545Y-4359D01*
Y-4372D01*
X534Y-4374D01*
X517Y-4386D01*
X505Y-4403D01*
X501Y-4424D01*
X505Y-4445D01*
X517Y-4462D01*
X534Y-4474D01*
X555Y-4478D01*
X595D01*
X602Y-4491D01*
X600Y-4493D01*
X596Y-4514D01*
X600Y-4535D01*
X602Y-4538D01*
X596Y-4549D01*
X400D01*
X388Y-4551D01*
X378Y-4558D01*
X376Y-4561D01*
X363Y-4557D01*
Y-4426D01*
X361Y-4408D01*
X354Y-4391D01*
X343Y-4376D01*
X328Y-4365D01*
X311Y-4357D01*
X292Y-4355D01*
X274Y-4357D01*
X257Y-4365D01*
X242Y-4376D01*
X231Y-4391D01*
X224Y-4408D01*
X222Y-4426D01*
Y-4582D01*
X224Y-4600D01*
X231Y-4617D01*
X242Y-4632D01*
X257Y-4643D01*
X274Y-4651D01*
X292Y-4653D01*
X311Y-4651D01*
X328Y-4643D01*
X343Y-4632D01*
X354Y-4617D01*
X356Y-4612D01*
X369Y-4614D01*
Y-4770D01*
X356Y-4772D01*
X354Y-4767D01*
X343Y-4752D01*
X328Y-4741D01*
X311Y-4733D01*
X292Y-4731D01*
X274Y-4733D01*
X257Y-4741D01*
X242Y-4752D01*
X231Y-4767D01*
X224Y-4784D01*
X222Y-4802D01*
Y-4958D01*
X224Y-4976D01*
X231Y-4993D01*
X242Y-5008D01*
X257Y-5019D01*
X274Y-5027D01*
X292Y-5029D01*
X311Y-5027D01*
X328Y-5019D01*
X343Y-5008D01*
X354Y-4993D01*
X356Y-4988D01*
X369Y-4990D01*
Y-5079D01*
X31D01*
Y-2291D01*
X1190Y-2291D01*
X1294Y-2186D01*
X1301Y-2191D01*
X1318Y-2194D01*
X1335Y-2191D01*
X1349Y-2181D01*
X1359Y-2167D01*
X1362Y-2150D01*
X1359Y-2133D01*
X1354Y-2127D01*
X1405Y-2076D01*
X1405Y-1959D01*
X690Y-1244D01*
X690Y-944D01*
X901D01*
X917Y-938D01*
X1389Y-465D01*
X1396Y-449D01*
X1396Y-31D01*
X1579D01*
X1583Y-42D01*
X1583Y-44D01*
X1573Y-57D01*
X1566Y-73D01*
X1564Y-90D01*
Y-160D01*
X1566Y-177D01*
X1573Y-193D01*
X1583Y-207D01*
X1597Y-217D01*
X1613Y-224D01*
X1630Y-226D01*
X1647Y-224D01*
X1663Y-217D01*
X1677Y-207D01*
X1687Y-193D01*
X1694Y-177D01*
X1696Y-160D01*
Y-90D01*
X1694Y-73D01*
X1687Y-57D01*
X1677Y-44D01*
X1677Y-42D01*
X1681Y-31D01*
X2239D01*
X2243Y-42D01*
X2243Y-44D01*
X2233Y-57D01*
X2226Y-73D01*
X2224Y-90D01*
Y-160D01*
X2226Y-177D01*
X2233Y-193D01*
X2243Y-207D01*
X2257Y-217D01*
X2273Y-224D01*
X2290Y-226D01*
X2307Y-224D01*
X2323Y-217D01*
X2337Y-207D01*
X2347Y-193D01*
X2354Y-177D01*
X2356Y-160D01*
Y-90D01*
X2354Y-73D01*
X2347Y-57D01*
X2337Y-44D01*
X2337Y-42D01*
X2341Y-31D01*
X2393D01*
X2396Y-44D01*
X2389Y-49D01*
X2379Y-63D01*
X2376Y-80D01*
X2379Y-97D01*
X2389Y-111D01*
X2403Y-121D01*
X2420Y-124D01*
X2437Y-121D01*
X2451Y-111D01*
X2461Y-97D01*
X2464Y-80D01*
X2461Y-63D01*
X2451Y-49D01*
X2444Y-44D01*
X2447Y-31D01*
X5728D01*
X5730Y-40D01*
D02*
G37*
G36*
X1350Y-454D02*
X894Y-910D01*
X660Y-910D01*
Y-1257D01*
X1369Y-1966D01*
X1369Y-2063D01*
X1325Y-2107D01*
X1318Y-2106D01*
X1301Y-2109D01*
X1287Y-2119D01*
X1277Y-2133D01*
X1274Y-2147D01*
X1261D01*
X1259Y-2133D01*
X1249Y-2119D01*
X1235Y-2109D01*
X1218Y-2106D01*
X1201Y-2109D01*
X1187Y-2119D01*
X1177Y-2133D01*
X1174Y-2150D01*
X1177Y-2167D01*
X1187Y-2181D01*
X1201Y-2191D01*
X1218Y-2194D01*
X1221Y-2193D01*
X1227Y-2205D01*
X1172Y-2260D01*
X31Y-2260D01*
X29Y-2248D01*
X22Y-2238D01*
X12Y-2231D01*
X-0Y-2229D01*
X-379D01*
Y-2211D01*
X-366Y-2204D01*
X-357Y-2211D01*
X-340Y-2214D01*
X-323Y-2211D01*
X-310Y-2202D01*
X-297Y-2211D01*
X-280Y-2214D01*
X-263Y-2211D01*
X-250Y-2202D01*
X-237Y-2211D01*
X-220Y-2214D01*
X-203Y-2211D01*
X-190Y-2202D01*
X-177Y-2211D01*
X-160Y-2214D01*
X-143Y-2211D01*
X-130Y-2202D01*
X-117Y-2211D01*
X-100Y-2214D01*
X-83Y-2211D01*
X-70Y-2202D01*
X-57Y-2211D01*
X-40Y-2214D01*
X-23Y-2211D01*
X-10Y-2202D01*
X3Y-2211D01*
X20Y-2214D01*
X37Y-2211D01*
X51Y-2201D01*
X61Y-2187D01*
X64Y-2170D01*
X61Y-2153D01*
X52Y-2140D01*
X61Y-2127D01*
X64Y-2110D01*
X61Y-2093D01*
X52Y-2080D01*
X61Y-2067D01*
X64Y-2050D01*
X61Y-2033D01*
X51Y-2019D01*
X37Y-2009D01*
X20Y-2006D01*
X3Y-2009D01*
X-10Y-2018D01*
X-23Y-2009D01*
X-40Y-2006D01*
X-57Y-2009D01*
X-70Y-2018D01*
X-83Y-2009D01*
X-100Y-2006D01*
X-117Y-2009D01*
X-130Y-2018D01*
X-143Y-2009D01*
X-160Y-2006D01*
X-177Y-2009D01*
X-190Y-2018D01*
X-203Y-2009D01*
X-220Y-2006D01*
X-237Y-2009D01*
X-250Y-2018D01*
X-263Y-2009D01*
X-280Y-2006D01*
X-297Y-2009D01*
X-310Y-2018D01*
X-323Y-2009D01*
X-340Y-2006D01*
X-357Y-2009D01*
X-366Y-2016D01*
X-379Y-2009D01*
Y-1961D01*
X-366Y-1954D01*
X-357Y-1961D01*
X-340Y-1964D01*
X-323Y-1961D01*
X-310Y-1952D01*
X-297Y-1961D01*
X-280Y-1964D01*
X-263Y-1961D01*
X-250Y-1952D01*
X-237Y-1961D01*
X-220Y-1964D01*
X-203Y-1961D01*
X-190Y-1952D01*
X-177Y-1961D01*
X-160Y-1964D01*
X-143Y-1961D01*
X-130Y-1952D01*
X-117Y-1961D01*
X-100Y-1964D01*
X-83Y-1961D01*
X-70Y-1952D01*
X-57Y-1961D01*
X-40Y-1964D01*
X-23Y-1961D01*
X-10Y-1952D01*
X3Y-1961D01*
X20Y-1964D01*
X37Y-1961D01*
X51Y-1951D01*
X61Y-1937D01*
X64Y-1920D01*
X61Y-1903D01*
X52Y-1890D01*
X61Y-1877D01*
X64Y-1860D01*
X61Y-1843D01*
X52Y-1830D01*
X61Y-1817D01*
X64Y-1800D01*
X61Y-1783D01*
X51Y-1769D01*
X37Y-1759D01*
X20Y-1756D01*
X3Y-1759D01*
X-10Y-1768D01*
X-23Y-1759D01*
X-40Y-1756D01*
X-57Y-1759D01*
X-70Y-1768D01*
X-83Y-1759D01*
X-100Y-1756D01*
X-117Y-1759D01*
X-130Y-1768D01*
X-143Y-1759D01*
X-160Y-1756D01*
X-177Y-1759D01*
X-190Y-1768D01*
X-203Y-1759D01*
X-220Y-1756D01*
X-237Y-1759D01*
X-250Y-1768D01*
X-263Y-1759D01*
X-280Y-1756D01*
X-297Y-1759D01*
X-310Y-1768D01*
X-323Y-1759D01*
X-340Y-1756D01*
X-357Y-1759D01*
X-366Y-1766D01*
X-379Y-1759D01*
Y-1711D01*
X-366Y-1704D01*
X-357Y-1711D01*
X-340Y-1714D01*
X-323Y-1711D01*
X-310Y-1702D01*
X-297Y-1711D01*
X-280Y-1714D01*
X-263Y-1711D01*
X-250Y-1702D01*
X-237Y-1711D01*
X-220Y-1714D01*
X-203Y-1711D01*
X-190Y-1702D01*
X-177Y-1711D01*
X-160Y-1714D01*
X-143Y-1711D01*
X-130Y-1702D01*
X-117Y-1711D01*
X-100Y-1714D01*
X-83Y-1711D01*
X-70Y-1702D01*
X-57Y-1711D01*
X-40Y-1714D01*
X-23Y-1711D01*
X-10Y-1702D01*
X3Y-1711D01*
X20Y-1714D01*
X37Y-1711D01*
X51Y-1701D01*
X61Y-1687D01*
X64Y-1670D01*
X61Y-1653D01*
X52Y-1640D01*
X61Y-1627D01*
X64Y-1610D01*
X61Y-1593D01*
X52Y-1580D01*
X61Y-1567D01*
X64Y-1550D01*
X61Y-1533D01*
X51Y-1519D01*
X37Y-1509D01*
X20Y-1506D01*
X3Y-1509D01*
X-10Y-1518D01*
X-23Y-1509D01*
X-40Y-1506D01*
X-57Y-1509D01*
X-70Y-1518D01*
X-83Y-1509D01*
X-100Y-1506D01*
X-117Y-1509D01*
X-130Y-1518D01*
X-143Y-1509D01*
X-160Y-1506D01*
X-177Y-1509D01*
X-190Y-1518D01*
X-203Y-1509D01*
X-220Y-1506D01*
X-237Y-1509D01*
X-250Y-1518D01*
X-263Y-1509D01*
X-280Y-1506D01*
X-297Y-1509D01*
X-310Y-1518D01*
X-323Y-1509D01*
X-340Y-1506D01*
X-357Y-1509D01*
X-366Y-1516D01*
X-379Y-1509D01*
Y-1241D01*
X-0D01*
X12Y-1239D01*
X22Y-1232D01*
X29Y-1222D01*
X31Y-1210D01*
Y-31D01*
X477D01*
X481Y-44D01*
X473Y-55D01*
X466Y-70D01*
X464Y-88D01*
Y-158D01*
X466Y-175D01*
X473Y-190D01*
X483Y-204D01*
X497Y-215D01*
X513Y-221D01*
X530Y-223D01*
X547Y-221D01*
X563Y-215D01*
X577Y-204D01*
X587Y-190D01*
X594Y-175D01*
X596Y-158D01*
Y-88D01*
X594Y-70D01*
X587Y-55D01*
X579Y-44D01*
X583Y-31D01*
X1137D01*
X1141Y-44D01*
X1133Y-55D01*
X1126Y-70D01*
X1124Y-88D01*
Y-158D01*
X1126Y-175D01*
X1133Y-190D01*
X1143Y-204D01*
X1157Y-215D01*
X1173Y-221D01*
X1190Y-223D01*
X1207Y-221D01*
X1223Y-215D01*
X1237Y-204D01*
X1247Y-190D01*
X1254Y-175D01*
X1256Y-158D01*
Y-88D01*
X1254Y-70D01*
X1247Y-55D01*
X1239Y-44D01*
X1243Y-31D01*
X1350D01*
X1350Y-454D01*
D02*
G37*
G36*
X5969Y-800D02*
Y-3259D01*
X4930Y-3259D01*
X4926Y-3260D01*
X4910D01*
Y-3276D01*
X4909Y-3280D01*
X4909Y-3819D01*
X4690D01*
X4684Y-3807D01*
X4691Y-3797D01*
X4694Y-3780D01*
X4691Y-3763D01*
X4681Y-3749D01*
X4667Y-3739D01*
X4650Y-3736D01*
X4633Y-3739D01*
X4619Y-3749D01*
X4609Y-3763D01*
X4606Y-3780D01*
X4609Y-3797D01*
X4616Y-3807D01*
X4610Y-3819D01*
X4409D01*
X4405Y-3820D01*
X4335D01*
X4331Y-3819D01*
X3982Y-3819D01*
X3982Y-3819D01*
X3981Y-3813D01*
X3971Y-3799D01*
X3957Y-3789D01*
X3940Y-3786D01*
X3923Y-3789D01*
X3909Y-3799D01*
X3899Y-3813D01*
X3898Y-3819D01*
X3898Y-3819D01*
X3869D01*
X3865Y-3820D01*
X3795D01*
X3791Y-3819D01*
X2749Y-3819D01*
X2745Y-3820D01*
X2675D01*
X2671Y-3819D01*
X2449D01*
X2447Y-3819D01*
X2437Y-3805D01*
X2423Y-3795D01*
X2406Y-3792D01*
X2389Y-3795D01*
X2375Y-3805D01*
X2365Y-3819D01*
X2363Y-3819D01*
X2280D01*
X2280Y-3819D01*
X2276Y-3820D01*
X2254D01*
X2254Y-3157D01*
X1968Y-2870D01*
X1958D01*
X1958Y-2870D01*
X1958Y-2870D01*
X1854Y-2870D01*
X1852Y-2870D01*
X1849Y-2858D01*
X1849Y-2478D01*
X1861Y-2471D01*
X1889Y-2480D01*
X1921Y-2483D01*
X1953Y-2480D01*
X1984Y-2470D01*
X2013Y-2455D01*
X2038Y-2434D01*
X2059Y-2409D01*
X2074Y-2380D01*
X2084Y-2349D01*
X2087Y-2317D01*
X2084Y-2285D01*
X2074Y-2254D01*
X2059Y-2225D01*
X2038Y-2200D01*
X2013Y-2179D01*
X1984Y-2164D01*
X1953Y-2154D01*
X1921Y-2151D01*
X1889Y-2154D01*
X1861Y-2163D01*
X1848Y-2156D01*
X1848Y-1943D01*
X1863Y-1933D01*
X1873Y-1918D01*
X1877Y-1900D01*
Y-1539D01*
X2264Y-1152D01*
X2277Y-1157D01*
X2279Y-1167D01*
X2289Y-1181D01*
X2303Y-1191D01*
X2320Y-1194D01*
X2337Y-1191D01*
X2351Y-1181D01*
X2361Y-1167D01*
X2364Y-1150D01*
X2361Y-1133D01*
X2351Y-1119D01*
X2337Y-1109D01*
X2327Y-1107D01*
X2322Y-1094D01*
X2498Y-918D01*
X2512Y-921D01*
X2519Y-931D01*
X2533Y-941D01*
X2550Y-944D01*
X2567Y-941D01*
X2581Y-931D01*
X2591Y-917D01*
X2594Y-900D01*
X2591Y-883D01*
X2581Y-869D01*
X2571Y-862D01*
X2568Y-848D01*
X2589Y-827D01*
X2700D01*
X2718Y-823D01*
X2733Y-813D01*
X2742Y-800D01*
X5969Y-800D01*
D02*
G37*
G36*
X1848Y-2890D02*
X1849Y-2890D01*
X1850Y-2890D01*
X1852Y-2891D01*
X1853Y-2891D01*
X1854Y-2891D01*
X1958Y-2891D01*
X2224Y-3157D01*
X2224Y-3756D01*
X2119Y-3861D01*
X1150Y-3861D01*
X1150Y-3861D01*
X1100Y-3810D01*
X1025Y-3736D01*
Y-3601D01*
X1027Y-3601D01*
X1041Y-3591D01*
X1051Y-3577D01*
X1054Y-3560D01*
X1051Y-3543D01*
X1041Y-3529D01*
X1027Y-3519D01*
X1025Y-3519D01*
X1025Y-3481D01*
X1027Y-3481D01*
X1041Y-3471D01*
X1051Y-3457D01*
X1054Y-3440D01*
X1051Y-3423D01*
X1041Y-3409D01*
X1027Y-3399D01*
X1025Y-3399D01*
Y-3275D01*
X1410Y-2890D01*
X1410Y-2890D01*
X1811Y-2890D01*
X1811Y-2890D01*
X1847D01*
X1848Y-2890D01*
D02*
G37*
%LPC*%
G36*
X4350Y-96D02*
X4333Y-99D01*
X4319Y-109D01*
X4309Y-123D01*
X4306Y-140D01*
X4309Y-157D01*
X4319Y-171D01*
X4333Y-181D01*
X4350Y-184D01*
X4367Y-181D01*
X4381Y-171D01*
X4391Y-157D01*
X4394Y-140D01*
X4391Y-123D01*
X4381Y-109D01*
X4367Y-99D01*
X4350Y-96D01*
D02*
G37*
G36*
X2990Y-186D02*
X2973Y-189D01*
X2959Y-199D01*
X2949Y-213D01*
X2936Y-217D01*
X2930Y-216D01*
X2913Y-219D01*
X2899Y-229D01*
X2889Y-243D01*
X2887Y-257D01*
X2880Y-256D01*
X2863Y-259D01*
X2850Y-268D01*
X2837Y-259D01*
X2820Y-256D01*
X2813Y-257D01*
X2811Y-243D01*
X2801Y-229D01*
X2787Y-219D01*
X2770Y-216D01*
X2764Y-217D01*
X2751Y-213D01*
X2741Y-199D01*
X2727Y-189D01*
X2710Y-186D01*
X2693Y-189D01*
X2679Y-199D01*
X2669Y-213D01*
X2666Y-230D01*
X2669Y-244D01*
X2669Y-247D01*
X2661Y-258D01*
X2653Y-259D01*
X2639Y-269D01*
X2629Y-283D01*
X2626Y-300D01*
X2629Y-317D01*
X2639Y-331D01*
X2653Y-341D01*
X2670Y-344D01*
X2687Y-341D01*
X2701Y-331D01*
X2711Y-317D01*
X2714Y-300D01*
X2711Y-286D01*
X2711Y-283D01*
X2717Y-276D01*
X2730Y-278D01*
X2739Y-291D01*
X2753Y-301D01*
X2770Y-304D01*
X2777Y-303D01*
X2779Y-317D01*
X2789Y-331D01*
X2803Y-341D01*
X2820Y-344D01*
X2837Y-341D01*
X2850Y-332D01*
X2863Y-341D01*
X2880Y-344D01*
X2897Y-341D01*
X2911Y-331D01*
X2921Y-317D01*
X2923Y-303D01*
X2930Y-304D01*
X2947Y-301D01*
X2961Y-291D01*
X2971Y-277D01*
X2984Y-273D01*
X2990Y-274D01*
X3007Y-271D01*
X3021Y-261D01*
X3031Y-247D01*
X3034Y-230D01*
X3031Y-213D01*
X3021Y-199D01*
X3007Y-189D01*
X2990Y-186D01*
D02*
G37*
G36*
X5430Y-146D02*
X5413Y-149D01*
X5399Y-159D01*
X5389Y-173D01*
X5386Y-190D01*
X5389Y-207D01*
X5399Y-221D01*
X5413Y-231D01*
X5430Y-234D01*
X5447Y-231D01*
X5461Y-221D01*
X5471Y-207D01*
X5474Y-190D01*
X5471Y-173D01*
X5461Y-159D01*
X5447Y-149D01*
X5430Y-146D01*
D02*
G37*
G36*
X4060Y-186D02*
X4043Y-189D01*
X4029Y-199D01*
X4019Y-213D01*
X4016Y-230D01*
X4019Y-247D01*
X4029Y-261D01*
X4043Y-271D01*
X4060Y-274D01*
X4077Y-271D01*
X4091Y-261D01*
X4101Y-247D01*
X4104Y-230D01*
X4101Y-213D01*
X4091Y-199D01*
X4077Y-189D01*
X4060Y-186D01*
D02*
G37*
G36*
X3670D02*
X3653Y-189D01*
X3639Y-199D01*
X3629Y-213D01*
X3626Y-230D01*
X3629Y-247D01*
X3639Y-261D01*
X3653Y-271D01*
X3670Y-274D01*
X3687Y-271D01*
X3701Y-261D01*
X3711Y-247D01*
X3714Y-230D01*
X3711Y-213D01*
X3701Y-199D01*
X3687Y-189D01*
X3670Y-186D01*
D02*
G37*
G36*
X3390D02*
X3373Y-189D01*
X3359Y-199D01*
X3349Y-213D01*
X3346Y-230D01*
X3349Y-247D01*
X3359Y-261D01*
X3373Y-271D01*
X3390Y-274D01*
X3407Y-271D01*
X3421Y-261D01*
X3431Y-247D01*
X3434Y-230D01*
X3431Y-213D01*
X3421Y-199D01*
X3407Y-189D01*
X3390Y-186D01*
D02*
G37*
G36*
X2590D02*
X2573Y-189D01*
X2559Y-199D01*
X2549Y-213D01*
X2546Y-230D01*
X2549Y-247D01*
X2559Y-261D01*
X2573Y-271D01*
X2590Y-274D01*
X2607Y-271D01*
X2621Y-261D01*
X2631Y-247D01*
X2634Y-230D01*
X2631Y-213D01*
X2621Y-199D01*
X2607Y-189D01*
X2590Y-186D01*
D02*
G37*
G36*
X3850Y-256D02*
X3833Y-259D01*
X3819Y-269D01*
X3809Y-283D01*
X3806Y-297D01*
X3794D01*
X3791Y-283D01*
X3781Y-269D01*
X3767Y-259D01*
X3750Y-256D01*
X3733Y-259D01*
X3719Y-269D01*
X3709Y-283D01*
X3706Y-300D01*
X3709Y-317D01*
X3719Y-331D01*
X3733Y-341D01*
X3750Y-344D01*
X3767Y-341D01*
X3781Y-331D01*
X3791Y-317D01*
X3794Y-303D01*
X3806D01*
X3809Y-317D01*
X3819Y-331D01*
X3833Y-341D01*
X3850Y-344D01*
X3867Y-341D01*
X3881Y-331D01*
X3891Y-317D01*
X3894Y-300D01*
X3891Y-283D01*
X3881Y-269D01*
X3867Y-259D01*
X3850Y-256D01*
D02*
G37*
G36*
X3470D02*
X3453Y-259D01*
X3439Y-269D01*
X3429Y-283D01*
X3426Y-300D01*
X3429Y-317D01*
X3439Y-331D01*
X3453Y-341D01*
X3470Y-344D01*
X3487Y-341D01*
X3501Y-331D01*
X3511Y-317D01*
X3514Y-300D01*
X3511Y-283D01*
X3501Y-269D01*
X3487Y-259D01*
X3470Y-256D01*
D02*
G37*
G36*
X3070D02*
X3053Y-259D01*
X3039Y-269D01*
X3029Y-283D01*
X3026Y-300D01*
X3029Y-317D01*
X3039Y-331D01*
X3053Y-341D01*
X3070Y-344D01*
X3087Y-341D01*
X3101Y-331D01*
X3111Y-317D01*
X3114Y-300D01*
X3111Y-283D01*
X3101Y-269D01*
X3087Y-259D01*
X3070Y-256D01*
D02*
G37*
G36*
X2530Y-456D02*
X2513Y-459D01*
X2499Y-469D01*
X2489Y-483D01*
X2488Y-491D01*
X2477Y-499D01*
X2474Y-499D01*
X2460Y-496D01*
X2443Y-499D01*
X2429Y-509D01*
X2419Y-523D01*
X2416Y-540D01*
X2419Y-557D01*
X2429Y-571D01*
X2443Y-581D01*
X2460Y-584D01*
X2477Y-581D01*
X2491Y-571D01*
X2501Y-557D01*
X2502Y-549D01*
X2513Y-541D01*
X2516Y-541D01*
X2530Y-544D01*
X2547Y-541D01*
X2561Y-531D01*
X2571Y-517D01*
X2574Y-500D01*
X2571Y-483D01*
X2561Y-469D01*
X2547Y-459D01*
X2530Y-456D01*
D02*
G37*
G36*
X2320Y-446D02*
X2303Y-449D01*
X2289Y-459D01*
X2279Y-473D01*
X2276Y-490D01*
X2279Y-507D01*
X2289Y-521D01*
X2303Y-531D01*
X2320Y-534D01*
X2337Y-531D01*
X2351Y-521D01*
X2361Y-507D01*
X2364Y-490D01*
X2361Y-473D01*
X2351Y-459D01*
X2337Y-449D01*
X2320Y-446D01*
D02*
G37*
G36*
X4090Y-456D02*
X4073Y-459D01*
X4059Y-469D01*
X4049Y-483D01*
X4046Y-500D01*
X4049Y-517D01*
X4059Y-531D01*
X4073Y-541D01*
X4090Y-544D01*
X4107Y-541D01*
X4121Y-531D01*
X4131Y-517D01*
X4134Y-500D01*
X4131Y-483D01*
X4121Y-469D01*
X4107Y-459D01*
X4090Y-456D01*
D02*
G37*
G36*
X2850D02*
X2833Y-459D01*
X2819Y-469D01*
X2809Y-483D01*
X2806Y-500D01*
X2809Y-517D01*
X2819Y-531D01*
X2833Y-541D01*
X2850Y-544D01*
X2867Y-541D01*
X2881Y-531D01*
X2891Y-517D01*
X2894Y-500D01*
X2891Y-483D01*
X2881Y-469D01*
X2867Y-459D01*
X2850Y-456D01*
D02*
G37*
G36*
X3410Y-466D02*
X3393Y-469D01*
X3379Y-479D01*
X3369Y-493D01*
X3366Y-510D01*
X3369Y-527D01*
X3379Y-541D01*
X3393Y-551D01*
X3410Y-554D01*
X3427Y-551D01*
X3441Y-541D01*
X3451Y-527D01*
X3454Y-510D01*
X3451Y-493D01*
X3441Y-479D01*
X3427Y-469D01*
X3410Y-466D01*
D02*
G37*
G36*
X2150D02*
X2133Y-469D01*
X2119Y-479D01*
X2109Y-493D01*
X2106Y-510D01*
X2109Y-527D01*
X2119Y-541D01*
X2133Y-551D01*
X2150Y-554D01*
X2167Y-551D01*
X2181Y-541D01*
X2191Y-527D01*
X2194Y-510D01*
X2191Y-493D01*
X2181Y-479D01*
X2167Y-469D01*
X2150Y-466D01*
D02*
G37*
G36*
X3500Y-556D02*
X3483Y-559D01*
X3469Y-569D01*
X3460Y-583D01*
X3457Y-585D01*
X3450Y-588D01*
X3445Y-589D01*
X3430Y-586D01*
X3413Y-589D01*
X3399Y-599D01*
X3389Y-613D01*
X3386Y-630D01*
X3389Y-647D01*
X3399Y-661D01*
X3413Y-671D01*
X3430Y-674D01*
X3447Y-671D01*
X3461Y-661D01*
X3470Y-647D01*
X3473Y-645D01*
X3480Y-642D01*
X3485Y-641D01*
X3500Y-644D01*
X3517Y-641D01*
X3531Y-631D01*
X3541Y-617D01*
X3544Y-600D01*
X3541Y-583D01*
X3531Y-569D01*
X3517Y-559D01*
X3500Y-556D01*
D02*
G37*
G36*
X1840Y-596D02*
X1823Y-599D01*
X1809Y-609D01*
X1799Y-623D01*
X1796Y-640D01*
X1799Y-657D01*
X1809Y-671D01*
X1823Y-681D01*
X1840Y-684D01*
X1857Y-681D01*
X1871Y-671D01*
X1881Y-657D01*
X1884Y-640D01*
X1881Y-623D01*
X1871Y-609D01*
X1857Y-599D01*
X1840Y-596D01*
D02*
G37*
G36*
X3830Y-616D02*
X3813Y-619D01*
X3799Y-629D01*
X3789Y-643D01*
X3786Y-660D01*
X3789Y-677D01*
X3799Y-691D01*
X3813Y-701D01*
X3830Y-704D01*
X3847Y-701D01*
X3861Y-691D01*
X3864Y-688D01*
X3872Y-689D01*
X3876Y-691D01*
X3879Y-707D01*
X3889Y-721D01*
X3903Y-731D01*
X3920Y-734D01*
X3937Y-731D01*
X3951Y-721D01*
X3961Y-707D01*
X3964Y-690D01*
X3961Y-673D01*
X3951Y-659D01*
X3937Y-649D01*
X3920Y-646D01*
X3903Y-649D01*
X3889Y-659D01*
X3886Y-662D01*
X3878Y-661D01*
X3874Y-659D01*
X3871Y-643D01*
X3861Y-629D01*
X3847Y-619D01*
X3830Y-616D01*
D02*
G37*
G36*
X1390Y-686D02*
X1373Y-689D01*
X1359Y-699D01*
X1349Y-713D01*
X1346Y-730D01*
X1349Y-747D01*
X1359Y-761D01*
X1373Y-771D01*
X1390Y-774D01*
X1407Y-771D01*
X1421Y-761D01*
X1431Y-747D01*
X1434Y-730D01*
X1431Y-713D01*
X1421Y-699D01*
X1407Y-689D01*
X1390Y-686D01*
D02*
G37*
G36*
X1550Y-696D02*
X1533Y-699D01*
X1519Y-709D01*
X1509Y-723D01*
X1506Y-740D01*
X1509Y-757D01*
X1519Y-771D01*
X1533Y-781D01*
X1550Y-784D01*
X1567Y-781D01*
X1581Y-771D01*
X1591Y-757D01*
X1594Y-740D01*
X1591Y-723D01*
X1581Y-709D01*
X1567Y-699D01*
X1550Y-696D01*
D02*
G37*
G36*
X2030Y-736D02*
X2013Y-739D01*
X1999Y-749D01*
X1989Y-763D01*
X1986Y-780D01*
X1989Y-797D01*
X1999Y-811D01*
X2013Y-821D01*
X2030Y-824D01*
X2047Y-821D01*
X2061Y-811D01*
X2071Y-797D01*
X2074Y-780D01*
X2071Y-763D01*
X2061Y-749D01*
X2047Y-739D01*
X2030Y-736D01*
D02*
G37*
G36*
X2320Y-776D02*
X2303Y-779D01*
X2289Y-789D01*
X2279Y-803D01*
X2276Y-820D01*
X2279Y-837D01*
X2289Y-851D01*
X2303Y-861D01*
X2320Y-864D01*
X2337Y-861D01*
X2351Y-851D01*
X2361Y-837D01*
X2364Y-820D01*
X2361Y-803D01*
X2351Y-789D01*
X2337Y-779D01*
X2320Y-776D01*
D02*
G37*
G36*
X1460Y-786D02*
X1443Y-789D01*
X1429Y-799D01*
X1419Y-813D01*
X1416Y-830D01*
X1419Y-847D01*
X1429Y-861D01*
X1443Y-871D01*
X1460Y-874D01*
X1477Y-871D01*
X1491Y-861D01*
X1501Y-847D01*
X1504Y-830D01*
X1501Y-813D01*
X1491Y-799D01*
X1477Y-789D01*
X1460Y-786D01*
D02*
G37*
G36*
X1990Y-1106D02*
X1973Y-1109D01*
X1959Y-1119D01*
X1949Y-1133D01*
X1946Y-1150D01*
X1949Y-1167D01*
X1959Y-1181D01*
X1973Y-1191D01*
X1990Y-1194D01*
X2007Y-1191D01*
X2021Y-1181D01*
X2031Y-1167D01*
X2034Y-1150D01*
X2031Y-1133D01*
X2021Y-1119D01*
X2007Y-1109D01*
X1990Y-1106D01*
D02*
G37*
G36*
X1730D02*
X1713Y-1109D01*
X1699Y-1119D01*
X1689Y-1133D01*
X1686Y-1150D01*
X1689Y-1167D01*
X1699Y-1181D01*
X1713Y-1191D01*
X1730Y-1194D01*
X1747Y-1191D01*
X1761Y-1181D01*
X1771Y-1167D01*
X1774Y-1150D01*
X1771Y-1133D01*
X1761Y-1119D01*
X1747Y-1109D01*
X1730Y-1106D01*
D02*
G37*
G36*
X1570Y-1126D02*
X1553Y-1129D01*
X1539Y-1139D01*
X1529Y-1153D01*
X1526Y-1170D01*
X1529Y-1187D01*
X1539Y-1201D01*
X1553Y-1211D01*
X1570Y-1214D01*
X1587Y-1211D01*
X1601Y-1201D01*
X1611Y-1187D01*
X1614Y-1170D01*
X1611Y-1153D01*
X1601Y-1139D01*
X1587Y-1129D01*
X1570Y-1126D01*
D02*
G37*
G36*
X1360Y-1046D02*
X1343Y-1049D01*
X1329Y-1059D01*
X1319Y-1073D01*
X1316Y-1090D01*
X1319Y-1107D01*
X1329Y-1121D01*
X1341Y-1129D01*
X1343Y-1132D01*
X1345Y-1144D01*
X1339Y-1153D01*
X1336Y-1170D01*
X1339Y-1187D01*
X1349Y-1201D01*
X1363Y-1211D01*
X1380Y-1214D01*
X1397Y-1211D01*
X1411Y-1201D01*
X1421Y-1187D01*
X1424Y-1170D01*
X1421Y-1153D01*
X1411Y-1139D01*
X1399Y-1131D01*
X1397Y-1128D01*
X1395Y-1116D01*
X1401Y-1107D01*
X1404Y-1090D01*
X1401Y-1073D01*
X1391Y-1059D01*
X1377Y-1049D01*
X1360Y-1046D01*
D02*
G37*
G36*
X1100Y-1126D02*
X1083Y-1129D01*
X1069Y-1139D01*
X1059Y-1153D01*
X1056Y-1170D01*
X1059Y-1187D01*
X1069Y-1201D01*
X1083Y-1211D01*
X1100Y-1214D01*
X1117Y-1211D01*
X1131Y-1201D01*
X1141Y-1187D01*
X1144Y-1170D01*
X1141Y-1153D01*
X1131Y-1139D01*
X1117Y-1129D01*
X1100Y-1126D01*
D02*
G37*
G36*
X900Y-1146D02*
X883Y-1149D01*
X869Y-1159D01*
X859Y-1173D01*
X856Y-1190D01*
X859Y-1207D01*
X869Y-1221D01*
X883Y-1231D01*
X900Y-1234D01*
X917Y-1231D01*
X931Y-1221D01*
X941Y-1207D01*
X944Y-1190D01*
X941Y-1173D01*
X931Y-1159D01*
X917Y-1149D01*
X900Y-1146D01*
D02*
G37*
G36*
X770D02*
X753Y-1149D01*
X739Y-1159D01*
X729Y-1173D01*
X726Y-1190D01*
X729Y-1207D01*
X739Y-1221D01*
X753Y-1231D01*
X770Y-1234D01*
X787Y-1231D01*
X801Y-1221D01*
X811Y-1207D01*
X814Y-1190D01*
X811Y-1173D01*
X801Y-1159D01*
X787Y-1149D01*
X770Y-1146D01*
D02*
G37*
G36*
X1680Y-1286D02*
X1663Y-1289D01*
X1649Y-1299D01*
X1639Y-1313D01*
X1636Y-1330D01*
X1639Y-1347D01*
X1649Y-1361D01*
X1663Y-1371D01*
X1680Y-1374D01*
X1697Y-1371D01*
X1711Y-1361D01*
X1721Y-1347D01*
X1724Y-1330D01*
X1721Y-1313D01*
X1711Y-1299D01*
X1697Y-1289D01*
X1680Y-1286D01*
D02*
G37*
G36*
X1380D02*
X1363Y-1289D01*
X1349Y-1299D01*
X1339Y-1313D01*
X1336Y-1330D01*
X1339Y-1347D01*
X1349Y-1361D01*
X1363Y-1371D01*
X1380Y-1374D01*
X1397Y-1371D01*
X1411Y-1361D01*
X1421Y-1347D01*
X1424Y-1330D01*
X1421Y-1313D01*
X1411Y-1299D01*
X1397Y-1289D01*
X1380Y-1286D01*
D02*
G37*
G36*
X1487Y-1369D02*
X1470Y-1372D01*
X1456Y-1382D01*
X1446Y-1396D01*
X1443Y-1413D01*
X1446Y-1430D01*
X1456Y-1444D01*
X1470Y-1454D01*
X1487Y-1457D01*
X1504Y-1454D01*
X1518Y-1444D01*
X1528Y-1430D01*
X1531Y-1413D01*
X1528Y-1396D01*
X1518Y-1382D01*
X1504Y-1372D01*
X1487Y-1369D01*
D02*
G37*
G36*
X1100Y-1286D02*
X1083Y-1289D01*
X1069Y-1299D01*
X1059Y-1313D01*
X1056Y-1330D01*
X1059Y-1347D01*
X1069Y-1361D01*
X1078Y-1367D01*
X1079Y-1381D01*
X1079Y-1382D01*
X1075Y-1385D01*
X1065Y-1399D01*
X1062Y-1416D01*
X1065Y-1433D01*
X1075Y-1447D01*
X1089Y-1457D01*
X1106Y-1460D01*
X1123Y-1457D01*
X1137Y-1447D01*
X1147Y-1433D01*
X1150Y-1416D01*
X1147Y-1399D01*
X1137Y-1385D01*
X1128Y-1379D01*
X1127Y-1365D01*
X1127Y-1364D01*
X1131Y-1361D01*
X1141Y-1347D01*
X1144Y-1330D01*
X1141Y-1313D01*
X1131Y-1299D01*
X1117Y-1289D01*
X1100Y-1286D01*
D02*
G37*
G36*
X1620Y-1576D02*
X1603Y-1579D01*
X1589Y-1589D01*
X1579Y-1603D01*
X1576Y-1620D01*
X1579Y-1637D01*
X1589Y-1651D01*
X1603Y-1661D01*
X1620Y-1664D01*
X1637Y-1661D01*
X1651Y-1651D01*
X1661Y-1637D01*
X1664Y-1620D01*
X1661Y-1603D01*
X1651Y-1589D01*
X1637Y-1579D01*
X1620Y-1576D01*
D02*
G37*
G36*
X1567Y-1826D02*
X1550Y-1829D01*
X1536Y-1839D01*
X1526Y-1853D01*
X1523Y-1870D01*
X1526Y-1887D01*
X1536Y-1901D01*
X1550Y-1911D01*
X1567Y-1914D01*
X1584Y-1911D01*
X1598Y-1901D01*
X1608Y-1887D01*
X1611Y-1870D01*
X1608Y-1853D01*
X1598Y-1839D01*
X1584Y-1829D01*
X1567Y-1826D01*
D02*
G37*
G36*
X970Y-2306D02*
X953Y-2309D01*
X939Y-2319D01*
X929Y-2333D01*
X926Y-2350D01*
X929Y-2367D01*
X939Y-2381D01*
X953Y-2391D01*
X970Y-2394D01*
X987Y-2391D01*
X1001Y-2381D01*
X1011Y-2367D01*
X1014Y-2350D01*
X1011Y-2333D01*
X1001Y-2319D01*
X987Y-2309D01*
X970Y-2306D01*
D02*
G37*
G36*
X1610Y-2456D02*
X1593Y-2459D01*
X1579Y-2469D01*
X1569Y-2483D01*
X1566Y-2500D01*
X1569Y-2517D01*
X1579Y-2531D01*
X1593Y-2541D01*
X1610Y-2544D01*
X1627Y-2541D01*
X1641Y-2531D01*
X1651Y-2517D01*
X1654Y-2500D01*
X1651Y-2483D01*
X1641Y-2469D01*
X1627Y-2459D01*
X1610Y-2456D01*
D02*
G37*
G36*
X100Y-2546D02*
X83Y-2549D01*
X69Y-2559D01*
X59Y-2573D01*
X56Y-2590D01*
X59Y-2607D01*
X69Y-2621D01*
X83Y-2631D01*
X100Y-2634D01*
X117Y-2631D01*
X131Y-2621D01*
X141Y-2607D01*
X144Y-2590D01*
X141Y-2573D01*
X131Y-2559D01*
X117Y-2549D01*
X100Y-2546D01*
D02*
G37*
G36*
X1524Y-2657D02*
X1507Y-2660D01*
X1493Y-2669D01*
X1483Y-2684D01*
X1480Y-2701D01*
X1483Y-2717D01*
X1493Y-2732D01*
X1507Y-2741D01*
X1524Y-2745D01*
X1541Y-2741D01*
X1555Y-2732D01*
X1565Y-2717D01*
X1568Y-2701D01*
X1565Y-2684D01*
X1555Y-2669D01*
X1541Y-2660D01*
X1524Y-2657D01*
D02*
G37*
G36*
X1280Y-2766D02*
X1263Y-2769D01*
X1249Y-2779D01*
X1239Y-2793D01*
X1236Y-2810D01*
X1239Y-2827D01*
X1249Y-2841D01*
X1263Y-2851D01*
X1280Y-2854D01*
X1297Y-2851D01*
X1311Y-2841D01*
X1321Y-2827D01*
X1324Y-2810D01*
X1321Y-2793D01*
X1311Y-2779D01*
X1297Y-2769D01*
X1280Y-2766D01*
D02*
G37*
G36*
X953Y-2966D02*
X936Y-2969D01*
X922Y-2979D01*
X912Y-2993D01*
X909Y-3010D01*
X912Y-3027D01*
X922Y-3041D01*
X936Y-3051D01*
X953Y-3054D01*
X970Y-3051D01*
X984Y-3041D01*
X994Y-3027D01*
X997Y-3010D01*
X994Y-2993D01*
X984Y-2979D01*
X970Y-2969D01*
X953Y-2966D01*
D02*
G37*
G36*
X5015Y-3311D02*
X4998Y-3314D01*
X4984Y-3324D01*
X4974Y-3338D01*
X4971Y-3355D01*
X4974Y-3372D01*
X4984Y-3386D01*
X4998Y-3396D01*
X5015Y-3399D01*
X5032Y-3396D01*
X5046Y-3386D01*
X5056Y-3372D01*
X5059Y-3355D01*
X5056Y-3338D01*
X5046Y-3324D01*
X5032Y-3314D01*
X5015Y-3311D01*
D02*
G37*
G36*
X100Y-3556D02*
X83Y-3559D01*
X69Y-3569D01*
X59Y-3583D01*
X56Y-3600D01*
X59Y-3617D01*
X69Y-3631D01*
X83Y-3641D01*
X100Y-3644D01*
X117Y-3641D01*
X131Y-3631D01*
X141Y-3617D01*
X144Y-3600D01*
X141Y-3583D01*
X131Y-3569D01*
X117Y-3559D01*
X100Y-3556D01*
D02*
G37*
G36*
X5791Y-3566D02*
X5774Y-3569D01*
X5760Y-3579D01*
X5751Y-3593D01*
X5747Y-3610D01*
X5751Y-3627D01*
X5760Y-3641D01*
X5774Y-3651D01*
X5791Y-3654D01*
X5808Y-3651D01*
X5822Y-3641D01*
X5832Y-3627D01*
X5835Y-3610D01*
X5832Y-3593D01*
X5822Y-3579D01*
X5808Y-3569D01*
X5791Y-3566D01*
D02*
G37*
G36*
X880Y-3626D02*
X863Y-3629D01*
X849Y-3639D01*
X839Y-3653D01*
X836Y-3670D01*
X839Y-3687D01*
X849Y-3701D01*
X863Y-3711D01*
X880Y-3714D01*
X897Y-3711D01*
X911Y-3701D01*
X921Y-3687D01*
X924Y-3670D01*
X921Y-3653D01*
X911Y-3639D01*
X897Y-3629D01*
X880Y-3626D01*
D02*
G37*
G36*
X710Y-3676D02*
X693Y-3679D01*
X679Y-3689D01*
X669Y-3703D01*
X666Y-3720D01*
X669Y-3737D01*
X679Y-3751D01*
X693Y-3761D01*
X710Y-3764D01*
X727Y-3761D01*
X741Y-3751D01*
X751Y-3737D01*
X754Y-3720D01*
X751Y-3703D01*
X741Y-3689D01*
X727Y-3679D01*
X710Y-3676D01*
D02*
G37*
G36*
X5890Y-3786D02*
X5873Y-3789D01*
X5859Y-3799D01*
X5849Y-3813D01*
X5846Y-3827D01*
X5834D01*
X5831Y-3813D01*
X5821Y-3799D01*
X5807Y-3789D01*
X5790Y-3786D01*
X5773Y-3789D01*
X5759Y-3799D01*
X5749Y-3813D01*
X5746Y-3830D01*
X5749Y-3847D01*
X5759Y-3861D01*
X5773Y-3871D01*
X5790Y-3874D01*
X5807Y-3871D01*
X5821Y-3861D01*
X5831Y-3847D01*
X5834Y-3833D01*
X5846D01*
X5849Y-3847D01*
X5859Y-3861D01*
X5873Y-3871D01*
X5890Y-3874D01*
X5907Y-3871D01*
X5921Y-3861D01*
X5931Y-3847D01*
X5934Y-3830D01*
X5931Y-3813D01*
X5921Y-3799D01*
X5907Y-3789D01*
X5890Y-3786D01*
D02*
G37*
G36*
X5226Y-3750D02*
X5209Y-3753D01*
X5195Y-3763D01*
X5185Y-3777D01*
X5182Y-3794D01*
X5185Y-3811D01*
X5195Y-3825D01*
X5209Y-3835D01*
X5226Y-3838D01*
X5243Y-3835D01*
X5257Y-3825D01*
X5267Y-3811D01*
X5270Y-3794D01*
X5267Y-3777D01*
X5257Y-3763D01*
X5243Y-3753D01*
X5226Y-3750D01*
D02*
G37*
G36*
X4740Y-3853D02*
X4723Y-3857D01*
X4709Y-3866D01*
X4704Y-3874D01*
X4689D01*
X4684Y-3866D01*
X4669Y-3857D01*
X4652Y-3853D01*
X4636Y-3857D01*
X4621Y-3866D01*
X4612Y-3881D01*
X4608Y-3897D01*
X4612Y-3914D01*
X4621Y-3929D01*
X4636Y-3938D01*
X4652Y-3942D01*
X4669Y-3938D01*
X4684Y-3929D01*
X4689Y-3921D01*
X4704D01*
X4709Y-3929D01*
X4723Y-3938D01*
X4740Y-3942D01*
X4757Y-3938D01*
X4771Y-3929D01*
X4781Y-3914D01*
X4784Y-3897D01*
X4781Y-3881D01*
X4771Y-3866D01*
X4757Y-3857D01*
X4740Y-3853D01*
D02*
G37*
G36*
X5700Y-3836D02*
X5683Y-3839D01*
X5669Y-3849D01*
X5659Y-3863D01*
X5656Y-3880D01*
X5659Y-3897D01*
X5669Y-3911D01*
X5683Y-3921D01*
X5700Y-3924D01*
X5717Y-3921D01*
X5731Y-3911D01*
X5741Y-3897D01*
X5744Y-3880D01*
X5741Y-3863D01*
X5731Y-3849D01*
X5717Y-3839D01*
X5700Y-3836D01*
D02*
G37*
G36*
X3350Y-3946D02*
X3333Y-3949D01*
X3319Y-3959D01*
X3316Y-3963D01*
X3304D01*
X3301Y-3959D01*
X3287Y-3949D01*
X3270Y-3946D01*
X3253Y-3949D01*
X3239Y-3959D01*
X3229Y-3973D01*
X3226Y-3990D01*
X3229Y-4007D01*
X3239Y-4021D01*
X3253Y-4031D01*
X3270Y-4034D01*
X3287Y-4031D01*
X3301Y-4021D01*
X3304Y-4017D01*
X3316D01*
X3319Y-4021D01*
X3333Y-4031D01*
X3350Y-4034D01*
X3367Y-4031D01*
X3368Y-4031D01*
X3369Y-4037D01*
X3379Y-4051D01*
X3393Y-4061D01*
X3410Y-4064D01*
X3427Y-4061D01*
X3430Y-4058D01*
X3439Y-4071D01*
X3453Y-4081D01*
X3470Y-4084D01*
X3487Y-4081D01*
X3501Y-4071D01*
X3511Y-4057D01*
X3514Y-4040D01*
X3511Y-4023D01*
X3501Y-4009D01*
X3487Y-3999D01*
X3470Y-3996D01*
X3453Y-3999D01*
X3450Y-4002D01*
X3441Y-3989D01*
X3427Y-3979D01*
X3410Y-3976D01*
X3393Y-3979D01*
X3391Y-3975D01*
X3391Y-3973D01*
X3381Y-3959D01*
X3367Y-3949D01*
X3350Y-3946D01*
D02*
G37*
G36*
X2556Y-3880D02*
X2539Y-3883D01*
X2525Y-3893D01*
X2515Y-3907D01*
X2512Y-3924D01*
X2515Y-3941D01*
X2525Y-3955D01*
X2539Y-3965D01*
X2556Y-3968D01*
X2573Y-3965D01*
X2587Y-3955D01*
X2597Y-3941D01*
X2600Y-3924D01*
X2597Y-3907D01*
X2587Y-3893D01*
X2573Y-3883D01*
X2556Y-3880D01*
D02*
G37*
G36*
X1900Y-3946D02*
X1883Y-3949D01*
X1869Y-3959D01*
X1859Y-3973D01*
X1856Y-3990D01*
X1859Y-4007D01*
X1869Y-4021D01*
X1883Y-4031D01*
X1900Y-4034D01*
X1917Y-4031D01*
X1931Y-4021D01*
X1941Y-4007D01*
X1944Y-3990D01*
X1941Y-3973D01*
X1931Y-3959D01*
X1917Y-3949D01*
X1900Y-3946D01*
D02*
G37*
G36*
X1490D02*
X1473Y-3949D01*
X1459Y-3959D01*
X1449Y-3973D01*
X1446Y-3990D01*
X1449Y-4007D01*
X1459Y-4021D01*
X1473Y-4031D01*
X1490Y-4034D01*
X1507Y-4031D01*
X1521Y-4021D01*
X1531Y-4007D01*
X1534Y-3990D01*
X1531Y-3973D01*
X1521Y-3959D01*
X1507Y-3949D01*
X1490Y-3946D01*
D02*
G37*
G36*
X1030D02*
X1013Y-3949D01*
X999Y-3959D01*
X989Y-3973D01*
X986Y-3990D01*
X989Y-4007D01*
X999Y-4021D01*
X1013Y-4031D01*
X1030Y-4034D01*
X1047Y-4031D01*
X1061Y-4021D01*
X1071Y-4007D01*
X1074Y-3990D01*
X1071Y-3973D01*
X1061Y-3959D01*
X1047Y-3949D01*
X1030Y-3946D01*
D02*
G37*
G36*
X4290Y-3966D02*
X4273Y-3969D01*
X4259Y-3979D01*
X4249Y-3993D01*
X4246Y-4010D01*
X4249Y-4027D01*
X4259Y-4041D01*
X4273Y-4051D01*
X4290Y-4054D01*
X4307Y-4051D01*
X4321Y-4041D01*
X4331Y-4027D01*
X4334Y-4010D01*
X4331Y-3993D01*
X4321Y-3979D01*
X4307Y-3969D01*
X4290Y-3966D01*
D02*
G37*
G36*
X3840D02*
X3823Y-3969D01*
X3809Y-3979D01*
X3799Y-3993D01*
X3796Y-4010D01*
X3799Y-4027D01*
X3809Y-4041D01*
X3823Y-4051D01*
X3840Y-4054D01*
X3857Y-4051D01*
X3871Y-4041D01*
X3881Y-4027D01*
X3884Y-4010D01*
X3881Y-3993D01*
X3871Y-3979D01*
X3857Y-3969D01*
X3840Y-3966D01*
D02*
G37*
G36*
X2980D02*
X2963Y-3969D01*
X2949Y-3979D01*
X2939Y-3993D01*
X2936Y-4010D01*
X2939Y-4027D01*
X2949Y-4041D01*
X2963Y-4051D01*
X2980Y-4054D01*
X2997Y-4051D01*
X3011Y-4041D01*
X3021Y-4027D01*
X3024Y-4010D01*
X3021Y-3993D01*
X3011Y-3979D01*
X2997Y-3969D01*
X2980Y-3966D01*
D02*
G37*
G36*
X2370Y-3986D02*
X2353Y-3989D01*
X2339Y-3999D01*
X2329Y-4013D01*
X2326Y-4030D01*
X2329Y-4047D01*
X2339Y-4061D01*
X2353Y-4071D01*
X2370Y-4074D01*
X2387Y-4071D01*
X2401Y-4061D01*
X2411Y-4047D01*
X2414Y-4030D01*
X2411Y-4013D01*
X2401Y-3999D01*
X2387Y-3989D01*
X2370Y-3986D01*
D02*
G37*
G36*
X1260Y-3996D02*
X1243Y-3999D01*
X1229Y-4009D01*
X1219Y-4023D01*
X1216Y-4040D01*
X1219Y-4057D01*
X1229Y-4071D01*
X1243Y-4081D01*
X1260Y-4084D01*
X1277Y-4081D01*
X1291Y-4071D01*
X1301Y-4057D01*
X1304Y-4040D01*
X1301Y-4023D01*
X1291Y-4009D01*
X1277Y-3999D01*
X1260Y-3996D01*
D02*
G37*
G36*
X690Y-4006D02*
X673Y-4009D01*
X659Y-4019D01*
X649Y-4033D01*
X646Y-4050D01*
X649Y-4067D01*
X659Y-4081D01*
X673Y-4091D01*
X690Y-4094D01*
X707Y-4091D01*
X721Y-4081D01*
X731Y-4067D01*
X734Y-4050D01*
X731Y-4033D01*
X721Y-4019D01*
X707Y-4009D01*
X690Y-4006D01*
D02*
G37*
G36*
X3980Y-4026D02*
X3963Y-4029D01*
X3949Y-4039D01*
X3939Y-4053D01*
X3936Y-4070D01*
X3939Y-4087D01*
X3949Y-4101D01*
X3963Y-4111D01*
X3980Y-4114D01*
X3997Y-4111D01*
X4011Y-4101D01*
X4021Y-4087D01*
X4024Y-4070D01*
X4021Y-4053D01*
X4011Y-4039D01*
X3997Y-4029D01*
X3980Y-4026D01*
D02*
G37*
G36*
X1150Y-4116D02*
X1133Y-4119D01*
X1119Y-4129D01*
X1116Y-4133D01*
X1104D01*
X1101Y-4129D01*
X1087Y-4119D01*
X1070Y-4116D01*
X1053Y-4119D01*
X1039Y-4129D01*
X1029Y-4143D01*
X1029Y-4145D01*
X1020Y-4148D01*
X1015Y-4149D01*
X1000Y-4146D01*
X983Y-4149D01*
X969Y-4159D01*
X959Y-4173D01*
X956Y-4190D01*
X959Y-4207D01*
X969Y-4221D01*
X983Y-4231D01*
X1000Y-4234D01*
X1017Y-4231D01*
X1031Y-4221D01*
X1041Y-4207D01*
X1041Y-4205D01*
X1050Y-4202D01*
X1055Y-4201D01*
X1070Y-4204D01*
X1087Y-4201D01*
X1101Y-4191D01*
X1104Y-4187D01*
X1116D01*
X1119Y-4191D01*
X1133Y-4201D01*
X1150Y-4204D01*
X1165Y-4201D01*
X1170Y-4202D01*
X1179Y-4205D01*
X1179Y-4207D01*
X1189Y-4221D01*
X1203Y-4231D01*
X1220Y-4234D01*
X1237Y-4231D01*
X1251Y-4221D01*
X1261Y-4207D01*
X1264Y-4190D01*
X1261Y-4173D01*
X1251Y-4159D01*
X1237Y-4149D01*
X1220Y-4146D01*
X1205Y-4149D01*
X1200Y-4148D01*
X1191Y-4145D01*
X1191Y-4143D01*
X1181Y-4129D01*
X1167Y-4119D01*
X1150Y-4116D01*
D02*
G37*
G36*
X2290Y-4056D02*
X2273Y-4059D01*
X2259Y-4069D01*
X2249Y-4083D01*
X2246Y-4100D01*
X2249Y-4117D01*
X2259Y-4131D01*
X2273Y-4141D01*
X2290Y-4144D01*
X2307Y-4141D01*
X2321Y-4131D01*
X2331Y-4117D01*
X2334Y-4100D01*
X2331Y-4083D01*
X2321Y-4069D01*
X2307Y-4059D01*
X2290Y-4056D01*
D02*
G37*
G36*
X1590D02*
X1573Y-4059D01*
X1559Y-4069D01*
X1549Y-4083D01*
X1546Y-4100D01*
X1549Y-4117D01*
X1559Y-4131D01*
X1573Y-4141D01*
X1590Y-4144D01*
X1607Y-4141D01*
X1621Y-4131D01*
X1631Y-4117D01*
X1634Y-4100D01*
X1631Y-4083D01*
X1621Y-4069D01*
X1607Y-4059D01*
X1590Y-4056D01*
D02*
G37*
G36*
X2010Y-4080D02*
X1993Y-4083D01*
X1979Y-4093D01*
X1969Y-4107D01*
X1966Y-4124D01*
X1969Y-4141D01*
X1979Y-4155D01*
X1993Y-4165D01*
X2010Y-4168D01*
X2027Y-4165D01*
X2041Y-4155D01*
X2051Y-4141D01*
X2054Y-4124D01*
X2051Y-4107D01*
X2041Y-4093D01*
X2027Y-4083D01*
X2010Y-4080D01*
D02*
G37*
G36*
X5420Y-4146D02*
X5403Y-4149D01*
X5389Y-4159D01*
X5379Y-4173D01*
X5376Y-4190D01*
X5379Y-4207D01*
X5389Y-4221D01*
X5403Y-4231D01*
X5420Y-4234D01*
X5437Y-4231D01*
X5451Y-4221D01*
X5461Y-4207D01*
X5464Y-4190D01*
X5461Y-4173D01*
X5451Y-4159D01*
X5437Y-4149D01*
X5420Y-4146D01*
D02*
G37*
G36*
X5200D02*
X5183Y-4149D01*
X5169Y-4159D01*
X5159Y-4173D01*
X5156Y-4190D01*
X5159Y-4207D01*
X5169Y-4221D01*
X5183Y-4231D01*
X5200Y-4234D01*
X5217Y-4231D01*
X5231Y-4221D01*
X5241Y-4207D01*
X5244Y-4190D01*
X5241Y-4173D01*
X5231Y-4159D01*
X5217Y-4149D01*
X5200Y-4146D01*
D02*
G37*
G36*
X4880Y-4036D02*
X4863Y-4039D01*
X4849Y-4049D01*
X4839Y-4063D01*
X4836Y-4080D01*
X4839Y-4097D01*
X4849Y-4111D01*
X4863Y-4121D01*
X4880Y-4124D01*
X4888Y-4122D01*
X4896Y-4134D01*
X4889Y-4143D01*
X4886Y-4160D01*
X4889Y-4177D01*
X4899Y-4191D01*
X4913Y-4201D01*
X4930Y-4204D01*
X4945Y-4201D01*
X4950Y-4202D01*
X4959Y-4205D01*
X4959Y-4207D01*
X4969Y-4221D01*
X4983Y-4231D01*
X5000Y-4234D01*
X5017Y-4231D01*
X5031Y-4221D01*
X5041Y-4207D01*
X5044Y-4190D01*
X5041Y-4173D01*
X5031Y-4159D01*
X5017Y-4149D01*
X5000Y-4146D01*
X4985Y-4149D01*
X4980Y-4148D01*
X4971Y-4145D01*
X4971Y-4143D01*
X4961Y-4129D01*
X4947Y-4119D01*
X4930Y-4116D01*
X4922Y-4118D01*
X4914Y-4106D01*
X4921Y-4097D01*
X4924Y-4080D01*
X4921Y-4063D01*
X4911Y-4049D01*
X4897Y-4039D01*
X4880Y-4036D01*
D02*
G37*
G36*
X2900Y-4146D02*
X2883Y-4149D01*
X2869Y-4159D01*
X2859Y-4173D01*
X2856Y-4190D01*
X2859Y-4207D01*
X2869Y-4221D01*
X2883Y-4231D01*
X2900Y-4234D01*
X2917Y-4231D01*
X2931Y-4221D01*
X2941Y-4207D01*
X2944Y-4190D01*
X2941Y-4173D01*
X2931Y-4159D01*
X2917Y-4149D01*
X2900Y-4146D01*
D02*
G37*
G36*
X2680D02*
X2663Y-4149D01*
X2649Y-4159D01*
X2639Y-4173D01*
X2636Y-4190D01*
X2639Y-4207D01*
X2649Y-4221D01*
X2663Y-4231D01*
X2680Y-4234D01*
X2697Y-4231D01*
X2711Y-4221D01*
X2721Y-4207D01*
X2724Y-4190D01*
X2721Y-4173D01*
X2711Y-4159D01*
X2697Y-4149D01*
X2680Y-4146D01*
D02*
G37*
G36*
X800D02*
X783Y-4149D01*
X769Y-4159D01*
X759Y-4173D01*
X756Y-4190D01*
X759Y-4207D01*
X769Y-4221D01*
X783Y-4231D01*
X800Y-4234D01*
X817Y-4231D01*
X831Y-4221D01*
X841Y-4207D01*
X844Y-4190D01*
X841Y-4173D01*
X831Y-4159D01*
X817Y-4149D01*
X800Y-4146D01*
D02*
G37*
G36*
X4780Y-4146D02*
X4763Y-4149D01*
X4749Y-4159D01*
X4739Y-4173D01*
X4736Y-4190D01*
X4739Y-4207D01*
X4749Y-4221D01*
X4763Y-4231D01*
X4780Y-4234D01*
X4797Y-4231D01*
X4811Y-4221D01*
X4821Y-4207D01*
X4824Y-4190D01*
X4821Y-4173D01*
X4811Y-4159D01*
X4797Y-4149D01*
X4780Y-4146D01*
D02*
G37*
G36*
X3320D02*
X3303Y-4149D01*
X3289Y-4159D01*
X3279Y-4173D01*
X3276Y-4190D01*
X3279Y-4207D01*
X3289Y-4221D01*
X3303Y-4231D01*
X3320Y-4234D01*
X3337Y-4231D01*
X3351Y-4221D01*
X3361Y-4207D01*
X3364Y-4190D01*
X3361Y-4173D01*
X3351Y-4159D01*
X3337Y-4149D01*
X3320Y-4146D01*
D02*
G37*
G36*
X3100D02*
X3083Y-4149D01*
X3069Y-4159D01*
X3059Y-4173D01*
X3056Y-4190D01*
X3059Y-4207D01*
X3069Y-4221D01*
X3083Y-4231D01*
X3100Y-4234D01*
X3117Y-4231D01*
X3131Y-4221D01*
X3141Y-4207D01*
X3144Y-4190D01*
X3141Y-4173D01*
X3131Y-4159D01*
X3117Y-4149D01*
X3100Y-4146D01*
D02*
G37*
G36*
X580D02*
X563Y-4149D01*
X549Y-4159D01*
X539Y-4173D01*
X536Y-4190D01*
X539Y-4207D01*
X549Y-4221D01*
X563Y-4231D01*
X580Y-4234D01*
X597Y-4231D01*
X611Y-4221D01*
X621Y-4207D01*
X624Y-4190D01*
X621Y-4173D01*
X611Y-4159D01*
X597Y-4149D01*
X580Y-4146D01*
D02*
G37*
G36*
X2800Y-4186D02*
X2783Y-4189D01*
X2769Y-4199D01*
X2759Y-4213D01*
X2756Y-4230D01*
X2759Y-4247D01*
X2769Y-4261D01*
X2783Y-4271D01*
X2800Y-4274D01*
X2817Y-4271D01*
X2831Y-4261D01*
X2841Y-4247D01*
X2844Y-4230D01*
X2841Y-4213D01*
X2831Y-4199D01*
X2817Y-4189D01*
X2800Y-4186D01*
D02*
G37*
G36*
X5851Y-4114D02*
X5827Y-4118D01*
X5804Y-4127D01*
X5785Y-4142D01*
X5770Y-4161D01*
X5760Y-4184D01*
X5757Y-4208D01*
X5760Y-4232D01*
X5770Y-4255D01*
X5785Y-4274D01*
X5804Y-4289D01*
X5827Y-4298D01*
X5851Y-4302D01*
X5875Y-4298D01*
X5898Y-4289D01*
X5917Y-4274D01*
X5932Y-4255D01*
X5941Y-4232D01*
X5944Y-4208D01*
X5941Y-4184D01*
X5932Y-4161D01*
X5917Y-4142D01*
X5898Y-4127D01*
X5875Y-4118D01*
X5851Y-4114D01*
D02*
G37*
G36*
X150Y-4116D02*
X126Y-4120D01*
X103Y-4129D01*
X84Y-4144D01*
X69Y-4163D01*
X60Y-4186D01*
X56Y-4210D01*
X60Y-4234D01*
X69Y-4257D01*
X84Y-4276D01*
X103Y-4291D01*
X126Y-4300D01*
X150Y-4304D01*
X174Y-4300D01*
X197Y-4291D01*
X216Y-4276D01*
X231Y-4257D01*
X240Y-4234D01*
X244Y-4210D01*
X240Y-4186D01*
X231Y-4163D01*
X216Y-4144D01*
X197Y-4129D01*
X174Y-4120D01*
X150Y-4116D01*
D02*
G37*
G36*
X3143Y-4367D02*
Y-4411D01*
X3187D01*
X3185Y-4401D01*
X3172Y-4382D01*
X3153Y-4369D01*
X3143Y-4367D01*
D02*
G37*
G36*
X757D02*
X747Y-4369D01*
X728Y-4382D01*
X715Y-4401D01*
X713Y-4411D01*
X757D01*
Y-4367D01*
D02*
G37*
G36*
X4957Y-4367D02*
X4947Y-4369D01*
X4928Y-4382D01*
X4915Y-4401D01*
X4913Y-4411D01*
X4957D01*
Y-4367D01*
D02*
G37*
G36*
X2140Y-4336D02*
X2123Y-4339D01*
X2109Y-4349D01*
X2099Y-4363D01*
X2096Y-4380D01*
X2099Y-4397D01*
X2109Y-4411D01*
X2123Y-4421D01*
X2140Y-4424D01*
X2157Y-4421D01*
X2171Y-4411D01*
X2181Y-4397D01*
X2184Y-4380D01*
X2181Y-4363D01*
X2171Y-4349D01*
X2157Y-4339D01*
X2140Y-4336D01*
D02*
G37*
G36*
X2010Y-4416D02*
X1993Y-4419D01*
X1979Y-4429D01*
X1969Y-4443D01*
X1966Y-4460D01*
X1969Y-4477D01*
X1979Y-4491D01*
X1993Y-4501D01*
X2010Y-4504D01*
X2027Y-4501D01*
X2041Y-4491D01*
X2051Y-4477D01*
X2054Y-4460D01*
X2051Y-4443D01*
X2041Y-4429D01*
X2027Y-4419D01*
X2010Y-4416D01*
D02*
G37*
G36*
X4090Y-4536D02*
X4073Y-4539D01*
X4059Y-4549D01*
X4049Y-4563D01*
X4046Y-4580D01*
X4049Y-4597D01*
X4059Y-4611D01*
X4073Y-4621D01*
X4090Y-4624D01*
X4107Y-4621D01*
X4121Y-4611D01*
X4131Y-4597D01*
X4134Y-4580D01*
X4131Y-4563D01*
X4121Y-4549D01*
X4107Y-4539D01*
X4090Y-4536D01*
D02*
G37*
G36*
X2020Y-4796D02*
X2003Y-4799D01*
X1989Y-4809D01*
X1979Y-4823D01*
X1976Y-4840D01*
X1979Y-4857D01*
X1989Y-4871D01*
X2003Y-4881D01*
X2020Y-4884D01*
X2037Y-4881D01*
X2051Y-4871D01*
X2061Y-4857D01*
X2064Y-4840D01*
X2061Y-4823D01*
X2051Y-4809D01*
X2037Y-4799D01*
X2020Y-4796D01*
D02*
G37*
G36*
X990Y-246D02*
X973Y-249D01*
X959Y-259D01*
X949Y-273D01*
X946Y-290D01*
X949Y-307D01*
X959Y-321D01*
X973Y-331D01*
X990Y-334D01*
X1007Y-331D01*
X1021Y-321D01*
X1031Y-307D01*
X1034Y-290D01*
X1031Y-273D01*
X1021Y-259D01*
X1007Y-249D01*
X990Y-246D01*
D02*
G37*
G36*
X1050Y-326D02*
X1033Y-329D01*
X1019Y-339D01*
X1009Y-353D01*
X1006Y-370D01*
X1009Y-387D01*
X1019Y-401D01*
X1033Y-411D01*
X1050Y-414D01*
X1067Y-411D01*
X1081Y-401D01*
X1091Y-387D01*
X1094Y-370D01*
X1091Y-353D01*
X1081Y-339D01*
X1067Y-329D01*
X1050Y-326D01*
D02*
G37*
G36*
X860Y-446D02*
X843Y-449D01*
X829Y-459D01*
X826Y-464D01*
X812Y-454D01*
X795Y-451D01*
X778Y-454D01*
X764Y-464D01*
X758Y-472D01*
X744Y-472D01*
X741Y-469D01*
X727Y-459D01*
X710Y-456D01*
X693Y-459D01*
X679Y-469D01*
X676Y-473D01*
X664D01*
X661Y-469D01*
X647Y-459D01*
X630Y-456D01*
X613Y-459D01*
X599Y-469D01*
X596Y-473D01*
X584D01*
X581Y-469D01*
X567Y-459D01*
X550Y-456D01*
X533Y-459D01*
X519Y-469D01*
X509Y-483D01*
X506Y-500D01*
X509Y-517D01*
X519Y-531D01*
X533Y-541D01*
X550Y-544D01*
X567Y-541D01*
X581Y-531D01*
X584Y-527D01*
X596D01*
X599Y-531D01*
X613Y-541D01*
X630Y-544D01*
X647Y-541D01*
X661Y-531D01*
X664Y-527D01*
X676D01*
X679Y-531D01*
X693Y-541D01*
X710Y-544D01*
X727Y-541D01*
X741Y-531D01*
X747Y-523D01*
X761Y-523D01*
X764Y-526D01*
X778Y-536D01*
X795Y-539D01*
X812Y-536D01*
X826Y-526D01*
X829Y-521D01*
X843Y-531D01*
X860Y-534D01*
X877Y-531D01*
X891Y-521D01*
X894Y-526D01*
X908Y-536D01*
X925Y-539D01*
X942Y-536D01*
X956Y-526D01*
X966Y-512D01*
X969Y-495D01*
X966Y-478D01*
X956Y-464D01*
X942Y-454D01*
X925Y-451D01*
X908Y-454D01*
X894Y-464D01*
X891Y-459D01*
X877Y-449D01*
X860Y-446D01*
D02*
G37*
G36*
X1060Y-436D02*
X1043Y-439D01*
X1029Y-449D01*
X1019Y-463D01*
X1016Y-480D01*
X1019Y-497D01*
X1029Y-511D01*
X1043Y-521D01*
X1060Y-524D01*
X1077Y-521D01*
X1091Y-511D01*
X1101Y-497D01*
X1104Y-480D01*
X1101Y-463D01*
X1091Y-449D01*
X1077Y-439D01*
X1060Y-436D01*
D02*
G37*
G36*
X1160Y-446D02*
X1143Y-449D01*
X1129Y-459D01*
X1119Y-473D01*
X1116Y-490D01*
X1119Y-507D01*
X1129Y-521D01*
X1143Y-531D01*
X1160Y-534D01*
X1177Y-531D01*
X1191Y-521D01*
X1201Y-507D01*
X1204Y-490D01*
X1201Y-473D01*
X1191Y-459D01*
X1177Y-449D01*
X1160Y-446D01*
D02*
G37*
G36*
X170Y-482D02*
X152Y-484D01*
X136Y-491D01*
X122Y-502D01*
X111Y-516D01*
X104Y-532D01*
X102Y-550D01*
X104Y-568D01*
X111Y-584D01*
X122Y-598D01*
X136Y-609D01*
X152Y-616D01*
X170Y-618D01*
X188Y-616D01*
X204Y-609D01*
X218Y-598D01*
X229Y-584D01*
X236Y-568D01*
X238Y-550D01*
X236Y-532D01*
X229Y-516D01*
X218Y-502D01*
X204Y-491D01*
X188Y-484D01*
X170Y-482D01*
D02*
G37*
G36*
X752Y-594D02*
X735Y-597D01*
X721Y-607D01*
X711Y-621D01*
X708Y-638D01*
X711Y-655D01*
X721Y-669D01*
X735Y-679D01*
X752Y-682D01*
X769Y-679D01*
X783Y-669D01*
X793Y-655D01*
X796Y-638D01*
X793Y-621D01*
X783Y-607D01*
X769Y-597D01*
X752Y-594D01*
D02*
G37*
G36*
X170Y-782D02*
X152Y-784D01*
X136Y-791D01*
X122Y-802D01*
X111Y-816D01*
X104Y-832D01*
X102Y-850D01*
X104Y-868D01*
X111Y-884D01*
X122Y-898D01*
X136Y-909D01*
X152Y-916D01*
X170Y-918D01*
X188Y-916D01*
X204Y-909D01*
X218Y-898D01*
X229Y-884D01*
X236Y-868D01*
X238Y-850D01*
X236Y-832D01*
X229Y-816D01*
X218Y-802D01*
X204Y-791D01*
X188Y-784D01*
X170Y-782D01*
D02*
G37*
G36*
X484Y-1066D02*
X467Y-1069D01*
X453Y-1079D01*
X443Y-1093D01*
X440Y-1110D01*
X443Y-1127D01*
X453Y-1141D01*
X467Y-1151D01*
X484Y-1154D01*
X501Y-1151D01*
X515Y-1141D01*
X525Y-1127D01*
X528Y-1110D01*
X525Y-1093D01*
X515Y-1079D01*
X501Y-1069D01*
X484Y-1066D01*
D02*
G37*
G36*
X610Y-1726D02*
X593Y-1729D01*
X579Y-1739D01*
X569Y-1753D01*
X566Y-1770D01*
X569Y-1787D01*
X579Y-1801D01*
X593Y-1811D01*
X610Y-1814D01*
X627Y-1811D01*
X641Y-1801D01*
X651Y-1787D01*
X654Y-1770D01*
X651Y-1753D01*
X641Y-1739D01*
X627Y-1729D01*
X610Y-1726D01*
D02*
G37*
G36*
X610Y-1926D02*
X593Y-1929D01*
X579Y-1939D01*
X569Y-1953D01*
X566Y-1970D01*
X569Y-1987D01*
X579Y-2001D01*
X593Y-2011D01*
X610Y-2014D01*
X627Y-2011D01*
X641Y-2001D01*
X651Y-1987D01*
X654Y-1970D01*
X651Y-1953D01*
X641Y-1939D01*
X627Y-1929D01*
X610Y-1926D01*
D02*
G37*
G36*
X970Y-2106D02*
X953Y-2109D01*
X939Y-2119D01*
X929Y-2133D01*
X926Y-2150D01*
X929Y-2167D01*
X939Y-2181D01*
X953Y-2191D01*
X970Y-2194D01*
X987Y-2191D01*
X1001Y-2181D01*
X1011Y-2167D01*
X1014Y-2150D01*
X1011Y-2133D01*
X1001Y-2119D01*
X987Y-2109D01*
X970Y-2106D01*
D02*
G37*
G36*
X2540Y-1046D02*
X2523Y-1049D01*
X2509Y-1059D01*
X2499Y-1073D01*
X2496Y-1090D01*
X2499Y-1107D01*
X2509Y-1121D01*
X2523Y-1131D01*
X2540Y-1134D01*
X2557Y-1131D01*
X2571Y-1121D01*
X2581Y-1107D01*
X2584Y-1090D01*
X2581Y-1073D01*
X2571Y-1059D01*
X2557Y-1049D01*
X2540Y-1046D01*
D02*
G37*
G36*
X5520Y-1076D02*
X5503Y-1079D01*
X5489Y-1089D01*
X5479Y-1103D01*
X5476Y-1120D01*
X5479Y-1137D01*
X5489Y-1151D01*
X5503Y-1161D01*
X5520Y-1164D01*
X5537Y-1161D01*
X5551Y-1151D01*
X5561Y-1137D01*
X5564Y-1120D01*
X5561Y-1103D01*
X5551Y-1089D01*
X5537Y-1079D01*
X5520Y-1076D01*
D02*
G37*
G36*
X3600Y-1016D02*
X3583Y-1019D01*
X3569Y-1029D01*
X3559Y-1043D01*
X3556Y-1060D01*
X3559Y-1077D01*
X3569Y-1091D01*
X3569Y-1091D01*
X3567Y-1105D01*
X3555Y-1113D01*
X3545Y-1127D01*
X3542Y-1144D01*
X3545Y-1161D01*
X3555Y-1175D01*
X3569Y-1185D01*
X3586Y-1188D01*
X3603Y-1185D01*
X3617Y-1175D01*
X3627Y-1161D01*
X3630Y-1144D01*
X3627Y-1127D01*
X3617Y-1113D01*
X3617Y-1113D01*
X3619Y-1099D01*
X3631Y-1091D01*
X3641Y-1077D01*
X3644Y-1060D01*
X3641Y-1043D01*
X3631Y-1029D01*
X3617Y-1019D01*
X3600Y-1016D01*
D02*
G37*
G36*
X3330Y-1136D02*
X3313Y-1139D01*
X3299Y-1149D01*
X3289Y-1163D01*
X3286Y-1180D01*
X3289Y-1197D01*
X3299Y-1211D01*
X3313Y-1221D01*
X3330Y-1224D01*
X3347Y-1221D01*
X3361Y-1211D01*
X3371Y-1197D01*
X3374Y-1180D01*
X3371Y-1163D01*
X3361Y-1149D01*
X3347Y-1139D01*
X3330Y-1136D01*
D02*
G37*
G36*
X2810Y-1136D02*
X2793Y-1139D01*
X2779Y-1149D01*
X2769Y-1163D01*
X2766Y-1180D01*
X2769Y-1197D01*
X2779Y-1211D01*
X2793Y-1221D01*
X2810Y-1224D01*
X2827Y-1221D01*
X2841Y-1211D01*
X2851Y-1197D01*
X2854Y-1180D01*
X2851Y-1163D01*
X2841Y-1149D01*
X2827Y-1139D01*
X2810Y-1136D01*
D02*
G37*
G36*
X2730Y-1206D02*
X2713Y-1209D01*
X2699Y-1219D01*
X2689Y-1233D01*
X2686Y-1250D01*
X2689Y-1267D01*
X2699Y-1281D01*
X2713Y-1291D01*
X2730Y-1294D01*
X2747Y-1291D01*
X2761Y-1281D01*
X2771Y-1267D01*
X2774Y-1250D01*
X2771Y-1233D01*
X2761Y-1219D01*
X2747Y-1209D01*
X2730Y-1206D01*
D02*
G37*
G36*
X3130Y-1136D02*
X3113Y-1139D01*
X3099Y-1149D01*
X3089Y-1163D01*
X3086Y-1180D01*
X3089Y-1197D01*
X3099Y-1211D01*
Y-1219D01*
X3089Y-1233D01*
X3086Y-1250D01*
X3089Y-1267D01*
X3099Y-1281D01*
X3113Y-1291D01*
X3120Y-1292D01*
X3130Y-1306D01*
X3130Y-1306D01*
X3133Y-1323D01*
X3143Y-1337D01*
X3157Y-1347D01*
X3174Y-1350D01*
X3191Y-1347D01*
X3205Y-1337D01*
X3214Y-1323D01*
X3218Y-1306D01*
X3214Y-1289D01*
X3205Y-1275D01*
X3191Y-1266D01*
X3184Y-1264D01*
X3174Y-1250D01*
X3174Y-1250D01*
X3171Y-1233D01*
X3161Y-1219D01*
Y-1211D01*
X3171Y-1197D01*
X3174Y-1180D01*
X3171Y-1163D01*
X3161Y-1149D01*
X3147Y-1139D01*
X3130Y-1136D01*
D02*
G37*
G36*
X2850Y-1266D02*
X2833Y-1269D01*
X2819Y-1279D01*
X2809Y-1293D01*
X2806Y-1310D01*
X2809Y-1327D01*
X2819Y-1341D01*
X2833Y-1351D01*
X2850Y-1354D01*
X2867Y-1351D01*
X2881Y-1341D01*
X2891Y-1327D01*
X2894Y-1310D01*
X2891Y-1293D01*
X2881Y-1279D01*
X2867Y-1269D01*
X2850Y-1266D01*
D02*
G37*
G36*
X3586Y-1320D02*
X3569Y-1323D01*
X3555Y-1333D01*
X3545Y-1347D01*
X3542Y-1364D01*
X3545Y-1381D01*
X3555Y-1395D01*
X3569Y-1405D01*
X3586Y-1408D01*
X3603Y-1405D01*
X3617Y-1395D01*
X3627Y-1381D01*
X3630Y-1364D01*
X3627Y-1347D01*
X3617Y-1333D01*
X3603Y-1323D01*
X3586Y-1320D01*
D02*
G37*
G36*
X3850Y-1436D02*
X3833Y-1439D01*
X3819Y-1449D01*
X3809Y-1463D01*
X3806Y-1480D01*
X3809Y-1497D01*
X3819Y-1511D01*
X3827Y-1516D01*
X3822Y-1528D01*
X3810Y-1526D01*
X3795Y-1529D01*
X3790Y-1528D01*
X3783Y-1525D01*
X3780Y-1523D01*
X3771Y-1509D01*
X3757Y-1499D01*
X3740Y-1496D01*
X3723Y-1499D01*
X3709Y-1509D01*
X3699Y-1523D01*
X3696Y-1540D01*
X3699Y-1557D01*
X3709Y-1571D01*
X3723Y-1581D01*
X3740Y-1584D01*
X3755Y-1581D01*
X3760Y-1582D01*
X3769Y-1585D01*
X3769Y-1587D01*
X3779Y-1601D01*
X3793Y-1611D01*
X3810Y-1614D01*
X3827Y-1611D01*
X3841Y-1601D01*
X3851Y-1587D01*
X3854Y-1570D01*
X3851Y-1553D01*
X3841Y-1539D01*
X3833Y-1534D01*
X3838Y-1522D01*
X3850Y-1524D01*
X3867Y-1521D01*
X3881Y-1511D01*
X3891Y-1497D01*
X3894Y-1480D01*
X3891Y-1463D01*
X3881Y-1449D01*
X3867Y-1439D01*
X3850Y-1436D01*
D02*
G37*
G36*
X5110Y-1506D02*
X5093Y-1509D01*
X5079Y-1519D01*
X5069Y-1533D01*
X5066Y-1550D01*
X5069Y-1567D01*
X5079Y-1581D01*
X5093Y-1591D01*
X5110Y-1594D01*
X5127Y-1591D01*
X5141Y-1581D01*
X5151Y-1567D01*
X5154Y-1550D01*
X5151Y-1533D01*
X5141Y-1519D01*
X5127Y-1509D01*
X5110Y-1506D01*
D02*
G37*
G36*
X5425Y-1511D02*
X5408Y-1514D01*
X5394Y-1524D01*
X5384Y-1538D01*
X5381Y-1555D01*
X5384Y-1572D01*
X5394Y-1586D01*
X5408Y-1596D01*
X5425Y-1599D01*
X5442Y-1596D01*
X5456Y-1586D01*
X5466Y-1572D01*
X5469Y-1555D01*
X5466Y-1538D01*
X5456Y-1524D01*
X5442Y-1514D01*
X5425Y-1511D01*
D02*
G37*
G36*
X4405D02*
X4388Y-1514D01*
X4374Y-1524D01*
X4364Y-1538D01*
X4361Y-1555D01*
X4364Y-1572D01*
X4374Y-1586D01*
X4388Y-1596D01*
X4405Y-1599D01*
X4422Y-1596D01*
X4436Y-1586D01*
X4446Y-1572D01*
X4449Y-1555D01*
X4446Y-1538D01*
X4436Y-1524D01*
X4422Y-1514D01*
X4405Y-1511D01*
D02*
G37*
G36*
X2730Y-1436D02*
X2713Y-1439D01*
X2699Y-1449D01*
X2689Y-1463D01*
X2686Y-1480D01*
X2687Y-1484D01*
X2680Y-1496D01*
X2663Y-1499D01*
X2649Y-1509D01*
X2639Y-1523D01*
X2636Y-1540D01*
X2639Y-1557D01*
X2649Y-1571D01*
X2663Y-1581D01*
X2678Y-1584D01*
X2680Y-1585D01*
X2688Y-1595D01*
X2686Y-1605D01*
X2689Y-1622D01*
X2699Y-1636D01*
X2713Y-1646D01*
X2730Y-1649D01*
X2747Y-1646D01*
X2761Y-1636D01*
X2771Y-1622D01*
X2774Y-1605D01*
X2771Y-1588D01*
X2761Y-1574D01*
X2747Y-1564D01*
X2732Y-1561D01*
X2730Y-1560D01*
X2722Y-1550D01*
X2724Y-1540D01*
X2723Y-1536D01*
X2730Y-1524D01*
X2747Y-1521D01*
X2761Y-1511D01*
X2771Y-1497D01*
X2774Y-1480D01*
X2771Y-1463D01*
X2761Y-1449D01*
X2747Y-1439D01*
X2730Y-1436D01*
D02*
G37*
G36*
X3130Y-1626D02*
X3113Y-1629D01*
X3099Y-1639D01*
X3089Y-1653D01*
X3086Y-1670D01*
X3089Y-1687D01*
X3099Y-1701D01*
X3113Y-1711D01*
X3130Y-1714D01*
X3147Y-1711D01*
X3161Y-1701D01*
X3171Y-1687D01*
X3174Y-1670D01*
X3171Y-1653D01*
X3161Y-1639D01*
X3147Y-1629D01*
X3130Y-1626D01*
D02*
G37*
G36*
X4430Y-1723D02*
X4412Y-1727D01*
X4397Y-1737D01*
X4391Y-1746D01*
X4376Y-1746D01*
X4371Y-1739D01*
X4357Y-1729D01*
X4340Y-1726D01*
X4323Y-1729D01*
X4309Y-1739D01*
X4299Y-1753D01*
X4296Y-1770D01*
X4299Y-1787D01*
X4309Y-1801D01*
X4323Y-1811D01*
X4340Y-1814D01*
X4357Y-1811D01*
X4371Y-1801D01*
X4373Y-1802D01*
X4383Y-1806D01*
Y-2060D01*
Y-2261D01*
X4217Y-2427D01*
X4215Y-2430D01*
X4202D01*
X4201Y-2429D01*
X4187Y-2419D01*
X4170Y-2416D01*
X4153Y-2419D01*
X4139Y-2429D01*
X4136Y-2433D01*
X4124D01*
X4121Y-2429D01*
X4107Y-2419D01*
X4090Y-2416D01*
X4073Y-2419D01*
X4059Y-2429D01*
X4051D01*
X4037Y-2419D01*
X4020Y-2416D01*
X4003Y-2419D01*
X3989Y-2429D01*
X3979Y-2443D01*
X3976Y-2460D01*
X3979Y-2477D01*
X3989Y-2491D01*
X4003Y-2501D01*
X4008Y-2502D01*
X4028Y-2522D01*
X4023Y-2533D01*
X3959D01*
X3837Y-2411D01*
Y-2305D01*
X3849Y-2298D01*
X3853Y-2301D01*
X3870Y-2304D01*
X3887Y-2301D01*
X3901Y-2291D01*
X3911Y-2277D01*
X3914Y-2260D01*
X3911Y-2243D01*
X3901Y-2229D01*
X3887Y-2219D01*
X3870Y-2216D01*
X3853Y-2219D01*
X3849Y-2222D01*
X3837Y-2215D01*
Y-2035D01*
X3847Y-2028D01*
X3849Y-2028D01*
X3853Y-2031D01*
X3870Y-2034D01*
X3887Y-2031D01*
X3901Y-2021D01*
X3911Y-2007D01*
X3914Y-1990D01*
X3911Y-1973D01*
X3901Y-1959D01*
X3887Y-1949D01*
X3870Y-1946D01*
X3863Y-1934D01*
X3864Y-1930D01*
X3861Y-1913D01*
X3851Y-1899D01*
X3837Y-1889D01*
X3820Y-1886D01*
X3809Y-1888D01*
X3797Y-1880D01*
Y-1810D01*
X3793Y-1792D01*
X3783Y-1777D01*
X3768Y-1767D01*
X3750Y-1763D01*
X3732Y-1767D01*
X3717Y-1777D01*
X3707Y-1792D01*
X3703Y-1810D01*
Y-1990D01*
X3707Y-2008D01*
X3717Y-2023D01*
X3743Y-2049D01*
Y-2145D01*
X3731Y-2152D01*
X3727Y-2149D01*
X3710Y-2146D01*
X3693Y-2149D01*
X3679Y-2159D01*
X3669Y-2173D01*
X3666Y-2190D01*
X3669Y-2204D01*
X3669Y-2207D01*
X3661Y-2218D01*
X3653Y-2219D01*
X3639Y-2229D01*
X3629Y-2243D01*
X3626Y-2260D01*
X3629Y-2277D01*
X3639Y-2291D01*
X3653Y-2301D01*
X3670Y-2304D01*
X3687Y-2301D01*
X3701Y-2291D01*
X3711Y-2277D01*
X3714Y-2260D01*
X3711Y-2246D01*
X3711Y-2243D01*
X3719Y-2232D01*
X3727Y-2231D01*
X3731Y-2228D01*
X3743Y-2235D01*
Y-2333D01*
X3630D01*
X3612Y-2337D01*
X3597Y-2347D01*
X3537Y-2407D01*
X3527Y-2422D01*
X3523Y-2440D01*
Y-2681D01*
X3411Y-2793D01*
X3190D01*
X3172Y-2797D01*
X3157Y-2807D01*
X3077Y-2887D01*
X3067Y-2902D01*
X3063Y-2920D01*
X3067Y-2938D01*
X3077Y-2953D01*
X3092Y-2963D01*
X3110Y-2967D01*
X3128Y-2963D01*
X3143Y-2953D01*
X3209Y-2887D01*
X3225D01*
X3232Y-2899D01*
X3229Y-2903D01*
X3226Y-2920D01*
X3229Y-2937D01*
X3239Y-2951D01*
X3253Y-2961D01*
X3270Y-2964D01*
X3287Y-2961D01*
X3301Y-2951D01*
X3311Y-2937D01*
X3314Y-2920D01*
X3311Y-2903D01*
X3308Y-2899D01*
X3315Y-2887D01*
X3383D01*
Y-2920D01*
X3387Y-2938D01*
X3397Y-2953D01*
X3412Y-2963D01*
X3430Y-2967D01*
X3448Y-2963D01*
X3463Y-2953D01*
X3473Y-2938D01*
X3477Y-2920D01*
Y-2859D01*
X3603Y-2733D01*
X3613Y-2718D01*
X3617Y-2700D01*
Y-2515D01*
X3629Y-2508D01*
X3633Y-2511D01*
X3649Y-2514D01*
X3646Y-2530D01*
X3649Y-2547D01*
X3659Y-2561D01*
X3673Y-2571D01*
X3689Y-2574D01*
X3686Y-2590D01*
X3689Y-2607D01*
X3699Y-2621D01*
X3713Y-2631D01*
X3729Y-2634D01*
X3726Y-2650D01*
X3729Y-2667D01*
X3739Y-2681D01*
X3753Y-2691D01*
X3770Y-2694D01*
X3787Y-2691D01*
X3801Y-2681D01*
X3811Y-2667D01*
X3814Y-2650D01*
X3811Y-2633D01*
X3801Y-2619D01*
X3787Y-2609D01*
X3771Y-2606D01*
X3774Y-2590D01*
X3771Y-2573D01*
X3761Y-2559D01*
X3747Y-2549D01*
X3731Y-2546D01*
X3734Y-2530D01*
X3731Y-2513D01*
X3721Y-2499D01*
X3707Y-2489D01*
X3691Y-2486D01*
X3694Y-2470D01*
X3691Y-2453D01*
X3681Y-2439D01*
X3682Y-2437D01*
X3686Y-2427D01*
X3743D01*
Y-2430D01*
X3747Y-2448D01*
X3757Y-2463D01*
X3879Y-2585D01*
X3873Y-2596D01*
X3870Y-2596D01*
X3853Y-2599D01*
X3839Y-2609D01*
X3829Y-2623D01*
X3826Y-2640D01*
X3829Y-2657D01*
X3839Y-2671D01*
X3853Y-2681D01*
X3870Y-2684D01*
X3887Y-2681D01*
X3901Y-2671D01*
X3911Y-2657D01*
X3914Y-2640D01*
X3912Y-2632D01*
X3918Y-2627D01*
X3924Y-2623D01*
X3940Y-2627D01*
X4000D01*
X4008Y-2639D01*
X4006Y-2650D01*
X4009Y-2667D01*
X4019Y-2681D01*
X4033Y-2691D01*
X4050Y-2694D01*
X4067Y-2691D01*
X4081Y-2681D01*
X4089D01*
X4103Y-2691D01*
X4120Y-2694D01*
X4124Y-2693D01*
X4136Y-2700D01*
X4139Y-2717D01*
X4149Y-2731D01*
X4163Y-2741D01*
X4180Y-2744D01*
X4197Y-2741D01*
X4211Y-2731D01*
X4221Y-2717D01*
X4224Y-2700D01*
X4221Y-2683D01*
X4211Y-2669D01*
X4197Y-2659D01*
X4180Y-2656D01*
X4176Y-2657D01*
X4166Y-2651D01*
X4163Y-2638D01*
X4170Y-2627D01*
X4310D01*
X4328Y-2623D01*
X4343Y-2613D01*
X4699Y-2257D01*
X4710D01*
X4728Y-2253D01*
X4743Y-2243D01*
X4753Y-2228D01*
X4757Y-2210D01*
X4753Y-2192D01*
X4743Y-2177D01*
X4728Y-2167D01*
X4712Y-2164D01*
X4713Y-2151D01*
X4917D01*
X5006Y-2240D01*
X5006Y-2240D01*
X5009Y-2257D01*
X5019Y-2271D01*
X5033Y-2281D01*
X5050Y-2284D01*
X5067Y-2281D01*
X5081Y-2271D01*
X5091Y-2257D01*
X5094Y-2240D01*
X5091Y-2223D01*
X5081Y-2209D01*
X5067Y-2199D01*
X5050Y-2196D01*
X5050Y-2196D01*
X4954Y-2100D01*
X4954Y-2100D01*
X4952Y-2095D01*
X4953Y-2083D01*
X4979Y-2057D01*
X5130D01*
X5138Y-2069D01*
X5136Y-2080D01*
X5139Y-2097D01*
X5149Y-2111D01*
X5163Y-2121D01*
X5180Y-2124D01*
X5197Y-2121D01*
X5211Y-2111D01*
X5214Y-2107D01*
X5226D01*
X5229Y-2111D01*
X5243Y-2121D01*
X5260Y-2124D01*
X5277Y-2121D01*
X5291Y-2111D01*
X5301Y-2097D01*
X5304Y-2080D01*
X5302Y-2069D01*
X5310Y-2057D01*
X5351D01*
X5393Y-2099D01*
X5408Y-2109D01*
X5426Y-2113D01*
X5444Y-2109D01*
X5459Y-2099D01*
X5464Y-2092D01*
X5479D01*
X5483Y-2097D01*
X5497Y-2107D01*
X5514Y-2110D01*
X5531Y-2107D01*
X5545Y-2097D01*
X5555Y-2083D01*
X5558Y-2066D01*
X5555Y-2049D01*
X5545Y-2035D01*
X5531Y-2025D01*
X5514Y-2022D01*
X5497Y-2025D01*
X5483Y-2035D01*
X5479Y-2040D01*
X5464D01*
X5459Y-2033D01*
X5403Y-1977D01*
X5388Y-1967D01*
X5379Y-1965D01*
Y-1952D01*
X5387Y-1951D01*
X5401Y-1941D01*
X5411Y-1927D01*
X5414Y-1910D01*
X5411Y-1893D01*
X5401Y-1879D01*
X5399Y-1878D01*
Y-1865D01*
X5401Y-1864D01*
X5411Y-1849D01*
X5414Y-1833D01*
X5411Y-1816D01*
X5401Y-1801D01*
X5387Y-1792D01*
X5370Y-1788D01*
X5353Y-1792D01*
X5339Y-1801D01*
X5329Y-1816D01*
X5326Y-1833D01*
X5329Y-1849D01*
X5339Y-1864D01*
X5341Y-1865D01*
Y-1878D01*
X5339Y-1879D01*
X5329Y-1893D01*
X5326Y-1910D01*
X5329Y-1927D01*
X5339Y-1941D01*
X5353Y-1951D01*
X5353Y-1951D01*
X5352Y-1963D01*
X4960D01*
X4942Y-1967D01*
X4927Y-1977D01*
X4891Y-2013D01*
X4740D01*
X4732Y-2001D01*
X4734Y-1990D01*
X4731Y-1973D01*
X4721Y-1959D01*
X4707Y-1949D01*
X4690Y-1946D01*
X4673Y-1949D01*
X4659Y-1959D01*
X4649Y-1973D01*
X4646Y-1990D01*
X4648Y-2001D01*
X4640Y-2013D01*
X4477D01*
Y-1770D01*
X4473Y-1752D01*
X4463Y-1737D01*
X4448Y-1727D01*
X4430Y-1723D01*
D02*
G37*
G36*
X2630Y-1666D02*
X2613Y-1669D01*
X2599Y-1679D01*
X2589Y-1693D01*
X2586Y-1710D01*
X2589Y-1727D01*
X2599Y-1741D01*
X2613Y-1751D01*
X2630Y-1754D01*
X2647Y-1751D01*
X2661Y-1741D01*
X2671Y-1727D01*
X2674Y-1710D01*
X2671Y-1693D01*
X2661Y-1679D01*
X2647Y-1669D01*
X2630Y-1666D01*
D02*
G37*
G36*
X2300D02*
X2283Y-1669D01*
X2269Y-1679D01*
X2259Y-1693D01*
X2256Y-1710D01*
X2259Y-1727D01*
X2269Y-1741D01*
X2283Y-1751D01*
X2300Y-1754D01*
X2317Y-1751D01*
X2331Y-1741D01*
X2341Y-1727D01*
X2344Y-1710D01*
X2341Y-1693D01*
X2331Y-1679D01*
X2317Y-1669D01*
X2300Y-1666D01*
D02*
G37*
G36*
X5153Y-1788D02*
X5136Y-1792D01*
X5121Y-1801D01*
X5112Y-1816D01*
X5108Y-1833D01*
X5112Y-1849D01*
X5121Y-1864D01*
X5136Y-1873D01*
X5153Y-1877D01*
X5169Y-1873D01*
X5184Y-1864D01*
X5193Y-1849D01*
X5197Y-1833D01*
X5193Y-1816D01*
X5184Y-1801D01*
X5169Y-1792D01*
X5153Y-1788D01*
D02*
G37*
G36*
X4730Y-1766D02*
X4713Y-1769D01*
X4699Y-1779D01*
X4689Y-1793D01*
X4686Y-1810D01*
X4689Y-1827D01*
X4699Y-1841D01*
X4713Y-1851D01*
X4730Y-1854D01*
X4737Y-1853D01*
X4739Y-1867D01*
X4749Y-1881D01*
X4763Y-1891D01*
X4780Y-1894D01*
X4797Y-1891D01*
X4811Y-1881D01*
X4821Y-1867D01*
X4824Y-1850D01*
X4821Y-1833D01*
X4811Y-1819D01*
X4797Y-1809D01*
X4780Y-1806D01*
X4773Y-1807D01*
X4771Y-1793D01*
X4761Y-1779D01*
X4747Y-1769D01*
X4730Y-1766D01*
D02*
G37*
G36*
X5040Y-1836D02*
X5023Y-1839D01*
X5009Y-1849D01*
X4999Y-1863D01*
X4996Y-1880D01*
X4999Y-1897D01*
X5009Y-1911D01*
X5023Y-1921D01*
X5040Y-1924D01*
X5057Y-1921D01*
X5071Y-1911D01*
X5081Y-1897D01*
X5084Y-1880D01*
X5081Y-1863D01*
X5071Y-1849D01*
X5057Y-1839D01*
X5040Y-1836D01*
D02*
G37*
G36*
X2460Y-1866D02*
X2443Y-1869D01*
X2429Y-1879D01*
X2419Y-1893D01*
X2416Y-1910D01*
X2419Y-1927D01*
X2429Y-1941D01*
X2443Y-1951D01*
X2460Y-1954D01*
X2477Y-1951D01*
X2491Y-1941D01*
X2501Y-1927D01*
X2504Y-1910D01*
X2501Y-1893D01*
X2491Y-1879D01*
X2477Y-1869D01*
X2460Y-1866D01*
D02*
G37*
G36*
X2110D02*
X2093Y-1869D01*
X2079Y-1879D01*
X2069Y-1893D01*
X2066Y-1910D01*
X2069Y-1927D01*
X2079Y-1941D01*
X2093Y-1951D01*
X2110Y-1954D01*
X2127Y-1951D01*
X2141Y-1941D01*
X2151Y-1927D01*
X2154Y-1910D01*
X2151Y-1893D01*
X2141Y-1879D01*
X2127Y-1869D01*
X2110Y-1866D01*
D02*
G37*
G36*
X3470Y-1946D02*
X3453Y-1949D01*
X3439Y-1959D01*
X3429Y-1973D01*
X3426Y-1990D01*
X3429Y-2007D01*
X3439Y-2021D01*
X3453Y-2031D01*
X3470Y-2034D01*
X3487Y-2031D01*
X3501Y-2021D01*
X3511Y-2007D01*
X3514Y-1990D01*
X3511Y-1973D01*
X3501Y-1959D01*
X3487Y-1949D01*
X3470Y-1946D01*
D02*
G37*
G36*
X3190D02*
X3173Y-1949D01*
X3159Y-1959D01*
X3149Y-1973D01*
X3146Y-1990D01*
X3149Y-2007D01*
X3159Y-2021D01*
X3173Y-2031D01*
X3190Y-2034D01*
X3207Y-2031D01*
X3221Y-2021D01*
X3231Y-2007D01*
X3234Y-1990D01*
X3231Y-1973D01*
X3221Y-1959D01*
X3207Y-1949D01*
X3190Y-1946D01*
D02*
G37*
G36*
X2630D02*
X2613Y-1949D01*
X2599Y-1959D01*
X2589Y-1973D01*
X2586Y-1990D01*
X2589Y-2007D01*
X2599Y-2021D01*
X2613Y-2031D01*
X2630Y-2034D01*
X2647Y-2031D01*
X2661Y-2021D01*
X2671Y-2007D01*
X2674Y-1990D01*
X2671Y-1973D01*
X2661Y-1959D01*
X2647Y-1949D01*
X2630Y-1946D01*
D02*
G37*
G36*
X4070Y-2216D02*
X4053Y-2219D01*
X4039Y-2229D01*
X4036Y-2233D01*
X4024D01*
X4021Y-2229D01*
X4007Y-2219D01*
X3990Y-2216D01*
X3973Y-2219D01*
X3959Y-2229D01*
X3949Y-2243D01*
X3946Y-2260D01*
X3949Y-2277D01*
X3959Y-2291D01*
X3973Y-2301D01*
X3990Y-2304D01*
X4007Y-2301D01*
X4021Y-2291D01*
X4024Y-2287D01*
X4036D01*
X4039Y-2291D01*
X4053Y-2301D01*
X4070Y-2304D01*
X4087Y-2301D01*
X4101Y-2291D01*
X4111Y-2277D01*
X4114Y-2260D01*
X4111Y-2243D01*
X4101Y-2229D01*
X4087Y-2219D01*
X4070Y-2216D01*
D02*
G37*
G36*
X3110Y-2146D02*
X3093Y-2149D01*
X3079Y-2159D01*
X3069Y-2173D01*
X3066Y-2190D01*
X3069Y-2207D01*
X3079Y-2221D01*
X3093Y-2231D01*
X3110Y-2234D01*
X3127Y-2231D01*
X3141Y-2221D01*
X3151Y-2207D01*
X3154Y-2190D01*
X3151Y-2173D01*
X3141Y-2159D01*
X3127Y-2149D01*
X3110Y-2146D01*
D02*
G37*
G36*
X3010Y-2156D02*
X2993Y-2159D01*
X2979Y-2169D01*
X2969Y-2183D01*
X2966Y-2200D01*
X2969Y-2217D01*
X2979Y-2231D01*
X2993Y-2241D01*
X3010Y-2244D01*
X3027Y-2241D01*
X3041Y-2231D01*
X3051Y-2217D01*
X3054Y-2200D01*
X3051Y-2183D01*
X3041Y-2169D01*
X3027Y-2159D01*
X3010Y-2156D01*
D02*
G37*
G36*
X4190Y-2216D02*
X4173Y-2219D01*
X4159Y-2229D01*
X4149Y-2243D01*
X4146Y-2260D01*
X4149Y-2277D01*
X4159Y-2291D01*
X4173Y-2301D01*
X4190Y-2304D01*
X4207Y-2301D01*
X4221Y-2291D01*
X4231Y-2277D01*
X4234Y-2260D01*
X4231Y-2243D01*
X4221Y-2229D01*
X4207Y-2219D01*
X4190Y-2216D01*
D02*
G37*
G36*
X3590Y-2146D02*
X3573Y-2149D01*
X3559Y-2159D01*
X3549Y-2173D01*
X3546Y-2190D01*
X3549Y-2204D01*
X3549Y-2207D01*
X3541Y-2218D01*
X3533Y-2219D01*
X3519Y-2229D01*
X3509Y-2243D01*
X3506Y-2260D01*
X3509Y-2277D01*
X3519Y-2291D01*
X3533Y-2301D01*
X3550Y-2304D01*
X3567Y-2301D01*
X3581Y-2291D01*
X3591Y-2277D01*
X3594Y-2260D01*
X3591Y-2246D01*
X3591Y-2243D01*
X3599Y-2232D01*
X3607Y-2231D01*
X3621Y-2221D01*
X3631Y-2207D01*
X3634Y-2190D01*
X3631Y-2173D01*
X3621Y-2159D01*
X3607Y-2149D01*
X3590Y-2146D01*
D02*
G37*
G36*
X3270D02*
X3253Y-2149D01*
X3239Y-2159D01*
X3229Y-2173D01*
X3226Y-2190D01*
X3229Y-2207D01*
X3239Y-2221D01*
X3253Y-2231D01*
X3261Y-2232D01*
X3269Y-2243D01*
X3269Y-2246D01*
X3266Y-2260D01*
X3269Y-2277D01*
X3279Y-2291D01*
X3293Y-2301D01*
X3310Y-2304D01*
X3327Y-2301D01*
X3341Y-2291D01*
X3351Y-2277D01*
X3354Y-2260D01*
X3351Y-2243D01*
X3341Y-2229D01*
X3327Y-2219D01*
X3319Y-2218D01*
X3311Y-2207D01*
X3311Y-2204D01*
X3314Y-2190D01*
X3311Y-2173D01*
X3301Y-2159D01*
X3287Y-2149D01*
X3270Y-2146D01*
D02*
G37*
G36*
X2670D02*
X2653Y-2149D01*
X2639Y-2159D01*
X2629Y-2173D01*
X2626Y-2190D01*
X2629Y-2207D01*
X2639Y-2221D01*
X2653Y-2231D01*
X2670Y-2234D01*
X2682Y-2232D01*
X2689Y-2243D01*
X2689Y-2243D01*
X2686Y-2260D01*
X2689Y-2277D01*
X2699Y-2291D01*
X2713Y-2301D01*
X2730Y-2304D01*
X2747Y-2301D01*
X2761Y-2291D01*
X2771Y-2277D01*
X2774Y-2260D01*
X2771Y-2243D01*
X2761Y-2229D01*
X2747Y-2219D01*
X2730Y-2216D01*
X2718Y-2218D01*
X2711Y-2207D01*
X2711Y-2207D01*
X2714Y-2190D01*
X2711Y-2173D01*
X2701Y-2159D01*
X2687Y-2149D01*
X2670Y-2146D01*
D02*
G37*
G36*
X2510D02*
X2493Y-2149D01*
X2479Y-2159D01*
X2469Y-2173D01*
X2466Y-2190D01*
X2469Y-2207D01*
X2479Y-2221D01*
Y-2229D01*
X2469Y-2243D01*
X2466Y-2260D01*
X2469Y-2277D01*
X2479Y-2291D01*
X2493Y-2301D01*
X2510Y-2304D01*
X2527Y-2301D01*
X2541Y-2291D01*
X2551Y-2277D01*
X2554Y-2260D01*
X2551Y-2243D01*
X2541Y-2229D01*
Y-2221D01*
X2551Y-2207D01*
X2554Y-2190D01*
X2551Y-2173D01*
X2541Y-2159D01*
X2527Y-2149D01*
X2510Y-2146D01*
D02*
G37*
G36*
X2163Y-2536D02*
X2146Y-2539D01*
X2132Y-2549D01*
X2122Y-2563D01*
X2119Y-2580D01*
X2122Y-2597D01*
X2132Y-2611D01*
X2146Y-2621D01*
X2163Y-2624D01*
X2179Y-2621D01*
X2194Y-2611D01*
X2203Y-2597D01*
X2207Y-2580D01*
X2203Y-2563D01*
X2194Y-2549D01*
X2179Y-2539D01*
X2163Y-2536D01*
D02*
G37*
G36*
X3330Y-2446D02*
X3313Y-2449D01*
X3299Y-2459D01*
X3289Y-2473D01*
X3286Y-2490D01*
X3289Y-2507D01*
X3299Y-2521D01*
X3313Y-2531D01*
X3329Y-2534D01*
X3326Y-2550D01*
X3329Y-2567D01*
X3339Y-2581D01*
X3353Y-2591D01*
X3369Y-2594D01*
X3366Y-2610D01*
X3369Y-2627D01*
X3379Y-2641D01*
X3393Y-2651D01*
X3410Y-2654D01*
X3427Y-2651D01*
X3441Y-2641D01*
X3451Y-2627D01*
X3454Y-2610D01*
X3451Y-2593D01*
X3441Y-2579D01*
X3427Y-2569D01*
X3411Y-2566D01*
X3414Y-2550D01*
X3411Y-2533D01*
X3401Y-2519D01*
X3387Y-2509D01*
X3371Y-2506D01*
X3374Y-2490D01*
X3371Y-2473D01*
X3361Y-2459D01*
X3347Y-2449D01*
X3330Y-2446D01*
D02*
G37*
G36*
X2670Y-2596D02*
X2653Y-2599D01*
X2639Y-2609D01*
X2629Y-2623D01*
X2626Y-2640D01*
X2629Y-2657D01*
X2639Y-2671D01*
X2653Y-2681D01*
X2670Y-2684D01*
X2687Y-2681D01*
X2701Y-2671D01*
X2711Y-2657D01*
X2714Y-2640D01*
X2711Y-2623D01*
X2701Y-2609D01*
X2687Y-2599D01*
X2670Y-2596D01*
D02*
G37*
G36*
X2890Y-2426D02*
X2873Y-2429D01*
X2859Y-2439D01*
X2849Y-2453D01*
X2846Y-2470D01*
X2849Y-2486D01*
X2833Y-2489D01*
X2819Y-2499D01*
X2809Y-2513D01*
X2806Y-2530D01*
X2809Y-2546D01*
X2793Y-2549D01*
X2779Y-2559D01*
X2769Y-2573D01*
X2766Y-2590D01*
X2769Y-2606D01*
X2753Y-2609D01*
X2739Y-2619D01*
X2729Y-2633D01*
X2726Y-2650D01*
X2729Y-2667D01*
X2739Y-2681D01*
X2753Y-2691D01*
X2770Y-2694D01*
X2787Y-2691D01*
X2801Y-2681D01*
X2811Y-2667D01*
X2814Y-2650D01*
X2811Y-2634D01*
X2827Y-2631D01*
X2841Y-2621D01*
X2851Y-2607D01*
X2854Y-2590D01*
X2851Y-2574D01*
X2867Y-2571D01*
X2881Y-2561D01*
X2891Y-2547D01*
X2894Y-2530D01*
X2891Y-2514D01*
X2907Y-2511D01*
X2914Y-2506D01*
X2928Y-2512D01*
X2929Y-2517D01*
X2939Y-2531D01*
X2953Y-2541D01*
X2967Y-2543D01*
X2966Y-2550D01*
X2969Y-2567D01*
X2979Y-2581D01*
X2993Y-2591D01*
X3009Y-2594D01*
X3006Y-2610D01*
X3009Y-2627D01*
X3019Y-2641D01*
X3033Y-2651D01*
X3049Y-2654D01*
X3046Y-2670D01*
X3049Y-2687D01*
X3059Y-2701D01*
X3073Y-2711D01*
X3090Y-2714D01*
X3107Y-2711D01*
X3121Y-2701D01*
X3131Y-2687D01*
X3134Y-2670D01*
X3131Y-2653D01*
X3121Y-2639D01*
X3107Y-2629D01*
X3091Y-2626D01*
X3094Y-2610D01*
X3091Y-2593D01*
X3081Y-2579D01*
X3067Y-2569D01*
X3051Y-2566D01*
X3054Y-2550D01*
X3051Y-2533D01*
X3041Y-2519D01*
X3027Y-2509D01*
X3013Y-2507D01*
X3014Y-2500D01*
X3011Y-2483D01*
X3001Y-2469D01*
X2987Y-2459D01*
X2970Y-2456D01*
X2953Y-2459D01*
X2946Y-2464D01*
X2932Y-2458D01*
X2931Y-2453D01*
X2921Y-2439D01*
X2907Y-2429D01*
X2890Y-2426D01*
D02*
G37*
G36*
X4290Y-2648D02*
X4273Y-2651D01*
X4259Y-2661D01*
X4249Y-2675D01*
X4246Y-2692D01*
X4249Y-2709D01*
X4259Y-2723D01*
X4273Y-2733D01*
X4290Y-2736D01*
X4307Y-2733D01*
X4321Y-2723D01*
X4331Y-2709D01*
X4334Y-2692D01*
X4331Y-2675D01*
X4321Y-2661D01*
X4307Y-2651D01*
X4290Y-2648D01*
D02*
G37*
G36*
X2086Y-2657D02*
X2069Y-2660D01*
X2055Y-2669D01*
X2045Y-2684D01*
X2042Y-2701D01*
X2045Y-2717D01*
X2055Y-2732D01*
X2069Y-2741D01*
X2086Y-2745D01*
X2103Y-2741D01*
X2117Y-2732D01*
X2127Y-2717D01*
X2130Y-2701D01*
X2127Y-2684D01*
X2117Y-2669D01*
X2103Y-2660D01*
X2086Y-2657D01*
D02*
G37*
G36*
X3986Y-2702D02*
X3969Y-2705D01*
X3955Y-2715D01*
X3945Y-2729D01*
X3942Y-2746D01*
X3945Y-2763D01*
X3955Y-2777D01*
X3969Y-2787D01*
X3986Y-2790D01*
X4003Y-2787D01*
X4017Y-2777D01*
X4027Y-2763D01*
X4030Y-2746D01*
X4027Y-2729D01*
X4017Y-2715D01*
X4003Y-2705D01*
X3986Y-2702D01*
D02*
G37*
G36*
X2406Y-2612D02*
X2389Y-2615D01*
X2375Y-2625D01*
X2365Y-2639D01*
X2362Y-2656D01*
X2365Y-2673D01*
X2375Y-2687D01*
X2386Y-2695D01*
X2388Y-2705D01*
X2387Y-2709D01*
X2379Y-2715D01*
X2369Y-2729D01*
X2366Y-2746D01*
X2369Y-2763D01*
X2379Y-2777D01*
X2393Y-2787D01*
X2410Y-2790D01*
X2427Y-2787D01*
X2441Y-2777D01*
X2451Y-2763D01*
X2454Y-2746D01*
X2451Y-2729D01*
X2441Y-2715D01*
X2430Y-2707D01*
X2428Y-2697D01*
X2429Y-2693D01*
X2437Y-2687D01*
X2447Y-2673D01*
X2450Y-2656D01*
X2447Y-2639D01*
X2437Y-2625D01*
X2423Y-2615D01*
X2406Y-2612D01*
D02*
G37*
G36*
X3830Y-2716D02*
X3813Y-2719D01*
X3799Y-2729D01*
X3789Y-2743D01*
X3786Y-2760D01*
X3789Y-2777D01*
X3799Y-2791D01*
X3813Y-2801D01*
X3830Y-2804D01*
X3847Y-2801D01*
X3861Y-2791D01*
X3871Y-2777D01*
X3874Y-2760D01*
X3871Y-2743D01*
X3861Y-2729D01*
X3847Y-2719D01*
X3830Y-2716D01*
D02*
G37*
G36*
X2710D02*
X2693Y-2719D01*
X2679Y-2729D01*
X2669Y-2743D01*
X2666Y-2760D01*
X2669Y-2777D01*
X2679Y-2791D01*
X2693Y-2801D01*
X2710Y-2804D01*
X2727Y-2801D01*
X2741Y-2791D01*
X2751Y-2777D01*
X2754Y-2760D01*
X2751Y-2743D01*
X2741Y-2729D01*
X2727Y-2719D01*
X2710Y-2716D01*
D02*
G37*
G36*
X4150Y-2826D02*
X4133Y-2829D01*
X4119Y-2839D01*
X4109Y-2853D01*
X4106Y-2870D01*
X4109Y-2887D01*
X4119Y-2901D01*
X4133Y-2911D01*
X4150Y-2914D01*
X4167Y-2911D01*
X4181Y-2901D01*
X4191Y-2887D01*
X4194Y-2870D01*
X4191Y-2853D01*
X4181Y-2839D01*
X4167Y-2829D01*
X4150Y-2826D01*
D02*
G37*
G36*
X2107Y-2876D02*
X2090Y-2879D01*
X2076Y-2889D01*
X2066Y-2903D01*
X2063Y-2920D01*
X2066Y-2937D01*
X2076Y-2951D01*
X2090Y-2961D01*
X2107Y-2964D01*
X2124Y-2961D01*
X2138Y-2951D01*
X2148Y-2937D01*
X2151Y-2920D01*
X2148Y-2903D01*
X2138Y-2889D01*
X2124Y-2879D01*
X2107Y-2876D01*
D02*
G37*
G36*
X5130Y-2876D02*
X5113Y-2879D01*
X5098Y-2889D01*
X5089Y-2903D01*
X5086Y-2920D01*
X5089Y-2937D01*
X5098Y-2951D01*
X5113Y-2961D01*
X5130Y-2964D01*
X5146Y-2961D01*
X5161Y-2951D01*
X5170Y-2937D01*
X5174Y-2920D01*
X5170Y-2903D01*
X5161Y-2889D01*
X5146Y-2879D01*
X5130Y-2876D01*
D02*
G37*
G36*
X4839D02*
X4822Y-2879D01*
X4808Y-2889D01*
X4799Y-2903D01*
X4795Y-2920D01*
X4799Y-2937D01*
X4808Y-2951D01*
X4822Y-2961D01*
X4839Y-2964D01*
X4856Y-2961D01*
X4870Y-2951D01*
X4880Y-2937D01*
X4883Y-2920D01*
X4880Y-2903D01*
X4870Y-2889D01*
X4856Y-2879D01*
X4839Y-2876D01*
D02*
G37*
G36*
X3930D02*
X3913Y-2879D01*
X3899Y-2889D01*
X3889Y-2903D01*
X3886Y-2920D01*
X3889Y-2937D01*
X3899Y-2951D01*
X3913Y-2961D01*
X3930Y-2964D01*
X3947Y-2961D01*
X3961Y-2951D01*
X3971Y-2937D01*
X3974Y-2920D01*
X3971Y-2903D01*
X3961Y-2889D01*
X3947Y-2879D01*
X3930Y-2876D01*
D02*
G37*
G36*
X3670D02*
X3653Y-2879D01*
X3639Y-2889D01*
X3629Y-2903D01*
X3626Y-2920D01*
X3629Y-2937D01*
X3639Y-2951D01*
X3653Y-2961D01*
X3670Y-2964D01*
X3687Y-2961D01*
X3701Y-2951D01*
X3711Y-2937D01*
X3714Y-2920D01*
X3711Y-2903D01*
X3701Y-2889D01*
X3687Y-2879D01*
X3670Y-2876D01*
D02*
G37*
G36*
X2870D02*
X2853Y-2879D01*
X2839Y-2889D01*
X2829Y-2903D01*
X2826Y-2920D01*
X2829Y-2937D01*
X2839Y-2951D01*
X2853Y-2961D01*
X2870Y-2964D01*
X2887Y-2961D01*
X2901Y-2951D01*
X2911Y-2937D01*
X2914Y-2920D01*
X2911Y-2903D01*
X2901Y-2889D01*
X2887Y-2879D01*
X2870Y-2876D01*
D02*
G37*
G36*
X2530D02*
X2513Y-2879D01*
X2499Y-2889D01*
X2489Y-2903D01*
X2486Y-2920D01*
X2489Y-2937D01*
X2499Y-2951D01*
X2513Y-2961D01*
X2530Y-2964D01*
X2547Y-2961D01*
X2561Y-2951D01*
X2571Y-2937D01*
X2574Y-2920D01*
X2571Y-2903D01*
X2561Y-2889D01*
X2547Y-2879D01*
X2530Y-2876D01*
D02*
G37*
G36*
X3030Y-2956D02*
X3013Y-2959D01*
X2999Y-2969D01*
X2989Y-2983D01*
X2986Y-3000D01*
X2989Y-3017D01*
X2999Y-3031D01*
X2999Y-3031D01*
X3000Y-3045D01*
X2995Y-3050D01*
X2981Y-3049D01*
X2981Y-3049D01*
X2967Y-3039D01*
X2950Y-3036D01*
X2933Y-3039D01*
X2919Y-3049D01*
X2909Y-3063D01*
X2906Y-3080D01*
X2909Y-3097D01*
X2919Y-3111D01*
X2933Y-3121D01*
X2950Y-3124D01*
X2967Y-3121D01*
X2981Y-3111D01*
X2984Y-3107D01*
X2996D01*
X2999Y-3111D01*
X3013Y-3121D01*
X3030Y-3124D01*
X3047Y-3121D01*
X3061Y-3111D01*
X3064Y-3107D01*
X3076D01*
X3079Y-3111D01*
X3083Y-3114D01*
Y-3126D01*
X3079Y-3129D01*
X3069Y-3143D01*
X3066Y-3160D01*
X3069Y-3177D01*
X3079Y-3191D01*
X3093Y-3201D01*
X3110Y-3204D01*
X3127Y-3201D01*
X3141Y-3191D01*
X3151Y-3177D01*
X3154Y-3160D01*
X3151Y-3143D01*
X3141Y-3129D01*
X3137Y-3126D01*
Y-3114D01*
X3141Y-3111D01*
X3151Y-3097D01*
X3154Y-3080D01*
X3151Y-3063D01*
X3141Y-3049D01*
X3127Y-3039D01*
X3110Y-3036D01*
X3093Y-3039D01*
X3079Y-3049D01*
X3076Y-3053D01*
X3064D01*
X3061Y-3049D01*
X3057Y-3046D01*
Y-3034D01*
X3061Y-3031D01*
X3071Y-3017D01*
X3074Y-3000D01*
X3071Y-2983D01*
X3061Y-2969D01*
X3047Y-2959D01*
X3030Y-2956D01*
D02*
G37*
G36*
X3510D02*
X3493Y-2959D01*
X3479Y-2969D01*
X3469Y-2983D01*
X3466Y-3000D01*
X3469Y-3017D01*
X3479Y-3031D01*
X3483Y-3034D01*
Y-3046D01*
X3479Y-3049D01*
X3469Y-3063D01*
X3466Y-3080D01*
X3469Y-3097D01*
X3479Y-3111D01*
X3483Y-3114D01*
Y-3126D01*
X3479Y-3129D01*
X3476Y-3133D01*
X3464D01*
X3461Y-3129D01*
X3447Y-3119D01*
X3430Y-3116D01*
X3413Y-3119D01*
X3399Y-3129D01*
X3389Y-3143D01*
X3386Y-3160D01*
X3389Y-3177D01*
X3399Y-3191D01*
X3413Y-3201D01*
X3430Y-3204D01*
X3447Y-3201D01*
X3461Y-3191D01*
X3464Y-3187D01*
X3476D01*
X3479Y-3191D01*
X3493Y-3201D01*
X3510Y-3204D01*
X3527Y-3201D01*
X3541Y-3191D01*
X3551Y-3177D01*
X3554Y-3160D01*
X3551Y-3143D01*
X3541Y-3129D01*
X3537Y-3126D01*
Y-3114D01*
X3541Y-3111D01*
X3544Y-3107D01*
X3556D01*
X3559Y-3111D01*
X3573Y-3121D01*
X3590Y-3124D01*
X3607Y-3121D01*
X3621Y-3111D01*
X3631Y-3097D01*
X3634Y-3080D01*
X3631Y-3063D01*
X3621Y-3049D01*
X3607Y-3039D01*
X3590Y-3036D01*
X3573Y-3039D01*
X3559Y-3049D01*
X3556Y-3053D01*
X3544D01*
X3541Y-3049D01*
X3537Y-3046D01*
Y-3034D01*
X3541Y-3031D01*
X3551Y-3017D01*
X3554Y-3000D01*
X3551Y-2983D01*
X3541Y-2969D01*
X3527Y-2959D01*
X3510Y-2956D01*
D02*
G37*
G36*
X3270Y-3116D02*
X3253Y-3119D01*
X3239Y-3129D01*
X3229Y-3143D01*
X3226Y-3160D01*
X3229Y-3177D01*
X3239Y-3191D01*
X3243Y-3194D01*
Y-3206D01*
X3239Y-3209D01*
X3229Y-3223D01*
X3226Y-3240D01*
X3229Y-3257D01*
X3239Y-3271D01*
X3253Y-3281D01*
X3270Y-3284D01*
X3287Y-3281D01*
X3301Y-3271D01*
X3311Y-3257D01*
X3314Y-3240D01*
X3311Y-3223D01*
X3301Y-3209D01*
X3297Y-3206D01*
Y-3194D01*
X3301Y-3191D01*
X3311Y-3177D01*
X3314Y-3160D01*
X3311Y-3143D01*
X3301Y-3129D01*
X3287Y-3119D01*
X3270Y-3116D01*
D02*
G37*
G36*
X3190Y-3276D02*
X3173Y-3279D01*
X3159Y-3289D01*
X3156Y-3293D01*
X3144D01*
X3141Y-3289D01*
X3127Y-3279D01*
X3110Y-3276D01*
X3093Y-3279D01*
X3079Y-3289D01*
X3069Y-3303D01*
X3066Y-3320D01*
X3069Y-3337D01*
X3079Y-3351D01*
X3093Y-3361D01*
X3110Y-3364D01*
X3127Y-3361D01*
X3141Y-3351D01*
X3144Y-3347D01*
X3156D01*
X3159Y-3351D01*
X3173Y-3361D01*
X3190Y-3364D01*
X3207Y-3361D01*
X3221Y-3351D01*
X3231Y-3337D01*
X3234Y-3320D01*
X3231Y-3303D01*
X3221Y-3289D01*
X3207Y-3279D01*
X3190Y-3276D01*
D02*
G37*
G36*
X3430D02*
X3413Y-3279D01*
X3399Y-3289D01*
X3396Y-3293D01*
X3384D01*
X3381Y-3289D01*
X3367Y-3279D01*
X3350Y-3276D01*
X3333Y-3279D01*
X3319Y-3289D01*
X3309Y-3303D01*
X3306Y-3320D01*
X3309Y-3337D01*
X3319Y-3351D01*
X3333Y-3361D01*
X3350Y-3364D01*
X3367Y-3361D01*
X3381Y-3351D01*
X3384Y-3347D01*
X3396D01*
X3399Y-3351D01*
X3413Y-3361D01*
X3430Y-3364D01*
X3447Y-3361D01*
X3461Y-3351D01*
X3471Y-3337D01*
X3474Y-3320D01*
X3471Y-3303D01*
X3461Y-3289D01*
X3447Y-3279D01*
X3430Y-3276D01*
D02*
G37*
G36*
X4360Y-3186D02*
X4343Y-3189D01*
X4329Y-3199D01*
X4319Y-3213D01*
X4316Y-3230D01*
X4319Y-3247D01*
X4329Y-3261D01*
X4343Y-3271D01*
X4356Y-3273D01*
X4360Y-3285D01*
X4360Y-3286D01*
X4356Y-3289D01*
X4346Y-3303D01*
X4343Y-3320D01*
X4346Y-3337D01*
X4356Y-3351D01*
X4370Y-3361D01*
X4387Y-3364D01*
X4404Y-3361D01*
X4418Y-3351D01*
X4428Y-3337D01*
X4431Y-3320D01*
X4428Y-3303D01*
X4418Y-3289D01*
X4404Y-3279D01*
X4391Y-3277D01*
X4387Y-3265D01*
X4387Y-3264D01*
X4391Y-3261D01*
X4401Y-3247D01*
X4404Y-3230D01*
X4401Y-3213D01*
X4391Y-3199D01*
X4377Y-3189D01*
X4360Y-3186D01*
D02*
G37*
G36*
X3670Y-3276D02*
X3653Y-3279D01*
X3639Y-3289D01*
X3629Y-3303D01*
X3626Y-3320D01*
X3629Y-3337D01*
X3639Y-3351D01*
X3653Y-3361D01*
X3670Y-3364D01*
X3687Y-3361D01*
X3701Y-3351D01*
X3711Y-3337D01*
X3714Y-3320D01*
X3711Y-3303D01*
X3701Y-3289D01*
X3687Y-3279D01*
X3670Y-3276D01*
D02*
G37*
G36*
X2870D02*
X2853Y-3279D01*
X2839Y-3289D01*
X2829Y-3303D01*
X2826Y-3320D01*
X2829Y-3337D01*
X2839Y-3351D01*
X2853Y-3361D01*
X2870Y-3364D01*
X2887Y-3361D01*
X2901Y-3351D01*
X2911Y-3337D01*
X2914Y-3320D01*
X2911Y-3303D01*
X2901Y-3289D01*
X2887Y-3279D01*
X2870Y-3276D01*
D02*
G37*
G36*
X2366Y-3280D02*
X2349Y-3283D01*
X2335Y-3293D01*
X2325Y-3307D01*
X2322Y-3324D01*
X2325Y-3341D01*
X2335Y-3355D01*
X2349Y-3365D01*
X2366Y-3368D01*
X2383Y-3365D01*
X2397Y-3355D01*
X2407Y-3341D01*
X2410Y-3324D01*
X2407Y-3307D01*
X2397Y-3293D01*
X2383Y-3283D01*
X2366Y-3280D01*
D02*
G37*
G36*
X4835Y-3311D02*
X4818Y-3314D01*
X4804Y-3324D01*
X4794Y-3338D01*
X4791Y-3355D01*
X4794Y-3372D01*
X4804Y-3386D01*
X4818Y-3396D01*
X4835Y-3399D01*
X4852Y-3396D01*
X4866Y-3386D01*
X4876Y-3372D01*
X4879Y-3355D01*
X4876Y-3338D01*
X4866Y-3324D01*
X4852Y-3314D01*
X4835Y-3311D01*
D02*
G37*
G36*
X3110Y-3436D02*
X3093Y-3439D01*
X3079Y-3449D01*
X3076Y-3453D01*
X3064D01*
X3061Y-3449D01*
X3047Y-3439D01*
X3030Y-3436D01*
X3013Y-3439D01*
X2999Y-3449D01*
X2989Y-3463D01*
X2986Y-3480D01*
X2989Y-3497D01*
X2999Y-3511D01*
X2999Y-3511D01*
X3000Y-3525D01*
X2995Y-3530D01*
X2981Y-3529D01*
X2981Y-3529D01*
X2967Y-3519D01*
X2950Y-3516D01*
X2933Y-3519D01*
X2919Y-3529D01*
X2909Y-3543D01*
X2906Y-3560D01*
X2909Y-3577D01*
X2919Y-3591D01*
X2933Y-3601D01*
X2950Y-3604D01*
X2967Y-3601D01*
X2981Y-3591D01*
X2984Y-3587D01*
X2996D01*
X2999Y-3591D01*
X3003Y-3594D01*
Y-3606D01*
X2999Y-3609D01*
X2989Y-3623D01*
X2986Y-3640D01*
X2989Y-3657D01*
X2999Y-3671D01*
X3013Y-3681D01*
X3030Y-3684D01*
X3047Y-3681D01*
X3061Y-3671D01*
X3071Y-3657D01*
X3074Y-3640D01*
X3071Y-3623D01*
X3061Y-3609D01*
X3057Y-3606D01*
Y-3594D01*
X3061Y-3591D01*
X3071Y-3577D01*
X3074Y-3560D01*
X3071Y-3543D01*
X3061Y-3529D01*
X3061Y-3529D01*
X3060Y-3515D01*
X3065Y-3510D01*
X3079Y-3511D01*
X3079Y-3511D01*
X3093Y-3521D01*
X3110Y-3524D01*
X3127Y-3521D01*
X3141Y-3511D01*
X3151Y-3497D01*
X3154Y-3480D01*
X3151Y-3463D01*
X3141Y-3449D01*
X3127Y-3439D01*
X3110Y-3436D01*
D02*
G37*
G36*
X4215Y-3421D02*
X4198Y-3424D01*
X4184Y-3434D01*
X4174Y-3448D01*
X4171Y-3465D01*
X4174Y-3482D01*
X4184Y-3496D01*
X4198Y-3506D01*
X4215Y-3509D01*
X4232Y-3506D01*
X4246Y-3496D01*
X4256Y-3482D01*
X4259Y-3465D01*
X4256Y-3448D01*
X4246Y-3434D01*
X4232Y-3424D01*
X4215Y-3421D01*
D02*
G37*
G36*
X3270Y-3356D02*
X3253Y-3359D01*
X3239Y-3369D01*
X3229Y-3383D01*
X3226Y-3400D01*
X3229Y-3417D01*
X3239Y-3431D01*
X3243Y-3434D01*
Y-3446D01*
X3239Y-3449D01*
X3229Y-3463D01*
X3226Y-3480D01*
X3229Y-3497D01*
X3239Y-3511D01*
X3253Y-3521D01*
X3270Y-3524D01*
X3287Y-3521D01*
X3301Y-3511D01*
X3311Y-3497D01*
X3314Y-3480D01*
X3311Y-3463D01*
X3301Y-3449D01*
X3297Y-3446D01*
Y-3434D01*
X3301Y-3431D01*
X3311Y-3417D01*
X3314Y-3400D01*
X3311Y-3383D01*
X3301Y-3369D01*
X3287Y-3359D01*
X3270Y-3356D01*
D02*
G37*
G36*
X4700Y-3512D02*
X4683Y-3515D01*
X4669Y-3525D01*
X4659Y-3539D01*
X4656Y-3556D01*
X4659Y-3573D01*
X4669Y-3587D01*
X4683Y-3597D01*
X4700Y-3600D01*
X4717Y-3597D01*
X4731Y-3587D01*
X4741Y-3573D01*
X4744Y-3556D01*
X4741Y-3539D01*
X4731Y-3525D01*
X4717Y-3515D01*
X4700Y-3512D01*
D02*
G37*
G36*
X3430Y-3436D02*
X3413Y-3439D01*
X3399Y-3449D01*
X3389Y-3463D01*
X3386Y-3480D01*
X3389Y-3497D01*
X3399Y-3511D01*
X3403Y-3514D01*
Y-3526D01*
X3399Y-3529D01*
X3389Y-3543D01*
X3386Y-3560D01*
X3389Y-3577D01*
X3399Y-3591D01*
X3413Y-3601D01*
X3430Y-3604D01*
X3447Y-3601D01*
X3461Y-3591D01*
X3464Y-3587D01*
X3476D01*
X3479Y-3591D01*
X3483Y-3594D01*
Y-3606D01*
X3479Y-3609D01*
X3469Y-3623D01*
X3466Y-3640D01*
X3469Y-3657D01*
X3479Y-3671D01*
X3493Y-3681D01*
X3510Y-3684D01*
X3527Y-3681D01*
X3541Y-3671D01*
X3551Y-3657D01*
X3554Y-3640D01*
X3551Y-3623D01*
X3541Y-3609D01*
X3537Y-3606D01*
Y-3594D01*
X3541Y-3591D01*
X3544Y-3587D01*
X3556D01*
X3559Y-3591D01*
X3573Y-3601D01*
X3590Y-3604D01*
X3607Y-3601D01*
X3621Y-3591D01*
X3631Y-3577D01*
X3634Y-3560D01*
X3631Y-3543D01*
X3621Y-3529D01*
X3607Y-3519D01*
X3590Y-3516D01*
X3573Y-3519D01*
X3559Y-3529D01*
X3556Y-3533D01*
X3544D01*
X3541Y-3529D01*
X3527Y-3519D01*
X3510Y-3516D01*
X3493Y-3519D01*
X3479Y-3529D01*
X3476Y-3533D01*
X3464D01*
X3461Y-3529D01*
X3457Y-3526D01*
Y-3514D01*
X3461Y-3511D01*
X3471Y-3497D01*
X3474Y-3480D01*
X3471Y-3463D01*
X3461Y-3449D01*
X3447Y-3439D01*
X3430Y-3436D01*
D02*
G37*
G36*
X4650Y-3626D02*
X4633Y-3629D01*
X4619Y-3639D01*
X4609Y-3653D01*
X4606Y-3670D01*
X4609Y-3687D01*
X4619Y-3701D01*
X4633Y-3711D01*
X4650Y-3714D01*
X4667Y-3711D01*
X4681Y-3701D01*
X4691Y-3687D01*
X4694Y-3670D01*
X4691Y-3653D01*
X4681Y-3639D01*
X4667Y-3629D01*
X4650Y-3626D01*
D02*
G37*
G36*
X4340Y-3676D02*
X4323Y-3679D01*
X4309Y-3689D01*
X4299Y-3703D01*
X4296Y-3720D01*
X4299Y-3737D01*
X4309Y-3751D01*
X4323Y-3761D01*
X4340Y-3764D01*
X4357Y-3761D01*
X4371Y-3751D01*
X4381Y-3737D01*
X4384Y-3720D01*
X4381Y-3703D01*
X4371Y-3689D01*
X4357Y-3679D01*
X4340Y-3676D01*
D02*
G37*
G36*
X3270D02*
X3253Y-3679D01*
X3239Y-3689D01*
X3229Y-3703D01*
X3226Y-3720D01*
X3229Y-3737D01*
X3239Y-3751D01*
X3253Y-3761D01*
X3270Y-3764D01*
X3287Y-3761D01*
X3301Y-3751D01*
X3311Y-3737D01*
X3314Y-3720D01*
X3311Y-3703D01*
X3301Y-3689D01*
X3287Y-3679D01*
X3270Y-3676D01*
D02*
G37*
G36*
X3670Y-3676D02*
X3653Y-3679D01*
X3639Y-3689D01*
X3629Y-3703D01*
X3626Y-3720D01*
X3629Y-3737D01*
X3639Y-3751D01*
X3653Y-3761D01*
X3670Y-3764D01*
X3687Y-3761D01*
X3701Y-3751D01*
X3711Y-3737D01*
X3714Y-3720D01*
X3711Y-3703D01*
X3701Y-3689D01*
X3687Y-3679D01*
X3670Y-3676D01*
D02*
G37*
G36*
X2870D02*
X2853Y-3679D01*
X2839Y-3689D01*
X2829Y-3703D01*
X2826Y-3720D01*
X2829Y-3737D01*
X2839Y-3751D01*
X2853Y-3761D01*
X2870Y-3764D01*
X2887Y-3761D01*
X2901Y-3751D01*
X2911Y-3737D01*
X2914Y-3720D01*
X2911Y-3703D01*
X2901Y-3689D01*
X2887Y-3679D01*
X2870Y-3676D01*
D02*
G37*
G36*
X1474Y-2905D02*
X1457Y-2908D01*
X1443Y-2918D01*
X1434Y-2932D01*
X1430Y-2949D01*
X1434Y-2966D01*
X1443Y-2980D01*
X1457Y-2990D01*
X1474Y-2993D01*
X1491Y-2990D01*
X1505Y-2980D01*
X1515Y-2966D01*
X1518Y-2949D01*
X1515Y-2932D01*
X1505Y-2918D01*
X1491Y-2908D01*
X1474Y-2905D01*
D02*
G37*
G36*
X1870Y-2956D02*
X1853Y-2959D01*
X1839Y-2969D01*
X1829Y-2983D01*
X1826Y-3000D01*
X1829Y-3017D01*
X1839Y-3031D01*
X1853Y-3041D01*
X1870Y-3044D01*
X1887Y-3041D01*
X1901Y-3031D01*
X1911Y-3017D01*
X1914Y-3000D01*
X1911Y-2983D01*
X1901Y-2969D01*
X1887Y-2959D01*
X1870Y-2956D01*
D02*
G37*
G36*
X1600Y-3020D02*
X1583Y-3024D01*
X1569Y-3033D01*
X1559Y-3048D01*
X1556Y-3064D01*
X1559Y-3081D01*
X1569Y-3096D01*
X1583Y-3105D01*
X1600Y-3108D01*
X1617Y-3105D01*
X1631Y-3096D01*
X1641Y-3081D01*
X1644Y-3064D01*
X1641Y-3048D01*
X1631Y-3033D01*
X1617Y-3024D01*
X1600Y-3020D01*
D02*
G37*
G36*
X1350Y-3306D02*
X1333Y-3309D01*
X1319Y-3319D01*
X1309Y-3333D01*
X1306Y-3350D01*
X1309Y-3367D01*
X1319Y-3381D01*
X1333Y-3391D01*
X1350Y-3394D01*
X1367Y-3391D01*
X1381Y-3381D01*
X1391Y-3367D01*
X1394Y-3350D01*
X1391Y-3333D01*
X1381Y-3319D01*
X1367Y-3309D01*
X1350Y-3306D01*
D02*
G37*
G36*
X1780D02*
X1763Y-3309D01*
X1749Y-3319D01*
X1739Y-3333D01*
X1736Y-3350D01*
X1739Y-3367D01*
X1749Y-3381D01*
X1763Y-3391D01*
X1777Y-3394D01*
Y-3406D01*
X1763Y-3409D01*
X1749Y-3419D01*
X1739Y-3433D01*
X1736Y-3450D01*
X1739Y-3467D01*
X1749Y-3481D01*
X1763Y-3491D01*
X1777Y-3494D01*
Y-3506D01*
X1763Y-3509D01*
X1749Y-3519D01*
X1739Y-3533D01*
X1736Y-3550D01*
X1739Y-3567D01*
X1749Y-3581D01*
X1763Y-3591D01*
X1780Y-3594D01*
X1797Y-3591D01*
X1811Y-3581D01*
X1821Y-3567D01*
X1824Y-3553D01*
X1836D01*
X1839Y-3567D01*
X1849Y-3581D01*
X1863Y-3591D01*
X1880Y-3594D01*
X1897Y-3591D01*
X1911Y-3581D01*
X1921Y-3567D01*
X1924Y-3553D01*
X1936D01*
X1939Y-3567D01*
X1949Y-3581D01*
X1963Y-3591D01*
X1980Y-3594D01*
X1997Y-3591D01*
X2011Y-3581D01*
X2021Y-3567D01*
X2024Y-3550D01*
X2021Y-3533D01*
X2011Y-3519D01*
X1997Y-3509D01*
X1983Y-3506D01*
Y-3494D01*
X1997Y-3491D01*
X2011Y-3481D01*
X2021Y-3467D01*
X2024Y-3450D01*
X2021Y-3433D01*
X2011Y-3419D01*
X1997Y-3409D01*
X1983Y-3406D01*
Y-3394D01*
X1997Y-3391D01*
X2011Y-3381D01*
X2021Y-3367D01*
X2024Y-3350D01*
X2021Y-3333D01*
X2011Y-3319D01*
X1997Y-3309D01*
X1980Y-3306D01*
X1963Y-3309D01*
X1949Y-3319D01*
X1939Y-3333D01*
X1936Y-3347D01*
X1924D01*
X1923Y-3343D01*
X1921Y-3333D01*
X1911Y-3319D01*
X1897Y-3309D01*
X1880Y-3306D01*
X1863Y-3309D01*
X1849Y-3319D01*
X1839Y-3333D01*
X1836Y-3347D01*
X1826D01*
X1823Y-3343D01*
X1822Y-3340D01*
X1821Y-3333D01*
X1811Y-3319D01*
X1797Y-3309D01*
X1780Y-3306D01*
D02*
G37*
G36*
X1260Y-3416D02*
X1243Y-3419D01*
X1229Y-3429D01*
X1219Y-3443D01*
X1216Y-3460D01*
X1219Y-3477D01*
X1229Y-3491D01*
X1233Y-3494D01*
Y-3506D01*
X1229Y-3509D01*
X1219Y-3523D01*
X1216Y-3540D01*
X1219Y-3557D01*
X1229Y-3571D01*
Y-3579D01*
X1219Y-3593D01*
X1216Y-3610D01*
X1219Y-3627D01*
X1229Y-3641D01*
Y-3649D01*
X1219Y-3663D01*
X1216Y-3680D01*
X1219Y-3697D01*
X1229Y-3711D01*
X1243Y-3721D01*
X1260Y-3724D01*
X1277Y-3721D01*
X1291Y-3711D01*
X1301Y-3697D01*
X1304Y-3680D01*
X1301Y-3663D01*
X1291Y-3649D01*
Y-3641D01*
X1301Y-3627D01*
X1304Y-3610D01*
X1301Y-3593D01*
X1291Y-3579D01*
Y-3571D01*
X1301Y-3557D01*
X1304Y-3540D01*
X1301Y-3523D01*
X1291Y-3509D01*
X1287Y-3506D01*
Y-3494D01*
X1291Y-3491D01*
X1301Y-3477D01*
X1304Y-3460D01*
X1301Y-3443D01*
X1291Y-3429D01*
X1277Y-3419D01*
X1260Y-3416D01*
D02*
G37*
%LPD*%
D15*
X4930Y-2120D02*
X5050Y-2240D01*
X4280Y-2520D02*
X4490Y-2310D01*
X4070Y-2520D02*
X4280D01*
X4020Y-2470D02*
Y-2460D01*
Y-2470D02*
X4070Y-2520D01*
X4490Y-2310D02*
Y-2170D01*
X4540Y-2120D01*
X4930D01*
D132*
X2110Y-3943D02*
X2273Y-3780D01*
X2110Y-4040D02*
Y-3943D01*
X1830Y-1900D02*
Y-1520D01*
X2570Y-780D01*
X4310Y-2580D02*
X4680Y-2210D01*
X3940Y-2580D02*
X4310D01*
X4250Y-2460D02*
X4430Y-2280D01*
X3790Y-2430D02*
X3940Y-2580D01*
X4680Y-2210D02*
X4710D01*
X2570Y-780D02*
X2700D01*
X3110Y-2920D02*
X3190Y-2840D01*
X3430D01*
X3790Y-2380D02*
Y-2030D01*
Y-2430D02*
Y-2380D01*
X3430Y-2920D02*
Y-2840D01*
X3570Y-2700D01*
Y-2440D01*
X3630Y-2380D01*
X3790D01*
X3750Y-1990D02*
X3790Y-2030D01*
X3750Y-1990D02*
Y-1810D01*
X4910Y-2060D02*
X4912Y-2058D01*
X4430Y-2060D02*
X4910D01*
X4430Y-2280D02*
Y-2060D01*
Y-1770D01*
X4912Y-2058D02*
X4960Y-2010D01*
X5370D01*
X5426Y-2066D01*
D137*
X770Y-4424D02*
D03*
X3130D02*
D03*
X4970D02*
D03*
D144*
X490Y-770D02*
D03*
X220Y-730D02*
D03*
X850Y-990D02*
D03*
X790D02*
D03*
X730D02*
D03*
X4810Y-3740D02*
D03*
X1830Y-1900D02*
D03*
X2251Y-2580D02*
D03*
X2150Y-2840D02*
D03*
X1600Y-3152D02*
D03*
X1470Y-2610D02*
D03*
X1175Y-2960D02*
D03*
X953Y-3214D02*
D03*
X1526Y-2789D02*
D03*
X970Y-1650D02*
D03*
X1068Y-2060D02*
D03*
X1470Y-3350D02*
D03*
X5050Y-2240D02*
D03*
X4250Y-2460D02*
D03*
X-280Y-1420D02*
D03*
X-160D02*
D03*
X-40D02*
D03*
X-280Y-1300D02*
D03*
X-160D02*
D03*
X-40D02*
D03*
X-340Y-1360D02*
D03*
X-220D02*
D03*
X-100D02*
D03*
X20D02*
D03*
X1655Y-2600D02*
D03*
X2700Y-780D02*
D03*
X4710Y-2210D02*
D03*
X3750Y-1990D02*
D03*
Y-1810D02*
D03*
X4912Y-2058D02*
D03*
X5426Y-2066D02*
D03*
X4250Y-500D02*
D03*
X4170D02*
D03*
X4250Y-280D02*
D03*
X4170D02*
D03*
X1320Y-440D02*
D03*
X1318Y-2060D02*
D03*
X1218D02*
D03*
X968D02*
D03*
X20Y-1300D02*
D03*
Y-1420D02*
D03*
X-40Y-1360D02*
D03*
X-100Y-1420D02*
D03*
Y-1300D02*
D03*
X-160Y-1360D02*
D03*
X-220Y-1420D02*
D03*
Y-1300D02*
D03*
X-280Y-1360D02*
D03*
X-340Y-1420D02*
D03*
Y-1300D02*
D03*
X5226Y-3706D02*
D03*
X5894Y-3446D02*
D03*
X3110Y-2920D02*
D03*
X3430D02*
D03*
X2110Y-4040D02*
D03*
X1260Y-3830D02*
D03*
X2366Y-3236D02*
D03*
X1260Y-3760D02*
D03*
X4430Y-1770D02*
D03*
X4020Y-2460D02*
D03*
M02*
