M48
;Layer_Color=9474304
;FILE_FORMAT=4:2
METRIC,LZ
;TYPE=PLATED
T1F00S00C0.23
T2F00S00C0.40
T5F00S00C0.90
T6F00S00C1.50
;TYPE=NON_PLATED
T7F00S00C0.60
T8F00S00C0.95
%
T01
X00058Y-00419
X0008Y-00419
X001
X00107Y-00416
X00115
X00122Y-00419
X00126Y-00404
Y-00383
Y-00376
X00103Y-00399
X00069Y-00405
X00071Y-00372
X00149Y-00399
X00159Y-0041
X0019Y-00399
X00201Y-004124
Y-00446
X00202Y-00484
X00214Y-00438
X002338Y-00434
X00246Y-00419
X00268
X0028Y-00423
X0029Y-00419
X0031Y-00419
X00332
X00335Y-00399
X00327
X00341Y-00402
X00347Y-00404
X00384Y-00401
X00383Y-00388
X00394Y-00383
X00398Y-00407
X00429Y-00401
X00437Y-00388
X00434Y-00372
X00465Y-00378
X004652Y-003897
X00474
X00481Y-00374
X00488Y-00408
X00493Y-00416
X005Y-00419
X0052
X00542
X0057Y-00388
X00579Y-00383
X00589
X005226Y-003794
X005226Y-003706
X00478Y-00419
X00409Y-00458
X00367Y-00372
X00327Y-00372
X00287Y-00372
X00271Y-00388
X002556Y-003924
X002406Y-003836
X00237Y-00403
X00229Y-0041
X00211Y-00404
X00298Y-00401
X00303Y-00364
Y-00356
X00303Y-00348
X00311
Y-00332
X00319
X00335
X00343
Y-00348
X00343Y-00356
X00351
X00359
X00351Y-00364
X00327Y-00348
Y-0034
Y-00324
Y-00316
X00311
X00311Y-00308
X00303Y-00308
X00295
X00303Y-003
X00311Y-00292
X00327
X00343
X00351Y-003
Y-00308
X00359
X00351Y-00316
X00343
X00367Y-00332
X00367Y-00292
X00393
X003986Y-002746
X00405Y-00265
X00412
X00418Y-0027
X00429Y-002692
X00425Y-00246
X00417
X00409
X00402
X00399Y-00226
X00407
X00419
X00387
X00367
X00371Y-00219
X00359Y-00219
X00355Y-00226
X00331
X00327Y-00219
X00311
X00301Y-0022
X00273Y-00226
X00267Y-00219
X00251
Y-00226
X00263Y-00199
X00246Y-00191
X00211
X0023Y-00171
X00263
X00273Y-001605
X00268Y-00154
X00273Y-00148
Y-00125
X00281Y-00118
X00285Y-00131
X003174Y-001306
X00313Y-00125
Y-00118
X00333Y-00118
X003586Y-001144
X0036Y-00106
X003586Y-001364
X00374Y-00154
X00381Y-00157
X00385Y-00148
X00375Y-00181
Y-00199
X00387
X00382Y-00193
X00347Y-00199
X00319
X00313Y-00167
X00297Y-0025
X00301Y-00255
X00305Y-00261
X00309Y-00267
X00277Y-00265
X00281Y-00259
X00285Y-00253
X00289Y-00247
X00267Y-00264
X00271Y-00276
X00241Y-002746
X002406Y-002656
X002251Y-00258
X002163
X002086Y-002701
X00215Y-00284
X002107Y-00292
X00253Y-00292
X00287
X00287Y-00332
X00295Y-00356
X002366Y-003324
Y-003236
X00341Y-00261
X00337Y-00255
X00333Y-00249
X00365Y-00247
X00369Y-00253
X00373Y-00259
X00377Y-00265
X00387Y-00264
X00383Y-00276
X00415Y-00287
X00436Y-00323
X004387Y-00332
X004215Y-003465
X0047Y-003556
X00465Y-00367
X004835Y-003355
X005015
X00513Y-00292
X004839
X00471Y-00221
X00469Y-00199
X00473Y-00181
X00478Y-00185
X00504Y-00188
X005153Y-001833
X00537
Y-00191
X005426Y-002066
X005514Y-002066
X00526Y-00208
X00518
X004912Y-002058
X00505Y-00224
X00511Y-00155
X005425Y-001555
X00552Y-00112
X00543Y-00019
X00435Y-00014
X00425Y-00028
X00417
X00406Y-00023
X00385Y-0003
X00375
X00367Y-00023
X00347Y-0003
X00339Y-00023
X00341Y-00051
X00343Y-00063
X0035Y-0006
X003538Y-00075
X00383Y-00066
X00392Y-00069
X00409Y-0005
X00417
X00425
X004405Y-001555
X00443Y-00177
X00434
X00301Y-00072
X00303Y-00065
X00297Y-0006
X00285Y-0005
X00282Y-0003
X00288
X00293Y-00026
X00299Y-00023
X00307Y-0003
X00277Y-00026
X00271Y-00023
X00267Y-0003
X00259Y-00023
X00242Y-00008
X00246Y-00054
X00253Y-0005
X00232Y-00049
X00215Y-00051
X00232Y-00082
X00255Y-0009
X00254Y-00109
X00232Y-00115
X0027Y-00078
X005894Y-003446
X005791Y-00361
X00198Y-00355
X00188
X00178
Y-00345
Y-00335
X00188Y-00335
Y-00345
X00198
Y-00335
X00187Y-003
X0016Y-003064
Y-003152
X00147Y-00335
X00135
X00126Y-00346
Y-00354
Y-00361
Y-00368
X00101Y-00356
Y-00344
X000953Y-003214
Y-00301
X001175Y-00296
X00128Y-00281
X001526Y-002789
X001524Y-002701
X00147Y-00261
X001655Y-0026
X00161Y-0025
X001474Y-002949
X001318Y-00215
Y-00206
X001218
Y-00215
X001068Y-00206
X000968
X00097Y-00215
Y-00235
X00097Y-00165
X001106Y-001416
X0011Y-00133
Y-00117
X0009Y-00119
X00077
X00079Y-00099
X00073
X00085
X000752Y-000638
X00071Y-0005
X00063
X00055
X000795Y-000495
X00086Y-00049
X000925Y-000495
X00106Y-00048
X00116Y-00049
X00132Y-00044
X00105Y-00037
X00099Y-00029
X00139Y-00073
X00155Y-00074
X00146Y-00083
X00136Y-00109
X00138Y-00117
Y-00133
X001487Y-001413
X00168Y-00133
X00173Y-00115
X00157Y-00117
X00199Y-00115
X00203Y-00078
X00184Y-00064
X00162Y-00162
X001567Y-00187
X00183Y-0019
X00061Y-00197
X00061Y-00177
X00002Y-0018
X-00004
X-0001
X-00016
Y-00186
X-0001
Y-00192
X-00016
X-00022
Y-00186
X-00028
Y-00192
X-00034
Y-00186
Y-0018
X-00028
X-00022
Y-00167
Y-00161
X-00028
Y-00167
X-00034
Y-00161
Y-00155
X-00028
X-00022
X-00016
X-0001
Y-00161
X-00016
Y-00167
X-0001
X-00004
Y-00161
X00002
Y-00167
Y-00155
X-00004
Y-00142
X00002
Y-00136
X-00004
Y-0013
X00002
X-0001
X-00016
Y-00136
Y-00142
X-0001
Y-00136
X-00022
Y-00142
X-00028
Y-00136
Y-0013
X-00022
X-00034
Y-00136
Y-00142
Y-00205
Y-00211
Y-00217
X-00028
Y-00211
X-00022
Y-00217
X-00016
Y-00211
X-0001
Y-00217
X-00004
Y-00211
X00002
Y-00217
Y-00205
X-00004
X-0001
X-00016
X-00022
X-00028
X-00004Y-00192
X00002
Y-00186
X-00004
X0001Y-00259
Y-0036
X00088Y-00367
X000484Y-00111
X00049Y-00077
X00022Y-00073
T02
X00065Y-004514
X00073
X000815
X00077Y-004424
X00086
X00094
X00103
X00107Y-004514
X00115
X000985
X00275
X00283
X002915
X00287Y-004424
X00296
X00304
X00313
X00317Y-004514
X00325
X003085
X00485
X00493
X005015
X00497Y-004424
X00506
X00514
X00523
X00527Y-004514
X00535
X005185
T05
X00015Y-00421
X005851Y-004208
T06
X005823Y-000181
X001921Y-002317
T07
X000555Y-00431
X001245
X002655
X003345
X004755
X005445
T08
X00017Y-00085
Y-00055
M30
