M48
;Layer_Color=9474304
;FILE_FORMAT=4:2
METRIC
;TYPE=PLATED
T3F00S00C0.40
T4F00S00C0.50
;TYPE=NON_PLATED
%
G90
G05
T03
G00X000605Y-004424
M15
G01X000555
M16
G00X001195Y-004424
M15
G01X001245
M16
G00X004805Y-004424
M15
G01X004755
M16
G00X005395Y-004424
M15
G01X005445
M16
T04
G00X000292Y-004930
M15
G01Y-004830
M16
G00X000292Y-004554
M15
G01Y-004454
M16
G00X000453Y-004300
M15
G01Y-004240
M16
G00X001348Y-004300
M15
G01Y-004240
M16
G00X001507Y-004554
M15
G01Y-004454
M16
G00X001507Y-004940
M15
G01Y-004840
M16
G00X004492Y-004930
M15
G01Y-004830
M16
G00X004492Y-004554
M15
G01Y-004454
M16
G00X004652Y-004300
M15
G01Y-004240
M16
G00X005547Y-004300
M15
G01Y-004240
M16
G00X005707Y-004554
M15
G01Y-004454
M16
G00X005707Y-004940
M15
G01Y-004840
M16
G00X002290Y-000090
M15
G01Y-000160
M16
G00X001630Y-000090
M15
G01Y-000160
M16
G00X001190Y-000088
M15
G01Y-000158
M16
G00X000530Y-000088
M15
G01Y-000158
M16
M17
M30
