G04*
G04 #@! TF.GenerationSoftware,Altium Limited,Altium Designer,19.0.15 (446)*
G04*
G04 Layer_Physical_Order=3*
G04 Layer_Color=16440176*
%FSAX42Y42*%
%MOMM*%
G71*
G01*
G75*
%ADD15C,0.20*%
%ADD108C,0.51*%
%ADD114C,0.65*%
%ADD121C,0.46*%
G36*
X005730Y-000040D02*
X005730Y-000044D01*
X005706Y-000064D01*
X005685Y-000089D01*
X005670Y-000118D01*
X005660Y-000149D01*
X005657Y-000181D01*
X005660Y-000213D01*
X005670Y-000244D01*
X005685Y-000273D01*
X005706Y-000298D01*
X005731Y-000319D01*
X005760Y-000334D01*
X005791Y-000344D01*
X005823Y-000347D01*
X005855Y-000344D01*
X005886Y-000334D01*
X005915Y-000319D01*
X005940Y-000298D01*
X005956Y-000279D01*
X005969Y-000283D01*
Y-000770D01*
X003036Y-000770D01*
X003032Y-000757D01*
X003041Y-000751D01*
X003051Y-000737D01*
X003054Y-000720D01*
X003051Y-000703D01*
X003050Y-000702D01*
X003054Y-000686D01*
X003061Y-000681D01*
X003071Y-000667D01*
X003074Y-000650D01*
X003071Y-000633D01*
X003061Y-000619D01*
X003047Y-000609D01*
X003030Y-000606D01*
X003026Y-000607D01*
X003014Y-000600D01*
X003011Y-000583D01*
X003001Y-000569D01*
X002987Y-000559D01*
X002970Y-000556D01*
X002953Y-000559D01*
X002939Y-000569D01*
X002929Y-000583D01*
X002926Y-000600D01*
X002929Y-000617D01*
X002939Y-000631D01*
X002953Y-000641D01*
X002970Y-000644D01*
X002974Y-000643D01*
X002986Y-000650D01*
X002989Y-000667D01*
X002990Y-000668D01*
X002986Y-000684D01*
X002979Y-000689D01*
X002969Y-000703D01*
X002966Y-000720D01*
X002969Y-000737D01*
X002979Y-000751D01*
X002988Y-000757D01*
X002984Y-000770D01*
X002745D01*
X002743Y-000762D01*
X002733Y-000747D01*
X002718Y-000737D01*
X002700Y-000733D01*
X002570D01*
X002552Y-000737D01*
X002537Y-000747D01*
X001797Y-001487D01*
X001787Y-001502D01*
X001783Y-001520D01*
Y-002101D01*
X001687Y-002197D01*
X001677Y-002212D01*
X001673Y-002230D01*
Y-002347D01*
X001161Y-002859D01*
X001149Y-002857D01*
X001147Y-002855D01*
X001133Y-002845D01*
X001116Y-002842D01*
X001099Y-002845D01*
X001085Y-002855D01*
X001075Y-002869D01*
X001072Y-002886D01*
X001075Y-002903D01*
X001085Y-002917D01*
X001087Y-002919D01*
X001089Y-002931D01*
X001000Y-003020D01*
X001000Y-003740D01*
X001200Y-003940D01*
X001405Y-003940D01*
X001645Y-004180D01*
X002040D01*
X002359Y-003861D01*
X002372Y-003862D01*
X002375Y-003867D01*
X002389Y-003877D01*
X002406Y-003880D01*
X002423Y-003877D01*
X002437Y-003867D01*
X002447Y-003853D01*
X002449Y-003840D01*
X002671D01*
X002676Y-003853D01*
X002669Y-003863D01*
X002666Y-003880D01*
X002669Y-003897D01*
X002679Y-003911D01*
X002693Y-003921D01*
X002710Y-003924D01*
X002727Y-003921D01*
X002741Y-003911D01*
X002751Y-003897D01*
X002754Y-003880D01*
X002751Y-003863D01*
X002744Y-003853D01*
X002749Y-003840D01*
X003791D01*
X003796Y-003853D01*
X003789Y-003863D01*
X003786Y-003880D01*
X003789Y-003897D01*
X003799Y-003911D01*
X003813Y-003921D01*
X003830Y-003924D01*
X003847Y-003921D01*
X003861Y-003911D01*
X003871Y-003897D01*
X003874Y-003880D01*
X003871Y-003863D01*
X003864Y-003853D01*
X003869Y-003840D01*
X003898D01*
X003899Y-003847D01*
X003909Y-003861D01*
X003923Y-003871D01*
X003940Y-003874D01*
X003957Y-003871D01*
X003971Y-003861D01*
X003981Y-003847D01*
X003982Y-003840D01*
X004685D01*
X004691Y-003851D01*
X004689Y-003853D01*
X004686Y-003870D01*
X004689Y-003887D01*
X004699Y-003901D01*
X004713Y-003911D01*
X004730Y-003914D01*
X004747Y-003911D01*
X004761Y-003901D01*
X004764Y-003897D01*
X004776D01*
X004779Y-003901D01*
X004793Y-003911D01*
X004810Y-003914D01*
X004827Y-003911D01*
X004841Y-003901D01*
X004851Y-003887D01*
X004854Y-003870D01*
X004851Y-003853D01*
X004849Y-003851D01*
X004855Y-003840D01*
X004930D01*
X004930Y-003280D01*
X005969Y-003280D01*
Y-005079D01*
X005631D01*
Y-005000D01*
X005644Y-004998D01*
X005646Y-005003D01*
X005657Y-005018D01*
X005672Y-005029D01*
X005689Y-005037D01*
X005707Y-005039D01*
X005726Y-005037D01*
X005743Y-005029D01*
X005758Y-005018D01*
X005769Y-005003D01*
X005776Y-004986D01*
X005778Y-004968D01*
Y-004812D01*
X005776Y-004794D01*
X005769Y-004777D01*
X005758Y-004762D01*
X005743Y-004751D01*
X005726Y-004743D01*
X005707Y-004741D01*
X005689Y-004743D01*
X005672Y-004751D01*
X005657Y-004762D01*
X005646Y-004777D01*
X005644Y-004782D01*
X005631Y-004780D01*
Y-004614D01*
X005644Y-004612D01*
X005646Y-004617D01*
X005657Y-004632D01*
X005672Y-004643D01*
X005689Y-004651D01*
X005707Y-004653D01*
X005726Y-004651D01*
X005743Y-004643D01*
X005758Y-004632D01*
X005769Y-004617D01*
X005776Y-004600D01*
X005778Y-004582D01*
Y-004426D01*
X005776Y-004408D01*
X005769Y-004391D01*
X005758Y-004376D01*
X005743Y-004365D01*
X005726Y-004357D01*
X005707Y-004355D01*
X005689Y-004357D01*
X005672Y-004365D01*
X005657Y-004376D01*
X005646Y-004391D01*
X005639Y-004408D01*
X005637Y-004426D01*
Y-004557D01*
X005624Y-004561D01*
X005622Y-004558D01*
X005612Y-004551D01*
X005600Y-004549D01*
X005404D01*
X005398Y-004538D01*
X005400Y-004535D01*
X005404Y-004514D01*
X005400Y-004493D01*
X005398Y-004491D01*
X005405Y-004478D01*
X005445D01*
X005466Y-004474D01*
X005483Y-004462D01*
X005495Y-004445D01*
X005499Y-004424D01*
X005495Y-004403D01*
X005483Y-004386D01*
X005466Y-004374D01*
X005455Y-004372D01*
Y-004359D01*
X005465Y-004357D01*
X005481Y-004346D01*
X005481Y-004346D01*
X005494Y-004346D01*
X005497Y-004350D01*
X005512Y-004361D01*
X005529Y-004369D01*
X005547Y-004371D01*
X005566Y-004369D01*
X005583Y-004361D01*
X005598Y-004350D01*
X005609Y-004335D01*
X005616Y-004318D01*
X005618Y-004300D01*
Y-004240D01*
X005616Y-004222D01*
X005609Y-004205D01*
X005598Y-004190D01*
X005583Y-004179D01*
X005566Y-004171D01*
X005547Y-004169D01*
X005529Y-004171D01*
X005512Y-004179D01*
X005497Y-004190D01*
X005486Y-004205D01*
X005479Y-004222D01*
X005477Y-004240D01*
Y-004256D01*
X005466Y-004262D01*
X005464Y-004262D01*
X005445Y-004259D01*
X005425Y-004263D01*
X005409Y-004274D01*
X005398Y-004290D01*
X005394Y-004310D01*
X005398Y-004330D01*
X005409Y-004346D01*
X005425Y-004357D01*
X005426Y-004357D01*
X005424Y-004370D01*
X005395D01*
X005374Y-004374D01*
X005357Y-004386D01*
X005345Y-004403D01*
X005341Y-004424D01*
X005345Y-004445D01*
X005347Y-004448D01*
X005341Y-004462D01*
X005329Y-004464D01*
X005320Y-004471D01*
X005310Y-004475D01*
X005300Y-004471D01*
X005291Y-004464D01*
X005283Y-004463D01*
X005277Y-004449D01*
X005280Y-004445D01*
X005284Y-004424D01*
X005280Y-004403D01*
X005268Y-004386D01*
X005251Y-004374D01*
X005230Y-004370D01*
X005209Y-004374D01*
X005192Y-004386D01*
X005191Y-004387D01*
X005179D01*
X005178Y-004386D01*
X005161Y-004374D01*
X005140Y-004370D01*
X005119Y-004374D01*
X005102Y-004386D01*
X005098D01*
X005081Y-004374D01*
X005060Y-004370D01*
X005039Y-004374D01*
X005022Y-004386D01*
X005010Y-004381D01*
X004993Y-004369D01*
X004983Y-004367D01*
Y-004424D01*
X004970D01*
Y-004437D01*
X004913D01*
X004915Y-004447D01*
X004919Y-004452D01*
X004914Y-004463D01*
X004909Y-004464D01*
X004892Y-004476D01*
X004888D01*
X004871Y-004464D01*
X004859Y-004462D01*
X004853Y-004448D01*
X004855Y-004445D01*
X004859Y-004424D01*
X004855Y-004403D01*
X004843Y-004386D01*
X004826Y-004374D01*
X004805Y-004370D01*
X004776D01*
X004774Y-004357D01*
X004775Y-004357D01*
X004791Y-004346D01*
X004802Y-004330D01*
X004806Y-004310D01*
X004802Y-004290D01*
X004791Y-004274D01*
X004775Y-004263D01*
X004755Y-004259D01*
X004736Y-004262D01*
X004734Y-004262D01*
X004723Y-004256D01*
Y-004240D01*
X004721Y-004222D01*
X004714Y-004205D01*
X004703Y-004190D01*
X004688Y-004179D01*
X004671Y-004171D01*
X004652Y-004169D01*
X004634Y-004171D01*
X004617Y-004179D01*
X004602Y-004190D01*
X004591Y-004205D01*
X004584Y-004222D01*
X004582Y-004240D01*
Y-004300D01*
X004584Y-004318D01*
X004591Y-004335D01*
X004602Y-004350D01*
X004617Y-004361D01*
X004634Y-004369D01*
X004652Y-004371D01*
X004671Y-004369D01*
X004688Y-004361D01*
X004703Y-004350D01*
X004706Y-004346D01*
X004719Y-004346D01*
X004719Y-004346D01*
X004735Y-004357D01*
X004745Y-004359D01*
Y-004372D01*
X004734Y-004374D01*
X004717Y-004386D01*
X004705Y-004403D01*
X004701Y-004424D01*
X004705Y-004445D01*
X004717Y-004462D01*
X004734Y-004474D01*
X004755Y-004478D01*
X004795D01*
X004802Y-004491D01*
X004800Y-004493D01*
X004796Y-004514D01*
X004800Y-004535D01*
X004802Y-004538D01*
X004796Y-004549D01*
X004600D01*
X004588Y-004551D01*
X004578Y-004558D01*
X004576Y-004561D01*
X004563Y-004557D01*
Y-004426D01*
X004561Y-004408D01*
X004554Y-004391D01*
X004543Y-004376D01*
X004528Y-004365D01*
X004511Y-004357D01*
X004492Y-004355D01*
X004474Y-004357D01*
X004457Y-004365D01*
X004442Y-004376D01*
X004431Y-004391D01*
X004424Y-004408D01*
X004422Y-004426D01*
Y-004582D01*
X004424Y-004600D01*
X004431Y-004617D01*
X004442Y-004632D01*
X004457Y-004643D01*
X004474Y-004651D01*
X004492Y-004653D01*
X004511Y-004651D01*
X004528Y-004643D01*
X004543Y-004632D01*
X004554Y-004617D01*
X004556Y-004612D01*
X004569Y-004614D01*
Y-004770D01*
X004556Y-004772D01*
X004554Y-004767D01*
X004543Y-004752D01*
X004528Y-004741D01*
X004511Y-004733D01*
X004492Y-004731D01*
X004474Y-004733D01*
X004457Y-004741D01*
X004442Y-004752D01*
X004431Y-004767D01*
X004424Y-004784D01*
X004422Y-004802D01*
Y-004958D01*
X004424Y-004976D01*
X004431Y-004993D01*
X004442Y-005008D01*
X004457Y-005019D01*
X004474Y-005027D01*
X004492Y-005029D01*
X004511Y-005027D01*
X004528Y-005019D01*
X004543Y-005008D01*
X004554Y-004993D01*
X004556Y-004988D01*
X004569Y-004990D01*
Y-005079D01*
X001431D01*
Y-005000D01*
X001444Y-004998D01*
X001446Y-005003D01*
X001457Y-005018D01*
X001472Y-005029D01*
X001489Y-005037D01*
X001507Y-005039D01*
X001526Y-005037D01*
X001543Y-005029D01*
X001558Y-005018D01*
X001569Y-005003D01*
X001576Y-004986D01*
X001578Y-004968D01*
Y-004812D01*
X001576Y-004794D01*
X001569Y-004777D01*
X001558Y-004762D01*
X001543Y-004751D01*
X001526Y-004743D01*
X001507Y-004741D01*
X001489Y-004743D01*
X001472Y-004751D01*
X001457Y-004762D01*
X001446Y-004777D01*
X001444Y-004782D01*
X001431Y-004780D01*
Y-004614D01*
X001444Y-004612D01*
X001446Y-004617D01*
X001457Y-004632D01*
X001472Y-004643D01*
X001489Y-004651D01*
X001507Y-004653D01*
X001526Y-004651D01*
X001543Y-004643D01*
X001558Y-004632D01*
X001569Y-004617D01*
X001576Y-004600D01*
X001578Y-004582D01*
Y-004426D01*
X001576Y-004408D01*
X001569Y-004391D01*
X001558Y-004376D01*
X001543Y-004365D01*
X001526Y-004357D01*
X001507Y-004355D01*
X001489Y-004357D01*
X001472Y-004365D01*
X001457Y-004376D01*
X001446Y-004391D01*
X001439Y-004408D01*
X001437Y-004426D01*
Y-004557D01*
X001424Y-004561D01*
X001422Y-004558D01*
X001412Y-004551D01*
X001400Y-004549D01*
X001204D01*
X001198Y-004538D01*
X001200Y-004535D01*
X001204Y-004514D01*
X001200Y-004493D01*
X001198Y-004491D01*
X001205Y-004478D01*
X001245D01*
X001266Y-004474D01*
X001283Y-004462D01*
X001295Y-004445D01*
X001299Y-004424D01*
X001295Y-004403D01*
X001283Y-004386D01*
X001266Y-004374D01*
X001255Y-004372D01*
Y-004359D01*
X001265Y-004357D01*
X001281Y-004346D01*
X001281Y-004346D01*
X001294Y-004346D01*
X001297Y-004350D01*
X001312Y-004361D01*
X001329Y-004369D01*
X001348Y-004371D01*
X001366Y-004369D01*
X001383Y-004361D01*
X001398Y-004350D01*
X001409Y-004335D01*
X001416Y-004318D01*
X001418Y-004300D01*
Y-004240D01*
X001416Y-004222D01*
X001409Y-004205D01*
X001398Y-004190D01*
X001383Y-004179D01*
X001366Y-004171D01*
X001348Y-004169D01*
X001329Y-004171D01*
X001312Y-004179D01*
X001297Y-004190D01*
X001286Y-004205D01*
X001279Y-004222D01*
X001277Y-004240D01*
Y-004256D01*
X001266Y-004262D01*
X001264Y-004262D01*
X001245Y-004259D01*
X001225Y-004263D01*
X001209Y-004274D01*
X001198Y-004290D01*
X001194Y-004310D01*
X001198Y-004330D01*
X001209Y-004346D01*
X001225Y-004357D01*
X001226Y-004357D01*
X001224Y-004370D01*
X001195D01*
X001174Y-004374D01*
X001157Y-004386D01*
X001145Y-004403D01*
X001141Y-004424D01*
X001145Y-004445D01*
X001147Y-004448D01*
X001141Y-004462D01*
X001129Y-004464D01*
X001112Y-004476D01*
X001108D01*
X001091Y-004464D01*
X001083Y-004463D01*
X001077Y-004449D01*
X001080Y-004445D01*
X001084Y-004424D01*
X001080Y-004403D01*
X001068Y-004386D01*
X001051Y-004374D01*
X001030Y-004370D01*
X001009Y-004374D01*
X000992Y-004386D01*
X000991Y-004387D01*
X000979D01*
X000978Y-004386D01*
X000961Y-004374D01*
X000940Y-004370D01*
X000919Y-004374D01*
X000902Y-004386D01*
X000898D01*
X000881Y-004374D01*
X000860Y-004370D01*
X000839Y-004374D01*
X000822Y-004386D01*
X000810Y-004381D01*
X000793Y-004369D01*
X000783Y-004367D01*
Y-004424D01*
X000770D01*
Y-004437D01*
X000713D01*
X000715Y-004447D01*
X000719Y-004452D01*
X000714Y-004463D01*
X000709Y-004464D01*
X000700Y-004471D01*
X000690Y-004475D01*
X000680Y-004471D01*
X000671Y-004464D01*
X000659Y-004462D01*
X000653Y-004448D01*
X000655Y-004445D01*
X000659Y-004424D01*
X000655Y-004403D01*
X000643Y-004386D01*
X000626Y-004374D01*
X000605Y-004370D01*
X000576D01*
X000574Y-004357D01*
X000575Y-004357D01*
X000591Y-004346D01*
X000602Y-004330D01*
X000606Y-004310D01*
X000602Y-004290D01*
X000591Y-004274D01*
X000575Y-004263D01*
X000555Y-004259D01*
X000536Y-004262D01*
X000534Y-004262D01*
X000523Y-004256D01*
Y-004240D01*
X000521Y-004222D01*
X000514Y-004205D01*
X000503Y-004190D01*
X000488Y-004179D01*
X000471Y-004171D01*
X000453Y-004169D01*
X000434Y-004171D01*
X000417Y-004179D01*
X000402Y-004190D01*
X000391Y-004205D01*
X000384Y-004222D01*
X000382Y-004240D01*
Y-004300D01*
X000384Y-004318D01*
X000391Y-004335D01*
X000402Y-004350D01*
X000417Y-004361D01*
X000434Y-004369D01*
X000453Y-004371D01*
X000471Y-004369D01*
X000488Y-004361D01*
X000503Y-004350D01*
X000506Y-004346D01*
X000519Y-004346D01*
X000519Y-004346D01*
X000535Y-004357D01*
X000545Y-004359D01*
Y-004372D01*
X000534Y-004374D01*
X000517Y-004386D01*
X000505Y-004403D01*
X000501Y-004424D01*
X000505Y-004445D01*
X000517Y-004462D01*
X000534Y-004474D01*
X000555Y-004478D01*
X000595D01*
X000602Y-004491D01*
X000600Y-004493D01*
X000596Y-004514D01*
X000600Y-004535D01*
X000602Y-004538D01*
X000596Y-004549D01*
X000400D01*
X000388Y-004551D01*
X000378Y-004558D01*
X000376Y-004561D01*
X000363Y-004557D01*
Y-004426D01*
X000361Y-004408D01*
X000354Y-004391D01*
X000343Y-004376D01*
X000328Y-004365D01*
X000311Y-004357D01*
X000292Y-004355D01*
X000274Y-004357D01*
X000257Y-004365D01*
X000242Y-004376D01*
X000231Y-004391D01*
X000224Y-004408D01*
X000222Y-004426D01*
Y-004582D01*
X000224Y-004600D01*
X000231Y-004617D01*
X000242Y-004632D01*
X000257Y-004643D01*
X000274Y-004651D01*
X000292Y-004653D01*
X000311Y-004651D01*
X000328Y-004643D01*
X000343Y-004632D01*
X000354Y-004617D01*
X000356Y-004612D01*
X000369Y-004614D01*
Y-004770D01*
X000356Y-004772D01*
X000354Y-004767D01*
X000343Y-004752D01*
X000328Y-004741D01*
X000311Y-004733D01*
X000292Y-004731D01*
X000274Y-004733D01*
X000257Y-004741D01*
X000242Y-004752D01*
X000231Y-004767D01*
X000224Y-004784D01*
X000222Y-004802D01*
Y-004958D01*
X000224Y-004976D01*
X000231Y-004993D01*
X000242Y-005008D01*
X000257Y-005019D01*
X000274Y-005027D01*
X000292Y-005029D01*
X000311Y-005027D01*
X000328Y-005019D01*
X000343Y-005008D01*
X000354Y-004993D01*
X000356Y-004988D01*
X000369Y-004990D01*
Y-005079D01*
X000031D01*
Y-003610D01*
X000044Y-003609D01*
X000047Y-003624D01*
X000056Y-003639D01*
X000071Y-003648D01*
X000088Y-003652D01*
X000104Y-003648D01*
X000119Y-003639D01*
X000128Y-003624D01*
X000132Y-003608D01*
X000128Y-003591D01*
X000119Y-003576D01*
X000104Y-003567D01*
X000088Y-003563D01*
X000071Y-003567D01*
X000056Y-003576D01*
X000047Y-003591D01*
X000044Y-003606D01*
X000031Y-003605D01*
Y-002740D01*
X000044Y-002739D01*
X000047Y-002754D01*
X000056Y-002769D01*
X000071Y-002778D01*
X000088Y-002782D01*
X000104Y-002778D01*
X000119Y-002769D01*
X000128Y-002754D01*
X000132Y-002738D01*
X000128Y-002721D01*
X000119Y-002706D01*
X000104Y-002697D01*
X000088Y-002693D01*
X000071Y-002697D01*
X000056Y-002706D01*
X000047Y-002721D01*
X000044Y-002736D01*
X000031Y-002735D01*
Y-002260D01*
X000029Y-002248D01*
X000022Y-002238D01*
X000012Y-002231D01*
X-000000Y-002229D01*
X-000379D01*
Y-002211D01*
X-000366Y-002204D01*
X-000357Y-002211D01*
X-000340Y-002214D01*
X-000323Y-002211D01*
X-000310Y-002202D01*
X-000297Y-002211D01*
X-000280Y-002214D01*
X-000263Y-002211D01*
X-000250Y-002202D01*
X-000237Y-002211D01*
X-000220Y-002214D01*
X-000203Y-002211D01*
X-000190Y-002202D01*
X-000177Y-002211D01*
X-000160Y-002214D01*
X-000143Y-002211D01*
X-000130Y-002202D01*
X-000117Y-002211D01*
X-000100Y-002214D01*
X-000083Y-002211D01*
X-000070Y-002202D01*
X-000057Y-002211D01*
X-000040Y-002214D01*
X-000023Y-002211D01*
X-000010Y-002202D01*
X000003Y-002211D01*
X000020Y-002214D01*
X000037Y-002211D01*
X000051Y-002201D01*
X000061Y-002187D01*
X000064Y-002170D01*
X000061Y-002153D01*
X000052Y-002140D01*
X000061Y-002127D01*
X000064Y-002110D01*
X000061Y-002093D01*
X000052Y-002080D01*
X000061Y-002067D01*
X000064Y-002050D01*
X000061Y-002033D01*
X000051Y-002019D01*
X000037Y-002009D01*
X000020Y-002006D01*
X000003Y-002009D01*
X-000010Y-002018D01*
X-000023Y-002009D01*
X-000040Y-002006D01*
X-000057Y-002009D01*
X-000070Y-002018D01*
X-000083Y-002009D01*
X-000100Y-002006D01*
X-000117Y-002009D01*
X-000130Y-002018D01*
X-000143Y-002009D01*
X-000160Y-002006D01*
X-000177Y-002009D01*
X-000190Y-002018D01*
X-000203Y-002009D01*
X-000220Y-002006D01*
X-000237Y-002009D01*
X-000250Y-002018D01*
X-000263Y-002009D01*
X-000280Y-002006D01*
X-000297Y-002009D01*
X-000310Y-002018D01*
X-000323Y-002009D01*
X-000340Y-002006D01*
X-000357Y-002009D01*
X-000366Y-002016D01*
X-000379Y-002009D01*
Y-001961D01*
X-000366Y-001954D01*
X-000357Y-001961D01*
X-000340Y-001964D01*
X-000323Y-001961D01*
X-000310Y-001952D01*
X-000297Y-001961D01*
X-000280Y-001964D01*
X-000263Y-001961D01*
X-000250Y-001952D01*
X-000237Y-001961D01*
X-000220Y-001964D01*
X-000203Y-001961D01*
X-000190Y-001952D01*
X-000177Y-001961D01*
X-000160Y-001964D01*
X-000143Y-001961D01*
X-000130Y-001952D01*
X-000117Y-001961D01*
X-000100Y-001964D01*
X-000083Y-001961D01*
X-000070Y-001952D01*
X-000057Y-001961D01*
X-000040Y-001964D01*
X-000023Y-001961D01*
X-000010Y-001952D01*
X000003Y-001961D01*
X000020Y-001964D01*
X000037Y-001961D01*
X000051Y-001951D01*
X000061Y-001937D01*
X000064Y-001920D01*
X000061Y-001903D01*
X000052Y-001890D01*
X000061Y-001877D01*
X000064Y-001860D01*
X000061Y-001843D01*
X000052Y-001830D01*
X000061Y-001817D01*
X000064Y-001800D01*
X000061Y-001783D01*
X000051Y-001769D01*
X000037Y-001759D01*
X000020Y-001756D01*
X000003Y-001759D01*
X-000010Y-001768D01*
X-000023Y-001759D01*
X-000040Y-001756D01*
X-000057Y-001759D01*
X-000070Y-001768D01*
X-000083Y-001759D01*
X-000100Y-001756D01*
X-000117Y-001759D01*
X-000130Y-001768D01*
X-000143Y-001759D01*
X-000160Y-001756D01*
X-000177Y-001759D01*
X-000190Y-001768D01*
X-000203Y-001759D01*
X-000220Y-001756D01*
X-000237Y-001759D01*
X-000250Y-001768D01*
X-000263Y-001759D01*
X-000280Y-001756D01*
X-000297Y-001759D01*
X-000310Y-001768D01*
X-000323Y-001759D01*
X-000340Y-001756D01*
X-000357Y-001759D01*
X-000366Y-001766D01*
X-000379Y-001759D01*
Y-001711D01*
X-000366Y-001704D01*
X-000357Y-001711D01*
X-000340Y-001714D01*
X-000323Y-001711D01*
X-000310Y-001702D01*
X-000297Y-001711D01*
X-000280Y-001714D01*
X-000263Y-001711D01*
X-000250Y-001702D01*
X-000237Y-001711D01*
X-000220Y-001714D01*
X-000203Y-001711D01*
X-000190Y-001702D01*
X-000177Y-001711D01*
X-000160Y-001714D01*
X-000143Y-001711D01*
X-000130Y-001702D01*
X-000117Y-001711D01*
X-000100Y-001714D01*
X-000083Y-001711D01*
X-000070Y-001702D01*
X-000057Y-001711D01*
X-000040Y-001714D01*
X-000023Y-001711D01*
X-000010Y-001702D01*
X000003Y-001711D01*
X000020Y-001714D01*
X000037Y-001711D01*
X000051Y-001701D01*
X000061Y-001687D01*
X000064Y-001670D01*
X000061Y-001653D01*
X000052Y-001640D01*
X000061Y-001627D01*
X000064Y-001610D01*
X000061Y-001593D01*
X000052Y-001580D01*
X000061Y-001567D01*
X000064Y-001550D01*
X000061Y-001533D01*
X000051Y-001519D01*
X000037Y-001509D01*
X000020Y-001506D01*
X000003Y-001509D01*
X-000010Y-001518D01*
X-000023Y-001509D01*
X-000040Y-001506D01*
X-000057Y-001509D01*
X-000070Y-001518D01*
X-000083Y-001509D01*
X-000100Y-001506D01*
X-000117Y-001509D01*
X-000130Y-001518D01*
X-000143Y-001509D01*
X-000160Y-001506D01*
X-000177Y-001509D01*
X-000190Y-001518D01*
X-000203Y-001509D01*
X-000220Y-001506D01*
X-000237Y-001509D01*
X-000250Y-001518D01*
X-000263Y-001509D01*
X-000280Y-001506D01*
X-000297Y-001509D01*
X-000310Y-001518D01*
X-000323Y-001509D01*
X-000340Y-001506D01*
X-000357Y-001509D01*
X-000366Y-001516D01*
X-000379Y-001509D01*
Y-001241D01*
X-000000D01*
X000012Y-001239D01*
X000022Y-001232D01*
X000029Y-001222D01*
X000031Y-001210D01*
Y-000640D01*
X000044Y-000639D01*
X000047Y-000654D01*
X000056Y-000669D01*
X000071Y-000678D01*
X000088Y-000682D01*
X000104Y-000678D01*
X000119Y-000669D01*
X000128Y-000654D01*
X000132Y-000638D01*
X000128Y-000621D01*
X000119Y-000606D01*
X000104Y-000597D01*
X000088Y-000593D01*
X000071Y-000597D01*
X000056Y-000606D01*
X000047Y-000621D01*
X000044Y-000636D01*
X000031Y-000635D01*
Y-000031D01*
X000477D01*
X000481Y-000044D01*
X000473Y-000055D01*
X000466Y-000070D01*
X000464Y-000088D01*
Y-000158D01*
X000466Y-000175D01*
X000473Y-000190D01*
X000483Y-000204D01*
X000497Y-000215D01*
X000513Y-000221D01*
X000530Y-000223D01*
X000547Y-000221D01*
X000563Y-000215D01*
X000577Y-000204D01*
X000587Y-000190D01*
X000594Y-000175D01*
X000596Y-000158D01*
Y-000088D01*
X000594Y-000070D01*
X000587Y-000055D01*
X000579Y-000044D01*
X000583Y-000031D01*
X001137D01*
X001141Y-000044D01*
X001133Y-000055D01*
X001126Y-000070D01*
X001124Y-000088D01*
Y-000158D01*
X001126Y-000175D01*
X001133Y-000190D01*
X001143Y-000204D01*
X001157Y-000215D01*
X001173Y-000221D01*
X001190Y-000223D01*
X001207Y-000221D01*
X001223Y-000215D01*
X001237Y-000204D01*
X001247Y-000190D01*
X001254Y-000175D01*
X001256Y-000158D01*
Y-000088D01*
X001254Y-000070D01*
X001247Y-000055D01*
X001239Y-000044D01*
X001243Y-000031D01*
X001579D01*
X001583Y-000042D01*
X001583Y-000044D01*
X001573Y-000057D01*
X001566Y-000073D01*
X001564Y-000090D01*
Y-000160D01*
X001566Y-000177D01*
X001573Y-000193D01*
X001583Y-000207D01*
X001597Y-000217D01*
X001613Y-000224D01*
X001630Y-000226D01*
X001647Y-000224D01*
X001663Y-000217D01*
X001677Y-000207D01*
X001687Y-000193D01*
X001694Y-000177D01*
X001696Y-000160D01*
Y-000090D01*
X001694Y-000073D01*
X001687Y-000057D01*
X001677Y-000044D01*
X001677Y-000042D01*
X001681Y-000031D01*
X002239D01*
X002243Y-000042D01*
X002243Y-000044D01*
X002233Y-000057D01*
X002226Y-000073D01*
X002224Y-000090D01*
Y-000160D01*
X002226Y-000177D01*
X002233Y-000193D01*
X002243Y-000207D01*
X002257Y-000217D01*
X002273Y-000224D01*
X002290Y-000226D01*
X002307Y-000224D01*
X002323Y-000217D01*
X002337Y-000207D01*
X002347Y-000193D01*
X002354Y-000177D01*
X002356Y-000160D01*
Y-000090D01*
X002354Y-000073D01*
X002347Y-000057D01*
X002337Y-000044D01*
X002337Y-000042D01*
X002341Y-000031D01*
X005728D01*
X005730Y-000040D01*
D02*
G37*
G36*
X005969Y-000800D02*
Y-002293D01*
X005958Y-002299D01*
X005956Y-002299D01*
X005940Y-002296D01*
X005923Y-002299D01*
X005909Y-002309D01*
X005899Y-002323D01*
X005896Y-002340D01*
X005899Y-002357D01*
X005909Y-002371D01*
X005923Y-002381D01*
X005940Y-002384D01*
X005956Y-002381D01*
X005958Y-002381D01*
X005969Y-002387D01*
Y-002443D01*
X005958Y-002449D01*
X005956Y-002449D01*
X005940Y-002446D01*
X005923Y-002449D01*
X005909Y-002459D01*
X005899Y-002473D01*
X005896Y-002490D01*
X005899Y-002507D01*
X005909Y-002521D01*
X005923Y-002531D01*
X005940Y-002534D01*
X005956Y-002531D01*
X005958Y-002531D01*
X005969Y-002537D01*
Y-002593D01*
X005958Y-002599D01*
X005956Y-002599D01*
X005940Y-002596D01*
X005923Y-002599D01*
X005909Y-002609D01*
X005899Y-002623D01*
X005896Y-002640D01*
X005899Y-002657D01*
X005909Y-002671D01*
X005923Y-002681D01*
X005940Y-002684D01*
X005956Y-002681D01*
X005958Y-002681D01*
X005969Y-002687D01*
Y-002743D01*
X005958Y-002749D01*
X005956Y-002749D01*
X005940Y-002746D01*
X005923Y-002749D01*
X005909Y-002759D01*
X005899Y-002773D01*
X005896Y-002790D01*
X005899Y-002807D01*
X005909Y-002821D01*
X005923Y-002831D01*
X005940Y-002834D01*
X005956Y-002831D01*
X005958Y-002831D01*
X005969Y-002837D01*
Y-002893D01*
X005958Y-002899D01*
X005956Y-002899D01*
X005940Y-002896D01*
X005923Y-002899D01*
X005909Y-002909D01*
X005899Y-002923D01*
X005896Y-002940D01*
X005899Y-002957D01*
X005909Y-002971D01*
X005923Y-002981D01*
X005940Y-002984D01*
X005956Y-002981D01*
X005958Y-002981D01*
X005969Y-002987D01*
Y-003043D01*
X005958Y-003049D01*
X005956Y-003049D01*
X005940Y-003046D01*
X005923Y-003049D01*
X005909Y-003059D01*
X005899Y-003073D01*
X005896Y-003090D01*
X005899Y-003107D01*
X005909Y-003121D01*
X005923Y-003131D01*
X005940Y-003134D01*
X005956Y-003131D01*
X005958Y-003131D01*
X005969Y-003137D01*
Y-003259D01*
X005425Y-003259D01*
X005419Y-003247D01*
X005426Y-003237D01*
X005429Y-003220D01*
X005426Y-003203D01*
X005416Y-003189D01*
X005402Y-003179D01*
X005385Y-003176D01*
X005368Y-003179D01*
X005354Y-003189D01*
X005344Y-003203D01*
X005341Y-003220D01*
X005344Y-003237D01*
X005351Y-003247D01*
X005345Y-003259D01*
X004930D01*
X004926Y-003260D01*
X004910D01*
Y-003276D01*
X004909Y-003280D01*
X004909Y-003819D01*
X004855D01*
X004852Y-003820D01*
X004851Y-003820D01*
X004746D01*
X004742Y-003807D01*
X004751Y-003801D01*
X004761Y-003787D01*
X004764Y-003770D01*
X004761Y-003753D01*
X004751Y-003739D01*
X004737Y-003729D01*
X004723Y-003726D01*
Y-003714D01*
X004737Y-003711D01*
X004751Y-003701D01*
X004761Y-003687D01*
X004764Y-003670D01*
X004761Y-003653D01*
X004751Y-003639D01*
X004737Y-003629D01*
X004723Y-003626D01*
Y-003614D01*
X004737Y-003611D01*
X004751Y-003601D01*
X004761Y-003587D01*
X004764Y-003570D01*
X004761Y-003553D01*
X004751Y-003539D01*
X004737Y-003529D01*
X004723Y-003526D01*
Y-003514D01*
X004737Y-003511D01*
X004751Y-003501D01*
X004761Y-003487D01*
X004764Y-003470D01*
X004761Y-003453D01*
X004751Y-003439D01*
X004737Y-003429D01*
X004720Y-003426D01*
X004703Y-003429D01*
X004689Y-003439D01*
X004679Y-003453D01*
X004676Y-003470D01*
X004679Y-003487D01*
X004689Y-003501D01*
X004703Y-003511D01*
X004717Y-003514D01*
Y-003526D01*
X004703Y-003529D01*
X004689Y-003539D01*
X004679Y-003553D01*
X004676Y-003570D01*
X004679Y-003587D01*
X004689Y-003601D01*
X004703Y-003611D01*
X004717Y-003614D01*
Y-003626D01*
X004703Y-003629D01*
X004689Y-003639D01*
X004679Y-003653D01*
X004676Y-003670D01*
X004679Y-003687D01*
X004689Y-003701D01*
X004703Y-003711D01*
X004717Y-003714D01*
Y-003726D01*
X004703Y-003729D01*
X004689Y-003739D01*
X004679Y-003753D01*
X004676Y-003770D01*
X004679Y-003787D01*
X004689Y-003801D01*
X004698Y-003807D01*
X004694Y-003820D01*
X004689D01*
X004688Y-003820D01*
X004685Y-003819D01*
X003982D01*
X003982Y-003819D01*
X003981Y-003813D01*
X003971Y-003799D01*
X003957Y-003789D01*
X003940Y-003786D01*
X003923Y-003789D01*
X003909Y-003799D01*
X003899Y-003813D01*
X003898Y-003819D01*
X003898Y-003819D01*
X003869D01*
X003865Y-003820D01*
X003795D01*
X003791Y-003819D01*
X002749D01*
X002745Y-003820D01*
X002675D01*
X002671Y-003819D01*
X002449D01*
X002447Y-003819D01*
X002437Y-003805D01*
X002423Y-003795D01*
X002406Y-003792D01*
X002389Y-003795D01*
X002375Y-003805D01*
X002365Y-003819D01*
X002364Y-003826D01*
X002031Y-004159D01*
X001659D01*
X001420Y-003920D01*
X001409D01*
X001405Y-003919D01*
X001405Y-003919D01*
X001209Y-003919D01*
X001021Y-003731D01*
X001021Y-003029D01*
X001121Y-002929D01*
X001133Y-002927D01*
X001147Y-002917D01*
X001157Y-002903D01*
X001159Y-002891D01*
X001662Y-002388D01*
X001673Y-002393D01*
Y-002530D01*
X001677Y-002548D01*
X001687Y-002563D01*
X001702Y-002573D01*
X001720Y-002577D01*
X001738Y-002573D01*
X001753Y-002563D01*
X001763Y-002548D01*
X001767Y-002530D01*
Y-002405D01*
X001779Y-002402D01*
X001783Y-002409D01*
X001804Y-002434D01*
X001829Y-002455D01*
X001858Y-002470D01*
X001889Y-002480D01*
X001921Y-002483D01*
X001953Y-002480D01*
X001984Y-002470D01*
X002013Y-002455D01*
X002038Y-002434D01*
X002059Y-002409D01*
X002074Y-002380D01*
X002084Y-002349D01*
X002087Y-002317D01*
X002084Y-002285D01*
X002074Y-002254D01*
X002059Y-002225D01*
X002038Y-002200D01*
X002013Y-002179D01*
X001984Y-002164D01*
X001953Y-002154D01*
X001921Y-002151D01*
X001889Y-002154D01*
X001874Y-002159D01*
X001866Y-002148D01*
X001873Y-002138D01*
X001877Y-002120D01*
Y-001875D01*
X001889Y-001868D01*
X001893Y-001871D01*
X001910Y-001874D01*
X001927Y-001871D01*
X001941Y-001861D01*
X001951Y-001847D01*
X001954Y-001830D01*
X001951Y-001813D01*
X001941Y-001799D01*
X001927Y-001789D01*
X001910Y-001786D01*
X001893Y-001789D01*
X001889Y-001792D01*
X001877Y-001785D01*
Y-001539D01*
X002264Y-001152D01*
X002277Y-001157D01*
X002279Y-001167D01*
X002289Y-001181D01*
X002303Y-001191D01*
X002320Y-001194D01*
X002337Y-001191D01*
X002351Y-001181D01*
X002361Y-001167D01*
X002364Y-001150D01*
X002361Y-001133D01*
X002351Y-001119D01*
X002337Y-001109D01*
X002327Y-001107D01*
X002322Y-001094D01*
X002498Y-000918D01*
X002512Y-000921D01*
X002519Y-000931D01*
X002533Y-000941D01*
X002550Y-000944D01*
X002567Y-000941D01*
X002581Y-000931D01*
X002591Y-000917D01*
X002594Y-000900D01*
X002591Y-000883D01*
X002581Y-000869D01*
X002571Y-000862D01*
X002568Y-000848D01*
X002589Y-000827D01*
X002700D01*
X002718Y-000823D01*
X002733Y-000813D01*
X002742Y-000800D01*
X005969Y-000800D01*
D02*
G37*
%LPC*%
G36*
X004350Y-000096D02*
X004333Y-000099D01*
X004319Y-000109D01*
X004309Y-000123D01*
X004306Y-000140D01*
X004309Y-000157D01*
X004319Y-000171D01*
X004333Y-000181D01*
X004350Y-000184D01*
X004367Y-000181D01*
X004381Y-000171D01*
X004391Y-000157D01*
X004394Y-000140D01*
X004391Y-000123D01*
X004381Y-000109D01*
X004367Y-000099D01*
X004350Y-000096D01*
D02*
G37*
G36*
X002990Y-000186D02*
X002973Y-000189D01*
X002959Y-000199D01*
X002949Y-000213D01*
X002936Y-000217D01*
X002930Y-000216D01*
X002913Y-000219D01*
X002899Y-000229D01*
X002889Y-000243D01*
X002887Y-000257D01*
X002880Y-000256D01*
X002863Y-000259D01*
X002850Y-000268D01*
X002837Y-000259D01*
X002820Y-000256D01*
X002813Y-000257D01*
X002811Y-000243D01*
X002801Y-000229D01*
X002787Y-000219D01*
X002770Y-000216D01*
X002764Y-000217D01*
X002751Y-000213D01*
X002741Y-000199D01*
X002727Y-000189D01*
X002710Y-000186D01*
X002693Y-000189D01*
X002679Y-000199D01*
X002669Y-000213D01*
X002666Y-000230D01*
X002669Y-000244D01*
X002669Y-000247D01*
X002661Y-000258D01*
X002653Y-000259D01*
X002639Y-000269D01*
X002629Y-000283D01*
X002626Y-000300D01*
X002629Y-000317D01*
X002639Y-000331D01*
X002653Y-000341D01*
X002670Y-000344D01*
X002687Y-000341D01*
X002701Y-000331D01*
X002711Y-000317D01*
X002714Y-000300D01*
X002711Y-000286D01*
X002711Y-000283D01*
X002717Y-000276D01*
X002730Y-000278D01*
X002739Y-000291D01*
X002753Y-000301D01*
X002770Y-000304D01*
X002777Y-000303D01*
X002779Y-000317D01*
X002789Y-000331D01*
X002803Y-000341D01*
X002820Y-000344D01*
X002837Y-000341D01*
X002850Y-000332D01*
X002863Y-000341D01*
X002880Y-000344D01*
X002897Y-000341D01*
X002911Y-000331D01*
X002921Y-000317D01*
X002923Y-000303D01*
X002930Y-000304D01*
X002947Y-000301D01*
X002961Y-000291D01*
X002971Y-000277D01*
X002984Y-000273D01*
X002990Y-000274D01*
X003007Y-000271D01*
X003021Y-000261D01*
X003031Y-000247D01*
X003034Y-000230D01*
X003031Y-000213D01*
X003021Y-000199D01*
X003007Y-000189D01*
X002990Y-000186D01*
D02*
G37*
G36*
X005430Y-000146D02*
X005413Y-000149D01*
X005399Y-000159D01*
X005389Y-000173D01*
X005386Y-000190D01*
X005389Y-000207D01*
X005399Y-000221D01*
X005413Y-000231D01*
X005430Y-000234D01*
X005447Y-000231D01*
X005461Y-000221D01*
X005471Y-000207D01*
X005474Y-000190D01*
X005471Y-000173D01*
X005461Y-000159D01*
X005447Y-000149D01*
X005430Y-000146D01*
D02*
G37*
G36*
X004060Y-000186D02*
X004043Y-000189D01*
X004029Y-000199D01*
X004019Y-000213D01*
X004016Y-000230D01*
X004019Y-000247D01*
X004029Y-000261D01*
X004043Y-000271D01*
X004060Y-000274D01*
X004077Y-000271D01*
X004091Y-000261D01*
X004101Y-000247D01*
X004104Y-000230D01*
X004101Y-000213D01*
X004091Y-000199D01*
X004077Y-000189D01*
X004060Y-000186D01*
D02*
G37*
G36*
X002590D02*
X002573Y-000189D01*
X002559Y-000199D01*
X002549Y-000213D01*
X002546Y-000230D01*
X002549Y-000247D01*
X002559Y-000261D01*
X002573Y-000271D01*
X002590Y-000274D01*
X002607Y-000271D01*
X002621Y-000261D01*
X002631Y-000247D01*
X002634Y-000230D01*
X002631Y-000213D01*
X002621Y-000199D01*
X002607Y-000189D01*
X002590Y-000186D01*
D02*
G37*
G36*
X000990Y-000246D02*
X000973Y-000249D01*
X000959Y-000259D01*
X000949Y-000273D01*
X000946Y-000290D01*
X000949Y-000307D01*
X000959Y-000321D01*
X000973Y-000331D01*
X000990Y-000334D01*
X001007Y-000331D01*
X001021Y-000321D01*
X001031Y-000307D01*
X001034Y-000290D01*
X001031Y-000273D01*
X001021Y-000259D01*
X001007Y-000249D01*
X000990Y-000246D01*
D02*
G37*
G36*
X003670Y-000186D02*
X003653Y-000189D01*
X003639Y-000199D01*
X003629Y-000213D01*
X003626Y-000230D01*
X003629Y-000247D01*
X003639Y-000261D01*
Y-000269D01*
X003629Y-000283D01*
X003626Y-000300D01*
X003629Y-000317D01*
X003639Y-000331D01*
X003653Y-000341D01*
X003670Y-000344D01*
X003687Y-000341D01*
X003701Y-000331D01*
X003704Y-000327D01*
X003716D01*
X003719Y-000331D01*
X003733Y-000341D01*
X003750Y-000344D01*
X003767Y-000341D01*
X003781Y-000331D01*
X003791Y-000317D01*
X003794Y-000300D01*
X003791Y-000283D01*
X003781Y-000269D01*
X003767Y-000259D01*
X003750Y-000256D01*
X003733Y-000259D01*
X003719Y-000269D01*
X003716Y-000273D01*
X003704D01*
X003701Y-000261D01*
X003711Y-000247D01*
X003714Y-000230D01*
X003711Y-000213D01*
X003701Y-000199D01*
X003687Y-000189D01*
X003670Y-000186D01*
D02*
G37*
G36*
X003390D02*
X003373Y-000189D01*
X003359Y-000199D01*
X003349Y-000213D01*
X003346Y-000230D01*
X003349Y-000247D01*
X003359Y-000261D01*
Y-000269D01*
X003349Y-000283D01*
X003346Y-000300D01*
X003349Y-000317D01*
X003359Y-000331D01*
X003373Y-000341D01*
X003390Y-000344D01*
X003407Y-000341D01*
X003421Y-000331D01*
X003424Y-000327D01*
X003436D01*
X003439Y-000331D01*
X003453Y-000341D01*
X003470Y-000344D01*
X003487Y-000341D01*
X003501Y-000331D01*
X003504Y-000327D01*
X003516D01*
X003519Y-000331D01*
X003533Y-000341D01*
X003550Y-000344D01*
X003567Y-000341D01*
X003581Y-000331D01*
X003591Y-000317D01*
X003594Y-000300D01*
X003591Y-000283D01*
X003581Y-000269D01*
X003567Y-000259D01*
X003550Y-000256D01*
X003533Y-000259D01*
X003519Y-000269D01*
X003516Y-000273D01*
X003504D01*
X003501Y-000269D01*
X003487Y-000259D01*
X003470Y-000256D01*
X003453Y-000259D01*
X003439Y-000269D01*
X003437Y-000272D01*
X003425Y-000271D01*
X003421Y-000261D01*
X003431Y-000247D01*
X003434Y-000230D01*
X003431Y-000213D01*
X003421Y-000199D01*
X003407Y-000189D01*
X003390Y-000186D01*
D02*
G37*
G36*
X003070Y-000256D02*
X003053Y-000259D01*
X003039Y-000269D01*
X003029Y-000283D01*
X003026Y-000300D01*
X003029Y-000317D01*
X003039Y-000331D01*
X003053Y-000341D01*
X003070Y-000344D01*
X003087Y-000341D01*
X003101Y-000331D01*
X003111Y-000317D01*
X003114Y-000300D01*
X003111Y-000283D01*
X003101Y-000269D01*
X003087Y-000259D01*
X003070Y-000256D01*
D02*
G37*
G36*
X001050Y-000326D02*
X001033Y-000329D01*
X001019Y-000339D01*
X001009Y-000353D01*
X001006Y-000370D01*
X001009Y-000387D01*
X001019Y-000401D01*
X001033Y-000411D01*
X001050Y-000414D01*
X001067Y-000411D01*
X001081Y-000401D01*
X001091Y-000387D01*
X001094Y-000370D01*
X001091Y-000353D01*
X001081Y-000339D01*
X001067Y-000329D01*
X001050Y-000326D01*
D02*
G37*
G36*
X000860Y-000446D02*
X000843Y-000449D01*
X000829Y-000459D01*
X000826Y-000464D01*
X000812Y-000454D01*
X000795Y-000451D01*
X000778Y-000454D01*
X000764Y-000464D01*
X000758Y-000472D01*
X000744Y-000472D01*
X000741Y-000469D01*
X000727Y-000459D01*
X000710Y-000456D01*
X000693Y-000459D01*
X000679Y-000469D01*
X000676Y-000473D01*
X000664D01*
X000661Y-000469D01*
X000647Y-000459D01*
X000630Y-000456D01*
X000613Y-000459D01*
X000599Y-000469D01*
X000596Y-000473D01*
X000584D01*
X000581Y-000469D01*
X000567Y-000459D01*
X000550Y-000456D01*
X000533Y-000459D01*
X000519Y-000469D01*
X000509Y-000483D01*
X000506Y-000500D01*
X000509Y-000517D01*
X000519Y-000531D01*
X000533Y-000541D01*
X000550Y-000544D01*
X000567Y-000541D01*
X000581Y-000531D01*
X000584Y-000527D01*
X000596D01*
X000599Y-000531D01*
X000613Y-000541D01*
X000630Y-000544D01*
X000647Y-000541D01*
X000661Y-000531D01*
X000664Y-000527D01*
X000676D01*
X000679Y-000531D01*
X000693Y-000541D01*
X000710Y-000544D01*
X000727Y-000541D01*
X000741Y-000531D01*
X000747Y-000523D01*
X000761Y-000523D01*
X000764Y-000526D01*
X000778Y-000536D01*
X000795Y-000539D01*
X000812Y-000536D01*
X000826Y-000526D01*
X000829Y-000521D01*
X000843Y-000531D01*
X000860Y-000534D01*
X000877Y-000531D01*
X000891Y-000521D01*
X000894Y-000526D01*
X000908Y-000536D01*
X000925Y-000539D01*
X000942Y-000536D01*
X000956Y-000526D01*
X000966Y-000512D01*
X000969Y-000495D01*
X000966Y-000478D01*
X000956Y-000464D01*
X000942Y-000454D01*
X000925Y-000451D01*
X000908Y-000454D01*
X000894Y-000464D01*
X000891Y-000459D01*
X000877Y-000449D01*
X000860Y-000446D01*
D02*
G37*
G36*
X003510Y-000466D02*
X003493Y-000469D01*
X003479Y-000479D01*
X003476Y-000483D01*
X003464D01*
X003461Y-000479D01*
X003447Y-000469D01*
X003430Y-000466D01*
X003413Y-000469D01*
X003399Y-000479D01*
X003389Y-000493D01*
X003386Y-000510D01*
X003389Y-000527D01*
X003399Y-000541D01*
X003413Y-000551D01*
X003430Y-000554D01*
X003447Y-000551D01*
X003461Y-000541D01*
X003464Y-000537D01*
X003476D01*
X003479Y-000541D01*
X003493Y-000551D01*
X003510Y-000554D01*
X003527Y-000551D01*
X003541Y-000541D01*
X003551Y-000527D01*
X003554Y-000510D01*
X003551Y-000493D01*
X003541Y-000479D01*
X003527Y-000469D01*
X003510Y-000466D01*
D02*
G37*
G36*
X002530Y-000456D02*
X002513Y-000459D01*
X002499Y-000469D01*
X002489Y-000483D01*
X002488Y-000491D01*
X002477Y-000499D01*
X002474Y-000499D01*
X002460Y-000496D01*
X002443Y-000499D01*
X002429Y-000509D01*
X002419Y-000523D01*
X002416Y-000540D01*
X002419Y-000557D01*
X002429Y-000571D01*
X002443Y-000581D01*
X002460Y-000584D01*
X002477Y-000581D01*
X002491Y-000571D01*
X002501Y-000557D01*
X002502Y-000549D01*
X002513Y-000541D01*
X002516Y-000541D01*
X002530Y-000544D01*
X002547Y-000541D01*
X002561Y-000531D01*
X002571Y-000517D01*
X002574Y-000500D01*
X002571Y-000483D01*
X002561Y-000469D01*
X002547Y-000459D01*
X002530Y-000456D01*
D02*
G37*
G36*
X001060Y-000436D02*
X001043Y-000439D01*
X001029Y-000449D01*
X001019Y-000463D01*
X001016Y-000480D01*
X001019Y-000497D01*
X001029Y-000511D01*
X001043Y-000521D01*
X001060Y-000524D01*
X001077Y-000521D01*
X001091Y-000511D01*
X001101Y-000497D01*
X001104Y-000480D01*
X001101Y-000463D01*
X001091Y-000449D01*
X001077Y-000439D01*
X001060Y-000436D01*
D02*
G37*
G36*
X002320Y-000446D02*
X002303Y-000449D01*
X002289Y-000459D01*
X002279Y-000473D01*
X002276Y-000490D01*
X002279Y-000507D01*
X002289Y-000521D01*
X002303Y-000531D01*
X002320Y-000534D01*
X002337Y-000531D01*
X002351Y-000521D01*
X002361Y-000507D01*
X002364Y-000490D01*
X002361Y-000473D01*
X002351Y-000459D01*
X002337Y-000449D01*
X002320Y-000446D01*
D02*
G37*
G36*
X001160Y-000446D02*
X001143Y-000449D01*
X001129Y-000459D01*
X001119Y-000473D01*
X001116Y-000490D01*
X001119Y-000507D01*
X001129Y-000521D01*
X001143Y-000531D01*
X001160Y-000534D01*
X001177Y-000531D01*
X001191Y-000521D01*
X001201Y-000507D01*
X001204Y-000490D01*
X001201Y-000473D01*
X001191Y-000459D01*
X001177Y-000449D01*
X001160Y-000446D01*
D02*
G37*
G36*
X003870Y-000456D02*
X003853Y-000459D01*
X003839Y-000469D01*
X003829Y-000483D01*
X003826Y-000500D01*
X003829Y-000517D01*
X003839Y-000531D01*
X003853Y-000541D01*
X003870Y-000544D01*
X003887Y-000541D01*
X003901Y-000531D01*
X003911Y-000517D01*
X003914Y-000500D01*
X003911Y-000483D01*
X003901Y-000469D01*
X003887Y-000459D01*
X003870Y-000456D01*
D02*
G37*
G36*
X004090Y-000456D02*
X004073Y-000459D01*
X004059Y-000469D01*
X004049Y-000483D01*
X004046Y-000500D01*
X004049Y-000517D01*
X004059Y-000531D01*
X004073Y-000541D01*
X004090Y-000544D01*
X004107Y-000541D01*
X004121Y-000531D01*
X004131Y-000517D01*
X004134Y-000500D01*
X004131Y-000483D01*
X004121Y-000469D01*
X004107Y-000459D01*
X004090Y-000456D01*
D02*
G37*
G36*
X002850D02*
X002833Y-000459D01*
X002819Y-000469D01*
X002809Y-000483D01*
X002806Y-000500D01*
X002809Y-000517D01*
X002819Y-000531D01*
X002833Y-000541D01*
X002850Y-000544D01*
X002867Y-000541D01*
X002881Y-000531D01*
X002891Y-000517D01*
X002894Y-000500D01*
X002891Y-000483D01*
X002881Y-000469D01*
X002867Y-000459D01*
X002850Y-000456D01*
D02*
G37*
G36*
X002150Y-000466D02*
X002133Y-000469D01*
X002119Y-000479D01*
X002109Y-000493D01*
X002106Y-000510D01*
X002109Y-000527D01*
X002119Y-000541D01*
X002133Y-000551D01*
X002150Y-000554D01*
X002167Y-000551D01*
X002181Y-000541D01*
X002191Y-000527D01*
X002194Y-000510D01*
X002191Y-000493D01*
X002181Y-000479D01*
X002167Y-000469D01*
X002150Y-000466D01*
D02*
G37*
G36*
X000752Y-000594D02*
X000735Y-000597D01*
X000721Y-000607D01*
X000711Y-000621D01*
X000708Y-000638D01*
X000711Y-000655D01*
X000721Y-000669D01*
X000735Y-000679D01*
X000752Y-000682D01*
X000769Y-000679D01*
X000783Y-000669D01*
X000793Y-000655D01*
X000796Y-000638D01*
X000793Y-000621D01*
X000783Y-000607D01*
X000769Y-000597D01*
X000752Y-000594D01*
D02*
G37*
G36*
X001840Y-000596D02*
X001823Y-000599D01*
X001809Y-000609D01*
X001799Y-000623D01*
X001796Y-000640D01*
X001799Y-000657D01*
X001809Y-000671D01*
X001823Y-000681D01*
X001840Y-000684D01*
X001857Y-000681D01*
X001871Y-000671D01*
X001881Y-000657D01*
X001884Y-000640D01*
X001881Y-000623D01*
X001871Y-000609D01*
X001857Y-000599D01*
X001840Y-000596D01*
D02*
G37*
G36*
X001390Y-000686D02*
X001373Y-000689D01*
X001359Y-000699D01*
X001349Y-000713D01*
X001346Y-000730D01*
X001349Y-000747D01*
X001359Y-000761D01*
X001373Y-000771D01*
X001390Y-000774D01*
X001407Y-000771D01*
X001421Y-000761D01*
X001431Y-000747D01*
X001434Y-000730D01*
X001431Y-000713D01*
X001421Y-000699D01*
X001407Y-000689D01*
X001390Y-000686D01*
D02*
G37*
G36*
X001550Y-000696D02*
X001533Y-000699D01*
X001519Y-000709D01*
X001509Y-000723D01*
X001506Y-000740D01*
X001509Y-000757D01*
X001519Y-000771D01*
X001533Y-000781D01*
X001550Y-000784D01*
X001567Y-000781D01*
X001581Y-000771D01*
X001591Y-000757D01*
X001594Y-000740D01*
X001591Y-000723D01*
X001581Y-000709D01*
X001567Y-000699D01*
X001550Y-000696D01*
D02*
G37*
G36*
X002030Y-000736D02*
X002013Y-000739D01*
X001999Y-000749D01*
X001989Y-000763D01*
X001986Y-000780D01*
X001989Y-000797D01*
X001999Y-000811D01*
X002013Y-000821D01*
X002030Y-000824D01*
X002047Y-000821D01*
X002061Y-000811D01*
X002071Y-000797D01*
X002074Y-000780D01*
X002071Y-000763D01*
X002061Y-000749D01*
X002047Y-000739D01*
X002030Y-000736D01*
D02*
G37*
G36*
X002320Y-000776D02*
X002303Y-000779D01*
X002289Y-000789D01*
X002279Y-000803D01*
X002276Y-000820D01*
X002279Y-000837D01*
X002289Y-000851D01*
X002303Y-000861D01*
X002320Y-000864D01*
X002337Y-000861D01*
X002351Y-000851D01*
X002361Y-000837D01*
X002364Y-000820D01*
X002361Y-000803D01*
X002351Y-000789D01*
X002337Y-000779D01*
X002320Y-000776D01*
D02*
G37*
G36*
X001460Y-000786D02*
X001443Y-000789D01*
X001429Y-000799D01*
X001419Y-000813D01*
X001416Y-000830D01*
X001419Y-000847D01*
X001429Y-000861D01*
X001443Y-000871D01*
X001460Y-000874D01*
X001477Y-000871D01*
X001491Y-000861D01*
X001501Y-000847D01*
X001504Y-000830D01*
X001501Y-000813D01*
X001491Y-000799D01*
X001477Y-000789D01*
X001460Y-000786D01*
D02*
G37*
G36*
X000450Y-001006D02*
X000433Y-001009D01*
X000419Y-001019D01*
X000409Y-001033D01*
X000406Y-001050D01*
X000409Y-001067D01*
X000419Y-001081D01*
X000433Y-001091D01*
X000450Y-001094D01*
X000467Y-001091D01*
X000481Y-001081D01*
X000491Y-001067D01*
X000494Y-001050D01*
X000491Y-001033D01*
X000481Y-001019D01*
X000467Y-001009D01*
X000450Y-001006D01*
D02*
G37*
G36*
X001990Y-001106D02*
X001973Y-001109D01*
X001959Y-001119D01*
X001949Y-001133D01*
X001946Y-001150D01*
X001949Y-001167D01*
X001959Y-001181D01*
X001973Y-001191D01*
X001990Y-001194D01*
X002007Y-001191D01*
X002021Y-001181D01*
X002031Y-001167D01*
X002034Y-001150D01*
X002031Y-001133D01*
X002021Y-001119D01*
X002007Y-001109D01*
X001990Y-001106D01*
D02*
G37*
G36*
X001730D02*
X001713Y-001109D01*
X001699Y-001119D01*
X001689Y-001133D01*
X001686Y-001150D01*
X001689Y-001167D01*
X001699Y-001181D01*
X001713Y-001191D01*
X001730Y-001194D01*
X001747Y-001191D01*
X001761Y-001181D01*
X001771Y-001167D01*
X001774Y-001150D01*
X001771Y-001133D01*
X001761Y-001119D01*
X001747Y-001109D01*
X001730Y-001106D01*
D02*
G37*
G36*
X001570Y-001126D02*
X001553Y-001129D01*
X001539Y-001139D01*
X001529Y-001153D01*
X001526Y-001170D01*
X001529Y-001187D01*
X001539Y-001201D01*
X001553Y-001211D01*
X001570Y-001214D01*
X001587Y-001211D01*
X001601Y-001201D01*
X001611Y-001187D01*
X001614Y-001170D01*
X001611Y-001153D01*
X001601Y-001139D01*
X001587Y-001129D01*
X001570Y-001126D01*
D02*
G37*
G36*
X001360Y-001046D02*
X001343Y-001049D01*
X001329Y-001059D01*
X001319Y-001073D01*
X001316Y-001090D01*
X001319Y-001107D01*
X001329Y-001121D01*
X001341Y-001129D01*
X001343Y-001132D01*
X001345Y-001144D01*
X001339Y-001153D01*
X001336Y-001170D01*
X001339Y-001187D01*
X001349Y-001201D01*
X001363Y-001211D01*
X001380Y-001214D01*
X001397Y-001211D01*
X001411Y-001201D01*
X001421Y-001187D01*
X001424Y-001170D01*
X001421Y-001153D01*
X001411Y-001139D01*
X001399Y-001131D01*
X001397Y-001128D01*
X001395Y-001116D01*
X001401Y-001107D01*
X001404Y-001090D01*
X001401Y-001073D01*
X001391Y-001059D01*
X001377Y-001049D01*
X001360Y-001046D01*
D02*
G37*
G36*
X001100Y-001126D02*
X001083Y-001129D01*
X001069Y-001139D01*
X001059Y-001153D01*
X001056Y-001170D01*
X001059Y-001187D01*
X001069Y-001201D01*
X001083Y-001211D01*
X001100Y-001214D01*
X001117Y-001211D01*
X001131Y-001201D01*
X001141Y-001187D01*
X001144Y-001170D01*
X001141Y-001153D01*
X001131Y-001139D01*
X001117Y-001129D01*
X001100Y-001126D01*
D02*
G37*
G36*
X000900Y-001146D02*
X000883Y-001149D01*
X000869Y-001159D01*
X000859Y-001173D01*
X000856Y-001190D01*
X000859Y-001207D01*
X000869Y-001221D01*
X000883Y-001231D01*
X000900Y-001234D01*
X000917Y-001231D01*
X000931Y-001221D01*
X000941Y-001207D01*
X000944Y-001190D01*
X000941Y-001173D01*
X000931Y-001159D01*
X000917Y-001149D01*
X000900Y-001146D01*
D02*
G37*
G36*
X000770D02*
X000753Y-001149D01*
X000739Y-001159D01*
X000729Y-001173D01*
X000726Y-001190D01*
X000729Y-001207D01*
X000739Y-001221D01*
X000753Y-001231D01*
X000770Y-001234D01*
X000787Y-001231D01*
X000801Y-001221D01*
X000811Y-001207D01*
X000814Y-001190D01*
X000811Y-001173D01*
X000801Y-001159D01*
X000787Y-001149D01*
X000770Y-001146D01*
D02*
G37*
G36*
X001680Y-001286D02*
X001663Y-001289D01*
X001649Y-001299D01*
X001639Y-001313D01*
X001636Y-001330D01*
X001639Y-001347D01*
X001649Y-001361D01*
X001663Y-001371D01*
X001680Y-001374D01*
X001697Y-001371D01*
X001711Y-001361D01*
X001721Y-001347D01*
X001724Y-001330D01*
X001721Y-001313D01*
X001711Y-001299D01*
X001697Y-001289D01*
X001680Y-001286D01*
D02*
G37*
G36*
X001380D02*
X001363Y-001289D01*
X001349Y-001299D01*
X001339Y-001313D01*
X001336Y-001330D01*
X001339Y-001347D01*
X001349Y-001361D01*
X001363Y-001371D01*
X001380Y-001374D01*
X001397Y-001371D01*
X001411Y-001361D01*
X001421Y-001347D01*
X001424Y-001330D01*
X001421Y-001313D01*
X001411Y-001299D01*
X001397Y-001289D01*
X001380Y-001286D01*
D02*
G37*
G36*
X001487Y-001369D02*
X001470Y-001372D01*
X001456Y-001382D01*
X001446Y-001396D01*
X001443Y-001413D01*
X001446Y-001430D01*
X001456Y-001444D01*
X001470Y-001454D01*
X001487Y-001457D01*
X001504Y-001454D01*
X001518Y-001444D01*
X001528Y-001430D01*
X001531Y-001413D01*
X001528Y-001396D01*
X001518Y-001382D01*
X001504Y-001372D01*
X001487Y-001369D01*
D02*
G37*
G36*
X001100Y-001286D02*
X001083Y-001289D01*
X001069Y-001299D01*
X001059Y-001313D01*
X001056Y-001330D01*
X001059Y-001347D01*
X001069Y-001361D01*
X001078Y-001367D01*
X001079Y-001381D01*
X001079Y-001382D01*
X001075Y-001385D01*
X001065Y-001399D01*
X001062Y-001416D01*
X001065Y-001433D01*
X001075Y-001447D01*
X001089Y-001457D01*
X001106Y-001460D01*
X001123Y-001457D01*
X001137Y-001447D01*
X001147Y-001433D01*
X001150Y-001416D01*
X001147Y-001399D01*
X001137Y-001385D01*
X001128Y-001379D01*
X001127Y-001365D01*
X001127Y-001364D01*
X001131Y-001361D01*
X001141Y-001347D01*
X001144Y-001330D01*
X001141Y-001313D01*
X001131Y-001299D01*
X001117Y-001289D01*
X001100Y-001286D01*
D02*
G37*
G36*
X001620Y-001576D02*
X001603Y-001579D01*
X001589Y-001589D01*
X001579Y-001603D01*
X001576Y-001620D01*
X001579Y-001637D01*
X001589Y-001651D01*
X001603Y-001661D01*
X001620Y-001664D01*
X001637Y-001661D01*
X001651Y-001651D01*
X001661Y-001637D01*
X001664Y-001620D01*
X001661Y-001603D01*
X001651Y-001589D01*
X001637Y-001579D01*
X001620Y-001576D01*
D02*
G37*
G36*
X001420Y-002106D02*
X001403Y-002109D01*
X001389Y-002119D01*
X001379Y-002133D01*
X001376Y-002150D01*
X001379Y-002167D01*
X001389Y-002181D01*
X001403Y-002191D01*
X001420Y-002194D01*
X001437Y-002191D01*
X001451Y-002181D01*
X001461Y-002167D01*
X001464Y-002150D01*
X001461Y-002133D01*
X001451Y-002119D01*
X001437Y-002109D01*
X001420Y-002106D01*
D02*
G37*
G36*
X001170D02*
X001153Y-002109D01*
X001139Y-002119D01*
X001129Y-002133D01*
X001126Y-002150D01*
X001129Y-002167D01*
X001139Y-002181D01*
X001153Y-002191D01*
X001170Y-002194D01*
X001187Y-002191D01*
X001201Y-002181D01*
X001211Y-002167D01*
X001214Y-002150D01*
X001211Y-002133D01*
X001201Y-002119D01*
X001187Y-002109D01*
X001170Y-002106D01*
D02*
G37*
G36*
X000560Y-002176D02*
X000543Y-002179D01*
X000529Y-002189D01*
X000519Y-002203D01*
X000516Y-002220D01*
X000519Y-002237D01*
X000529Y-002251D01*
X000543Y-002261D01*
X000560Y-002264D01*
X000577Y-002261D01*
X000591Y-002251D01*
X000601Y-002237D01*
X000604Y-002220D01*
X000601Y-002203D01*
X000591Y-002189D01*
X000577Y-002179D01*
X000560Y-002176D01*
D02*
G37*
G36*
X001450Y-002316D02*
X001433Y-002319D01*
X001419Y-002329D01*
X001409Y-002343D01*
X001406Y-002360D01*
X001409Y-002377D01*
X001419Y-002391D01*
X001433Y-002401D01*
X001450Y-002404D01*
X001467Y-002401D01*
X001481Y-002391D01*
X001491Y-002377D01*
X001494Y-002360D01*
X001491Y-002343D01*
X001481Y-002329D01*
X001467Y-002319D01*
X001450Y-002316D01*
D02*
G37*
G36*
X001170D02*
X001153Y-002319D01*
X001139Y-002329D01*
X001129Y-002343D01*
X001126Y-002360D01*
X001129Y-002377D01*
X001139Y-002391D01*
X001153Y-002401D01*
X001170Y-002404D01*
X001187Y-002401D01*
X001201Y-002391D01*
X001211Y-002377D01*
X001214Y-002360D01*
X001211Y-002343D01*
X001201Y-002329D01*
X001187Y-002319D01*
X001170Y-002316D01*
D02*
G37*
G36*
X000560Y-002356D02*
X000543Y-002359D01*
X000529Y-002369D01*
X000519Y-002383D01*
X000516Y-002400D01*
X000519Y-002417D01*
X000529Y-002431D01*
X000543Y-002441D01*
X000560Y-002444D01*
X000577Y-002441D01*
X000591Y-002431D01*
X000601Y-002417D01*
X000604Y-002400D01*
X000601Y-002383D01*
X000591Y-002369D01*
X000577Y-002359D01*
X000560Y-002356D01*
D02*
G37*
G36*
X001110Y-002636D02*
X001093Y-002639D01*
X001079Y-002649D01*
X001069Y-002663D01*
X001066Y-002680D01*
X001069Y-002697D01*
X001079Y-002711D01*
X001093Y-002721D01*
X001110Y-002724D01*
X001127Y-002721D01*
X001141Y-002711D01*
X001151Y-002697D01*
X001154Y-002680D01*
X001151Y-002663D01*
X001141Y-002649D01*
X001127Y-002639D01*
X001110Y-002636D01*
D02*
G37*
G36*
X000990D02*
X000973Y-002639D01*
X000959Y-002649D01*
X000949Y-002663D01*
X000946Y-002680D01*
X000949Y-002697D01*
X000959Y-002711D01*
X000973Y-002721D01*
X000990Y-002724D01*
X001007Y-002721D01*
X001021Y-002711D01*
X001031Y-002697D01*
X001034Y-002680D01*
X001031Y-002663D01*
X001021Y-002649D01*
X001007Y-002639D01*
X000990Y-002636D01*
D02*
G37*
G36*
X000554Y-002842D02*
X000537Y-002845D01*
X000523Y-002855D01*
X000513Y-002869D01*
X000510Y-002886D01*
X000513Y-002903D01*
X000523Y-002917D01*
X000537Y-002927D01*
X000554Y-002930D01*
X000571Y-002927D01*
X000585Y-002917D01*
X000595Y-002903D01*
X000598Y-002886D01*
X000595Y-002869D01*
X000585Y-002855D01*
X000571Y-002845D01*
X000554Y-002842D01*
D02*
G37*
G36*
X005806Y-003400D02*
X005789Y-003403D01*
X005775Y-003413D01*
X005765Y-003427D01*
X005762Y-003444D01*
X005765Y-003461D01*
X005775Y-003475D01*
X005789Y-003485D01*
X005806Y-003488D01*
X005823Y-003485D01*
X005837Y-003475D01*
X005847Y-003461D01*
X005850Y-003444D01*
X005847Y-003427D01*
X005837Y-003413D01*
X005823Y-003403D01*
X005806Y-003400D01*
D02*
G37*
G36*
X005650Y-003506D02*
X005633Y-003509D01*
X005619Y-003519D01*
X005609Y-003533D01*
X005606Y-003550D01*
X005609Y-003567D01*
X005619Y-003581D01*
X005633Y-003591D01*
X005650Y-003594D01*
X005667Y-003591D01*
X005681Y-003581D01*
X005691Y-003567D01*
X005694Y-003550D01*
X005691Y-003533D01*
X005681Y-003519D01*
X005667Y-003509D01*
X005650Y-003506D01*
D02*
G37*
G36*
X005226Y-003530D02*
X005209Y-003533D01*
X005195Y-003543D01*
X005185Y-003557D01*
X005182Y-003574D01*
X005185Y-003591D01*
X005195Y-003605D01*
X005209Y-003615D01*
X005226Y-003618D01*
X005243Y-003615D01*
X005257Y-003605D01*
X005267Y-003591D01*
X005270Y-003574D01*
X005267Y-003557D01*
X005257Y-003543D01*
X005243Y-003533D01*
X005226Y-003530D01*
D02*
G37*
G36*
X005765Y-003651D02*
X005748Y-003654D01*
X005734Y-003664D01*
X005724Y-003678D01*
X005721Y-003695D01*
X005724Y-003712D01*
X005734Y-003726D01*
X005748Y-003736D01*
X005765Y-003739D01*
X005782Y-003736D01*
X005796Y-003726D01*
X005806Y-003712D01*
X005809Y-003695D01*
X005806Y-003678D01*
X005796Y-003664D01*
X005782Y-003654D01*
X005765Y-003651D01*
D02*
G37*
G36*
X000540Y-003706D02*
X000523Y-003709D01*
X000509Y-003719D01*
X000499Y-003733D01*
X000496Y-003750D01*
X000499Y-003767D01*
X000509Y-003781D01*
X000523Y-003791D01*
X000540Y-003794D01*
X000557Y-003791D01*
X000571Y-003781D01*
X000581Y-003767D01*
X000584Y-003750D01*
X000581Y-003733D01*
X000571Y-003719D01*
X000557Y-003709D01*
X000540Y-003706D01*
D02*
G37*
G36*
X000400Y-003716D02*
X000383Y-003719D01*
X000369Y-003729D01*
X000359Y-003743D01*
X000356Y-003760D01*
X000359Y-003777D01*
X000369Y-003791D01*
X000383Y-003801D01*
X000400Y-003804D01*
X000417Y-003801D01*
X000431Y-003791D01*
X000441Y-003777D01*
X000444Y-003760D01*
X000441Y-003743D01*
X000431Y-003729D01*
X000417Y-003719D01*
X000400Y-003716D01*
D02*
G37*
G36*
X005226Y-003750D02*
X005209Y-003753D01*
X005195Y-003763D01*
X005185Y-003777D01*
X005182Y-003794D01*
X005185Y-003811D01*
X005195Y-003825D01*
X005209Y-003835D01*
X005226Y-003838D01*
X005243Y-003835D01*
X005257Y-003825D01*
X005267Y-003811D01*
X005270Y-003794D01*
X005267Y-003777D01*
X005257Y-003763D01*
X005243Y-003753D01*
X005226Y-003750D01*
D02*
G37*
G36*
X005900Y-003886D02*
X005883Y-003889D01*
X005869Y-003899D01*
X005859Y-003913D01*
X005856Y-003930D01*
X005859Y-003945D01*
X005855Y-003952D01*
X005850Y-003956D01*
X005850Y-003956D01*
X005833Y-003960D01*
X005820Y-003969D01*
X005808Y-003961D01*
X005791Y-003957D01*
X005774Y-003961D01*
X005760Y-003970D01*
X005751Y-003984D01*
X005747Y-004001D01*
X005751Y-004018D01*
X005760Y-004032D01*
X005774Y-004042D01*
X005791Y-004045D01*
X005808Y-004042D01*
X005821Y-004033D01*
X005833Y-004041D01*
X005850Y-004044D01*
X005867Y-004041D01*
X005881Y-004031D01*
X005891Y-004017D01*
X005894Y-004000D01*
X005891Y-003985D01*
X005895Y-003979D01*
X005900Y-003974D01*
X005900Y-003974D01*
X005917Y-003971D01*
X005931Y-003961D01*
X005941Y-003947D01*
X005944Y-003930D01*
X005941Y-003913D01*
X005931Y-003899D01*
X005917Y-003889D01*
X005900Y-003886D01*
D02*
G37*
G36*
X003350Y-003946D02*
X003333Y-003949D01*
X003319Y-003959D01*
X003316Y-003963D01*
X003304D01*
X003301Y-003959D01*
X003287Y-003949D01*
X003270Y-003946D01*
X003253Y-003949D01*
X003239Y-003959D01*
X003229Y-003973D01*
X003226Y-003990D01*
X003229Y-004007D01*
X003239Y-004021D01*
X003253Y-004031D01*
X003270Y-004034D01*
X003287Y-004031D01*
X003301Y-004021D01*
X003304Y-004017D01*
X003316D01*
X003319Y-004021D01*
X003333Y-004031D01*
X003350Y-004034D01*
X003367Y-004031D01*
X003369Y-004035D01*
X003369Y-004037D01*
X003379Y-004051D01*
X003393Y-004061D01*
X003410Y-004064D01*
X003427Y-004061D01*
X003430Y-004058D01*
X003439Y-004071D01*
X003453Y-004081D01*
X003470Y-004084D01*
X003487Y-004081D01*
X003501Y-004071D01*
X003511Y-004057D01*
X003514Y-004040D01*
X003511Y-004023D01*
X003501Y-004009D01*
X003487Y-003999D01*
X003470Y-003996D01*
X003453Y-003999D01*
X003450Y-004002D01*
X003441Y-003989D01*
X003427Y-003979D01*
X003410Y-003976D01*
X003393Y-003979D01*
X003391Y-003975D01*
X003391Y-003973D01*
X003381Y-003959D01*
X003367Y-003949D01*
X003350Y-003946D01*
D02*
G37*
G36*
X002556Y-003880D02*
X002539Y-003883D01*
X002525Y-003893D01*
X002515Y-003907D01*
X002512Y-003924D01*
X002515Y-003941D01*
X002525Y-003955D01*
X002539Y-003965D01*
X002556Y-003968D01*
X002573Y-003965D01*
X002587Y-003955D01*
X002597Y-003941D01*
X002600Y-003924D01*
X002597Y-003907D01*
X002587Y-003893D01*
X002573Y-003883D01*
X002556Y-003880D01*
D02*
G37*
G36*
X004470Y-003896D02*
X004453Y-003899D01*
X004439Y-003909D01*
X004429Y-003923D01*
X004426Y-003940D01*
X004429Y-003957D01*
X004439Y-003971D01*
X004453Y-003981D01*
X004470Y-003984D01*
X004487Y-003981D01*
X004501Y-003971D01*
X004511Y-003957D01*
X004514Y-003940D01*
X004511Y-003923D01*
X004501Y-003909D01*
X004487Y-003899D01*
X004470Y-003896D01*
D02*
G37*
G36*
X004290Y-003966D02*
X004273Y-003969D01*
X004259Y-003979D01*
X004249Y-003993D01*
X004246Y-004010D01*
X004249Y-004027D01*
X004259Y-004041D01*
X004273Y-004051D01*
X004290Y-004054D01*
X004307Y-004051D01*
X004321Y-004041D01*
X004331Y-004027D01*
X004334Y-004010D01*
X004331Y-003993D01*
X004321Y-003979D01*
X004307Y-003969D01*
X004290Y-003966D01*
D02*
G37*
G36*
X003840D02*
X003823Y-003969D01*
X003809Y-003979D01*
X003799Y-003993D01*
X003796Y-004010D01*
X003799Y-004027D01*
X003809Y-004041D01*
X003823Y-004051D01*
X003840Y-004054D01*
X003857Y-004051D01*
X003871Y-004041D01*
X003881Y-004027D01*
X003884Y-004010D01*
X003881Y-003993D01*
X003871Y-003979D01*
X003857Y-003969D01*
X003840Y-003966D01*
D02*
G37*
G36*
X000090D02*
X000073Y-003969D01*
X000059Y-003979D01*
X000049Y-003993D01*
X000046Y-004010D01*
X000049Y-004027D01*
X000059Y-004041D01*
X000073Y-004051D01*
X000090Y-004054D01*
X000107Y-004051D01*
X000119Y-004042D01*
X000133Y-004051D01*
X000150Y-004055D01*
X000166Y-004051D01*
X000181Y-004042D01*
X000190Y-004027D01*
X000194Y-004010D01*
X000190Y-003994D01*
X000181Y-003979D01*
X000166Y-003970D01*
X000150Y-003966D01*
X000133Y-003970D01*
X000120Y-003978D01*
X000107Y-003969D01*
X000090Y-003966D01*
D02*
G37*
G36*
X000484Y-003980D02*
X000467Y-003983D01*
X000453Y-003993D01*
X000443Y-004007D01*
X000440Y-004024D01*
X000443Y-004041D01*
X000453Y-004055D01*
X000467Y-004065D01*
X000484Y-004068D01*
X000501Y-004065D01*
X000515Y-004055D01*
X000525Y-004041D01*
X000528Y-004024D01*
X000525Y-004007D01*
X000515Y-003993D01*
X000501Y-003983D01*
X000484Y-003980D01*
D02*
G37*
G36*
X005640Y-004006D02*
X005623Y-004009D01*
X005609Y-004019D01*
X005599Y-004033D01*
X005596Y-004050D01*
X005599Y-004067D01*
X005609Y-004081D01*
X005623Y-004091D01*
X005640Y-004094D01*
X005657Y-004091D01*
X005671Y-004081D01*
X005681Y-004067D01*
X005684Y-004050D01*
X005681Y-004033D01*
X005671Y-004019D01*
X005657Y-004009D01*
X005640Y-004006D01*
D02*
G37*
G36*
X003980Y-004026D02*
X003963Y-004029D01*
X003949Y-004039D01*
X003939Y-004053D01*
X003936Y-004070D01*
X003939Y-004087D01*
X003949Y-004101D01*
X003963Y-004111D01*
X003980Y-004114D01*
X003997Y-004111D01*
X004011Y-004101D01*
X004021Y-004087D01*
X004024Y-004070D01*
X004021Y-004053D01*
X004011Y-004039D01*
X003997Y-004029D01*
X003980Y-004026D01*
D02*
G37*
G36*
X001150Y-004116D02*
X001133Y-004119D01*
X001119Y-004129D01*
X001116Y-004133D01*
X001104D01*
X001101Y-004129D01*
X001087Y-004119D01*
X001070Y-004116D01*
X001053Y-004119D01*
X001039Y-004129D01*
X001029Y-004143D01*
X001029Y-004145D01*
X001020Y-004148D01*
X001015Y-004149D01*
X001000Y-004146D01*
X000983Y-004149D01*
X000969Y-004159D01*
X000959Y-004173D01*
X000956Y-004190D01*
X000959Y-004207D01*
X000969Y-004221D01*
X000983Y-004231D01*
X001000Y-004234D01*
X001017Y-004231D01*
X001031Y-004221D01*
X001041Y-004207D01*
X001041Y-004205D01*
X001050Y-004202D01*
X001055Y-004201D01*
X001070Y-004204D01*
X001087Y-004201D01*
X001101Y-004191D01*
X001104Y-004187D01*
X001116D01*
X001119Y-004191D01*
X001133Y-004201D01*
X001150Y-004204D01*
X001165Y-004201D01*
X001170Y-004202D01*
X001179Y-004205D01*
X001179Y-004207D01*
X001189Y-004221D01*
X001203Y-004231D01*
X001220Y-004234D01*
X001237Y-004231D01*
X001251Y-004221D01*
X001261Y-004207D01*
X001264Y-004190D01*
X001261Y-004173D01*
X001251Y-004159D01*
X001237Y-004149D01*
X001220Y-004146D01*
X001205Y-004149D01*
X001200Y-004148D01*
X001191Y-004145D01*
X001191Y-004143D01*
X001181Y-004129D01*
X001167Y-004119D01*
X001150Y-004116D01*
D02*
G37*
G36*
X005420Y-004146D02*
X005403Y-004149D01*
X005389Y-004159D01*
X005379Y-004173D01*
X005376Y-004190D01*
X005379Y-004207D01*
X005389Y-004221D01*
X005403Y-004231D01*
X005420Y-004234D01*
X005437Y-004231D01*
X005451Y-004221D01*
X005461Y-004207D01*
X005464Y-004190D01*
X005461Y-004173D01*
X005451Y-004159D01*
X005437Y-004149D01*
X005420Y-004146D01*
D02*
G37*
G36*
X005200D02*
X005183Y-004149D01*
X005169Y-004159D01*
X005159Y-004173D01*
X005156Y-004190D01*
X005159Y-004207D01*
X005169Y-004221D01*
X005183Y-004231D01*
X005200Y-004234D01*
X005217Y-004231D01*
X005231Y-004221D01*
X005241Y-004207D01*
X005244Y-004190D01*
X005241Y-004173D01*
X005231Y-004159D01*
X005217Y-004149D01*
X005200Y-004146D01*
D02*
G37*
G36*
X004880Y-004036D02*
X004863Y-004039D01*
X004849Y-004049D01*
X004839Y-004063D01*
X004836Y-004080D01*
X004839Y-004097D01*
X004849Y-004111D01*
X004863Y-004121D01*
X004880Y-004124D01*
X004888Y-004122D01*
X004896Y-004134D01*
X004889Y-004143D01*
X004886Y-004160D01*
X004889Y-004177D01*
X004899Y-004191D01*
X004913Y-004201D01*
X004930Y-004204D01*
X004945Y-004201D01*
X004950Y-004202D01*
X004959Y-004205D01*
X004959Y-004207D01*
X004969Y-004221D01*
X004983Y-004231D01*
X005000Y-004234D01*
X005017Y-004231D01*
X005031Y-004221D01*
X005041Y-004207D01*
X005044Y-004190D01*
X005041Y-004173D01*
X005031Y-004159D01*
X005017Y-004149D01*
X005000Y-004146D01*
X004985Y-004149D01*
X004980Y-004148D01*
X004971Y-004145D01*
X004971Y-004143D01*
X004961Y-004129D01*
X004947Y-004119D01*
X004930Y-004116D01*
X004922Y-004118D01*
X004914Y-004106D01*
X004921Y-004097D01*
X004924Y-004080D01*
X004921Y-004063D01*
X004911Y-004049D01*
X004897Y-004039D01*
X004880Y-004036D01*
D02*
G37*
G36*
X000800Y-004146D02*
X000783Y-004149D01*
X000769Y-004159D01*
X000759Y-004173D01*
X000756Y-004190D01*
X000759Y-004207D01*
X000769Y-004221D01*
X000783Y-004231D01*
X000800Y-004234D01*
X000817Y-004231D01*
X000831Y-004221D01*
X000841Y-004207D01*
X000844Y-004190D01*
X000841Y-004173D01*
X000831Y-004159D01*
X000817Y-004149D01*
X000800Y-004146D01*
D02*
G37*
G36*
X004780Y-004146D02*
X004763Y-004149D01*
X004749Y-004159D01*
X004739Y-004173D01*
X004736Y-004190D01*
X004739Y-004207D01*
X004749Y-004221D01*
X004763Y-004231D01*
X004780Y-004234D01*
X004797Y-004231D01*
X004811Y-004221D01*
X004821Y-004207D01*
X004824Y-004190D01*
X004821Y-004173D01*
X004811Y-004159D01*
X004797Y-004149D01*
X004780Y-004146D01*
D02*
G37*
G36*
X000580D02*
X000563Y-004149D01*
X000549Y-004159D01*
X000539Y-004173D01*
X000536Y-004190D01*
X000539Y-004207D01*
X000549Y-004221D01*
X000563Y-004231D01*
X000580Y-004234D01*
X000597Y-004231D01*
X000611Y-004221D01*
X000621Y-004207D01*
X000624Y-004190D01*
X000621Y-004173D01*
X000611Y-004159D01*
X000597Y-004149D01*
X000580Y-004146D01*
D02*
G37*
G36*
X005851Y-004114D02*
X005827Y-004118D01*
X005804Y-004127D01*
X005785Y-004142D01*
X005770Y-004161D01*
X005760Y-004184D01*
X005757Y-004208D01*
X005760Y-004232D01*
X005770Y-004255D01*
X005785Y-004274D01*
X005804Y-004289D01*
X005827Y-004298D01*
X005851Y-004302D01*
X005875Y-004298D01*
X005898Y-004289D01*
X005917Y-004274D01*
X005932Y-004255D01*
X005941Y-004232D01*
X005944Y-004208D01*
X005941Y-004184D01*
X005932Y-004161D01*
X005917Y-004142D01*
X005898Y-004127D01*
X005875Y-004118D01*
X005851Y-004114D01*
D02*
G37*
G36*
X000150Y-004116D02*
X000126Y-004120D01*
X000103Y-004129D01*
X000084Y-004144D01*
X000069Y-004163D01*
X000060Y-004186D01*
X000056Y-004210D01*
X000060Y-004234D01*
X000069Y-004257D01*
X000084Y-004276D01*
X000103Y-004291D01*
X000126Y-004300D01*
X000150Y-004304D01*
X000174Y-004300D01*
X000197Y-004291D01*
X000216Y-004276D01*
X000231Y-004257D01*
X000240Y-004234D01*
X000244Y-004210D01*
X000240Y-004186D01*
X000231Y-004163D01*
X000216Y-004144D01*
X000197Y-004129D01*
X000174Y-004120D01*
X000150Y-004116D01*
D02*
G37*
G36*
X000757Y-004367D02*
X000747Y-004369D01*
X000728Y-004382D01*
X000715Y-004401D01*
X000713Y-004411D01*
X000757D01*
Y-004367D01*
D02*
G37*
G36*
X004957Y-004367D02*
X004947Y-004369D01*
X004928Y-004382D01*
X004915Y-004401D01*
X004913Y-004411D01*
X004957D01*
Y-004367D01*
D02*
G37*
G36*
X002010Y-004416D02*
X001993Y-004419D01*
X001979Y-004429D01*
X001969Y-004443D01*
X001966Y-004460D01*
X001969Y-004477D01*
X001979Y-004491D01*
X001993Y-004501D01*
X002010Y-004504D01*
X002027Y-004501D01*
X002041Y-004491D01*
X002051Y-004477D01*
X002054Y-004460D01*
X002051Y-004443D01*
X002041Y-004429D01*
X002027Y-004419D01*
X002010Y-004416D01*
D02*
G37*
G36*
X004090Y-004536D02*
X004073Y-004539D01*
X004059Y-004549D01*
X004049Y-004563D01*
X004046Y-004580D01*
X004049Y-004597D01*
X004059Y-004611D01*
X004073Y-004621D01*
X004090Y-004624D01*
X004107Y-004621D01*
X004121Y-004611D01*
X004131Y-004597D01*
X004134Y-004580D01*
X004131Y-004563D01*
X004121Y-004549D01*
X004107Y-004539D01*
X004090Y-004536D01*
D02*
G37*
G36*
X002020Y-004796D02*
X002003Y-004799D01*
X001989Y-004809D01*
X001979Y-004823D01*
X001976Y-004840D01*
X001979Y-004857D01*
X001989Y-004871D01*
X002003Y-004881D01*
X002020Y-004884D01*
X002037Y-004881D01*
X002051Y-004871D01*
X002061Y-004857D01*
X002064Y-004840D01*
X002061Y-004823D01*
X002051Y-004809D01*
X002037Y-004799D01*
X002020Y-004796D01*
D02*
G37*
G36*
X003600Y-000926D02*
X003583Y-000929D01*
X003569Y-000939D01*
X003559Y-000953D01*
X003556Y-000970D01*
X003559Y-000987D01*
X003569Y-001001D01*
X003569Y-001001D01*
X003567Y-001015D01*
X003555Y-001023D01*
X003545Y-001037D01*
X003542Y-001054D01*
X003545Y-001071D01*
X003555Y-001085D01*
X003569Y-001095D01*
X003586Y-001098D01*
X003603Y-001095D01*
X003617Y-001085D01*
X003627Y-001071D01*
X003630Y-001054D01*
X003627Y-001037D01*
X003617Y-001023D01*
X003617Y-001023D01*
X003619Y-001009D01*
X003631Y-001001D01*
X003641Y-000987D01*
X003644Y-000970D01*
X003641Y-000953D01*
X003631Y-000939D01*
X003617Y-000929D01*
X003600Y-000926D01*
D02*
G37*
G36*
X003330Y-001046D02*
X003313Y-001049D01*
X003299Y-001059D01*
X003289Y-001073D01*
X003286Y-001090D01*
X003289Y-001107D01*
X003299Y-001121D01*
X003313Y-001131D01*
X003330Y-001134D01*
X003347Y-001131D01*
X003361Y-001121D01*
X003371Y-001107D01*
X003374Y-001090D01*
X003371Y-001073D01*
X003361Y-001059D01*
X003347Y-001049D01*
X003330Y-001046D01*
D02*
G37*
G36*
X002810Y-001046D02*
X002793Y-001049D01*
X002779Y-001059D01*
X002769Y-001073D01*
X002766Y-001090D01*
X002769Y-001107D01*
X002779Y-001121D01*
X002793Y-001131D01*
X002810Y-001134D01*
X002827Y-001131D01*
X002841Y-001121D01*
X002851Y-001107D01*
X002854Y-001090D01*
X002851Y-001073D01*
X002841Y-001059D01*
X002827Y-001049D01*
X002810Y-001046D01*
D02*
G37*
G36*
X002540D02*
X002523Y-001049D01*
X002509Y-001059D01*
X002499Y-001073D01*
X002496Y-001090D01*
X002499Y-001107D01*
X002509Y-001121D01*
X002523Y-001131D01*
X002540Y-001134D01*
X002557Y-001131D01*
X002571Y-001121D01*
X002581Y-001107D01*
X002584Y-001090D01*
X002581Y-001073D01*
X002571Y-001059D01*
X002557Y-001049D01*
X002540Y-001046D01*
D02*
G37*
G36*
X005520Y-001076D02*
X005503Y-001079D01*
X005489Y-001089D01*
X005479Y-001103D01*
X005476Y-001120D01*
X005479Y-001137D01*
X005489Y-001151D01*
X005503Y-001161D01*
X005520Y-001164D01*
X005537Y-001161D01*
X005551Y-001151D01*
X005561Y-001137D01*
X005564Y-001120D01*
X005561Y-001103D01*
X005551Y-001089D01*
X005537Y-001079D01*
X005520Y-001076D01*
D02*
G37*
G36*
X002730Y-001116D02*
X002713Y-001119D01*
X002699Y-001129D01*
X002689Y-001143D01*
X002686Y-001160D01*
X002689Y-001177D01*
X002699Y-001191D01*
X002713Y-001201D01*
X002730Y-001204D01*
X002747Y-001201D01*
X002761Y-001191D01*
X002771Y-001177D01*
X002774Y-001160D01*
X002771Y-001143D01*
X002761Y-001129D01*
X002747Y-001119D01*
X002730Y-001116D01*
D02*
G37*
G36*
X003130Y-001046D02*
X003113Y-001049D01*
X003099Y-001059D01*
X003089Y-001073D01*
X003086Y-001090D01*
X003089Y-001107D01*
X003099Y-001121D01*
Y-001129D01*
X003089Y-001143D01*
X003086Y-001160D01*
X003089Y-001177D01*
X003099Y-001191D01*
X003113Y-001201D01*
X003120Y-001202D01*
X003130Y-001216D01*
X003130Y-001216D01*
X003133Y-001233D01*
X003143Y-001247D01*
X003157Y-001257D01*
X003174Y-001260D01*
X003191Y-001257D01*
X003205Y-001247D01*
X003214Y-001233D01*
X003218Y-001216D01*
X003214Y-001199D01*
X003205Y-001185D01*
X003191Y-001176D01*
X003184Y-001174D01*
X003174Y-001160D01*
X003174Y-001160D01*
X003171Y-001143D01*
X003161Y-001129D01*
Y-001121D01*
X003171Y-001107D01*
X003174Y-001090D01*
X003171Y-001073D01*
X003161Y-001059D01*
X003147Y-001049D01*
X003130Y-001046D01*
D02*
G37*
G36*
X002850Y-001176D02*
X002833Y-001179D01*
X002819Y-001189D01*
X002809Y-001203D01*
X002806Y-001220D01*
X002809Y-001237D01*
X002819Y-001251D01*
X002833Y-001261D01*
X002850Y-001264D01*
X002867Y-001261D01*
X002881Y-001251D01*
X002891Y-001237D01*
X002894Y-001220D01*
X002891Y-001203D01*
X002881Y-001189D01*
X002867Y-001179D01*
X002850Y-001176D01*
D02*
G37*
G36*
X003586Y-001230D02*
X003569Y-001233D01*
X003555Y-001243D01*
X003545Y-001257D01*
X003542Y-001274D01*
X003545Y-001291D01*
X003555Y-001305D01*
X003569Y-001315D01*
X003586Y-001318D01*
X003603Y-001315D01*
X003617Y-001305D01*
X003627Y-001291D01*
X003630Y-001274D01*
X003627Y-001257D01*
X003617Y-001243D01*
X003603Y-001233D01*
X003586Y-001230D01*
D02*
G37*
G36*
X003890Y-001306D02*
X003873Y-001309D01*
X003859Y-001319D01*
X003849Y-001333D01*
X003846Y-001350D01*
X003849Y-001367D01*
X003859Y-001381D01*
X003873Y-001391D01*
X003890Y-001394D01*
X003907Y-001391D01*
X003921Y-001381D01*
X003931Y-001367D01*
X003934Y-001350D01*
X003931Y-001333D01*
X003921Y-001319D01*
X003907Y-001309D01*
X003890Y-001306D01*
D02*
G37*
G36*
X003200Y-001386D02*
X003183Y-001389D01*
X003169Y-001399D01*
X003159Y-001413D01*
X003158Y-001421D01*
X003147Y-001429D01*
X003144Y-001429D01*
X003130Y-001426D01*
X003113Y-001429D01*
X003099Y-001439D01*
X003089Y-001453D01*
X003086Y-001470D01*
X003089Y-001487D01*
X003099Y-001501D01*
X003113Y-001511D01*
X003130Y-001514D01*
X003147Y-001511D01*
X003161Y-001501D01*
X003171Y-001487D01*
X003172Y-001479D01*
X003183Y-001471D01*
X003186Y-001471D01*
X003200Y-001474D01*
X003217Y-001471D01*
X003231Y-001461D01*
X003241Y-001447D01*
X003244Y-001430D01*
X003241Y-001413D01*
X003231Y-001399D01*
X003217Y-001389D01*
X003200Y-001386D01*
D02*
G37*
G36*
Y-001506D02*
X003183Y-001509D01*
X003169Y-001519D01*
X003159Y-001533D01*
X003158Y-001541D01*
X003147Y-001549D01*
X003144Y-001549D01*
X003130Y-001546D01*
X003113Y-001549D01*
X003099Y-001559D01*
X003089Y-001573D01*
X003086Y-001590D01*
X003089Y-001607D01*
X003099Y-001621D01*
X003103Y-001624D01*
Y-001636D01*
X003099Y-001639D01*
X003089Y-001653D01*
X003086Y-001670D01*
X003089Y-001687D01*
X003099Y-001701D01*
X003113Y-001711D01*
X003130Y-001714D01*
X003147Y-001711D01*
X003161Y-001701D01*
X003171Y-001687D01*
X003174Y-001670D01*
X003171Y-001653D01*
X003161Y-001639D01*
X003157Y-001636D01*
Y-001624D01*
X003161Y-001621D01*
X003171Y-001607D01*
X003172Y-001599D01*
X003183Y-001591D01*
X003186Y-001591D01*
X003200Y-001594D01*
X003217Y-001591D01*
X003231Y-001581D01*
X003241Y-001567D01*
X003244Y-001550D01*
X003241Y-001533D01*
X003231Y-001519D01*
X003217Y-001509D01*
X003200Y-001506D01*
D02*
G37*
G36*
X005110D02*
X005093Y-001509D01*
X005079Y-001519D01*
X005069Y-001533D01*
X005066Y-001550D01*
X005069Y-001567D01*
X005079Y-001581D01*
X005093Y-001591D01*
X005110Y-001594D01*
X005127Y-001591D01*
X005141Y-001581D01*
X005151Y-001567D01*
X005154Y-001550D01*
X005151Y-001533D01*
X005141Y-001519D01*
X005127Y-001509D01*
X005110Y-001506D01*
D02*
G37*
G36*
X002630Y-001386D02*
X002613Y-001389D01*
X002599Y-001399D01*
X002589Y-001413D01*
X002586Y-001430D01*
X002589Y-001447D01*
X002599Y-001461D01*
X002613Y-001471D01*
X002630Y-001474D01*
X002644Y-001471D01*
X002647Y-001471D01*
X002658Y-001479D01*
X002659Y-001487D01*
X002669Y-001501D01*
X002673Y-001504D01*
Y-001516D01*
X002669Y-001519D01*
X002659Y-001533D01*
X002656Y-001550D01*
X002659Y-001567D01*
X002669Y-001581D01*
X002683Y-001591D01*
X002700Y-001594D01*
X002717Y-001591D01*
X002731Y-001581D01*
X002741Y-001567D01*
X002744Y-001550D01*
X002741Y-001533D01*
X002731Y-001519D01*
X002727Y-001516D01*
Y-001504D01*
X002731Y-001501D01*
X002741Y-001487D01*
X002744Y-001470D01*
X002741Y-001453D01*
X002731Y-001439D01*
X002717Y-001429D01*
X002700Y-001426D01*
X002686Y-001429D01*
X002683Y-001429D01*
X002672Y-001421D01*
X002671Y-001413D01*
X002661Y-001399D01*
X002647Y-001389D01*
X002630Y-001386D01*
D02*
G37*
G36*
X005425Y-001511D02*
X005408Y-001514D01*
X005394Y-001524D01*
X005384Y-001538D01*
X005381Y-001555D01*
X005384Y-001572D01*
X005394Y-001586D01*
X005408Y-001596D01*
X005425Y-001599D01*
X005442Y-001596D01*
X005456Y-001586D01*
X005466Y-001572D01*
X005469Y-001555D01*
X005466Y-001538D01*
X005456Y-001524D01*
X005442Y-001514D01*
X005425Y-001511D01*
D02*
G37*
G36*
X004405D02*
X004388Y-001514D01*
X004374Y-001524D01*
X004364Y-001538D01*
X004361Y-001555D01*
X004364Y-001572D01*
X004374Y-001586D01*
X004388Y-001596D01*
X004405Y-001599D01*
X004422Y-001596D01*
X004436Y-001586D01*
X004446Y-001572D01*
X004449Y-001555D01*
X004446Y-001538D01*
X004436Y-001524D01*
X004422Y-001514D01*
X004405Y-001511D01*
D02*
G37*
G36*
X001980Y-001546D02*
X001963Y-001549D01*
X001949Y-001559D01*
X001939Y-001573D01*
X001936Y-001590D01*
X001939Y-001607D01*
X001949Y-001621D01*
X001963Y-001631D01*
X001980Y-001634D01*
X001997Y-001631D01*
X002011Y-001621D01*
X002021Y-001607D01*
X002024Y-001590D01*
X002021Y-001573D01*
X002011Y-001559D01*
X001997Y-001549D01*
X001980Y-001546D01*
D02*
G37*
G36*
X002050Y-001626D02*
X002033Y-001629D01*
X002019Y-001639D01*
X002009Y-001653D01*
X002006Y-001670D01*
X002009Y-001687D01*
X002019Y-001701D01*
X002033Y-001711D01*
X002050Y-001714D01*
X002067Y-001711D01*
X002081Y-001701D01*
X002091Y-001687D01*
X002094Y-001670D01*
X002091Y-001653D01*
X002081Y-001639D01*
X002067Y-001629D01*
X002050Y-001626D01*
D02*
G37*
G36*
X004430Y-001723D02*
X004412Y-001727D01*
X004397Y-001737D01*
X004391Y-001746D01*
X004376Y-001746D01*
X004371Y-001739D01*
X004357Y-001729D01*
X004340Y-001726D01*
X004323Y-001729D01*
X004309Y-001739D01*
X004299Y-001753D01*
X004296Y-001770D01*
X004299Y-001787D01*
X004309Y-001801D01*
X004323Y-001811D01*
X004340Y-001814D01*
X004357Y-001811D01*
X004371Y-001801D01*
X004373Y-001802D01*
X004383Y-001806D01*
Y-002060D01*
Y-002261D01*
X004217Y-002427D01*
X004215Y-002430D01*
X004202D01*
X004201Y-002429D01*
X004187Y-002419D01*
X004170Y-002416D01*
X004153Y-002419D01*
X004139Y-002429D01*
X004136Y-002433D01*
X004124D01*
X004121Y-002429D01*
X004107Y-002419D01*
X004090Y-002416D01*
X004073Y-002419D01*
X004059Y-002429D01*
X004051D01*
X004037Y-002419D01*
X004020Y-002416D01*
X004003Y-002419D01*
X003989Y-002429D01*
X003979Y-002443D01*
X003976Y-002460D01*
X003979Y-002477D01*
X003989Y-002491D01*
X004003Y-002501D01*
X004008Y-002502D01*
X004028Y-002522D01*
X004023Y-002533D01*
X003959D01*
X003837Y-002411D01*
Y-002305D01*
X003849Y-002298D01*
X003853Y-002301D01*
X003870Y-002304D01*
X003887Y-002301D01*
X003901Y-002291D01*
X003911Y-002277D01*
X003914Y-002260D01*
X003911Y-002243D01*
X003901Y-002229D01*
X003887Y-002219D01*
X003870Y-002216D01*
X003853Y-002219D01*
X003849Y-002222D01*
X003837Y-002215D01*
Y-002035D01*
X003847Y-002028D01*
X003849Y-002028D01*
X003853Y-002031D01*
X003870Y-002034D01*
X003887Y-002031D01*
X003901Y-002021D01*
X003911Y-002007D01*
X003914Y-001990D01*
X003911Y-001973D01*
X003901Y-001959D01*
X003887Y-001949D01*
X003870Y-001946D01*
X003863Y-001934D01*
X003864Y-001930D01*
X003861Y-001913D01*
X003851Y-001899D01*
X003837Y-001889D01*
X003820Y-001886D01*
X003809Y-001888D01*
X003797Y-001880D01*
Y-001810D01*
X003793Y-001792D01*
X003783Y-001777D01*
X003768Y-001767D01*
X003750Y-001763D01*
X003732Y-001767D01*
X003717Y-001777D01*
X003707Y-001792D01*
X003703Y-001810D01*
Y-001990D01*
X003707Y-002008D01*
X003717Y-002023D01*
X003743Y-002049D01*
Y-002145D01*
X003731Y-002152D01*
X003727Y-002149D01*
X003710Y-002146D01*
X003693Y-002149D01*
X003679Y-002159D01*
X003669Y-002173D01*
X003666Y-002190D01*
X003669Y-002204D01*
X003669Y-002207D01*
X003661Y-002218D01*
X003653Y-002219D01*
X003639Y-002229D01*
X003629Y-002243D01*
X003626Y-002260D01*
X003629Y-002277D01*
X003639Y-002291D01*
X003653Y-002301D01*
X003670Y-002304D01*
X003687Y-002301D01*
X003701Y-002291D01*
X003711Y-002277D01*
X003714Y-002260D01*
X003711Y-002246D01*
X003711Y-002243D01*
X003719Y-002232D01*
X003727Y-002231D01*
X003731Y-002228D01*
X003743Y-002235D01*
Y-002333D01*
X003630D01*
X003612Y-002337D01*
X003597Y-002347D01*
X003537Y-002407D01*
X003527Y-002422D01*
X003523Y-002440D01*
Y-002681D01*
X003411Y-002793D01*
X003190D01*
X003172Y-002797D01*
X003157Y-002807D01*
X003077Y-002887D01*
X003067Y-002902D01*
X003063Y-002920D01*
X003067Y-002938D01*
X003077Y-002953D01*
X003092Y-002963D01*
X003110Y-002967D01*
X003128Y-002963D01*
X003143Y-002953D01*
X003209Y-002887D01*
X003225D01*
X003232Y-002899D01*
X003229Y-002903D01*
X003226Y-002920D01*
X003229Y-002937D01*
X003239Y-002951D01*
X003253Y-002961D01*
X003270Y-002964D01*
X003287Y-002961D01*
X003301Y-002951D01*
X003311Y-002937D01*
X003314Y-002920D01*
X003311Y-002903D01*
X003308Y-002899D01*
X003315Y-002887D01*
X003383D01*
Y-002920D01*
X003387Y-002938D01*
X003397Y-002953D01*
X003412Y-002963D01*
X003430Y-002967D01*
X003448Y-002963D01*
X003463Y-002953D01*
X003473Y-002938D01*
X003477Y-002920D01*
Y-002859D01*
X003603Y-002733D01*
X003613Y-002718D01*
X003617Y-002700D01*
Y-002515D01*
X003629Y-002508D01*
X003633Y-002511D01*
X003649Y-002514D01*
X003646Y-002530D01*
X003649Y-002547D01*
X003659Y-002561D01*
X003673Y-002571D01*
X003689Y-002574D01*
X003686Y-002590D01*
X003689Y-002607D01*
X003699Y-002621D01*
X003713Y-002631D01*
X003729Y-002634D01*
X003726Y-002650D01*
X003729Y-002667D01*
X003739Y-002681D01*
X003753Y-002691D01*
X003770Y-002694D01*
X003787Y-002691D01*
X003801Y-002681D01*
X003811Y-002667D01*
X003814Y-002650D01*
X003811Y-002633D01*
X003801Y-002619D01*
X003787Y-002609D01*
X003771Y-002606D01*
X003774Y-002590D01*
X003771Y-002573D01*
X003761Y-002559D01*
X003747Y-002549D01*
X003731Y-002546D01*
X003734Y-002530D01*
X003731Y-002513D01*
X003721Y-002499D01*
X003707Y-002489D01*
X003691Y-002486D01*
X003694Y-002470D01*
X003691Y-002453D01*
X003681Y-002439D01*
X003682Y-002437D01*
X003686Y-002427D01*
X003743D01*
Y-002430D01*
X003747Y-002448D01*
X003757Y-002463D01*
X003879Y-002585D01*
X003873Y-002596D01*
X003870Y-002596D01*
X003853Y-002599D01*
X003839Y-002609D01*
X003829Y-002623D01*
X003826Y-002640D01*
X003829Y-002657D01*
X003839Y-002671D01*
X003853Y-002681D01*
X003870Y-002684D01*
X003887Y-002681D01*
X003901Y-002671D01*
X003911Y-002657D01*
X003914Y-002640D01*
X003912Y-002632D01*
X003918Y-002627D01*
X003924Y-002623D01*
X003940Y-002627D01*
X003970D01*
X003978Y-002639D01*
X003976Y-002650D01*
X003979Y-002667D01*
X003989Y-002681D01*
X004003Y-002691D01*
X004020Y-002694D01*
X004037Y-002691D01*
X004051Y-002681D01*
X004061Y-002667D01*
X004064Y-002650D01*
X004062Y-002639D01*
X004070Y-002627D01*
X004310D01*
X004328Y-002623D01*
X004343Y-002613D01*
X004434Y-002522D01*
X004447Y-002527D01*
X004449Y-002537D01*
X004459Y-002551D01*
X004473Y-002561D01*
X004490Y-002564D01*
X004507Y-002561D01*
X004521Y-002551D01*
X004531Y-002537D01*
X004534Y-002520D01*
X004531Y-002503D01*
X004521Y-002489D01*
X004507Y-002479D01*
X004497Y-002477D01*
X004492Y-002464D01*
X004699Y-002257D01*
X004710D01*
X004728Y-002253D01*
X004743Y-002243D01*
X004753Y-002228D01*
X004757Y-002210D01*
X004753Y-002192D01*
X004743Y-002177D01*
X004728Y-002167D01*
X004712Y-002164D01*
X004713Y-002151D01*
X004917D01*
X005006Y-002240D01*
X005006Y-002240D01*
X005009Y-002257D01*
X005019Y-002271D01*
X005033Y-002281D01*
X005050Y-002284D01*
X005067Y-002281D01*
X005081Y-002271D01*
X005091Y-002257D01*
X005094Y-002240D01*
X005091Y-002223D01*
X005081Y-002209D01*
X005067Y-002199D01*
X005050Y-002196D01*
X005050Y-002196D01*
X004954Y-002100D01*
X004954Y-002100D01*
X004952Y-002095D01*
X004953Y-002083D01*
X004979Y-002057D01*
X005130D01*
X005138Y-002069D01*
X005136Y-002080D01*
X005139Y-002097D01*
X005149Y-002111D01*
X005163Y-002121D01*
X005180Y-002124D01*
X005197Y-002121D01*
X005211Y-002111D01*
X005214Y-002107D01*
X005226D01*
X005229Y-002111D01*
X005243Y-002121D01*
X005260Y-002124D01*
X005277Y-002121D01*
X005291Y-002111D01*
X005301Y-002097D01*
X005304Y-002080D01*
X005302Y-002069D01*
X005310Y-002057D01*
X005351D01*
X005393Y-002099D01*
X005408Y-002109D01*
X005426Y-002113D01*
X005444Y-002109D01*
X005459Y-002099D01*
X005464Y-002092D01*
X005479D01*
X005483Y-002097D01*
X005497Y-002107D01*
X005514Y-002110D01*
X005531Y-002107D01*
X005545Y-002097D01*
X005555Y-002083D01*
X005558Y-002066D01*
X005555Y-002049D01*
X005545Y-002035D01*
X005531Y-002025D01*
X005514Y-002022D01*
X005497Y-002025D01*
X005483Y-002035D01*
X005479Y-002040D01*
X005464D01*
X005459Y-002033D01*
X005403Y-001977D01*
X005388Y-001967D01*
X005379Y-001965D01*
Y-001952D01*
X005387Y-001951D01*
X005401Y-001941D01*
X005411Y-001927D01*
X005414Y-001910D01*
X005411Y-001893D01*
X005401Y-001879D01*
X005399Y-001878D01*
Y-001865D01*
X005401Y-001864D01*
X005411Y-001849D01*
X005414Y-001833D01*
X005411Y-001816D01*
X005401Y-001801D01*
X005387Y-001792D01*
X005370Y-001788D01*
X005353Y-001792D01*
X005339Y-001801D01*
X005329Y-001816D01*
X005326Y-001833D01*
X005329Y-001849D01*
X005339Y-001864D01*
X005341Y-001865D01*
Y-001878D01*
X005339Y-001879D01*
X005329Y-001893D01*
X005326Y-001910D01*
X005329Y-001927D01*
X005339Y-001941D01*
X005353Y-001951D01*
X005353Y-001951D01*
X005352Y-001963D01*
X004960D01*
X004942Y-001967D01*
X004927Y-001977D01*
X004891Y-002013D01*
X004740D01*
X004732Y-002001D01*
X004734Y-001990D01*
X004731Y-001973D01*
X004721Y-001959D01*
X004707Y-001949D01*
X004690Y-001946D01*
X004673Y-001949D01*
X004659Y-001959D01*
X004649Y-001973D01*
X004646Y-001990D01*
X004648Y-002001D01*
X004640Y-002013D01*
X004477D01*
Y-001770D01*
X004473Y-001752D01*
X004463Y-001737D01*
X004448Y-001727D01*
X004430Y-001723D01*
D02*
G37*
G36*
X002630Y-001666D02*
X002613Y-001669D01*
X002599Y-001679D01*
X002589Y-001693D01*
X002586Y-001710D01*
X002589Y-001727D01*
X002599Y-001741D01*
X002613Y-001751D01*
X002630Y-001754D01*
X002647Y-001751D01*
X002661Y-001741D01*
X002671Y-001727D01*
X002674Y-001710D01*
X002671Y-001693D01*
X002661Y-001679D01*
X002647Y-001669D01*
X002630Y-001666D01*
D02*
G37*
G36*
X005805Y-001721D02*
X005788Y-001724D01*
X005774Y-001734D01*
X005764Y-001748D01*
X005761Y-001765D01*
X005764Y-001782D01*
X005774Y-001796D01*
X005788Y-001806D01*
X005805Y-001809D01*
X005822Y-001806D01*
X005836Y-001796D01*
X005846Y-001782D01*
X005849Y-001765D01*
X005846Y-001748D01*
X005836Y-001734D01*
X005822Y-001724D01*
X005805Y-001721D01*
D02*
G37*
G36*
X005153Y-001788D02*
X005136Y-001792D01*
X005121Y-001801D01*
X005112Y-001816D01*
X005108Y-001833D01*
X005112Y-001849D01*
X005121Y-001864D01*
X005136Y-001873D01*
X005153Y-001877D01*
X005169Y-001873D01*
X005184Y-001864D01*
X005193Y-001849D01*
X005197Y-001833D01*
X005193Y-001816D01*
X005184Y-001801D01*
X005169Y-001792D01*
X005153Y-001788D01*
D02*
G37*
G36*
X004730Y-001766D02*
X004713Y-001769D01*
X004699Y-001779D01*
X004689Y-001793D01*
X004686Y-001810D01*
X004689Y-001827D01*
X004699Y-001841D01*
X004713Y-001851D01*
X004730Y-001854D01*
X004737Y-001853D01*
X004739Y-001867D01*
X004749Y-001881D01*
X004763Y-001891D01*
X004780Y-001894D01*
X004797Y-001891D01*
X004811Y-001881D01*
X004821Y-001867D01*
X004824Y-001850D01*
X004821Y-001833D01*
X004811Y-001819D01*
X004797Y-001809D01*
X004780Y-001806D01*
X004773Y-001807D01*
X004771Y-001793D01*
X004761Y-001779D01*
X004747Y-001769D01*
X004730Y-001766D01*
D02*
G37*
G36*
X005040Y-001836D02*
X005023Y-001839D01*
X005009Y-001849D01*
X004999Y-001863D01*
X004996Y-001880D01*
X004999Y-001897D01*
X005009Y-001911D01*
X005023Y-001921D01*
X005040Y-001924D01*
X005057Y-001921D01*
X005071Y-001911D01*
X005081Y-001897D01*
X005084Y-001880D01*
X005081Y-001863D01*
X005071Y-001849D01*
X005057Y-001839D01*
X005040Y-001836D01*
D02*
G37*
G36*
X002340Y-001866D02*
X002323Y-001869D01*
X002309Y-001879D01*
X002299Y-001893D01*
X002296Y-001910D01*
X002299Y-001927D01*
X002309Y-001941D01*
X002323Y-001951D01*
X002340Y-001954D01*
X002357Y-001951D01*
X002371Y-001941D01*
X002381Y-001927D01*
X002384Y-001910D01*
X002381Y-001893D01*
X002371Y-001879D01*
X002357Y-001869D01*
X002340Y-001866D01*
D02*
G37*
G36*
X003470Y-001946D02*
X003453Y-001949D01*
X003439Y-001959D01*
X003429Y-001973D01*
X003426Y-001990D01*
X003429Y-002007D01*
X003439Y-002021D01*
X003453Y-002031D01*
X003470Y-002034D01*
X003487Y-002031D01*
X003501Y-002021D01*
X003511Y-002007D01*
X003514Y-001990D01*
X003511Y-001973D01*
X003501Y-001959D01*
X003487Y-001949D01*
X003470Y-001946D01*
D02*
G37*
G36*
X003190D02*
X003173Y-001949D01*
X003159Y-001959D01*
X003149Y-001973D01*
X003146Y-001990D01*
X003149Y-002007D01*
X003159Y-002021D01*
X003173Y-002031D01*
X003190Y-002034D01*
X003207Y-002031D01*
X003221Y-002021D01*
X003231Y-002007D01*
X003234Y-001990D01*
X003231Y-001973D01*
X003221Y-001959D01*
X003207Y-001949D01*
X003190Y-001946D01*
D02*
G37*
G36*
X002630D02*
X002613Y-001949D01*
X002599Y-001959D01*
X002589Y-001973D01*
X002586Y-001990D01*
X002589Y-002007D01*
X002599Y-002021D01*
X002613Y-002031D01*
X002630Y-002034D01*
X002647Y-002031D01*
X002661Y-002021D01*
X002671Y-002007D01*
X002674Y-001990D01*
X002671Y-001973D01*
X002661Y-001959D01*
X002647Y-001949D01*
X002630Y-001946D01*
D02*
G37*
G36*
X004070Y-002216D02*
X004053Y-002219D01*
X004039Y-002229D01*
X004036Y-002233D01*
X004024D01*
X004021Y-002229D01*
X004007Y-002219D01*
X003990Y-002216D01*
X003973Y-002219D01*
X003959Y-002229D01*
X003949Y-002243D01*
X003946Y-002260D01*
X003949Y-002277D01*
X003959Y-002291D01*
X003973Y-002301D01*
X003990Y-002304D01*
X004007Y-002301D01*
X004021Y-002291D01*
X004024Y-002287D01*
X004036D01*
X004039Y-002291D01*
X004053Y-002301D01*
X004070Y-002304D01*
X004087Y-002301D01*
X004101Y-002291D01*
X004111Y-002277D01*
X004114Y-002260D01*
X004111Y-002243D01*
X004101Y-002229D01*
X004087Y-002219D01*
X004070Y-002216D01*
D02*
G37*
G36*
X003110Y-002146D02*
X003093Y-002149D01*
X003079Y-002159D01*
X003069Y-002173D01*
X003066Y-002190D01*
X003069Y-002207D01*
X003079Y-002221D01*
X003093Y-002231D01*
X003110Y-002234D01*
X003127Y-002231D01*
X003141Y-002221D01*
X003151Y-002207D01*
X003154Y-002190D01*
X003151Y-002173D01*
X003141Y-002159D01*
X003127Y-002149D01*
X003110Y-002146D01*
D02*
G37*
G36*
X003010Y-002156D02*
X002993Y-002159D01*
X002979Y-002169D01*
X002969Y-002183D01*
X002966Y-002200D01*
X002969Y-002217D01*
X002979Y-002231D01*
X002993Y-002241D01*
X003010Y-002244D01*
X003027Y-002241D01*
X003041Y-002231D01*
X003051Y-002217D01*
X003054Y-002200D01*
X003051Y-002183D01*
X003041Y-002169D01*
X003027Y-002159D01*
X003010Y-002156D01*
D02*
G37*
G36*
X004190Y-002216D02*
X004173Y-002219D01*
X004159Y-002229D01*
X004149Y-002243D01*
X004146Y-002260D01*
X004149Y-002277D01*
X004159Y-002291D01*
X004173Y-002301D01*
X004190Y-002304D01*
X004207Y-002301D01*
X004221Y-002291D01*
X004231Y-002277D01*
X004234Y-002260D01*
X004231Y-002243D01*
X004221Y-002229D01*
X004207Y-002219D01*
X004190Y-002216D01*
D02*
G37*
G36*
X003590Y-002146D02*
X003573Y-002149D01*
X003559Y-002159D01*
X003549Y-002173D01*
X003546Y-002190D01*
X003549Y-002204D01*
X003549Y-002207D01*
X003541Y-002218D01*
X003533Y-002219D01*
X003519Y-002229D01*
X003509Y-002243D01*
X003506Y-002260D01*
X003509Y-002277D01*
X003519Y-002291D01*
X003533Y-002301D01*
X003550Y-002304D01*
X003567Y-002301D01*
X003581Y-002291D01*
X003591Y-002277D01*
X003594Y-002260D01*
X003591Y-002246D01*
X003591Y-002243D01*
X003599Y-002232D01*
X003607Y-002231D01*
X003621Y-002221D01*
X003631Y-002207D01*
X003634Y-002190D01*
X003631Y-002173D01*
X003621Y-002159D01*
X003607Y-002149D01*
X003590Y-002146D01*
D02*
G37*
G36*
X003270D02*
X003253Y-002149D01*
X003239Y-002159D01*
X003229Y-002173D01*
X003226Y-002190D01*
X003229Y-002207D01*
X003239Y-002221D01*
X003253Y-002231D01*
X003261Y-002232D01*
X003269Y-002243D01*
X003269Y-002246D01*
X003266Y-002260D01*
X003269Y-002277D01*
X003279Y-002291D01*
X003293Y-002301D01*
X003310Y-002304D01*
X003327Y-002301D01*
X003341Y-002291D01*
X003351Y-002277D01*
X003354Y-002260D01*
X003351Y-002243D01*
X003341Y-002229D01*
X003327Y-002219D01*
X003319Y-002218D01*
X003311Y-002207D01*
X003311Y-002204D01*
X003314Y-002190D01*
X003311Y-002173D01*
X003301Y-002159D01*
X003287Y-002149D01*
X003270Y-002146D01*
D02*
G37*
G36*
X002670D02*
X002653Y-002149D01*
X002639Y-002159D01*
X002629Y-002173D01*
X002626Y-002190D01*
X002629Y-002207D01*
X002639Y-002221D01*
X002653Y-002231D01*
X002670Y-002234D01*
X002682Y-002232D01*
X002689Y-002243D01*
X002689Y-002243D01*
X002686Y-002260D01*
X002689Y-002277D01*
X002699Y-002291D01*
X002713Y-002301D01*
X002730Y-002304D01*
X002747Y-002301D01*
X002761Y-002291D01*
X002771Y-002277D01*
X002774Y-002260D01*
X002771Y-002243D01*
X002761Y-002229D01*
X002747Y-002219D01*
X002730Y-002216D01*
X002718Y-002218D01*
X002711Y-002207D01*
X002711Y-002207D01*
X002714Y-002190D01*
X002711Y-002173D01*
X002701Y-002159D01*
X002687Y-002149D01*
X002670Y-002146D01*
D02*
G37*
G36*
X002510D02*
X002493Y-002149D01*
X002479Y-002159D01*
X002469Y-002173D01*
X002466Y-002190D01*
X002469Y-002207D01*
X002479Y-002221D01*
Y-002229D01*
X002469Y-002243D01*
X002466Y-002260D01*
X002469Y-002277D01*
X002479Y-002291D01*
X002493Y-002301D01*
X002510Y-002304D01*
X002527Y-002301D01*
X002541Y-002291D01*
X002551Y-002277D01*
X002554Y-002260D01*
X002551Y-002243D01*
X002541Y-002229D01*
Y-002221D01*
X002551Y-002207D01*
X002554Y-002190D01*
X002551Y-002173D01*
X002541Y-002159D01*
X002527Y-002149D01*
X002510Y-002146D01*
D02*
G37*
G36*
X002180Y-002466D02*
X002163Y-002469D01*
X002149Y-002479D01*
X002139Y-002493D01*
X002136Y-002510D01*
X002139Y-002527D01*
X002149Y-002541D01*
X002163Y-002551D01*
X002180Y-002554D01*
X002197Y-002551D01*
X002211Y-002541D01*
X002221Y-002527D01*
X002224Y-002510D01*
X002221Y-002493D01*
X002211Y-002479D01*
X002197Y-002469D01*
X002180Y-002466D01*
D02*
G37*
G36*
X004460Y-002596D02*
X004443Y-002599D01*
X004429Y-002609D01*
X004419Y-002623D01*
X004417Y-002637D01*
X004410Y-002636D01*
X004393Y-002639D01*
X004379Y-002649D01*
X004369Y-002663D01*
X004366Y-002680D01*
X004369Y-002697D01*
X004379Y-002711D01*
X004386Y-002716D01*
X004390Y-002732D01*
X004389Y-002733D01*
X004386Y-002750D01*
X004389Y-002767D01*
X004399Y-002781D01*
X004413Y-002791D01*
X004430Y-002794D01*
X004447Y-002791D01*
X004461Y-002781D01*
X004471Y-002767D01*
X004474Y-002750D01*
X004471Y-002733D01*
X004461Y-002719D01*
X004454Y-002714D01*
X004450Y-002698D01*
X004451Y-002697D01*
X004453Y-002683D01*
X004460Y-002684D01*
X004477Y-002681D01*
X004491Y-002671D01*
X004501Y-002657D01*
X004504Y-002640D01*
X004501Y-002623D01*
X004491Y-002609D01*
X004477Y-002599D01*
X004460Y-002596D01*
D02*
G37*
G36*
X003330Y-002446D02*
X003313Y-002449D01*
X003299Y-002459D01*
X003289Y-002473D01*
X003286Y-002490D01*
X003289Y-002507D01*
X003299Y-002521D01*
X003313Y-002531D01*
X003329Y-002534D01*
X003326Y-002550D01*
X003329Y-002567D01*
X003339Y-002581D01*
X003353Y-002591D01*
X003369Y-002594D01*
X003366Y-002610D01*
X003369Y-002627D01*
X003379Y-002641D01*
X003393Y-002651D01*
X003410Y-002654D01*
X003427Y-002651D01*
X003441Y-002641D01*
X003451Y-002627D01*
X003454Y-002610D01*
X003451Y-002593D01*
X003441Y-002579D01*
X003427Y-002569D01*
X003411Y-002566D01*
X003414Y-002550D01*
X003411Y-002533D01*
X003401Y-002519D01*
X003387Y-002509D01*
X003371Y-002506D01*
X003374Y-002490D01*
X003371Y-002473D01*
X003361Y-002459D01*
X003347Y-002449D01*
X003330Y-002446D01*
D02*
G37*
G36*
X002670Y-002596D02*
X002653Y-002599D01*
X002639Y-002609D01*
X002629Y-002623D01*
X002626Y-002640D01*
X002629Y-002657D01*
X002639Y-002671D01*
X002653Y-002681D01*
X002670Y-002684D01*
X002687Y-002681D01*
X002701Y-002671D01*
X002711Y-002657D01*
X002714Y-002640D01*
X002711Y-002623D01*
X002701Y-002609D01*
X002687Y-002599D01*
X002670Y-002596D01*
D02*
G37*
G36*
X002890Y-002426D02*
X002873Y-002429D01*
X002859Y-002439D01*
X002849Y-002453D01*
X002846Y-002470D01*
X002849Y-002486D01*
X002833Y-002489D01*
X002819Y-002499D01*
X002809Y-002513D01*
X002806Y-002530D01*
X002809Y-002546D01*
X002793Y-002549D01*
X002779Y-002559D01*
X002769Y-002573D01*
X002766Y-002590D01*
X002769Y-002606D01*
X002753Y-002609D01*
X002739Y-002619D01*
X002729Y-002633D01*
X002726Y-002650D01*
X002729Y-002667D01*
X002739Y-002681D01*
X002753Y-002691D01*
X002770Y-002694D01*
X002787Y-002691D01*
X002801Y-002681D01*
X002811Y-002667D01*
X002814Y-002650D01*
X002811Y-002634D01*
X002827Y-002631D01*
X002841Y-002621D01*
X002851Y-002607D01*
X002854Y-002590D01*
X002851Y-002574D01*
X002867Y-002571D01*
X002881Y-002561D01*
X002891Y-002547D01*
X002894Y-002530D01*
X002891Y-002514D01*
X002907Y-002511D01*
X002914Y-002506D01*
X002928Y-002512D01*
X002929Y-002517D01*
X002939Y-002531D01*
X002953Y-002541D01*
X002967Y-002543D01*
X002966Y-002550D01*
X002969Y-002567D01*
X002979Y-002581D01*
X002993Y-002591D01*
X003009Y-002594D01*
X003006Y-002610D01*
X003009Y-002627D01*
X003019Y-002641D01*
X003033Y-002651D01*
X003049Y-002654D01*
X003046Y-002670D01*
X003049Y-002687D01*
X003059Y-002701D01*
X003073Y-002711D01*
X003090Y-002714D01*
X003107Y-002711D01*
X003121Y-002701D01*
X003131Y-002687D01*
X003134Y-002670D01*
X003131Y-002653D01*
X003121Y-002639D01*
X003107Y-002629D01*
X003091Y-002626D01*
X003094Y-002610D01*
X003091Y-002593D01*
X003081Y-002579D01*
X003067Y-002569D01*
X003051Y-002566D01*
X003054Y-002550D01*
X003051Y-002533D01*
X003041Y-002519D01*
X003027Y-002509D01*
X003013Y-002507D01*
X003014Y-002500D01*
X003011Y-002483D01*
X003001Y-002469D01*
X002987Y-002459D01*
X002970Y-002456D01*
X002953Y-002459D01*
X002946Y-002464D01*
X002932Y-002458D01*
X002931Y-002453D01*
X002921Y-002439D01*
X002907Y-002429D01*
X002890Y-002426D01*
D02*
G37*
G36*
X001590Y-002636D02*
X001573Y-002639D01*
X001559Y-002649D01*
X001549Y-002663D01*
X001546Y-002680D01*
X001549Y-002697D01*
X001559Y-002711D01*
X001573Y-002721D01*
X001590Y-002724D01*
X001607Y-002721D01*
X001621Y-002711D01*
X001631Y-002697D01*
X001634Y-002680D01*
X001631Y-002663D01*
X001621Y-002649D01*
X001607Y-002639D01*
X001590Y-002636D01*
D02*
G37*
G36*
X002406Y-002612D02*
X002389Y-002615D01*
X002375Y-002625D01*
X002365Y-002639D01*
X002362Y-002656D01*
X002365Y-002673D01*
X002375Y-002687D01*
Y-002695D01*
X002369Y-002699D01*
X002359Y-002713D01*
X002356Y-002730D01*
X002359Y-002747D01*
X002369Y-002761D01*
X002383Y-002771D01*
X002400Y-002774D01*
X002417Y-002771D01*
X002431Y-002761D01*
X002441Y-002747D01*
X002444Y-002730D01*
X002441Y-002713D01*
X002431Y-002699D01*
Y-002691D01*
X002437Y-002687D01*
X002447Y-002673D01*
X002450Y-002656D01*
X002447Y-002639D01*
X002437Y-002625D01*
X002423Y-002615D01*
X002406Y-002612D01*
D02*
G37*
G36*
X003986Y-002702D02*
X003969Y-002705D01*
X003955Y-002715D01*
X003945Y-002729D01*
X003942Y-002746D01*
X003945Y-002763D01*
X003955Y-002777D01*
X003969Y-002787D01*
X003986Y-002790D01*
X004003Y-002787D01*
X004017Y-002777D01*
X004027Y-002763D01*
X004030Y-002746D01*
X004027Y-002729D01*
X004017Y-002715D01*
X004003Y-002705D01*
X003986Y-002702D01*
D02*
G37*
G36*
X003830Y-002716D02*
X003813Y-002719D01*
X003799Y-002729D01*
X003789Y-002743D01*
X003786Y-002760D01*
X003789Y-002777D01*
X003799Y-002791D01*
X003813Y-002801D01*
X003830Y-002804D01*
X003847Y-002801D01*
X003861Y-002791D01*
X003871Y-002777D01*
X003874Y-002760D01*
X003871Y-002743D01*
X003861Y-002729D01*
X003847Y-002719D01*
X003830Y-002716D01*
D02*
G37*
G36*
X002710D02*
X002693Y-002719D01*
X002679Y-002729D01*
X002669Y-002743D01*
X002666Y-002760D01*
X002669Y-002777D01*
X002679Y-002791D01*
X002693Y-002801D01*
X002710Y-002804D01*
X002727Y-002801D01*
X002741Y-002791D01*
X002751Y-002777D01*
X002754Y-002760D01*
X002751Y-002743D01*
X002741Y-002729D01*
X002727Y-002719D01*
X002710Y-002716D01*
D02*
G37*
G36*
X005320Y-002766D02*
X005303Y-002769D01*
X005289Y-002779D01*
X005279Y-002793D01*
X005276Y-002810D01*
X005279Y-002827D01*
X005289Y-002841D01*
X005303Y-002851D01*
X005320Y-002854D01*
X005337Y-002851D01*
X005351Y-002841D01*
X005361Y-002827D01*
X005364Y-002810D01*
X005361Y-002793D01*
X005351Y-002779D01*
X005337Y-002769D01*
X005320Y-002766D01*
D02*
G37*
G36*
X001380Y-002796D02*
X001363Y-002799D01*
X001349Y-002809D01*
X001339Y-002823D01*
X001336Y-002840D01*
X001339Y-002857D01*
X001349Y-002871D01*
X001363Y-002881D01*
X001380Y-002884D01*
X001397Y-002881D01*
X001411Y-002871D01*
X001421Y-002857D01*
X001424Y-002840D01*
X001421Y-002823D01*
X001411Y-002809D01*
X001397Y-002799D01*
X001380Y-002796D01*
D02*
G37*
G36*
X004060Y-002856D02*
X004043Y-002859D01*
X004029Y-002869D01*
X004019Y-002883D01*
X004016Y-002900D01*
X004019Y-002917D01*
X004029Y-002931D01*
X004043Y-002941D01*
X004060Y-002944D01*
X004077Y-002941D01*
X004091Y-002931D01*
X004101Y-002917D01*
X004104Y-002900D01*
X004101Y-002883D01*
X004091Y-002869D01*
X004077Y-002859D01*
X004060Y-002856D01*
D02*
G37*
G36*
X002264Y-002870D02*
X002247Y-002873D01*
X002233Y-002883D01*
X002223Y-002897D01*
X002220Y-002914D01*
X002223Y-002931D01*
X002233Y-002945D01*
X002247Y-002955D01*
X002264Y-002958D01*
X002281Y-002955D01*
X002295Y-002945D01*
X002305Y-002931D01*
X002308Y-002914D01*
X002305Y-002897D01*
X002295Y-002883D01*
X002281Y-002873D01*
X002264Y-002870D01*
D02*
G37*
G36*
X003670Y-002876D02*
X003653Y-002879D01*
X003639Y-002889D01*
X003629Y-002903D01*
X003626Y-002920D01*
X003629Y-002937D01*
X003639Y-002951D01*
X003653Y-002961D01*
X003670Y-002964D01*
X003687Y-002961D01*
X003701Y-002951D01*
X003711Y-002937D01*
X003714Y-002920D01*
X003711Y-002903D01*
X003701Y-002889D01*
X003687Y-002879D01*
X003670Y-002876D01*
D02*
G37*
G36*
X002870D02*
X002853Y-002879D01*
X002839Y-002889D01*
X002829Y-002903D01*
X002826Y-002920D01*
X002829Y-002937D01*
X002839Y-002951D01*
X002853Y-002961D01*
X002870Y-002964D01*
X002887Y-002961D01*
X002901Y-002951D01*
X002911Y-002937D01*
X002914Y-002920D01*
X002911Y-002903D01*
X002901Y-002889D01*
X002887Y-002879D01*
X002870Y-002876D01*
D02*
G37*
G36*
X001890Y-002956D02*
X001873Y-002959D01*
X001859Y-002969D01*
X001849Y-002983D01*
X001846Y-003000D01*
X001849Y-003017D01*
X001859Y-003031D01*
X001873Y-003041D01*
X001890Y-003044D01*
X001907Y-003041D01*
X001921Y-003031D01*
X001931Y-003017D01*
X001934Y-003000D01*
X001931Y-002983D01*
X001921Y-002969D01*
X001907Y-002959D01*
X001890Y-002956D01*
D02*
G37*
G36*
X003030D02*
X003013Y-002959D01*
X002999Y-002969D01*
X002989Y-002983D01*
X002986Y-003000D01*
X002989Y-003017D01*
X002999Y-003031D01*
X002999Y-003031D01*
X003000Y-003045D01*
X002995Y-003050D01*
X002981Y-003049D01*
X002981Y-003049D01*
X002967Y-003039D01*
X002950Y-003036D01*
X002933Y-003039D01*
X002919Y-003049D01*
X002909Y-003063D01*
X002906Y-003080D01*
X002909Y-003097D01*
X002919Y-003111D01*
X002933Y-003121D01*
X002950Y-003124D01*
X002967Y-003121D01*
X002981Y-003111D01*
X002984Y-003107D01*
X002996D01*
X002999Y-003111D01*
X003013Y-003121D01*
X003030Y-003124D01*
X003047Y-003121D01*
X003061Y-003111D01*
X003064Y-003107D01*
X003076D01*
X003079Y-003111D01*
X003083Y-003114D01*
Y-003126D01*
X003079Y-003129D01*
X003069Y-003143D01*
X003066Y-003160D01*
X003069Y-003177D01*
X003079Y-003191D01*
X003093Y-003201D01*
X003110Y-003204D01*
X003127Y-003201D01*
X003141Y-003191D01*
X003151Y-003177D01*
X003154Y-003160D01*
X003151Y-003143D01*
X003141Y-003129D01*
X003137Y-003126D01*
Y-003114D01*
X003141Y-003111D01*
X003151Y-003097D01*
X003154Y-003080D01*
X003151Y-003063D01*
X003141Y-003049D01*
X003127Y-003039D01*
X003110Y-003036D01*
X003093Y-003039D01*
X003079Y-003049D01*
X003076Y-003053D01*
X003064D01*
X003061Y-003049D01*
X003057Y-003046D01*
Y-003034D01*
X003061Y-003031D01*
X003071Y-003017D01*
X003074Y-003000D01*
X003071Y-002983D01*
X003061Y-002969D01*
X003047Y-002959D01*
X003030Y-002956D01*
D02*
G37*
G36*
X003510D02*
X003493Y-002959D01*
X003479Y-002969D01*
X003469Y-002983D01*
X003466Y-003000D01*
X003469Y-003017D01*
X003479Y-003031D01*
X003483Y-003034D01*
Y-003046D01*
X003479Y-003049D01*
X003469Y-003063D01*
X003466Y-003080D01*
X003469Y-003097D01*
X003479Y-003111D01*
X003483Y-003114D01*
Y-003126D01*
X003479Y-003129D01*
X003476Y-003133D01*
X003464D01*
X003461Y-003129D01*
X003447Y-003119D01*
X003430Y-003116D01*
X003413Y-003119D01*
X003399Y-003129D01*
X003389Y-003143D01*
X003386Y-003160D01*
X003389Y-003177D01*
X003399Y-003191D01*
X003413Y-003201D01*
X003430Y-003204D01*
X003447Y-003201D01*
X003461Y-003191D01*
X003464Y-003187D01*
X003476D01*
X003479Y-003191D01*
X003493Y-003201D01*
X003510Y-003204D01*
X003527Y-003201D01*
X003541Y-003191D01*
X003551Y-003177D01*
X003554Y-003160D01*
X003551Y-003143D01*
X003541Y-003129D01*
X003537Y-003126D01*
Y-003114D01*
X003541Y-003111D01*
X003544Y-003107D01*
X003556D01*
X003559Y-003111D01*
X003573Y-003121D01*
X003590Y-003124D01*
X003607Y-003121D01*
X003621Y-003111D01*
X003631Y-003097D01*
X003634Y-003080D01*
X003631Y-003063D01*
X003621Y-003049D01*
X003607Y-003039D01*
X003590Y-003036D01*
X003573Y-003039D01*
X003559Y-003049D01*
X003556Y-003053D01*
X003544D01*
X003541Y-003049D01*
X003537Y-003046D01*
Y-003034D01*
X003541Y-003031D01*
X003551Y-003017D01*
X003554Y-003000D01*
X003551Y-002983D01*
X003541Y-002969D01*
X003527Y-002959D01*
X003510Y-002956D01*
D02*
G37*
G36*
X004590Y-003126D02*
X004573Y-003129D01*
X004559Y-003139D01*
X004549Y-003153D01*
X004546Y-003170D01*
X004549Y-003187D01*
X004559Y-003201D01*
X004573Y-003211D01*
X004590Y-003214D01*
X004607Y-003211D01*
X004621Y-003201D01*
X004631Y-003187D01*
X004634Y-003170D01*
X004631Y-003153D01*
X004621Y-003139D01*
X004607Y-003129D01*
X004590Y-003126D01*
D02*
G37*
G36*
X003270Y-003116D02*
X003253Y-003119D01*
X003239Y-003129D01*
X003229Y-003143D01*
X003226Y-003160D01*
X003229Y-003177D01*
X003239Y-003191D01*
X003243Y-003194D01*
Y-003206D01*
X003239Y-003209D01*
X003229Y-003223D01*
X003226Y-003240D01*
X003229Y-003257D01*
X003239Y-003271D01*
X003253Y-003281D01*
X003270Y-003284D01*
X003287Y-003281D01*
X003301Y-003271D01*
X003311Y-003257D01*
X003314Y-003240D01*
X003311Y-003223D01*
X003301Y-003209D01*
X003297Y-003206D01*
Y-003194D01*
X003301Y-003191D01*
X003311Y-003177D01*
X003314Y-003160D01*
X003311Y-003143D01*
X003301Y-003129D01*
X003287Y-003119D01*
X003270Y-003116D01*
D02*
G37*
G36*
X003190Y-003276D02*
X003173Y-003279D01*
X003159Y-003289D01*
X003156Y-003293D01*
X003144D01*
X003141Y-003289D01*
X003127Y-003279D01*
X003110Y-003276D01*
X003093Y-003279D01*
X003079Y-003289D01*
X003069Y-003303D01*
X003066Y-003320D01*
X003069Y-003337D01*
X003079Y-003351D01*
X003093Y-003361D01*
X003110Y-003364D01*
X003127Y-003361D01*
X003141Y-003351D01*
X003144Y-003347D01*
X003156D01*
X003159Y-003351D01*
X003173Y-003361D01*
X003190Y-003364D01*
X003207Y-003361D01*
X003221Y-003351D01*
X003231Y-003337D01*
X003234Y-003320D01*
X003231Y-003303D01*
X003221Y-003289D01*
X003207Y-003279D01*
X003190Y-003276D01*
D02*
G37*
G36*
X003430D02*
X003413Y-003279D01*
X003399Y-003289D01*
X003396Y-003293D01*
X003384D01*
X003381Y-003289D01*
X003367Y-003279D01*
X003350Y-003276D01*
X003333Y-003279D01*
X003319Y-003289D01*
X003309Y-003303D01*
X003306Y-003320D01*
X003309Y-003337D01*
X003319Y-003351D01*
X003333Y-003361D01*
X003350Y-003364D01*
X003367Y-003361D01*
X003381Y-003351D01*
X003384Y-003347D01*
X003396D01*
X003399Y-003351D01*
X003413Y-003361D01*
X003430Y-003364D01*
X003447Y-003361D01*
X003461Y-003351D01*
X003471Y-003337D01*
X003474Y-003320D01*
X003471Y-003303D01*
X003461Y-003289D01*
X003447Y-003279D01*
X003430Y-003276D01*
D02*
G37*
G36*
X003670Y-003276D02*
X003653Y-003279D01*
X003639Y-003289D01*
X003629Y-003303D01*
X003626Y-003320D01*
X003629Y-003337D01*
X003639Y-003351D01*
X003653Y-003361D01*
X003670Y-003364D01*
X003687Y-003361D01*
X003701Y-003351D01*
X003711Y-003337D01*
X003714Y-003320D01*
X003711Y-003303D01*
X003701Y-003289D01*
X003687Y-003279D01*
X003670Y-003276D01*
D02*
G37*
G36*
X002870D02*
X002853Y-003279D01*
X002839Y-003289D01*
X002829Y-003303D01*
X002826Y-003320D01*
X002829Y-003337D01*
X002839Y-003351D01*
X002853Y-003361D01*
X002870Y-003364D01*
X002887Y-003361D01*
X002901Y-003351D01*
X002911Y-003337D01*
X002914Y-003320D01*
X002911Y-003303D01*
X002901Y-003289D01*
X002887Y-003279D01*
X002870Y-003276D01*
D02*
G37*
G36*
X004440Y-003326D02*
X004423Y-003329D01*
X004409Y-003339D01*
X004399Y-003353D01*
X004396Y-003370D01*
X004399Y-003387D01*
X004409Y-003401D01*
X004423Y-003411D01*
X004440Y-003414D01*
X004457Y-003411D01*
X004471Y-003401D01*
X004481Y-003387D01*
X004484Y-003370D01*
X004481Y-003353D01*
X004471Y-003339D01*
X004457Y-003329D01*
X004440Y-003326D01*
D02*
G37*
G36*
X003110Y-003436D02*
X003093Y-003439D01*
X003079Y-003449D01*
X003076Y-003453D01*
X003064D01*
X003061Y-003449D01*
X003047Y-003439D01*
X003030Y-003436D01*
X003013Y-003439D01*
X002999Y-003449D01*
X002989Y-003463D01*
X002986Y-003480D01*
X002989Y-003497D01*
X002999Y-003511D01*
X002999Y-003511D01*
X003000Y-003525D01*
X002995Y-003530D01*
X002981Y-003529D01*
X002981Y-003529D01*
X002967Y-003519D01*
X002950Y-003516D01*
X002933Y-003519D01*
X002919Y-003529D01*
X002909Y-003543D01*
X002906Y-003560D01*
X002909Y-003577D01*
X002919Y-003591D01*
X002933Y-003601D01*
X002950Y-003604D01*
X002967Y-003601D01*
X002981Y-003591D01*
X002984Y-003587D01*
X002996D01*
X002999Y-003591D01*
X003003Y-003594D01*
Y-003606D01*
X002999Y-003609D01*
X002989Y-003623D01*
X002986Y-003640D01*
X002989Y-003657D01*
X002999Y-003671D01*
X003013Y-003681D01*
X003030Y-003684D01*
X003047Y-003681D01*
X003061Y-003671D01*
X003071Y-003657D01*
X003074Y-003640D01*
X003071Y-003623D01*
X003061Y-003609D01*
X003057Y-003606D01*
Y-003594D01*
X003061Y-003591D01*
X003071Y-003577D01*
X003074Y-003560D01*
X003071Y-003543D01*
X003061Y-003529D01*
X003061Y-003529D01*
X003060Y-003515D01*
X003065Y-003510D01*
X003079Y-003511D01*
X003079Y-003511D01*
X003093Y-003521D01*
X003110Y-003524D01*
X003127Y-003521D01*
X003141Y-003511D01*
X003151Y-003497D01*
X003154Y-003480D01*
X003151Y-003463D01*
X003141Y-003449D01*
X003127Y-003439D01*
X003110Y-003436D01*
D02*
G37*
G36*
X004080Y-003406D02*
X004063Y-003409D01*
X004049Y-003419D01*
X004039Y-003433D01*
X004036Y-003450D01*
X004039Y-003467D01*
X004049Y-003481D01*
X004063Y-003491D01*
X004080Y-003494D01*
X004097Y-003491D01*
X004111Y-003481D01*
X004121Y-003467D01*
X004124Y-003450D01*
X004121Y-003433D01*
X004111Y-003419D01*
X004097Y-003409D01*
X004080Y-003406D01*
D02*
G37*
G36*
X004220Y-003416D02*
X004203Y-003419D01*
X004189Y-003429D01*
X004179Y-003443D01*
X004176Y-003460D01*
X004179Y-003477D01*
X004189Y-003491D01*
X004203Y-003501D01*
X004220Y-003504D01*
X004237Y-003501D01*
X004251Y-003491D01*
X004261Y-003477D01*
X004264Y-003460D01*
X004261Y-003443D01*
X004251Y-003429D01*
X004237Y-003419D01*
X004220Y-003416D01*
D02*
G37*
G36*
X003270Y-003356D02*
X003253Y-003359D01*
X003239Y-003369D01*
X003229Y-003383D01*
X003226Y-003400D01*
X003229Y-003417D01*
X003239Y-003431D01*
X003243Y-003434D01*
Y-003446D01*
X003239Y-003449D01*
X003229Y-003463D01*
X003226Y-003480D01*
X003229Y-003497D01*
X003239Y-003511D01*
X003253Y-003521D01*
X003270Y-003524D01*
X003287Y-003521D01*
X003301Y-003511D01*
X003311Y-003497D01*
X003314Y-003480D01*
X003311Y-003463D01*
X003301Y-003449D01*
X003297Y-003446D01*
Y-003434D01*
X003301Y-003431D01*
X003311Y-003417D01*
X003314Y-003400D01*
X003311Y-003383D01*
X003301Y-003369D01*
X003287Y-003359D01*
X003270Y-003356D01*
D02*
G37*
G36*
X003430Y-003436D02*
X003413Y-003439D01*
X003399Y-003449D01*
X003389Y-003463D01*
X003386Y-003480D01*
X003389Y-003497D01*
X003399Y-003511D01*
X003403Y-003514D01*
Y-003526D01*
X003399Y-003529D01*
X003389Y-003543D01*
X003386Y-003560D01*
X003389Y-003577D01*
X003399Y-003591D01*
X003413Y-003601D01*
X003430Y-003604D01*
X003447Y-003601D01*
X003461Y-003591D01*
X003464Y-003587D01*
X003476D01*
X003479Y-003591D01*
X003483Y-003594D01*
Y-003606D01*
X003479Y-003609D01*
X003469Y-003623D01*
X003466Y-003640D01*
X003469Y-003657D01*
X003479Y-003671D01*
X003493Y-003681D01*
X003510Y-003684D01*
X003527Y-003681D01*
X003541Y-003671D01*
X003551Y-003657D01*
X003554Y-003640D01*
X003551Y-003623D01*
X003541Y-003609D01*
X003537Y-003606D01*
Y-003594D01*
X003541Y-003591D01*
X003544Y-003587D01*
X003556D01*
X003559Y-003591D01*
X003573Y-003601D01*
X003590Y-003604D01*
X003607Y-003601D01*
X003621Y-003591D01*
X003631Y-003577D01*
X003634Y-003560D01*
X003631Y-003543D01*
X003621Y-003529D01*
X003607Y-003519D01*
X003590Y-003516D01*
X003573Y-003519D01*
X003559Y-003529D01*
X003556Y-003533D01*
X003544D01*
X003541Y-003529D01*
X003527Y-003519D01*
X003510Y-003516D01*
X003493Y-003519D01*
X003479Y-003529D01*
X003476Y-003533D01*
X003464D01*
X003461Y-003529D01*
X003457Y-003526D01*
Y-003514D01*
X003461Y-003511D01*
X003471Y-003497D01*
X003474Y-003480D01*
X003471Y-003463D01*
X003461Y-003449D01*
X003447Y-003439D01*
X003430Y-003436D01*
D02*
G37*
G36*
X004340Y-003676D02*
X004323Y-003679D01*
X004309Y-003689D01*
X004299Y-003703D01*
X004296Y-003720D01*
X004299Y-003737D01*
X004309Y-003751D01*
X004323Y-003761D01*
X004340Y-003764D01*
X004357Y-003761D01*
X004371Y-003751D01*
X004381Y-003737D01*
X004384Y-003720D01*
X004381Y-003703D01*
X004371Y-003689D01*
X004357Y-003679D01*
X004340Y-003676D01*
D02*
G37*
G36*
X003270D02*
X003253Y-003679D01*
X003239Y-003689D01*
X003229Y-003703D01*
X003226Y-003720D01*
X003229Y-003737D01*
X003239Y-003751D01*
X003253Y-003761D01*
X003270Y-003764D01*
X003287Y-003761D01*
X003301Y-003751D01*
X003311Y-003737D01*
X003314Y-003720D01*
X003311Y-003703D01*
X003301Y-003689D01*
X003287Y-003679D01*
X003270Y-003676D01*
D02*
G37*
G36*
X003670Y-003676D02*
X003653Y-003679D01*
X003639Y-003689D01*
X003629Y-003703D01*
X003626Y-003720D01*
X003629Y-003737D01*
X003639Y-003751D01*
X003653Y-003761D01*
X003670Y-003764D01*
X003687Y-003761D01*
X003701Y-003751D01*
X003711Y-003737D01*
X003714Y-003720D01*
X003711Y-003703D01*
X003701Y-003689D01*
X003687Y-003679D01*
X003670Y-003676D01*
D02*
G37*
G36*
X002870D02*
X002853Y-003679D01*
X002839Y-003689D01*
X002829Y-003703D01*
X002826Y-003720D01*
X002829Y-003737D01*
X002839Y-003751D01*
X002853Y-003761D01*
X002870Y-003764D01*
X002887Y-003761D01*
X002901Y-003751D01*
X002911Y-003737D01*
X002914Y-003720D01*
X002911Y-003703D01*
X002901Y-003689D01*
X002887Y-003679D01*
X002870Y-003676D01*
D02*
G37*
%LPD*%
D15*
X004020Y-002470D02*
Y-002460D01*
Y-002470D02*
X004070Y-002520D01*
X004280D01*
X004490Y-002310D01*
Y-002170D01*
X004540Y-002120D01*
X004930D01*
X005050Y-002240D01*
D108*
X001720Y-002530D02*
Y-002230D01*
X001830Y-002120D01*
Y-001520D01*
X002570Y-000780D01*
X002700D01*
X003110Y-002920D02*
X003190Y-002840D01*
X003430D01*
X003790Y-002380D02*
Y-002030D01*
Y-002430D02*
Y-002380D01*
X003430Y-002920D02*
Y-002840D01*
X003570Y-002700D01*
Y-002440D01*
X003630Y-002380D01*
X003790D01*
X004680Y-002210D02*
X004710D01*
X004310Y-002580D02*
X004680Y-002210D01*
X003940Y-002580D02*
X004310D01*
X003790Y-002430D02*
X003940Y-002580D01*
X003750Y-001990D02*
X003790Y-002030D01*
X003750Y-001990D02*
Y-001810D01*
X004250Y-002460D02*
X004430Y-002280D01*
X004910Y-002060D02*
X004912Y-002058D01*
X004430Y-002060D02*
X004910D01*
X004430Y-002280D02*
Y-002060D01*
Y-001770D01*
X004912Y-002058D02*
X004960Y-002010D01*
X005370D01*
X005426Y-002066D01*
D114*
X000770Y-004424D02*
D03*
X004970D02*
D03*
D121*
X000920Y-002520D02*
D03*
X-000280Y-001420D02*
D03*
X-000160D02*
D03*
X-000040D02*
D03*
X-000280Y-001300D02*
D03*
X-000160D02*
D03*
X-000040D02*
D03*
X-000340Y-001360D02*
D03*
X-000220D02*
D03*
X-000100D02*
D03*
X000020D02*
D03*
X001316Y-002974D02*
D03*
X001254D02*
D03*
X000685Y-002785D02*
D03*
X000556Y-002974D02*
D03*
X001720Y-002530D02*
D03*
X002700Y-000780D02*
D03*
X004710Y-002210D02*
D03*
X003750Y-001990D02*
D03*
Y-001810D02*
D03*
X004912Y-002058D02*
D03*
X005426Y-002066D02*
D03*
X004250Y-000500D02*
D03*
X004170D02*
D03*
X004250Y-000280D02*
D03*
X004170D02*
D03*
X001320Y-000440D02*
D03*
X000920Y-002400D02*
D03*
Y-002220D02*
D03*
X001470Y-002060D02*
D03*
X001370D02*
D03*
X001220D02*
D03*
X001120D02*
D03*
X000020Y-001300D02*
D03*
Y-001420D02*
D03*
X-000040Y-001360D02*
D03*
X-000100Y-001420D02*
D03*
Y-001300D02*
D03*
X-000160Y-001360D02*
D03*
X-000220Y-001420D02*
D03*
Y-001300D02*
D03*
X-000280Y-001360D02*
D03*
X-000340Y-001420D02*
D03*
Y-001300D02*
D03*
X005226Y-003706D02*
D03*
X005894Y-003446D02*
D03*
X004870Y-003700D02*
D03*
X003110Y-002920D02*
D03*
X003430D02*
D03*
X001940Y-002750D02*
D03*
X001900Y-004120D02*
D03*
X005822Y-002188D02*
D03*
X004430Y-001770D02*
D03*
X004250Y-002460D02*
D03*
X004020D02*
D03*
X005050Y-002240D02*
D03*
X005290Y-003340D02*
D03*
M02*
