G04*
G04 #@! TF.GenerationSoftware,Altium Limited,Altium Designer,19.0.15 (446)*
G04*
G04 Layer_Physical_Order=1*
G04 Layer_Color=255*
%FSAX42Y42*%
%MOMM*%
G71*
G01*
G75*
%ADD11C,0.25*%
%ADD15C,0.20*%
%ADD19R,0.60X0.75*%
%ADD20R,0.75X0.60*%
%ADD21R,0.60X0.64*%
%ADD22R,0.30X0.60*%
%ADD23R,0.90X1.00*%
%ADD24R,0.25X0.68*%
%ADD25R,0.68X0.25*%
%ADD26R,0.64X0.60*%
%ADD27R,0.60X1.10*%
%ADD28R,0.60X1.50*%
%ADD29R,0.29X0.53*%
%ADD30R,0.85X0.65*%
%ADD31R,0.85X0.95*%
%ADD32R,2.00X0.60*%
%ADD33R,4.20X0.70*%
%ADD34R,0.30X0.52*%
%ADD35C,0.40*%
%ADD36R,1.90X1.80*%
G04:AMPARAMS|DCode=37|XSize=1.6mm|YSize=1.4mm|CornerRadius=0.35mm|HoleSize=0mm|Usage=FLASHONLY|Rotation=180.000|XOffset=0mm|YOffset=0mm|HoleType=Round|Shape=RoundedRectangle|*
%AMROUNDEDRECTD37*
21,1,1.60,0.70,0,0,180.0*
21,1,0.90,1.40,0,0,180.0*
1,1,0.70,-0.45,0.35*
1,1,0.70,0.45,0.35*
1,1,0.70,0.45,-0.35*
1,1,0.70,-0.45,-0.35*
%
%ADD37ROUNDEDRECTD37*%
%ADD38O,0.40X1.35*%
%ADD39R,1.05X1.40*%
%ADD40R,1.00X0.90*%
%ADD41R,0.70X1.20*%
%ADD42R,1.00X1.20*%
%ADD43R,1.00X0.80*%
%ADD44R,1.00X2.80*%
%ADD45R,1.30X1.90*%
%ADD46R,0.80X0.80*%
%ADD47R,0.80X0.80*%
%ADD48R,0.65X0.95*%
%ADD49R,0.85X0.25*%
%ADD50R,1.58X2.48*%
%ADD51R,1.00X1.00*%
%ADD52R,1.00X1.00*%
%ADD53R,0.95X0.85*%
%ADD54R,4.06X1.91*%
%ADD108C,0.51*%
%ADD109C,0.64*%
%ADD110C,0.15*%
%ADD111C,0.38*%
%ADD112C,0.30*%
%ADD113C,1.45*%
%ADD114C,0.65*%
%ADD115O,1.15X0.65*%
%ADD116C,0.60*%
%ADD117O,1.00X1.60*%
%ADD118O,1.00X2.56*%
%ADD119O,0.90X1.60*%
%ADD120C,2.90*%
%ADD121C,0.46*%
D11*
X005426Y-002066D02*
Y-001990D01*
X005424Y-001988D02*
X005426Y-001990D01*
X005300Y-001988D02*
X005424D01*
X004422Y-001833D02*
X004540D01*
X005880Y-002073D02*
Y-001915D01*
X000860Y-000562D02*
X000860Y-000562D01*
X000860Y-000562D02*
Y-000490D01*
X000910Y-000562D02*
X000925Y-000547D01*
Y-000495D01*
X005853Y-002340D02*
X005940D01*
X004430Y-001824D02*
Y-001770D01*
X004414Y-001840D02*
X004422Y-001833D01*
X004430Y-001824D01*
D15*
X001908Y-000656D02*
X001920Y-000668D01*
X001840Y-000656D02*
X001908D01*
X001680Y-001080D02*
X001683Y-001082D01*
Y-001112D02*
Y-001082D01*
X000600Y-000612D02*
Y-000500D01*
X001100Y-002620D02*
X001890Y-001830D01*
X000440Y-002620D02*
X001100D01*
X000340Y-002720D02*
X000440Y-002620D01*
X001080Y-002580D02*
X001990Y-001670D01*
X000253Y-002580D02*
X001080D01*
X000233Y-002560D02*
X000253Y-002580D01*
X000020Y-002110D02*
X000150D01*
X-000040D02*
X000020D01*
X-000100D02*
X-000040D01*
X-000160D02*
X-000100D01*
X-000170D02*
X-000160D01*
X000150D02*
X000520Y-002480D01*
X000740D01*
X000800Y-002420D01*
Y-002310D01*
X000340Y-003050D02*
Y-002720D01*
X000020Y-001610D02*
X000680D01*
X-000040D02*
X000020D01*
X-000100D02*
X-000040D01*
X-000160D02*
X-000100D01*
X-000170D02*
X-000160D01*
X002167Y-002512D02*
X002250D01*
X000233Y-003790D02*
Y-003430D01*
X001010Y-002820D02*
X001200D01*
X000860Y-002970D02*
X001010Y-002820D01*
X000860Y-003400D02*
Y-002970D01*
X000990Y-002780D02*
X001180D01*
X000820Y-002950D02*
X000990Y-002780D01*
X000820Y-003370D02*
Y-002950D01*
X000970Y-002740D02*
X001160D01*
X000780Y-002930D02*
X000970Y-002740D01*
X000780Y-003350D02*
Y-002930D01*
X001200Y-002820D02*
X001720Y-002300D01*
X001180Y-002780D02*
X001680Y-002280D01*
X001160Y-002740D02*
X001640Y-002260D01*
X001720Y-002300D02*
Y-002240D01*
X001680Y-002280D02*
Y-002220D01*
X001640Y-002260D02*
Y-002200D01*
X002170Y-002510D02*
X002180D01*
X002167Y-002512D02*
X002170Y-002510D01*
X002700Y-000780D02*
Y-000657D01*
X004708Y-002100D02*
X004710Y-002102D01*
Y-002210D02*
Y-002102D01*
X004520Y-002660D02*
Y-002620D01*
X004430Y-002750D02*
X004520Y-002660D01*
X004420Y-002520D02*
X004520Y-002620D01*
X004420Y-002520D02*
Y-002150D01*
X004380Y-002560D02*
X004460Y-002640D01*
X004340Y-002610D02*
X004410Y-002680D01*
X004340Y-002610D02*
Y-002190D01*
X003750Y-002077D02*
X003753Y-002080D01*
X003750Y-002077D02*
Y-001990D01*
X002650Y-000607D02*
X002700Y-000657D01*
X003870Y-001330D02*
Y-000500D01*
Y-001330D02*
X003890Y-001350D01*
X005300Y-001833D02*
X005370D01*
X004590Y-001880D02*
Y-001833D01*
X005250Y-002070D02*
X005260Y-002080D01*
X005250Y-002070D02*
Y-001988D01*
X005167Y-002160D02*
X005180Y-002148D01*
Y-002080D01*
X005190D01*
X005200Y-002070D01*
X005108Y-002080D02*
X005140Y-002048D01*
X004890Y-002120D02*
X004940D01*
X004980Y-002080D02*
X005108D01*
X004940Y-002120D02*
X004980Y-002080D01*
X005162Y-001988D02*
X005200D01*
X005140Y-002010D02*
X005162Y-001988D01*
X005140Y-002048D02*
Y-002010D01*
X005200Y-002070D02*
Y-001988D01*
X004830Y-002060D02*
X004890Y-002120D01*
X004830Y-002060D02*
Y-001740D01*
X004800Y-001710D02*
X004830Y-001740D01*
X004800Y-001710D02*
Y-001670D01*
X004780Y-001650D02*
X004800Y-001670D01*
X005100Y-001860D02*
Y-001780D01*
X005020Y-001700D02*
X005100Y-001780D01*
X005020Y-001700D02*
Y-001670D01*
X005100Y-001860D02*
X005150Y-001910D01*
X005220D01*
X005000Y-001650D02*
X005020Y-001670D01*
X005514Y-002066D02*
Y-001990D01*
X003410Y-002310D02*
X003590Y-002490D01*
X003370Y-002330D02*
X003550Y-002510D01*
X003270Y-002430D02*
X003350D01*
X003110Y-002270D02*
X003270Y-002430D01*
X003110Y-002270D02*
Y-002190D01*
X003290Y-002390D02*
X003370D01*
X003250Y-002350D02*
X003290Y-002390D01*
X003250Y-002350D02*
Y-002210D01*
X003270Y-002190D01*
X003350Y-002430D02*
X003470Y-002550D01*
X002910Y-002180D02*
Y-000580D01*
Y-002180D02*
X003270Y-002540D01*
Y-002680D02*
Y-002540D01*
X003230Y-002720D02*
Y-002560D01*
X002870Y-002200D02*
X003230Y-002560D01*
X003190Y-002680D02*
Y-002580D01*
X003150Y-002720D02*
Y-002600D01*
X002750Y-000460D02*
X002770Y-000440D01*
Y-000260D01*
X002910Y-000580D02*
X002950Y-000540D01*
Y-000460D01*
X002930Y-000440D02*
X002950Y-000460D01*
X002930Y-000440D02*
Y-000260D01*
X002870Y-000560D02*
X002910Y-000520D01*
Y-000480D01*
X002880Y-000450D02*
X002910Y-000480D01*
X002880Y-000450D02*
Y-000300D01*
X002790Y-000480D02*
X002820Y-000450D01*
Y-000300D01*
X005280Y-001910D02*
X005370D01*
X005250Y-001880D02*
X005280Y-001910D01*
X005250Y-001880D02*
Y-001833D01*
Y-001988D02*
Y-001940D01*
X005220Y-001910D02*
X005250Y-001940D01*
X005153Y-001833D02*
X005200D01*
X004640D02*
Y-001680D01*
X004670Y-001650D01*
X004590Y-001833D02*
Y-001680D01*
X004560Y-001650D02*
X004590Y-001680D01*
X005300Y-001833D02*
Y-001680D01*
X005330Y-001650D01*
X005250Y-001833D02*
Y-001680D01*
X005220Y-001650D02*
X005250Y-001680D01*
X000680Y-001610D02*
X000912D01*
X000680Y-001610D02*
X000680Y-001610D01*
X000680Y-002310D02*
Y-001610D01*
X000912Y-001610D02*
X001106Y-001416D01*
X001320Y-000510D02*
Y-000440D01*
Y-000510D02*
X001348Y-000538D01*
X001410Y-000422D02*
Y-000265D01*
Y-000425D02*
Y-000422D01*
Y-000538D02*
X001430D01*
X001348D02*
X001410D01*
X001790Y-001330D02*
X002390D01*
X002190Y-001315D02*
X002192Y-001312D01*
X001775Y-001315D02*
X001790Y-001330D01*
X002192Y-001312D02*
Y-001240D01*
X002320Y-001232D02*
X002327Y-001240D01*
X002320Y-001232D02*
Y-001150D01*
X003590Y-002690D02*
Y-002490D01*
X003550Y-002720D02*
Y-002510D01*
X003510Y-002690D02*
Y-002530D01*
X003370Y-002390D02*
X003510Y-002530D01*
X003470Y-002720D02*
Y-002550D01*
X003790Y-002720D02*
X003870Y-002640D01*
X003750Y-002670D02*
X003770Y-002650D01*
X003750Y-002690D02*
Y-002670D01*
X003710Y-002610D02*
X003730Y-002590D01*
X003670Y-002550D02*
X003690Y-002530D01*
X003670Y-002690D02*
Y-002550D01*
X003630Y-002490D02*
X003650Y-002470D01*
X003630Y-002720D02*
Y-002490D01*
X003390Y-002630D02*
X003410Y-002610D01*
X003390Y-002720D02*
Y-002630D01*
X003350Y-002570D02*
X003370Y-002550D01*
X003310Y-002510D02*
X003330Y-002490D01*
X003310Y-002720D02*
Y-002510D01*
X002670Y-002640D02*
Y-002640D01*
Y-002640D02*
X002750Y-002720D01*
X002890Y-002470D02*
X002910Y-002490D01*
Y-002720D02*
Y-002490D01*
X002850Y-002530D02*
X002870Y-002550D01*
Y-002690D02*
Y-002550D01*
X002810Y-002590D02*
X002830Y-002610D01*
Y-002720D02*
Y-002610D01*
X002790Y-002690D02*
Y-002670D01*
X002770Y-002650D02*
X002790Y-002670D01*
X002950Y-002520D02*
X002970Y-002500D01*
X002950Y-002690D02*
Y-002520D01*
X002990Y-002570D02*
X003010Y-002550D01*
X002990Y-002720D02*
Y-002570D01*
X003030Y-002630D02*
X003050Y-002610D01*
X003030Y-002690D02*
Y-002630D01*
X003070Y-002690D02*
X003090Y-002670D01*
X003070Y-002720D02*
Y-002690D01*
X000209Y-004069D02*
X000291D01*
X005909Y-004067D02*
Y-003939D01*
X005900Y-003930D02*
X005909Y-003939D01*
X005791Y-004067D02*
Y-004001D01*
X005850Y-004067D02*
Y-004000D01*
X000090Y-004010D02*
X000090Y-004010D01*
Y-004069D02*
Y-004010D01*
X000150Y-004069D02*
Y-004010D01*
X004210Y-003560D02*
X004220Y-003550D01*
Y-003460D01*
X004340Y-003390D02*
X004560Y-003170D01*
X004140Y-003390D02*
X004340D01*
X004080Y-003450D02*
X004140Y-003390D01*
X004340Y-003720D02*
Y-003644D01*
X004291D02*
X004340D01*
X004210Y-003725D02*
X004291Y-003644D01*
X004055Y-003725D02*
X004210D01*
X004336Y-003560D02*
X004340Y-003556D01*
X004210Y-003560D02*
X004336D01*
X003900D02*
X004055D01*
X003590D02*
X003630Y-003600D01*
X003954Y-004070D02*
X003980D01*
X003914Y-004110D02*
X003954Y-004070D01*
X003840Y-004096D02*
Y-004010D01*
X003826Y-004110D02*
X003840Y-004096D01*
X004290Y-004083D02*
Y-004010D01*
X004720Y-003470D02*
X004820Y-003570D01*
Y-003860D02*
Y-003570D01*
X004810Y-003870D02*
X004820Y-003860D01*
X004720Y-003570D02*
X004780Y-003630D01*
Y-003820D02*
Y-003630D01*
X004730Y-003870D02*
X004780Y-003820D01*
X004580Y-003770D02*
X004720D01*
X004580Y-003670D02*
X004720D01*
X004580Y-003570D02*
X004720D01*
X004580Y-003470D02*
X004720D01*
X004440Y-003370D02*
X004580D01*
X004470Y-003940D02*
Y-003910D01*
X004510Y-003870D01*
X004580D01*
X004090Y-004580D02*
X004172D01*
X004012Y-004420D02*
X004042Y-004450D01*
X003920Y-004420D02*
X004012D01*
X003510Y-004010D02*
X003920Y-004420D01*
X003990Y-004370D02*
X004020Y-004340D01*
X003930Y-004370D02*
X003990D01*
X003551Y-003991D02*
X003930Y-004370D01*
X003551Y-003991D02*
Y-003921D01*
X003550Y-003920D02*
X003551Y-003921D01*
X003510Y-004010D02*
Y-003950D01*
X005730Y-001765D02*
X005750Y-001745D01*
X005730Y-002073D02*
Y-001915D01*
X000795Y-000547D02*
X000810Y-000562D01*
X000795Y-000547D02*
Y-000495D01*
X002280Y-000370D02*
X002320Y-000410D01*
Y-000490D02*
Y-000410D01*
Y-000980D02*
Y-000820D01*
X002252Y-001047D02*
X002320Y-000980D01*
X002150Y-000584D02*
Y-000510D01*
Y-000584D02*
X002166Y-000600D01*
X002030Y-000836D02*
X002050Y-000856D01*
X001830Y-000440D02*
Y-000392D01*
X001840Y-000656D02*
Y-000640D01*
X002030Y-000836D02*
Y-000780D01*
X002178Y-001047D02*
X002252D01*
X002320Y-001150D02*
Y-000980D01*
X001585Y-001315D02*
Y-001295D01*
X001670Y-001210D01*
X001770D01*
X001844Y-001076D02*
X001920D01*
X001738Y-000940D02*
X001750Y-000927D01*
X001900D01*
X002124Y-001002D02*
X002178D01*
X002050Y-001076D02*
X002124Y-001002D01*
X001920Y-001076D02*
X002050D01*
X001920D02*
Y-000947D01*
X001900Y-000927D02*
X001920Y-000947D01*
X002063Y-000957D02*
X002178D01*
X002050Y-000944D02*
X002063Y-000957D01*
X001893Y-000533D02*
Y-000394D01*
X001895Y-000392D01*
X001893Y-000533D02*
X001920Y-000560D01*
Y-000592D02*
Y-000582D01*
Y-000560D01*
X002090Y-000392D02*
X002097Y-000399D01*
X002090Y-000450D02*
Y-000392D01*
X001980Y-000740D02*
X002020Y-000700D01*
X001952Y-000740D02*
X001980D01*
X001900Y-000792D02*
X001952Y-000740D01*
X002020Y-000700D02*
Y-000658D01*
X002080Y-000460D02*
X002090Y-000450D01*
X002080Y-000630D02*
Y-000460D01*
X002052Y-000658D02*
X002080Y-000630D01*
X002020Y-000658D02*
X002052D01*
X005535Y-002340D02*
X005703D01*
X005535Y-002490D02*
X005703D01*
X005535Y-002640D02*
X005703D01*
X005535Y-002790D02*
X005703D01*
X005545Y-003090D02*
X005703D01*
X005547Y-002940D02*
X005703D01*
X002020Y-000500D02*
X002025Y-000495D01*
X002020Y-000592D02*
Y-000582D01*
Y-000500D01*
X002160Y-000440D02*
Y-000320D01*
X002254Y-000600D02*
Y-000534D01*
X002025Y-000315D02*
X002050Y-000290D01*
X002130D02*
X002160Y-000320D01*
X002254Y-000723D02*
Y-000600D01*
X002248Y-000730D02*
X002254Y-000723D01*
X002160Y-000440D02*
X002173Y-000453D01*
X002173D01*
X002207Y-000487D01*
Y-000487D02*
Y-000487D01*
Y-000487D02*
X002254Y-000534D01*
X002050Y-000290D02*
X002130D01*
X001960Y-000500D02*
X001970Y-000510D01*
Y-000592D02*
Y-000582D01*
Y-000510D01*
X002386Y-000600D02*
Y-000534D01*
X002165Y-000260D02*
X002360D01*
X002410Y-000310D01*
X002386Y-000723D02*
Y-000600D01*
Y-000723D02*
X002392Y-000730D01*
X001960Y-000315D02*
X002031Y-000244D01*
X002149D01*
X002165Y-000260D01*
X002386Y-000534D02*
X002410Y-000510D01*
Y-000310D01*
X002133Y-000782D02*
Y-000730D01*
Y-000782D02*
X002178Y-000828D01*
Y-000867D02*
Y-000828D01*
X002461Y-000867D02*
Y-000828D01*
X005430Y-002942D02*
X005433Y-002940D01*
X004158Y-004450D02*
X004288D01*
Y-004580D02*
Y-004450D01*
X004158Y-004330D02*
X004288D01*
X003230Y-003200D02*
X003270Y-003160D01*
X003270D01*
X003310Y-003200D02*
X003310D01*
X003270Y-003160D02*
X003310Y-003200D01*
X003150Y-003280D02*
Y-003280D01*
X003110Y-003320D02*
X003150Y-003280D01*
Y-003360D02*
Y-003360D01*
X003110Y-003320D02*
X003150Y-003360D01*
X003230Y-003440D02*
X003270Y-003480D01*
X003310Y-003440D02*
Y-003440D01*
X003270Y-003480D02*
X003310Y-003440D01*
X003390Y-003360D02*
X003390D01*
X003430Y-003320D01*
X003390Y-003280D02*
X003430Y-003320D01*
X003230Y-003280D02*
X003270Y-003240D01*
X003270D01*
X003310Y-003280D02*
Y-003280D01*
Y-003280D02*
X003350Y-003320D01*
X003270Y-003400D02*
X003310Y-003360D01*
X003190Y-003320D02*
X003230Y-003360D01*
X003030Y-003080D02*
X003070Y-003120D01*
X003470D02*
X003470D01*
X003510Y-003080D01*
X003550Y-003040D02*
Y-003040D01*
X003510Y-003080D02*
X003550Y-003040D01*
X003030Y-003560D02*
X003070Y-003520D01*
X002990Y-003600D02*
X003030Y-003560D01*
X003470Y-003520D02*
X003510Y-003560D01*
X003510D01*
X003510D02*
X003550Y-003600D01*
X003630Y-003680D02*
X003670Y-003720D01*
X003710Y-003760D01*
X003630Y-002960D02*
X003630D01*
X003670Y-002920D01*
X003710Y-002880D01*
X003110Y-003160D02*
X003150Y-003200D01*
X003110Y-003160D02*
Y-003160D01*
X003390Y-003200D02*
X003390D01*
X003430Y-003160D01*
X003390Y-003440D02*
X003430Y-003480D01*
X003110Y-003480D02*
X003150Y-003440D01*
X003110Y-003480D02*
Y-003480D01*
X003510Y-003000D02*
X003550Y-002960D01*
X003510Y-003000D02*
Y-003000D01*
X002990Y-002960D02*
X003030Y-003000D01*
X003590Y-003080D02*
X003630Y-003040D01*
X003590Y-003080D02*
Y-003080D01*
X003550Y-003680D02*
Y-003680D01*
X003510Y-003640D02*
X003550Y-003680D01*
X003790Y-003840D02*
X003830Y-003880D01*
X003790Y-002800D02*
X003790D01*
X003830Y-002760D01*
X002710D02*
X002750Y-002800D01*
X003710Y-002720D02*
Y-002610D01*
X000910Y-000700D02*
Y-000638D01*
X000870Y-000740D02*
X000910Y-000700D01*
X000848Y-000740D02*
X000870D01*
X000612D02*
X000732D01*
X000600Y-000728D02*
X000612Y-000740D01*
X000752Y-000638D02*
X000810D01*
X002460Y-001094D02*
X002461Y-001092D01*
X002550Y-000937D02*
Y-000900D01*
X002530Y-000957D02*
X002550Y-000937D01*
X002461Y-000957D02*
X002530D01*
X003350Y-002680D02*
Y-002570D01*
X005270Y-004514D02*
X005290Y-004494D01*
Y-004210D01*
X005220Y-004140D02*
X005290Y-004210D01*
X004950Y-004140D02*
X005220D01*
X004930Y-004160D02*
X004950Y-004140D01*
X005331Y-004495D02*
X005350Y-004514D01*
X005328Y-004191D02*
X005331D01*
X005237Y-004099D02*
X005328Y-004191D01*
X005331Y-004495D02*
Y-004191D01*
X005239Y-004099D02*
X005331Y-004191D01*
X004899Y-004099D02*
X005237D01*
X004880Y-004080D02*
X004899Y-004099D01*
X004910Y-004140D02*
X004930Y-004160D01*
X004620Y-004140D02*
X004910D01*
X004350Y-004410D02*
X004620Y-004140D01*
X004328Y-004410D02*
X004350D01*
X004288Y-004450D02*
X004290Y-004447D01*
X004328Y-004410D01*
X004861Y-004099D02*
X004880Y-004080D01*
X004603Y-004099D02*
X004861D01*
X004343Y-004360D02*
X004603Y-004099D01*
X004317Y-004360D02*
X004343D01*
X004288Y-004330D02*
X004290Y-004333D01*
X004317Y-004360D01*
X004290Y-004333D02*
Y-004203D01*
X001130Y-004494D02*
X001150Y-004514D01*
X001070D02*
X001089Y-004495D01*
X001150Y-004160D02*
X001170Y-004140D01*
X001370D01*
X001131Y-004099D02*
X001389D01*
X003470Y-004040D02*
Y-003920D01*
X003430Y-004000D02*
Y-003950D01*
X003410Y-004020D02*
X003430Y-004000D01*
X003390Y-003950D02*
Y-003920D01*
X003350Y-003990D02*
X003390Y-003950D01*
X003270Y-003990D02*
Y-003950D01*
X003870Y-003920D02*
X003914Y-003964D01*
Y-004110D02*
Y-003964D01*
X003986Y-002746D02*
X004060D01*
X003870Y-002720D02*
X003984Y-002834D01*
X004060D01*
Y-002900D02*
Y-002834D01*
X002036Y-001150D02*
X002050Y-001164D01*
X001990Y-001150D02*
X002036D01*
X001920Y-001164D02*
X001934Y-001150D01*
X001990D01*
X003790Y-003040D02*
X003830Y-003080D01*
X003870Y-003040D02*
X004050D01*
X004090Y-003000D01*
X003900Y-003080D02*
X004200D01*
X004280Y-003000D01*
X003870Y-003120D02*
X004350D01*
X004470Y-003000D01*
X003790Y-003120D02*
X003790D01*
X003830Y-003160D01*
X003900D02*
X004500D01*
X004660Y-003000D01*
X001680Y-001085D02*
Y-001080D01*
X001770Y-001210D02*
X001820Y-001160D01*
Y-001100D01*
X001844Y-001076D01*
X001683Y-001112D02*
X001720Y-001150D01*
X001730D01*
X004288Y-004200D02*
X004290Y-004203D01*
X003219Y-001210D02*
X003225Y-001216D01*
X003180Y-001040D02*
X003199D01*
X003375Y-000964D02*
X003379Y-000960D01*
X003514D01*
X003520Y-000966D01*
X003401Y-001090D02*
Y-001040D01*
X003506D01*
X003520Y-001054D01*
X002490Y-002744D02*
X002576D01*
X002600Y-002720D01*
X002670D01*
X002414Y-002744D02*
X002490D01*
X002400Y-002730D02*
X002414Y-002744D01*
X002406Y-002656D02*
X002490D01*
X005853Y-002490D02*
X005940D01*
X005853Y-002640D02*
X005940D01*
X005853Y-002790D02*
X005940D01*
X005853Y-002940D02*
X005940D01*
X005853Y-003090D02*
X005940D01*
X001960Y-000500D02*
Y-000392D01*
Y-000315D01*
X002025Y-000495D02*
Y-000392D01*
Y-000315D01*
X000795Y-000495D02*
Y-000390D01*
X002508Y-000782D02*
Y-000730D01*
X002461Y-000828D02*
X002508Y-000782D01*
X002460Y-000586D02*
X002474Y-000600D01*
X002460Y-000586D02*
Y-000540D01*
X001623Y-000940D02*
Y-000888D01*
X001730Y-000780D01*
Y-000630D02*
X001740Y-000640D01*
X001840D01*
X000450Y-001050D02*
X001320D01*
X001360Y-001090D01*
X001487Y-001413D02*
Y-000903D01*
X001610Y-000780D01*
Y-000600D01*
X001500Y-000490D02*
X001610Y-000600D01*
X001500Y-000490D02*
Y-000205D01*
X001410Y-000115D02*
X001500Y-000205D01*
X000732Y-000793D02*
Y-000740D01*
Y-000793D02*
X000770Y-000830D01*
X000910D01*
X001160Y-000580D01*
Y-000490D01*
X002410Y-002840D02*
X002640D01*
X002990Y-003040D02*
X003030Y-003080D01*
X002990Y-003600D02*
X002990D01*
X002107Y-004671D02*
X002189D01*
X002108Y-004630D02*
X002170D01*
X001783Y-004670D02*
X001820Y-004708D01*
X001690Y-004670D02*
X001783D01*
X001640Y-004620D02*
X001690Y-004670D01*
X001783Y-004630D02*
X001820Y-004592D01*
X001710Y-004630D02*
X001783D01*
X001680Y-004600D02*
X001710Y-004630D01*
X001680Y-004600D02*
Y-004390D01*
X001389Y-004099D02*
X001680Y-004390D01*
X001640Y-004620D02*
Y-004410D01*
X001370Y-004140D02*
X001640Y-004410D01*
X002406Y-003836D02*
X002480D01*
X002586D01*
X002670Y-003920D01*
X002480Y-003924D02*
X002556D01*
X002869Y-004000D02*
Y-003950D01*
X002850Y-004019D02*
X002869Y-004000D01*
X002453Y-004019D02*
X002850D01*
X002910Y-004020D02*
Y-003920D01*
X002870Y-004060D02*
X002910Y-004020D01*
X002453Y-004020D02*
X002453Y-004019D01*
X002450Y-004020D02*
X002453D01*
X002470Y-004060D02*
X002870D01*
X001070Y-004160D02*
X001131Y-004099D01*
X001130Y-004494D02*
Y-004180D01*
X001150Y-004160D01*
X001089Y-004495D02*
Y-004179D01*
X001070Y-004160D02*
X001089Y-004179D01*
X002710Y-003880D02*
Y-003880D01*
X002750Y-003840D01*
X002950Y-003560D02*
X002950D01*
X002910Y-003600D02*
X002950Y-003560D01*
X003030Y-003640D02*
X003030D01*
X002990Y-003680D02*
X003030Y-003640D01*
X002910Y-003040D02*
X002950Y-003080D01*
X002830Y-002880D02*
X002870Y-002920D01*
Y-002920D01*
Y-002920D02*
X002910Y-002960D01*
X002830Y-003760D02*
X002870Y-003720D01*
X002830Y-003760D02*
X002830D01*
X002870Y-003720D02*
X002910Y-003680D01*
Y-003680D01*
X001820Y-004592D02*
X001823Y-004590D01*
X001952D01*
X001820Y-004838D02*
X001823Y-004840D01*
X001820Y-004838D02*
Y-004708D01*
X001823Y-004710D01*
X001952D01*
X002067Y-004590D02*
X002108Y-004630D01*
X002067Y-004710D02*
X002107Y-004671D01*
X001938Y-004840D02*
X002020D01*
X001938Y-004460D02*
X002010D01*
X001820Y-004592D02*
Y-004462D01*
X001823Y-004460D01*
X002189Y-004671D02*
X002290Y-004570D01*
Y-004240D01*
X002470Y-004060D01*
X002170Y-004630D02*
X002250Y-004550D01*
Y-004220D01*
X002450Y-004020D01*
X003970Y-000495D02*
X004085D01*
X004090Y-000500D01*
X003970Y-000625D02*
X004045D01*
X004170Y-000500D01*
X002390Y-001330D02*
X002590Y-001130D01*
X002461Y-001002D02*
X002552D01*
X002590Y-001040D01*
Y-001130D02*
Y-001040D01*
X002461Y-001092D02*
X002464Y-001090D01*
X002540D01*
X003870Y-000500D02*
X003870Y-000500D01*
X002950Y-000620D02*
X002970Y-000600D01*
X002950Y-002070D02*
Y-000620D01*
Y-002070D02*
X003010Y-002130D01*
X003290D01*
X003370Y-002210D01*
Y-002330D02*
Y-002210D01*
X002990Y-000740D02*
X003010Y-000720D01*
X002990Y-002050D02*
Y-000740D01*
Y-002050D02*
X003030Y-002090D01*
X003310D01*
X003410Y-002190D01*
Y-002310D02*
Y-002190D01*
X003030Y-000650D02*
X003070Y-000690D01*
Y-000750D02*
Y-000690D01*
X003030Y-000790D02*
X003070Y-000750D01*
X003030Y-002020D02*
Y-000790D01*
Y-002020D02*
X003060Y-002050D01*
X003330D01*
X003450Y-002170D01*
Y-002290D02*
Y-002170D01*
Y-002290D02*
X003570Y-002410D01*
X003670D01*
X003840Y-002580D01*
X004326Y-001840D02*
X004340Y-001826D01*
Y-001770D01*
X005050Y-002240D02*
Y-002162D01*
X005053Y-002160D01*
X004645Y-001490D02*
X005535Y-000600D01*
X004250Y-001870D02*
X004290Y-001910D01*
X004550D01*
X004590Y-001950D01*
Y-001988D02*
Y-001950D01*
Y-002098D02*
Y-001988D01*
Y-002098D02*
X004592Y-002100D01*
X004640Y-001833D02*
X004653Y-001820D01*
X004590Y-001880D02*
X004620Y-001910D01*
X004653Y-001820D02*
X004710D01*
X004720Y-001810D01*
X004730D01*
X004620Y-001910D02*
X004720D01*
X004780Y-001850D01*
X004640Y-001988D02*
X004642Y-001990D01*
X004690D01*
X002250Y-002627D02*
X002338D01*
X002340Y-002630D01*
Y-002770D02*
Y-002630D01*
Y-002770D02*
X002410Y-002840D01*
X002630Y-001990D02*
Y-001710D01*
X003870Y-002077D02*
Y-001990D01*
X003867Y-002080D02*
X003870Y-002077D01*
X004560Y-003170D02*
X004590D01*
X003970Y-002650D02*
X004020D01*
X003900Y-002580D02*
X003970Y-002650D01*
X003840Y-002580D02*
X003900D01*
X004490Y-002520D02*
X004592Y-002417D01*
Y-002100D01*
X003820Y-001550D02*
X004420Y-002150D01*
X004380Y-002560D02*
Y-002170D01*
X003070Y-001840D02*
X003130Y-001900D01*
X003680Y-001530D02*
X004340Y-002190D01*
X003130Y-001900D02*
X003790D01*
X003820Y-001930D01*
X003130Y-001090D02*
X003199D01*
X003130Y-001090D02*
X003130Y-001090D01*
X003150Y-001140D02*
X003199D01*
X003130Y-001160D02*
X003150Y-001140D01*
X003174Y-001216D02*
X003225D01*
X003070Y-001840D02*
Y-001050D01*
X003090Y-001030D01*
X003189D01*
X003199Y-001040D01*
X003330Y-001090D02*
X003401D01*
X003520Y-001054D02*
X003586D01*
X002730Y-001160D02*
X002750Y-001140D01*
X002730Y-001160D02*
X002750Y-001180D01*
X002730Y-001160D02*
X002730D01*
X002790Y-001110D02*
X002810Y-001090D01*
X002850Y-001220D02*
X002870Y-001240D01*
X002850Y-001220D02*
X002850D01*
X002870Y-002200D02*
Y-001240D01*
X002850Y-001220D02*
X002870Y-001200D01*
Y-000560D01*
X002790Y-001250D02*
X002830Y-001290D01*
Y-002220D02*
Y-001290D01*
X002790Y-001250D02*
Y-001110D01*
X002830Y-002220D02*
X003190Y-002580D01*
X002750Y-001270D02*
X002790Y-001310D01*
Y-002240D02*
Y-001310D01*
X002750Y-001270D02*
Y-001180D01*
X002790Y-002240D02*
X003150Y-002600D01*
X002790Y-000520D02*
X002830Y-000560D01*
Y-001070D02*
Y-000560D01*
X002810Y-001090D02*
X002830Y-001070D01*
X002790Y-000520D02*
Y-000480D01*
X002750Y-000540D02*
X002790Y-000580D01*
Y-001030D02*
Y-000580D01*
X002750Y-001070D02*
X002790Y-001030D01*
X002750Y-001140D02*
Y-001070D01*
Y-000540D02*
Y-000460D01*
X002530Y-000500D02*
X002642D01*
X002650Y-000493D01*
X004090Y-002460D02*
Y-002410D01*
X004130Y-002370D01*
X004170Y-002480D02*
Y-002460D01*
X004130Y-002520D02*
X004170Y-002480D01*
X004000Y-002520D02*
X004130D01*
X003930Y-002450D02*
X004000Y-002520D01*
X003930Y-002450D02*
Y-002170D01*
X003970Y-002130D01*
X003805Y-001715D02*
X004130Y-002040D01*
Y-002370D02*
Y-002040D01*
X003970Y-002130D02*
Y-001940D01*
X003680Y-001650D02*
X003970Y-001940D01*
X003820Y-001550D02*
Y-000900D01*
X003510Y-000590D02*
X003820Y-000900D01*
X003510Y-000590D02*
Y-000510D01*
X003430Y-000570D02*
Y-000510D01*
Y-000570D02*
X003780Y-000920D01*
X003150Y-001650D02*
X003680D01*
X003130Y-001670D02*
X003150Y-001650D01*
X003700Y-001610D02*
X003805Y-001715D01*
X003150Y-001610D02*
X003700D01*
X003130Y-001590D02*
X003150Y-001610D01*
X001450Y-001510D02*
X001770D01*
X001200Y-001260D02*
X001450Y-001510D01*
X000440Y-001260D02*
X001200D01*
X000233Y-001052D02*
X000440Y-001260D01*
X000233Y-001052D02*
Y-000820D01*
Y-000460D01*
Y-002920D02*
Y-002560D01*
X002340Y-002630D02*
Y-001910D01*
X001770Y-001510D02*
X001850Y-001590D01*
X001980D01*
X003220Y-001530D02*
X003680D01*
X003200Y-001550D02*
X003220Y-001530D01*
X003700Y-001490D02*
X004380Y-002170D01*
X003150Y-001490D02*
X003700D01*
X003130Y-001470D02*
X003150Y-001490D01*
X003710Y-001410D02*
X003780Y-001340D01*
X003220Y-001410D02*
X003710D01*
X003200Y-001430D02*
X003220Y-001410D01*
X003780Y-001340D02*
Y-000920D01*
X001990Y-001670D02*
X002050D01*
X002690Y-001550D02*
X002700D01*
X002670Y-001530D02*
X002690Y-001550D01*
X002430Y-001530D02*
X002670D01*
X001720Y-002240D02*
X002430Y-001530D01*
X000291Y-004069D02*
X000480Y-003880D01*
X002680Y-001490D02*
X002700Y-001470D01*
X002410Y-001490D02*
X002680D01*
X001680Y-002220D02*
X002410Y-001490D01*
X002610Y-001450D02*
X002630Y-001430D01*
X002390Y-001450D02*
X002610D01*
X001640Y-002200D02*
X002390Y-001450D01*
X000400Y-003760D02*
Y-003730D01*
X000780Y-003350D01*
X000480Y-003880D02*
Y-003710D01*
X000820Y-003370D01*
X000540Y-003750D02*
Y-003720D01*
X000860Y-003400D01*
X001890Y-001830D02*
X001910D01*
X000233Y-003158D02*
X000340Y-003050D01*
X000233Y-003430D02*
Y-003158D01*
X003474Y-001140D02*
X003520Y-001186D01*
X003401Y-001140D02*
X003474D01*
X003520Y-001274D02*
X003586D01*
X003520Y-000966D02*
X003524Y-000970D01*
X004250Y-001870D02*
Y-001610D01*
X004370Y-001490D01*
X004645D01*
D19*
X002650Y-000607D02*
D03*
Y-000493D02*
D03*
X002250Y-002627D02*
D03*
Y-002512D02*
D03*
X004290Y-004197D02*
D03*
Y-004083D02*
D03*
Y-004447D02*
D03*
Y-004333D02*
D03*
X005730Y-002073D02*
D03*
Y-002188D02*
D03*
X001410Y-000422D02*
D03*
Y-000538D02*
D03*
X005880Y-002188D02*
D03*
Y-002073D02*
D03*
X000600Y-000612D02*
D03*
Y-000728D02*
D03*
X001820Y-004592D02*
D03*
Y-004708D02*
D03*
D20*
X005167Y-002160D02*
D03*
X005053D02*
D03*
X004592Y-002100D02*
D03*
X004708D02*
D03*
X000848Y-000740D02*
D03*
X000732D02*
D03*
X004158Y-004450D02*
D03*
X004042D02*
D03*
X004172Y-004580D02*
D03*
X004288D02*
D03*
X004042Y-004330D02*
D03*
X004158D02*
D03*
X005535Y-002340D02*
D03*
X005420D02*
D03*
X005535Y-002490D02*
D03*
X005420D02*
D03*
X005535Y-002640D02*
D03*
X005420D02*
D03*
X005535Y-002790D02*
D03*
X005420D02*
D03*
X005538Y-003090D02*
D03*
X005422D02*
D03*
X005538Y-002940D02*
D03*
X005422D02*
D03*
X001738Y-000940D02*
D03*
X001623D02*
D03*
X002133Y-000730D02*
D03*
X002248D02*
D03*
X002508D02*
D03*
X002392D02*
D03*
X003867Y-002080D02*
D03*
X003753D02*
D03*
X001823Y-004840D02*
D03*
X001938D02*
D03*
X002067Y-004710D02*
D03*
X001952D02*
D03*
Y-004590D02*
D03*
X002067D02*
D03*
X001938Y-004460D02*
D03*
X001823D02*
D03*
D21*
X004896Y-001840D02*
D03*
X004984D02*
D03*
X005426Y-001990D02*
D03*
X005514D02*
D03*
X004414Y-001840D02*
D03*
X004326D02*
D03*
X003914Y-004110D02*
D03*
X003826D02*
D03*
X002254Y-000600D02*
D03*
X002166D02*
D03*
X002386D02*
D03*
X002474D02*
D03*
D22*
X005300Y-001988D02*
D03*
X005250D02*
D03*
X005200D02*
D03*
Y-001833D02*
D03*
X005250D02*
D03*
X005300D02*
D03*
X004540D02*
D03*
X004590D02*
D03*
X004640D02*
D03*
Y-001988D02*
D03*
X004590D02*
D03*
X004540D02*
D03*
D23*
X005047Y-001980D02*
D03*
X004912D02*
D03*
X002327Y-001240D02*
D03*
X002192D02*
D03*
D24*
X003225Y-001216D02*
D03*
X003275D02*
D03*
X003325D02*
D03*
X003375D02*
D03*
Y-000964D02*
D03*
X003325D02*
D03*
X003275D02*
D03*
X003225D02*
D03*
D25*
X003401Y-001140D02*
D03*
Y-001090D02*
D03*
Y-001040D02*
D03*
X003199D02*
D03*
Y-001090D02*
D03*
Y-001140D02*
D03*
D26*
X003520Y-001186D02*
D03*
Y-001274D02*
D03*
X002490Y-002656D02*
D03*
Y-002744D02*
D03*
X004340Y-003644D02*
D03*
Y-003556D02*
D03*
X003520Y-000966D02*
D03*
Y-001054D02*
D03*
X001920Y-001076D02*
D03*
Y-001164D02*
D03*
X002050Y-001076D02*
D03*
Y-001164D02*
D03*
Y-000944D02*
D03*
Y-000856D02*
D03*
X004060Y-002834D02*
D03*
Y-002746D02*
D03*
X002480Y-003924D02*
D03*
Y-003836D02*
D03*
D27*
X000560Y-002310D02*
D03*
X000680D02*
D03*
X000800D02*
D03*
X000920D02*
D03*
D28*
X000433Y-001970D02*
D03*
X001047D02*
D03*
D29*
X000209Y-004069D02*
D03*
X000150D02*
D03*
X000090D02*
D03*
X005791Y-004067D02*
D03*
X005850D02*
D03*
X005909D02*
D03*
D30*
X004055Y-003725D02*
D03*
Y-003560D02*
D03*
X004210D02*
D03*
Y-003725D02*
D03*
D31*
X005325Y-002190D02*
D03*
X005455D02*
D03*
D32*
X004580Y-003870D02*
D03*
Y-003770D02*
D03*
Y-003670D02*
D03*
Y-003570D02*
D03*
Y-003470D02*
D03*
Y-003370D02*
D03*
D33*
X004790Y-003970D02*
D03*
Y-003270D02*
D03*
D34*
X000910Y-000638D02*
D03*
X000860D02*
D03*
X000810D02*
D03*
Y-000562D02*
D03*
X000860D02*
D03*
X000910D02*
D03*
X002020Y-000658D02*
D03*
X001970D02*
D03*
X001920D02*
D03*
Y-000582D02*
D03*
X001970D02*
D03*
X002020D02*
D03*
D35*
X003870Y-003920D02*
D03*
X003790D02*
D03*
X003710D02*
D03*
X003630D02*
D03*
X003550D02*
D03*
X003470D02*
D03*
X003390D02*
D03*
X003310D02*
D03*
X003230D02*
D03*
X003150D02*
D03*
X003070D02*
D03*
X002990D02*
D03*
X002910D02*
D03*
X002830D02*
D03*
X002750D02*
D03*
X002670D02*
D03*
X003870Y-003840D02*
D03*
X003790D02*
D03*
X003710D02*
D03*
X003630D02*
D03*
X003550D02*
D03*
X003470D02*
D03*
X003390D02*
D03*
X003310D02*
D03*
X003230D02*
D03*
X003150D02*
D03*
X003070D02*
D03*
X002990D02*
D03*
X002910D02*
D03*
X002830D02*
D03*
X002750D02*
D03*
X002670D02*
D03*
X003870Y-003760D02*
D03*
X003790D02*
D03*
X003710D02*
D03*
X003630D02*
D03*
X003550D02*
D03*
X003470D02*
D03*
X003390D02*
D03*
X003310D02*
D03*
X003230D02*
D03*
X003150D02*
D03*
X003070D02*
D03*
X002990D02*
D03*
X002910D02*
D03*
X002830D02*
D03*
X002750D02*
D03*
X002670D02*
D03*
X003870Y-003680D02*
D03*
X003790D02*
D03*
X003710D02*
D03*
X003630D02*
D03*
X003550D02*
D03*
X003470D02*
D03*
X003390D02*
D03*
X003310D02*
D03*
X003230D02*
D03*
X003150D02*
D03*
X003070D02*
D03*
X002990D02*
D03*
X002910D02*
D03*
X002830D02*
D03*
X002750D02*
D03*
X002670D02*
D03*
X003870Y-003600D02*
D03*
X003790D02*
D03*
X003710D02*
D03*
X003630D02*
D03*
X003550D02*
D03*
X003470D02*
D03*
X003390D02*
D03*
X003310D02*
D03*
X003230D02*
D03*
X003150D02*
D03*
X003070D02*
D03*
X002990D02*
D03*
X002910D02*
D03*
X002830D02*
D03*
X002750D02*
D03*
X002670D02*
D03*
X003870Y-003520D02*
D03*
X003790D02*
D03*
X003710D02*
D03*
X003630D02*
D03*
X003550D02*
D03*
X003470D02*
D03*
X003390D02*
D03*
X003310D02*
D03*
X003230D02*
D03*
X003150D02*
D03*
X003070D02*
D03*
X002990D02*
D03*
X002910D02*
D03*
X002830D02*
D03*
X002750D02*
D03*
X002670D02*
D03*
X003870Y-003440D02*
D03*
X003790D02*
D03*
X003710D02*
D03*
X003630D02*
D03*
X003550D02*
D03*
X003470D02*
D03*
X003390D02*
D03*
X003310D02*
D03*
X003230D02*
D03*
X003150D02*
D03*
X003070D02*
D03*
X002990D02*
D03*
X002910D02*
D03*
X002830D02*
D03*
X002750D02*
D03*
X002670D02*
D03*
X003870Y-003360D02*
D03*
X003790D02*
D03*
X003710D02*
D03*
X003630D02*
D03*
X003550D02*
D03*
X003470D02*
D03*
X003390D02*
D03*
X003310D02*
D03*
X003230D02*
D03*
X003150D02*
D03*
X003070D02*
D03*
X002990D02*
D03*
X002910D02*
D03*
X002830D02*
D03*
X002750D02*
D03*
X002670D02*
D03*
X003870Y-003280D02*
D03*
X003790D02*
D03*
X003710D02*
D03*
X003630D02*
D03*
X003550D02*
D03*
X003470D02*
D03*
X003390D02*
D03*
X003310D02*
D03*
X003230D02*
D03*
X003150D02*
D03*
X003070D02*
D03*
X002990D02*
D03*
X002910D02*
D03*
X002830D02*
D03*
X002750D02*
D03*
X002670D02*
D03*
X003870Y-003200D02*
D03*
X003790D02*
D03*
X003710D02*
D03*
X003630D02*
D03*
X003550D02*
D03*
X003470D02*
D03*
X003390D02*
D03*
X003310D02*
D03*
X003230D02*
D03*
X003150D02*
D03*
X003070D02*
D03*
X002990D02*
D03*
X002910D02*
D03*
X002830D02*
D03*
X002750D02*
D03*
X002670D02*
D03*
X003870Y-003120D02*
D03*
X003790D02*
D03*
X003710D02*
D03*
X003630D02*
D03*
X003550D02*
D03*
X003470D02*
D03*
X003390D02*
D03*
X003310D02*
D03*
X003230D02*
D03*
X003150D02*
D03*
X003070D02*
D03*
X002990D02*
D03*
X002910D02*
D03*
X002830D02*
D03*
X002750D02*
D03*
X002670D02*
D03*
X003870Y-003040D02*
D03*
X003790D02*
D03*
X003710D02*
D03*
X003630D02*
D03*
X003550D02*
D03*
X003470D02*
D03*
X003390D02*
D03*
X003310D02*
D03*
X003230D02*
D03*
X003150D02*
D03*
X003070D02*
D03*
X002990D02*
D03*
X002910D02*
D03*
X002830D02*
D03*
X002750D02*
D03*
X002670D02*
D03*
X003870Y-002960D02*
D03*
X003790D02*
D03*
X003710D02*
D03*
X003630D02*
D03*
X003550D02*
D03*
X003470D02*
D03*
X003390D02*
D03*
X003310D02*
D03*
X003230D02*
D03*
X003150D02*
D03*
X003070D02*
D03*
X002990D02*
D03*
X002910D02*
D03*
X002830D02*
D03*
X002750D02*
D03*
X002670D02*
D03*
X003870Y-002880D02*
D03*
X003790D02*
D03*
X003710D02*
D03*
X003630D02*
D03*
X003550D02*
D03*
X003470D02*
D03*
X003390D02*
D03*
X003310D02*
D03*
X003230D02*
D03*
X003150D02*
D03*
X003070D02*
D03*
X002990D02*
D03*
X002910D02*
D03*
X002830D02*
D03*
X002750D02*
D03*
X002670D02*
D03*
X003870Y-002800D02*
D03*
X003790D02*
D03*
X003710D02*
D03*
X003630D02*
D03*
X003550D02*
D03*
X003470D02*
D03*
X003390D02*
D03*
X003310D02*
D03*
X003230D02*
D03*
X003150D02*
D03*
X003070D02*
D03*
X002990D02*
D03*
X002910D02*
D03*
X002830D02*
D03*
X002750D02*
D03*
X002670D02*
D03*
X003870Y-002720D02*
D03*
X003790D02*
D03*
X003710D02*
D03*
X003630D02*
D03*
X003550D02*
D03*
X003470D02*
D03*
X003390D02*
D03*
X003310D02*
D03*
X003230D02*
D03*
X003150D02*
D03*
X003070D02*
D03*
X002990D02*
D03*
X002910D02*
D03*
X002830D02*
D03*
X002750D02*
D03*
X002670D02*
D03*
D36*
X000740Y-000123D02*
D03*
X000980D02*
D03*
X002080Y-000125D02*
D03*
X001840D02*
D03*
D37*
X000540Y-000367D02*
D03*
X001180D02*
D03*
X002280Y-000370D02*
D03*
X001640D02*
D03*
D38*
X000860Y-000390D02*
D03*
X000925D02*
D03*
X000990D02*
D03*
X000730D02*
D03*
X000795D02*
D03*
X001895Y-000392D02*
D03*
X001830D02*
D03*
X002090D02*
D03*
X002025D02*
D03*
X001960D02*
D03*
D39*
X000233Y-003430D02*
D03*
X000088D02*
D03*
X000233Y-003790D02*
D03*
X000088D02*
D03*
X000233Y-002560D02*
D03*
X000088D02*
D03*
X000233Y-002920D02*
D03*
X000088D02*
D03*
X000233Y-000460D02*
D03*
X000088D02*
D03*
X000233Y-000820D02*
D03*
X000088D02*
D03*
D40*
X001900Y-000927D02*
D03*
Y-000792D02*
D03*
D41*
X004560Y-001650D02*
D03*
X004670D02*
D03*
X004780D02*
D03*
X004890D02*
D03*
X005000D02*
D03*
X005110D02*
D03*
X005220D02*
D03*
X005330D02*
D03*
X005425D02*
D03*
D42*
X004405D02*
D03*
X005520Y-001220D02*
D03*
D43*
X005535Y-000600D02*
D03*
D44*
X005520Y-000190D02*
D03*
D45*
X004185Y-000140D02*
D03*
D46*
X001410Y-000115D02*
D03*
Y-000265D02*
D03*
X005730Y-001915D02*
D03*
Y-001765D02*
D03*
X005880Y-001915D02*
D03*
Y-001765D02*
D03*
X001730Y-000780D02*
D03*
Y-000630D02*
D03*
D47*
X005703Y-002340D02*
D03*
X005853D02*
D03*
X005703Y-002490D02*
D03*
X005853D02*
D03*
X005703Y-002640D02*
D03*
X005853D02*
D03*
X005703Y-002790D02*
D03*
X005853D02*
D03*
X005703Y-003090D02*
D03*
X005853D02*
D03*
Y-002940D02*
D03*
X005703D02*
D03*
D48*
X001680Y-001085D02*
D03*
X001775Y-001315D02*
D03*
X001585D02*
D03*
D49*
X002178Y-000867D02*
D03*
Y-000912D02*
D03*
Y-000957D02*
D03*
Y-001002D02*
D03*
Y-001047D02*
D03*
Y-001092D02*
D03*
X002461Y-000867D02*
D03*
Y-000912D02*
D03*
Y-000957D02*
D03*
Y-001002D02*
D03*
Y-001047D02*
D03*
Y-001092D02*
D03*
D50*
X002320Y-000980D02*
D03*
D51*
X004090Y-003000D02*
D03*
X004660D02*
D03*
X004280D02*
D03*
D52*
X004470D02*
D03*
D53*
X003970Y-000625D02*
D03*
Y-000495D02*
D03*
D54*
X-000170Y-001360D02*
D03*
Y-001610D02*
D03*
Y-001860D02*
D03*
Y-002110D02*
D03*
D108*
X005805Y-001765D02*
X005805Y-001765D01*
X005880D01*
X005730Y-001765D02*
X005805D01*
X005728Y-002190D02*
X005730Y-002188D01*
X005455Y-002190D02*
X005728D01*
X005430Y-002215D02*
X005455Y-002190D01*
X005430Y-002330D02*
Y-002215D01*
X005420Y-002340D02*
X005430Y-002330D01*
X004912Y-002058D02*
Y-001980D01*
X005040Y-001973D02*
Y-001880D01*
Y-001973D02*
X005047Y-001980D01*
X005000Y-001840D02*
X005040Y-001880D01*
X004984Y-001840D02*
X005000D01*
X004896Y-001964D02*
X004912Y-001980D01*
X004896Y-001964D02*
Y-001840D01*
X004890Y-001834D02*
X004896Y-001840D01*
X004890Y-001834D02*
Y-001650D01*
X005422Y-003090D02*
X005422Y-003090D01*
Y-002940D01*
X005420Y-002938D02*
X005422Y-002940D01*
X005420Y-002938D02*
Y-002790D01*
Y-002640D01*
Y-002490D01*
Y-002340D01*
X005408Y-002652D02*
X005420Y-002640D01*
X005822Y-002188D02*
X005880D01*
X004185Y-000140D02*
X004350D01*
X004350Y-000140D01*
X005430Y-000190D02*
X005520D01*
Y-001220D02*
Y-001120D01*
X000088Y-000638D02*
Y-000460D01*
Y-000820D02*
Y-000638D01*
Y-002738D02*
Y-002560D01*
Y-002920D02*
Y-002738D01*
Y-003608D02*
Y-003430D01*
Y-003790D02*
Y-003608D01*
X005230Y-002285D02*
X005325Y-002190D01*
X005230Y-002870D02*
Y-002285D01*
Y-002870D02*
X005290Y-002930D01*
Y-003340D02*
Y-002930D01*
D109*
X005425Y-001650D02*
Y-001555D01*
X004405Y-001650D02*
Y-001555D01*
X005110Y-001650D02*
Y-001550D01*
X000920Y-002400D02*
Y-002310D01*
Y-002220D01*
X000560Y-002400D02*
Y-002310D01*
Y-002220D01*
D110*
X003030Y-002760D02*
Y-002690D01*
Y-002760D02*
X003070Y-002800D01*
X002790Y-002760D02*
Y-002690D01*
Y-002760D02*
X002830Y-002800D01*
X002870Y-002760D02*
X002910Y-002800D01*
X002950Y-002760D02*
X002990Y-002800D01*
X003790Y-003600D02*
X003790D01*
X003830Y-003560D01*
X003900D01*
X003910Y-003800D02*
X003940Y-003830D01*
X003750Y-003800D02*
X003910D01*
X003510Y-003950D02*
Y-003880D01*
X003710Y-003840D02*
X003750Y-003800D01*
X003470Y-003840D02*
X003510Y-003880D01*
X003710Y-002800D02*
X003750Y-002760D01*
Y-002690D01*
X003630Y-002800D02*
X003670Y-002760D01*
Y-002690D01*
X003550Y-002800D02*
X003590Y-002760D01*
Y-002690D01*
X003470Y-002800D02*
X003510Y-002760D01*
Y-002690D01*
X002870Y-002760D02*
Y-002690D01*
X002950Y-002760D02*
Y-002690D01*
X003150Y-002800D02*
X003190Y-002760D01*
Y-002680D01*
X003230Y-002800D02*
X003270Y-002760D01*
Y-002680D01*
X003310Y-002800D02*
X003350Y-002760D01*
Y-002680D01*
X003430Y-003800D02*
X003470Y-003760D01*
X003430Y-003950D02*
Y-003800D01*
X003310Y-003840D02*
Y-003840D01*
X003270Y-003880D02*
X003310Y-003840D01*
X003270Y-003950D02*
Y-003880D01*
X003830Y-003080D02*
X003900D01*
X003830Y-003160D02*
X003900D01*
X004020Y-004340D02*
X004042D01*
X002870Y-002840D02*
X002910Y-002880D01*
X002640Y-002840D02*
X002870D01*
X002910Y-002880D02*
Y-002880D01*
X002869Y-003801D02*
X002910Y-003760D01*
X002869Y-003950D02*
Y-003801D01*
D111*
X000860Y-000490D02*
Y-000390D01*
X000925Y-000495D02*
Y-000390D01*
X000952Y-000638D02*
X000990Y-000600D01*
Y-000480D02*
X001060D01*
X000990Y-000600D02*
Y-000480D01*
Y-000390D01*
Y-000290D01*
X000990Y-000290D01*
X000990Y-000390D02*
X001010Y-000370D01*
X001050D01*
X001662Y-000392D02*
X001830D01*
X001640Y-000370D02*
X001662Y-000392D01*
X001630Y-000360D02*
Y-000125D01*
Y-000360D02*
X001640Y-000370D01*
X001630Y-000125D02*
X001840D01*
X002080D01*
X002290D01*
X000980Y-000123D02*
X001190D01*
X000740D02*
X000980D01*
X000530D02*
X000740D01*
X000530Y-000358D02*
Y-000123D01*
Y-000358D02*
X000540Y-000367D01*
X001190Y-000358D02*
Y-000123D01*
X001180Y-000367D02*
X001190Y-000358D01*
X000562Y-000390D02*
X000730D01*
Y-000480D02*
Y-000390D01*
X000710Y-000500D02*
X000730Y-000480D01*
X000630Y-000500D02*
X000710D01*
X000550D02*
Y-000378D01*
X000562Y-000390D01*
X000540Y-000367D02*
X000550Y-000378D01*
Y-000500D02*
X000600D01*
X000630D01*
X003520Y-001186D02*
X003584D01*
X003650Y-001120D01*
Y-001020D01*
X003600Y-000970D02*
X003650Y-001020D01*
X003524Y-000970D02*
X003600D01*
D112*
X000910Y-000638D02*
X000952D01*
D113*
X000150Y-004210D02*
D03*
X005851Y-004208D02*
D03*
D114*
X000730Y-004514D02*
D03*
X000650D02*
D03*
X000815D02*
D03*
X000860Y-004424D02*
D03*
X000770D02*
D03*
X001030D02*
D03*
X000940D02*
D03*
X000985Y-004514D02*
D03*
X001150D02*
D03*
X001070D02*
D03*
X005270D02*
D03*
X005350D02*
D03*
X005185D02*
D03*
X005140Y-004424D02*
D03*
X005230D02*
D03*
X004970D02*
D03*
X005060D02*
D03*
X005015Y-004514D02*
D03*
X004850D02*
D03*
X004930D02*
D03*
D115*
X001220Y-004424D02*
D03*
X000580D02*
D03*
X004780D02*
D03*
X005420D02*
D03*
D116*
X000555Y-004310D02*
D03*
X001245D02*
D03*
X005445D02*
D03*
X004755D02*
D03*
D117*
X000453Y-004270D02*
D03*
X001348D02*
D03*
X005547D02*
D03*
X004652D02*
D03*
D118*
X001507Y-004504D02*
D03*
X000292D02*
D03*
X001507Y-004890D02*
D03*
X000292Y-004880D02*
D03*
X004492D02*
D03*
X005707Y-004890D02*
D03*
X004492Y-004504D02*
D03*
X005707D02*
D03*
D119*
X000530Y-000123D02*
D03*
X001190D02*
D03*
X002290Y-000125D02*
D03*
X001630D02*
D03*
D120*
X001921Y-002317D02*
D03*
X005823Y-000181D02*
D03*
D121*
X000920Y-002520D02*
D03*
X-000340Y-002050D02*
D03*
Y-002170D02*
D03*
X-000280Y-002110D02*
D03*
X-000220Y-002050D02*
D03*
Y-002170D02*
D03*
X-000160Y-002110D02*
D03*
X-000100Y-002050D02*
D03*
Y-002170D02*
D03*
X-000040Y-002110D02*
D03*
X000020Y-002170D02*
D03*
Y-002050D02*
D03*
Y-002110D02*
D03*
X-000100D02*
D03*
X-000220D02*
D03*
X-000340D02*
D03*
X-000040Y-002050D02*
D03*
X-000160D02*
D03*
X-000280D02*
D03*
X-000040Y-002170D02*
D03*
X-000160D02*
D03*
X-000280D02*
D03*
X-000340Y-001550D02*
D03*
Y-001670D02*
D03*
X-000280Y-001610D02*
D03*
X-000220Y-001550D02*
D03*
Y-001670D02*
D03*
X-000160Y-001610D02*
D03*
X-000100Y-001550D02*
D03*
Y-001670D02*
D03*
X-000040Y-001610D02*
D03*
X000020Y-001670D02*
D03*
Y-001550D02*
D03*
Y-001610D02*
D03*
X-000100D02*
D03*
X-000220D02*
D03*
X-000340D02*
D03*
X-000040Y-001550D02*
D03*
X-000160D02*
D03*
X-000280D02*
D03*
X-000040Y-001670D02*
D03*
X-000160D02*
D03*
X-000280D02*
D03*
X-000340Y-001860D02*
D03*
X-000220D02*
D03*
X-000100D02*
D03*
X000020D02*
D03*
X-000280Y-001920D02*
D03*
X-000160D02*
D03*
X-000040D02*
D03*
X-000280Y-001800D02*
D03*
X-000160D02*
D03*
X-000040D02*
D03*
X-000280Y-001420D02*
D03*
X-000160D02*
D03*
X-000040D02*
D03*
X-000280Y-001300D02*
D03*
X-000160D02*
D03*
X-000040D02*
D03*
X-000340Y-001360D02*
D03*
X-000220D02*
D03*
X-000100D02*
D03*
X000020D02*
D03*
X001116Y-002886D02*
D03*
X001316Y-002974D02*
D03*
X001254D02*
D03*
X000685Y-002785D02*
D03*
X000556Y-002974D02*
D03*
X000554Y-002886D02*
D03*
X001590Y-002680D02*
D03*
X001380Y-002840D02*
D03*
X000990Y-002680D02*
D03*
X001110D02*
D03*
X002180Y-002510D02*
D03*
X001720Y-002530D02*
D03*
X002700Y-000780D02*
D03*
X004710Y-002210D02*
D03*
X004430Y-002750D02*
D03*
X004460Y-002640D02*
D03*
X004410Y-002680D02*
D03*
X003750Y-001990D02*
D03*
Y-001810D02*
D03*
X003890Y-001350D02*
D03*
X005805Y-001765D02*
D03*
X005370Y-001833D02*
D03*
Y-001910D02*
D03*
X005260Y-002080D02*
D03*
X005180D02*
D03*
X004912Y-002058D02*
D03*
X005040Y-001880D02*
D03*
X005514Y-002066D02*
D03*
X005426Y-002066D02*
D03*
X003190Y-001990D02*
D03*
X003270Y-002190D02*
D03*
X003110D02*
D03*
X003010Y-002200D02*
D03*
X002730Y-002260D02*
D03*
X005425Y-001555D02*
D03*
X004405D02*
D03*
X005110Y-001550D02*
D03*
X005153Y-001833D02*
D03*
X002850Y-000500D02*
D03*
X002670Y-000300D02*
D03*
X003070D02*
D03*
X003390D02*
D03*
X003470D02*
D03*
X003550D02*
D03*
X003750D02*
D03*
X003670D02*
D03*
X004250Y-000500D02*
D03*
X004170D02*
D03*
X004250Y-000280D02*
D03*
X004170D02*
D03*
X004060Y-000230D02*
D03*
X003670D02*
D03*
X003390D02*
D03*
X002590D02*
D03*
X002820Y-000300D02*
D03*
X002880D02*
D03*
X002770Y-000260D02*
D03*
X002930D02*
D03*
X002710Y-000230D02*
D03*
X002990D02*
D03*
X001320Y-000440D02*
D03*
X000920Y-002400D02*
D03*
Y-002220D02*
D03*
X000560Y-002400D02*
D03*
Y-002220D02*
D03*
X001470Y-002060D02*
D03*
X001370D02*
D03*
X001220D02*
D03*
X001120D02*
D03*
X000020Y-001800D02*
D03*
X-000100Y-001920D02*
D03*
Y-001800D02*
D03*
X-000160Y-001860D02*
D03*
X000020Y-001920D02*
D03*
X-000040Y-001860D02*
D03*
X-000220Y-001920D02*
D03*
Y-001800D02*
D03*
X-000280Y-001860D02*
D03*
X-000340Y-001920D02*
D03*
Y-001800D02*
D03*
X000020Y-001300D02*
D03*
Y-001420D02*
D03*
X-000040Y-001360D02*
D03*
X-000100Y-001420D02*
D03*
Y-001300D02*
D03*
X-000160Y-001360D02*
D03*
X-000220Y-001420D02*
D03*
Y-001300D02*
D03*
X-000280Y-001360D02*
D03*
X-000340Y-001420D02*
D03*
Y-001300D02*
D03*
X003470Y-001990D02*
D03*
X004190Y-002260D02*
D03*
X004070D02*
D03*
X003990D02*
D03*
X003870D02*
D03*
X003670D02*
D03*
X003710Y-002190D02*
D03*
X003590Y-002190D02*
D03*
X003550Y-002260D02*
D03*
X003310D02*
D03*
X002510D02*
D03*
X002670Y-002190D02*
D03*
X002510D02*
D03*
X003870Y-002640D02*
D03*
X003770Y-002650D02*
D03*
X003730Y-002590D02*
D03*
X003690Y-002530D02*
D03*
X003650Y-002470D02*
D03*
X003410Y-002610D02*
D03*
X003370Y-002550D02*
D03*
X003330Y-002490D02*
D03*
X002670Y-002640D02*
D03*
X002890Y-002470D02*
D03*
X002850Y-002530D02*
D03*
X002810Y-002590D02*
D03*
X002770Y-002650D02*
D03*
X002970Y-002500D02*
D03*
X003010Y-002550D02*
D03*
X003050Y-002610D02*
D03*
X003090Y-002670D02*
D03*
X005650Y-003550D02*
D03*
X005226Y-003706D02*
D03*
X005226Y-003574D02*
D03*
Y-003794D02*
D03*
X005640Y-004050D02*
D03*
X005806Y-003444D02*
D03*
X005894Y-003446D02*
D03*
X005900Y-003930D02*
D03*
X005765Y-003695D02*
D03*
X005791Y-004001D02*
D03*
X005850Y-004000D02*
D03*
X000400Y-003760D02*
D03*
X000484Y-004024D02*
D03*
X000090Y-004010D02*
D03*
X000150Y-004010D02*
D03*
X004080Y-003450D02*
D03*
X004340Y-003720D02*
D03*
X004220Y-003460D02*
D03*
X003590Y-003560D02*
D03*
X004870Y-003700D02*
D03*
X003980Y-004070D02*
D03*
X003840Y-004010D02*
D03*
X004290D02*
D03*
X004810Y-003870D02*
D03*
X004730D02*
D03*
X004720Y-003770D02*
D03*
Y-003670D02*
D03*
X004720Y-003570D02*
D03*
Y-003470D02*
D03*
X004440Y-003370D02*
D03*
X004470Y-003940D02*
D03*
X003940Y-003830D02*
D03*
X004090Y-004580D02*
D03*
X000925Y-000495D02*
D03*
X000860Y-000490D02*
D03*
X000795Y-000495D02*
D03*
X002320Y-000490D02*
D03*
X002150Y-000510D02*
D03*
X002320Y-000820D02*
D03*
X002030Y-000780D02*
D03*
X001840Y-000640D02*
D03*
X002320Y-001150D02*
D03*
X003270Y-003160D02*
D03*
X003110Y-003320D02*
D03*
X003270Y-003480D02*
D03*
X003430Y-003320D02*
D03*
X003270Y-003240D02*
D03*
X003350Y-003320D02*
D03*
X003270Y-003400D02*
D03*
X003190Y-003320D02*
D03*
X003510Y-003080D02*
D03*
Y-003560D02*
D03*
X003670Y-003720D02*
D03*
Y-002920D02*
D03*
X003110Y-003160D02*
D03*
X003430D02*
D03*
Y-003480D02*
D03*
X003110D02*
D03*
X003510Y-003000D02*
D03*
X003590Y-003080D02*
D03*
X003510Y-003640D02*
D03*
X003830Y-003880D02*
D03*
Y-002760D02*
D03*
X003030Y-003480D02*
D03*
X003110Y-003080D02*
D03*
X003510Y-003160D02*
D03*
X003430Y-003560D02*
D03*
X003270Y-003720D02*
D03*
X003670Y-003320D02*
D03*
X003270Y-002920D02*
D03*
X000752Y-000638D02*
D03*
X002550Y-000900D02*
D03*
X004780Y-004190D02*
D03*
X005000Y-004190D02*
D03*
X005200D02*
D03*
X005420D02*
D03*
X004930Y-004160D02*
D03*
X004880Y-004080D02*
D03*
X000580Y-004190D02*
D03*
X000800Y-004190D02*
D03*
X001220D02*
D03*
X001070Y-004160D02*
D03*
X001150D02*
D03*
X003470Y-004040D02*
D03*
X003410Y-004020D02*
D03*
X003350Y-003990D02*
D03*
X003270D02*
D03*
X003986Y-002746D02*
D03*
X004060Y-002900D02*
D03*
X003110Y-002920D02*
D03*
X003430D02*
D03*
X001990Y-001150D02*
D03*
X001730D02*
D03*
X002400Y-002730D02*
D03*
X002406Y-002656D02*
D03*
X005940Y-002340D02*
D03*
X005940Y-002490D02*
D03*
Y-002640D02*
D03*
Y-002790D02*
D03*
X005940Y-002940D02*
D03*
X005940Y-003090D02*
D03*
X002460Y-000540D02*
D03*
X001060Y-000480D02*
D03*
X000990Y-000290D02*
D03*
X001050Y-000370D02*
D03*
X000770Y-001190D02*
D03*
X000900D02*
D03*
X001390Y-000730D02*
D03*
X001550Y-000740D02*
D03*
X001460Y-000830D02*
D03*
X001570Y-001170D02*
D03*
X001380D02*
D03*
X001680Y-001330D02*
D03*
X001380D02*
D03*
X001100D02*
D03*
Y-001170D02*
D03*
X000450Y-001050D02*
D03*
X001360Y-001090D02*
D03*
X001170Y-002150D02*
D03*
Y-002360D02*
D03*
X001420Y-002150D02*
D03*
X001620Y-001620D02*
D03*
X001487Y-001413D02*
D03*
X001106Y-001416D02*
D03*
X000710Y-000500D02*
D03*
X000630D02*
D03*
X000550D02*
D03*
X001160Y-000490D02*
D03*
X002870Y-002920D02*
D03*
X002870Y-003320D02*
D03*
X002264Y-002914D02*
D03*
X001940Y-002750D02*
D03*
X001890Y-003000D02*
D03*
X002406Y-003836D02*
D03*
X002556Y-003924D02*
D03*
X001000Y-004190D02*
D03*
X002710Y-002760D02*
D03*
Y-003880D02*
D03*
X002950Y-003560D02*
D03*
X003030Y-003640D02*
D03*
X002950Y-003080D02*
D03*
X003030Y-003000D02*
D03*
X002870Y-003720D02*
D03*
X003030Y-003560D02*
D03*
Y-003080D02*
D03*
X002020Y-004840D02*
D03*
X002010Y-004460D02*
D03*
X001900Y-004120D02*
D03*
X003430Y-000510D02*
D03*
X003510D02*
D03*
X003870Y-000500D02*
D03*
X004090Y-000500D02*
D03*
X002540Y-001090D02*
D03*
X002970Y-000600D02*
D03*
X003010Y-000720D02*
D03*
X003030Y-000650D02*
D03*
X005822Y-002188D02*
D03*
X005320Y-002810D02*
D03*
X005385Y-003220D02*
D03*
X004340Y-001770D02*
D03*
X004430D02*
D03*
X004250Y-002460D02*
D03*
X004170D02*
D03*
X004090D02*
D03*
X004020D02*
D03*
X005050Y-002240D02*
D03*
X004730Y-001810D02*
D03*
X004780Y-001850D02*
D03*
X004690Y-001990D02*
D03*
X002630D02*
D03*
Y-001710D02*
D03*
X003870Y-001990D02*
D03*
X004590Y-003170D02*
D03*
X004020Y-002650D02*
D03*
X004350Y-000140D02*
D03*
X005430Y-000190D02*
D03*
X005520Y-001120D02*
D03*
X004490Y-002520D02*
D03*
X003820Y-001930D02*
D03*
X003130Y-001090D02*
D03*
Y-001160D02*
D03*
X003174Y-001216D02*
D03*
X003330Y-001090D02*
D03*
X003586Y-001054D02*
D03*
X002730Y-001160D02*
D03*
X002810Y-001090D02*
D03*
X002850Y-001220D02*
D03*
X000088Y-000638D02*
D03*
Y-002738D02*
D03*
Y-003608D02*
D03*
X002530Y-000500D02*
D03*
X003130Y-001670D02*
D03*
Y-001590D02*
D03*
X005290Y-003340D02*
D03*
X002340Y-001910D02*
D03*
X001980Y-001590D02*
D03*
X002050Y-001670D02*
D03*
X003200Y-001550D02*
D03*
X003130Y-001470D02*
D03*
X003200Y-001430D02*
D03*
X002700Y-001550D02*
D03*
X000540Y-003750D02*
D03*
X002700Y-001470D02*
D03*
X002630Y-001430D02*
D03*
X001910Y-001830D02*
D03*
X001450Y-002360D02*
D03*
X003586Y-001274D02*
D03*
X003600Y-000970D02*
D03*
M02*
