G04 Layer_Color=8388736*
%FSLAX43Y43*%
%MOMM*%
G71*
G01*
G75*
%ADD49R,1.303X1.203*%
%ADD50R,1.203X1.303*%
%ADD51R,0.803X1.103*%
%ADD52R,2.203X1.403*%
%ADD53R,2.903X1.803*%
%ADD54R,1.103X0.803*%
%ADD55R,1.003X1.003*%
%ADD56R,3.203X1.403*%
%ADD57R,1.010X0.510*%
%ADD58R,1.690X0.740*%
%ADD59R,0.500X1.450*%
%ADD60R,1.703X1.753*%
%ADD61R,1.253X0.803*%
%ADD62R,2.203X1.803*%
%ADD63C,2.600*%
%ADD64C,1.230*%
%ADD65C,3.120*%
%ADD66C,6.203*%
%ADD67C,1.703*%
%ADD68C,0.203*%
%ADD69C,2.203*%
%ADD70C,1.453*%
%ADD71C,1.753*%
%ADD72C,1.650*%
%ADD73R,1.703X1.703*%
%ADD74C,4.266*%
%ADD75C,2.640*%
%ADD76C,0.813*%
%ADD77C,0.804*%
D49*
X122450Y38500D02*
D03*
X124150D02*
D03*
X122450Y36500D02*
D03*
X124150D02*
D03*
X122450Y34500D02*
D03*
X124150D02*
D03*
X122450Y32500D02*
D03*
X124150D02*
D03*
X16150Y33000D02*
D03*
X14450D02*
D03*
X16150Y35000D02*
D03*
X14450D02*
D03*
X16150Y37000D02*
D03*
X14450D02*
D03*
X16150Y39000D02*
D03*
X14450D02*
D03*
X9350Y57000D02*
D03*
X7650D02*
D03*
X9350Y61000D02*
D03*
X7650D02*
D03*
X7650Y73000D02*
D03*
X9350D02*
D03*
X7650Y77000D02*
D03*
X9350D02*
D03*
X134150Y77100D02*
D03*
X132450D02*
D03*
X98850Y80900D02*
D03*
X100550D02*
D03*
X98850Y76900D02*
D03*
X100550D02*
D03*
X119150Y65500D02*
D03*
X120850D02*
D03*
X119150Y61500D02*
D03*
X120850D02*
D03*
X120850Y45500D02*
D03*
X119150D02*
D03*
X120850Y49500D02*
D03*
X119150D02*
D03*
D50*
X125000Y54650D02*
D03*
Y56350D02*
D03*
X87000Y32350D02*
D03*
Y30650D02*
D03*
X89000Y32350D02*
D03*
Y30650D02*
D03*
X13500Y66150D02*
D03*
Y67850D02*
D03*
X43100Y32350D02*
D03*
Y30650D02*
D03*
X45000Y32350D02*
D03*
Y30650D02*
D03*
X115000Y54650D02*
D03*
Y56350D02*
D03*
X3500Y66150D02*
D03*
Y67850D02*
D03*
X94200Y82150D02*
D03*
Y80450D02*
D03*
D51*
X125450Y76000D02*
D03*
X126950D02*
D03*
Y74500D02*
D03*
X125450D02*
D03*
X9250Y59000D02*
D03*
X7750D02*
D03*
Y63000D02*
D03*
X9250D02*
D03*
Y71000D02*
D03*
X7750D02*
D03*
Y75000D02*
D03*
X9250D02*
D03*
X126050Y71600D02*
D03*
X124550D02*
D03*
X128800D02*
D03*
X127300D02*
D03*
X108850Y72500D02*
D03*
X110350D02*
D03*
X119250Y63500D02*
D03*
X120750D02*
D03*
Y59500D02*
D03*
X119250D02*
D03*
X120750Y47500D02*
D03*
X119250D02*
D03*
Y51500D02*
D03*
X120750D02*
D03*
D52*
X102500Y80700D02*
D03*
Y78700D02*
D03*
D53*
X13500Y58600D02*
D03*
Y61400D02*
D03*
X106800Y75100D02*
D03*
Y72300D02*
D03*
X123500Y47100D02*
D03*
Y49900D02*
D03*
X116500Y64400D02*
D03*
Y61600D02*
D03*
X3500Y75400D02*
D03*
Y72600D02*
D03*
D54*
X129000Y87500D02*
D03*
Y89000D02*
D03*
X95600Y80650D02*
D03*
Y82150D02*
D03*
D55*
X124000Y76000D02*
D03*
X122400D02*
D03*
X122300Y74400D02*
D03*
X123900D02*
D03*
D56*
X103500Y75224D02*
D03*
Y72176D02*
D03*
D57*
X100100Y79450D02*
D03*
Y78800D02*
D03*
Y78150D02*
D03*
X97900D02*
D03*
Y78800D02*
D03*
Y79450D02*
D03*
D58*
X5800Y65095D02*
D03*
Y66365D02*
D03*
Y67635D02*
D03*
Y68905D02*
D03*
X11200D02*
D03*
Y67635D02*
D03*
Y66365D02*
D03*
Y65095D02*
D03*
X117300Y53595D02*
D03*
Y54865D02*
D03*
Y56135D02*
D03*
Y57405D02*
D03*
X122700D02*
D03*
Y56135D02*
D03*
Y54865D02*
D03*
Y53595D02*
D03*
D59*
X122300Y96000D02*
D03*
X121650D02*
D03*
X121000D02*
D03*
X120350D02*
D03*
X119700D02*
D03*
D60*
X122000Y98700D02*
D03*
X120000D02*
D03*
D61*
X130450Y75150D02*
D03*
Y74200D02*
D03*
Y73250D02*
D03*
X133150Y74200D02*
D03*
Y73250D02*
D03*
Y75150D02*
D03*
D62*
X117700Y98700D02*
D03*
X124300D02*
D03*
D63*
X100300Y41000D02*
D03*
X105000D02*
D03*
X109700D02*
D03*
X100300Y36170D02*
D03*
X105000D02*
D03*
X109700D02*
D03*
X37700D02*
D03*
X33000D02*
D03*
X28300D02*
D03*
X37700Y41000D02*
D03*
X33000D02*
D03*
X28300D02*
D03*
X108700Y87700D02*
D03*
X104000D02*
D03*
X99300D02*
D03*
X108700Y92530D02*
D03*
X104000D02*
D03*
X99300D02*
D03*
X124700Y88500D02*
D03*
X120000D02*
D03*
X115300D02*
D03*
D64*
X107500Y50500D02*
D03*
X105500D02*
D03*
X103500D02*
D03*
X101500D02*
D03*
X99500D02*
D03*
X97500D02*
D03*
X31500D02*
D03*
X29500D02*
D03*
X27500D02*
D03*
X25500D02*
D03*
X23500D02*
D03*
X21500D02*
D03*
D65*
X108000Y61500D02*
D03*
X97000D02*
D03*
X32000D02*
D03*
X21000D02*
D03*
D66*
X135000Y5000D02*
D03*
Y95000D02*
D03*
X5000D02*
D03*
Y5000D02*
D03*
D67*
X135000Y87500D02*
D03*
Y12500D02*
D03*
X33000Y31300D02*
D03*
X33000Y46100D02*
D03*
X105000Y46000D02*
D03*
Y31000D02*
D03*
X5000Y87500D02*
D03*
X3500Y79000D02*
D03*
X13500Y56000D02*
D03*
X5000Y12500D02*
D03*
X19000Y31000D02*
D03*
X23000D02*
D03*
X28000Y31300D02*
D03*
X38000D02*
D03*
X38000Y46100D02*
D03*
X100000Y31000D02*
D03*
X100000Y46000D02*
D03*
X110000Y31000D02*
D03*
X119500Y34000D02*
D03*
X119499Y29300D02*
D03*
X110000Y46000D02*
D03*
X112200Y73800D02*
D03*
X119800Y81900D02*
D03*
X127400Y52900D02*
D03*
X113700Y63400D02*
D03*
X22500Y42500D02*
D03*
X10000Y32220D02*
D03*
Y34760D02*
D03*
Y37300D02*
D03*
Y39840D02*
D03*
Y42380D02*
D03*
Y44920D02*
D03*
Y47460D02*
D03*
X130000Y32220D02*
D03*
Y34760D02*
D03*
Y37300D02*
D03*
Y39840D02*
D03*
Y42380D02*
D03*
Y44920D02*
D03*
Y47460D02*
D03*
X3000Y32220D02*
D03*
Y34760D02*
D03*
Y37300D02*
D03*
Y39840D02*
D03*
Y42380D02*
D03*
Y44920D02*
D03*
Y47460D02*
D03*
X137000Y32220D02*
D03*
Y34760D02*
D03*
Y37300D02*
D03*
Y39840D02*
D03*
Y42380D02*
D03*
Y44920D02*
D03*
Y47460D02*
D03*
X128500Y74200D02*
D03*
X129100Y86000D02*
D03*
X119700Y94200D02*
D03*
X124900Y52800D02*
D03*
X115000Y52700D02*
D03*
X3700Y64500D02*
D03*
X13600D02*
D03*
X120800Y67100D02*
D03*
X3500Y69200D02*
D03*
X136100Y77100D02*
D03*
X110000Y51000D02*
D03*
X130400Y71200D02*
D03*
X116800Y38500D02*
D03*
X108800Y77200D02*
D03*
X21300Y70800D02*
D03*
X122500Y78300D02*
D03*
D68*
X81800Y65430D02*
D03*
X51800D02*
D03*
D69*
X83300Y91500D02*
D03*
X67500D02*
D03*
D70*
X123500Y96000D02*
D03*
X118500D02*
D03*
D71*
X124500Y98700D02*
D03*
D72*
X117500D02*
D03*
D73*
X10000Y50000D02*
D03*
X130000Y50000D02*
D03*
X3000Y50000D02*
D03*
X137000Y50000D02*
D03*
D74*
X124953Y5780D02*
D03*
Y13400D02*
D03*
Y23560D02*
D03*
X115047Y5780D02*
D03*
Y13400D02*
D03*
Y23560D02*
D03*
X44953Y5780D02*
D03*
Y13400D02*
D03*
Y23560D02*
D03*
X35047Y5780D02*
D03*
Y13400D02*
D03*
Y23560D02*
D03*
X104953Y5780D02*
D03*
Y13400D02*
D03*
Y23560D02*
D03*
X95047Y5780D02*
D03*
Y13400D02*
D03*
Y23560D02*
D03*
X24953Y5780D02*
D03*
Y13400D02*
D03*
Y23560D02*
D03*
X15047Y5780D02*
D03*
Y13400D02*
D03*
Y23560D02*
D03*
X64953Y5780D02*
D03*
Y13400D02*
D03*
Y23560D02*
D03*
X55047Y5780D02*
D03*
Y13400D02*
D03*
Y23560D02*
D03*
X84953Y5780D02*
D03*
Y13400D02*
D03*
Y23560D02*
D03*
X75047Y5780D02*
D03*
Y13400D02*
D03*
Y23560D02*
D03*
D75*
X119873Y18480D02*
D03*
X39873D02*
D03*
X99873D02*
D03*
X19873D02*
D03*
X59873Y18480D02*
D03*
X79873Y18480D02*
D03*
D76*
X100900Y79700D02*
D03*
X94200Y83400D02*
D03*
X97800Y80900D02*
D03*
X96800Y79300D02*
D03*
D77*
X99000Y78100D02*
D03*
Y79100D02*
D03*
X98900Y82100D02*
D03*
Y75700D02*
D03*
X97600Y76200D02*
D03*
X96900Y77300D02*
D03*
X100800Y77700D02*
D03*
M02*
