G04 Layer_Physical_Order=1*
G04 Layer_Color=255*
%FSLAX43Y43*%
%MOMM*%
G71*
G01*
G75*
%ADD10R,1.100X1.000*%
%ADD11R,1.000X1.100*%
%ADD12R,0.600X0.900*%
%ADD13R,2.000X1.200*%
%ADD14R,2.700X1.600*%
%ADD15R,0.900X0.600*%
%ADD16R,0.800X0.800*%
%ADD17R,3.000X1.200*%
%ADD18R,0.850X0.350*%
%ADD19R,1.550X0.600*%
%ADD20R,0.400X1.350*%
%ADD21R,1.500X1.550*%
%ADD22R,1.050X0.600*%
%ADD23C,0.500*%
%ADD24C,1.000*%
%ADD25C,2.000*%
%ADD26C,0.300*%
%ADD27C,0.400*%
%ADD28C,0.254*%
%ADD29C,0.203*%
%ADD30R,2.000X1.600*%
%ADD31C,2.500*%
%ADD32C,1.110*%
%ADD33C,3.000*%
%ADD34C,6.000*%
%ADD35C,1.500*%
%ADD36C,2.000*%
%ADD37C,1.250*%
%ADD38C,1.550*%
%ADD39R,1.500X1.500*%
%ADD40C,4.166*%
%ADD41C,2.540*%
%ADD42C,0.610*%
%ADD43C,0.601*%
G36*
X99500Y75300D02*
X97200D01*
X97200Y76400D01*
X97500Y76700D01*
X97500Y78200D01*
X97600Y78300D01*
X98500Y78300D01*
X98500Y80100D01*
X97400Y80100D01*
Y82500D01*
X99500Y82500D01*
Y75300D01*
D02*
G37*
G36*
X101300Y77800D02*
Y77800D01*
X105000D01*
Y74600D01*
X100000D01*
X99900Y74700D01*
Y77700D01*
X99700Y77900D01*
Y78300D01*
X100800D01*
X101300Y77800D01*
D02*
G37*
G36*
X100600Y85400D02*
X103600Y82400D01*
Y80000D01*
X101400D01*
Y80100D01*
X101200Y80300D01*
X99900D01*
Y82400D01*
X98000Y84300D01*
Y89000D01*
X100600D01*
Y85400D01*
D02*
G37*
G36*
X103600Y79400D02*
X103600Y78000D01*
X101400Y78000D01*
X100800Y78600D01*
X100500Y78600D01*
Y79000D01*
X101000Y79000D01*
X101400Y79400D01*
X103600Y79400D01*
D02*
G37*
D10*
X122450Y38500D02*
D03*
X124150D02*
D03*
X122450Y36500D02*
D03*
X124150D02*
D03*
X122450Y34500D02*
D03*
X124150D02*
D03*
X122450Y32500D02*
D03*
X124150D02*
D03*
X16150Y33000D02*
D03*
X14450D02*
D03*
X16150Y35000D02*
D03*
X14450D02*
D03*
X16150Y37000D02*
D03*
X14450D02*
D03*
X16150Y39000D02*
D03*
X14450D02*
D03*
X9350Y57000D02*
D03*
X7650D02*
D03*
X9350Y61000D02*
D03*
X7650D02*
D03*
X7650Y73000D02*
D03*
X9350D02*
D03*
X7650Y77000D02*
D03*
X9350D02*
D03*
X134150Y77100D02*
D03*
X132450D02*
D03*
X98850Y80900D02*
D03*
X100550D02*
D03*
X98850Y76900D02*
D03*
X100550D02*
D03*
X119150Y65500D02*
D03*
X120850D02*
D03*
X119150Y61500D02*
D03*
X120850D02*
D03*
X120850Y45500D02*
D03*
X119150D02*
D03*
X120850Y49500D02*
D03*
X119150D02*
D03*
D11*
X125000Y54650D02*
D03*
Y56350D02*
D03*
X87000Y32350D02*
D03*
Y30650D02*
D03*
X89000Y32350D02*
D03*
Y30650D02*
D03*
X13500Y66150D02*
D03*
Y67850D02*
D03*
X43100Y32350D02*
D03*
Y30650D02*
D03*
X45000Y32350D02*
D03*
Y30650D02*
D03*
X115000Y54650D02*
D03*
Y56350D02*
D03*
X3500Y66150D02*
D03*
Y67850D02*
D03*
X94200Y82150D02*
D03*
Y80450D02*
D03*
D12*
X125450Y76000D02*
D03*
X126950D02*
D03*
Y74500D02*
D03*
X125450D02*
D03*
X9250Y59000D02*
D03*
X7750D02*
D03*
Y63000D02*
D03*
X9250D02*
D03*
Y71000D02*
D03*
X7750D02*
D03*
Y75000D02*
D03*
X9250D02*
D03*
X126050Y71600D02*
D03*
X124550D02*
D03*
X128800D02*
D03*
X127300D02*
D03*
X108850Y72500D02*
D03*
X110350D02*
D03*
X119250Y63500D02*
D03*
X120750D02*
D03*
Y59500D02*
D03*
X119250D02*
D03*
X120750Y47500D02*
D03*
X119250D02*
D03*
Y51500D02*
D03*
X120750D02*
D03*
D13*
X102500Y80700D02*
D03*
Y78700D02*
D03*
D14*
X13500Y58600D02*
D03*
Y61400D02*
D03*
X106800Y75100D02*
D03*
Y72300D02*
D03*
X123500Y47100D02*
D03*
Y49900D02*
D03*
X116500Y64400D02*
D03*
Y61600D02*
D03*
X3500Y75400D02*
D03*
Y72600D02*
D03*
D15*
X129000Y87500D02*
D03*
Y89000D02*
D03*
X95600Y80650D02*
D03*
Y82150D02*
D03*
D16*
X124000Y76000D02*
D03*
X122400D02*
D03*
X122300Y74400D02*
D03*
X123900D02*
D03*
D17*
X103500Y75224D02*
D03*
Y72176D02*
D03*
D18*
X100100Y79450D02*
D03*
Y78800D02*
D03*
Y78150D02*
D03*
X97900D02*
D03*
Y78800D02*
D03*
Y79450D02*
D03*
D19*
X5800Y65095D02*
D03*
Y66365D02*
D03*
Y67635D02*
D03*
Y68905D02*
D03*
X11200D02*
D03*
Y67635D02*
D03*
Y66365D02*
D03*
Y65095D02*
D03*
X117300Y53595D02*
D03*
Y54865D02*
D03*
Y56135D02*
D03*
Y57405D02*
D03*
X122700D02*
D03*
Y56135D02*
D03*
Y54865D02*
D03*
Y53595D02*
D03*
D20*
X122300Y96000D02*
D03*
X121650D02*
D03*
X121000D02*
D03*
X120350D02*
D03*
X119700D02*
D03*
D21*
X122000Y98700D02*
D03*
X120000D02*
D03*
D22*
X130450Y75150D02*
D03*
Y74200D02*
D03*
Y73250D02*
D03*
X133150Y74200D02*
D03*
Y73250D02*
D03*
Y75150D02*
D03*
D23*
X106800Y72600D02*
X108450D01*
X37700Y45800D02*
X38000Y46100D01*
X37700Y41000D02*
Y45800D01*
X33000Y31300D02*
Y36170D01*
X33000Y36170D02*
X33000Y36170D01*
X37700Y31600D02*
X38000Y31300D01*
X37700Y31600D02*
Y36170D01*
X40030D02*
X43100Y33100D01*
X37700Y36170D02*
X40030D01*
X43978Y22522D02*
X45080D01*
X16150Y37000D02*
X27470D01*
X28300Y36170D01*
X28000Y35870D02*
X28300Y36170D01*
X28000Y31300D02*
Y35870D01*
X22500Y42500D02*
X27000D01*
X28300Y41200D01*
Y41000D02*
Y41200D01*
X99670Y36170D02*
X100300D01*
X95850Y32350D02*
X99670Y36170D01*
X100000Y35870D02*
X100300Y36170D01*
X100000Y31000D02*
Y35870D01*
X100000Y41300D02*
X100300Y41000D01*
X122250Y38500D02*
X122350Y38400D01*
X105080Y22522D02*
X110000Y27442D01*
X109700Y36170D02*
X110000Y35870D01*
Y31000D02*
Y35870D01*
X109700Y41000D02*
X114200Y36500D01*
X133200Y75150D02*
Y75700D01*
X93800Y34500D02*
X100300Y41000D01*
X132450Y76450D02*
X133200Y75700D01*
X134150Y77100D02*
X136100D01*
X129100Y86000D02*
Y87400D01*
X129000Y87500D02*
X129100Y87400D01*
X122350Y38400D02*
X122450Y38500D01*
X43100Y32350D02*
Y33100D01*
X123500Y49900D02*
X123500Y49900D01*
X123500Y49900D02*
Y51400D01*
X122700Y52200D02*
X123500Y51400D01*
X121500Y32500D02*
X122450D01*
X120000Y34500D02*
X122450D01*
X130000Y32220D02*
X130500D01*
X129720Y32500D02*
X130000Y32220D01*
X124150Y32500D02*
X129720D01*
X130000Y34760D02*
X130500D01*
X129740Y34500D02*
X130000Y34760D01*
X124150Y34500D02*
X129740D01*
X130100Y37300D02*
X130500D01*
X124150Y36500D02*
X129300D01*
X130340Y47300D02*
X130500Y47460D01*
X129600Y47100D02*
X129800Y47300D01*
X16150Y39000D02*
X19000D01*
X18500Y33000D02*
X19000Y32500D01*
X33000Y46100D02*
X33000Y46100D01*
X15200Y48300D02*
X25300D01*
X27500Y50500D01*
X7650Y55850D02*
X15200Y48300D01*
X17500Y52000D02*
X20000Y49500D01*
X21100D01*
X21500Y49900D01*
Y50500D01*
X19000Y39000D02*
X21100Y41100D01*
X28000Y31300D02*
X28300Y31600D01*
X45000Y30650D02*
X56952D01*
X45000Y32350D02*
Y33200D01*
X46250Y27500D02*
X55500D01*
X43100Y30650D02*
X46250Y27500D01*
X119499Y29300D02*
Y30499D01*
Y23001D02*
Y29300D01*
X2400Y75400D02*
X3500D01*
X113400Y57500D02*
X114550Y56350D01*
X115000D01*
X120800Y67100D02*
X120850Y67050D01*
Y65500D02*
Y67050D01*
X5800Y64200D02*
X7000Y63000D01*
X5800Y64200D02*
Y65095D01*
X124700Y88500D02*
X125200Y89000D01*
X129000D01*
X124700Y88500D02*
X125000Y88200D01*
X116500Y59600D02*
Y61600D01*
Y59600D02*
X117300Y58800D01*
X119150Y65500D02*
X119250Y65400D01*
Y63500D02*
Y65400D01*
X120750Y63500D02*
X120850Y63400D01*
Y61500D02*
Y63400D01*
X120750Y61400D02*
X120850Y61500D01*
X120750Y59500D02*
Y61400D01*
X119150Y59600D02*
X119250Y59500D01*
X119150Y59600D02*
Y61500D01*
X118100Y51400D02*
X119150D01*
X117300Y52200D02*
X118100Y51400D01*
X117300Y52200D02*
Y53595D01*
X115000Y54650D02*
X115215Y54865D01*
X117300D01*
X115000Y56350D02*
X115215Y56135D01*
X117300D01*
Y57405D02*
Y58800D01*
X118000Y59500D01*
X119250D01*
X120750D02*
X122000D01*
X122700Y58800D01*
Y57405D02*
Y58800D01*
X124785Y56135D02*
X125000Y56350D01*
X122700Y56135D02*
X124785D01*
X124785Y54865D02*
X125000Y54650D01*
X122700Y54865D02*
X124785D01*
X122700Y52200D02*
Y53595D01*
X122000Y51500D02*
X122700Y52200D01*
X120750Y51500D02*
X122000D01*
X120750D02*
X120850Y51400D01*
Y49500D02*
Y51400D01*
X119150Y49500D02*
Y51400D01*
Y49500D02*
X119250Y49400D01*
Y47500D02*
Y49400D01*
X120750Y47500D02*
X120850Y47400D01*
Y45500D02*
Y47400D01*
X115500Y45500D02*
X119150D01*
X110000Y51000D02*
X115500Y45500D01*
X110000Y27442D02*
Y31000D01*
X124150Y38500D02*
X129160D01*
X119499Y23001D02*
X125080Y17420D01*
X119499Y30499D02*
X121500Y32500D01*
X119500Y34000D02*
X120000Y34500D01*
X107500Y49000D02*
Y50500D01*
X105000Y46500D02*
X107500Y49000D01*
X105000Y46000D02*
Y46500D01*
X89000Y32350D02*
X95850D01*
X81500Y25150D02*
X87000Y30650D01*
Y32350D02*
X89150Y34500D01*
X93800D01*
X89000Y26000D02*
Y30500D01*
X100000Y31000D02*
X100300Y31300D01*
X3500Y72600D02*
X5800Y70300D01*
X5800D01*
X7650Y71100D02*
X7750Y71000D01*
X7650Y71100D02*
Y73000D01*
Y75100D02*
X7750Y75000D01*
X7650Y75100D02*
Y77000D01*
X9350D02*
X11500D01*
X17500Y71000D01*
Y52000D02*
Y71000D01*
X7650Y55850D02*
Y57000D01*
X13500Y56000D02*
X13500Y56000D01*
X11200Y68905D02*
Y70300D01*
X10500Y71000D02*
X11200Y70300D01*
X9250Y71000D02*
X10500D01*
X6500D02*
X7750D01*
X5800Y70300D02*
X6500Y71000D01*
X5800Y68905D02*
Y70300D01*
X3500Y67850D02*
X3715Y67635D01*
X5800D01*
X3500Y66150D02*
X3715Y66365D01*
X5800D01*
X13285D02*
X13500Y66150D01*
X11200Y66365D02*
X13285D01*
X13285Y67635D02*
X13500Y67850D01*
X11200Y67635D02*
X13285D01*
X13500Y61400D02*
Y61400D01*
X9250Y63000D02*
X10500D01*
X11200Y63700D01*
Y65095D01*
X7000Y63000D02*
X7750D01*
X9250D02*
X9350Y62900D01*
Y61000D02*
Y62900D01*
X9250Y59000D02*
X9350Y58900D01*
Y57000D02*
Y58900D01*
X55500Y27500D02*
X65080Y17920D01*
X23000Y31000D02*
Y32500D01*
X20500Y35000D02*
X23000Y32500D01*
X19000Y31000D02*
Y32500D01*
X10000Y39840D02*
X10840Y39000D01*
X10000Y37300D02*
X10300Y37000D01*
X10000Y32220D02*
X10780Y33000D01*
X126950Y74500D02*
Y76000D01*
X119800Y81900D02*
Y82000D01*
X121400Y83600D01*
X124000Y76000D02*
X125450D01*
X124000Y74500D02*
X125450D01*
X123900Y74400D02*
X124000Y74500D01*
X126950Y76000D02*
X128750D01*
X121100Y81100D02*
X122500Y82500D01*
X121100Y75300D02*
Y81100D01*
Y75300D02*
X122000Y74400D01*
X122300D01*
X121100Y73400D02*
Y75300D01*
Y73400D02*
X122900Y71600D01*
X124550D01*
X129200Y72700D02*
X129750Y73250D01*
X127900Y72700D02*
X129200D01*
X127300Y72100D02*
X127900Y72700D01*
X127300Y71600D02*
Y72100D01*
X128800Y71600D02*
X130000D01*
X130400Y71200D01*
X33000Y31300D02*
X33000Y31300D01*
X114200Y36500D02*
X122450D01*
X116800Y38500D02*
X122250D01*
X85080Y22522D02*
X85522D01*
X81500Y22100D02*
Y25150D01*
Y22100D02*
X85080Y18520D01*
X111200Y69600D02*
X111300Y69700D01*
X122400Y78200D02*
X122500Y78300D01*
X122400Y76000D02*
Y78200D01*
X7750Y59000D02*
Y63000D01*
X9250Y71000D02*
Y75000D01*
X129300Y36500D02*
X130100Y37300D01*
X129800Y47300D02*
X130340D01*
X128750Y76000D02*
X129600Y75150D01*
X129160Y38500D02*
X130500Y39840D01*
X125080Y12362D02*
Y17420D01*
X128500Y74200D02*
X130450D01*
X130500D01*
X129600Y75150D02*
X130450D01*
X130500D01*
X129750Y73250D02*
X130450D01*
X130500D01*
X65080Y12362D02*
Y17920D01*
X56952Y30650D02*
X65080Y22522D01*
X85080Y12362D02*
Y18520D01*
X85522Y22522D02*
X89000Y26000D01*
X96800Y82900D02*
X98850Y84950D01*
X99100D01*
X95600Y82150D02*
X96450D01*
X96800Y82500D01*
X96450Y82150D02*
X96800Y81800D01*
Y80248D02*
Y81800D01*
Y80248D02*
X96998Y80050D01*
X96800Y82500D02*
Y82900D01*
X10840Y39000D02*
X14450D01*
X21100Y41100D02*
X21100D01*
X22500Y42500D01*
X16150Y35000D02*
X20500D01*
X16150Y33000D02*
X18500D01*
X10780D02*
X14450D01*
X10000Y34760D02*
X14210D01*
X14450Y35000D01*
X10000Y37300D02*
X14150D01*
X14450Y37000D01*
X37600Y40600D02*
X45000Y33200D01*
X33000Y42035D02*
Y46100D01*
X105000Y31000D02*
Y35135D01*
X109600Y42035D02*
Y45600D01*
X110000Y46000D01*
X100000Y41300D02*
Y46000D01*
X105000Y42035D02*
Y46000D01*
D24*
X106300Y72100D02*
X106800Y72600D01*
X103500Y72100D02*
X106300D01*
X108700Y92530D02*
X108870Y92700D01*
X120900D01*
X1200Y74200D02*
X2400Y75400D01*
X1200Y60400D02*
Y74200D01*
Y60400D02*
X10000Y51600D01*
X132450Y76450D02*
Y77100D01*
X127400Y47100D02*
X129600D01*
X123600D02*
X127400D01*
Y52900D01*
X10000Y50000D02*
Y51600D01*
X114700Y64400D02*
X116500D01*
X113700Y63400D02*
X114700Y64400D01*
X131900Y78800D02*
X132450Y78250D01*
X126900Y78800D02*
X131900D01*
X123200Y82500D02*
X126900Y78800D01*
X132450Y77200D02*
Y78250D01*
X3500Y75400D02*
Y79000D01*
X13500Y56000D02*
Y58600D01*
X11200Y63700D02*
X13500Y61400D01*
X107000Y75400D02*
X108800Y77200D01*
X103500Y75524D02*
Y75800D01*
Y72100D02*
Y72176D01*
Y75800D02*
X103900Y76200D01*
X120900Y92700D02*
X122300Y94100D01*
D25*
X111300Y69700D02*
Y72900D01*
X112200Y73800D01*
X108700Y81000D02*
Y87700D01*
X104500Y76800D02*
X108700Y81000D01*
X38600Y69700D02*
X111100D01*
X111200Y69600D02*
Y69700D01*
Y59700D02*
Y69600D01*
X122300D01*
X111100D02*
X111200D01*
X122300D02*
X132900Y59000D01*
X38600Y51300D02*
Y69700D01*
X132900Y46100D02*
Y59000D01*
X131720Y44920D02*
X132900Y46100D01*
X130000Y44920D02*
X131720D01*
X28800Y48500D02*
X35800D01*
X25220Y44920D02*
X28800Y48500D01*
X10000Y44920D02*
X25220D01*
X35800Y48500D02*
X38600Y51300D01*
X111200Y59700D02*
X113400Y57500D01*
X120000Y85000D02*
Y88500D01*
Y85000D02*
X121400Y83600D01*
X122500Y82500D01*
X111100Y69600D02*
Y69700D01*
X111200D01*
X21300Y70800D02*
X37700D01*
X38600Y69900D01*
X103900Y76200D02*
Y76800D01*
X104500D01*
D26*
X106000Y75400D02*
X107000D01*
X132300Y77050D02*
X132450Y77200D01*
X126050Y71600D02*
X127300D01*
X122500Y82500D02*
X123200D01*
D27*
X122300Y94100D02*
Y96000D01*
D28*
X124900Y52800D02*
Y54550D01*
X125000Y54650D01*
X115000Y52700D02*
Y54650D01*
X3700Y64700D02*
Y65950D01*
Y64500D02*
Y64700D01*
X3500Y66150D02*
X3700Y65950D01*
X3550Y64850D02*
X3700Y64700D01*
X13600Y64500D02*
Y66050D01*
X13500Y66150D02*
X13600Y66050D01*
X3500Y67850D02*
Y69200D01*
X119700Y94200D02*
Y96000D01*
X133200Y73250D02*
Y74200D01*
X117500Y98700D02*
X120000D01*
X122000D01*
X124500D01*
D29*
X100100Y79450D02*
X100550D01*
X98950Y78150D02*
X99000Y78100D01*
X97400Y78800D02*
X97900D01*
X95600Y80000D02*
Y80650D01*
X94200Y80450D02*
X94400Y80650D01*
X99100Y87500D02*
X99300Y87700D01*
X94200Y82150D02*
Y83400D01*
X97850Y79500D02*
X97900Y79450D01*
X97600Y79500D02*
X97850D01*
X96900Y77300D02*
Y78300D01*
X97400Y78800D01*
X97800Y80900D02*
X98850D01*
X97050Y80050D02*
X97600Y79500D01*
X94400Y80650D02*
X95600D01*
Y80000D02*
X96300Y79300D01*
X96800D01*
X100550Y79450D02*
X100900Y79800D01*
X99100Y84950D02*
Y87500D01*
D30*
X117700Y98700D02*
D03*
X124300D02*
D03*
D31*
X100300Y41000D02*
D03*
X105000D02*
D03*
X109700D02*
D03*
X100300Y36170D02*
D03*
X105000D02*
D03*
X109700D02*
D03*
X37700D02*
D03*
X33000D02*
D03*
X28300D02*
D03*
X37700Y41000D02*
D03*
X33000D02*
D03*
X28300D02*
D03*
X108700Y87700D02*
D03*
X104000D02*
D03*
X99300D02*
D03*
X108700Y92530D02*
D03*
X104000D02*
D03*
X99300D02*
D03*
X124700Y88500D02*
D03*
X120000D02*
D03*
X115300D02*
D03*
D32*
X107500Y50500D02*
D03*
X105500D02*
D03*
X103500D02*
D03*
X101500D02*
D03*
X99500D02*
D03*
X97500D02*
D03*
X31500D02*
D03*
X29500D02*
D03*
X27500D02*
D03*
X25500D02*
D03*
X23500D02*
D03*
X21500D02*
D03*
D33*
X108000Y61500D02*
D03*
X97000D02*
D03*
X32000D02*
D03*
X21000D02*
D03*
D34*
X135000Y5000D02*
D03*
Y95000D02*
D03*
X5000D02*
D03*
Y5000D02*
D03*
D35*
X135000Y87500D02*
D03*
Y12500D02*
D03*
X33000Y31300D02*
D03*
X33000Y46100D02*
D03*
X105000Y46000D02*
D03*
Y31000D02*
D03*
X5000Y87500D02*
D03*
X3500Y79000D02*
D03*
X13500Y56000D02*
D03*
X5000Y12500D02*
D03*
X19000Y31000D02*
D03*
X23000D02*
D03*
X28000Y31300D02*
D03*
X38000D02*
D03*
X38000Y46100D02*
D03*
X100000Y31000D02*
D03*
X100000Y46000D02*
D03*
X110000Y31000D02*
D03*
X119500Y34000D02*
D03*
X119499Y29300D02*
D03*
X110000Y46000D02*
D03*
X112200Y73800D02*
D03*
X119800Y81900D02*
D03*
X127400Y52900D02*
D03*
X113700Y63400D02*
D03*
X22500Y42500D02*
D03*
X10000Y32220D02*
D03*
Y34760D02*
D03*
Y37300D02*
D03*
Y39840D02*
D03*
Y42380D02*
D03*
Y44920D02*
D03*
Y47460D02*
D03*
X130000Y32220D02*
D03*
Y34760D02*
D03*
Y37300D02*
D03*
Y39840D02*
D03*
Y42380D02*
D03*
Y44920D02*
D03*
Y47460D02*
D03*
X3000Y32220D02*
D03*
Y34760D02*
D03*
Y37300D02*
D03*
Y39840D02*
D03*
Y42380D02*
D03*
Y44920D02*
D03*
Y47460D02*
D03*
X137000Y32220D02*
D03*
Y34760D02*
D03*
Y37300D02*
D03*
Y39840D02*
D03*
Y42380D02*
D03*
Y44920D02*
D03*
Y47460D02*
D03*
X128500Y74200D02*
D03*
X129100Y86000D02*
D03*
X119700Y94200D02*
D03*
X124900Y52800D02*
D03*
X115000Y52700D02*
D03*
X3700Y64500D02*
D03*
X13600D02*
D03*
X120800Y67100D02*
D03*
X3500Y69200D02*
D03*
X136100Y77100D02*
D03*
X110000Y51000D02*
D03*
X130400Y71200D02*
D03*
X116800Y38500D02*
D03*
X108800Y77200D02*
D03*
X21300Y70800D02*
D03*
X122500Y78300D02*
D03*
D36*
X83300Y91500D02*
D03*
X67500D02*
D03*
D37*
X123500Y96000D02*
D03*
X118500D02*
D03*
D38*
X124500Y98700D02*
D03*
X117500D02*
D03*
D39*
X10000Y50000D02*
D03*
X130000Y50000D02*
D03*
X3000Y50000D02*
D03*
X137000Y50000D02*
D03*
D40*
X124953Y5780D02*
D03*
Y13400D02*
D03*
Y23560D02*
D03*
X115047Y5780D02*
D03*
Y13400D02*
D03*
Y23560D02*
D03*
X44953Y5780D02*
D03*
Y13400D02*
D03*
Y23560D02*
D03*
X35047Y5780D02*
D03*
Y13400D02*
D03*
Y23560D02*
D03*
X104953Y5780D02*
D03*
Y13400D02*
D03*
Y23560D02*
D03*
X95047Y5780D02*
D03*
Y13400D02*
D03*
Y23560D02*
D03*
X24953Y5780D02*
D03*
Y13400D02*
D03*
Y23560D02*
D03*
X15047Y5780D02*
D03*
Y13400D02*
D03*
Y23560D02*
D03*
X64953Y5780D02*
D03*
Y13400D02*
D03*
Y23560D02*
D03*
X55047Y5780D02*
D03*
Y13400D02*
D03*
Y23560D02*
D03*
X84953Y5780D02*
D03*
Y13400D02*
D03*
Y23560D02*
D03*
X75047Y5780D02*
D03*
Y13400D02*
D03*
Y23560D02*
D03*
D41*
X119873Y18480D02*
D03*
X39873D02*
D03*
X99873D02*
D03*
X19873D02*
D03*
X59873Y18480D02*
D03*
X79873Y18480D02*
D03*
D42*
X100900Y79700D02*
D03*
X94200Y83400D02*
D03*
X97800Y80900D02*
D03*
X96800Y79300D02*
D03*
D43*
X99000Y78100D02*
D03*
Y79100D02*
D03*
X98900Y82100D02*
D03*
Y75700D02*
D03*
X97600Y76200D02*
D03*
X96900Y77300D02*
D03*
X100800Y77700D02*
D03*
M02*
