G04 Layer_Physical_Order=2*
G04 Layer_Color=16711680*
%FSLAX43Y43*%
%MOMM*%
G71*
G01*
G75*
%ADD23C,0.500*%
%ADD24C,1.000*%
%ADD25C,2.000*%
%ADD26C,0.300*%
%ADD29C,0.203*%
%ADD31C,2.500*%
%ADD32C,1.110*%
%ADD33C,3.000*%
%ADD34C,6.000*%
%ADD35C,1.500*%
%ADD36C,2.000*%
%ADD37C,1.250*%
%ADD38C,1.550*%
%ADD39R,1.500X1.500*%
%ADD40C,4.166*%
%ADD41C,2.540*%
%ADD42C,0.610*%
%ADD43C,0.601*%
%ADD44C,1.500*%
G36*
X139000Y1000D02*
X1000D01*
Y99000D01*
X116380D01*
X116485Y98873D01*
X116479Y98827D01*
X117500D01*
X118521D01*
X118515Y98873D01*
X118620Y99000D01*
X123380D01*
X123485Y98873D01*
X123479Y98827D01*
X124500D01*
X125521D01*
X125515Y98873D01*
X125620Y99000D01*
X139000D01*
Y1000D01*
D02*
G37*
%LPC*%
G36*
X137000Y35670D02*
X136764Y35639D01*
X136545Y35548D01*
X136356Y35404D01*
X136212Y35215D01*
X136193Y35170D01*
X130807D01*
X130788Y35215D01*
X130644Y35404D01*
X130455Y35548D01*
X130236Y35639D01*
X130000Y35670D01*
X129764Y35639D01*
X129545Y35548D01*
X129356Y35404D01*
X129212Y35215D01*
X129121Y34996D01*
X129090Y34760D01*
X129121Y34524D01*
X129212Y34305D01*
X129356Y34116D01*
X129545Y33972D01*
X129764Y33881D01*
X130000Y33850D01*
X130236Y33881D01*
X130455Y33972D01*
X130644Y34116D01*
X130788Y34305D01*
X130807Y34350D01*
X136193D01*
X136212Y34305D01*
X136356Y34116D01*
X136545Y33972D01*
X136764Y33881D01*
X137000Y33850D01*
X137236Y33881D01*
X137455Y33972D01*
X137644Y34116D01*
X137788Y34305D01*
X137879Y34524D01*
X137910Y34760D01*
X137879Y34996D01*
X137788Y35215D01*
X137644Y35404D01*
X137455Y35548D01*
X137236Y35639D01*
X137000Y35670D01*
D02*
G37*
G36*
X10000Y35670D02*
X9764Y35639D01*
X9545Y35548D01*
X9356Y35404D01*
X9212Y35215D01*
X9193Y35170D01*
X3807D01*
X3788Y35215D01*
X3644Y35404D01*
X3455Y35548D01*
X3236Y35639D01*
X3000Y35670D01*
X2764Y35639D01*
X2545Y35548D01*
X2356Y35404D01*
X2212Y35215D01*
X2121Y34996D01*
X2090Y34760D01*
X2121Y34524D01*
X2212Y34305D01*
X2356Y34116D01*
X2545Y33972D01*
X2764Y33881D01*
X3000Y33850D01*
X3236Y33881D01*
X3455Y33972D01*
X3644Y34116D01*
X3788Y34305D01*
X3807Y34350D01*
X9193D01*
X9212Y34305D01*
X9356Y34116D01*
X9545Y33972D01*
X9764Y33881D01*
X10000Y33850D01*
X10236Y33881D01*
X10455Y33972D01*
X10644Y34116D01*
X10788Y34305D01*
X10879Y34524D01*
X10910Y34760D01*
X10879Y34996D01*
X10788Y35215D01*
X10644Y35404D01*
X10455Y35548D01*
X10236Y35639D01*
X10000Y35670D01*
D02*
G37*
G36*
X116800Y39410D02*
X116564Y39379D01*
X116345Y39288D01*
X116156Y39144D01*
X116012Y38955D01*
X115993Y38910D01*
X112030D01*
X111873Y38879D01*
X111740Y38790D01*
X110363Y37413D01*
X110066Y37536D01*
X109700Y37584D01*
X109334Y37536D01*
X108993Y37395D01*
X108700Y37170D01*
X108475Y36877D01*
X108334Y36536D01*
X108285Y36170D01*
X108334Y35804D01*
X108475Y35463D01*
X108700Y35170D01*
X108993Y34945D01*
X109334Y34804D01*
X109700Y34756D01*
X110066Y34804D01*
X110407Y34945D01*
X110700Y35170D01*
X110925Y35463D01*
X111066Y35804D01*
X111115Y36170D01*
X111066Y36536D01*
X110943Y36833D01*
X112200Y38090D01*
X115993D01*
X116012Y38045D01*
X116156Y37856D01*
X116345Y37712D01*
X116564Y37621D01*
X116800Y37590D01*
X117036Y37621D01*
X117255Y37712D01*
X117444Y37856D01*
X117588Y38045D01*
X117679Y38264D01*
X117710Y38500D01*
X117679Y38736D01*
X117588Y38955D01*
X117444Y39144D01*
X117255Y39288D01*
X117036Y39379D01*
X116800Y39410D01*
D02*
G37*
G36*
X31500Y51214D02*
X31315Y51189D01*
X31143Y51118D01*
X30995Y51005D01*
X30882Y50857D01*
X30811Y50685D01*
X30787Y50500D01*
X30811Y50315D01*
X30882Y50143D01*
X30995Y49995D01*
X31143Y49882D01*
X31315Y49811D01*
X31500Y49786D01*
X31618Y49802D01*
X35090Y46330D01*
Y38670D01*
X33768Y37348D01*
X33707Y37395D01*
X33366Y37536D01*
X33000Y37584D01*
X32634Y37536D01*
X32293Y37395D01*
X32000Y37170D01*
X31775Y36877D01*
X31634Y36536D01*
X31585Y36170D01*
X31634Y35804D01*
X31775Y35463D01*
X32000Y35170D01*
X32293Y34945D01*
X32634Y34804D01*
X33000Y34756D01*
X33366Y34804D01*
X33707Y34945D01*
X34000Y35170D01*
X34225Y35463D01*
X34366Y35804D01*
X34414Y36170D01*
X34366Y36536D01*
X34293Y36713D01*
X35790Y38210D01*
X35879Y38343D01*
X35910Y38500D01*
Y46500D01*
X35879Y46657D01*
X35790Y46790D01*
X32198Y50382D01*
X32214Y50500D01*
X32189Y50685D01*
X32118Y50857D01*
X32005Y51005D01*
X31857Y51118D01*
X31685Y51189D01*
X31500Y51214D01*
D02*
G37*
G36*
X37700Y37584D02*
X37334Y37536D01*
X36993Y37395D01*
X36700Y37170D01*
X36475Y36877D01*
X36334Y36536D01*
X36285Y36170D01*
X36334Y35804D01*
X36475Y35463D01*
X36700Y35170D01*
X36993Y34945D01*
X37334Y34804D01*
X37700Y34756D01*
X38066Y34804D01*
X38407Y34945D01*
X38700Y35170D01*
X38925Y35463D01*
X39066Y35804D01*
X39114Y36170D01*
X39066Y36536D01*
X38925Y36877D01*
X38700Y37170D01*
X38407Y37395D01*
X38066Y37536D01*
X37700Y37584D01*
D02*
G37*
G36*
X28300D02*
X27934Y37536D01*
X27593Y37395D01*
X27300Y37170D01*
X27075Y36877D01*
X26934Y36536D01*
X26885Y36170D01*
X26934Y35804D01*
X27075Y35463D01*
X27300Y35170D01*
X27593Y34945D01*
X27934Y34804D01*
X28300Y34756D01*
X28666Y34804D01*
X29007Y34945D01*
X29300Y35170D01*
X29525Y35463D01*
X29666Y35804D01*
X29714Y36170D01*
X29666Y36536D01*
X29525Y36877D01*
X29300Y37170D01*
X29007Y37395D01*
X28666Y37536D01*
X28300Y37584D01*
D02*
G37*
G36*
X105500Y51214D02*
X105315Y51189D01*
X105143Y51118D01*
X104995Y51005D01*
X104882Y50857D01*
X104811Y50685D01*
X104786Y50500D01*
X104811Y50315D01*
X104882Y50143D01*
X104961Y50041D01*
X102710Y47790D01*
X102710Y47790D01*
X102210Y47290D01*
X102121Y47157D01*
X102090Y47000D01*
Y38670D01*
X102121Y38513D01*
X102210Y38380D01*
X103757Y36833D01*
X103634Y36536D01*
X103586Y36170D01*
X103634Y35804D01*
X103775Y35463D01*
X104000Y35170D01*
X104293Y34945D01*
X104634Y34804D01*
X105000Y34756D01*
X105366Y34804D01*
X105707Y34945D01*
X106000Y35170D01*
X106225Y35463D01*
X106366Y35804D01*
X106414Y36170D01*
X106366Y36536D01*
X106225Y36877D01*
X106000Y37170D01*
X105707Y37395D01*
X105366Y37536D01*
X105000Y37584D01*
X104634Y37536D01*
X104337Y37413D01*
X102910Y38840D01*
Y46830D01*
X103290Y47210D01*
X103290Y47210D01*
X105790Y49710D01*
X105879Y49843D01*
X105892Y49909D01*
X106005Y49995D01*
X106118Y50143D01*
X106189Y50315D01*
X106214Y50500D01*
X106189Y50685D01*
X106118Y50857D01*
X106005Y51005D01*
X105857Y51118D01*
X105685Y51189D01*
X105500Y51214D01*
D02*
G37*
G36*
X100300Y37584D02*
X99934Y37536D01*
X99593Y37395D01*
X99300Y37170D01*
X99075Y36877D01*
X98934Y36536D01*
X98885Y36170D01*
X98934Y35804D01*
X99075Y35463D01*
X99300Y35170D01*
X99593Y34945D01*
X99934Y34804D01*
X100300Y34756D01*
X100666Y34804D01*
X101007Y34945D01*
X101300Y35170D01*
X101525Y35463D01*
X101666Y35804D01*
X101715Y36170D01*
X101666Y36536D01*
X101525Y36877D01*
X101300Y37170D01*
X101007Y37395D01*
X100666Y37536D01*
X100300Y37584D01*
D02*
G37*
G36*
X105000Y42415D02*
X104634Y42366D01*
X104293Y42225D01*
X104000Y42000D01*
X103775Y41707D01*
X103634Y41366D01*
X103586Y41000D01*
X103634Y40634D01*
X103775Y40293D01*
X104000Y40000D01*
X104293Y39775D01*
X104634Y39634D01*
X105000Y39585D01*
X105366Y39634D01*
X105707Y39775D01*
X106000Y40000D01*
X106225Y40293D01*
X106366Y40634D01*
X106414Y41000D01*
X106366Y41366D01*
X106225Y41707D01*
X106000Y42000D01*
X105707Y42225D01*
X105366Y42366D01*
X105000Y42415D01*
D02*
G37*
G36*
X100300D02*
X99934Y42366D01*
X99593Y42225D01*
X99300Y42000D01*
X99075Y41707D01*
X98934Y41366D01*
X98885Y41000D01*
X98934Y40634D01*
X99075Y40293D01*
X99300Y40000D01*
X99593Y39775D01*
X99934Y39634D01*
X100300Y39585D01*
X100666Y39634D01*
X101007Y39775D01*
X101300Y40000D01*
X101525Y40293D01*
X101666Y40634D01*
X101715Y41000D01*
X101666Y41366D01*
X101525Y41707D01*
X101300Y42000D01*
X101007Y42225D01*
X100666Y42366D01*
X100300Y42415D01*
D02*
G37*
G36*
X10000Y40750D02*
X9764Y40719D01*
X9545Y40628D01*
X9356Y40484D01*
X9212Y40295D01*
X9193Y40250D01*
X3807D01*
X3788Y40295D01*
X3644Y40484D01*
X3455Y40628D01*
X3236Y40719D01*
X3000Y40750D01*
X2764Y40719D01*
X2545Y40628D01*
X2356Y40484D01*
X2212Y40295D01*
X2121Y40076D01*
X2090Y39840D01*
X2121Y39604D01*
X2212Y39385D01*
X2356Y39196D01*
X2545Y39052D01*
X2764Y38961D01*
X3000Y38930D01*
X3236Y38961D01*
X3455Y39052D01*
X3644Y39196D01*
X3788Y39385D01*
X3807Y39430D01*
X9193D01*
X9212Y39385D01*
X9356Y39196D01*
X9545Y39052D01*
X9764Y38961D01*
X10000Y38930D01*
X10236Y38961D01*
X10455Y39052D01*
X10644Y39196D01*
X10788Y39385D01*
X10879Y39604D01*
X10910Y39840D01*
X10879Y40076D01*
X10788Y40295D01*
X10644Y40484D01*
X10455Y40628D01*
X10236Y40719D01*
X10000Y40750D01*
D02*
G37*
G36*
X109700Y42415D02*
X109334Y42366D01*
X108993Y42225D01*
X108700Y42000D01*
X108475Y41707D01*
X108334Y41366D01*
X108285Y41000D01*
X108334Y40634D01*
X108457Y40337D01*
X107210Y39090D01*
X107121Y38957D01*
X107090Y38800D01*
Y27500D01*
X107121Y27343D01*
X107210Y27210D01*
X108090Y26330D01*
Y15952D01*
X106872Y14734D01*
X106745Y14740D01*
X106541Y14988D01*
X106201Y15267D01*
X105813Y15475D01*
X105391Y15603D01*
X104953Y15646D01*
X104515Y15603D01*
X104093Y15475D01*
X103705Y15267D01*
X103365Y14988D01*
X103086Y14648D01*
X102878Y14260D01*
X102750Y13838D01*
X102707Y13400D01*
X102750Y12962D01*
X102878Y12540D01*
X103086Y12152D01*
X103365Y11812D01*
X103705Y11533D01*
X104093Y11325D01*
X104515Y11197D01*
X104953Y11154D01*
X105391Y11197D01*
X105813Y11325D01*
X106201Y11533D01*
X106541Y11812D01*
X106821Y12152D01*
X107028Y12540D01*
X107156Y12962D01*
X107199Y13400D01*
X107156Y13838D01*
X107151Y13853D01*
X108790Y15492D01*
X108879Y15625D01*
X108910Y15782D01*
Y26500D01*
X108879Y26657D01*
X108790Y26790D01*
X107910Y27670D01*
Y38630D01*
X109037Y39757D01*
X109334Y39634D01*
X109700Y39585D01*
X110066Y39634D01*
X110407Y39775D01*
X110700Y40000D01*
X110925Y40293D01*
X111066Y40634D01*
X111115Y41000D01*
X111066Y41366D01*
X110925Y41707D01*
X110700Y42000D01*
X110407Y42225D01*
X110066Y42366D01*
X109700Y42415D01*
D02*
G37*
G36*
X137000Y38210D02*
X136764Y38179D01*
X136545Y38088D01*
X136356Y37944D01*
X136212Y37755D01*
X136193Y37710D01*
X130807D01*
X130788Y37755D01*
X130644Y37944D01*
X130455Y38088D01*
X130236Y38179D01*
X130000Y38210D01*
X129764Y38179D01*
X129545Y38088D01*
X129356Y37944D01*
X129212Y37755D01*
X129121Y37536D01*
X129090Y37300D01*
X129121Y37064D01*
X129212Y36845D01*
X129356Y36656D01*
X129545Y36512D01*
X129764Y36421D01*
X130000Y36390D01*
X130236Y36421D01*
X130455Y36512D01*
X130644Y36656D01*
X130788Y36845D01*
X130807Y36890D01*
X136193D01*
X136212Y36845D01*
X136356Y36656D01*
X136545Y36512D01*
X136764Y36421D01*
X137000Y36390D01*
X137236Y36421D01*
X137455Y36512D01*
X137644Y36656D01*
X137788Y36845D01*
X137879Y37064D01*
X137910Y37300D01*
X137879Y37536D01*
X137788Y37755D01*
X137644Y37944D01*
X137455Y38088D01*
X137236Y38179D01*
X137000Y38210D01*
D02*
G37*
G36*
X10000Y38210D02*
X9764Y38179D01*
X9545Y38088D01*
X9356Y37944D01*
X9212Y37755D01*
X9193Y37710D01*
X3807D01*
X3788Y37755D01*
X3644Y37944D01*
X3455Y38088D01*
X3236Y38179D01*
X3000Y38210D01*
X2764Y38179D01*
X2545Y38088D01*
X2356Y37944D01*
X2212Y37755D01*
X2121Y37536D01*
X2090Y37300D01*
X2121Y37064D01*
X2212Y36845D01*
X2356Y36656D01*
X2545Y36512D01*
X2764Y36421D01*
X3000Y36390D01*
X3236Y36421D01*
X3455Y36512D01*
X3644Y36656D01*
X3788Y36845D01*
X3807Y36890D01*
X9193D01*
X9212Y36845D01*
X9356Y36656D01*
X9545Y36512D01*
X9764Y36421D01*
X10000Y36390D01*
X10236Y36421D01*
X10455Y36512D01*
X10644Y36656D01*
X10788Y36845D01*
X10879Y37064D01*
X10910Y37300D01*
X10879Y37536D01*
X10788Y37755D01*
X10644Y37944D01*
X10455Y38088D01*
X10236Y38179D01*
X10000Y38210D01*
D02*
G37*
G36*
X37700Y42415D02*
X37334Y42366D01*
X36993Y42225D01*
X36700Y42000D01*
X36475Y41707D01*
X36334Y41366D01*
X36285Y41000D01*
X36334Y40634D01*
X36475Y40293D01*
X36700Y40000D01*
X36993Y39775D01*
X37334Y39634D01*
X37700Y39585D01*
X38066Y39634D01*
X38407Y39775D01*
X38700Y40000D01*
X38925Y40293D01*
X39066Y40634D01*
X39114Y41000D01*
X39066Y41366D01*
X38925Y41707D01*
X38700Y42000D01*
X38407Y42225D01*
X38066Y42366D01*
X37700Y42415D01*
D02*
G37*
G36*
X29500Y51214D02*
X29315Y51189D01*
X29143Y51118D01*
X28995Y51005D01*
X28882Y50857D01*
X28811Y50685D01*
X28787Y50500D01*
X28811Y50315D01*
X28882Y50143D01*
X28995Y49995D01*
X29090Y49923D01*
Y44500D01*
X29121Y44343D01*
X29210Y44210D01*
X31757Y41663D01*
X31634Y41366D01*
X31585Y41000D01*
X31634Y40634D01*
X31775Y40293D01*
X32000Y40000D01*
X32293Y39775D01*
X32634Y39634D01*
X33000Y39585D01*
X33366Y39634D01*
X33707Y39775D01*
X34000Y40000D01*
X34225Y40293D01*
X34366Y40634D01*
X34414Y41000D01*
X34366Y41366D01*
X34225Y41707D01*
X34000Y42000D01*
X33707Y42225D01*
X33366Y42366D01*
X33000Y42415D01*
X32634Y42366D01*
X32337Y42243D01*
X29910Y44670D01*
Y49923D01*
X30005Y49995D01*
X30118Y50143D01*
X30189Y50315D01*
X30214Y50500D01*
X30189Y50685D01*
X30118Y50857D01*
X30005Y51005D01*
X29857Y51118D01*
X29685Y51189D01*
X29500Y51214D01*
D02*
G37*
G36*
X137000Y33130D02*
X136764Y33099D01*
X136545Y33008D01*
X136356Y32864D01*
X136212Y32675D01*
X136193Y32630D01*
X130807D01*
X130788Y32675D01*
X130644Y32864D01*
X130455Y33008D01*
X130236Y33099D01*
X130000Y33130D01*
X129764Y33099D01*
X129545Y33008D01*
X129356Y32864D01*
X129212Y32675D01*
X129121Y32456D01*
X129090Y32220D01*
X129121Y31984D01*
X129212Y31765D01*
X129356Y31576D01*
X129545Y31432D01*
X129764Y31341D01*
X130000Y31310D01*
X130236Y31341D01*
X130455Y31432D01*
X130644Y31576D01*
X130788Y31765D01*
X130807Y31810D01*
X136193D01*
X136212Y31765D01*
X136356Y31576D01*
X136545Y31432D01*
X136764Y31341D01*
X137000Y31310D01*
X137236Y31341D01*
X137455Y31432D01*
X137644Y31576D01*
X137788Y31765D01*
X137879Y31984D01*
X137910Y32220D01*
X137879Y32456D01*
X137788Y32675D01*
X137644Y32864D01*
X137455Y33008D01*
X137236Y33099D01*
X137000Y33130D01*
D02*
G37*
G36*
X115047Y25806D02*
X114609Y25763D01*
X114187Y25635D01*
X113799Y25427D01*
X113459Y25148D01*
X113179Y24808D01*
X112972Y24420D01*
X112844Y23998D01*
X112801Y23560D01*
X112844Y23122D01*
X112972Y22700D01*
X113179Y22312D01*
X113459Y21972D01*
X113799Y21693D01*
X114187Y21485D01*
X114609Y21357D01*
X115047Y21314D01*
X115485Y21357D01*
X115907Y21485D01*
X116295Y21693D01*
X116635Y21972D01*
X116914Y22312D01*
X117122Y22700D01*
X117250Y23122D01*
X117293Y23560D01*
X117250Y23998D01*
X117122Y24420D01*
X116914Y24808D01*
X116635Y25148D01*
X116295Y25427D01*
X115907Y25635D01*
X115485Y25763D01*
X115047Y25806D01*
D02*
G37*
G36*
X104953D02*
X104515Y25763D01*
X104093Y25635D01*
X103705Y25427D01*
X103365Y25148D01*
X103086Y24808D01*
X102878Y24420D01*
X102750Y23998D01*
X102707Y23560D01*
X102750Y23122D01*
X102878Y22700D01*
X103086Y22312D01*
X103365Y21972D01*
X103705Y21693D01*
X104093Y21485D01*
X104515Y21357D01*
X104953Y21314D01*
X105391Y21357D01*
X105813Y21485D01*
X106201Y21693D01*
X106541Y21972D01*
X106821Y22312D01*
X107028Y22700D01*
X107156Y23122D01*
X107199Y23560D01*
X107156Y23998D01*
X107028Y24420D01*
X106821Y24808D01*
X106541Y25148D01*
X106201Y25427D01*
X105813Y25635D01*
X105391Y25763D01*
X104953Y25806D01*
D02*
G37*
G36*
X55047Y25806D02*
X54609Y25763D01*
X54187Y25635D01*
X53799Y25427D01*
X53459Y25148D01*
X53180Y24808D01*
X52972Y24420D01*
X52844Y23998D01*
X52801Y23560D01*
X52844Y23122D01*
X52972Y22700D01*
X53180Y22312D01*
X53459Y21972D01*
X53799Y21693D01*
X54187Y21485D01*
X54609Y21357D01*
X55047Y21314D01*
X55485Y21357D01*
X55907Y21485D01*
X56295Y21693D01*
X56635Y21972D01*
X56914Y22312D01*
X57122Y22700D01*
X57250Y23122D01*
X57293Y23560D01*
X57250Y23998D01*
X57122Y24420D01*
X56914Y24808D01*
X56635Y25148D01*
X56295Y25427D01*
X55907Y25635D01*
X55485Y25763D01*
X55047Y25806D01*
D02*
G37*
G36*
X119500Y34910D02*
X119264Y34879D01*
X119045Y34788D01*
X118856Y34644D01*
X118712Y34455D01*
X118621Y34236D01*
X118590Y34000D01*
X118621Y33764D01*
X118712Y33545D01*
X118856Y33356D01*
X119045Y33212D01*
X119264Y33121D01*
X119500Y33090D01*
X119736Y33121D01*
X119780Y33139D01*
X124670Y28250D01*
Y25778D01*
X124515Y25763D01*
X124093Y25635D01*
X123705Y25427D01*
X123365Y25148D01*
X123086Y24808D01*
X122878Y24420D01*
X122750Y23998D01*
X122707Y23560D01*
X122750Y23122D01*
X122878Y22700D01*
X123086Y22312D01*
X123365Y21972D01*
X123705Y21693D01*
X124093Y21485D01*
X124515Y21357D01*
X124953Y21314D01*
X125391Y21357D01*
X125813Y21485D01*
X126201Y21693D01*
X126541Y21972D01*
X126820Y22312D01*
X127028Y22700D01*
X127156Y23122D01*
X127199Y23560D01*
X127156Y23998D01*
X127028Y24420D01*
X126820Y24808D01*
X126541Y25148D01*
X126201Y25427D01*
X125813Y25635D01*
X125490Y25733D01*
Y28420D01*
X125459Y28577D01*
X125370Y28710D01*
X120361Y33720D01*
X120379Y33764D01*
X120410Y34000D01*
X120379Y34236D01*
X120288Y34455D01*
X120144Y34644D01*
X119955Y34788D01*
X119736Y34879D01*
X119500Y34910D01*
D02*
G37*
G36*
X35047Y25806D02*
X34609Y25763D01*
X34187Y25635D01*
X33799Y25427D01*
X33459Y25148D01*
X33180Y24808D01*
X32972Y24420D01*
X32844Y23998D01*
X32801Y23560D01*
X32844Y23122D01*
X32972Y22700D01*
X33180Y22312D01*
X33459Y21972D01*
X33799Y21693D01*
X34187Y21485D01*
X34609Y21357D01*
X35047Y21314D01*
X35485Y21357D01*
X35907Y21485D01*
X36295Y21693D01*
X36635Y21972D01*
X36914Y22312D01*
X37122Y22700D01*
X37250Y23122D01*
X37293Y23560D01*
X37250Y23998D01*
X37122Y24420D01*
X36914Y24808D01*
X36635Y25148D01*
X36295Y25427D01*
X35907Y25635D01*
X35485Y25763D01*
X35047Y25806D01*
D02*
G37*
G36*
X23000Y31910D02*
X22764Y31879D01*
X22545Y31788D01*
X22356Y31644D01*
X22212Y31455D01*
X22121Y31236D01*
X22090Y31000D01*
X22121Y30764D01*
X22212Y30545D01*
X22356Y30356D01*
X22545Y30212D01*
X22590Y30193D01*
Y24602D01*
X22621Y24445D01*
X22710Y24312D01*
X22814Y24208D01*
X22750Y23998D01*
X22707Y23560D01*
X22750Y23122D01*
X22878Y22700D01*
X23086Y22312D01*
X23365Y21972D01*
X23705Y21693D01*
X24093Y21485D01*
X24515Y21357D01*
X24953Y21314D01*
X25391Y21357D01*
X25813Y21485D01*
X26201Y21693D01*
X26541Y21972D01*
X26820Y22312D01*
X27028Y22700D01*
X27156Y23122D01*
X27199Y23560D01*
X27156Y23998D01*
X27028Y24420D01*
X26820Y24808D01*
X26541Y25148D01*
X26201Y25427D01*
X25813Y25635D01*
X25391Y25763D01*
X24953Y25806D01*
X24515Y25763D01*
X24093Y25635D01*
X23705Y25427D01*
X23525Y25280D01*
X23410Y25334D01*
Y30193D01*
X23455Y30212D01*
X23644Y30356D01*
X23788Y30545D01*
X23879Y30764D01*
X23910Y31000D01*
X23879Y31236D01*
X23788Y31455D01*
X23644Y31644D01*
X23455Y31788D01*
X23236Y31879D01*
X23000Y31910D01*
D02*
G37*
G36*
X95047Y25806D02*
X94609Y25763D01*
X94187Y25635D01*
X93799Y25427D01*
X93459Y25148D01*
X93180Y24808D01*
X92972Y24420D01*
X92844Y23998D01*
X92801Y23560D01*
X92844Y23122D01*
X92972Y22700D01*
X93180Y22312D01*
X93459Y21972D01*
X93799Y21693D01*
X94187Y21485D01*
X94609Y21357D01*
X95047Y21314D01*
X95485Y21357D01*
X95907Y21485D01*
X96295Y21693D01*
X96635Y21972D01*
X96914Y22312D01*
X97122Y22700D01*
X97250Y23122D01*
X97293Y23560D01*
X97250Y23998D01*
X97122Y24420D01*
X96914Y24808D01*
X96635Y25148D01*
X96295Y25427D01*
X95907Y25635D01*
X95485Y25763D01*
X95047Y25806D01*
D02*
G37*
G36*
X28300Y42415D02*
X27934Y42366D01*
X27593Y42225D01*
X27300Y42000D01*
X27075Y41707D01*
X26934Y41366D01*
X26885Y41000D01*
X26934Y40634D01*
X27075Y40293D01*
X27300Y40000D01*
X27593Y39775D01*
X27934Y39634D01*
X28300Y39585D01*
X28666Y39634D01*
X28963Y39757D01*
X30090Y38630D01*
Y31000D01*
X30121Y30843D01*
X30210Y30710D01*
X32210Y28710D01*
X32343Y28621D01*
X32500Y28590D01*
X38432D01*
X42814Y24208D01*
X42750Y23998D01*
X42707Y23560D01*
X42750Y23122D01*
X42878Y22700D01*
X43085Y22312D01*
X43365Y21972D01*
X43705Y21693D01*
X44093Y21485D01*
X44515Y21357D01*
X44953Y21314D01*
X45391Y21357D01*
X45813Y21485D01*
X46201Y21693D01*
X46541Y21972D01*
X46820Y22312D01*
X47028Y22700D01*
X47156Y23122D01*
X47199Y23560D01*
X47156Y23998D01*
X47028Y24420D01*
X46820Y24808D01*
X46541Y25148D01*
X46201Y25427D01*
X45813Y25635D01*
X45391Y25763D01*
X44953Y25806D01*
X44515Y25763D01*
X44093Y25635D01*
X43705Y25427D01*
X43365Y25148D01*
X43276Y25040D01*
X43149Y25033D01*
X38892Y29290D01*
X38759Y29379D01*
X38602Y29410D01*
X32670D01*
X30910Y31170D01*
Y38800D01*
X30879Y38957D01*
X30790Y39090D01*
X29543Y40337D01*
X29666Y40634D01*
X29714Y41000D01*
X29666Y41366D01*
X29525Y41707D01*
X29300Y42000D01*
X29007Y42225D01*
X28666Y42366D01*
X28300Y42415D01*
D02*
G37*
G36*
X33000Y32210D02*
X32764Y32179D01*
X32545Y32088D01*
X32356Y31944D01*
X32212Y31755D01*
X32121Y31536D01*
X32090Y31300D01*
X32121Y31064D01*
X32212Y30845D01*
X32356Y30656D01*
X32545Y30512D01*
X32764Y30421D01*
X33000Y30390D01*
X33236Y30421D01*
X33455Y30512D01*
X33644Y30656D01*
X33788Y30845D01*
X33879Y31064D01*
X33910Y31300D01*
X33879Y31536D01*
X33788Y31755D01*
X33644Y31944D01*
X33455Y32088D01*
X33236Y32179D01*
X33000Y32210D01*
D02*
G37*
G36*
X110000Y31910D02*
X109764Y31879D01*
X109545Y31788D01*
X109356Y31644D01*
X109212Y31455D01*
X109121Y31236D01*
X109090Y31000D01*
X109121Y30764D01*
X109212Y30545D01*
X109356Y30356D01*
X109545Y30212D01*
X109764Y30121D01*
X110000Y30090D01*
X110236Y30121D01*
X110455Y30212D01*
X110644Y30356D01*
X110788Y30545D01*
X110879Y30764D01*
X110910Y31000D01*
X110879Y31236D01*
X110788Y31455D01*
X110644Y31644D01*
X110455Y31788D01*
X110236Y31879D01*
X110000Y31910D01*
D02*
G37*
G36*
X10000Y33130D02*
X9764Y33099D01*
X9545Y33008D01*
X9356Y32864D01*
X9212Y32675D01*
X9193Y32630D01*
X3807D01*
X3788Y32675D01*
X3644Y32864D01*
X3455Y33008D01*
X3236Y33099D01*
X3000Y33130D01*
X2764Y33099D01*
X2545Y33008D01*
X2356Y32864D01*
X2212Y32675D01*
X2121Y32456D01*
X2090Y32220D01*
X2121Y31984D01*
X2212Y31765D01*
X2356Y31576D01*
X2545Y31432D01*
X2764Y31341D01*
X3000Y31310D01*
X3236Y31341D01*
X3455Y31432D01*
X3644Y31576D01*
X3788Y31765D01*
X3807Y31810D01*
X9193D01*
X9212Y31765D01*
X9356Y31576D01*
X9545Y31432D01*
X9764Y31341D01*
X10000Y31310D01*
X10236Y31341D01*
X10455Y31432D01*
X10644Y31576D01*
X10788Y31765D01*
X10879Y31984D01*
X10910Y32220D01*
X10879Y32456D01*
X10788Y32675D01*
X10644Y32864D01*
X10455Y33008D01*
X10236Y33099D01*
X10000Y33130D01*
D02*
G37*
G36*
X38000Y32210D02*
X37764Y32179D01*
X37545Y32088D01*
X37356Y31944D01*
X37212Y31755D01*
X37121Y31536D01*
X37090Y31300D01*
X37121Y31064D01*
X37212Y30845D01*
X37356Y30656D01*
X37545Y30512D01*
X37764Y30421D01*
X38000Y30390D01*
X38236Y30421D01*
X38455Y30512D01*
X38644Y30656D01*
X38788Y30845D01*
X38879Y31064D01*
X38910Y31300D01*
X38879Y31536D01*
X38788Y31755D01*
X38644Y31944D01*
X38455Y32088D01*
X38236Y32179D01*
X38000Y32210D01*
D02*
G37*
G36*
X119499Y30210D02*
X119263Y30179D01*
X119044Y30088D01*
X118855Y29944D01*
X118711Y29755D01*
X118620Y29536D01*
X118589Y29300D01*
X118620Y29064D01*
X118711Y28845D01*
X118855Y28656D01*
X119044Y28512D01*
X119263Y28421D01*
X119499Y28390D01*
X119735Y28421D01*
X119954Y28512D01*
X120143Y28656D01*
X120287Y28845D01*
X120378Y29064D01*
X120409Y29300D01*
X120378Y29536D01*
X120287Y29755D01*
X120143Y29944D01*
X119954Y30088D01*
X119735Y30179D01*
X119499Y30210D01*
D02*
G37*
G36*
X64953Y25806D02*
X64515Y25763D01*
X64093Y25635D01*
X63705Y25427D01*
X63365Y25148D01*
X63086Y24808D01*
X62878Y24420D01*
X62750Y23998D01*
X62707Y23560D01*
X62750Y23122D01*
X62878Y22700D01*
X63086Y22312D01*
X63365Y21972D01*
X63705Y21693D01*
X64093Y21485D01*
X64515Y21357D01*
X64953Y21314D01*
X65391Y21357D01*
X65813Y21485D01*
X66201Y21693D01*
X66541Y21972D01*
X66820Y22312D01*
X67028Y22700D01*
X67156Y23122D01*
X67199Y23560D01*
X67156Y23998D01*
X67028Y24420D01*
X66820Y24808D01*
X66541Y25148D01*
X66201Y25427D01*
X65813Y25635D01*
X65391Y25763D01*
X64953Y25806D01*
D02*
G37*
G36*
X105000Y31910D02*
X104764Y31879D01*
X104545Y31788D01*
X104356Y31644D01*
X104212Y31455D01*
X104121Y31236D01*
X104090Y31000D01*
X104121Y30764D01*
X104212Y30545D01*
X104356Y30356D01*
X104545Y30212D01*
X104764Y30121D01*
X105000Y30090D01*
X105236Y30121D01*
X105455Y30212D01*
X105644Y30356D01*
X105788Y30545D01*
X105879Y30764D01*
X105910Y31000D01*
X105879Y31236D01*
X105788Y31455D01*
X105644Y31644D01*
X105455Y31788D01*
X105236Y31879D01*
X105000Y31910D01*
D02*
G37*
G36*
X100000D02*
X99764Y31879D01*
X99545Y31788D01*
X99356Y31644D01*
X99212Y31455D01*
X99121Y31236D01*
X99090Y31000D01*
X99121Y30764D01*
X99212Y30545D01*
X99356Y30356D01*
X99545Y30212D01*
X99764Y30121D01*
X100000Y30090D01*
X100236Y30121D01*
X100455Y30212D01*
X100644Y30356D01*
X100788Y30545D01*
X100879Y30764D01*
X100910Y31000D01*
X100879Y31236D01*
X100788Y31455D01*
X100644Y31644D01*
X100455Y31788D01*
X100236Y31879D01*
X100000Y31910D01*
D02*
G37*
G36*
X38000Y47010D02*
X37764Y46979D01*
X37545Y46888D01*
X37356Y46744D01*
X37212Y46555D01*
X37121Y46336D01*
X37090Y46100D01*
X37121Y45864D01*
X37212Y45645D01*
X37356Y45456D01*
X37545Y45312D01*
X37764Y45221D01*
X38000Y45190D01*
X38236Y45221D01*
X38455Y45312D01*
X38644Y45456D01*
X38788Y45645D01*
X38879Y45864D01*
X38910Y46100D01*
X38879Y46336D01*
X38788Y46555D01*
X38644Y46744D01*
X38455Y46888D01*
X38236Y46979D01*
X38000Y47010D01*
D02*
G37*
G36*
X33000Y47010D02*
X32764Y46979D01*
X32545Y46888D01*
X32356Y46744D01*
X32212Y46555D01*
X32121Y46336D01*
X32090Y46100D01*
X32121Y45864D01*
X32212Y45645D01*
X32356Y45456D01*
X32545Y45312D01*
X32764Y45221D01*
X33000Y45190D01*
X33236Y45221D01*
X33455Y45312D01*
X33644Y45456D01*
X33788Y45645D01*
X33879Y45864D01*
X33910Y46100D01*
X33879Y46336D01*
X33788Y46555D01*
X33644Y46744D01*
X33455Y46888D01*
X33236Y46979D01*
X33000Y47010D01*
D02*
G37*
G36*
X137000Y45830D02*
X136764Y45799D01*
X136545Y45708D01*
X136356Y45564D01*
X136212Y45375D01*
X136193Y45330D01*
X130807D01*
X130788Y45375D01*
X130644Y45564D01*
X130455Y45708D01*
X130236Y45799D01*
X130000Y45830D01*
X129764Y45799D01*
X129545Y45708D01*
X129356Y45564D01*
X129212Y45375D01*
X129121Y45156D01*
X129090Y44920D01*
X129121Y44684D01*
X129212Y44465D01*
X129356Y44276D01*
X129545Y44132D01*
X129764Y44041D01*
X130000Y44010D01*
X130236Y44041D01*
X130455Y44132D01*
X130644Y44276D01*
X130788Y44465D01*
X130807Y44510D01*
X136193D01*
X136212Y44465D01*
X136356Y44276D01*
X136545Y44132D01*
X136764Y44041D01*
X137000Y44010D01*
X137236Y44041D01*
X137455Y44132D01*
X137644Y44276D01*
X137788Y44465D01*
X137879Y44684D01*
X137910Y44920D01*
X137879Y45156D01*
X137788Y45375D01*
X137644Y45564D01*
X137455Y45708D01*
X137236Y45799D01*
X137000Y45830D01*
D02*
G37*
G36*
X10000Y45830D02*
X9764Y45799D01*
X9545Y45708D01*
X9356Y45564D01*
X9212Y45375D01*
X9193Y45330D01*
X3807D01*
X3788Y45375D01*
X3644Y45564D01*
X3455Y45708D01*
X3236Y45799D01*
X3000Y45830D01*
X2764Y45799D01*
X2545Y45708D01*
X2356Y45564D01*
X2212Y45375D01*
X2121Y45156D01*
X2090Y44920D01*
X2121Y44684D01*
X2212Y44465D01*
X2356Y44276D01*
X2545Y44132D01*
X2764Y44041D01*
X3000Y44010D01*
X3236Y44041D01*
X3455Y44132D01*
X3644Y44276D01*
X3788Y44465D01*
X3807Y44510D01*
X9193D01*
X9212Y44465D01*
X9356Y44276D01*
X9545Y44132D01*
X9764Y44041D01*
X10000Y44010D01*
X10236Y44041D01*
X10455Y44132D01*
X10644Y44276D01*
X10788Y44465D01*
X10879Y44684D01*
X10910Y44920D01*
X10879Y45156D01*
X10788Y45375D01*
X10644Y45564D01*
X10455Y45708D01*
X10236Y45799D01*
X10000Y45830D01*
D02*
G37*
G36*
X100000Y46910D02*
X99764Y46879D01*
X99545Y46788D01*
X99356Y46644D01*
X99212Y46455D01*
X99121Y46236D01*
X99090Y46000D01*
X99121Y45764D01*
X99212Y45545D01*
X99356Y45356D01*
X99545Y45212D01*
X99764Y45121D01*
X100000Y45090D01*
X100236Y45121D01*
X100455Y45212D01*
X100644Y45356D01*
X100788Y45545D01*
X100879Y45764D01*
X100910Y46000D01*
X100879Y46236D01*
X100788Y46455D01*
X100644Y46644D01*
X100455Y46788D01*
X100236Y46879D01*
X100000Y46910D01*
D02*
G37*
G36*
X130127Y43376D02*
Y42507D01*
X130996D01*
X130978Y42642D01*
X130877Y42886D01*
X130716Y43096D01*
X130506Y43257D01*
X130262Y43358D01*
X130127Y43376D01*
D02*
G37*
G36*
X110000Y46910D02*
X109764Y46879D01*
X109545Y46788D01*
X109356Y46644D01*
X109212Y46455D01*
X109121Y46236D01*
X109090Y46000D01*
X109121Y45764D01*
X109212Y45545D01*
X109356Y45356D01*
X109545Y45212D01*
X109764Y45121D01*
X110000Y45090D01*
X110236Y45121D01*
X110455Y45212D01*
X110644Y45356D01*
X110788Y45545D01*
X110879Y45764D01*
X110910Y46000D01*
X110879Y46236D01*
X110788Y46455D01*
X110644Y46644D01*
X110455Y46788D01*
X110236Y46879D01*
X110000Y46910D01*
D02*
G37*
G36*
X105000D02*
X104764Y46879D01*
X104545Y46788D01*
X104356Y46644D01*
X104212Y46455D01*
X104121Y46236D01*
X104090Y46000D01*
X104121Y45764D01*
X104212Y45545D01*
X104356Y45356D01*
X104545Y45212D01*
X104764Y45121D01*
X105000Y45090D01*
X105236Y45121D01*
X105455Y45212D01*
X105644Y45356D01*
X105788Y45545D01*
X105879Y45764D01*
X105910Y46000D01*
X105879Y46236D01*
X105788Y46455D01*
X105644Y46644D01*
X105455Y46788D01*
X105236Y46879D01*
X105000Y46910D01*
D02*
G37*
G36*
X25373Y50373D02*
X24701D01*
X24712Y50289D01*
X24793Y50092D01*
X24923Y49923D01*
X25092Y49793D01*
X25289Y49712D01*
X25373Y49701D01*
Y50373D01*
D02*
G37*
G36*
X24299D02*
X23627D01*
Y49701D01*
X23711Y49712D01*
X23908Y49793D01*
X24077Y49923D01*
X24207Y50092D01*
X24288Y50289D01*
X24299Y50373D01*
D02*
G37*
G36*
X99373D02*
X98701D01*
X98712Y50289D01*
X98793Y50092D01*
X98923Y49923D01*
X99092Y49793D01*
X99289Y49712D01*
X99373Y49701D01*
Y50373D01*
D02*
G37*
G36*
X26299D02*
X25627D01*
Y49701D01*
X25711Y49712D01*
X25908Y49793D01*
X26077Y49923D01*
X26207Y50092D01*
X26288Y50289D01*
X26299Y50373D01*
D02*
G37*
G36*
X13500Y56910D02*
X13264Y56879D01*
X13045Y56788D01*
X12856Y56644D01*
X12712Y56455D01*
X12621Y56236D01*
X12590Y56000D01*
X12621Y55764D01*
X12712Y55545D01*
X12842Y55375D01*
Y50273D01*
X10687Y48118D01*
X10625D01*
X10455Y48248D01*
X10236Y48339D01*
X10000Y48370D01*
X9764Y48339D01*
X9545Y48248D01*
X9356Y48104D01*
X9212Y47915D01*
X9193Y47870D01*
X3807D01*
X3788Y47915D01*
X3644Y48104D01*
X3455Y48248D01*
X3236Y48339D01*
X3000Y48370D01*
X2764Y48339D01*
X2545Y48248D01*
X2356Y48104D01*
X2212Y47915D01*
X2121Y47696D01*
X2090Y47460D01*
X2121Y47224D01*
X2212Y47005D01*
X2356Y46816D01*
X2545Y46672D01*
X2764Y46581D01*
X3000Y46550D01*
X3236Y46581D01*
X3455Y46672D01*
X3644Y46816D01*
X3788Y47005D01*
X3807Y47050D01*
X9193D01*
X9212Y47005D01*
X9356Y46816D01*
X9545Y46672D01*
X9764Y46581D01*
X10000Y46550D01*
X10236Y46581D01*
X10455Y46672D01*
X10625Y46802D01*
X10960D01*
X11130Y46824D01*
X11289Y46890D01*
X11425Y46995D01*
X13965Y49535D01*
X14070Y49671D01*
X14136Y49830D01*
X14158Y50000D01*
Y55375D01*
X14288Y55545D01*
X14379Y55764D01*
X14410Y56000D01*
X14379Y56236D01*
X14288Y56455D01*
X14144Y56644D01*
X13955Y56788D01*
X13736Y56879D01*
X13500Y56910D01*
D02*
G37*
G36*
X137000Y48370D02*
X136764Y48339D01*
X136545Y48248D01*
X136356Y48104D01*
X136212Y47915D01*
X136193Y47870D01*
X130807D01*
X130788Y47915D01*
X130644Y48104D01*
X130455Y48248D01*
X130236Y48339D01*
X130000Y48370D01*
X129764Y48339D01*
X129545Y48248D01*
X129356Y48104D01*
X129212Y47915D01*
X129121Y47696D01*
X129090Y47460D01*
X129121Y47224D01*
X129212Y47005D01*
X129356Y46816D01*
X129545Y46672D01*
X129764Y46581D01*
X130000Y46550D01*
X130236Y46581D01*
X130455Y46672D01*
X130644Y46816D01*
X130788Y47005D01*
X130807Y47050D01*
X136193D01*
X136212Y47005D01*
X136356Y46816D01*
X136545Y46672D01*
X136764Y46581D01*
X137000Y46550D01*
X137236Y46581D01*
X137455Y46672D01*
X137644Y46816D01*
X137788Y47005D01*
X137879Y47224D01*
X137910Y47460D01*
X137879Y47696D01*
X137788Y47915D01*
X137644Y48104D01*
X137455Y48248D01*
X137236Y48339D01*
X137000Y48370D01*
D02*
G37*
G36*
X23373Y50373D02*
X22701D01*
X22712Y50289D01*
X22793Y50092D01*
X22923Y49923D01*
X23092Y49793D01*
X23289Y49712D01*
X23373Y49701D01*
Y50373D01*
D02*
G37*
G36*
X113700Y64310D02*
X113464Y64279D01*
X113245Y64188D01*
X113056Y64044D01*
X112912Y63855D01*
X112821Y63636D01*
X112790Y63400D01*
X112821Y63164D01*
X112912Y62945D01*
X113056Y62756D01*
X113245Y62612D01*
X113464Y62521D01*
X113700Y62490D01*
X113936Y62521D01*
X114155Y62612D01*
X114325Y62742D01*
X122827D01*
X129342Y56227D01*
Y50915D01*
X129250D01*
X129133Y50867D01*
X129085Y50750D01*
Y49250D01*
X129133Y49133D01*
X129250Y49085D01*
X130750D01*
X130867Y49133D01*
X130915Y49250D01*
Y49590D01*
X136085D01*
Y49250D01*
X136133Y49133D01*
X136250Y49085D01*
X137750D01*
X137867Y49133D01*
X137915Y49250D01*
Y50750D01*
X137867Y50867D01*
X137750Y50915D01*
X136250D01*
X136133Y50867D01*
X136085Y50750D01*
Y50410D01*
X130915D01*
Y50750D01*
X130867Y50867D01*
X130750Y50915D01*
X130658D01*
Y56500D01*
X130636Y56670D01*
X130570Y56829D01*
X130465Y56965D01*
X123565Y63865D01*
X123429Y63970D01*
X123270Y64036D01*
X123100Y64058D01*
X114325D01*
X114155Y64188D01*
X113936Y64279D01*
X113700Y64310D01*
D02*
G37*
G36*
X3127Y43376D02*
Y42507D01*
X3996D01*
X3978Y42642D01*
X3877Y42886D01*
X3716Y43096D01*
X3506Y43257D01*
X3262Y43358D01*
X3127Y43376D01*
D02*
G37*
G36*
X129873Y42253D02*
X129004D01*
X129022Y42118D01*
X129123Y41874D01*
X129284Y41664D01*
X129494Y41503D01*
X129738Y41402D01*
X129873Y41384D01*
Y42253D01*
D02*
G37*
G36*
X3996D02*
X3127D01*
Y41384D01*
X3262Y41402D01*
X3506Y41503D01*
X3716Y41664D01*
X3877Y41874D01*
X3978Y42118D01*
X3996Y42253D01*
D02*
G37*
G36*
X137996Y42253D02*
X137127D01*
Y41384D01*
X137262Y41402D01*
X137506Y41503D01*
X137716Y41664D01*
X137877Y41874D01*
X137978Y42118D01*
X137996Y42253D01*
D02*
G37*
G36*
X136873D02*
X136004D01*
X136022Y42118D01*
X136123Y41874D01*
X136284Y41664D01*
X136494Y41503D01*
X136738Y41402D01*
X136873Y41384D01*
Y42253D01*
D02*
G37*
G36*
X2873Y42253D02*
X2004D01*
X2022Y42118D01*
X2123Y41874D01*
X2284Y41664D01*
X2494Y41503D01*
X2738Y41402D01*
X2873Y41384D01*
Y42253D01*
D02*
G37*
G36*
X137000Y40750D02*
X136764Y40719D01*
X136545Y40628D01*
X136356Y40484D01*
X136212Y40295D01*
X136193Y40250D01*
X130807D01*
X130788Y40295D01*
X130644Y40484D01*
X130455Y40628D01*
X130236Y40719D01*
X130000Y40750D01*
X129764Y40719D01*
X129545Y40628D01*
X129356Y40484D01*
X129212Y40295D01*
X129121Y40076D01*
X129090Y39840D01*
X129121Y39604D01*
X129212Y39385D01*
X129356Y39196D01*
X129545Y39052D01*
X129764Y38961D01*
X130000Y38930D01*
X130236Y38961D01*
X130455Y39052D01*
X130644Y39196D01*
X130788Y39385D01*
X130807Y39430D01*
X136193D01*
X136212Y39385D01*
X136356Y39196D01*
X136545Y39052D01*
X136764Y38961D01*
X137000Y38930D01*
X137236Y38961D01*
X137455Y39052D01*
X137644Y39196D01*
X137788Y39385D01*
X137879Y39604D01*
X137910Y39840D01*
X137879Y40076D01*
X137788Y40295D01*
X137644Y40484D01*
X137455Y40628D01*
X137236Y40719D01*
X137000Y40750D01*
D02*
G37*
G36*
X10996Y42253D02*
X10127D01*
Y41384D01*
X10262Y41402D01*
X10506Y41503D01*
X10716Y41664D01*
X10877Y41874D01*
X10978Y42118D01*
X10996Y42253D01*
D02*
G37*
G36*
X9873D02*
X9004D01*
X9022Y42118D01*
X9123Y41874D01*
X9284Y41664D01*
X9494Y41503D01*
X9738Y41402D01*
X9873Y41384D01*
Y42253D01*
D02*
G37*
G36*
X137127Y43376D02*
Y42507D01*
X137996D01*
X137978Y42642D01*
X137877Y42886D01*
X137716Y43096D01*
X137506Y43257D01*
X137262Y43358D01*
X137127Y43376D01*
D02*
G37*
G36*
X10127Y43376D02*
Y42507D01*
X10996D01*
X10978Y42642D01*
X10877Y42886D01*
X10716Y43096D01*
X10506Y43257D01*
X10262Y43358D01*
X10127Y43376D01*
D02*
G37*
G36*
X129873Y43376D02*
X129738Y43358D01*
X129494Y43257D01*
X129284Y43096D01*
X129123Y42886D01*
X129022Y42642D01*
X129004Y42507D01*
X129873D01*
Y43376D01*
D02*
G37*
G36*
X2873Y43376D02*
X2738Y43358D01*
X2494Y43257D01*
X2284Y43096D01*
X2123Y42886D01*
X2022Y42642D01*
X2004Y42507D01*
X2873D01*
Y43376D01*
D02*
G37*
G36*
X22500Y43410D02*
X22264Y43379D01*
X22045Y43288D01*
X21856Y43144D01*
X21712Y42955D01*
X21621Y42736D01*
X21590Y42500D01*
X21621Y42264D01*
X21712Y42045D01*
X21856Y41856D01*
X22045Y41712D01*
X22264Y41621D01*
X22500Y41590D01*
X22736Y41621D01*
X22955Y41712D01*
X23144Y41856D01*
X23288Y42045D01*
X23379Y42264D01*
X23410Y42500D01*
X23379Y42736D01*
X23288Y42955D01*
X23144Y43144D01*
X22955Y43288D01*
X22736Y43379D01*
X22500Y43410D01*
D02*
G37*
G36*
X130996Y42253D02*
X130127D01*
Y41384D01*
X130262Y41402D01*
X130506Y41503D01*
X130716Y41664D01*
X130877Y41874D01*
X130978Y42118D01*
X130996Y42253D01*
D02*
G37*
G36*
X9873Y43376D02*
X9738Y43358D01*
X9494Y43257D01*
X9284Y43096D01*
X9123Y42886D01*
X9022Y42642D01*
X9004Y42507D01*
X9873D01*
Y43376D01*
D02*
G37*
G36*
X136873Y43376D02*
X136738Y43358D01*
X136494Y43257D01*
X136284Y43096D01*
X136123Y42886D01*
X136022Y42642D01*
X136004Y42507D01*
X136873D01*
Y43376D01*
D02*
G37*
G36*
X4873Y8254D02*
X4489Y8224D01*
X3991Y8104D01*
X3518Y7908D01*
X3081Y7641D01*
X2692Y7308D01*
X2359Y6919D01*
X2092Y6482D01*
X1896Y6009D01*
X1776Y5511D01*
X1746Y5127D01*
X4873D01*
Y8254D01*
D02*
G37*
G36*
X55047Y8026D02*
X54609Y7983D01*
X54187Y7855D01*
X53799Y7648D01*
X53459Y7368D01*
X53180Y7028D01*
X52972Y6640D01*
X52844Y6218D01*
X52801Y5780D01*
X52844Y5342D01*
X52972Y4920D01*
X53180Y4532D01*
X53459Y4192D01*
X53799Y3913D01*
X54187Y3705D01*
X54609Y3577D01*
X55047Y3534D01*
X55485Y3577D01*
X55907Y3705D01*
X56295Y3913D01*
X56635Y4192D01*
X56914Y4532D01*
X57122Y4920D01*
X57250Y5342D01*
X57293Y5780D01*
X57250Y6218D01*
X57122Y6640D01*
X56914Y7028D01*
X56635Y7368D01*
X56295Y7648D01*
X55907Y7855D01*
X55485Y7983D01*
X55047Y8026D01*
D02*
G37*
G36*
X134873Y8254D02*
X134489Y8224D01*
X133991Y8104D01*
X133518Y7908D01*
X133081Y7641D01*
X132692Y7308D01*
X132359Y6919D01*
X132092Y6482D01*
X131896Y6009D01*
X131776Y5511D01*
X131746Y5127D01*
X134873D01*
Y8254D01*
D02*
G37*
G36*
X5127D02*
Y5127D01*
X8254D01*
X8224Y5511D01*
X8104Y6009D01*
X7908Y6482D01*
X7641Y6919D01*
X7308Y7308D01*
X6919Y7641D01*
X6482Y7908D01*
X6009Y8104D01*
X5511Y8224D01*
X5127Y8254D01*
D02*
G37*
G36*
X35047Y8026D02*
X34609Y7983D01*
X34187Y7855D01*
X33799Y7648D01*
X33459Y7368D01*
X33180Y7028D01*
X32972Y6640D01*
X32844Y6218D01*
X32801Y5780D01*
X32844Y5342D01*
X32972Y4920D01*
X33180Y4532D01*
X33459Y4192D01*
X33799Y3913D01*
X34187Y3705D01*
X34609Y3577D01*
X35047Y3534D01*
X35485Y3577D01*
X35907Y3705D01*
X36295Y3913D01*
X36635Y4192D01*
X36914Y4532D01*
X37122Y4920D01*
X37250Y5342D01*
X37293Y5780D01*
X37250Y6218D01*
X37122Y6640D01*
X36914Y7028D01*
X36635Y7368D01*
X36295Y7648D01*
X35907Y7855D01*
X35485Y7983D01*
X35047Y8026D01*
D02*
G37*
G36*
X15047D02*
X14609Y7983D01*
X14187Y7855D01*
X13799Y7648D01*
X13459Y7368D01*
X13180Y7028D01*
X12972Y6640D01*
X12844Y6218D01*
X12801Y5780D01*
X12844Y5342D01*
X12972Y4920D01*
X13180Y4532D01*
X13459Y4192D01*
X13799Y3913D01*
X14187Y3705D01*
X14609Y3577D01*
X15047Y3534D01*
X15485Y3577D01*
X15907Y3705D01*
X16295Y3913D01*
X16635Y4192D01*
X16914Y4532D01*
X17122Y4920D01*
X17250Y5342D01*
X17293Y5780D01*
X17250Y6218D01*
X17122Y6640D01*
X16914Y7028D01*
X16635Y7368D01*
X16295Y7648D01*
X15907Y7855D01*
X15485Y7983D01*
X15047Y8026D01*
D02*
G37*
G36*
X115047D02*
X114609Y7983D01*
X114187Y7855D01*
X113799Y7648D01*
X113459Y7368D01*
X113179Y7028D01*
X112972Y6640D01*
X112844Y6218D01*
X112801Y5780D01*
X112844Y5342D01*
X112972Y4920D01*
X113179Y4532D01*
X113459Y4192D01*
X113799Y3913D01*
X114187Y3705D01*
X114609Y3577D01*
X115047Y3534D01*
X115485Y3577D01*
X115907Y3705D01*
X116295Y3913D01*
X116635Y4192D01*
X116914Y4532D01*
X117122Y4920D01*
X117250Y5342D01*
X117293Y5780D01*
X117250Y6218D01*
X117122Y6640D01*
X116914Y7028D01*
X116635Y7368D01*
X116295Y7648D01*
X115907Y7855D01*
X115485Y7983D01*
X115047Y8026D01*
D02*
G37*
G36*
X95047D02*
X94609Y7983D01*
X94187Y7855D01*
X93799Y7648D01*
X93459Y7368D01*
X93180Y7028D01*
X92972Y6640D01*
X92844Y6218D01*
X92801Y5780D01*
X92844Y5342D01*
X92972Y4920D01*
X93180Y4532D01*
X93459Y4192D01*
X93799Y3913D01*
X94187Y3705D01*
X94609Y3577D01*
X95047Y3534D01*
X95485Y3577D01*
X95907Y3705D01*
X96295Y3913D01*
X96635Y4192D01*
X96914Y4532D01*
X97122Y4920D01*
X97250Y5342D01*
X97293Y5780D01*
X97250Y6218D01*
X97122Y6640D01*
X96914Y7028D01*
X96635Y7368D01*
X96295Y7648D01*
X95907Y7855D01*
X95485Y7983D01*
X95047Y8026D01*
D02*
G37*
G36*
X104826Y8116D02*
X104495Y8083D01*
X104054Y7949D01*
X103648Y7732D01*
X103293Y7440D01*
X103001Y7085D01*
X102784Y6679D01*
X102650Y6238D01*
X102617Y5907D01*
X104826D01*
Y8116D01*
D02*
G37*
G36*
X84826Y8116D02*
X84495Y8083D01*
X84054Y7949D01*
X83648Y7732D01*
X83293Y7440D01*
X83001Y7085D01*
X82784Y6679D01*
X82650Y6238D01*
X82617Y5907D01*
X84826D01*
Y8116D01*
D02*
G37*
G36*
X85080Y8116D02*
Y5907D01*
X87289D01*
X87256Y6238D01*
X87122Y6679D01*
X86905Y7085D01*
X86613Y7440D01*
X86258Y7732D01*
X85852Y7949D01*
X85411Y8083D01*
X85080Y8116D01*
D02*
G37*
G36*
X45080Y8116D02*
Y5907D01*
X47289D01*
X47256Y6238D01*
X47122Y6679D01*
X46905Y7085D01*
X46613Y7440D01*
X46258Y7732D01*
X45852Y7949D01*
X45411Y8083D01*
X45080Y8116D01*
D02*
G37*
G36*
X24826Y8116D02*
X24495Y8083D01*
X24054Y7949D01*
X23648Y7732D01*
X23293Y7440D01*
X23001Y7085D01*
X22784Y6679D01*
X22650Y6238D01*
X22617Y5907D01*
X24826D01*
Y8116D01*
D02*
G37*
G36*
X135127Y8254D02*
Y5127D01*
X138254D01*
X138224Y5511D01*
X138104Y6009D01*
X137908Y6482D01*
X137641Y6919D01*
X137308Y7308D01*
X136919Y7641D01*
X136482Y7908D01*
X136009Y8104D01*
X135511Y8224D01*
X135127Y8254D01*
D02*
G37*
G36*
X44826Y8116D02*
X44495Y8083D01*
X44054Y7949D01*
X43648Y7732D01*
X43293Y7440D01*
X43001Y7085D01*
X42784Y6679D01*
X42650Y6238D01*
X42617Y5907D01*
X44826D01*
Y8116D01*
D02*
G37*
G36*
X25080Y8116D02*
Y5907D01*
X27289D01*
X27256Y6238D01*
X27122Y6679D01*
X26905Y7085D01*
X26613Y7440D01*
X26258Y7732D01*
X25852Y7949D01*
X25411Y8083D01*
X25080Y8116D01*
D02*
G37*
G36*
X75047Y8026D02*
X74609Y7983D01*
X74187Y7855D01*
X73799Y7647D01*
X73459Y7368D01*
X73180Y7028D01*
X72972Y6640D01*
X72844Y6218D01*
X72801Y5780D01*
X72844Y5342D01*
X72972Y4920D01*
X73180Y4532D01*
X73459Y4192D01*
X73799Y3912D01*
X74187Y3705D01*
X74609Y3577D01*
X75047Y3534D01*
X75485Y3577D01*
X75907Y3705D01*
X76295Y3912D01*
X76635Y4192D01*
X76914Y4532D01*
X77122Y4920D01*
X77250Y5342D01*
X77293Y5780D01*
X77250Y6218D01*
X77122Y6640D01*
X76914Y7028D01*
X76635Y7368D01*
X76295Y7647D01*
X75907Y7855D01*
X75485Y7983D01*
X75047Y8026D01*
D02*
G37*
G36*
X124826Y5653D02*
X122617D01*
X122650Y5322D01*
X122784Y4881D01*
X123001Y4475D01*
X123293Y4120D01*
X123648Y3828D01*
X124054Y3611D01*
X124495Y3477D01*
X124826Y3444D01*
Y5653D01*
D02*
G37*
G36*
X84826Y5653D02*
X82617D01*
X82650Y5322D01*
X82784Y4881D01*
X83001Y4475D01*
X83293Y4120D01*
X83648Y3828D01*
X84054Y3611D01*
X84495Y3477D01*
X84826Y3444D01*
Y5653D01*
D02*
G37*
G36*
X104826D02*
X102617D01*
X102650Y5322D01*
X102784Y4881D01*
X103001Y4475D01*
X103293Y4120D01*
X103648Y3828D01*
X104054Y3611D01*
X104495Y3477D01*
X104826Y3444D01*
Y5653D01*
D02*
G37*
G36*
X44826D02*
X42617D01*
X42650Y5322D01*
X42784Y4881D01*
X43001Y4475D01*
X43293Y4120D01*
X43648Y3828D01*
X44054Y3611D01*
X44495Y3477D01*
X44826Y3444D01*
Y5653D01*
D02*
G37*
G36*
X8254Y4873D02*
X5127D01*
Y1746D01*
X5511Y1776D01*
X6009Y1896D01*
X6482Y2092D01*
X6919Y2359D01*
X7308Y2692D01*
X7641Y3081D01*
X7908Y3518D01*
X8104Y3991D01*
X8224Y4489D01*
X8254Y4873D01*
D02*
G37*
G36*
X4873D02*
X1746D01*
X1776Y4489D01*
X1896Y3991D01*
X2092Y3518D01*
X2359Y3081D01*
X2692Y2692D01*
X3081Y2359D01*
X3518Y2092D01*
X3991Y1896D01*
X4489Y1776D01*
X4873Y1746D01*
Y4873D01*
D02*
G37*
G36*
X138254D02*
X135127D01*
Y1746D01*
X135511Y1776D01*
X136009Y1896D01*
X136482Y2092D01*
X136919Y2359D01*
X137308Y2692D01*
X137641Y3081D01*
X137908Y3518D01*
X138104Y3991D01*
X138224Y4489D01*
X138254Y4873D01*
D02*
G37*
G36*
X134873D02*
X131746D01*
X131776Y4489D01*
X131896Y3991D01*
X132092Y3518D01*
X132359Y3081D01*
X132692Y2692D01*
X133081Y2359D01*
X133518Y2092D01*
X133991Y1896D01*
X134489Y1776D01*
X134873Y1746D01*
Y4873D01*
D02*
G37*
G36*
X107289Y5653D02*
X105080D01*
Y3444D01*
X105411Y3477D01*
X105852Y3611D01*
X106258Y3828D01*
X106613Y4120D01*
X106905Y4475D01*
X107122Y4881D01*
X107256Y5322D01*
X107289Y5653D01*
D02*
G37*
G36*
X47289D02*
X45080D01*
Y3444D01*
X45411Y3477D01*
X45852Y3611D01*
X46258Y3828D01*
X46613Y4120D01*
X46905Y4475D01*
X47122Y4881D01*
X47256Y5322D01*
X47289Y5653D01*
D02*
G37*
G36*
X67289Y5653D02*
X65080D01*
Y3444D01*
X65411Y3477D01*
X65852Y3611D01*
X66258Y3828D01*
X66613Y4120D01*
X66905Y4475D01*
X67122Y4881D01*
X67256Y5322D01*
X67289Y5653D01*
D02*
G37*
G36*
X127289Y5653D02*
X125080D01*
Y3444D01*
X125411Y3477D01*
X125852Y3611D01*
X126258Y3828D01*
X126613Y4120D01*
X126905Y4475D01*
X127122Y4881D01*
X127256Y5322D01*
X127289Y5653D01*
D02*
G37*
G36*
X87289Y5653D02*
X85080D01*
Y3444D01*
X85411Y3477D01*
X85852Y3611D01*
X86258Y3828D01*
X86613Y4120D01*
X86905Y4475D01*
X87122Y4881D01*
X87256Y5322D01*
X87289Y5653D01*
D02*
G37*
G36*
X24826Y5653D02*
X22617D01*
X22650Y5322D01*
X22784Y4881D01*
X23001Y4475D01*
X23293Y4120D01*
X23648Y3828D01*
X24054Y3611D01*
X24495Y3477D01*
X24826Y3444D01*
Y5653D01*
D02*
G37*
G36*
X64826Y5653D02*
X62617D01*
X62650Y5322D01*
X62784Y4881D01*
X63001Y4475D01*
X63293Y4120D01*
X63648Y3828D01*
X64054Y3611D01*
X64495Y3477D01*
X64826Y3444D01*
Y5653D01*
D02*
G37*
G36*
X27289Y5653D02*
X25080D01*
Y3444D01*
X25411Y3477D01*
X25852Y3611D01*
X26258Y3828D01*
X26613Y4120D01*
X26905Y4475D01*
X27122Y4881D01*
X27256Y5322D01*
X27289Y5653D01*
D02*
G37*
G36*
X4873Y13496D02*
X4738Y13478D01*
X4494Y13377D01*
X4284Y13216D01*
X4123Y13006D01*
X4022Y12762D01*
X4004Y12627D01*
X4873D01*
Y13496D01*
D02*
G37*
G36*
X135127Y13496D02*
Y12627D01*
X135996D01*
X135978Y12762D01*
X135877Y13006D01*
X135716Y13216D01*
X135506Y13377D01*
X135262Y13478D01*
X135127Y13496D01*
D02*
G37*
G36*
X79889Y20278D02*
X79873Y20273D01*
X79857Y20278D01*
X79538Y20246D01*
X79523Y20238D01*
X79506Y20240D01*
X79200Y20147D01*
X79187Y20136D01*
X79170Y20135D01*
X78888Y19984D01*
X78877Y19971D01*
X78861Y19966D01*
X78613Y19763D01*
X78605Y19748D01*
X78590Y19740D01*
X78387Y19492D01*
X78382Y19476D01*
X78369Y19465D01*
X78218Y19183D01*
X78217Y19166D01*
X78206Y19153D01*
X78113Y18847D01*
X78115Y18830D01*
X78107Y18815D01*
X78075Y18496D01*
X78078Y18488D01*
X78075Y18480D01*
X78078Y18472D01*
X78075Y18464D01*
X78107Y18145D01*
X78115Y18130D01*
X78113Y18113D01*
X78206Y17807D01*
X78217Y17794D01*
X78218Y17777D01*
X78369Y17495D01*
X78382Y17484D01*
X78387Y17468D01*
X78590Y17220D01*
X78605Y17212D01*
X78613Y17197D01*
X78861Y16994D01*
X78877Y16989D01*
X78888Y16976D01*
X79170Y16825D01*
X79187Y16824D01*
X79200Y16813D01*
X79506Y16720D01*
X79523Y16722D01*
X79538Y16714D01*
X79857Y16682D01*
X79873Y16687D01*
X79889Y16682D01*
X80208Y16714D01*
X80223Y16722D01*
X80240Y16720D01*
X80546Y16813D01*
X80559Y16824D01*
X80576Y16825D01*
X80858Y16976D01*
X80869Y16989D01*
X80885Y16994D01*
X81133Y17197D01*
X81141Y17212D01*
X81156Y17220D01*
X81359Y17468D01*
X81364Y17484D01*
X81377Y17495D01*
X81528Y17777D01*
X81529Y17794D01*
X81540Y17807D01*
X81633Y18113D01*
X81631Y18130D01*
X81639Y18145D01*
X81671Y18464D01*
X81668Y18472D01*
X81671Y18480D01*
X81668Y18488D01*
X81671Y18496D01*
X81639Y18815D01*
X81631Y18830D01*
X81633Y18847D01*
X81540Y19153D01*
X81529Y19166D01*
X81528Y19183D01*
X81377Y19465D01*
X81364Y19476D01*
X81359Y19492D01*
X81156Y19740D01*
X81141Y19748D01*
X81133Y19763D01*
X80885Y19966D01*
X80869Y19971D01*
X80858Y19984D01*
X80576Y20135D01*
X80559Y20136D01*
X80546Y20147D01*
X80240Y20240D01*
X80223Y20238D01*
X80208Y20246D01*
X79889Y20278D01*
D02*
G37*
G36*
X5127Y13496D02*
Y12627D01*
X5996D01*
X5978Y12762D01*
X5877Y13006D01*
X5716Y13216D01*
X5506Y13377D01*
X5262Y13478D01*
X5127Y13496D01*
D02*
G37*
G36*
X134873Y12373D02*
X134004D01*
X134022Y12238D01*
X134123Y11994D01*
X134284Y11784D01*
X134494Y11623D01*
X134738Y11522D01*
X134873Y11504D01*
Y12373D01*
D02*
G37*
G36*
X135996D02*
X135127D01*
Y11504D01*
X135262Y11522D01*
X135506Y11623D01*
X135716Y11784D01*
X135877Y11994D01*
X135978Y12238D01*
X135996Y12373D01*
D02*
G37*
G36*
X134873Y13496D02*
X134738Y13478D01*
X134494Y13377D01*
X134284Y13216D01*
X134123Y13006D01*
X134022Y12762D01*
X134004Y12627D01*
X134873D01*
Y13496D01*
D02*
G37*
G36*
X4873Y12373D02*
X4004D01*
X4022Y12238D01*
X4123Y11994D01*
X4284Y11784D01*
X4494Y11623D01*
X4738Y11522D01*
X4873Y11504D01*
Y12373D01*
D02*
G37*
G36*
X75047Y25806D02*
X74609Y25763D01*
X74187Y25635D01*
X73799Y25427D01*
X73459Y25148D01*
X73180Y24808D01*
X72972Y24420D01*
X72844Y23998D01*
X72801Y23560D01*
X72844Y23122D01*
X72972Y22700D01*
X73180Y22312D01*
X73459Y21972D01*
X73799Y21692D01*
X74187Y21485D01*
X74609Y21357D01*
X75047Y21314D01*
X75485Y21357D01*
X75907Y21485D01*
X76295Y21692D01*
X76635Y21972D01*
X76914Y22312D01*
X77122Y22700D01*
X77250Y23122D01*
X77293Y23560D01*
X77250Y23998D01*
X77122Y24420D01*
X76914Y24808D01*
X76635Y25148D01*
X76295Y25427D01*
X75907Y25635D01*
X75485Y25763D01*
X75047Y25806D01*
D02*
G37*
G36*
X59889Y20278D02*
X59873Y20273D01*
X59857Y20278D01*
X59538Y20246D01*
X59523Y20238D01*
X59506Y20240D01*
X59200Y20147D01*
X59187Y20136D01*
X59170Y20135D01*
X58888Y19984D01*
X58877Y19971D01*
X58861Y19966D01*
X58613Y19763D01*
X58605Y19748D01*
X58590Y19740D01*
X58387Y19492D01*
X58382Y19476D01*
X58369Y19465D01*
X58218Y19183D01*
X58217Y19166D01*
X58206Y19153D01*
X58113Y18847D01*
X58115Y18830D01*
X58107Y18815D01*
X58075Y18496D01*
X58078Y18488D01*
X58075Y18480D01*
X58078Y18472D01*
X58075Y18464D01*
X58107Y18145D01*
X58115Y18130D01*
X58113Y18113D01*
X58206Y17807D01*
X58217Y17794D01*
X58218Y17777D01*
X58369Y17495D01*
X58382Y17484D01*
X58387Y17468D01*
X58590Y17220D01*
X58605Y17212D01*
X58613Y17197D01*
X58861Y16994D01*
X58877Y16989D01*
X58888Y16976D01*
X59170Y16825D01*
X59187Y16824D01*
X59200Y16813D01*
X59506Y16720D01*
X59523Y16722D01*
X59538Y16714D01*
X59857Y16682D01*
X59873Y16687D01*
X59889Y16682D01*
X60208Y16714D01*
X60223Y16722D01*
X60240Y16720D01*
X60546Y16813D01*
X60559Y16824D01*
X60576Y16825D01*
X60858Y16976D01*
X60869Y16989D01*
X60885Y16994D01*
X61133Y17197D01*
X61141Y17212D01*
X61156Y17220D01*
X61359Y17468D01*
X61364Y17484D01*
X61377Y17495D01*
X61528Y17777D01*
X61529Y17794D01*
X61540Y17807D01*
X61633Y18113D01*
X61631Y18130D01*
X61639Y18145D01*
X61671Y18464D01*
X61668Y18472D01*
X61671Y18480D01*
X61668Y18488D01*
X61671Y18496D01*
X61639Y18815D01*
X61631Y18830D01*
X61633Y18847D01*
X61540Y19153D01*
X61529Y19166D01*
X61528Y19183D01*
X61377Y19465D01*
X61364Y19476D01*
X61359Y19492D01*
X61156Y19740D01*
X61141Y19748D01*
X61133Y19763D01*
X60885Y19966D01*
X60869Y19971D01*
X60858Y19984D01*
X60576Y20135D01*
X60559Y20136D01*
X60546Y20147D01*
X60240Y20240D01*
X60223Y20238D01*
X60208Y20246D01*
X59889Y20278D01*
D02*
G37*
G36*
X15047Y25806D02*
X14609Y25763D01*
X14187Y25635D01*
X13799Y25427D01*
X13459Y25148D01*
X13180Y24808D01*
X12972Y24420D01*
X12844Y23998D01*
X12801Y23560D01*
X12844Y23122D01*
X12972Y22700D01*
X13180Y22312D01*
X13459Y21972D01*
X13799Y21693D01*
X14187Y21485D01*
X14609Y21357D01*
X15047Y21314D01*
X15485Y21357D01*
X15907Y21485D01*
X16295Y21693D01*
X16635Y21972D01*
X16914Y22312D01*
X17122Y22700D01*
X17250Y23122D01*
X17293Y23560D01*
X17250Y23998D01*
X17122Y24420D01*
X16914Y24808D01*
X16635Y25148D01*
X16295Y25427D01*
X15907Y25635D01*
X15485Y25763D01*
X15047Y25806D01*
D02*
G37*
G36*
X84953Y25806D02*
X84515Y25763D01*
X84093Y25635D01*
X83705Y25427D01*
X83365Y25148D01*
X83086Y24808D01*
X82878Y24420D01*
X82750Y23998D01*
X82707Y23560D01*
X82750Y23122D01*
X82878Y22700D01*
X83086Y22312D01*
X83365Y21972D01*
X83705Y21692D01*
X84093Y21485D01*
X84515Y21357D01*
X84953Y21314D01*
X85391Y21357D01*
X85813Y21485D01*
X86201Y21692D01*
X86541Y21972D01*
X86820Y22312D01*
X87028Y22700D01*
X87156Y23122D01*
X87199Y23560D01*
X87156Y23998D01*
X87028Y24420D01*
X86820Y24808D01*
X86541Y25148D01*
X86201Y25427D01*
X85813Y25635D01*
X85391Y25763D01*
X84953Y25806D01*
D02*
G37*
G36*
X39889Y20278D02*
X39873Y20273D01*
X39857Y20278D01*
X39538Y20246D01*
X39523Y20238D01*
X39506Y20240D01*
X39200Y20147D01*
X39187Y20136D01*
X39170Y20135D01*
X38888Y19984D01*
X38877Y19971D01*
X38861Y19966D01*
X38613Y19763D01*
X38605Y19748D01*
X38590Y19740D01*
X38387Y19492D01*
X38382Y19476D01*
X38369Y19465D01*
X38218Y19183D01*
X38217Y19166D01*
X38206Y19153D01*
X38113Y18847D01*
X38115Y18830D01*
X38107Y18815D01*
X38075Y18496D01*
X38078Y18488D01*
X38075Y18480D01*
X38078Y18472D01*
X38075Y18464D01*
X38107Y18145D01*
X38115Y18130D01*
X38113Y18113D01*
X38206Y17807D01*
X38217Y17794D01*
X38218Y17777D01*
X38369Y17495D01*
X38382Y17484D01*
X38387Y17468D01*
X38590Y17220D01*
X38605Y17212D01*
X38613Y17197D01*
X38861Y16994D01*
X38877Y16989D01*
X38888Y16976D01*
X39170Y16825D01*
X39187Y16824D01*
X39200Y16813D01*
X39506Y16720D01*
X39523Y16722D01*
X39538Y16714D01*
X39857Y16682D01*
X39873Y16687D01*
X39889Y16682D01*
X40208Y16714D01*
X40223Y16722D01*
X40240Y16720D01*
X40546Y16813D01*
X40559Y16824D01*
X40576Y16825D01*
X40858Y16976D01*
X40869Y16989D01*
X40885Y16994D01*
X41133Y17197D01*
X41141Y17212D01*
X41156Y17220D01*
X41359Y17468D01*
X41364Y17484D01*
X41377Y17495D01*
X41528Y17777D01*
X41529Y17794D01*
X41540Y17807D01*
X41633Y18113D01*
X41631Y18130D01*
X41639Y18145D01*
X41671Y18464D01*
X41668Y18472D01*
X41671Y18480D01*
X41668Y18488D01*
X41671Y18496D01*
X41639Y18815D01*
X41631Y18830D01*
X41633Y18847D01*
X41540Y19153D01*
X41529Y19166D01*
X41528Y19183D01*
X41377Y19465D01*
X41364Y19476D01*
X41359Y19492D01*
X41156Y19740D01*
X41141Y19748D01*
X41133Y19763D01*
X40885Y19966D01*
X40869Y19971D01*
X40858Y19984D01*
X40576Y20135D01*
X40559Y20136D01*
X40546Y20147D01*
X40240Y20240D01*
X40223Y20238D01*
X40208Y20246D01*
X39889Y20278D01*
D02*
G37*
G36*
X19889D02*
X19873Y20273D01*
X19857Y20278D01*
X19538Y20246D01*
X19523Y20238D01*
X19506Y20240D01*
X19200Y20147D01*
X19187Y20136D01*
X19170Y20135D01*
X18888Y19984D01*
X18877Y19971D01*
X18861Y19966D01*
X18613Y19763D01*
X18605Y19748D01*
X18590Y19740D01*
X18387Y19492D01*
X18382Y19476D01*
X18369Y19465D01*
X18218Y19183D01*
X18217Y19166D01*
X18206Y19153D01*
X18113Y18847D01*
X18115Y18830D01*
X18107Y18815D01*
X18075Y18496D01*
X18078Y18488D01*
X18075Y18480D01*
X18078Y18472D01*
X18075Y18464D01*
X18107Y18145D01*
X18115Y18130D01*
X18113Y18113D01*
X18206Y17807D01*
X18217Y17794D01*
X18218Y17777D01*
X18369Y17495D01*
X18382Y17484D01*
X18387Y17468D01*
X18590Y17220D01*
X18605Y17212D01*
X18613Y17197D01*
X18861Y16994D01*
X18877Y16989D01*
X18888Y16976D01*
X19170Y16825D01*
X19187Y16824D01*
X19200Y16813D01*
X19506Y16720D01*
X19523Y16722D01*
X19538Y16714D01*
X19857Y16682D01*
X19873Y16687D01*
X19889Y16682D01*
X20208Y16714D01*
X20223Y16722D01*
X20240Y16720D01*
X20546Y16813D01*
X20559Y16824D01*
X20576Y16825D01*
X20858Y16976D01*
X20869Y16989D01*
X20885Y16994D01*
X21133Y17197D01*
X21141Y17212D01*
X21156Y17220D01*
X21359Y17468D01*
X21364Y17484D01*
X21377Y17495D01*
X21528Y17777D01*
X21529Y17794D01*
X21540Y17807D01*
X21633Y18113D01*
X21631Y18130D01*
X21639Y18145D01*
X21671Y18464D01*
X21668Y18472D01*
X21671Y18480D01*
X21668Y18488D01*
X21671Y18496D01*
X21639Y18815D01*
X21631Y18830D01*
X21633Y18847D01*
X21540Y19153D01*
X21529Y19166D01*
X21528Y19183D01*
X21377Y19465D01*
X21364Y19476D01*
X21359Y19492D01*
X21156Y19740D01*
X21141Y19748D01*
X21133Y19763D01*
X20885Y19966D01*
X20869Y19971D01*
X20858Y19984D01*
X20576Y20135D01*
X20559Y20136D01*
X20546Y20147D01*
X20240Y20240D01*
X20223Y20238D01*
X20208Y20246D01*
X19889Y20278D01*
D02*
G37*
G36*
X119889D02*
X119873Y20273D01*
X119857Y20278D01*
X119538Y20246D01*
X119523Y20238D01*
X119506Y20240D01*
X119200Y20147D01*
X119187Y20136D01*
X119170Y20135D01*
X118888Y19984D01*
X118877Y19971D01*
X118861Y19966D01*
X118613Y19763D01*
X118605Y19748D01*
X118590Y19740D01*
X118387Y19492D01*
X118382Y19476D01*
X118369Y19465D01*
X118218Y19183D01*
X118217Y19166D01*
X118206Y19153D01*
X118113Y18847D01*
X118115Y18830D01*
X118107Y18815D01*
X118075Y18496D01*
X118078Y18488D01*
X118075Y18480D01*
X118078Y18472D01*
X118075Y18464D01*
X118107Y18145D01*
X118115Y18130D01*
X118113Y18113D01*
X118206Y17807D01*
X118217Y17794D01*
X118218Y17777D01*
X118369Y17495D01*
X118382Y17484D01*
X118387Y17468D01*
X118590Y17220D01*
X118605Y17212D01*
X118613Y17197D01*
X118861Y16994D01*
X118877Y16989D01*
X118888Y16976D01*
X119170Y16825D01*
X119187Y16824D01*
X119200Y16813D01*
X119506Y16720D01*
X119523Y16722D01*
X119538Y16714D01*
X119857Y16682D01*
X119873Y16687D01*
X119889Y16682D01*
X120208Y16714D01*
X120223Y16722D01*
X120240Y16720D01*
X120546Y16813D01*
X120559Y16824D01*
X120576Y16825D01*
X120858Y16976D01*
X120869Y16989D01*
X120885Y16994D01*
X121133Y17197D01*
X121141Y17212D01*
X121156Y17220D01*
X121359Y17468D01*
X121364Y17484D01*
X121377Y17495D01*
X121528Y17777D01*
X121529Y17794D01*
X121540Y17807D01*
X121633Y18113D01*
X121631Y18130D01*
X121639Y18145D01*
X121671Y18464D01*
X121668Y18472D01*
X121671Y18480D01*
X121668Y18488D01*
X121671Y18496D01*
X121639Y18815D01*
X121631Y18830D01*
X121633Y18847D01*
X121540Y19153D01*
X121529Y19166D01*
X121528Y19183D01*
X121377Y19465D01*
X121364Y19476D01*
X121359Y19492D01*
X121156Y19740D01*
X121141Y19748D01*
X121133Y19763D01*
X120885Y19966D01*
X120869Y19971D01*
X120858Y19984D01*
X120576Y20135D01*
X120559Y20136D01*
X120546Y20147D01*
X120240Y20240D01*
X120223Y20238D01*
X120208Y20246D01*
X119889Y20278D01*
D02*
G37*
G36*
X99889D02*
X99873Y20273D01*
X99857Y20278D01*
X99538Y20246D01*
X99523Y20238D01*
X99506Y20240D01*
X99200Y20147D01*
X99187Y20136D01*
X99170Y20135D01*
X98888Y19984D01*
X98877Y19971D01*
X98861Y19966D01*
X98613Y19763D01*
X98605Y19748D01*
X98590Y19740D01*
X98387Y19492D01*
X98382Y19476D01*
X98369Y19465D01*
X98218Y19183D01*
X98217Y19166D01*
X98206Y19153D01*
X98113Y18847D01*
X98115Y18830D01*
X98107Y18815D01*
X98075Y18496D01*
X98078Y18488D01*
X98075Y18480D01*
X98078Y18472D01*
X98075Y18464D01*
X98107Y18145D01*
X98115Y18130D01*
X98113Y18113D01*
X98206Y17807D01*
X98217Y17794D01*
X98218Y17777D01*
X98369Y17495D01*
X98382Y17484D01*
X98387Y17468D01*
X98590Y17220D01*
X98605Y17212D01*
X98613Y17197D01*
X98861Y16994D01*
X98877Y16989D01*
X98888Y16976D01*
X99170Y16825D01*
X99187Y16824D01*
X99200Y16813D01*
X99506Y16720D01*
X99523Y16722D01*
X99538Y16714D01*
X99857Y16682D01*
X99873Y16687D01*
X99889Y16682D01*
X100208Y16714D01*
X100223Y16722D01*
X100240Y16720D01*
X100546Y16813D01*
X100559Y16824D01*
X100576Y16825D01*
X100858Y16976D01*
X100869Y16989D01*
X100885Y16994D01*
X101133Y17197D01*
X101141Y17212D01*
X101156Y17220D01*
X101359Y17468D01*
X101364Y17484D01*
X101377Y17495D01*
X101528Y17777D01*
X101529Y17794D01*
X101540Y17807D01*
X101633Y18113D01*
X101631Y18130D01*
X101639Y18145D01*
X101671Y18464D01*
X101668Y18472D01*
X101671Y18480D01*
X101668Y18488D01*
X101671Y18496D01*
X101639Y18815D01*
X101631Y18830D01*
X101633Y18847D01*
X101540Y19153D01*
X101529Y19166D01*
X101528Y19183D01*
X101377Y19465D01*
X101364Y19476D01*
X101359Y19492D01*
X101156Y19740D01*
X101141Y19748D01*
X101133Y19763D01*
X100885Y19966D01*
X100869Y19971D01*
X100858Y19984D01*
X100576Y20135D01*
X100559Y20136D01*
X100546Y20147D01*
X100240Y20240D01*
X100223Y20238D01*
X100208Y20246D01*
X99889Y20278D01*
D02*
G37*
G36*
X5996Y12373D02*
X5127D01*
Y11504D01*
X5262Y11522D01*
X5506Y11623D01*
X5716Y11784D01*
X5877Y11994D01*
X5978Y12238D01*
X5996Y12373D01*
D02*
G37*
G36*
X75047Y15646D02*
X74609Y15603D01*
X74187Y15475D01*
X73799Y15267D01*
X73459Y14988D01*
X73180Y14648D01*
X72972Y14260D01*
X72844Y13838D01*
X72801Y13400D01*
X72844Y12962D01*
X72972Y12540D01*
X73180Y12152D01*
X73459Y11812D01*
X73799Y11533D01*
X74187Y11325D01*
X74609Y11197D01*
X75047Y11154D01*
X75485Y11197D01*
X75907Y11325D01*
X76295Y11533D01*
X76635Y11812D01*
X76914Y12152D01*
X77122Y12540D01*
X77250Y12962D01*
X77293Y13400D01*
X77250Y13838D01*
X77122Y14260D01*
X76914Y14648D01*
X76635Y14988D01*
X76295Y15267D01*
X75907Y15475D01*
X75485Y15603D01*
X75047Y15646D01*
D02*
G37*
G36*
X65080Y8116D02*
Y5907D01*
X67289D01*
X67256Y6238D01*
X67122Y6679D01*
X66905Y7085D01*
X66613Y7440D01*
X66258Y7732D01*
X65852Y7949D01*
X65411Y8083D01*
X65080Y8116D01*
D02*
G37*
G36*
X15047Y15646D02*
X14609Y15603D01*
X14187Y15475D01*
X13799Y15267D01*
X13459Y14988D01*
X13180Y14648D01*
X12972Y14260D01*
X12844Y13838D01*
X12801Y13400D01*
X12844Y12962D01*
X12972Y12540D01*
X13180Y12152D01*
X13459Y11812D01*
X13799Y11533D01*
X14187Y11325D01*
X14609Y11197D01*
X15047Y11154D01*
X15485Y11197D01*
X15907Y11325D01*
X16295Y11533D01*
X16635Y11812D01*
X16914Y12152D01*
X17122Y12540D01*
X17250Y12962D01*
X17293Y13400D01*
X17250Y13838D01*
X17122Y14260D01*
X16914Y14648D01*
X16635Y14988D01*
X16295Y15267D01*
X15907Y15475D01*
X15485Y15603D01*
X15047Y15646D01*
D02*
G37*
G36*
X84953Y15646D02*
X84515Y15603D01*
X84093Y15475D01*
X83705Y15267D01*
X83365Y14988D01*
X83086Y14648D01*
X82878Y14260D01*
X82750Y13838D01*
X82707Y13400D01*
X82750Y12962D01*
X82878Y12540D01*
X83086Y12152D01*
X83365Y11812D01*
X83705Y11533D01*
X84093Y11325D01*
X84515Y11197D01*
X84953Y11154D01*
X85391Y11197D01*
X85813Y11325D01*
X86201Y11533D01*
X86541Y11812D01*
X86820Y12152D01*
X87028Y12540D01*
X87156Y12962D01*
X87199Y13400D01*
X87156Y13838D01*
X87028Y14260D01*
X86820Y14648D01*
X86541Y14988D01*
X86201Y15267D01*
X85813Y15475D01*
X85391Y15603D01*
X84953Y15646D01*
D02*
G37*
G36*
X124826Y8116D02*
X124495Y8083D01*
X124054Y7949D01*
X123648Y7732D01*
X123293Y7440D01*
X123001Y7085D01*
X122784Y6679D01*
X122650Y6238D01*
X122617Y5907D01*
X124826D01*
Y8116D01*
D02*
G37*
G36*
X105080Y8116D02*
Y5907D01*
X107289D01*
X107256Y6238D01*
X107122Y6679D01*
X106905Y7085D01*
X106613Y7440D01*
X106258Y7732D01*
X105852Y7949D01*
X105411Y8083D01*
X105080Y8116D01*
D02*
G37*
G36*
X64826Y8116D02*
X64495Y8083D01*
X64054Y7949D01*
X63648Y7732D01*
X63293Y7440D01*
X63001Y7085D01*
X62784Y6679D01*
X62650Y6238D01*
X62617Y5907D01*
X64826D01*
Y8116D01*
D02*
G37*
G36*
X125080Y8116D02*
Y5907D01*
X127289D01*
X127256Y6238D01*
X127122Y6679D01*
X126905Y7085D01*
X126613Y7440D01*
X126258Y7732D01*
X125852Y7949D01*
X125411Y8083D01*
X125080Y8116D01*
D02*
G37*
G36*
X124953Y15646D02*
X124515Y15603D01*
X124093Y15475D01*
X123705Y15267D01*
X123365Y14988D01*
X123086Y14648D01*
X122878Y14260D01*
X122750Y13838D01*
X122707Y13400D01*
X122750Y12962D01*
X122878Y12540D01*
X123086Y12152D01*
X123365Y11812D01*
X123705Y11533D01*
X124093Y11325D01*
X124515Y11197D01*
X124953Y11154D01*
X125391Y11197D01*
X125813Y11325D01*
X126201Y11533D01*
X126541Y11812D01*
X126820Y12152D01*
X127028Y12540D01*
X127156Y12962D01*
X127199Y13400D01*
X127156Y13838D01*
X127028Y14260D01*
X126820Y14648D01*
X126541Y14988D01*
X126201Y15267D01*
X125813Y15475D01*
X125391Y15603D01*
X124953Y15646D01*
D02*
G37*
G36*
X115047D02*
X114609Y15603D01*
X114187Y15475D01*
X113799Y15267D01*
X113459Y14988D01*
X113179Y14648D01*
X112972Y14260D01*
X112844Y13838D01*
X112801Y13400D01*
X112844Y12962D01*
X112972Y12540D01*
X113179Y12152D01*
X113459Y11812D01*
X113799Y11533D01*
X114187Y11325D01*
X114609Y11197D01*
X115047Y11154D01*
X115485Y11197D01*
X115907Y11325D01*
X116295Y11533D01*
X116635Y11812D01*
X116914Y12152D01*
X117122Y12540D01*
X117250Y12962D01*
X117293Y13400D01*
X117250Y13838D01*
X117122Y14260D01*
X116914Y14648D01*
X116635Y14988D01*
X116295Y15267D01*
X115907Y15475D01*
X115485Y15603D01*
X115047Y15646D01*
D02*
G37*
G36*
X64953Y15646D02*
X64515Y15603D01*
X64093Y15475D01*
X63705Y15267D01*
X63365Y14988D01*
X63086Y14648D01*
X62878Y14260D01*
X62750Y13838D01*
X62707Y13400D01*
X62750Y12962D01*
X62878Y12540D01*
X63086Y12152D01*
X63365Y11812D01*
X63705Y11533D01*
X64093Y11325D01*
X64515Y11197D01*
X64953Y11154D01*
X65391Y11197D01*
X65813Y11325D01*
X66201Y11533D01*
X66541Y11812D01*
X66820Y12152D01*
X67028Y12540D01*
X67156Y12962D01*
X67199Y13400D01*
X67156Y13838D01*
X67028Y14260D01*
X66820Y14648D01*
X66541Y14988D01*
X66201Y15267D01*
X65813Y15475D01*
X65391Y15603D01*
X64953Y15646D01*
D02*
G37*
G36*
X55047D02*
X54609Y15603D01*
X54187Y15475D01*
X53799Y15267D01*
X53459Y14988D01*
X53180Y14648D01*
X52972Y14260D01*
X52844Y13838D01*
X52801Y13400D01*
X52844Y12962D01*
X52972Y12540D01*
X53180Y12152D01*
X53459Y11812D01*
X53799Y11533D01*
X54187Y11325D01*
X54609Y11197D01*
X55047Y11154D01*
X55485Y11197D01*
X55907Y11325D01*
X56295Y11533D01*
X56635Y11812D01*
X56914Y12152D01*
X57122Y12540D01*
X57250Y12962D01*
X57293Y13400D01*
X57250Y13838D01*
X57122Y14260D01*
X56914Y14648D01*
X56635Y14988D01*
X56295Y15267D01*
X55907Y15475D01*
X55485Y15603D01*
X55047Y15646D01*
D02*
G37*
G36*
X35047Y15646D02*
X34609Y15603D01*
X34187Y15475D01*
X33799Y15267D01*
X33459Y14988D01*
X33180Y14648D01*
X32972Y14260D01*
X32844Y13838D01*
X32801Y13400D01*
X32844Y12962D01*
X32972Y12540D01*
X33180Y12152D01*
X33459Y11812D01*
X33799Y11533D01*
X34187Y11325D01*
X34609Y11197D01*
X35047Y11154D01*
X35485Y11197D01*
X35907Y11325D01*
X36295Y11533D01*
X36635Y11812D01*
X36914Y12152D01*
X37122Y12540D01*
X37250Y12962D01*
X37293Y13400D01*
X37250Y13838D01*
X37122Y14260D01*
X36914Y14648D01*
X36635Y14988D01*
X36295Y15267D01*
X35907Y15475D01*
X35485Y15603D01*
X35047Y15646D01*
D02*
G37*
G36*
X19000Y31910D02*
X18764Y31879D01*
X18545Y31788D01*
X18356Y31644D01*
X18212Y31455D01*
X18121Y31236D01*
X18090Y31000D01*
X18121Y30764D01*
X18212Y30545D01*
X18356Y30356D01*
X18545Y30212D01*
X18590Y30193D01*
Y23000D01*
X18621Y22843D01*
X18710Y22710D01*
X24670Y16750D01*
Y15618D01*
X24515Y15603D01*
X24093Y15475D01*
X23705Y15267D01*
X23365Y14988D01*
X23086Y14648D01*
X22878Y14260D01*
X22750Y13838D01*
X22707Y13400D01*
X22750Y12962D01*
X22878Y12540D01*
X23086Y12152D01*
X23365Y11812D01*
X23705Y11533D01*
X24093Y11325D01*
X24515Y11197D01*
X24953Y11154D01*
X25391Y11197D01*
X25813Y11325D01*
X26201Y11533D01*
X26541Y11812D01*
X26820Y12152D01*
X27028Y12540D01*
X27156Y12962D01*
X27199Y13400D01*
X27156Y13838D01*
X27028Y14260D01*
X26820Y14648D01*
X26541Y14988D01*
X26201Y15267D01*
X25813Y15475D01*
X25490Y15573D01*
Y16920D01*
X25459Y17077D01*
X25370Y17210D01*
X19410Y23170D01*
Y30193D01*
X19455Y30212D01*
X19644Y30356D01*
X19788Y30545D01*
X19879Y30764D01*
X19910Y31000D01*
X19879Y31236D01*
X19788Y31455D01*
X19644Y31644D01*
X19455Y31788D01*
X19236Y31879D01*
X19000Y31910D01*
D02*
G37*
G36*
X95047Y15646D02*
X94609Y15603D01*
X94187Y15475D01*
X93799Y15267D01*
X93459Y14988D01*
X93180Y14648D01*
X92972Y14260D01*
X92844Y13838D01*
X92801Y13400D01*
X92844Y12962D01*
X92972Y12540D01*
X93180Y12152D01*
X93459Y11812D01*
X93799Y11533D01*
X94187Y11325D01*
X94609Y11197D01*
X95047Y11154D01*
X95485Y11197D01*
X95907Y11325D01*
X96295Y11533D01*
X96635Y11812D01*
X96914Y12152D01*
X97122Y12540D01*
X97250Y12962D01*
X97293Y13400D01*
X97250Y13838D01*
X97122Y14260D01*
X96914Y14648D01*
X96635Y14988D01*
X96295Y15267D01*
X95907Y15475D01*
X95485Y15603D01*
X95047Y15646D01*
D02*
G37*
G36*
X28000Y32210D02*
X27764Y32179D01*
X27545Y32088D01*
X27356Y31944D01*
X27212Y31755D01*
X27121Y31536D01*
X27090Y31300D01*
X27121Y31064D01*
X27212Y30845D01*
X27356Y30656D01*
X27545Y30512D01*
X27764Y30421D01*
X28000Y30390D01*
X28026Y30393D01*
X32210Y26210D01*
X32343Y26121D01*
X32500Y26090D01*
X36730D01*
X44670Y18150D01*
Y15618D01*
X44515Y15603D01*
X44093Y15475D01*
X43705Y15267D01*
X43365Y14988D01*
X43085Y14648D01*
X42878Y14260D01*
X42750Y13838D01*
X42707Y13400D01*
X42750Y12962D01*
X42878Y12540D01*
X43085Y12152D01*
X43365Y11812D01*
X43705Y11533D01*
X44093Y11325D01*
X44515Y11197D01*
X44953Y11154D01*
X45391Y11197D01*
X45813Y11325D01*
X46201Y11533D01*
X46541Y11812D01*
X46820Y12152D01*
X47028Y12540D01*
X47156Y12962D01*
X47199Y13400D01*
X47156Y13838D01*
X47028Y14260D01*
X46820Y14648D01*
X46541Y14988D01*
X46201Y15267D01*
X45813Y15475D01*
X45490Y15573D01*
Y18320D01*
X45459Y18477D01*
X45370Y18610D01*
X37190Y26790D01*
X37057Y26879D01*
X36900Y26910D01*
X32670D01*
X28765Y30815D01*
X28788Y30845D01*
X28879Y31064D01*
X28910Y31300D01*
X28879Y31536D01*
X28788Y31755D01*
X28644Y31944D01*
X28455Y32088D01*
X28236Y32179D01*
X28000Y32210D01*
D02*
G37*
G36*
X100299Y50373D02*
X99627D01*
Y49701D01*
X99711Y49712D01*
X99908Y49793D01*
X100077Y49923D01*
X100207Y50092D01*
X100288Y50289D01*
X100299Y50373D01*
D02*
G37*
G36*
X120000Y89914D02*
X119634Y89866D01*
X119293Y89725D01*
X119000Y89500D01*
X118775Y89207D01*
X118634Y88866D01*
X118620Y88764D01*
X115019Y85162D01*
X107481D01*
X105350Y87294D01*
X105366Y87334D01*
X105414Y87700D01*
X105366Y88066D01*
X105225Y88407D01*
X105000Y88700D01*
X104707Y88925D01*
X104366Y89066D01*
X104000Y89115D01*
X103634Y89066D01*
X103293Y88925D01*
X103000Y88700D01*
X102775Y88407D01*
X102634Y88066D01*
X102586Y87700D01*
X102634Y87334D01*
X102775Y86993D01*
X102852Y86893D01*
X102877Y86699D01*
X102993Y86419D01*
X103178Y86178D01*
X106178Y83178D01*
X106419Y82993D01*
X106699Y82877D01*
X107000Y82838D01*
X115500D01*
X115801Y82877D01*
X116081Y82993D01*
X116322Y83178D01*
X120264Y87120D01*
X120366Y87134D01*
X120707Y87275D01*
X121000Y87500D01*
X121225Y87793D01*
X121366Y88134D01*
X121414Y88500D01*
X121366Y88866D01*
X121225Y89207D01*
X121000Y89500D01*
X120707Y89725D01*
X120366Y89866D01*
X120000Y89914D01*
D02*
G37*
G36*
X130096Y85873D02*
X129227D01*
Y85004D01*
X129362Y85022D01*
X129606Y85123D01*
X129816Y85284D01*
X129977Y85494D01*
X130078Y85738D01*
X130096Y85873D01*
D02*
G37*
G36*
X129227Y86996D02*
Y86127D01*
X130096D01*
X130078Y86262D01*
X129977Y86506D01*
X129816Y86716D01*
X129606Y86877D01*
X129362Y86978D01*
X129227Y86996D01*
D02*
G37*
G36*
X128973D02*
X128838Y86978D01*
X128594Y86877D01*
X128384Y86716D01*
X128223Y86506D01*
X128122Y86262D01*
X128104Y86127D01*
X128973D01*
Y86996D01*
D02*
G37*
G36*
X94073Y83945D02*
X93982Y83927D01*
X93797Y83803D01*
X93673Y83618D01*
X93655Y83527D01*
X94073D01*
Y83945D01*
D02*
G37*
G36*
X94745Y83273D02*
X94327D01*
Y82855D01*
X94418Y82873D01*
X94603Y82997D01*
X94727Y83182D01*
X94745Y83273D01*
D02*
G37*
G36*
X128973Y85873D02*
X128104D01*
X128122Y85738D01*
X128223Y85494D01*
X128384Y85284D01*
X128594Y85123D01*
X128838Y85022D01*
X128973Y85004D01*
Y85873D01*
D02*
G37*
G36*
X94327Y83945D02*
Y83527D01*
X94745D01*
X94727Y83618D01*
X94603Y83803D01*
X94418Y83927D01*
X94327Y83945D01*
D02*
G37*
G36*
X4873Y87373D02*
X4004D01*
X4022Y87238D01*
X4123Y86994D01*
X4284Y86784D01*
X4494Y86623D01*
X4738Y86522D01*
X4873Y86504D01*
Y87373D01*
D02*
G37*
G36*
X134873Y87373D02*
X134004D01*
X134022Y87238D01*
X134123Y86994D01*
X134284Y86784D01*
X134494Y86623D01*
X134738Y86522D01*
X134873Y86504D01*
Y87373D01*
D02*
G37*
G36*
Y88496D02*
X134738Y88478D01*
X134494Y88377D01*
X134284Y88216D01*
X134123Y88006D01*
X134022Y87762D01*
X134004Y87627D01*
X134873D01*
Y88496D01*
D02*
G37*
G36*
X124700Y89914D02*
X124334Y89866D01*
X123993Y89725D01*
X123700Y89500D01*
X123475Y89207D01*
X123334Y88866D01*
X123285Y88500D01*
X123334Y88134D01*
X123475Y87793D01*
X123700Y87500D01*
X123993Y87275D01*
X124334Y87134D01*
X124700Y87086D01*
X125066Y87134D01*
X125407Y87275D01*
X125700Y87500D01*
X125925Y87793D01*
X126066Y88134D01*
X126115Y88500D01*
X126066Y88866D01*
X125925Y89207D01*
X125700Y89500D01*
X125407Y89725D01*
X125066Y89866D01*
X124700Y89914D01*
D02*
G37*
G36*
X108700Y89115D02*
X108334Y89066D01*
X107993Y88925D01*
X107700Y88700D01*
X107475Y88407D01*
X107334Y88066D01*
X107285Y87700D01*
X107334Y87334D01*
X107475Y86993D01*
X107700Y86700D01*
X107993Y86475D01*
X108334Y86334D01*
X108700Y86285D01*
X109066Y86334D01*
X109407Y86475D01*
X109700Y86700D01*
X109925Y86993D01*
X110066Y87334D01*
X110115Y87700D01*
X110066Y88066D01*
X109925Y88407D01*
X109700Y88700D01*
X109407Y88925D01*
X109066Y89066D01*
X108700Y89115D01*
D02*
G37*
G36*
X99300D02*
X98934Y89066D01*
X98593Y88925D01*
X98300Y88700D01*
X98075Y88407D01*
X97934Y88066D01*
X97885Y87700D01*
X97934Y87334D01*
X98075Y86993D01*
X98300Y86700D01*
X98593Y86475D01*
X98934Y86334D01*
X99300Y86285D01*
X99666Y86334D01*
X100007Y86475D01*
X100300Y86700D01*
X100525Y86993D01*
X100666Y87334D01*
X100715Y87700D01*
X100666Y88066D01*
X100525Y88407D01*
X100300Y88700D01*
X100007Y88925D01*
X99666Y89066D01*
X99300Y89115D01*
D02*
G37*
G36*
X135996Y87373D02*
X135127D01*
Y86504D01*
X135262Y86522D01*
X135506Y86623D01*
X135716Y86784D01*
X135877Y86994D01*
X135978Y87238D01*
X135996Y87373D01*
D02*
G37*
G36*
X5996Y87373D02*
X5127D01*
Y86504D01*
X5262Y86522D01*
X5506Y86623D01*
X5716Y86784D01*
X5877Y86994D01*
X5978Y87238D01*
X5996Y87373D01*
D02*
G37*
G36*
X94073Y83273D02*
X93655D01*
X93673Y83182D01*
X93797Y82997D01*
X93982Y82873D01*
X94073Y82855D01*
Y83273D01*
D02*
G37*
G36*
X122627Y79296D02*
Y78427D01*
X123496D01*
X123478Y78562D01*
X123377Y78806D01*
X123216Y79016D01*
X123006Y79177D01*
X122762Y79278D01*
X122627Y79296D01*
D02*
G37*
G36*
X122373D02*
X122238Y79278D01*
X121994Y79177D01*
X121784Y79016D01*
X121623Y78806D01*
X121522Y78562D01*
X121504Y78427D01*
X122373D01*
Y79296D01*
D02*
G37*
G36*
X97673Y80773D02*
X97255D01*
X97273Y80682D01*
X97397Y80497D01*
X97582Y80373D01*
X97673Y80355D01*
Y80773D01*
D02*
G37*
G36*
X100900Y80166D02*
X100722Y80131D01*
X100570Y80030D01*
X100523Y79959D01*
X97200D01*
X97101Y79939D01*
X97017Y79883D01*
X96883Y79750D01*
X96800Y79766D01*
X96622Y79731D01*
X96470Y79630D01*
X96369Y79478D01*
X96334Y79300D01*
X96369Y79122D01*
X96470Y78970D01*
X96622Y78869D01*
X96800Y78834D01*
X96978Y78869D01*
X97130Y78970D01*
X97231Y79122D01*
X97266Y79300D01*
X97260Y79334D01*
X97352Y79441D01*
X98426D01*
X98486Y79329D01*
X98478Y79316D01*
X98460Y79227D01*
X99540D01*
X99522Y79316D01*
X99514Y79329D01*
X99574Y79441D01*
X100523D01*
X100570Y79370D01*
X100722Y79269D01*
X100900Y79234D01*
X101078Y79269D01*
X101230Y79370D01*
X101331Y79522D01*
X101366Y79700D01*
X101331Y79878D01*
X101230Y80030D01*
X101078Y80131D01*
X100900Y80166D01*
D02*
G37*
G36*
X100800Y78162D02*
X100623Y78127D01*
X100473Y78027D01*
X100373Y77877D01*
X100338Y77700D01*
X100345Y77664D01*
X100249Y77559D01*
X99417D01*
X99378Y77686D01*
X99400Y77700D01*
X99522Y77884D01*
X99540Y77973D01*
X98460D01*
X98478Y77884D01*
X98600Y77700D01*
X98622Y77686D01*
X98583Y77559D01*
X97272D01*
X97227Y77627D01*
X97077Y77727D01*
X96900Y77762D01*
X96723Y77727D01*
X96573Y77627D01*
X96473Y77477D01*
X96438Y77300D01*
X96473Y77123D01*
X96573Y76973D01*
X96723Y76873D01*
X96900Y76838D01*
X97077Y76873D01*
X97227Y76973D01*
X97272Y77041D01*
X100400D01*
X100499Y77061D01*
X100500Y77061D01*
X100501Y77061D01*
X100600Y77041D01*
X100699Y77061D01*
X100783Y77117D01*
X100930Y77264D01*
X100977Y77273D01*
X101127Y77373D01*
X101227Y77523D01*
X101262Y77700D01*
X101227Y77877D01*
X101127Y78027D01*
X100977Y78127D01*
X100800Y78162D01*
D02*
G37*
G36*
X108927Y78196D02*
Y77327D01*
X109796D01*
X109778Y77462D01*
X109677Y77706D01*
X109516Y77916D01*
X109306Y78077D01*
X109062Y78178D01*
X108927Y78196D01*
D02*
G37*
G36*
X99540Y78973D02*
X98460D01*
X98478Y78884D01*
X98600Y78700D01*
X98655Y78663D01*
Y78536D01*
X98600Y78500D01*
X98478Y78316D01*
X98460Y78227D01*
X99540D01*
X99522Y78316D01*
X99400Y78500D01*
X99345Y78536D01*
Y78663D01*
X99400Y78700D01*
X99522Y78884D01*
X99540Y78973D01*
D02*
G37*
G36*
X3500Y79910D02*
X3264Y79879D01*
X3045Y79788D01*
X2856Y79644D01*
X2712Y79455D01*
X2621Y79236D01*
X2590Y79000D01*
X2621Y78764D01*
X2712Y78545D01*
X2856Y78356D01*
X3045Y78212D01*
X3264Y78121D01*
X3500Y78090D01*
X3736Y78121D01*
X3955Y78212D01*
X4144Y78356D01*
X4288Y78545D01*
X4379Y78764D01*
X4410Y79000D01*
X4379Y79236D01*
X4288Y79455D01*
X4144Y79644D01*
X3955Y79788D01*
X3736Y79879D01*
X3500Y79910D01*
D02*
G37*
G36*
X99440Y81973D02*
X99027D01*
Y81560D01*
X99116Y81578D01*
X99300Y81700D01*
X99422Y81884D01*
X99440Y81973D01*
D02*
G37*
G36*
X98773D02*
X98360D01*
X98378Y81884D01*
X98500Y81700D01*
X98684Y81578D01*
X98773Y81560D01*
Y81973D01*
D02*
G37*
G36*
X99027Y82640D02*
Y82227D01*
X99440D01*
X99422Y82316D01*
X99300Y82500D01*
X99116Y82622D01*
X99027Y82640D01*
D02*
G37*
G36*
X98773D02*
X98684Y82622D01*
X98500Y82500D01*
X98378Y82316D01*
X98360Y82227D01*
X98773D01*
Y82640D01*
D02*
G37*
G36*
X119800Y82810D02*
X119564Y82779D01*
X119345Y82688D01*
X119156Y82544D01*
X119012Y82355D01*
X118921Y82136D01*
X118890Y81900D01*
X118921Y81664D01*
X119012Y81445D01*
X119156Y81256D01*
X119345Y81112D01*
X119564Y81021D01*
X119800Y80990D01*
X120036Y81021D01*
X120255Y81112D01*
X120444Y81256D01*
X120588Y81445D01*
X120679Y81664D01*
X120710Y81900D01*
X120679Y82136D01*
X120588Y82355D01*
X120444Y82544D01*
X120255Y82688D01*
X120036Y82779D01*
X119800Y82810D01*
D02*
G37*
G36*
X98345Y80773D02*
X97927D01*
Y80355D01*
X98018Y80373D01*
X98203Y80497D01*
X98327Y80682D01*
X98345Y80773D01*
D02*
G37*
G36*
X97927Y81445D02*
Y81027D01*
X98345D01*
X98327Y81118D01*
X98203Y81303D01*
X98018Y81427D01*
X97927Y81445D01*
D02*
G37*
G36*
X97673D02*
X97582Y81427D01*
X97397Y81303D01*
X97273Y81118D01*
X97255Y81027D01*
X97673D01*
Y81445D01*
D02*
G37*
G36*
X119370Y95873D02*
X118627D01*
Y95130D01*
X118729Y95144D01*
X118943Y95232D01*
X119127Y95373D01*
X119268Y95557D01*
X119356Y95771D01*
X119370Y95873D01*
D02*
G37*
G36*
X123373D02*
X122630D01*
X122644Y95771D01*
X122732Y95557D01*
X122873Y95373D01*
X123057Y95232D01*
X123271Y95144D01*
X123373Y95130D01*
Y95873D01*
D02*
G37*
G36*
X124370D02*
X123627D01*
Y95130D01*
X123729Y95144D01*
X123943Y95232D01*
X124127Y95373D01*
X124268Y95557D01*
X124356Y95771D01*
X124370Y95873D01*
D02*
G37*
G36*
X118373D02*
X117630D01*
X117644Y95771D01*
X117732Y95557D01*
X117873Y95373D01*
X118057Y95232D01*
X118271Y95144D01*
X118373Y95130D01*
Y95873D01*
D02*
G37*
G36*
X5127Y98254D02*
Y95127D01*
X8254D01*
X8224Y95511D01*
X8104Y96009D01*
X7908Y96482D01*
X7641Y96919D01*
X7308Y97308D01*
X6919Y97641D01*
X6482Y97908D01*
X6009Y98104D01*
X5511Y98224D01*
X5127Y98254D01*
D02*
G37*
G36*
X4873D02*
X4489Y98224D01*
X3991Y98104D01*
X3518Y97908D01*
X3081Y97641D01*
X2692Y97308D01*
X2359Y96919D01*
X2092Y96482D01*
X1896Y96009D01*
X1776Y95511D01*
X1746Y95127D01*
X4873D01*
Y98254D01*
D02*
G37*
G36*
X135127D02*
Y95127D01*
X138254D01*
X138224Y95511D01*
X138104Y96009D01*
X137908Y96482D01*
X137641Y96919D01*
X137308Y97308D01*
X136919Y97641D01*
X136482Y97908D01*
X136009Y98104D01*
X135511Y98224D01*
X135127Y98254D01*
D02*
G37*
G36*
X134873D02*
X134489Y98224D01*
X133991Y98104D01*
X133518Y97908D01*
X133081Y97641D01*
X132692Y97308D01*
X132359Y96919D01*
X132092Y96482D01*
X131896Y96009D01*
X131776Y95511D01*
X131746Y95127D01*
X134873D01*
Y98254D01*
D02*
G37*
G36*
X124373Y98573D02*
X123479D01*
X123497Y98431D01*
X123601Y98181D01*
X123766Y97966D01*
X123981Y97801D01*
X124231Y97697D01*
X124373Y97679D01*
Y98573D01*
D02*
G37*
G36*
X117373D02*
X116479D01*
X116497Y98431D01*
X116601Y98181D01*
X116766Y97966D01*
X116981Y97801D01*
X117231Y97697D01*
X117373Y97679D01*
Y98573D01*
D02*
G37*
G36*
X118521D02*
X117627D01*
Y97679D01*
X117769Y97697D01*
X118019Y97801D01*
X118234Y97966D01*
X118399Y98181D01*
X118503Y98431D01*
X118521Y98573D01*
D02*
G37*
G36*
X125521D02*
X124627D01*
Y97679D01*
X124769Y97697D01*
X125019Y97801D01*
X125234Y97966D01*
X125399Y98181D01*
X125503Y98431D01*
X125521Y98573D01*
D02*
G37*
G36*
X118373Y96870D02*
X118271Y96856D01*
X118057Y96768D01*
X117873Y96627D01*
X117732Y96443D01*
X117644Y96229D01*
X117630Y96127D01*
X118373D01*
Y96870D01*
D02*
G37*
G36*
X123373Y96870D02*
X123271Y96856D01*
X123057Y96768D01*
X122873Y96627D01*
X122732Y96443D01*
X122644Y96229D01*
X122630Y96127D01*
X123373D01*
Y96870D01*
D02*
G37*
G36*
X123627Y96870D02*
Y96127D01*
X124370D01*
X124356Y96229D01*
X124268Y96443D01*
X124127Y96627D01*
X123943Y96768D01*
X123729Y96856D01*
X123627Y96870D01*
D02*
G37*
G36*
X118627Y96870D02*
Y96127D01*
X119370D01*
X119356Y96229D01*
X119268Y96443D01*
X119127Y96627D01*
X118943Y96768D01*
X118729Y96856D01*
X118627Y96870D01*
D02*
G37*
G36*
X119827Y95196D02*
Y94327D01*
X120696D01*
X120678Y94462D01*
X120577Y94706D01*
X120416Y94916D01*
X120206Y95077D01*
X119962Y95178D01*
X119827Y95196D01*
D02*
G37*
G36*
X108700Y93945D02*
X108334Y93896D01*
X107993Y93755D01*
X107700Y93530D01*
X107475Y93237D01*
X107334Y92896D01*
X107285Y92530D01*
X107334Y92164D01*
X107475Y91823D01*
X107700Y91530D01*
X107993Y91305D01*
X108156Y91237D01*
X108131Y91110D01*
X106177D01*
X105295Y91992D01*
X105366Y92164D01*
X105414Y92530D01*
X105366Y92896D01*
X105225Y93237D01*
X105000Y93530D01*
X104707Y93755D01*
X104366Y93896D01*
X104000Y93945D01*
X103634Y93896D01*
X103293Y93755D01*
X103000Y93530D01*
X102775Y93237D01*
X102634Y92896D01*
X102586Y92530D01*
X102634Y92164D01*
X102775Y91823D01*
X103000Y91530D01*
X103293Y91305D01*
X103489Y91224D01*
X105156Y89556D01*
X105345Y89412D01*
X105564Y89321D01*
X105800Y89290D01*
X113223D01*
X113900Y88612D01*
X113885Y88500D01*
X113934Y88134D01*
X114075Y87793D01*
X114300Y87500D01*
X114593Y87275D01*
X114934Y87134D01*
X115300Y87086D01*
X115666Y87134D01*
X116007Y87275D01*
X116300Y87500D01*
X116525Y87793D01*
X116666Y88134D01*
X116715Y88500D01*
X116666Y88866D01*
X116525Y89207D01*
X116300Y89500D01*
X116007Y89725D01*
X115666Y89866D01*
X115300Y89914D01*
X115188Y89900D01*
X114244Y90844D01*
X114055Y90988D01*
X113836Y91079D01*
X113600Y91110D01*
X109269D01*
X109244Y91237D01*
X109407Y91305D01*
X109700Y91530D01*
X109925Y91823D01*
X110066Y92164D01*
X110115Y92530D01*
X110066Y92896D01*
X109925Y93237D01*
X109700Y93530D01*
X109407Y93755D01*
X109066Y93896D01*
X108700Y93945D01*
D02*
G37*
G36*
X67373Y91373D02*
X66252D01*
X66278Y91173D01*
X66405Y90868D01*
X66606Y90606D01*
X66868Y90405D01*
X67173Y90278D01*
X67373Y90252D01*
Y91373D01*
D02*
G37*
G36*
Y92748D02*
X67173Y92722D01*
X66868Y92595D01*
X66606Y92394D01*
X66405Y92132D01*
X66278Y91827D01*
X66252Y91627D01*
X67373D01*
Y92748D01*
D02*
G37*
G36*
X99300Y93945D02*
X98934Y93896D01*
X98593Y93755D01*
X98511Y93692D01*
X84330D01*
X84029Y93653D01*
X83749Y93537D01*
X83508Y93352D01*
X82478Y92322D01*
X82293Y92081D01*
X82177Y91801D01*
X82138Y91500D01*
X82177Y91199D01*
X82293Y90919D01*
X82478Y90678D01*
X82719Y90493D01*
X82999Y90377D01*
X83300Y90338D01*
X83601Y90377D01*
X83881Y90493D01*
X84122Y90678D01*
X84811Y91368D01*
X98511D01*
X98593Y91305D01*
X98934Y91164D01*
X99300Y91116D01*
X99666Y91164D01*
X100007Y91305D01*
X100300Y91530D01*
X100525Y91823D01*
X100666Y92164D01*
X100715Y92530D01*
X100666Y92896D01*
X100525Y93237D01*
X100300Y93530D01*
X100007Y93755D01*
X99666Y93896D01*
X99300Y93945D01*
D02*
G37*
G36*
X4873Y88496D02*
X4738Y88478D01*
X4494Y88377D01*
X4284Y88216D01*
X4123Y88006D01*
X4022Y87762D01*
X4004Y87627D01*
X4873D01*
Y88496D01*
D02*
G37*
G36*
X135127D02*
Y87627D01*
X135996D01*
X135978Y87762D01*
X135877Y88006D01*
X135716Y88216D01*
X135506Y88377D01*
X135262Y88478D01*
X135127Y88496D01*
D02*
G37*
G36*
X68748Y91373D02*
X67627D01*
Y90252D01*
X67827Y90278D01*
X68132Y90405D01*
X68394Y90606D01*
X68595Y90868D01*
X68722Y91173D01*
X68748Y91373D01*
D02*
G37*
G36*
X5127Y88496D02*
Y87627D01*
X5996D01*
X5978Y87762D01*
X5877Y88006D01*
X5716Y88216D01*
X5506Y88377D01*
X5262Y88478D01*
X5127Y88496D01*
D02*
G37*
G36*
X119573Y94073D02*
X118704D01*
X118722Y93938D01*
X118823Y93694D01*
X118984Y93484D01*
X119194Y93323D01*
X119438Y93222D01*
X119573Y93204D01*
Y94073D01*
D02*
G37*
G36*
X138254Y94873D02*
X135127D01*
Y91746D01*
X135511Y91776D01*
X136009Y91896D01*
X136482Y92092D01*
X136919Y92359D01*
X137308Y92692D01*
X137641Y93081D01*
X137908Y93518D01*
X138104Y93991D01*
X138224Y94489D01*
X138254Y94873D01*
D02*
G37*
G36*
X119573Y95196D02*
X119438Y95178D01*
X119194Y95077D01*
X118984Y94916D01*
X118823Y94706D01*
X118722Y94462D01*
X118704Y94327D01*
X119573D01*
Y95196D01*
D02*
G37*
G36*
X120696Y94073D02*
X119827D01*
Y93204D01*
X119962Y93222D01*
X120206Y93323D01*
X120416Y93484D01*
X120577Y93694D01*
X120678Y93938D01*
X120696Y94073D01*
D02*
G37*
G36*
X4873Y94873D02*
X1746D01*
X1776Y94489D01*
X1896Y93991D01*
X2092Y93518D01*
X2359Y93081D01*
X2692Y92692D01*
X3081Y92359D01*
X3518Y92092D01*
X3991Y91896D01*
X4489Y91776D01*
X4873Y91746D01*
Y94873D01*
D02*
G37*
G36*
X67627Y92748D02*
Y91627D01*
X68748D01*
X68722Y91827D01*
X68595Y92132D01*
X68394Y92394D01*
X68132Y92595D01*
X67827Y92722D01*
X67627Y92748D01*
D02*
G37*
G36*
X134873Y94873D02*
X131746D01*
X131776Y94489D01*
X131896Y93991D01*
X132092Y93518D01*
X132359Y93081D01*
X132692Y92692D01*
X133081Y92359D01*
X133518Y92092D01*
X133991Y91896D01*
X134489Y91776D01*
X134873Y91746D01*
Y94873D01*
D02*
G37*
G36*
X8254D02*
X5127D01*
Y91746D01*
X5511Y91776D01*
X6009Y91896D01*
X6482Y92092D01*
X6919Y92359D01*
X7308Y92692D01*
X7641Y93081D01*
X7908Y93518D01*
X8104Y93991D01*
X8224Y94489D01*
X8254Y94873D01*
D02*
G37*
G36*
X124773Y53796D02*
X124638Y53778D01*
X124394Y53677D01*
X124184Y53516D01*
X124023Y53306D01*
X123922Y53062D01*
X123904Y52927D01*
X124773D01*
Y53796D01*
D02*
G37*
G36*
X115127Y53696D02*
Y52827D01*
X115996D01*
X115978Y52962D01*
X115877Y53206D01*
X115716Y53416D01*
X115506Y53577D01*
X115262Y53678D01*
X115127Y53696D01*
D02*
G37*
G36*
X21000Y63160D02*
X20676Y63128D01*
X20365Y63034D01*
X20078Y62881D01*
X19826Y62674D01*
X19619Y62422D01*
X19466Y62135D01*
X19372Y61824D01*
X19340Y61500D01*
X19372Y61176D01*
X19466Y60865D01*
X19619Y60578D01*
X19826Y60326D01*
X20078Y60119D01*
X20365Y59966D01*
X20676Y59872D01*
X21000Y59840D01*
X21324Y59872D01*
X21635Y59966D01*
X21922Y60119D01*
X22174Y60326D01*
X22381Y60578D01*
X22534Y60865D01*
X22628Y61176D01*
X22660Y61500D01*
X22628Y61824D01*
X22534Y62135D01*
X22381Y62422D01*
X22174Y62674D01*
X21922Y62881D01*
X21635Y63034D01*
X21324Y63128D01*
X21000Y63160D01*
D02*
G37*
G36*
X125027Y53796D02*
Y52927D01*
X125896D01*
X125878Y53062D01*
X125777Y53306D01*
X125616Y53516D01*
X125406Y53677D01*
X125162Y53778D01*
X125027Y53796D01*
D02*
G37*
G36*
X125896Y52673D02*
X125027D01*
Y51804D01*
X125162Y51822D01*
X125406Y51923D01*
X125616Y52084D01*
X125777Y52294D01*
X125878Y52538D01*
X125896Y52673D01*
D02*
G37*
G36*
X124773D02*
X123904D01*
X123922Y52538D01*
X124023Y52294D01*
X124184Y52084D01*
X124394Y51923D01*
X124638Y51822D01*
X124773Y51804D01*
Y52673D01*
D02*
G37*
G36*
X114873Y53696D02*
X114738Y53678D01*
X114494Y53577D01*
X114284Y53416D01*
X114123Y53206D01*
X114022Y52962D01*
X114004Y52827D01*
X114873D01*
Y53696D01*
D02*
G37*
G36*
X127400Y53810D02*
X127164Y53779D01*
X126945Y53688D01*
X126756Y53544D01*
X126612Y53355D01*
X126521Y53136D01*
X126490Y52900D01*
X126521Y52664D01*
X126612Y52445D01*
X126756Y52256D01*
X126945Y52112D01*
X127164Y52021D01*
X127400Y51990D01*
X127636Y52021D01*
X127855Y52112D01*
X128044Y52256D01*
X128188Y52445D01*
X128279Y52664D01*
X128310Y52900D01*
X128279Y53136D01*
X128188Y53355D01*
X128044Y53544D01*
X127855Y53688D01*
X127636Y53779D01*
X127400Y53810D01*
D02*
G37*
G36*
X13473Y64373D02*
X12604D01*
X12622Y64238D01*
X12723Y63994D01*
X12884Y63784D01*
X13094Y63623D01*
X13338Y63522D01*
X13473Y63504D01*
Y64373D01*
D02*
G37*
G36*
X4696D02*
X3827D01*
Y63504D01*
X3962Y63522D01*
X4206Y63623D01*
X4416Y63784D01*
X4577Y63994D01*
X4678Y64238D01*
X4696Y64373D01*
D02*
G37*
G36*
X3573Y65496D02*
X3438Y65478D01*
X3194Y65377D01*
X2984Y65216D01*
X2823Y65006D01*
X2722Y64762D01*
X2704Y64627D01*
X3573D01*
Y65496D01*
D02*
G37*
G36*
X14596Y64373D02*
X13727D01*
Y63504D01*
X13862Y63522D01*
X14106Y63623D01*
X14316Y63784D01*
X14477Y63994D01*
X14578Y64238D01*
X14596Y64373D01*
D02*
G37*
G36*
X97000Y63160D02*
X96676Y63128D01*
X96365Y63034D01*
X96078Y62881D01*
X95826Y62674D01*
X95619Y62422D01*
X95466Y62135D01*
X95372Y61824D01*
X95340Y61500D01*
X95372Y61176D01*
X95466Y60865D01*
X95619Y60578D01*
X95826Y60326D01*
X96078Y60119D01*
X96365Y59966D01*
X96676Y59872D01*
X97000Y59840D01*
X97324Y59872D01*
X97635Y59966D01*
X97922Y60119D01*
X98174Y60326D01*
X98381Y60578D01*
X98534Y60865D01*
X98628Y61176D01*
X98660Y61500D01*
X98628Y61824D01*
X98534Y62135D01*
X98381Y62422D01*
X98174Y62674D01*
X97922Y62881D01*
X97635Y63034D01*
X97324Y63128D01*
X97000Y63160D01*
D02*
G37*
G36*
X32000D02*
X31676Y63128D01*
X31365Y63034D01*
X31078Y62881D01*
X30826Y62674D01*
X30619Y62422D01*
X30466Y62135D01*
X30372Y61824D01*
X30340Y61500D01*
X30372Y61176D01*
X30466Y60865D01*
X30619Y60578D01*
X30826Y60326D01*
X31078Y60119D01*
X31365Y59966D01*
X31676Y59872D01*
X32000Y59840D01*
X32324Y59872D01*
X32635Y59966D01*
X32922Y60119D01*
X33174Y60326D01*
X33381Y60578D01*
X33534Y60865D01*
X33628Y61176D01*
X33660Y61500D01*
X33628Y61824D01*
X33534Y62135D01*
X33381Y62422D01*
X33174Y62674D01*
X32922Y62881D01*
X32635Y63034D01*
X32324Y63128D01*
X32000Y63160D01*
D02*
G37*
G36*
X3573Y64373D02*
X2704D01*
X2722Y64238D01*
X2823Y63994D01*
X2984Y63784D01*
X3194Y63623D01*
X3438Y63522D01*
X3573Y63504D01*
Y64373D01*
D02*
G37*
G36*
X108000Y63160D02*
X107676Y63128D01*
X107365Y63034D01*
X107078Y62881D01*
X106826Y62674D01*
X106619Y62422D01*
X106466Y62135D01*
X106372Y61824D01*
X106340Y61500D01*
X106372Y61176D01*
X106466Y60865D01*
X106619Y60578D01*
X106826Y60326D01*
X107078Y60119D01*
X107365Y59966D01*
X107676Y59872D01*
X108000Y59840D01*
X108324Y59872D01*
X108635Y59966D01*
X108922Y60119D01*
X109174Y60326D01*
X109381Y60578D01*
X109534Y60865D01*
X109628Y61176D01*
X109660Y61500D01*
X109628Y61824D01*
X109534Y62135D01*
X109381Y62422D01*
X109174Y62674D01*
X108922Y62881D01*
X108635Y63034D01*
X108324Y63128D01*
X108000Y63160D01*
D02*
G37*
G36*
X115996Y52573D02*
X115127D01*
Y51704D01*
X115262Y51722D01*
X115506Y51823D01*
X115716Y51984D01*
X115877Y52194D01*
X115978Y52438D01*
X115996Y52573D01*
D02*
G37*
G36*
X109000Y52410D02*
X105000D01*
X104843Y52379D01*
X104710Y52290D01*
X103618Y51198D01*
X103500Y51214D01*
X103315Y51189D01*
X103143Y51118D01*
X102995Y51005D01*
X102882Y50857D01*
X102811Y50685D01*
X102786Y50500D01*
X102811Y50315D01*
X102882Y50143D01*
X102995Y49995D01*
X103143Y49882D01*
X103315Y49811D01*
X103500Y49786D01*
X103685Y49811D01*
X103857Y49882D01*
X104005Y49995D01*
X104118Y50143D01*
X104189Y50315D01*
X104214Y50500D01*
X104198Y50618D01*
X105170Y51590D01*
X108830D01*
X109139Y51280D01*
X109121Y51236D01*
X109090Y51000D01*
X109121Y50764D01*
X109212Y50545D01*
X109356Y50356D01*
X109545Y50212D01*
X109764Y50121D01*
X110000Y50090D01*
X110236Y50121D01*
X110455Y50212D01*
X110644Y50356D01*
X110788Y50545D01*
X110879Y50764D01*
X110910Y51000D01*
X110879Y51236D01*
X110788Y51455D01*
X110644Y51644D01*
X110455Y51788D01*
X110236Y51879D01*
X110000Y51910D01*
X109764Y51879D01*
X109720Y51861D01*
X109290Y52290D01*
X109157Y52379D01*
X109000Y52410D01*
D02*
G37*
G36*
X107500Y51214D02*
X107315Y51189D01*
X107143Y51118D01*
X106995Y51005D01*
X106882Y50857D01*
X106811Y50685D01*
X106786Y50500D01*
X106811Y50315D01*
X106882Y50143D01*
X106995Y49995D01*
X107143Y49882D01*
X107315Y49811D01*
X107500Y49786D01*
X107685Y49811D01*
X107857Y49882D01*
X108005Y49995D01*
X108118Y50143D01*
X108189Y50315D01*
X108214Y50500D01*
X108189Y50685D01*
X108118Y50857D01*
X108005Y51005D01*
X107857Y51118D01*
X107685Y51189D01*
X107500Y51214D01*
D02*
G37*
G36*
X23373Y51299D02*
X23289Y51288D01*
X23092Y51207D01*
X22923Y51077D01*
X22793Y50908D01*
X22712Y50711D01*
X22701Y50627D01*
X23373D01*
Y51299D01*
D02*
G37*
G36*
X10750Y50915D02*
X9250D01*
X9133Y50867D01*
X9085Y50750D01*
Y50410D01*
X3915D01*
Y50750D01*
X3867Y50867D01*
X3750Y50915D01*
X2250D01*
X2133Y50867D01*
X2085Y50750D01*
Y49250D01*
X2133Y49133D01*
X2250Y49085D01*
X3750D01*
X3867Y49133D01*
X3915Y49250D01*
Y49590D01*
X9085D01*
Y49250D01*
X9133Y49133D01*
X9250Y49085D01*
X10750D01*
X10867Y49133D01*
X10915Y49250D01*
Y50750D01*
X10867Y50867D01*
X10750Y50915D01*
D02*
G37*
G36*
X102299Y50373D02*
X101627D01*
Y49701D01*
X101711Y49712D01*
X101908Y49793D01*
X102077Y49923D01*
X102207Y50092D01*
X102288Y50289D01*
X102299Y50373D01*
D02*
G37*
G36*
X101373D02*
X100701D01*
X100712Y50289D01*
X100793Y50092D01*
X100923Y49923D01*
X101092Y49793D01*
X101289Y49712D01*
X101373Y49701D01*
Y50373D01*
D02*
G37*
G36*
X27500Y51214D02*
X27315Y51189D01*
X27143Y51118D01*
X26995Y51005D01*
X26882Y50857D01*
X26811Y50685D01*
X26787Y50500D01*
X26811Y50315D01*
X26882Y50143D01*
X26995Y49995D01*
X27143Y49882D01*
X27315Y49811D01*
X27500Y49786D01*
X27685Y49811D01*
X27857Y49882D01*
X28005Y49995D01*
X28118Y50143D01*
X28189Y50315D01*
X28213Y50500D01*
X28189Y50685D01*
X28118Y50857D01*
X28005Y51005D01*
X27857Y51118D01*
X27685Y51189D01*
X27500Y51214D01*
D02*
G37*
G36*
X21500D02*
X21315Y51189D01*
X21143Y51118D01*
X20995Y51005D01*
X20882Y50857D01*
X20811Y50685D01*
X20787Y50500D01*
X20811Y50315D01*
X20882Y50143D01*
X20995Y49995D01*
X21143Y49882D01*
X21315Y49811D01*
X21500Y49786D01*
X21685Y49811D01*
X21857Y49882D01*
X22005Y49995D01*
X22118Y50143D01*
X22189Y50315D01*
X22213Y50500D01*
X22189Y50685D01*
X22118Y50857D01*
X22005Y51005D01*
X21857Y51118D01*
X21685Y51189D01*
X21500Y51214D01*
D02*
G37*
G36*
X101373Y51299D02*
X101289Y51288D01*
X101092Y51207D01*
X100923Y51077D01*
X100793Y50908D01*
X100712Y50711D01*
X100701Y50627D01*
X101373D01*
Y51299D01*
D02*
G37*
G36*
X99627D02*
Y50627D01*
X100299D01*
X100288Y50711D01*
X100207Y50908D01*
X100077Y51077D01*
X99908Y51207D01*
X99711Y51288D01*
X99627Y51299D01*
D02*
G37*
G36*
X114873Y52573D02*
X114004D01*
X114022Y52438D01*
X114123Y52194D01*
X114284Y51984D01*
X114494Y51823D01*
X114738Y51722D01*
X114873Y51704D01*
Y52573D01*
D02*
G37*
G36*
X101627Y51299D02*
Y50627D01*
X102299D01*
X102288Y50711D01*
X102207Y50908D01*
X102077Y51077D01*
X101908Y51207D01*
X101711Y51288D01*
X101627Y51299D01*
D02*
G37*
G36*
X25373D02*
X25289Y51288D01*
X25092Y51207D01*
X24923Y51077D01*
X24793Y50908D01*
X24712Y50711D01*
X24701Y50627D01*
X25373D01*
Y51299D01*
D02*
G37*
G36*
X23627D02*
Y50627D01*
X24299D01*
X24288Y50711D01*
X24207Y50908D01*
X24077Y51077D01*
X23908Y51207D01*
X23711Y51288D01*
X23627Y51299D01*
D02*
G37*
G36*
X99373D02*
X99289Y51288D01*
X99092Y51207D01*
X98923Y51077D01*
X98793Y50908D01*
X98712Y50711D01*
X98701Y50627D01*
X99373D01*
Y51299D01*
D02*
G37*
G36*
X25627D02*
Y50627D01*
X26299D01*
X26288Y50711D01*
X26207Y50908D01*
X26077Y51077D01*
X25908Y51207D01*
X25711Y51288D01*
X25627Y51299D01*
D02*
G37*
G36*
X135973Y76973D02*
X135104D01*
X135122Y76838D01*
X135223Y76594D01*
X135384Y76384D01*
X135594Y76223D01*
X135838Y76122D01*
X135973Y76104D01*
Y76973D01*
D02*
G37*
G36*
X99027Y76240D02*
Y75827D01*
X99440D01*
X99422Y75916D01*
X99300Y76100D01*
X99116Y76222D01*
X99027Y76240D01*
D02*
G37*
G36*
X108673Y77073D02*
X107804D01*
X107822Y76938D01*
X107923Y76694D01*
X108084Y76484D01*
X108294Y76323D01*
X108538Y76222D01*
X108673Y76204D01*
Y77073D01*
D02*
G37*
G36*
X137096Y76973D02*
X136227D01*
Y76104D01*
X136362Y76122D01*
X136606Y76223D01*
X136816Y76384D01*
X136977Y76594D01*
X137078Y76838D01*
X137096Y76973D01*
D02*
G37*
G36*
X97473Y76073D02*
X97060D01*
X97078Y75984D01*
X97200Y75800D01*
X97384Y75678D01*
X97473Y75660D01*
Y76073D01*
D02*
G37*
G36*
X99440Y75573D02*
X99027D01*
Y75160D01*
X99116Y75178D01*
X99300Y75300D01*
X99422Y75484D01*
X99440Y75573D01*
D02*
G37*
G36*
X98773Y76240D02*
X98684Y76222D01*
X98500Y76100D01*
X98378Y75916D01*
X98360Y75827D01*
X98773D01*
Y76240D01*
D02*
G37*
G36*
X98140Y76073D02*
X97727D01*
Y75660D01*
X97816Y75678D01*
X98000Y75800D01*
X98122Y75984D01*
X98140Y76073D01*
D02*
G37*
G36*
X122373Y78173D02*
X121504D01*
X121522Y78038D01*
X121623Y77794D01*
X121784Y77584D01*
X121994Y77423D01*
X122238Y77322D01*
X122373Y77304D01*
Y78173D01*
D02*
G37*
G36*
X136227Y78096D02*
Y77227D01*
X137096D01*
X137078Y77362D01*
X136977Y77606D01*
X136816Y77816D01*
X136606Y77977D01*
X136362Y78078D01*
X136227Y78096D01*
D02*
G37*
G36*
X108673Y78196D02*
X108538Y78178D01*
X108294Y78077D01*
X108084Y77916D01*
X107923Y77706D01*
X107822Y77462D01*
X107804Y77327D01*
X108673D01*
Y78196D01*
D02*
G37*
G36*
X123496Y78173D02*
X122627D01*
Y77304D01*
X122762Y77322D01*
X123006Y77423D01*
X123216Y77584D01*
X123377Y77794D01*
X123478Y78038D01*
X123496Y78173D01*
D02*
G37*
G36*
X97473Y76740D02*
X97384Y76722D01*
X97200Y76600D01*
X97078Y76416D01*
X97060Y76327D01*
X97473D01*
Y76740D01*
D02*
G37*
G36*
X109796Y77073D02*
X108927D01*
Y76204D01*
X109062Y76222D01*
X109306Y76323D01*
X109516Y76484D01*
X109677Y76694D01*
X109778Y76938D01*
X109796Y77073D01*
D02*
G37*
G36*
X135973Y78096D02*
X135838Y78078D01*
X135594Y77977D01*
X135384Y77816D01*
X135223Y77606D01*
X135122Y77362D01*
X135104Y77227D01*
X135973D01*
Y78096D01*
D02*
G37*
G36*
X97727Y76740D02*
Y76327D01*
X98140D01*
X98122Y76416D01*
X98000Y76600D01*
X97816Y76722D01*
X97727Y76740D01*
D02*
G37*
G36*
X98773Y75573D02*
X98360D01*
X98378Y75484D01*
X98500Y75300D01*
X98684Y75178D01*
X98773Y75160D01*
Y75573D01*
D02*
G37*
G36*
X81822Y66789D02*
X81800Y66783D01*
X81778Y66789D01*
X81469Y66748D01*
X81450Y66737D01*
X81428D01*
X81139Y66618D01*
X81123Y66602D01*
X81102Y66596D01*
X80854Y66406D01*
X80843Y66387D01*
X80824Y66376D01*
X80634Y66128D01*
X80628Y66106D01*
X80613Y66091D01*
X80493Y65802D01*
Y65780D01*
X80482Y65761D01*
X80441Y65452D01*
X80444Y65441D01*
X80440Y65430D01*
X80444Y65419D01*
X80441Y65408D01*
X80482Y65099D01*
X80493Y65080D01*
Y65058D01*
X80613Y64769D01*
X80628Y64754D01*
X80634Y64732D01*
X80824Y64484D01*
X80843Y64473D01*
X80854Y64454D01*
X81102Y64264D01*
X81123Y64258D01*
X81139Y64243D01*
X81428Y64123D01*
X81450D01*
X81469Y64112D01*
X81778Y64071D01*
X81800Y64077D01*
X81822Y64071D01*
X82131Y64112D01*
X82150Y64123D01*
X82172D01*
X82461Y64243D01*
X82477Y64258D01*
X82498Y64264D01*
X82746Y64454D01*
X82757Y64473D01*
X82776Y64484D01*
X82966Y64732D01*
X82972Y64754D01*
X82988Y64769D01*
X83107Y65058D01*
Y65080D01*
X83118Y65099D01*
X83159Y65408D01*
X83156Y65419D01*
X83160Y65430D01*
X83156Y65441D01*
X83159Y65452D01*
X83118Y65761D01*
X83107Y65780D01*
Y65802D01*
X82988Y66091D01*
X82972Y66106D01*
X82966Y66128D01*
X82776Y66376D01*
X82757Y66387D01*
X82746Y66406D01*
X82498Y66596D01*
X82477Y66602D01*
X82461Y66618D01*
X82172Y66737D01*
X82150D01*
X82131Y66748D01*
X81822Y66789D01*
D02*
G37*
G36*
X51822D02*
X51800Y66783D01*
X51778Y66789D01*
X51469Y66748D01*
X51450Y66737D01*
X51428D01*
X51139Y66618D01*
X51124Y66602D01*
X51102Y66596D01*
X50854Y66406D01*
X50843Y66387D01*
X50824Y66376D01*
X50634Y66128D01*
X50628Y66106D01*
X50612Y66091D01*
X50493Y65802D01*
Y65780D01*
X50482Y65761D01*
X50441Y65452D01*
X50444Y65441D01*
X50440Y65430D01*
X50444Y65419D01*
X50441Y65408D01*
X50482Y65099D01*
X50493Y65080D01*
Y65058D01*
X50612Y64769D01*
X50628Y64754D01*
X50634Y64732D01*
X50824Y64484D01*
X50843Y64473D01*
X50854Y64454D01*
X51102Y64264D01*
X51124Y64258D01*
X51139Y64243D01*
X51428Y64123D01*
X51450D01*
X51469Y64112D01*
X51778Y64071D01*
X51800Y64077D01*
X51822Y64071D01*
X52131Y64112D01*
X52150Y64123D01*
X52172D01*
X52461Y64243D01*
X52477Y64258D01*
X52498Y64264D01*
X52746Y64454D01*
X52757Y64473D01*
X52776Y64484D01*
X52966Y64732D01*
X52972Y64754D01*
X52987Y64769D01*
X53107Y65058D01*
Y65080D01*
X53118Y65099D01*
X53159Y65408D01*
X53156Y65419D01*
X53160Y65430D01*
X53156Y65441D01*
X53159Y65452D01*
X53118Y65761D01*
X53107Y65780D01*
Y65802D01*
X52987Y66091D01*
X52972Y66106D01*
X52966Y66128D01*
X52776Y66376D01*
X52757Y66387D01*
X52746Y66406D01*
X52498Y66596D01*
X52477Y66602D01*
X52461Y66618D01*
X52172Y66737D01*
X52150D01*
X52131Y66748D01*
X51822Y66789D01*
D02*
G37*
G36*
X130273Y71073D02*
X129404D01*
X129422Y70938D01*
X129523Y70694D01*
X129684Y70484D01*
X129894Y70323D01*
X130138Y70222D01*
X130273Y70204D01*
Y71073D01*
D02*
G37*
G36*
X21300Y71962D02*
X5100D01*
X4799Y71923D01*
X4519Y71807D01*
X4278Y71622D01*
X2678Y70022D01*
X2493Y69781D01*
X2377Y69501D01*
X2338Y69200D01*
X2377Y68899D01*
X2493Y68619D01*
X2678Y68378D01*
X2919Y68193D01*
X3199Y68077D01*
X3500Y68038D01*
X3801Y68077D01*
X4081Y68193D01*
X4322Y68378D01*
X5581Y69638D01*
X21300D01*
X21601Y69677D01*
X21881Y69793D01*
X22122Y69978D01*
X22307Y70219D01*
X22423Y70499D01*
X22462Y70800D01*
X22423Y71101D01*
X22307Y71381D01*
X22122Y71622D01*
X21881Y71807D01*
X21601Y71923D01*
X21300Y71962D01*
D02*
G37*
G36*
X13473Y65496D02*
X13338Y65478D01*
X13094Y65377D01*
X12884Y65216D01*
X12723Y65006D01*
X12622Y64762D01*
X12604Y64627D01*
X13473D01*
Y65496D01*
D02*
G37*
G36*
X3827D02*
Y64627D01*
X4696D01*
X4678Y64762D01*
X4577Y65006D01*
X4416Y65216D01*
X4206Y65377D01*
X3962Y65478D01*
X3827Y65496D01*
D02*
G37*
G36*
X120800Y68010D02*
X120564Y67979D01*
X120345Y67888D01*
X120156Y67744D01*
X120012Y67555D01*
X119993Y67510D01*
X114300D01*
X114143Y67479D01*
X114010Y67390D01*
X110210Y63590D01*
X110121Y63457D01*
X110090Y63300D01*
Y56670D01*
X108330Y54910D01*
X101500D01*
X101343Y54879D01*
X101210Y54790D01*
X97618Y51198D01*
X97500Y51214D01*
X97315Y51189D01*
X97143Y51118D01*
X96995Y51005D01*
X96882Y50857D01*
X96811Y50685D01*
X96786Y50500D01*
X96811Y50315D01*
X96882Y50143D01*
X96995Y49995D01*
X97143Y49882D01*
X97315Y49811D01*
X97500Y49786D01*
X97685Y49811D01*
X97857Y49882D01*
X98005Y49995D01*
X98118Y50143D01*
X98189Y50315D01*
X98214Y50500D01*
X98198Y50618D01*
X101670Y54090D01*
X108500D01*
X108657Y54121D01*
X108790Y54210D01*
X110790Y56210D01*
X110879Y56343D01*
X110910Y56500D01*
Y63130D01*
X114470Y66690D01*
X119993D01*
X120012Y66645D01*
X120156Y66456D01*
X120345Y66312D01*
X120564Y66221D01*
X120800Y66190D01*
X121036Y66221D01*
X121255Y66312D01*
X121444Y66456D01*
X121588Y66645D01*
X121679Y66864D01*
X121710Y67100D01*
X121679Y67336D01*
X121588Y67555D01*
X121444Y67744D01*
X121255Y67888D01*
X121036Y67979D01*
X120800Y68010D01*
D02*
G37*
G36*
X13727Y65496D02*
Y64627D01*
X14596D01*
X14578Y64762D01*
X14477Y65006D01*
X14316Y65216D01*
X14106Y65377D01*
X13862Y65478D01*
X13727Y65496D01*
D02*
G37*
G36*
X129496Y74073D02*
X128627D01*
Y73204D01*
X128762Y73222D01*
X129006Y73323D01*
X129216Y73484D01*
X129377Y73694D01*
X129478Y73938D01*
X129496Y74073D01*
D02*
G37*
G36*
X128373D02*
X127504D01*
X127522Y73938D01*
X127623Y73694D01*
X127784Y73484D01*
X127994Y73323D01*
X128238Y73222D01*
X128373Y73204D01*
Y74073D01*
D02*
G37*
G36*
X128627Y75196D02*
Y74327D01*
X129496D01*
X129478Y74462D01*
X129377Y74706D01*
X129216Y74916D01*
X129006Y75077D01*
X128762Y75178D01*
X128627Y75196D01*
D02*
G37*
G36*
X128373D02*
X128238Y75178D01*
X127994Y75077D01*
X127784Y74916D01*
X127623Y74706D01*
X127522Y74462D01*
X127504Y74327D01*
X128373D01*
Y75196D01*
D02*
G37*
G36*
X130273Y72196D02*
X130138Y72178D01*
X129894Y72077D01*
X129684Y71916D01*
X129523Y71706D01*
X129422Y71462D01*
X129404Y71327D01*
X130273D01*
Y72196D01*
D02*
G37*
G36*
X131396Y71073D02*
X130527D01*
Y70204D01*
X130662Y70222D01*
X130906Y70323D01*
X131116Y70484D01*
X131277Y70694D01*
X131378Y70938D01*
X131396Y71073D01*
D02*
G37*
G36*
X112200Y74710D02*
X111964Y74679D01*
X111745Y74588D01*
X111556Y74444D01*
X111412Y74255D01*
X111321Y74036D01*
X111290Y73800D01*
X111321Y73564D01*
X111412Y73345D01*
X111556Y73156D01*
X111745Y73012D01*
X111964Y72921D01*
X112200Y72890D01*
X112436Y72921D01*
X112655Y73012D01*
X112844Y73156D01*
X112988Y73345D01*
X113079Y73564D01*
X113110Y73800D01*
X113079Y74036D01*
X112988Y74255D01*
X112844Y74444D01*
X112655Y74588D01*
X112436Y74679D01*
X112200Y74710D01*
D02*
G37*
G36*
X130527Y72196D02*
Y71327D01*
X131396D01*
X131378Y71462D01*
X131277Y71706D01*
X131116Y71916D01*
X130906Y72077D01*
X130662Y72178D01*
X130527Y72196D01*
D02*
G37*
%LPD*%
D23*
X29500Y44500D02*
X33000Y41000D01*
X35500Y38500D02*
Y46500D01*
X33170Y36170D02*
X35500Y38500D01*
X33000Y36170D02*
X33170D01*
X38602Y29000D02*
X45080Y22522D01*
X30500Y31000D02*
Y38800D01*
X28300Y41000D02*
X30500Y38800D01*
X45080Y12362D02*
Y18320D01*
X102500Y38670D02*
Y47000D01*
Y38670D02*
X105000Y36170D01*
X105080Y12362D02*
X108500Y15782D01*
X107500Y27500D02*
Y38800D01*
X109700Y41000D01*
Y36170D02*
X112030Y38500D01*
X116800D01*
X130000Y50000D02*
X136500D01*
X130000Y37300D02*
X136500D01*
X130000Y32220D02*
X136500D01*
X130000Y47460D02*
X136500D01*
X130000Y39840D02*
X136500D01*
X130000Y34760D02*
X136500D01*
X130000Y44920D02*
X136500D01*
X130000Y42380D02*
X136500D01*
X31500Y50500D02*
X35500Y46500D01*
X29500Y44500D02*
Y50500D01*
X28000Y31000D02*
Y31300D01*
X3000Y32220D02*
X10000D01*
X3000Y34760D02*
X10000D01*
X3500Y37300D02*
X10000D01*
X3500Y39840D02*
X10000D01*
X3000Y42380D02*
X10000D01*
X3000Y44920D02*
X10000D01*
X3000Y47460D02*
X10000D01*
X3500Y50000D02*
X10000D01*
X114300Y67100D02*
X120800D01*
X110500Y63300D02*
X114300Y67100D01*
X110500Y56500D02*
Y63300D01*
X108500Y54500D02*
X110500Y56500D01*
X101500Y54500D02*
X108500D01*
X97500Y50500D02*
X101500Y54500D01*
X109000Y52000D02*
X110000Y51000D01*
X105000Y52000D02*
X109000D01*
X103500Y50500D02*
X105000Y52000D01*
X108500Y15782D02*
Y26500D01*
X107500Y27500D02*
X108500Y26500D01*
X119500Y34000D02*
X125080Y28420D01*
X105500Y50000D02*
Y50500D01*
X103000Y47500D02*
X105500Y50000D01*
X32500Y29000D02*
X38602D01*
X30500Y31000D02*
X32500Y29000D01*
X28000Y31000D02*
X32500Y26500D01*
X19000Y23000D02*
X25080Y16920D01*
X19000Y23000D02*
Y31000D01*
X23000Y24602D02*
Y31000D01*
X32500Y26500D02*
X36900D01*
X45080Y18320D01*
X125080Y22522D02*
Y28420D01*
X23000Y24602D02*
X25080Y22522D01*
Y12362D02*
Y16920D01*
X103000Y47500D02*
Y47500D01*
X102500Y47000D02*
X103000Y47500D01*
D24*
X123100Y63400D02*
X130000Y56500D01*
Y50000D02*
Y56500D01*
X113700Y63400D02*
X123100D01*
X13500Y50000D02*
Y56000D01*
X10960Y47460D02*
X13500Y50000D01*
X10000Y47460D02*
X10960D01*
D25*
X104000Y87000D02*
Y87700D01*
X107000Y84000D02*
X115500D01*
X104000Y87000D02*
X107000Y84000D01*
X84330Y92530D02*
X99300D01*
X83300Y91500D02*
X84330Y92530D01*
X3500Y69200D02*
X5100Y70800D01*
X21300D01*
X115500Y84000D02*
X120000Y88500D01*
D26*
Y87800D02*
Y88500D01*
D29*
X100400Y77300D02*
X100500Y77400D01*
X96900Y77300D02*
X100400D01*
X100500Y77400D02*
X100600Y77300D01*
X100800Y77500D01*
Y77700D01*
X97200Y79700D02*
X100900D01*
X96800Y79300D02*
X97200Y79700D01*
D31*
X100300Y41000D02*
D03*
X105000D02*
D03*
X109700D02*
D03*
X100300Y36170D02*
D03*
X105000D02*
D03*
X109700D02*
D03*
X37700D02*
D03*
X33000D02*
D03*
X28300D02*
D03*
X37700Y41000D02*
D03*
X33000D02*
D03*
X28300D02*
D03*
X108700Y87700D02*
D03*
X104000D02*
D03*
X99300D02*
D03*
X108700Y92530D02*
D03*
X104000D02*
D03*
X99300D02*
D03*
X124700Y88500D02*
D03*
X120000D02*
D03*
X115300D02*
D03*
D32*
X107500Y50500D02*
D03*
X105500D02*
D03*
X103500D02*
D03*
X101500D02*
D03*
X99500D02*
D03*
X97500D02*
D03*
X31500D02*
D03*
X29500D02*
D03*
X27500D02*
D03*
X25500D02*
D03*
X23500D02*
D03*
X21500D02*
D03*
D33*
X108000Y61500D02*
D03*
X97000D02*
D03*
X32000D02*
D03*
X21000D02*
D03*
D34*
X135000Y5000D02*
D03*
Y95000D02*
D03*
X5000D02*
D03*
Y5000D02*
D03*
D35*
X135000Y87500D02*
D03*
Y12500D02*
D03*
X33000Y31300D02*
D03*
X33000Y46100D02*
D03*
X105000Y46000D02*
D03*
Y31000D02*
D03*
X5000Y87500D02*
D03*
X3500Y79000D02*
D03*
X13500Y56000D02*
D03*
X5000Y12500D02*
D03*
X19000Y31000D02*
D03*
X23000D02*
D03*
X28000Y31300D02*
D03*
X38000D02*
D03*
X38000Y46100D02*
D03*
X100000Y31000D02*
D03*
X100000Y46000D02*
D03*
X110000Y31000D02*
D03*
X119500Y34000D02*
D03*
X119499Y29300D02*
D03*
X110000Y46000D02*
D03*
X112200Y73800D02*
D03*
X119800Y81900D02*
D03*
X127400Y52900D02*
D03*
X113700Y63400D02*
D03*
X22500Y42500D02*
D03*
X10000Y32220D02*
D03*
Y34760D02*
D03*
Y37300D02*
D03*
Y39840D02*
D03*
Y42380D02*
D03*
Y44920D02*
D03*
Y47460D02*
D03*
X130000Y32220D02*
D03*
Y34760D02*
D03*
Y37300D02*
D03*
Y39840D02*
D03*
Y42380D02*
D03*
Y44920D02*
D03*
Y47460D02*
D03*
X3000Y32220D02*
D03*
Y34760D02*
D03*
Y37300D02*
D03*
Y39840D02*
D03*
Y42380D02*
D03*
Y44920D02*
D03*
Y47460D02*
D03*
X137000Y32220D02*
D03*
Y34760D02*
D03*
Y37300D02*
D03*
Y39840D02*
D03*
Y42380D02*
D03*
Y44920D02*
D03*
Y47460D02*
D03*
X128500Y74200D02*
D03*
X129100Y86000D02*
D03*
X119700Y94200D02*
D03*
X124900Y52800D02*
D03*
X115000Y52700D02*
D03*
X3700Y64500D02*
D03*
X13600D02*
D03*
X120800Y67100D02*
D03*
X3500Y69200D02*
D03*
X136100Y77100D02*
D03*
X110000Y51000D02*
D03*
X130400Y71200D02*
D03*
X116800Y38500D02*
D03*
X108800Y77200D02*
D03*
X21300Y70800D02*
D03*
X122500Y78300D02*
D03*
D36*
X83300Y91500D02*
D03*
X67500D02*
D03*
D37*
X123500Y96000D02*
D03*
X118500D02*
D03*
D38*
X124500Y98700D02*
D03*
X117500D02*
D03*
D39*
X10000Y50000D02*
D03*
X130000Y50000D02*
D03*
X3000Y50000D02*
D03*
X137000Y50000D02*
D03*
D40*
X124953Y5780D02*
D03*
Y13400D02*
D03*
Y23560D02*
D03*
X115047Y5780D02*
D03*
Y13400D02*
D03*
Y23560D02*
D03*
X44953Y5780D02*
D03*
Y13400D02*
D03*
Y23560D02*
D03*
X35047Y5780D02*
D03*
Y13400D02*
D03*
Y23560D02*
D03*
X104953Y5780D02*
D03*
Y13400D02*
D03*
Y23560D02*
D03*
X95047Y5780D02*
D03*
Y13400D02*
D03*
Y23560D02*
D03*
X24953Y5780D02*
D03*
Y13400D02*
D03*
Y23560D02*
D03*
X15047Y5780D02*
D03*
Y13400D02*
D03*
Y23560D02*
D03*
X64953Y5780D02*
D03*
Y13400D02*
D03*
Y23560D02*
D03*
X55047Y5780D02*
D03*
Y13400D02*
D03*
Y23560D02*
D03*
X84953Y5780D02*
D03*
Y13400D02*
D03*
Y23560D02*
D03*
X75047Y5780D02*
D03*
Y13400D02*
D03*
Y23560D02*
D03*
D41*
X119873Y18480D02*
D03*
X39873D02*
D03*
X99873D02*
D03*
X19873D02*
D03*
X59873Y18480D02*
D03*
X79873Y18480D02*
D03*
D42*
X100900Y79700D02*
D03*
X94200Y83400D02*
D03*
X97800Y80900D02*
D03*
X96800Y79300D02*
D03*
D43*
X99000Y78100D02*
D03*
Y79100D02*
D03*
X98900Y82100D02*
D03*
Y75700D02*
D03*
X97600Y76200D02*
D03*
X96900Y77300D02*
D03*
X100800Y77700D02*
D03*
D44*
X104000Y92000D02*
Y92530D01*
X105800Y90200D02*
X113600D01*
X104000Y92000D02*
X105800Y90200D01*
X113600D02*
X115300Y88500D01*
M02*
