M48
;Layer_Color=9474304
;FILE_FORMAT=4:3
METRIC,TZ
;TYPE=PLATED
T1F00S00C0.301
T2F00S00C0.305
T3F00S00C0.800
T4F00S00C0.850
T5F00S00C0.900
T6F00S00C1.150
T7F00S00C1.170
T8F00S00C1.850
T9F00S00C2.083
T10F00S00C2.500
T11F00S00C3.500
;TYPE=NON_PLATED
T12F00S00C2.370
T13F00S00C3.251
%
T01
X97600Y76200
X98900Y75700
X99000Y78100
Y79100
X98900Y82100
X100800Y77700
X96900Y77300
T02
X94200Y83400
X97800Y80900
X96800Y79300
X100900Y79700
T03
X21500Y50500
X23500
X25500
X27500
X29500
X31500
X97500
X99500
X101500
X103500
X105500
X107500
T04
X118500Y96000
X123500
T05
X137000Y32220
Y34760
Y37300
Y39840
Y42380
Y44920
Y47460
X130000
Y44920
Y42380
Y39840
Y37300
Y34760
Y32220
X119500Y34000
X119499Y29300
X110000Y31000
X105000
X100000
X100000Y46000
X105000
X110000
X116800Y38500
X135000Y12500
X38000Y31300
X33000
X28000
X23000Y31000
X19000
X22500Y42500
X33000Y46100
X38000Y46100
X10000Y44920
Y42380
Y39840
Y37300
Y34760
Y32220
X3000
Y34760
Y37300
Y39840
Y42380
Y44920
Y47460
X10000
X5000Y12500
X3000Y50000
X10000
X13500Y56000
X13600Y64500
X3700
X3500Y69200
Y79000
X21300Y70800
X112200Y73800
X108800Y77200
X122500Y78300
X119800Y81900
X129100Y86000
X128500Y74200
X130400Y71200
X136100Y77100
X120800Y67100
X113700Y63400
X115000Y52700
X110000Y51000
X124900Y52800
X127400Y52900
X130000Y50000
X137000
X135000Y87500
X119700Y94200
X5000Y87500
T06
X117500Y98700
X124500
T07
X67500Y91500
X83300
T08
X100300Y36170
X105000
X109700
Y41000
X105000
X100300
X37700
X33000
X28300
Y36170
X33000
X37700
X99300Y87700
X104000
X108700
Y92530
X104000
X99300
X115300Y88500
X120000
X124700
T09
X15047Y5780
X24953
X35047
X44953
X55047Y5780
X64953
X75047Y5780
X84953
X95047Y5780
X104953
X115047
X124953
Y13400
X115047
X104953
Y23560
X115047
X124953
X95047
X84953Y23560
X75047
X64953Y23560
Y13400
X75047Y13400
X84953
X95047Y13400
X55047Y13400
X44953Y13400
X35047
X24953
Y23560
X35047
X44953
X55047Y23560
X15047Y23560
Y13400
T10
X21000Y61500
X32000
X97000
X108000
T11
X5000Y5000
X135000
Y95000
X5000
T12
X51800Y65430
X81800
T13
X99873Y18480
X119873
X79873Y18480
X59873Y18480
X39873Y18480
X19873
M30
