G04 Layer_Color=8388736*
%FSLAX43Y43*%
%MOMM*%
G71*
G01*
G75*
%ADD75R,0.250X0.900*%
%ADD76R,0.900X0.250*%
%ADD77R,2.703X2.203*%
%ADD78R,2.402X0.602*%
%ADD79R,1.703X1.703*%
%ADD80R,4.703X2.203*%
%ADD81R,0.350X0.620*%
%ADD82R,2.103X2.103*%
%ADD83R,1.803X1.603*%
%ADD84R,0.500X1.450*%
%ADD85R,1.103X1.603*%
%ADD86R,1.290X0.490*%
%ADD87R,1.010X0.510*%
%ADD88R,1.003X1.003*%
%ADD89R,0.803X1.253*%
%ADD90R,1.253X0.803*%
G04:AMPARAMS|DCode=91|XSize=0.965mm|YSize=1.346mm|CornerRadius=0mm|HoleSize=0mm|Usage=FLASHONLY|Rotation=270.000|XOffset=0mm|YOffset=0mm|HoleType=Round|Shape=Octagon|*
%AMOCTAGOND91*
4,1,8,0.673,0.241,0.673,-0.241,0.432,-0.483,-0.432,-0.483,-0.673,-0.241,-0.673,0.241,-0.432,0.483,0.432,0.483,0.673,0.241,0.0*
%
%ADD91OCTAGOND91*%

%ADD92R,1.346X0.965*%
%ADD93R,1.690X0.740*%
%ADD94R,0.740X0.940*%
%ADD95R,1.403X3.203*%
%ADD96R,3.203X1.403*%
%ADD97R,1.203X1.203*%
%ADD98R,1.203X1.203*%
%ADD99R,1.803X2.903*%
%ADD100R,2.903X1.803*%
%ADD101R,1.303X1.203*%
%ADD102R,1.203X1.303*%
%ADD103O,0.310X0.910*%
%ADD104R,2.610X1.610*%
%ADD105C,1.103*%
%ADD106C,1.703*%
%ADD107O,0.703X1.403*%
%ADD108C,1.600*%
%ADD109R,1.600X1.600*%
%ADD110C,1.503*%
%ADD111C,4.203*%
%ADD112O,1.803X2.603*%
%ADD113C,2.003*%
%ADD114R,1.703X1.703*%
%ADD115C,0.813*%
%ADD116C,1.219*%
G36*
X52413Y19472D02*
X52423Y19469D01*
X52570Y19409D01*
X52578Y19404D01*
X52586Y19398D01*
X52699Y19285D01*
X52705Y19277D01*
X52710Y19269D01*
X52770Y19122D01*
X52773Y19112D01*
X52774Y19103D01*
Y19023D01*
X52773Y19013D01*
X52770Y19004D01*
X52766Y18995D01*
X52760Y18987D01*
X52752Y18981D01*
X52743Y18977D01*
X52734Y18974D01*
X52724Y18973D01*
X51924D01*
X51914Y18974D01*
X51905Y18977D01*
X51896Y18981D01*
X51888Y18987D01*
X51882Y18995D01*
X51878Y19004D01*
X51875Y19013D01*
X51874Y19023D01*
Y19103D01*
X51875Y19112D01*
X51875Y19115D01*
X51878Y19122D01*
X51938Y19269D01*
X51943Y19277D01*
X51949Y19285D01*
X52062Y19398D01*
X52069Y19404D01*
X52078Y19409D01*
X52225Y19469D01*
X52235Y19472D01*
X52244Y19473D01*
X52404D01*
X52413Y19472D01*
D02*
G37*
G36*
X25107Y20693D02*
X25116Y20690D01*
X25125Y20686D01*
X25132Y20679D01*
X25139Y20672D01*
X25143Y20663D01*
X25146Y20654D01*
X25147Y20644D01*
Y19844D01*
X25146Y19834D01*
X25143Y19825D01*
X25139Y19816D01*
X25132Y19808D01*
X25125Y19802D01*
X25116Y19797D01*
X25107Y19795D01*
X25097Y19794D01*
X25017D01*
X25007Y19795D01*
X25005Y19795D01*
X24998Y19797D01*
X24851Y19858D01*
X24842Y19863D01*
X24835Y19869D01*
X24722Y19982D01*
X24716Y19989D01*
X24711Y19998D01*
X24650Y20145D01*
X24648Y20154D01*
X24647Y20164D01*
Y20244D01*
Y20323D01*
X24648Y20333D01*
X24648Y20335D01*
X24650Y20343D01*
X24711Y20490D01*
X24716Y20498D01*
X24722Y20506D01*
X24835Y20618D01*
X24842Y20625D01*
X24851Y20629D01*
X24998Y20690D01*
X25007Y20693D01*
X25017Y20694D01*
X25097D01*
X25107Y20693D01*
D02*
G37*
G36*
X25386D02*
X25396Y20690D01*
X25543Y20629D01*
X25551Y20625D01*
X25559Y20618D01*
X25671Y20506D01*
X25678Y20498D01*
X25682Y20490D01*
X25743Y20343D01*
X25746Y20333D01*
X25747Y20323D01*
Y20244D01*
Y20164D01*
X25746Y20154D01*
X25743Y20145D01*
X25682Y19998D01*
X25678Y19989D01*
X25671Y19982D01*
X25559Y19869D01*
X25551Y19863D01*
X25543Y19858D01*
X25396Y19797D01*
X25386Y19795D01*
X25376Y19794D01*
X25297D01*
X25287Y19795D01*
X25278Y19797D01*
X25269Y19802D01*
X25261Y19808D01*
X25255Y19816D01*
X25250Y19825D01*
X25248Y19834D01*
X25247Y19844D01*
Y20644D01*
X25248Y20654D01*
X25250Y20663D01*
X25255Y20672D01*
X25261Y20679D01*
X25269Y20686D01*
X25278Y20690D01*
X25287Y20693D01*
X25297Y20694D01*
X25376D01*
X25386Y20693D01*
D02*
G37*
G36*
X9232Y1618D02*
X9241Y1615D01*
X9250Y1610D01*
X9257Y1604D01*
X9264Y1596D01*
X9268Y1588D01*
X9271Y1578D01*
X9272Y1568D01*
Y768D01*
X9271Y759D01*
X9268Y749D01*
X9264Y740D01*
X9257Y733D01*
X9250Y727D01*
X9241Y722D01*
X9232Y719D01*
X9222Y718D01*
X9142D01*
X9132Y719D01*
X9130Y720D01*
X9123Y722D01*
X8976Y783D01*
X8967Y788D01*
X8960Y794D01*
X8847Y906D01*
X8841Y914D01*
X8836Y923D01*
X8775Y1070D01*
X8773Y1079D01*
X8772Y1089D01*
Y1168D01*
Y1248D01*
X8773Y1258D01*
X8773Y1260D01*
X8775Y1267D01*
X8836Y1414D01*
X8841Y1423D01*
X8847Y1431D01*
X8960Y1543D01*
X8967Y1549D01*
X8976Y1554D01*
X9123Y1615D01*
X9132Y1618D01*
X9142Y1619D01*
X9222D01*
X9232Y1618D01*
D02*
G37*
G36*
X9511D02*
X9521Y1615D01*
X9668Y1554D01*
X9676Y1549D01*
X9684Y1543D01*
X9796Y1431D01*
X9803Y1423D01*
X9807Y1414D01*
X9868Y1267D01*
X9871Y1258D01*
X9872Y1248D01*
Y1168D01*
Y1089D01*
X9871Y1079D01*
X9868Y1070D01*
X9807Y923D01*
X9803Y914D01*
X9796Y906D01*
X9684Y794D01*
X9676Y788D01*
X9668Y783D01*
X9521Y722D01*
X9511Y719D01*
X9501Y718D01*
X9422D01*
X9412Y719D01*
X9403Y722D01*
X9394Y727D01*
X9386Y733D01*
X9380Y740D01*
X9375Y749D01*
X9373Y759D01*
X9372Y768D01*
Y1568D01*
X9373Y1578D01*
X9375Y1588D01*
X9380Y1596D01*
X9386Y1604D01*
X9394Y1610D01*
X9403Y1615D01*
X9412Y1618D01*
X9422Y1619D01*
X9501D01*
X9511Y1618D01*
D02*
G37*
G36*
X52734Y18872D02*
X52743Y18869D01*
X52752Y18865D01*
X52760Y18859D01*
X52766Y18851D01*
X52770Y18842D01*
X52773Y18833D01*
X52774Y18823D01*
Y18743D01*
X52773Y18734D01*
X52770Y18724D01*
X52710Y18577D01*
X52705Y18569D01*
X52699Y18561D01*
X52586Y18448D01*
X52578Y18442D01*
X52570Y18437D01*
X52423Y18377D01*
X52413Y18374D01*
X52404Y18373D01*
X52244D01*
X52235Y18374D01*
X52232Y18374D01*
X52225Y18377D01*
X52078Y18437D01*
X52069Y18442D01*
X52062Y18448D01*
X51949Y18561D01*
X51943Y18569D01*
X51938Y18577D01*
X51878Y18724D01*
X51875Y18734D01*
X51874Y18743D01*
Y18823D01*
X51875Y18833D01*
X51878Y18842D01*
X51882Y18851D01*
X51888Y18859D01*
X51896Y18865D01*
X51905Y18869D01*
X51914Y18872D01*
X51924Y18873D01*
X52724D01*
X52734Y18872D01*
D02*
G37*
G36*
X66382Y43477D02*
X66391Y43474D01*
X66538Y43413D01*
X66547Y43408D01*
X66554Y43402D01*
X66667Y43290D01*
X66673Y43282D01*
X66678Y43273D01*
X66739Y43126D01*
X66742Y43117D01*
X66743Y43107D01*
Y43028D01*
Y42948D01*
X66742Y42938D01*
X66739Y42929D01*
X66678Y42782D01*
X66673Y42773D01*
X66667Y42765D01*
X66555Y42653D01*
X66547Y42647D01*
X66538Y42642D01*
X66391Y42581D01*
X66382Y42578D01*
X66372Y42577D01*
X66292D01*
X66283Y42578D01*
X66273Y42581D01*
X66264Y42586D01*
X66257Y42592D01*
X66251Y42600D01*
X66246Y42608D01*
X66243Y42618D01*
X66242Y42628D01*
Y43428D01*
X66243Y43437D01*
X66246Y43447D01*
X66251Y43456D01*
X66257Y43463D01*
X66264Y43469D01*
X66273Y43474D01*
X66283Y43477D01*
X66292Y43478D01*
X66372D01*
X66382Y43477D01*
D02*
G37*
G36*
X49770Y51452D02*
X49779Y51450D01*
X49788Y51445D01*
X49796Y51439D01*
X49802Y51431D01*
X49807Y51422D01*
X49809Y51413D01*
X49810Y51403D01*
Y50603D01*
X49809Y50593D01*
X49807Y50584D01*
X49802Y50575D01*
X49796Y50568D01*
X49788Y50561D01*
X49779Y50557D01*
X49770Y50554D01*
X49760Y50553D01*
X49681D01*
X49671Y50554D01*
X49669Y50555D01*
X49661Y50557D01*
X49514Y50618D01*
X49506Y50622D01*
X49498Y50629D01*
X49386Y50741D01*
X49379Y50749D01*
X49375Y50757D01*
X49314Y50904D01*
X49311Y50914D01*
X49310Y50924D01*
Y51003D01*
Y51083D01*
X49311Y51093D01*
X49312Y51095D01*
X49314Y51102D01*
X49375Y51249D01*
X49379Y51258D01*
X49386Y51265D01*
X49498Y51378D01*
X49506Y51384D01*
X49514Y51389D01*
X49661Y51450D01*
X49671Y51452D01*
X49681Y51453D01*
X49760D01*
X49770Y51452D01*
D02*
G37*
G36*
X50050D02*
X50059Y51450D01*
X50206Y51389D01*
X50215Y51384D01*
X50222Y51378D01*
X50335Y51265D01*
X50341Y51258D01*
X50346Y51249D01*
X50407Y51102D01*
X50409Y51093D01*
X50410Y51083D01*
Y51003D01*
Y50924D01*
X50409Y50914D01*
X50407Y50904D01*
X50346Y50757D01*
X50341Y50749D01*
X50335Y50741D01*
X50222Y50629D01*
X50215Y50622D01*
X50206Y50618D01*
X50059Y50557D01*
X50050Y50554D01*
X50040Y50553D01*
X49960D01*
X49950Y50554D01*
X49941Y50557D01*
X49932Y50561D01*
X49925Y50568D01*
X49918Y50575D01*
X49914Y50584D01*
X49911Y50593D01*
X49910Y50603D01*
Y51403D01*
X49911Y51413D01*
X49914Y51422D01*
X49918Y51431D01*
X49925Y51439D01*
X49932Y51445D01*
X49941Y51450D01*
X49950Y51452D01*
X49960Y51453D01*
X50040D01*
X50050Y51452D01*
D02*
G37*
G36*
X68261Y24655D02*
X68271Y24653D01*
X68279Y24648D01*
X68287Y24642D01*
X68293Y24634D01*
X68298Y24625D01*
X68301Y24616D01*
X68302Y24606D01*
Y23806D01*
X68301Y23796D01*
X68298Y23787D01*
X68293Y23778D01*
X68287Y23771D01*
X68279Y23764D01*
X68271Y23760D01*
X68261Y23757D01*
X68251Y23756D01*
X68172D01*
X68162Y23757D01*
X68160Y23758D01*
X68153Y23760D01*
X68006Y23821D01*
X67997Y23825D01*
X67989Y23832D01*
X67877Y23944D01*
X67871Y23952D01*
X67866Y23960D01*
X67805Y24107D01*
X67802Y24117D01*
X67801Y24127D01*
Y24206D01*
Y24286D01*
X67802Y24296D01*
X67803Y24298D01*
X67805Y24305D01*
X67866Y24452D01*
X67871Y24461D01*
X67877Y24468D01*
X67989Y24581D01*
X67997Y24587D01*
X68006Y24592D01*
X68153Y24653D01*
X68162Y24655D01*
X68172Y24656D01*
X68251D01*
X68261Y24655D01*
D02*
G37*
G36*
X68541D02*
X68550Y24653D01*
X68697Y24592D01*
X68706Y24587D01*
X68714Y24581D01*
X68826Y24468D01*
X68832Y24461D01*
X68837Y24452D01*
X68898Y24305D01*
X68901Y24296D01*
X68902Y24286D01*
Y24206D01*
Y24127D01*
X68901Y24117D01*
X68898Y24107D01*
X68837Y23960D01*
X68832Y23952D01*
X68826Y23944D01*
X68714Y23832D01*
X68706Y23825D01*
X68697Y23821D01*
X68550Y23760D01*
X68541Y23757D01*
X68531Y23756D01*
X68451D01*
X68442Y23757D01*
X68432Y23760D01*
X68423Y23764D01*
X68416Y23771D01*
X68410Y23778D01*
X68405Y23787D01*
X68402Y23796D01*
X68401Y23806D01*
Y24606D01*
X68402Y24616D01*
X68405Y24625D01*
X68410Y24634D01*
X68416Y24642D01*
X68423Y24648D01*
X68432Y24653D01*
X68442Y24655D01*
X68451Y24656D01*
X68531D01*
X68541Y24655D01*
D02*
G37*
G36*
X66102Y43477D02*
X66112Y43474D01*
X66120Y43469D01*
X66128Y43463D01*
X66134Y43456D01*
X66139Y43447D01*
X66142Y43437D01*
X66143Y43428D01*
Y42628D01*
X66142Y42618D01*
X66139Y42608D01*
X66134Y42600D01*
X66128Y42592D01*
X66120Y42586D01*
X66112Y42581D01*
X66102Y42578D01*
X66092Y42577D01*
X66013D01*
X66003Y42578D01*
X66001Y42579D01*
X65994Y42581D01*
X65847Y42642D01*
X65838Y42647D01*
X65830Y42653D01*
X65718Y42765D01*
X65712Y42773D01*
X65707Y42782D01*
X65646Y42929D01*
X65643Y42938D01*
X65642Y42948D01*
Y43028D01*
Y43107D01*
X65643Y43117D01*
X65644Y43119D01*
X65646Y43126D01*
X65707Y43273D01*
X65712Y43282D01*
X65718Y43290D01*
X65830Y43402D01*
X65838Y43408D01*
X65847Y43413D01*
X65994Y43474D01*
X66003Y43477D01*
X66013Y43478D01*
X66092D01*
X66102Y43477D01*
D02*
G37*
D75*
X49860Y51003D02*
D03*
X25197Y20244D02*
D03*
X68351Y24206D02*
D03*
X66192Y43028D02*
D03*
X9322Y1168D02*
D03*
D76*
X52324Y18923D02*
D03*
D77*
X2500Y4800D02*
D03*
Y13700D02*
D03*
X8000Y4800D02*
D03*
Y13700D02*
D03*
Y49200D02*
D03*
Y40300D02*
D03*
X2500Y49200D02*
D03*
Y40300D02*
D03*
D78*
X8100Y7650D02*
D03*
Y8450D02*
D03*
Y9250D02*
D03*
Y10050D02*
D03*
Y10850D02*
D03*
Y46350D02*
D03*
Y45550D02*
D03*
Y44750D02*
D03*
Y43950D02*
D03*
Y43150D02*
D03*
D79*
X14513Y32490D02*
D03*
X11263D02*
D03*
X8763D02*
D03*
X6263D02*
D03*
X44399Y13589D02*
D03*
D80*
X73025Y24051D02*
D03*
Y30051D02*
D03*
D81*
X31961Y6786D02*
D03*
X32461D02*
D03*
X32961D02*
D03*
Y6016D02*
D03*
X32461D02*
D03*
X31961D02*
D03*
D82*
X30461Y1346D02*
D03*
X28061D02*
D03*
D83*
X32461Y3796D02*
D03*
X26061D02*
D03*
D84*
X30561Y4021D02*
D03*
X29911D02*
D03*
X29261D02*
D03*
X28611D02*
D03*
X27961D02*
D03*
D85*
X8719Y19507D02*
D03*
X12719D02*
D03*
D86*
X81794Y27926D02*
D03*
X77574D02*
D03*
X81794Y27276D02*
D03*
Y28576D02*
D03*
Y29226D02*
D03*
X77574Y27276D02*
D03*
Y28576D02*
D03*
Y29226D02*
D03*
D87*
X48149Y24526D02*
D03*
Y23876D02*
D03*
Y23226D02*
D03*
X50349D02*
D03*
Y24526D02*
D03*
X43477Y38369D02*
D03*
Y37719D02*
D03*
Y37069D02*
D03*
X45677D02*
D03*
Y38369D02*
D03*
X17063Y37323D02*
D03*
Y37973D02*
D03*
Y38623D02*
D03*
X14863D02*
D03*
Y37323D02*
D03*
X21735Y23480D02*
D03*
Y24130D02*
D03*
Y24780D02*
D03*
X19535D02*
D03*
Y23480D02*
D03*
D88*
X13716Y3975D02*
D03*
Y2375D02*
D03*
X16891Y3975D02*
D03*
Y2375D02*
D03*
X15265Y2210D02*
D03*
Y3810D02*
D03*
X23927Y11875D02*
D03*
Y13475D02*
D03*
D89*
X18501Y14583D02*
D03*
X17551D02*
D03*
X16601D02*
D03*
X17551Y11883D02*
D03*
X16601D02*
D03*
X18501D02*
D03*
D90*
X28673Y13142D02*
D03*
Y12192D02*
D03*
Y11242D02*
D03*
X31373Y12192D02*
D03*
Y11242D02*
D03*
Y13142D02*
D03*
X26256Y18501D02*
D03*
Y16601D02*
D03*
X28956Y18501D02*
D03*
Y17551D02*
D03*
Y16601D02*
D03*
X33335Y24003D02*
D03*
Y25903D02*
D03*
X30635Y24003D02*
D03*
Y24953D02*
D03*
Y25903D02*
D03*
X28663Y37846D02*
D03*
Y39746D02*
D03*
X25963Y37846D02*
D03*
Y38796D02*
D03*
Y39746D02*
D03*
D91*
X69774Y20574D02*
D03*
D92*
Y19304D02*
D03*
Y18034D02*
D03*
Y16764D02*
D03*
X74981D02*
D03*
Y18034D02*
D03*
Y19304D02*
D03*
Y20574D02*
D03*
D93*
X44861Y30649D02*
D03*
Y29379D02*
D03*
Y28109D02*
D03*
Y26839D02*
D03*
X50261D02*
D03*
Y28109D02*
D03*
Y29379D02*
D03*
Y30649D02*
D03*
X40189Y44492D02*
D03*
Y43222D02*
D03*
Y41952D02*
D03*
Y40682D02*
D03*
X45589D02*
D03*
Y41952D02*
D03*
Y43222D02*
D03*
Y44492D02*
D03*
X23266Y31377D02*
D03*
Y30107D02*
D03*
Y28837D02*
D03*
Y27567D02*
D03*
X28666D02*
D03*
Y28837D02*
D03*
Y30107D02*
D03*
Y31377D02*
D03*
X18594Y45220D02*
D03*
Y43950D02*
D03*
Y42680D02*
D03*
Y41410D02*
D03*
X23994D02*
D03*
Y42680D02*
D03*
Y43950D02*
D03*
Y45220D02*
D03*
X59899Y29687D02*
D03*
Y28417D02*
D03*
Y27147D02*
D03*
Y25877D02*
D03*
X65299D02*
D03*
Y27147D02*
D03*
Y28417D02*
D03*
Y29687D02*
D03*
X55227Y43530D02*
D03*
Y42260D02*
D03*
Y40990D02*
D03*
Y39720D02*
D03*
X60627D02*
D03*
Y40990D02*
D03*
Y42260D02*
D03*
Y43530D02*
D03*
X70325Y36322D02*
D03*
Y35052D02*
D03*
Y33782D02*
D03*
Y32512D02*
D03*
X75725D02*
D03*
Y33782D02*
D03*
Y35052D02*
D03*
Y36322D02*
D03*
X78000Y35105D02*
D03*
Y33835D02*
D03*
Y32565D02*
D03*
Y31295D02*
D03*
X83400D02*
D03*
Y32565D02*
D03*
Y33835D02*
D03*
Y35105D02*
D03*
D94*
X24344Y5613D02*
D03*
X25744D02*
D03*
D95*
X37160Y16764D02*
D03*
X34112D02*
D03*
X74422Y38989D02*
D03*
X71374D02*
D03*
X59563Y20066D02*
D03*
X56515D02*
D03*
D96*
X78359Y20193D02*
D03*
Y17145D02*
D03*
D97*
X44743Y23241D02*
D03*
X46643D02*
D03*
X40071Y37084D02*
D03*
X41971D02*
D03*
X46643Y24638D02*
D03*
X44743D02*
D03*
X41971Y38481D02*
D03*
X40071D02*
D03*
X23241Y23241D02*
D03*
X25141D02*
D03*
X18569Y37084D02*
D03*
X20469D02*
D03*
X27137Y7112D02*
D03*
X25237D02*
D03*
X46660Y32327D02*
D03*
X48560D02*
D03*
X41988Y46170D02*
D03*
X43888D02*
D03*
X61714Y24455D02*
D03*
X63614D02*
D03*
X57042Y38298D02*
D03*
X58942D02*
D03*
X21458Y27559D02*
D03*
X19558D02*
D03*
X16786Y41402D02*
D03*
X14886D02*
D03*
X19548Y29058D02*
D03*
X21448D02*
D03*
X14900Y42824D02*
D03*
X16800D02*
D03*
X43216Y26594D02*
D03*
X41316D02*
D03*
X38542Y40335D02*
D03*
X36642D02*
D03*
X43165Y27991D02*
D03*
X41265D02*
D03*
X38517Y41707D02*
D03*
X36617D02*
D03*
X63574Y31178D02*
D03*
X61674D02*
D03*
X58902Y45021D02*
D03*
X57002D02*
D03*
X25146Y24638D02*
D03*
X27046D02*
D03*
X20474Y38481D02*
D03*
X22374D02*
D03*
X19573Y30455D02*
D03*
X21473D02*
D03*
X14925Y44399D02*
D03*
X16825D02*
D03*
X5324Y35966D02*
D03*
X7224D02*
D03*
X21675Y21875D02*
D03*
X19775D02*
D03*
X46875Y36975D02*
D03*
X48775D02*
D03*
X51525Y23175D02*
D03*
X53425D02*
D03*
D98*
X23175Y26477D02*
D03*
Y24577D02*
D03*
X18503Y40320D02*
D03*
Y38420D02*
D03*
X22962Y18349D02*
D03*
Y16449D02*
D03*
X13767Y7236D02*
D03*
Y5336D02*
D03*
X14783Y15047D02*
D03*
Y13147D02*
D03*
X16866Y5311D02*
D03*
Y7211D02*
D03*
X15291D02*
D03*
Y5311D02*
D03*
X14097Y11262D02*
D03*
Y9362D02*
D03*
X28575Y6822D02*
D03*
Y8722D02*
D03*
X25248Y11674D02*
D03*
Y13574D02*
D03*
X56869Y26665D02*
D03*
Y24765D02*
D03*
X52197Y40508D02*
D03*
Y38608D02*
D03*
X51979Y27741D02*
D03*
Y29641D02*
D03*
X47307Y41584D02*
D03*
Y43484D02*
D03*
X67070Y28661D02*
D03*
Y30561D02*
D03*
X62398Y42504D02*
D03*
Y44404D02*
D03*
X39802Y28057D02*
D03*
Y29957D02*
D03*
X35154Y42052D02*
D03*
Y43952D02*
D03*
X31215Y29972D02*
D03*
Y28072D02*
D03*
X26543Y43815D02*
D03*
Y41915D02*
D03*
X36549Y29911D02*
D03*
Y31811D02*
D03*
X31877Y43754D02*
D03*
Y45654D02*
D03*
X43114Y29403D02*
D03*
Y31303D02*
D03*
X38442Y43246D02*
D03*
Y45146D02*
D03*
X33147Y29936D02*
D03*
Y31836D02*
D03*
X28536Y43754D02*
D03*
Y45654D02*
D03*
X26543Y46924D02*
D03*
Y45024D02*
D03*
X31215Y33081D02*
D03*
Y31181D02*
D03*
X13550Y38800D02*
D03*
Y40700D02*
D03*
D99*
X61719Y16891D02*
D03*
X64519D02*
D03*
X61716Y20066D02*
D03*
X64516D02*
D03*
X77300Y24500D02*
D03*
X80100D02*
D03*
X72133Y45720D02*
D03*
X74933D02*
D03*
X47272Y16764D02*
D03*
X44472D02*
D03*
X41964Y16739D02*
D03*
X39164D02*
D03*
D100*
X67564Y39119D02*
D03*
Y36319D02*
D03*
D101*
X18071Y30429D02*
D03*
X16371D02*
D03*
X13372Y44425D02*
D03*
X11672D02*
D03*
X13950Y37300D02*
D03*
X12250D02*
D03*
X30455Y18491D02*
D03*
X32155D02*
D03*
X18376Y10008D02*
D03*
X16676D02*
D03*
X27012Y8636D02*
D03*
X25312D02*
D03*
X66990Y23114D02*
D03*
X65290D02*
D03*
X62318Y36957D02*
D03*
X60618D02*
D03*
X52347Y31845D02*
D03*
X50647D02*
D03*
X47675Y45688D02*
D03*
X45975D02*
D03*
X51550Y24600D02*
D03*
X53250D02*
D03*
X46925Y38400D02*
D03*
X48625D02*
D03*
X18122Y29058D02*
D03*
X16422D02*
D03*
X13472Y42672D02*
D03*
X11772D02*
D03*
X25058Y26060D02*
D03*
X26758D02*
D03*
X20574Y39878D02*
D03*
X22274D02*
D03*
X25119Y32766D02*
D03*
X26819D02*
D03*
X20447Y46609D02*
D03*
X22147D02*
D03*
X63488Y23058D02*
D03*
X61788D02*
D03*
X58816Y36901D02*
D03*
X57116D02*
D03*
X21358Y26162D02*
D03*
X19658D02*
D03*
X16686Y40005D02*
D03*
X14986D02*
D03*
X34859Y33147D02*
D03*
X33159D02*
D03*
X30187Y46990D02*
D03*
X28487D02*
D03*
X61825Y32473D02*
D03*
X63525D02*
D03*
X57153Y46316D02*
D03*
X58853D02*
D03*
X15811Y34417D02*
D03*
X14111D02*
D03*
X8700Y35975D02*
D03*
X10400D02*
D03*
D102*
X17975Y23150D02*
D03*
Y24850D02*
D03*
X24486Y16651D02*
D03*
Y18351D02*
D03*
X29972Y6821D02*
D03*
Y8521D02*
D03*
X20472Y4863D02*
D03*
Y3163D02*
D03*
X21819Y4838D02*
D03*
Y3138D02*
D03*
X23165Y4851D02*
D03*
Y3151D02*
D03*
X33020Y12432D02*
D03*
Y10732D02*
D03*
X26797Y11291D02*
D03*
Y12991D02*
D03*
X36256Y24042D02*
D03*
Y25742D02*
D03*
X31584Y37885D02*
D03*
Y39585D02*
D03*
X34517Y30011D02*
D03*
Y31711D02*
D03*
X29947Y43854D02*
D03*
Y45554D02*
D03*
X55475Y26729D02*
D03*
Y28429D02*
D03*
X50803Y40572D02*
D03*
Y42272D02*
D03*
X53948Y26963D02*
D03*
Y28663D02*
D03*
X49276Y40806D02*
D03*
Y42506D02*
D03*
X68441Y28829D02*
D03*
Y30529D02*
D03*
X63769Y42672D02*
D03*
Y44372D02*
D03*
X41590Y29503D02*
D03*
Y31203D02*
D03*
X36918Y43346D02*
D03*
Y45046D02*
D03*
X41580Y25031D02*
D03*
Y23331D02*
D03*
X36678Y38772D02*
D03*
Y37072D02*
D03*
X39776Y24931D02*
D03*
Y26631D02*
D03*
X35154Y38901D02*
D03*
Y40601D02*
D03*
X67044Y26948D02*
D03*
Y25248D02*
D03*
X62372Y40791D02*
D03*
Y39091D02*
D03*
X58219Y26526D02*
D03*
Y28226D02*
D03*
X53547Y40369D02*
D03*
Y42069D02*
D03*
X34898Y25742D02*
D03*
Y24042D02*
D03*
X30226Y39585D02*
D03*
Y37885D02*
D03*
X29017Y25996D02*
D03*
Y24296D02*
D03*
X24345Y39839D02*
D03*
Y38139D02*
D03*
D103*
X20617Y7211D02*
D03*
X21067D02*
D03*
X21517D02*
D03*
X21967D02*
D03*
X22417D02*
D03*
X22867D02*
D03*
Y10111D02*
D03*
X22417D02*
D03*
X21967D02*
D03*
X21517D02*
D03*
X21067D02*
D03*
X20617D02*
D03*
D104*
X21742Y8661D02*
D03*
D105*
X5500Y7050D02*
D03*
Y11450D02*
D03*
Y46950D02*
D03*
Y42550D02*
D03*
D106*
X41859Y13589D02*
D03*
X39319D02*
D03*
X66000Y51000D02*
D03*
Y49000D02*
D03*
X64000Y51000D02*
D03*
Y49000D02*
D03*
X62000Y51000D02*
D03*
Y49000D02*
D03*
X60000Y51000D02*
D03*
Y49000D02*
D03*
X58000Y51000D02*
D03*
Y49000D02*
D03*
X56000Y51000D02*
D03*
Y49000D02*
D03*
X54000Y51000D02*
D03*
Y49000D02*
D03*
X52000Y51000D02*
D03*
Y49000D02*
D03*
X48000Y51000D02*
D03*
Y49000D02*
D03*
X46000Y51000D02*
D03*
Y49000D02*
D03*
X44000Y51000D02*
D03*
Y49000D02*
D03*
X42000Y51000D02*
D03*
Y49000D02*
D03*
X40000Y51000D02*
D03*
Y49000D02*
D03*
X38000Y51000D02*
D03*
Y49000D02*
D03*
X36000Y51000D02*
D03*
Y49000D02*
D03*
X34000Y51000D02*
D03*
Y49000D02*
D03*
X32000Y51000D02*
D03*
Y49000D02*
D03*
X30000Y51000D02*
D03*
Y49000D02*
D03*
X28000Y51000D02*
D03*
Y49000D02*
D03*
X26000Y51000D02*
D03*
Y49000D02*
D03*
X24000Y51000D02*
D03*
Y49000D02*
D03*
X22000Y51000D02*
D03*
Y49000D02*
D03*
X20000Y51000D02*
D03*
Y49000D02*
D03*
X18000Y51000D02*
D03*
Y49000D02*
D03*
X16000Y51000D02*
D03*
Y49000D02*
D03*
X14000Y51000D02*
D03*
Y49000D02*
D03*
X12000Y51000D02*
D03*
Y49000D02*
D03*
X32000Y9000D02*
D03*
X20066Y18161D02*
D03*
X36676Y27813D02*
D03*
X32004Y41656D02*
D03*
X36449Y19939D02*
D03*
X83200Y16760D02*
D03*
Y19300D02*
D03*
Y21840D02*
D03*
D107*
X25984Y1346D02*
D03*
X32563D02*
D03*
D108*
X3937Y35941D02*
D03*
D109*
X1397D02*
D03*
D110*
X78200Y41500D02*
D03*
Y44040D02*
D03*
Y38960D02*
D03*
X83280D02*
D03*
Y44040D02*
D03*
D111*
X81000Y50000D02*
D03*
X4000Y18500D02*
D03*
D112*
X69800Y42000D02*
D03*
Y44900D02*
D03*
X73200Y42000D02*
D03*
D113*
X74700Y49900D02*
D03*
X70700D02*
D03*
D114*
X83200Y24380D02*
D03*
D115*
X70383Y27635D02*
D03*
X68148Y17755D02*
D03*
X72644Y27864D02*
D03*
X75794Y26111D02*
D03*
X68448Y26948D02*
D03*
X5639Y44755D02*
D03*
X11049Y7010D02*
D03*
X10500Y10500D02*
D03*
X10312Y9246D02*
D03*
X12040Y8458D02*
D03*
X6680Y15545D02*
D03*
X2438Y11786D02*
D03*
X2489Y2870D02*
D03*
X8001D02*
D03*
Y50902D02*
D03*
X2489Y47422D02*
D03*
X2515Y42088D02*
D03*
X6121Y40310D02*
D03*
X8103Y47396D02*
D03*
X8100Y11800D02*
D03*
X63779Y39125D02*
D03*
X63667Y40779D02*
D03*
X68936Y22758D02*
D03*
X52324Y20193D02*
D03*
X26060Y20472D02*
D03*
X10262Y838D02*
D03*
X22835Y6071D02*
D03*
X31203Y6121D02*
D03*
X10871Y37313D02*
D03*
X12090Y10770D02*
D03*
X20218Y11328D02*
D03*
X17780Y13233D02*
D03*
X19583Y16586D02*
D03*
X15570Y10744D02*
D03*
X15189Y9373D02*
D03*
X16967Y16078D02*
D03*
X21000Y12500D02*
D03*
X21895Y13157D02*
D03*
X45034Y25883D02*
D03*
X10719Y47295D02*
D03*
X40437Y39675D02*
D03*
X38862Y38100D02*
D03*
X39243Y37084D02*
D03*
X44577Y36728D02*
D03*
X49200Y22936D02*
D03*
X45212Y46609D02*
D03*
X23100Y36125D02*
D03*
X18000Y21925D02*
D03*
X17375Y26025D02*
D03*
X19750Y5850D02*
D03*
X18525Y26150D02*
D03*
X18825Y21075D02*
D03*
X54250Y24600D02*
D03*
X51550Y25575D02*
D03*
X49725Y38550D02*
D03*
X46875Y39425D02*
D03*
X12250Y38250D02*
D03*
X15225Y36625D02*
D03*
X18085Y34138D02*
D03*
X12903Y34442D02*
D03*
X16561Y32817D02*
D03*
X8915Y37236D02*
D03*
X1397Y37287D02*
D03*
X58242Y32715D02*
D03*
X30455Y19736D02*
D03*
X31217Y7468D02*
D03*
X10592Y19380D02*
D03*
X29997Y12217D02*
D03*
X26670Y14326D02*
D03*
X23927Y8509D02*
D03*
X22885Y13665D02*
D03*
X22809Y12573D02*
D03*
X18872Y1219D02*
D03*
X10592Y2692D02*
D03*
X21768Y18136D02*
D03*
X24562Y9652D02*
D03*
X25654Y9931D02*
D03*
X30937Y10109D02*
D03*
X29718Y9728D02*
D03*
X32461Y3796D02*
D03*
X26061D02*
D03*
X24486Y7112D02*
D03*
X26695Y5613D02*
D03*
X33147Y7772D02*
D03*
X19228Y3200D02*
D03*
X12675Y2642D02*
D03*
X17882Y2591D02*
D03*
X83947Y27305D02*
D03*
X83312Y28194D02*
D03*
X21742Y8661D02*
D03*
X15963Y38735D02*
D03*
X20408Y41402D02*
D03*
X21805Y37084D02*
D03*
X48824Y45688D02*
D03*
X29845Y42926D02*
D03*
X19050Y46609D02*
D03*
X23368D02*
D03*
X57927Y42260D02*
D03*
X44069Y39624D02*
D03*
X35267Y37885D02*
D03*
X32639Y37846D02*
D03*
X25251Y46924D02*
D03*
X48741Y25781D02*
D03*
X43534Y24257D02*
D03*
X26477Y23241D02*
D03*
X25080Y27559D02*
D03*
X62599Y28417D02*
D03*
X37311Y24003D02*
D03*
X49884Y32766D02*
D03*
X53496Y31845D02*
D03*
X34517Y29083D02*
D03*
X28040Y32766D02*
D03*
X23722D02*
D03*
X39939Y24042D02*
D03*
X29923Y33081D02*
D03*
X20635Y24892D02*
D03*
X43915Y23241D02*
D03*
X43561Y36068D02*
D03*
X13818Y18745D02*
D03*
X24460Y19406D02*
D03*
X30480Y17323D02*
D03*
X32155Y19712D02*
D03*
X70100Y39400D02*
D03*
X33800Y45700D02*
D03*
X38700Y31800D02*
D03*
X48233Y22225D02*
D03*
X58200Y34300D02*
D03*
X28004Y25996D02*
D03*
X24345Y37145D02*
D03*
X52300Y45200D02*
D03*
X7500Y34200D02*
D03*
X66700Y24300D02*
D03*
X28900Y34800D02*
D03*
X33000D02*
D03*
X20300Y13200D02*
D03*
X29017Y23317D02*
D03*
X77470Y30226D02*
D03*
X41478Y40665D02*
D03*
X46457Y26340D02*
D03*
X68466Y34404D02*
D03*
D116*
X71679Y16967D02*
D03*
X73533Y16764D02*
D03*
X51537Y47193D02*
D03*
X47269Y19101D02*
D03*
X34163Y13970D02*
D03*
X44475Y19456D02*
D03*
X67564Y41275D02*
D03*
X71247Y47371D02*
D03*
X79375Y28702D02*
D03*
X59944Y16891D02*
D03*
X56261Y16637D02*
D03*
X81280Y35052D02*
D03*
X32512Y16510D02*
D03*
X34036Y19431D02*
D03*
X73533Y20574D02*
D03*
M02*
