G04 Layer_Color=32768*
%FSLAX43Y43*%
%MOMM*%
G71*
G01*
G75*
%ADD42C,0.152*%
%ADD43C,0.254*%
%ADD67C,0.127*%
%ADD70C,0.120*%
%ADD119C,0.010*%
%ADD120C,0.700*%
%ADD121C,0.178*%
%ADD122C,0.130*%
D42*
X37319Y12089D02*
X46319D01*
Y15589D01*
X37319D02*
X46319D01*
X37319Y15089D02*
Y15589D01*
Y12089D02*
Y15089D01*
X-1987Y21490D02*
X15013D01*
X-1987D02*
Y34490D01*
X15013D01*
Y21490D02*
Y34490D01*
X70275Y31301D02*
X75775D01*
X70275Y22801D02*
Y31301D01*
Y22801D02*
X75775D01*
Y31301D01*
X31561Y5701D02*
X33361D01*
Y7101D01*
X31561D02*
X33361D01*
X31561Y5701D02*
Y7101D01*
X24761Y-154D02*
Y4846D01*
Y-154D02*
X33761D01*
Y4846D01*
X24761D02*
X33761D01*
X8219Y18007D02*
X13219D01*
X8219D02*
Y21007D01*
X13219D01*
Y18007D02*
Y21007D01*
X66374Y33957D02*
Y39957D01*
X76374D01*
Y33957D02*
Y39957D01*
X66374Y33957D02*
X76374D01*
X76247Y26439D02*
Y32439D01*
X66247Y26439D02*
X76247D01*
X66247D02*
Y32439D01*
X76247D01*
X76934Y26751D02*
X82434D01*
X76934D02*
Y29751D01*
X82434D01*
Y26751D02*
Y29751D01*
X10500Y48000D02*
Y52000D01*
Y48000D02*
X68000D01*
Y52000D01*
X10500D02*
X68000D01*
X77200Y36500D02*
X87200D01*
Y46500D01*
X77200D02*
X87200D01*
X77200Y36500D02*
Y46500D01*
X68000Y40550D02*
Y54050D01*
Y40550D02*
X77500D01*
Y54050D01*
X68000D02*
X77500D01*
X13216Y1778D02*
X14216D01*
X13216Y1651D02*
Y1778D01*
Y1651D02*
X14216D01*
Y1175D02*
Y4675D01*
X13216Y1175D02*
X14216D01*
X13216D02*
Y4675D01*
X14216D01*
X16391Y1778D02*
X17391D01*
X16391Y1651D02*
Y1778D01*
Y1651D02*
X17391D01*
Y1175D02*
Y4675D01*
X16391Y1175D02*
X17391D01*
X16391D02*
Y4675D01*
X17391D01*
X14765Y4407D02*
X15765D01*
Y4534D01*
X14765D02*
X15765D01*
X14765Y1510D02*
Y5010D01*
X15765D01*
Y1510D02*
Y5010D01*
X14765Y1510D02*
X15765D01*
X23427Y14072D02*
X24427D01*
Y14199D01*
X23427D02*
X24427D01*
X23427Y11175D02*
Y14675D01*
X24427D01*
Y11175D02*
Y14675D01*
X23427Y11175D02*
X24427D01*
X18651Y14633D02*
X18851Y14333D01*
X18151D02*
X18851D01*
X19051Y11233D02*
Y15233D01*
X16051D02*
X19051D01*
X16051Y11233D02*
Y15233D01*
Y11233D02*
X19051D01*
X28623Y13292D02*
X28923Y13492D01*
Y12792D02*
Y13492D01*
X28023Y13692D02*
X32023D01*
X28023Y10692D02*
Y13692D01*
Y10692D02*
X32023D01*
Y13692D01*
X28956Y16351D02*
X29181Y16526D01*
X28956Y16351D02*
Y16851D01*
X25456Y16101D02*
X29706D01*
Y18851D01*
X25456D02*
X29706D01*
X25456Y16101D02*
Y18851D01*
X30410Y25978D02*
X30635Y26153D01*
Y25653D02*
Y26153D01*
X29885Y26403D02*
X34135D01*
X29885Y23653D02*
Y26403D01*
Y23653D02*
X34135D01*
Y26403D01*
X25738Y39821D02*
X25963Y39996D01*
Y39496D02*
Y39996D01*
X25213Y40246D02*
X29463D01*
X25213Y37496D02*
Y40246D01*
Y37496D02*
X29463D01*
Y40246D01*
X69524Y20554D02*
X69774Y20804D01*
Y20054D02*
Y20804D01*
X68774Y21054D02*
X76024D01*
X68774Y16304D02*
Y21054D01*
Y16304D02*
X76024D01*
Y21054D01*
X44811Y30944D02*
X45136Y31219D01*
Y30144D02*
Y31219D01*
X51311Y31244D02*
Y31494D01*
X43811D02*
X51311D01*
X43811Y25994D02*
Y31494D01*
Y25994D02*
X51311D01*
Y31244D01*
X40139Y44787D02*
X40464Y45062D01*
Y43987D02*
Y45062D01*
X46639Y45087D02*
Y45337D01*
X39139D02*
X46639D01*
X39139Y39837D02*
Y45337D01*
Y39837D02*
X46639D01*
Y45087D01*
X23216Y31672D02*
X23541Y31947D01*
Y30872D02*
Y31947D01*
X29716Y31972D02*
Y32222D01*
X22216D02*
X29716D01*
X22216Y26722D02*
Y32222D01*
Y26722D02*
X29716D01*
Y31972D01*
X18544Y45515D02*
X18869Y45790D01*
Y44715D02*
Y45790D01*
X25044Y45815D02*
Y46065D01*
X17544D02*
X25044D01*
X17544Y40565D02*
Y46065D01*
Y40565D02*
X25044D01*
Y45815D01*
X59849Y29982D02*
X60174Y30257D01*
Y29182D02*
Y30257D01*
X66349Y30282D02*
Y30532D01*
X58849D02*
X66349D01*
X58849Y25032D02*
Y30532D01*
Y25032D02*
X66349D01*
Y30282D01*
X55177Y43825D02*
X55502Y44100D01*
Y43025D02*
Y44100D01*
X61677Y44125D02*
Y44375D01*
X54177D02*
X61677D01*
X54177Y38875D02*
Y44375D01*
Y38875D02*
X61677D01*
Y44125D01*
X70275Y36617D02*
X70600Y36892D01*
Y35817D02*
Y36892D01*
X76775Y36917D02*
Y37167D01*
X69275D02*
X76775D01*
X69275Y31667D02*
Y37167D01*
Y31667D02*
X76775D01*
Y36917D01*
X77950Y35400D02*
X78275Y35675D01*
Y34600D02*
Y35675D01*
X84450Y35700D02*
Y35950D01*
X76950D02*
X84450D01*
X76950Y30450D02*
Y35950D01*
Y30450D02*
X84450D01*
Y35700D01*
X26144Y5113D02*
Y6113D01*
X23944D02*
X26144D01*
X23944Y5113D02*
Y6113D01*
Y5113D02*
X26144D01*
X37287Y15494D02*
Y18034D01*
X33985D02*
X37287D01*
X33985Y15494D02*
Y18034D01*
Y15494D02*
X37287D01*
X74549Y37719D02*
Y40259D01*
X71247D02*
X74549D01*
X71247Y37719D02*
Y40259D01*
Y37719D02*
X74549D01*
X59690Y18796D02*
Y21336D01*
X56388D02*
X59690D01*
X56388Y18796D02*
Y21336D01*
Y18796D02*
X59690D01*
X77089Y20320D02*
X79629D01*
X77089Y17018D02*
Y20320D01*
Y17018D02*
X79629D01*
Y20320D01*
X44550Y22682D02*
X46836D01*
X44550D02*
Y23774D01*
X46861D01*
Y22682D02*
Y23774D01*
X39878Y36525D02*
X42164D01*
X39878D02*
Y37617D01*
X42189D01*
Y36525D02*
Y37617D01*
X44550Y25197D02*
X46836D01*
Y24105D02*
Y25197D01*
X44525Y24105D02*
X46836D01*
X44525D02*
Y25197D01*
X39878Y39040D02*
X42164D01*
Y37948D02*
Y39040D01*
X39853Y37948D02*
X42164D01*
X39853D02*
Y39040D01*
X22616Y24384D02*
Y26670D01*
X23708D01*
Y24359D02*
Y26670D01*
X22616Y24359D02*
X23708D01*
X17944Y38227D02*
Y40513D01*
X19036D01*
Y38202D02*
Y40513D01*
X17944Y38202D02*
X19036D01*
X23048Y22682D02*
X25334D01*
X23048D02*
Y23774D01*
X25359D01*
Y22682D02*
Y23774D01*
X18376Y36525D02*
X20662D01*
X18376D02*
Y37617D01*
X20687D01*
Y36525D02*
Y37617D01*
X22403Y16256D02*
Y18542D01*
X23495D01*
Y16231D02*
Y18542D01*
X22403Y16231D02*
X23495D01*
X13208Y5143D02*
Y7429D01*
X14300D01*
Y5118D02*
Y7429D01*
X13208Y5118D02*
X14300D01*
X14224Y12954D02*
Y15240D01*
X15316D01*
Y12929D02*
Y15240D01*
X14224Y12929D02*
X15316D01*
X17424Y5118D02*
Y7404D01*
X16332Y5118D02*
X17424D01*
X16332D02*
Y7429D01*
X17424D01*
X14732Y5118D02*
Y7404D01*
X15824D01*
Y5093D02*
Y7404D01*
X14732Y5093D02*
X15824D01*
X13538Y9169D02*
Y11455D01*
X14630D01*
Y9144D02*
Y11455D01*
X13538Y9144D02*
X14630D01*
X29134Y6629D02*
Y8915D01*
X28042Y6629D02*
X29134D01*
X28042D02*
Y8941D01*
X29134D01*
X25044Y7671D02*
X27330D01*
Y6579D02*
Y7671D01*
X25019Y6579D02*
X27330D01*
X25019D02*
Y7671D01*
X25806Y11481D02*
Y13767D01*
X24714Y11481D02*
X25806D01*
X24714D02*
Y13792D01*
X25806D01*
X56310Y24572D02*
Y26858D01*
X57402D01*
Y24547D02*
Y26858D01*
X56310Y24547D02*
X57402D01*
X51638Y38415D02*
Y40701D01*
X52730D01*
Y38390D02*
Y40701D01*
X51638Y38390D02*
X52730D01*
X46467Y31768D02*
X48753D01*
X46467D02*
Y32861D01*
X48779D01*
Y31768D02*
Y32861D01*
X41795Y45611D02*
X44081D01*
X41795D02*
Y46704D01*
X44107D01*
Y45611D02*
Y46704D01*
X61521Y23896D02*
X63807D01*
X61521D02*
Y24988D01*
X63832D01*
Y23896D02*
Y24988D01*
X56849Y37739D02*
X59135D01*
X56849D02*
Y38831D01*
X59160D01*
Y37739D02*
Y38831D01*
X52538Y27548D02*
Y29834D01*
X51446Y27548D02*
X52538D01*
X51446D02*
Y29859D01*
X52538D01*
X47866Y41391D02*
Y43677D01*
X46774Y41391D02*
X47866D01*
X46774D02*
Y43702D01*
X47866D01*
X19365Y28118D02*
X21651D01*
Y27026D02*
Y28118D01*
X19340Y27026D02*
X21651D01*
X19340D02*
Y28118D01*
X14693Y41961D02*
X16979D01*
Y40869D02*
Y41961D01*
X14668Y40869D02*
X16979D01*
X14668D02*
Y41961D01*
X19355Y28499D02*
X21641D01*
X19355D02*
Y29591D01*
X21666D01*
Y28499D02*
Y29591D01*
X14707Y42266D02*
X16993D01*
X14707D02*
Y43358D01*
X17018D01*
Y42266D02*
Y43358D01*
X67629Y28468D02*
Y30754D01*
X66536Y28468D02*
X67629D01*
X66536D02*
Y30779D01*
X67629D01*
X62957Y42311D02*
Y44597D01*
X61864Y42311D02*
X62957D01*
X61864D02*
Y44622D01*
X62957D01*
X40361Y27864D02*
Y30150D01*
X39268Y27864D02*
X40361D01*
X39268D02*
Y30175D01*
X40361D01*
X35712Y41859D02*
Y44145D01*
X34620Y41859D02*
X35712D01*
X34620D02*
Y44171D01*
X35712D01*
X41123Y27153D02*
X43409D01*
Y26060D02*
Y27153D01*
X41097Y26060D02*
X43409D01*
X41097D02*
Y27153D01*
X36449Y40894D02*
X38735D01*
Y39802D02*
Y40894D01*
X36424Y39802D02*
X38735D01*
X36424D02*
Y40894D01*
X41072Y28550D02*
X43358D01*
Y27457D02*
Y28550D01*
X41046Y27457D02*
X43358D01*
X41046D02*
Y28550D01*
X36424Y42266D02*
X38710D01*
Y41173D02*
Y42266D01*
X36398Y41173D02*
X38710D01*
X36398D02*
Y42266D01*
X30656Y27879D02*
Y30165D01*
X31748D01*
Y27854D02*
Y30165D01*
X30656Y27854D02*
X31748D01*
X25984Y41722D02*
Y44008D01*
X27076D01*
Y41697D02*
Y44008D01*
X25984Y41697D02*
X27076D01*
X61481Y31737D02*
X63767D01*
Y30644D02*
Y31737D01*
X61456Y30644D02*
X63767D01*
X61456D02*
Y31737D01*
X56809Y45580D02*
X59095D01*
Y44487D02*
Y45580D01*
X56784Y44487D02*
X59095D01*
X56784D02*
Y45580D01*
X37108Y29718D02*
Y32004D01*
X36016Y29718D02*
X37108D01*
X36016D02*
Y32029D01*
X37108D01*
X32436Y43561D02*
Y45847D01*
X31344Y43561D02*
X32436D01*
X31344D02*
Y45872D01*
X32436D01*
X43673Y29210D02*
Y31496D01*
X42581Y29210D02*
X43673D01*
X42581D02*
Y31521D01*
X43673D01*
X39001Y43053D02*
Y45339D01*
X37909Y43053D02*
X39001D01*
X37909D02*
Y45364D01*
X39001D01*
X24953Y24079D02*
X27239D01*
X24953D02*
Y25171D01*
X27264D01*
Y24079D02*
Y25171D01*
X20281Y37922D02*
X22567D01*
X20281D02*
Y39014D01*
X22592D01*
Y37922D02*
Y39014D01*
X19380Y29896D02*
X21666D01*
X19380D02*
Y30988D01*
X21692D01*
Y29896D02*
Y30988D01*
X14732Y43840D02*
X17018D01*
X14732D02*
Y44933D01*
X17043D01*
Y43840D02*
Y44933D01*
X33706Y29743D02*
Y32029D01*
X32614Y29743D02*
X33706D01*
X32614D02*
Y32055D01*
X33706D01*
X29095Y43561D02*
Y45847D01*
X28003Y43561D02*
X29095D01*
X28003D02*
Y45872D01*
X29095D01*
X25984Y44831D02*
Y47117D01*
X27076D01*
Y44806D02*
Y47117D01*
X25984Y44806D02*
X27076D01*
X30656Y30988D02*
Y33274D01*
X31748D01*
Y30963D02*
Y33274D01*
X30656Y30963D02*
X31748D01*
X5131Y35408D02*
X7417D01*
X5131D02*
Y36500D01*
X7442D01*
Y35408D02*
Y36500D01*
X14109Y38607D02*
Y40893D01*
X13017Y38607D02*
X14109D01*
X13017D02*
Y40918D01*
X14109D01*
X19582Y22434D02*
X21868D01*
Y21342D02*
Y22434D01*
X19557Y21342D02*
X21868D01*
X19557D02*
Y22434D01*
X46682Y36416D02*
X48968D01*
X46682D02*
Y37508D01*
X48993D01*
Y36416D02*
Y37508D01*
X51332Y22616D02*
X53618D01*
X51332D02*
Y23708D01*
X53643D01*
Y22616D02*
Y23708D01*
X61341Y15748D02*
Y18034D01*
Y15748D02*
X64897D01*
Y18034D01*
X61341D02*
X64897D01*
X66421Y39497D02*
X68707D01*
X66421Y35941D02*
Y39497D01*
Y35941D02*
X68707D01*
Y39497D01*
X61338Y18923D02*
Y21209D01*
Y18923D02*
X64894D01*
Y21209D01*
X61338D02*
X64894D01*
X76922Y23357D02*
Y25643D01*
Y23357D02*
X80478D01*
Y25643D01*
X76922D02*
X80478D01*
X71755Y44577D02*
Y46863D01*
Y44577D02*
X75311D01*
Y46863D01*
X71755D02*
X75311D01*
X47650Y15621D02*
Y17907D01*
X44094D02*
X47650D01*
X44094Y15621D02*
Y17907D01*
Y15621D02*
X47650D01*
X42342Y15596D02*
Y17882D01*
X38786D02*
X42342D01*
X38786Y15596D02*
Y17882D01*
Y15596D02*
X42342D01*
X16421Y30829D02*
X18021D01*
Y30029D02*
Y30829D01*
X16421Y30029D02*
X18021D01*
X16421D02*
Y30829D01*
X11722Y44825D02*
X13322D01*
Y44025D02*
Y44825D01*
X11722Y44025D02*
X13322D01*
X11722D02*
Y44825D01*
X18375Y23200D02*
Y24800D01*
X17575Y23200D02*
X18375D01*
X17575D02*
Y24800D01*
X18375D01*
X12300Y37700D02*
X13900D01*
Y36900D02*
Y37700D01*
X12300Y36900D02*
X13900D01*
X12300D02*
Y37700D01*
X30505Y18091D02*
X32105D01*
X30505D02*
Y18891D01*
X32105D01*
Y18091D02*
Y18891D01*
X24886Y16701D02*
Y18301D01*
X24086Y16701D02*
X24886D01*
X24086D02*
Y18301D01*
X24886D01*
X16726Y10408D02*
X18326D01*
Y9608D02*
Y10408D01*
X16726Y9608D02*
X18326D01*
X16726D02*
Y10408D01*
X30372Y6871D02*
Y8471D01*
X29572Y6871D02*
X30372D01*
X29572D02*
Y8471D01*
X30372D01*
X25362Y9036D02*
X26962D01*
Y8236D02*
Y9036D01*
X25362Y8236D02*
X26962D01*
X25362D02*
Y9036D01*
X20072Y3213D02*
Y4813D01*
X20872D01*
Y3213D02*
Y4813D01*
X20072Y3213D02*
X20872D01*
X21419Y3188D02*
Y4788D01*
X22219D01*
Y3188D02*
Y4788D01*
X21419Y3188D02*
X22219D01*
X22765Y3201D02*
Y4801D01*
X23565D01*
Y3201D02*
Y4801D01*
X22765Y3201D02*
X23565D01*
X32620Y10782D02*
Y12382D01*
X33420D01*
Y10782D02*
Y12382D01*
X32620Y10782D02*
X33420D01*
X27197Y11341D02*
Y12941D01*
X26397Y11341D02*
X27197D01*
X26397D02*
Y12941D01*
X27197D01*
X36656Y24092D02*
Y25692D01*
X35856Y24092D02*
X36656D01*
X35856D02*
Y25692D01*
X36656D01*
X31984Y37935D02*
Y39535D01*
X31184Y37935D02*
X31984D01*
X31184D02*
Y39535D01*
X31984D01*
X65340Y23514D02*
X66940D01*
Y22714D02*
Y23514D01*
X65340Y22714D02*
X66940D01*
X65340D02*
Y23514D01*
X60668Y37357D02*
X62268D01*
Y36557D02*
Y37357D01*
X60668Y36557D02*
X62268D01*
X60668D02*
Y37357D01*
X50697Y32245D02*
X52297D01*
Y31445D02*
Y32245D01*
X50697Y31445D02*
X52297D01*
X50697D02*
Y32245D01*
X46025Y46088D02*
X47625D01*
Y45288D02*
Y46088D01*
X46025Y45288D02*
X47625D01*
X46025D02*
Y46088D01*
X51600Y24200D02*
X53200D01*
X51600D02*
Y25000D01*
X53200D01*
Y24200D02*
Y25000D01*
X46975Y38000D02*
X48575D01*
X46975D02*
Y38800D01*
X48575D01*
Y38000D02*
Y38800D01*
X16472Y29458D02*
X18072D01*
Y28658D02*
Y29458D01*
X16472Y28658D02*
X18072D01*
X16472D02*
Y29458D01*
X11822Y43072D02*
X13422D01*
Y42272D02*
Y43072D01*
X11822Y42272D02*
X13422D01*
X11822D02*
Y43072D01*
X34917Y30061D02*
Y31661D01*
X34117Y30061D02*
X34917D01*
X34117D02*
Y31661D01*
X34917D01*
X30347Y43904D02*
Y45504D01*
X29547Y43904D02*
X30347D01*
X29547D02*
Y45504D01*
X30347D01*
X55875Y26779D02*
Y28379D01*
X55075Y26779D02*
X55875D01*
X55075D02*
Y28379D01*
X55875D01*
X51203Y40622D02*
Y42222D01*
X50403Y40622D02*
X51203D01*
X50403D02*
Y42222D01*
X51203D01*
X54348Y27013D02*
Y28613D01*
X53548Y27013D02*
X54348D01*
X53548D02*
Y28613D01*
X54348D01*
X49676Y40856D02*
Y42456D01*
X48876Y40856D02*
X49676D01*
X48876D02*
Y42456D01*
X49676D01*
X68841Y28879D02*
Y30479D01*
X68041Y28879D02*
X68841D01*
X68041D02*
Y30479D01*
X68841D01*
X64169Y42722D02*
Y44322D01*
X63369Y42722D02*
X64169D01*
X63369D02*
Y44322D01*
X64169D01*
X41990Y29553D02*
Y31153D01*
X41190Y29553D02*
X41990D01*
X41190D02*
Y31153D01*
X41990D01*
X37318Y43396D02*
Y44996D01*
X36518Y43396D02*
X37318D01*
X36518D02*
Y44996D01*
X37318D01*
X25108Y25660D02*
X26708D01*
X25108D02*
Y26460D01*
X26708D01*
Y25660D02*
Y26460D01*
X20624Y39478D02*
X22224D01*
X20624D02*
Y40278D01*
X22224D01*
Y39478D02*
Y40278D01*
X25169Y32366D02*
X26769D01*
X25169D02*
Y33166D01*
X26769D01*
Y32366D02*
Y33166D01*
X20497Y46209D02*
X22097D01*
X20497D02*
Y47009D01*
X22097D01*
Y46209D02*
Y47009D01*
X61838Y23458D02*
X63438D01*
Y22658D02*
Y23458D01*
X61838Y22658D02*
X63438D01*
X61838D02*
Y23458D01*
X57166Y37301D02*
X58766D01*
Y36501D02*
Y37301D01*
X57166Y36501D02*
X58766D01*
X57166D02*
Y37301D01*
X41180Y23381D02*
Y24981D01*
X41980D01*
Y23381D02*
Y24981D01*
X41180Y23381D02*
X41980D01*
X36278Y37122D02*
Y38722D01*
X37078D01*
Y37122D02*
Y38722D01*
X36278Y37122D02*
X37078D01*
X19708Y26562D02*
X21308D01*
Y25762D02*
Y26562D01*
X19708Y25762D02*
X21308D01*
X19708D02*
Y26562D01*
X15036Y40405D02*
X16636D01*
Y39605D02*
Y40405D01*
X15036Y39605D02*
X16636D01*
X15036D02*
Y40405D01*
X40176Y24981D02*
Y26581D01*
X39376Y24981D02*
X40176D01*
X39376D02*
Y26581D01*
X40176D01*
X35554Y38951D02*
Y40551D01*
X34754Y38951D02*
X35554D01*
X34754D02*
Y40551D01*
X35554D01*
X33209Y33547D02*
X34809D01*
Y32747D02*
Y33547D01*
X33209Y32747D02*
X34809D01*
X33209D02*
Y33547D01*
X28537Y47390D02*
X30137D01*
Y46590D02*
Y47390D01*
X28537Y46590D02*
X30137D01*
X28537D02*
Y47390D01*
X66644Y25298D02*
Y26898D01*
X67444D01*
Y25298D02*
Y26898D01*
X66644Y25298D02*
X67444D01*
X61972Y39141D02*
Y40741D01*
X62772D01*
Y39141D02*
Y40741D01*
X61972Y39141D02*
X62772D01*
X58619Y26576D02*
Y28176D01*
X57819Y26576D02*
X58619D01*
X57819D02*
Y28176D01*
X58619D01*
X53947Y40419D02*
Y42019D01*
X53147Y40419D02*
X53947D01*
X53147D02*
Y42019D01*
X53947D01*
X34498Y24092D02*
Y25692D01*
X35298D01*
Y24092D02*
Y25692D01*
X34498Y24092D02*
X35298D01*
X29826Y37935D02*
Y39535D01*
X30626D01*
Y37935D02*
Y39535D01*
X29826Y37935D02*
X30626D01*
X28617Y24346D02*
Y25946D01*
X29417D01*
Y24346D02*
Y25946D01*
X28617Y24346D02*
X29417D01*
X23945Y38189D02*
Y39789D01*
X24745D01*
Y38189D02*
Y39789D01*
X23945Y38189D02*
X24745D01*
X61875Y32073D02*
X63475D01*
X61875D02*
Y32873D01*
X63475D01*
Y32073D02*
Y32873D01*
X57203Y45916D02*
X58803D01*
X57203D02*
Y46716D01*
X58803D01*
Y45916D02*
Y46716D01*
X14161Y34817D02*
X15761D01*
Y34017D02*
Y34817D01*
X14161Y34017D02*
X15761D01*
X14161D02*
Y34817D01*
X8750Y35575D02*
X10350D01*
X8750D02*
Y36375D01*
X10350D01*
Y35575D02*
Y36375D01*
X82000Y15500D02*
X84500D01*
Y25500D01*
X82000D02*
X84500D01*
X82000D02*
X82042Y15621D01*
X20492Y6661D02*
X23242D01*
Y10661D01*
X20492D02*
X23242D01*
X20492Y6661D02*
Y10661D01*
D43*
X5969Y5537D02*
X5461D01*
X5715D01*
Y4267D01*
X5461Y4013D01*
X5207D01*
X4953Y4267D01*
X6477Y5283D02*
X6730Y5537D01*
X7238D01*
X7492Y5283D01*
Y5029D01*
X7238Y4775D01*
X6984D01*
X7238D01*
X7492Y4521D01*
Y4267D01*
X7238Y4013D01*
X6730D01*
X6477Y4267D01*
X6883Y41275D02*
X6375D01*
X6629D01*
Y40005D01*
X6375Y39751D01*
X6121D01*
X5867Y40005D01*
X7391Y39751D02*
X7899D01*
X7645D01*
Y41275D01*
X7391Y41021D01*
D67*
X-1000Y3250D02*
X9500D01*
X-1000D02*
Y15250D01*
X9500D01*
Y3250D02*
Y15250D01*
Y38750D02*
Y50750D01*
X-1000D02*
X9500D01*
X-1000Y38750D02*
Y50750D01*
Y38750D02*
X9500D01*
D70*
X27000Y4166D02*
X27167D01*
X27084D01*
Y4665D01*
X27000Y4582D01*
X8509Y10871D02*
Y10705D01*
Y10788D01*
X9009D01*
X8926Y10871D01*
X8509Y46330D02*
Y46163D01*
Y46246D01*
X9009D01*
X8926Y46330D01*
X32207Y5893D02*
Y6059D01*
Y5976D01*
X31707D01*
X31791Y5893D01*
X81970Y27489D02*
X81803D01*
X81887D01*
Y26989D01*
X81970Y27072D01*
X47874Y24701D02*
Y24534D01*
Y24618D01*
X48374D01*
X48291Y24701D01*
X43202Y38544D02*
Y38377D01*
Y38461D01*
X43702D01*
X43619Y38544D01*
X17338Y37148D02*
Y37315D01*
Y37231D01*
X16838D01*
X16921Y37148D01*
X22010Y23305D02*
Y23472D01*
Y23388D01*
X21510D01*
X21593Y23305D01*
D119*
X9500Y3250D02*
Y15250D01*
X-1000D02*
X9500D01*
X-1000Y3250D02*
Y15250D01*
Y38750D02*
Y50750D01*
X9500D01*
Y38750D02*
Y50750D01*
D120*
X67437Y34290D02*
Y39624D01*
X75184Y26772D02*
Y32106D01*
D121*
X47699Y22626D02*
X50849D01*
Y24976D01*
X47699Y22626D02*
Y24976D01*
X50849D01*
X43027Y36469D02*
X46177D01*
Y38819D01*
X43027Y36469D02*
Y38819D01*
X46177D01*
X14363Y39223D02*
X17513D01*
X14363Y36873D02*
Y39223D01*
X17513Y36873D02*
Y39223D01*
X14363Y36873D02*
X17513D01*
X19035Y25380D02*
X22185D01*
X19035Y23030D02*
Y25380D01*
X22185Y23030D02*
Y25380D01*
X19035Y23030D02*
X22185D01*
D122*
X51537Y22936D02*
Y23436D01*
X51787D01*
X51870Y23353D01*
Y23186D01*
X51787Y23103D01*
X51537D01*
X51703D02*
X51870Y22936D01*
X52036Y23353D02*
X52120Y23436D01*
X52286D01*
X52370Y23353D01*
Y23269D01*
X52286Y23186D01*
X52203D01*
X52286D01*
X52370Y23103D01*
Y23020D01*
X52286Y22936D01*
X52120D01*
X52036Y23020D01*
X52536Y23436D02*
X52869D01*
Y23353D01*
X52536Y23020D01*
Y22936D01*
X53036D02*
Y23436D01*
X53286D01*
X53369Y23353D01*
Y23186D01*
X53286Y23103D01*
X53036D01*
X53203D02*
X53369Y22936D01*
X46965Y36703D02*
Y37203D01*
X47215D01*
X47298Y37120D01*
Y36953D01*
X47215Y36870D01*
X46965D01*
X47131D02*
X47298Y36703D01*
X47464Y37120D02*
X47548Y37203D01*
X47714D01*
X47798Y37120D01*
Y37036D01*
X47714Y36953D01*
X47631D01*
X47714D01*
X47798Y36870D01*
Y36786D01*
X47714Y36703D01*
X47548D01*
X47464Y36786D01*
X47964Y37203D02*
X48298D01*
Y37120D01*
X47964Y36786D01*
Y36703D01*
X48464Y37203D02*
Y36703D01*
X48797D01*
X19787Y21615D02*
Y22115D01*
X20037D01*
X20120Y22032D01*
Y21865D01*
X20037Y21782D01*
X19787D01*
X19953D02*
X20120Y21615D01*
X20286Y22032D02*
X20370Y22115D01*
X20536D01*
X20620Y22032D01*
Y21949D01*
X20536Y21865D01*
X20453D01*
X20536D01*
X20620Y21782D01*
Y21699D01*
X20536Y21615D01*
X20370D01*
X20286Y21699D01*
X21119Y22115D02*
X20953Y22032D01*
X20786Y21865D01*
Y21699D01*
X20870Y21615D01*
X21036D01*
X21119Y21699D01*
Y21782D01*
X21036Y21865D01*
X20786D01*
X21286Y21615D02*
Y22115D01*
X21536D01*
X21619Y22032D01*
Y21865D01*
X21536Y21782D01*
X21286D01*
X21453D02*
X21619Y21615D01*
X13818Y38887D02*
X13318D01*
Y39137D01*
X13401Y39221D01*
X13568D01*
X13651Y39137D01*
Y38887D01*
Y39054D02*
X13818Y39221D01*
X13401Y39387D02*
X13318Y39471D01*
Y39637D01*
X13401Y39720D01*
X13484D01*
X13568Y39637D01*
Y39554D01*
Y39637D01*
X13651Y39720D01*
X13734D01*
X13818Y39637D01*
Y39471D01*
X13734Y39387D01*
X13318Y40220D02*
X13401Y40054D01*
X13568Y39887D01*
X13734D01*
X13818Y39970D01*
Y40137D01*
X13734Y40220D01*
X13651D01*
X13568Y40137D01*
Y39887D01*
X13318Y40387D02*
X13818D01*
Y40720D01*
X5595Y35713D02*
Y36212D01*
X5845D01*
X5928Y36129D01*
Y35963D01*
X5845Y35879D01*
X5595D01*
X5762D02*
X5928Y35713D01*
X6095Y36129D02*
X6178Y36212D01*
X6345D01*
X6428Y36129D01*
Y36046D01*
X6345Y35963D01*
X6262D01*
X6345D01*
X6428Y35879D01*
Y35796D01*
X6345Y35713D01*
X6178D01*
X6095Y35796D01*
X6928Y36212D02*
X6595D01*
Y35963D01*
X6761Y36046D01*
X6845D01*
X6928Y35963D01*
Y35796D01*
X6845Y35713D01*
X6678D01*
X6595Y35796D01*
X10976Y36129D02*
X10893Y36212D01*
X10726D01*
X10643Y36129D01*
Y35796D01*
X10726Y35712D01*
X10893D01*
X10976Y35796D01*
X11392Y35712D02*
Y36212D01*
X11142Y35962D01*
X11476D01*
X11976Y35712D02*
X11642D01*
X11976Y36046D01*
Y36129D01*
X11892Y36212D01*
X11726D01*
X11642Y36129D01*
X14837Y35494D02*
X14753Y35577D01*
X14587D01*
X14503Y35494D01*
Y35161D01*
X14587Y35077D01*
X14753D01*
X14837Y35161D01*
X15336Y35577D02*
X15170Y35494D01*
X15003Y35327D01*
Y35161D01*
X15087Y35077D01*
X15253D01*
X15336Y35161D01*
Y35244D01*
X15253Y35327D01*
X15003D01*
X21222Y9892D02*
Y9475D01*
X21305Y9392D01*
X21472D01*
X21555Y9475D01*
Y9892D01*
X21722Y9392D02*
X21889D01*
X21805D01*
Y9892D01*
X21722Y9808D01*
X22472Y9392D02*
X22138D01*
X22472Y9725D01*
Y9808D01*
X22388Y9892D01*
X22222D01*
X22138Y9808D01*
X19939Y24401D02*
Y23985D01*
X20022Y23901D01*
X20189D01*
X20272Y23985D01*
Y24401D01*
X20439Y23985D02*
X20522Y23901D01*
X20689D01*
X20772Y23985D01*
Y24318D01*
X20689Y24401D01*
X20522D01*
X20439Y24318D01*
Y24235D01*
X20522Y24151D01*
X20772D01*
X20939Y23901D02*
Y24401D01*
X21189D01*
X21272Y24318D01*
Y24151D01*
X21189Y24068D01*
X20939D01*
X21105D02*
X21272Y23901D01*
X15093Y38111D02*
Y37694D01*
X15176Y37611D01*
X15343D01*
X15426Y37694D01*
Y38111D01*
X15592Y37694D02*
X15676Y37611D01*
X15842D01*
X15926Y37694D01*
Y38028D01*
X15842Y38111D01*
X15676D01*
X15592Y38028D01*
Y37944D01*
X15676Y37861D01*
X15926D01*
X16092Y38111D02*
Y37611D01*
X16426D01*
X31471Y31217D02*
X30971D01*
Y31467D01*
X31054Y31550D01*
X31221D01*
X31304Y31467D01*
Y31217D01*
Y31383D02*
X31471Y31550D01*
Y31716D02*
Y31883D01*
Y31800D01*
X30971D01*
X31054Y31716D01*
X31387Y32133D02*
X31471Y32216D01*
Y32383D01*
X31387Y32466D01*
X31054D01*
X30971Y32383D01*
Y32216D01*
X31054Y32133D01*
X31137D01*
X31221Y32216D01*
Y32466D01*
X31471Y32633D02*
X30971D01*
Y32883D01*
X31054Y32966D01*
X31221D01*
X31304Y32883D01*
Y32633D01*
Y32799D02*
X31471Y32966D01*
X26746Y45136D02*
X26246D01*
Y45386D01*
X26330Y45469D01*
X26496D01*
X26580Y45386D01*
Y45136D01*
Y45302D02*
X26746Y45469D01*
Y45636D02*
Y45802D01*
Y45719D01*
X26246D01*
X26330Y45636D01*
X26663Y46052D02*
X26746Y46135D01*
Y46302D01*
X26663Y46385D01*
X26330D01*
X26246Y46302D01*
Y46135D01*
X26330Y46052D01*
X26413D01*
X26496Y46135D01*
Y46385D01*
X26246Y46552D02*
X26746D01*
Y46885D01*
X79172Y28287D02*
Y27871D01*
X79255Y27788D01*
X79422D01*
X79505Y27871D01*
Y28287D01*
X80005Y27788D02*
X79672D01*
X80005Y28121D01*
Y28204D01*
X79922Y28287D01*
X79755D01*
X79672Y28204D01*
X82880Y17729D02*
Y18229D01*
X83130D01*
X83213Y18146D01*
Y17979D01*
X83130Y17896D01*
X82880D01*
X83380Y18146D02*
X83463Y18229D01*
X83630D01*
X83713Y18146D01*
Y18062D01*
X83630Y17979D01*
X83547D01*
X83630D01*
X83713Y17896D01*
Y17813D01*
X83630Y17729D01*
X83463D01*
X83380Y17813D01*
X10950Y20406D02*
X10867Y20490D01*
X10701D01*
X10617Y20406D01*
Y20323D01*
X10701Y20240D01*
X10867D01*
X10950Y20156D01*
Y20073D01*
X10867Y19990D01*
X10701D01*
X10617Y20073D01*
X11117Y20406D02*
X11200Y20490D01*
X11367D01*
X11450Y20406D01*
Y20323D01*
X11367Y20240D01*
X11284D01*
X11367D01*
X11450Y20156D01*
Y20073D01*
X11367Y19990D01*
X11200D01*
X11117Y20073D01*
X81816Y40066D02*
X81733Y40149D01*
X81567D01*
X81483Y40066D01*
Y39983D01*
X81567Y39899D01*
X81733D01*
X81816Y39816D01*
Y39733D01*
X81733Y39649D01*
X81567D01*
X81483Y39733D01*
X81983Y39649D02*
X82150D01*
X82066D01*
Y40149D01*
X81983Y40066D01*
X80467Y32817D02*
Y33317D01*
X80634Y33150D01*
X80800Y33317D01*
Y32817D01*
X81300D02*
X80967D01*
X81300Y33150D01*
Y33233D01*
X81217Y33317D01*
X81050D01*
X80967Y33233D01*
X68999Y29921D02*
X69499D01*
Y29671D01*
X69415Y29588D01*
X69082D01*
X68999Y29671D01*
Y29921D01*
X69499Y29088D02*
Y29421D01*
X69166Y29088D01*
X69082D01*
X68999Y29171D01*
Y29338D01*
X69082Y29421D01*
X69311Y38174D02*
Y38674D01*
X69561D01*
X69645Y38591D01*
Y38257D01*
X69561Y38174D01*
X69311D01*
X69811Y38674D02*
X69978D01*
X69894D01*
Y38174D01*
X69811Y38257D01*
X71984Y18839D02*
Y18422D01*
X72067Y18339D01*
X72234D01*
X72317Y18422D01*
Y18839D01*
X72483Y18339D02*
X72650D01*
X72567D01*
Y18839D01*
X72483Y18755D01*
X77775Y18288D02*
Y18788D01*
X78025D01*
X78108Y18705D01*
Y18538D01*
X78025Y18455D01*
X77775D01*
X77941D02*
X78108Y18288D01*
X78275D02*
X78441D01*
X78358D01*
Y18788D01*
X78275Y18705D01*
X79024Y18288D02*
X78691D01*
X79024Y18621D01*
Y18705D01*
X78941Y18788D01*
X78774D01*
X78691Y18705D01*
X57506Y19736D02*
Y20236D01*
X57756D01*
X57839Y20152D01*
Y19986D01*
X57756Y19902D01*
X57506D01*
X57672D02*
X57839Y19736D01*
X58005D02*
X58172D01*
X58089D01*
Y20236D01*
X58005Y20152D01*
X58422Y19736D02*
X58589D01*
X58505D01*
Y20236D01*
X58422Y20152D01*
X71866Y34924D02*
Y35423D01*
X72033Y35257D01*
X72200Y35423D01*
Y34924D01*
X72366D02*
X72533D01*
X72450D01*
Y35423D01*
X72366Y35340D01*
X72486Y29208D02*
Y28708D01*
X72819D01*
X72986D02*
X73152D01*
X73069D01*
Y29208D01*
X72986Y29124D01*
X73257Y52138D02*
X73090D01*
X73173D01*
Y51722D01*
X73090Y51638D01*
X73007D01*
X72923Y51722D01*
X73756Y51638D02*
X73423D01*
X73756Y51971D01*
Y52055D01*
X73673Y52138D01*
X73507D01*
X73423Y52055D01*
X40364Y16876D02*
X40280Y16959D01*
X40114D01*
X40030Y16876D01*
Y16543D01*
X40114Y16459D01*
X40280D01*
X40364Y16543D01*
X40530Y16459D02*
X40697D01*
X40614D01*
Y16959D01*
X40530Y16876D01*
X40947Y16959D02*
X41280D01*
Y16876D01*
X40947Y16543D01*
Y16459D01*
X45672Y17104D02*
X45589Y17188D01*
X45422D01*
X45339Y17104D01*
Y16771D01*
X45422Y16688D01*
X45589D01*
X45672Y16771D01*
X45839Y16688D02*
X46005D01*
X45922D01*
Y17188D01*
X45839Y17104D01*
X46589Y17188D02*
X46422Y17104D01*
X46255Y16938D01*
Y16771D01*
X46339Y16688D01*
X46505D01*
X46589Y16771D01*
Y16854D01*
X46505Y16938D01*
X46255D01*
X73257Y45806D02*
X73173Y45890D01*
X73007D01*
X72923Y45806D01*
Y45473D01*
X73007Y45390D01*
X73173D01*
X73257Y45473D01*
X73423Y45390D02*
X73590D01*
X73507D01*
Y45890D01*
X73423Y45806D01*
X74090Y45390D02*
Y45890D01*
X73840Y45640D01*
X74173D01*
X78565Y24674D02*
X78482Y24757D01*
X78315D01*
X78232Y24674D01*
Y24340D01*
X78315Y24257D01*
X78482D01*
X78565Y24340D01*
X78732Y24257D02*
X78898D01*
X78815D01*
Y24757D01*
X78732Y24674D01*
X79148D02*
X79232Y24757D01*
X79398D01*
X79482Y24674D01*
Y24590D01*
X79398Y24507D01*
X79315D01*
X79398D01*
X79482Y24424D01*
Y24340D01*
X79398Y24257D01*
X79232D01*
X79148Y24340D01*
X62741Y20178D02*
X62658Y20261D01*
X62491D01*
X62408Y20178D01*
Y19845D01*
X62491Y19761D01*
X62658D01*
X62741Y19845D01*
X62908Y19761D02*
X63074D01*
X62991D01*
Y20261D01*
X62908Y20178D01*
X63657Y19761D02*
X63324D01*
X63657Y20094D01*
Y20178D01*
X63574Y20261D01*
X63407D01*
X63324Y20178D01*
X68036Y37036D02*
X67953Y36953D01*
Y36786D01*
X68036Y36703D01*
X68370D01*
X68453Y36786D01*
Y36953D01*
X68370Y37036D01*
X68453Y37203D02*
Y37369D01*
Y37286D01*
X67953D01*
X68036Y37203D01*
X68453Y37619D02*
Y37786D01*
Y37703D01*
X67953D01*
X68036Y37619D01*
X62893Y17054D02*
X62810Y17137D01*
X62644D01*
X62560Y17054D01*
Y16720D01*
X62644Y16637D01*
X62810D01*
X62893Y16720D01*
X63060Y16637D02*
X63227D01*
X63143D01*
Y17137D01*
X63060Y17054D01*
X63477D02*
X63560Y17137D01*
X63726D01*
X63810Y17054D01*
Y16720D01*
X63726Y16637D01*
X63560D01*
X63477Y16720D01*
Y17054D01*
X72360Y38606D02*
Y39106D01*
X72610D01*
X72694Y39022D01*
Y38856D01*
X72610Y38772D01*
X72360D01*
X72527D02*
X72694Y38606D01*
X72860Y39106D02*
X73193D01*
Y39022D01*
X72860Y38689D01*
Y38606D01*
X34950Y16485D02*
Y16984D01*
X35200D01*
X35284Y16901D01*
Y16735D01*
X35200Y16651D01*
X34950D01*
X35117D02*
X35284Y16485D01*
X35783D02*
X35450D01*
X35783Y16818D01*
Y16901D01*
X35700Y16984D01*
X35534D01*
X35450Y16901D01*
X35950D02*
X36033Y16984D01*
X36200D01*
X36283Y16901D01*
Y16568D01*
X36200Y16485D01*
X36033D01*
X35950Y16568D01*
Y16901D01*
X59363Y46518D02*
X59280Y46601D01*
X59113D01*
X59030Y46518D01*
Y46184D01*
X59113Y46101D01*
X59280D01*
X59363Y46184D01*
X59529Y46101D02*
X59696D01*
X59613D01*
Y46601D01*
X59529Y46518D01*
X59946Y46601D02*
Y46101D01*
X60279D01*
X62360Y32649D02*
X62277Y32732D01*
X62110D01*
X62027Y32649D01*
Y32316D01*
X62110Y32233D01*
X62277D01*
X62360Y32316D01*
X62527Y32233D02*
X62693D01*
X62610D01*
Y32732D01*
X62527Y32649D01*
X62943Y32233D02*
Y32732D01*
X63193D01*
X63276Y32649D01*
Y32483D01*
X63193Y32399D01*
X62943D01*
X63110D02*
X63276Y32233D01*
X24171Y38687D02*
X24087Y38604D01*
Y38437D01*
X24171Y38354D01*
X24504D01*
X24587Y38437D01*
Y38604D01*
X24504Y38687D01*
X24587Y39187D02*
Y38854D01*
X24254Y39187D01*
X24171D01*
X24087Y39104D01*
Y38937D01*
X24171Y38854D01*
X24087Y39354D02*
X24587D01*
Y39687D01*
X28860Y24790D02*
X28777Y24707D01*
Y24540D01*
X28860Y24457D01*
X29193D01*
X29277Y24540D01*
Y24707D01*
X29193Y24790D01*
X29277Y25290D02*
Y24957D01*
X28943Y25290D01*
X28860D01*
X28777Y25206D01*
Y25040D01*
X28860Y24957D01*
X29277Y25456D02*
X28777D01*
Y25706D01*
X28860Y25790D01*
X29027D01*
X29110Y25706D01*
Y25456D01*
Y25623D02*
X29277Y25790D01*
X30063Y40135D02*
X29980Y40052D01*
Y39885D01*
X30063Y39802D01*
X30397D01*
X30480Y39885D01*
Y40052D01*
X30397Y40135D01*
X30063Y40302D02*
X29980Y40385D01*
Y40552D01*
X30063Y40635D01*
X30147D01*
X30230Y40552D01*
Y40468D01*
Y40552D01*
X30313Y40635D01*
X30397D01*
X30480Y40552D01*
Y40385D01*
X30397Y40302D01*
X29980Y40801D02*
X30480D01*
Y41135D01*
X34712Y26292D02*
X34628Y26209D01*
Y26042D01*
X34712Y25959D01*
X35045D01*
X35128Y26042D01*
Y26209D01*
X35045Y26292D01*
X34712Y26459D02*
X34628Y26542D01*
Y26709D01*
X34712Y26792D01*
X34795D01*
X34878Y26709D01*
Y26625D01*
Y26709D01*
X34962Y26792D01*
X35045D01*
X35128Y26709D01*
Y26542D01*
X35045Y26459D01*
X35128Y26958D02*
X34628D01*
Y27208D01*
X34712Y27292D01*
X34878D01*
X34962Y27208D01*
Y26958D01*
Y27125D02*
X35128Y27292D01*
X53381Y39221D02*
X53297Y39137D01*
Y38971D01*
X53381Y38887D01*
X53714D01*
X53797Y38971D01*
Y39137D01*
X53714Y39221D01*
X53797Y39637D02*
X53297D01*
X53547Y39387D01*
Y39720D01*
X53297Y39887D02*
X53797D01*
Y40220D01*
X58054Y25378D02*
X57971Y25294D01*
Y25128D01*
X58054Y25044D01*
X58387D01*
X58471Y25128D01*
Y25294D01*
X58387Y25378D01*
X58471Y25794D02*
X57971D01*
X58221Y25544D01*
Y25877D01*
X58471Y26044D02*
X57971D01*
Y26294D01*
X58054Y26377D01*
X58221D01*
X58304Y26294D01*
Y26044D01*
Y26211D02*
X58471Y26377D01*
X63170Y39653D02*
X63087Y39570D01*
Y39403D01*
X63170Y39320D01*
X63503D01*
X63587Y39403D01*
Y39570D01*
X63503Y39653D01*
X63087Y40153D02*
Y39820D01*
X63337D01*
X63253Y39987D01*
Y40070D01*
X63337Y40153D01*
X63503D01*
X63587Y40070D01*
Y39903D01*
X63503Y39820D01*
X63087Y40320D02*
X63587D01*
Y40653D01*
X67782Y25784D02*
X67699Y25701D01*
Y25534D01*
X67782Y25451D01*
X68116D01*
X68199Y25534D01*
Y25701D01*
X68116Y25784D01*
X67699Y26284D02*
Y25951D01*
X67949D01*
X67866Y26117D01*
Y26201D01*
X67949Y26284D01*
X68116D01*
X68199Y26201D01*
Y26034D01*
X68116Y25951D01*
X68199Y26450D02*
X67699D01*
Y26700D01*
X67782Y26784D01*
X67949D01*
X68032Y26700D01*
Y26450D01*
Y26617D02*
X68199Y26784D01*
X30686Y47203D02*
X30603Y47287D01*
X30436D01*
X30353Y47203D01*
Y46870D01*
X30436Y46787D01*
X30603D01*
X30686Y46870D01*
X30853Y47287D02*
X31186D01*
Y47203D01*
X30853Y46870D01*
Y46787D01*
X31353Y47287D02*
Y46787D01*
X31686D01*
X35411Y33335D02*
X35327Y33418D01*
X35161D01*
X35077Y33335D01*
Y33002D01*
X35161Y32918D01*
X35327D01*
X35411Y33002D01*
X35577Y33418D02*
X35910D01*
Y33335D01*
X35577Y33002D01*
Y32918D01*
X36077D02*
Y33418D01*
X36327D01*
X36410Y33335D01*
Y33168D01*
X36327Y33085D01*
X36077D01*
X36244D02*
X36410Y32918D01*
X34991Y39449D02*
X34908Y39366D01*
Y39199D01*
X34991Y39116D01*
X35324D01*
X35408Y39199D01*
Y39366D01*
X35324Y39449D01*
Y39616D02*
X35408Y39699D01*
Y39866D01*
X35324Y39949D01*
X34991D01*
X34908Y39866D01*
Y39699D01*
X34991Y39616D01*
X35074D01*
X35158Y39699D01*
Y39949D01*
X34908Y40116D02*
X35408D01*
Y40449D01*
X38725Y25378D02*
X38642Y25294D01*
Y25128D01*
X38725Y25044D01*
X39058D01*
X39141Y25128D01*
Y25294D01*
X39058Y25378D01*
Y25544D02*
X39141Y25628D01*
Y25794D01*
X39058Y25877D01*
X38725D01*
X38642Y25794D01*
Y25628D01*
X38725Y25544D01*
X38808D01*
X38891Y25628D01*
Y25877D01*
X39141Y26044D02*
X38642D01*
Y26294D01*
X38725Y26377D01*
X38891D01*
X38975Y26294D01*
Y26044D01*
Y26211D02*
X39141Y26377D01*
X15369Y40168D02*
X15286Y40251D01*
X15119D01*
X15036Y40168D01*
Y39834D01*
X15119Y39751D01*
X15286D01*
X15369Y39834D01*
X15536Y39751D02*
X15702D01*
X15619D01*
Y40251D01*
X15536Y40168D01*
X15952D02*
X16036Y40251D01*
X16202D01*
X16286Y40168D01*
Y40084D01*
X16202Y40001D01*
X16286Y39918D01*
Y39834D01*
X16202Y39751D01*
X16036D01*
X15952Y39834D01*
Y39918D01*
X16036Y40001D01*
X15952Y40084D01*
Y40168D01*
X16036Y40001D02*
X16202D01*
X16452Y40251D02*
Y39751D01*
X16785D01*
X18062Y26325D02*
X17979Y26408D01*
X17813D01*
X17729Y26325D01*
Y25991D01*
X17813Y25908D01*
X17979D01*
X18062Y25991D01*
X18229Y25908D02*
X18396D01*
X18312D01*
Y26408D01*
X18229Y26325D01*
X18646D02*
X18729Y26408D01*
X18895D01*
X18979Y26325D01*
Y26241D01*
X18895Y26158D01*
X18979Y26075D01*
Y25991D01*
X18895Y25908D01*
X18729D01*
X18646Y25991D01*
Y26075D01*
X18729Y26158D01*
X18646Y26241D01*
Y26325D01*
X18729Y26158D02*
X18895D01*
X19145Y25908D02*
Y26408D01*
X19395D01*
X19479Y26325D01*
Y26158D01*
X19395Y26075D01*
X19145D01*
X19312D02*
X19479Y25908D01*
X36515Y35487D02*
X36432Y35404D01*
Y35237D01*
X36515Y35154D01*
X36848D01*
X36932Y35237D01*
Y35404D01*
X36848Y35487D01*
X36932Y35653D02*
Y35820D01*
Y35737D01*
X36432D01*
X36515Y35653D01*
X36848Y36070D02*
X36932Y36153D01*
Y36320D01*
X36848Y36403D01*
X36515D01*
X36432Y36320D01*
Y36153D01*
X36515Y36070D01*
X36598D01*
X36682Y36153D01*
Y36403D01*
X36432Y36570D02*
X36932D01*
Y36903D01*
X42357Y23600D02*
X42274Y23516D01*
Y23350D01*
X42357Y23266D01*
X42690D01*
X42774Y23350D01*
Y23516D01*
X42690Y23600D01*
X42774Y23766D02*
Y23933D01*
Y23850D01*
X42274D01*
X42357Y23766D01*
X42690Y24183D02*
X42774Y24266D01*
Y24433D01*
X42690Y24516D01*
X42357D01*
X42274Y24433D01*
Y24266D01*
X42357Y24183D01*
X42440D01*
X42524Y24266D01*
Y24516D01*
X42774Y24683D02*
X42274D01*
Y24933D01*
X42357Y25016D01*
X42524D01*
X42607Y24933D01*
Y24683D01*
Y24849D02*
X42774Y25016D01*
X57458Y36205D02*
X57375Y36288D01*
X57208D01*
X57125Y36205D01*
Y35872D01*
X57208Y35789D01*
X57375D01*
X57458Y35872D01*
X57958Y35789D02*
X57624D01*
X57958Y36122D01*
Y36205D01*
X57874Y36288D01*
X57708D01*
X57624Y36205D01*
X58124D02*
X58208Y36288D01*
X58374D01*
X58458Y36205D01*
Y35872D01*
X58374Y35789D01*
X58208D01*
X58124Y35872D01*
Y36205D01*
X58624Y36288D02*
Y35789D01*
X58957D01*
X62131Y22362D02*
X62048Y22445D01*
X61882D01*
X61798Y22362D01*
Y22029D01*
X61882Y21946D01*
X62048D01*
X62131Y22029D01*
X62631Y21946D02*
X62298D01*
X62631Y22279D01*
Y22362D01*
X62548Y22445D01*
X62381D01*
X62298Y22362D01*
X62798D02*
X62881Y22445D01*
X63048D01*
X63131Y22362D01*
Y22029D01*
X63048Y21946D01*
X62881D01*
X62798Y22029D01*
Y22362D01*
X63298Y21946D02*
Y22445D01*
X63548D01*
X63631Y22362D01*
Y22196D01*
X63548Y22112D01*
X63298D01*
X63464D02*
X63631Y21946D01*
X20755Y47661D02*
X20672Y47744D01*
X20505D01*
X20422Y47661D01*
Y47327D01*
X20505Y47244D01*
X20672D01*
X20755Y47327D01*
X21255Y47244D02*
X20921D01*
X21255Y47577D01*
Y47661D01*
X21171Y47744D01*
X21005D01*
X20921Y47661D01*
X21421D02*
X21505Y47744D01*
X21671D01*
X21754Y47661D01*
Y47577D01*
X21671Y47494D01*
X21588D01*
X21671D01*
X21754Y47411D01*
Y47327D01*
X21671Y47244D01*
X21505D01*
X21421Y47327D01*
X21921Y47744D02*
Y47244D01*
X22254D01*
X25352Y33843D02*
X25269Y33926D01*
X25102D01*
X25019Y33843D01*
Y33510D01*
X25102Y33426D01*
X25269D01*
X25352Y33510D01*
X25852Y33426D02*
X25519D01*
X25852Y33760D01*
Y33843D01*
X25769Y33926D01*
X25602D01*
X25519Y33843D01*
X26019D02*
X26102Y33926D01*
X26269D01*
X26352Y33843D01*
Y33760D01*
X26269Y33676D01*
X26185D01*
X26269D01*
X26352Y33593D01*
Y33510D01*
X26269Y33426D01*
X26102D01*
X26019Y33510D01*
X26519Y33426D02*
Y33926D01*
X26768D01*
X26852Y33843D01*
Y33676D01*
X26768Y33593D01*
X26519D01*
X26685D02*
X26852Y33426D01*
X20957Y40041D02*
X20874Y40124D01*
X20707D01*
X20624Y40041D01*
Y39707D01*
X20707Y39624D01*
X20874D01*
X20957Y39707D01*
X21457Y39624D02*
X21124D01*
X21457Y39957D01*
Y40041D01*
X21374Y40124D01*
X21207D01*
X21124Y40041D01*
X21874Y39624D02*
Y40124D01*
X21624Y39874D01*
X21957D01*
X22124Y40124D02*
Y39624D01*
X22457D01*
X25606Y26248D02*
X25523Y26332D01*
X25356D01*
X25273Y26248D01*
Y25915D01*
X25356Y25832D01*
X25523D01*
X25606Y25915D01*
X26106Y25832D02*
X25773D01*
X26106Y26165D01*
Y26248D01*
X26023Y26332D01*
X25856D01*
X25773Y26248D01*
X26523Y25832D02*
Y26332D01*
X26273Y26082D01*
X26606D01*
X26773Y25832D02*
Y26332D01*
X27022D01*
X27106Y26248D01*
Y26082D01*
X27022Y25998D01*
X26773D01*
X26939D02*
X27106Y25832D01*
X36744Y45596D02*
X36660Y45513D01*
Y45346D01*
X36744Y45263D01*
X37077D01*
X37160Y45346D01*
Y45513D01*
X37077Y45596D01*
X37160Y46096D02*
Y45763D01*
X36827Y46096D01*
X36744D01*
X36660Y46013D01*
Y45846D01*
X36744Y45763D01*
X36660Y46596D02*
Y46262D01*
X36910D01*
X36827Y46429D01*
Y46512D01*
X36910Y46596D01*
X37077D01*
X37160Y46512D01*
Y46346D01*
X37077Y46262D01*
X36660Y46762D02*
X37160D01*
Y47096D01*
X41417Y31702D02*
X41334Y31619D01*
Y31452D01*
X41417Y31369D01*
X41750D01*
X41834Y31452D01*
Y31619D01*
X41750Y31702D01*
X41834Y32202D02*
Y31869D01*
X41501Y32202D01*
X41417D01*
X41334Y32119D01*
Y31952D01*
X41417Y31869D01*
X41334Y32702D02*
Y32369D01*
X41584D01*
X41501Y32535D01*
Y32619D01*
X41584Y32702D01*
X41750D01*
X41834Y32619D01*
Y32452D01*
X41750Y32369D01*
X41834Y32869D02*
X41334D01*
Y33118D01*
X41417Y33202D01*
X41584D01*
X41667Y33118D01*
Y32869D01*
Y33035D02*
X41834Y33202D01*
X64506Y43005D02*
X64423Y42922D01*
Y42755D01*
X64506Y42672D01*
X64839D01*
X64922Y42755D01*
Y42922D01*
X64839Y43005D01*
X64922Y43505D02*
Y43172D01*
X64589Y43505D01*
X64506D01*
X64423Y43422D01*
Y43255D01*
X64506Y43172D01*
X64423Y44005D02*
X64506Y43838D01*
X64672Y43672D01*
X64839D01*
X64922Y43755D01*
Y43922D01*
X64839Y44005D01*
X64756D01*
X64672Y43922D01*
Y43672D01*
X64423Y44172D02*
X64922D01*
Y44505D01*
X69179Y29111D02*
X69096Y29028D01*
Y28862D01*
X69179Y28778D01*
X69513D01*
X69596Y28862D01*
Y29028D01*
X69513Y29111D01*
X69596Y29611D02*
Y29278D01*
X69263Y29611D01*
X69179D01*
X69096Y29528D01*
Y29361D01*
X69179Y29278D01*
X69096Y30111D02*
X69179Y29944D01*
X69346Y29778D01*
X69513D01*
X69596Y29861D01*
Y30028D01*
X69513Y30111D01*
X69429D01*
X69346Y30028D01*
Y29778D01*
X69596Y30278D02*
X69096D01*
Y30528D01*
X69179Y30611D01*
X69346D01*
X69429Y30528D01*
Y30278D01*
Y30444D02*
X69596Y30611D01*
X49088Y43056D02*
X49005Y42973D01*
Y42806D01*
X49088Y42723D01*
X49421D01*
X49505Y42806D01*
Y42973D01*
X49421Y43056D01*
X49505Y43556D02*
Y43223D01*
X49171Y43556D01*
X49088D01*
X49005Y43473D01*
Y43306D01*
X49088Y43223D01*
X49005Y43722D02*
Y44056D01*
X49088D01*
X49421Y43722D01*
X49505D01*
X49005Y44222D02*
X49505D01*
Y44556D01*
X53847Y29209D02*
X53764Y29126D01*
Y28960D01*
X53847Y28876D01*
X54181D01*
X54264Y28960D01*
Y29126D01*
X54181Y29209D01*
X54264Y29709D02*
Y29376D01*
X53931Y29709D01*
X53847D01*
X53764Y29626D01*
Y29459D01*
X53847Y29376D01*
X53764Y29876D02*
Y30209D01*
X53847D01*
X54181Y29876D01*
X54264D01*
Y30376D02*
X53764D01*
Y30626D01*
X53847Y30709D01*
X54014D01*
X54097Y30626D01*
Y30376D01*
Y30542D02*
X54264Y30709D01*
X50663Y42827D02*
X50580Y42744D01*
Y42578D01*
X50663Y42494D01*
X50996D01*
X51079Y42578D01*
Y42744D01*
X50996Y42827D01*
X51079Y43327D02*
Y42994D01*
X50746Y43327D01*
X50663D01*
X50580Y43244D01*
Y43077D01*
X50663Y42994D01*
Y43494D02*
X50580Y43577D01*
Y43744D01*
X50663Y43827D01*
X50746D01*
X50829Y43744D01*
X50913Y43827D01*
X50996D01*
X51079Y43744D01*
Y43577D01*
X50996Y43494D01*
X50913D01*
X50829Y43577D01*
X50746Y43494D01*
X50663D01*
X50829Y43577D02*
Y43744D01*
X50580Y43994D02*
X51079D01*
Y44327D01*
X55375Y28996D02*
X55292Y28913D01*
Y28747D01*
X55375Y28663D01*
X55708D01*
X55791Y28747D01*
Y28913D01*
X55708Y28996D01*
X55791Y29496D02*
Y29163D01*
X55458Y29496D01*
X55375D01*
X55292Y29413D01*
Y29246D01*
X55375Y29163D01*
Y29663D02*
X55292Y29746D01*
Y29913D01*
X55375Y29996D01*
X55458D01*
X55541Y29913D01*
X55625Y29996D01*
X55708D01*
X55791Y29913D01*
Y29746D01*
X55708Y29663D01*
X55625D01*
X55541Y29746D01*
X55458Y29663D01*
X55375D01*
X55541Y29746D02*
Y29913D01*
X55791Y30163D02*
X55292D01*
Y30413D01*
X55375Y30496D01*
X55541D01*
X55625Y30413D01*
Y30163D01*
Y30329D02*
X55791Y30496D01*
X29784Y42192D02*
X29701Y42109D01*
Y41943D01*
X29784Y41859D01*
X30117D01*
X30201Y41943D01*
Y42109D01*
X30117Y42192D01*
X29784Y42359D02*
X29701Y42442D01*
Y42609D01*
X29784Y42692D01*
X29867D01*
X29951Y42609D01*
Y42526D01*
Y42609D01*
X30034Y42692D01*
X30117D01*
X30201Y42609D01*
Y42442D01*
X30117Y42359D01*
X29784Y42859D02*
X29701Y42942D01*
Y43109D01*
X29784Y43192D01*
X30117D01*
X30201Y43109D01*
Y42942D01*
X30117Y42859D01*
X29784D01*
X29701Y43359D02*
X30201D01*
Y43692D01*
X34356Y28349D02*
X34273Y28266D01*
Y28100D01*
X34356Y28016D01*
X34689D01*
X34773Y28100D01*
Y28266D01*
X34689Y28349D01*
X34356Y28516D02*
X34273Y28599D01*
Y28766D01*
X34356Y28849D01*
X34439D01*
X34523Y28766D01*
Y28683D01*
Y28766D01*
X34606Y28849D01*
X34689D01*
X34773Y28766D01*
Y28599D01*
X34689Y28516D01*
X34356Y29016D02*
X34273Y29099D01*
Y29266D01*
X34356Y29349D01*
X34689D01*
X34773Y29266D01*
Y29099D01*
X34689Y29016D01*
X34356D01*
X34773Y29516D02*
X34273D01*
Y29766D01*
X34356Y29849D01*
X34523D01*
X34606Y29766D01*
Y29516D01*
Y29682D02*
X34773Y29849D01*
X12170Y41971D02*
X12086Y42054D01*
X11920D01*
X11836Y41971D01*
Y41638D01*
X11920Y41554D01*
X12086D01*
X12170Y41638D01*
X12336Y41971D02*
X12420Y42054D01*
X12586D01*
X12669Y41971D01*
Y41888D01*
X12586Y41804D01*
X12503D01*
X12586D01*
X12669Y41721D01*
Y41638D01*
X12586Y41554D01*
X12420D01*
X12336Y41638D01*
X12836Y41554D02*
X13003D01*
X12919D01*
Y42054D01*
X12836Y41971D01*
X13253Y42054D02*
Y41554D01*
X13586D01*
X16742Y28357D02*
X16658Y28440D01*
X16492D01*
X16408Y28357D01*
Y28023D01*
X16492Y27940D01*
X16658D01*
X16742Y28023D01*
X16908Y28357D02*
X16992Y28440D01*
X17158D01*
X17241Y28357D01*
Y28273D01*
X17158Y28190D01*
X17075D01*
X17158D01*
X17241Y28107D01*
Y28023D01*
X17158Y27940D01*
X16992D01*
X16908Y28023D01*
X17408Y27940D02*
X17575D01*
X17491D01*
Y28440D01*
X17408Y28357D01*
X17825Y27940D02*
Y28440D01*
X18075D01*
X18158Y28357D01*
Y28190D01*
X18075Y28107D01*
X17825D01*
X17991D02*
X18158Y27940D01*
X49177Y38618D02*
X49094Y38701D01*
X48928D01*
X48844Y38618D01*
Y38285D01*
X48928Y38202D01*
X49094D01*
X49177Y38285D01*
X49344Y38618D02*
X49427Y38701D01*
X49594D01*
X49677Y38618D01*
Y38535D01*
X49594Y38452D01*
X49511D01*
X49594D01*
X49677Y38368D01*
Y38285D01*
X49594Y38202D01*
X49427D01*
X49344Y38285D01*
X50177Y38202D02*
X49844D01*
X50177Y38535D01*
Y38618D01*
X50094Y38701D01*
X49927D01*
X49844Y38618D01*
X50344Y38701D02*
Y38202D01*
X50677D01*
X53834Y24702D02*
X53751Y24785D01*
X53584D01*
X53501Y24702D01*
Y24369D01*
X53584Y24285D01*
X53751D01*
X53834Y24369D01*
X54001Y24702D02*
X54084Y24785D01*
X54251D01*
X54334Y24702D01*
Y24618D01*
X54251Y24535D01*
X54167D01*
X54251D01*
X54334Y24452D01*
Y24369D01*
X54251Y24285D01*
X54084D01*
X54001Y24369D01*
X54834Y24285D02*
X54500D01*
X54834Y24618D01*
Y24702D01*
X54750Y24785D01*
X54584D01*
X54500Y24702D01*
X55000Y24285D02*
Y24785D01*
X55250D01*
X55334Y24702D01*
Y24535D01*
X55250Y24452D01*
X55000D01*
X55167D02*
X55334Y24285D01*
X46333Y46746D02*
X46249Y46829D01*
X46083D01*
X45999Y46746D01*
Y46413D01*
X46083Y46330D01*
X46249D01*
X46333Y46413D01*
X46499Y46746D02*
X46583Y46829D01*
X46749D01*
X46832Y46746D01*
Y46663D01*
X46749Y46580D01*
X46666D01*
X46749D01*
X46832Y46496D01*
Y46413D01*
X46749Y46330D01*
X46583D01*
X46499Y46413D01*
X47249Y46330D02*
Y46829D01*
X46999Y46580D01*
X47332D01*
X47499Y46829D02*
Y46330D01*
X47832D01*
X50955Y32903D02*
X50872Y32986D01*
X50706D01*
X50622Y32903D01*
Y32570D01*
X50706Y32487D01*
X50872D01*
X50955Y32570D01*
X51122Y32903D02*
X51205Y32986D01*
X51372D01*
X51455Y32903D01*
Y32820D01*
X51372Y32737D01*
X51289D01*
X51372D01*
X51455Y32653D01*
Y32570D01*
X51372Y32487D01*
X51205D01*
X51122Y32570D01*
X51872Y32487D02*
Y32986D01*
X51622Y32737D01*
X51955D01*
X52122Y32487D02*
Y32986D01*
X52372D01*
X52455Y32903D01*
Y32737D01*
X52372Y32653D01*
X52122D01*
X52288D02*
X52455Y32487D01*
X61065Y36231D02*
X60981Y36314D01*
X60815D01*
X60731Y36231D01*
Y35897D01*
X60815Y35814D01*
X60981D01*
X61065Y35897D01*
X61231Y36231D02*
X61315Y36314D01*
X61481D01*
X61564Y36231D01*
Y36147D01*
X61481Y36064D01*
X61398D01*
X61481D01*
X61564Y35981D01*
Y35897D01*
X61481Y35814D01*
X61315D01*
X61231Y35897D01*
X62064Y36314D02*
X61731D01*
Y36064D01*
X61898Y36147D01*
X61981D01*
X62064Y36064D01*
Y35897D01*
X61981Y35814D01*
X61814D01*
X61731Y35897D01*
X62231Y36314D02*
Y35814D01*
X62564D01*
X65535Y22438D02*
X65452Y22522D01*
X65285D01*
X65202Y22438D01*
Y22105D01*
X65285Y22022D01*
X65452D01*
X65535Y22105D01*
X65702Y22438D02*
X65785Y22522D01*
X65952D01*
X66035Y22438D01*
Y22355D01*
X65952Y22272D01*
X65868D01*
X65952D01*
X66035Y22188D01*
Y22105D01*
X65952Y22022D01*
X65785D01*
X65702Y22105D01*
X66535Y22522D02*
X66201D01*
Y22272D01*
X66368Y22355D01*
X66451D01*
X66535Y22272D01*
Y22105D01*
X66451Y22022D01*
X66285D01*
X66201Y22105D01*
X66701Y22022D02*
Y22522D01*
X66951D01*
X67035Y22438D01*
Y22272D01*
X66951Y22188D01*
X66701D01*
X66868D02*
X67035Y22022D01*
X31410Y36325D02*
X31326Y36242D01*
Y36075D01*
X31410Y35992D01*
X31743D01*
X31826Y36075D01*
Y36242D01*
X31743Y36325D01*
X31326Y36825D02*
Y36492D01*
X31576D01*
X31493Y36658D01*
Y36742D01*
X31576Y36825D01*
X31743D01*
X31826Y36742D01*
Y36575D01*
X31743Y36492D01*
X31826Y36991D02*
Y37158D01*
Y37075D01*
X31326D01*
X31410Y36991D01*
X31326Y37408D02*
X31826D01*
Y37741D01*
X36058Y26267D02*
X35975Y26183D01*
Y26017D01*
X36058Y25933D01*
X36391D01*
X36474Y26017D01*
Y26183D01*
X36391Y26267D01*
X35975Y26766D02*
Y26433D01*
X36224D01*
X36141Y26600D01*
Y26683D01*
X36224Y26766D01*
X36391D01*
X36474Y26683D01*
Y26517D01*
X36391Y26433D01*
X36474Y26933D02*
Y27100D01*
Y27016D01*
X35975D01*
X36058Y26933D01*
X36474Y27350D02*
X35975D01*
Y27600D01*
X36058Y27683D01*
X36224D01*
X36308Y27600D01*
Y27350D01*
Y27516D02*
X36474Y27683D01*
X24666Y5808D02*
X24333D01*
Y5559D01*
X24500D01*
X24333D01*
Y5309D01*
X24833Y5808D02*
Y5309D01*
X25083D01*
X25166Y5392D01*
Y5475D01*
X25083Y5559D01*
X24833D01*
X25083D01*
X25166Y5642D01*
Y5725D01*
X25083Y5808D01*
X24833D01*
X25333Y5309D02*
X25499D01*
X25416D01*
Y5808D01*
X25333Y5725D01*
X49990Y50563D02*
X49824D01*
X49907D01*
Y50147D01*
X49824Y50063D01*
X49740D01*
X49657Y50147D01*
X50407Y50063D02*
Y50563D01*
X50157Y50313D01*
X50490D01*
X23706Y11659D02*
X24206D01*
Y11992D01*
X23706Y12492D02*
Y12158D01*
X24206D01*
Y12492D01*
X23956Y12158D02*
Y12325D01*
X23706Y12658D02*
X24206D01*
Y12908D01*
X24123Y12991D01*
X23790D01*
X23706Y12908D01*
Y12658D01*
X24206Y13408D02*
X23706D01*
X23956Y13158D01*
Y13491D01*
X26340Y2642D02*
Y3141D01*
X26590D01*
X26673Y3058D01*
Y2892D01*
X26590Y2808D01*
X26340D01*
X26840Y2642D02*
X27006D01*
X26923D01*
Y3141D01*
X26840Y3058D01*
X28804Y44120D02*
X28304D01*
Y44370D01*
X28387Y44453D01*
X28554D01*
X28637Y44370D01*
Y44120D01*
Y44286D02*
X28804Y44453D01*
Y44620D02*
Y44786D01*
Y44703D01*
X28304D01*
X28387Y44620D01*
X28304Y45036D02*
X28804D01*
Y45369D01*
X33426Y30251D02*
X32927D01*
Y30501D01*
X33010Y30585D01*
X33176D01*
X33260Y30501D01*
Y30251D01*
Y30418D02*
X33426Y30585D01*
Y30751D02*
Y30918D01*
Y30835D01*
X32927D01*
X33010Y30751D01*
X33426Y31168D02*
X32927D01*
Y31418D01*
X33010Y31501D01*
X33176D01*
X33260Y31418D01*
Y31168D01*
Y31334D02*
X33426Y31501D01*
X15251Y44163D02*
Y44662D01*
X15501D01*
X15584Y44579D01*
Y44413D01*
X15501Y44329D01*
X15251D01*
X15418D02*
X15584Y44163D01*
X15751Y44579D02*
X15834Y44662D01*
X16001D01*
X16084Y44579D01*
Y44496D01*
X16001Y44413D01*
X15918D01*
X16001D01*
X16084Y44329D01*
Y44246D01*
X16001Y44163D01*
X15834D01*
X15751Y44246D01*
X16251Y44662D02*
Y44163D01*
X16584D01*
X19863Y30201D02*
Y30700D01*
X20113D01*
X20196Y30617D01*
Y30451D01*
X20113Y30367D01*
X19863D01*
X20029D02*
X20196Y30201D01*
X20363Y30617D02*
X20446Y30700D01*
X20613D01*
X20696Y30617D01*
Y30534D01*
X20613Y30451D01*
X20529D01*
X20613D01*
X20696Y30367D01*
Y30284D01*
X20613Y30201D01*
X20446D01*
X20363Y30284D01*
X20862Y30201D02*
Y30700D01*
X21112D01*
X21196Y30617D01*
Y30451D01*
X21112Y30367D01*
X20862D01*
X21029D02*
X21196Y30201D01*
X20879Y38252D02*
Y38752D01*
X21129D01*
X21212Y38669D01*
Y38502D01*
X21129Y38419D01*
X20879D01*
X21045D02*
X21212Y38252D01*
X21629D02*
Y38752D01*
X21379Y38502D01*
X21712D01*
X21878Y38752D02*
Y38252D01*
X22212D01*
X25527Y24435D02*
Y24935D01*
X25777D01*
X25860Y24851D01*
Y24685D01*
X25777Y24601D01*
X25527D01*
X25694D02*
X25860Y24435D01*
X26277D02*
Y24935D01*
X26027Y24685D01*
X26360D01*
X26527Y24435D02*
Y24935D01*
X26777D01*
X26860Y24851D01*
Y24685D01*
X26777Y24601D01*
X26527D01*
X26693D02*
X26860Y24435D01*
X38684Y43536D02*
X38184D01*
Y43786D01*
X38268Y43869D01*
X38434D01*
X38518Y43786D01*
Y43536D01*
Y43702D02*
X38684Y43869D01*
X38184Y44369D02*
Y44035D01*
X38434D01*
X38351Y44202D01*
Y44285D01*
X38434Y44369D01*
X38601D01*
X38684Y44285D01*
Y44119D01*
X38601Y44035D01*
X38184Y44535D02*
X38684D01*
Y44868D01*
X43383Y29693D02*
X42883D01*
Y29943D01*
X42967Y30026D01*
X43133D01*
X43217Y29943D01*
Y29693D01*
Y29859D02*
X43383Y30026D01*
X42883Y30526D02*
Y30192D01*
X43133D01*
X43050Y30359D01*
Y30442D01*
X43133Y30526D01*
X43300D01*
X43383Y30442D01*
Y30276D01*
X43300Y30192D01*
X43383Y30692D02*
X42883D01*
Y30942D01*
X42967Y31025D01*
X43133D01*
X43217Y30942D01*
Y30692D01*
Y30859D02*
X43383Y31025D01*
X32110Y44157D02*
X31610D01*
Y44407D01*
X31693Y44490D01*
X31860D01*
X31943Y44407D01*
Y44157D01*
Y44323D02*
X32110Y44490D01*
X31610Y44990D02*
X31693Y44823D01*
X31860Y44657D01*
X32026D01*
X32110Y44740D01*
Y44907D01*
X32026Y44990D01*
X31943D01*
X31860Y44907D01*
Y44657D01*
X31610Y45156D02*
X32110D01*
Y45490D01*
X36787Y30303D02*
X36287D01*
Y30553D01*
X36371Y30636D01*
X36537D01*
X36621Y30553D01*
Y30303D01*
Y30470D02*
X36787Y30636D01*
X36287Y31136D02*
X36371Y30969D01*
X36537Y30803D01*
X36704D01*
X36787Y30886D01*
Y31053D01*
X36704Y31136D01*
X36621D01*
X36537Y31053D01*
Y30803D01*
X36787Y31303D02*
X36287D01*
Y31552D01*
X36371Y31636D01*
X36537D01*
X36621Y31552D01*
Y31303D01*
Y31469D02*
X36787Y31636D01*
X57353Y44780D02*
Y45280D01*
X57603D01*
X57686Y45197D01*
Y45030D01*
X57603Y44947D01*
X57353D01*
X57520D02*
X57686Y44780D01*
X57853Y45197D02*
X57936Y45280D01*
X58103D01*
X58186Y45197D01*
Y45113D01*
X58103Y45030D01*
X58186Y44947D01*
Y44864D01*
X58103Y44780D01*
X57936D01*
X57853Y44864D01*
Y44947D01*
X57936Y45030D01*
X57853Y45113D01*
Y45197D01*
X57936Y45030D02*
X58103D01*
X58353Y45280D02*
Y44780D01*
X58686D01*
X62001Y30963D02*
Y31462D01*
X62251D01*
X62335Y31379D01*
Y31213D01*
X62251Y31129D01*
X62001D01*
X62168D02*
X62335Y30963D01*
X62501Y31379D02*
X62585Y31462D01*
X62751D01*
X62834Y31379D01*
Y31296D01*
X62751Y31213D01*
X62834Y31129D01*
Y31046D01*
X62751Y30963D01*
X62585D01*
X62501Y31046D01*
Y31129D01*
X62585Y31213D01*
X62501Y31296D01*
Y31379D01*
X62585Y31213D02*
X62751D01*
X63001Y30963D02*
Y31462D01*
X63251D01*
X63334Y31379D01*
Y31213D01*
X63251Y31129D01*
X63001D01*
X63168D02*
X63334Y30963D01*
X26797Y42012D02*
X26297D01*
Y42262D01*
X26380Y42345D01*
X26547D01*
X26630Y42262D01*
Y42012D01*
Y42178D02*
X26797Y42345D01*
Y42511D02*
Y42678D01*
Y42595D01*
X26297D01*
X26380Y42511D01*
Y42928D02*
X26297Y43011D01*
Y43178D01*
X26380Y43261D01*
X26714D01*
X26797Y43178D01*
Y43011D01*
X26714Y42928D01*
X26380D01*
X26297Y43428D02*
X26797D01*
Y43761D01*
X31445Y28143D02*
X30945D01*
Y28393D01*
X31029Y28476D01*
X31195D01*
X31279Y28393D01*
Y28143D01*
Y28310D02*
X31445Y28476D01*
Y28643D02*
Y28810D01*
Y28726D01*
X30945D01*
X31029Y28643D01*
Y29060D02*
X30945Y29143D01*
Y29309D01*
X31029Y29393D01*
X31362D01*
X31445Y29309D01*
Y29143D01*
X31362Y29060D01*
X31029D01*
X31445Y29559D02*
X30945D01*
Y29809D01*
X31029Y29893D01*
X31195D01*
X31279Y29809D01*
Y29559D01*
Y29726D02*
X31445Y29893D01*
X36779Y41478D02*
Y41978D01*
X37029D01*
X37112Y41895D01*
Y41728D01*
X37029Y41645D01*
X36779D01*
X36946D02*
X37112Y41478D01*
X37279D02*
X37446D01*
X37362D01*
Y41978D01*
X37279Y41895D01*
X37696D02*
X37779Y41978D01*
X37945D01*
X38029Y41895D01*
Y41811D01*
X37945Y41728D01*
X37862D01*
X37945D01*
X38029Y41645D01*
Y41562D01*
X37945Y41478D01*
X37779D01*
X37696Y41562D01*
X38195Y41978D02*
Y41478D01*
X38529D01*
X41326Y27762D02*
Y28262D01*
X41576D01*
X41659Y28179D01*
Y28012D01*
X41576Y27929D01*
X41326D01*
X41492D02*
X41659Y27762D01*
X41826D02*
X41992D01*
X41909D01*
Y28262D01*
X41826Y28179D01*
X42242D02*
X42325Y28262D01*
X42492D01*
X42575Y28179D01*
Y28095D01*
X42492Y28012D01*
X42409D01*
X42492D01*
X42575Y27929D01*
Y27846D01*
X42492Y27762D01*
X42325D01*
X42242Y27846D01*
X42742Y27762D02*
Y28262D01*
X42992D01*
X43075Y28179D01*
Y28012D01*
X42992Y27929D01*
X42742D01*
X42909D02*
X43075Y27762D01*
X36746Y40082D02*
Y40582D01*
X36996D01*
X37079Y40498D01*
Y40332D01*
X36996Y40248D01*
X36746D01*
X36912D02*
X37079Y40082D01*
X37579D02*
X37246D01*
X37579Y40415D01*
Y40498D01*
X37496Y40582D01*
X37329D01*
X37246Y40498D01*
X37745Y40082D02*
X37912D01*
X37829D01*
Y40582D01*
X37745Y40498D01*
X38162Y40582D02*
Y40082D01*
X38495D01*
X41402Y26365D02*
Y26865D01*
X41652D01*
X41735Y26782D01*
Y26615D01*
X41652Y26532D01*
X41402D01*
X41569D02*
X41735Y26365D01*
X42235D02*
X41902D01*
X42235Y26698D01*
Y26782D01*
X42152Y26865D01*
X41985D01*
X41902Y26782D01*
X42402Y26365D02*
X42568D01*
X42485D01*
Y26865D01*
X42402Y26782D01*
X42818Y26365D02*
Y26865D01*
X43068D01*
X43151Y26782D01*
Y26615D01*
X43068Y26532D01*
X42818D01*
X42985D02*
X43151Y26365D01*
X35408Y42139D02*
X34908D01*
Y42389D01*
X34991Y42472D01*
X35158D01*
X35241Y42389D01*
Y42139D01*
Y42305D02*
X35408Y42472D01*
Y42972D02*
Y42638D01*
X35074Y42972D01*
X34991D01*
X34908Y42888D01*
Y42722D01*
X34991Y42638D01*
Y43138D02*
X34908Y43222D01*
Y43388D01*
X34991Y43472D01*
X35074D01*
X35158Y43388D01*
Y43305D01*
Y43388D01*
X35241Y43472D01*
X35324D01*
X35408Y43388D01*
Y43222D01*
X35324Y43138D01*
X34908Y43638D02*
X35408D01*
Y43971D01*
X40081Y28118D02*
X39581D01*
Y28368D01*
X39665Y28451D01*
X39831D01*
X39915Y28368D01*
Y28118D01*
Y28284D02*
X40081Y28451D01*
Y28951D02*
Y28618D01*
X39748Y28951D01*
X39665D01*
X39581Y28868D01*
Y28701D01*
X39665Y28618D01*
Y29117D02*
X39581Y29201D01*
Y29367D01*
X39665Y29451D01*
X39748D01*
X39831Y29367D01*
Y29284D01*
Y29367D01*
X39915Y29451D01*
X39998D01*
X40081Y29367D01*
Y29201D01*
X39998Y29117D01*
X40081Y29617D02*
X39581D01*
Y29867D01*
X39665Y29951D01*
X39831D01*
X39915Y29867D01*
Y29617D01*
Y29784D02*
X40081Y29951D01*
X62662Y42596D02*
X62162D01*
Y42846D01*
X62245Y42929D01*
X62412D01*
X62495Y42846D01*
Y42596D01*
Y42762D02*
X62662Y42929D01*
Y43429D02*
Y43096D01*
X62329Y43429D01*
X62245D01*
X62162Y43346D01*
Y43179D01*
X62245Y43096D01*
X62662Y43845D02*
X62162D01*
X62412Y43595D01*
Y43929D01*
X62162Y44095D02*
X62662D01*
Y44429D01*
X67361Y28727D02*
X66861D01*
Y28977D01*
X66944Y29061D01*
X67111D01*
X67194Y28977D01*
Y28727D01*
Y28894D02*
X67361Y29061D01*
Y29560D02*
Y29227D01*
X67028Y29560D01*
X66944D01*
X66861Y29477D01*
Y29311D01*
X66944Y29227D01*
X67361Y29977D02*
X66861D01*
X67111Y29727D01*
Y30060D01*
X67361Y30227D02*
X66861D01*
Y30477D01*
X66944Y30560D01*
X67111D01*
X67194Y30477D01*
Y30227D01*
Y30394D02*
X67361Y30560D01*
X15048Y42562D02*
Y43062D01*
X15298D01*
X15381Y42979D01*
Y42812D01*
X15298Y42729D01*
X15048D01*
X15215D02*
X15381Y42562D01*
X15881D02*
X15548D01*
X15881Y42896D01*
Y42979D01*
X15798Y43062D01*
X15631D01*
X15548Y42979D01*
X16048Y43062D02*
X16381D01*
Y42979D01*
X16048Y42646D01*
Y42562D01*
X16548Y43062D02*
Y42562D01*
X16881D01*
X19609Y28804D02*
Y29303D01*
X19859D01*
X19942Y29220D01*
Y29054D01*
X19859Y28970D01*
X19609D01*
X19775D02*
X19942Y28804D01*
X20442D02*
X20109D01*
X20442Y29137D01*
Y29220D01*
X20359Y29303D01*
X20192D01*
X20109Y29220D01*
X20608Y29303D02*
X20942D01*
Y29220D01*
X20608Y28887D01*
Y28804D01*
X21108D02*
Y29303D01*
X21358D01*
X21442Y29220D01*
Y29054D01*
X21358Y28970D01*
X21108D01*
X21275D02*
X21442Y28804D01*
X14984Y41165D02*
Y41665D01*
X15234D01*
X15317Y41582D01*
Y41415D01*
X15234Y41332D01*
X14984D01*
X15150D02*
X15317Y41165D01*
X15817D02*
X15483D01*
X15817Y41499D01*
Y41582D01*
X15733Y41665D01*
X15567D01*
X15483Y41582D01*
X15983D02*
X16067Y41665D01*
X16233D01*
X16316Y41582D01*
Y41499D01*
X16233Y41415D01*
X16316Y41332D01*
Y41249D01*
X16233Y41165D01*
X16067D01*
X15983Y41249D01*
Y41332D01*
X16067Y41415D01*
X15983Y41499D01*
Y41582D01*
X16067Y41415D02*
X16233D01*
X16483Y41665D02*
Y41165D01*
X16816D01*
X19558Y27330D02*
Y27830D01*
X19808D01*
X19891Y27747D01*
Y27580D01*
X19808Y27497D01*
X19558D01*
X19725D02*
X19891Y27330D01*
X20391D02*
X20058D01*
X20391Y27664D01*
Y27747D01*
X20308Y27830D01*
X20141D01*
X20058Y27747D01*
X20558D02*
X20641Y27830D01*
X20808D01*
X20891Y27747D01*
Y27664D01*
X20808Y27580D01*
X20891Y27497D01*
Y27414D01*
X20808Y27330D01*
X20641D01*
X20558Y27414D01*
Y27497D01*
X20641Y27580D01*
X20558Y27664D01*
Y27747D01*
X20641Y27580D02*
X20808D01*
X21058Y27330D02*
Y27830D01*
X21307D01*
X21391Y27747D01*
Y27580D01*
X21307Y27497D01*
X21058D01*
X21224D02*
X21391Y27330D01*
X47574Y41681D02*
X47074D01*
Y41931D01*
X47158Y42015D01*
X47324D01*
X47408Y41931D01*
Y41681D01*
Y41848D02*
X47574Y42015D01*
Y42514D02*
Y42181D01*
X47241Y42514D01*
X47158D01*
X47074Y42431D01*
Y42265D01*
X47158Y42181D01*
X47491Y42681D02*
X47574Y42764D01*
Y42931D01*
X47491Y43014D01*
X47158D01*
X47074Y42931D01*
Y42764D01*
X47158Y42681D01*
X47241D01*
X47324Y42764D01*
Y43014D01*
X47074Y43181D02*
X47574D01*
Y43514D01*
X52219Y27874D02*
X51719D01*
Y28124D01*
X51802Y28207D01*
X51969D01*
X52052Y28124D01*
Y27874D01*
Y28041D02*
X52219Y28207D01*
Y28707D02*
Y28374D01*
X51886Y28707D01*
X51802D01*
X51719Y28624D01*
Y28457D01*
X51802Y28374D01*
X52136Y28874D02*
X52219Y28957D01*
Y29124D01*
X52136Y29207D01*
X51802D01*
X51719Y29124D01*
Y28957D01*
X51802Y28874D01*
X51886D01*
X51969Y28957D01*
Y29207D01*
X52219Y29374D02*
X51719D01*
Y29624D01*
X51802Y29707D01*
X51969D01*
X52052Y29624D01*
Y29374D01*
Y29540D02*
X52219Y29707D01*
X57226Y38024D02*
Y38524D01*
X57476D01*
X57559Y38440D01*
Y38274D01*
X57476Y38190D01*
X57226D01*
X57393D02*
X57559Y38024D01*
X57726Y38440D02*
X57809Y38524D01*
X57976D01*
X58059Y38440D01*
Y38357D01*
X57976Y38274D01*
X57893D01*
X57976D01*
X58059Y38190D01*
Y38107D01*
X57976Y38024D01*
X57809D01*
X57726Y38107D01*
X58226Y38024D02*
X58392D01*
X58309D01*
Y38524D01*
X58226Y38440D01*
X58642Y38524D02*
Y38024D01*
X58976D01*
X61824Y24155D02*
Y24655D01*
X62074D01*
X62157Y24572D01*
Y24405D01*
X62074Y24322D01*
X61824D01*
X61990D02*
X62157Y24155D01*
X62323Y24572D02*
X62407Y24655D01*
X62573D01*
X62657Y24572D01*
Y24489D01*
X62573Y24405D01*
X62490D01*
X62573D01*
X62657Y24322D01*
Y24239D01*
X62573Y24155D01*
X62407D01*
X62323Y24239D01*
X62823Y24155D02*
X62990D01*
X62907D01*
Y24655D01*
X62823Y24572D01*
X63240Y24155D02*
Y24655D01*
X63490D01*
X63573Y24572D01*
Y24405D01*
X63490Y24322D01*
X63240D01*
X63406D02*
X63573Y24155D01*
X42113Y45949D02*
Y46448D01*
X42363D01*
X42446Y46365D01*
Y46199D01*
X42363Y46115D01*
X42113D01*
X42280D02*
X42446Y45949D01*
X42613Y46365D02*
X42696Y46448D01*
X42863D01*
X42946Y46365D01*
Y46282D01*
X42863Y46199D01*
X42780D01*
X42863D01*
X42946Y46115D01*
Y46032D01*
X42863Y45949D01*
X42696D01*
X42613Y46032D01*
X43446Y45949D02*
X43113D01*
X43446Y46282D01*
Y46365D01*
X43363Y46448D01*
X43196D01*
X43113Y46365D01*
X43613Y46448D02*
Y45949D01*
X43946D01*
X46711Y32055D02*
Y32555D01*
X46961D01*
X47044Y32471D01*
Y32305D01*
X46961Y32221D01*
X46711D01*
X46877D02*
X47044Y32055D01*
X47210Y32471D02*
X47294Y32555D01*
X47460D01*
X47544Y32471D01*
Y32388D01*
X47460Y32305D01*
X47377D01*
X47460D01*
X47544Y32221D01*
Y32138D01*
X47460Y32055D01*
X47294D01*
X47210Y32138D01*
X48043Y32055D02*
X47710D01*
X48043Y32388D01*
Y32471D01*
X47960Y32555D01*
X47794D01*
X47710Y32471D01*
X48210Y32055D02*
Y32555D01*
X48460D01*
X48543Y32471D01*
Y32305D01*
X48460Y32221D01*
X48210D01*
X48377D02*
X48543Y32055D01*
X52412Y38702D02*
X51912D01*
Y38952D01*
X51996Y39035D01*
X52162D01*
X52246Y38952D01*
Y38702D01*
Y38868D02*
X52412Y39035D01*
X51996Y39202D02*
X51912Y39285D01*
Y39451D01*
X51996Y39535D01*
X52079D01*
X52162Y39451D01*
Y39368D01*
Y39451D01*
X52246Y39535D01*
X52329D01*
X52412Y39451D01*
Y39285D01*
X52329Y39202D01*
X51996Y39701D02*
X51912Y39785D01*
Y39951D01*
X51996Y40035D01*
X52079D01*
X52162Y39951D01*
Y39868D01*
Y39951D01*
X52246Y40035D01*
X52329D01*
X52412Y39951D01*
Y39785D01*
X52329Y39701D01*
X51912Y40201D02*
X52412D01*
Y40534D01*
X57089Y24818D02*
X56589D01*
Y25068D01*
X56672Y25152D01*
X56839D01*
X56922Y25068D01*
Y24818D01*
Y24985D02*
X57089Y25152D01*
X56672Y25318D02*
X56589Y25401D01*
Y25568D01*
X56672Y25651D01*
X56756D01*
X56839Y25568D01*
Y25485D01*
Y25568D01*
X56922Y25651D01*
X57006D01*
X57089Y25568D01*
Y25401D01*
X57006Y25318D01*
X56672Y25818D02*
X56589Y25901D01*
Y26068D01*
X56672Y26151D01*
X56756D01*
X56839Y26068D01*
Y25985D01*
Y26068D01*
X56922Y26151D01*
X57006D01*
X57089Y26068D01*
Y25901D01*
X57006Y25818D01*
X57089Y26318D02*
X56589D01*
Y26568D01*
X56672Y26651D01*
X56839D01*
X56922Y26568D01*
Y26318D01*
Y26484D02*
X57089Y26651D01*
X26642Y38751D02*
Y38335D01*
X26726Y38251D01*
X26892D01*
X26975Y38335D01*
Y38751D01*
X27475D02*
X27309Y38668D01*
X27142Y38501D01*
Y38335D01*
X27225Y38251D01*
X27392D01*
X27475Y38335D01*
Y38418D01*
X27392Y38501D01*
X27142D01*
X27642Y38751D02*
Y38251D01*
X27975D01*
X31471Y25214D02*
Y24798D01*
X31554Y24714D01*
X31721D01*
X31804Y24798D01*
Y25214D01*
X32304D02*
X32137Y25131D01*
X31970Y24964D01*
Y24798D01*
X32054Y24714D01*
X32220D01*
X32304Y24798D01*
Y24881D01*
X32220Y24964D01*
X31970D01*
X32470Y24714D02*
Y25214D01*
X32720D01*
X32804Y25131D01*
Y24964D01*
X32720Y24881D01*
X32470D01*
X32637D02*
X32804Y24714D01*
X57596Y41406D02*
Y40989D01*
X57680Y40906D01*
X57846D01*
X57930Y40989D01*
Y41406D01*
X58096D02*
X58429D01*
Y41323D01*
X58096Y40989D01*
Y40906D01*
X58596Y41406D02*
Y40906D01*
X58929D01*
X62268Y27563D02*
Y27146D01*
X62352Y27063D01*
X62518D01*
X62602Y27146D01*
Y27563D01*
X62768D02*
X63101D01*
Y27480D01*
X62768Y27146D01*
Y27063D01*
X63268D02*
Y27563D01*
X63518D01*
X63601Y27480D01*
Y27313D01*
X63518Y27230D01*
X63268D01*
X63435D02*
X63601Y27063D01*
X20646Y43739D02*
Y43322D01*
X20729Y43239D01*
X20895D01*
X20979Y43322D01*
Y43739D01*
X21145Y43656D02*
X21229Y43739D01*
X21395D01*
X21479Y43656D01*
Y43572D01*
X21395Y43489D01*
X21479Y43406D01*
Y43322D01*
X21395Y43239D01*
X21229D01*
X21145Y43322D01*
Y43406D01*
X21229Y43489D01*
X21145Y43572D01*
Y43656D01*
X21229Y43489D02*
X21395D01*
X21645Y43739D02*
Y43239D01*
X21978D01*
X25324Y29557D02*
Y29141D01*
X25407Y29058D01*
X25574D01*
X25657Y29141D01*
Y29557D01*
X25824Y29474D02*
X25907Y29557D01*
X26074D01*
X26157Y29474D01*
Y29391D01*
X26074Y29308D01*
X26157Y29224D01*
Y29141D01*
X26074Y29058D01*
X25907D01*
X25824Y29141D01*
Y29224D01*
X25907Y29308D01*
X25824Y29391D01*
Y29474D01*
X25907Y29308D02*
X26074D01*
X26323Y29058D02*
Y29557D01*
X26573D01*
X26657Y29474D01*
Y29308D01*
X26573Y29224D01*
X26323D01*
X26490D02*
X26657Y29058D01*
X41912Y42564D02*
Y42148D01*
X41996Y42065D01*
X42162D01*
X42245Y42148D01*
Y42564D01*
X42412Y42065D02*
X42579D01*
X42495D01*
Y42564D01*
X42412Y42481D01*
X42829D02*
X42912Y42564D01*
X43078D01*
X43162Y42481D01*
Y42148D01*
X43078Y42065D01*
X42912D01*
X42829Y42148D01*
Y42481D01*
X43328Y42564D02*
Y42065D01*
X43662D01*
X49912Y27582D02*
Y27998D01*
X49829Y28081D01*
X49662D01*
X49579Y27998D01*
Y27582D01*
X49412Y28081D02*
X49246D01*
X49329D01*
Y27582D01*
X49412Y27665D01*
X48996D02*
X48912Y27582D01*
X48746D01*
X48662Y27665D01*
Y27998D01*
X48746Y28081D01*
X48912D01*
X48996Y27998D01*
Y27665D01*
X48496Y28081D02*
Y27582D01*
X48246D01*
X48163Y27665D01*
Y27831D01*
X48246Y27915D01*
X48496D01*
X48329D02*
X48163Y28081D01*
X31852Y6774D02*
Y6357D01*
X31935Y6274D01*
X32102D01*
X32185Y6357D01*
Y6774D01*
X32351Y6274D02*
X32518D01*
X32435D01*
Y6774D01*
X32351Y6690D01*
X33018Y6274D02*
Y6774D01*
X32768Y6524D01*
X33101D01*
X26634Y11839D02*
X26551Y11756D01*
Y11590D01*
X26634Y11506D01*
X26968D01*
X27051Y11590D01*
Y11756D01*
X26968Y11839D01*
X26634Y12006D02*
X26551Y12089D01*
Y12256D01*
X26634Y12339D01*
X26718D01*
X26801Y12256D01*
Y12173D01*
Y12256D01*
X26884Y12339D01*
X26968D01*
X27051Y12256D01*
Y12089D01*
X26968Y12006D01*
X26634Y12506D02*
X26551Y12589D01*
Y12756D01*
X26634Y12839D01*
X26718D01*
X26801Y12756D01*
Y12672D01*
Y12756D01*
X26884Y12839D01*
X26968D01*
X27051Y12756D01*
Y12589D01*
X26968Y12506D01*
X32832Y12957D02*
X32749Y12874D01*
Y12707D01*
X32832Y12624D01*
X33165D01*
X33249Y12707D01*
Y12874D01*
X33165Y12957D01*
X32832Y13124D02*
X32749Y13207D01*
Y13374D01*
X32832Y13457D01*
X32915D01*
X32999Y13374D01*
Y13290D01*
Y13374D01*
X33082Y13457D01*
X33165D01*
X33249Y13374D01*
Y13207D01*
X33165Y13124D01*
X32749Y13957D02*
X32832Y13790D01*
X32999Y13623D01*
X33165D01*
X33249Y13707D01*
Y13873D01*
X33165Y13957D01*
X33082D01*
X32999Y13873D01*
Y13623D01*
X23078Y1857D02*
X22995Y1774D01*
Y1607D01*
X23078Y1524D01*
X23412D01*
X23495Y1607D01*
Y1774D01*
X23412Y1857D01*
X23078Y2024D02*
X22995Y2107D01*
Y2274D01*
X23078Y2357D01*
X23162D01*
X23245Y2274D01*
Y2190D01*
Y2274D01*
X23328Y2357D01*
X23412D01*
X23495Y2274D01*
Y2107D01*
X23412Y2024D01*
X22995Y2524D02*
Y2857D01*
X23078D01*
X23412Y2524D01*
X23495D01*
X21707Y1857D02*
X21624Y1774D01*
Y1607D01*
X21707Y1524D01*
X22040D01*
X22123Y1607D01*
Y1774D01*
X22040Y1857D01*
X21707Y2024D02*
X21624Y2107D01*
Y2274D01*
X21707Y2357D01*
X21790D01*
X21873Y2274D01*
Y2190D01*
Y2274D01*
X21957Y2357D01*
X22040D01*
X22123Y2274D01*
Y2107D01*
X22040Y2024D01*
X21707Y2524D02*
X21624Y2607D01*
Y2774D01*
X21707Y2857D01*
X21790D01*
X21873Y2774D01*
X21957Y2857D01*
X22040D01*
X22123Y2774D01*
Y2607D01*
X22040Y2524D01*
X21957D01*
X21873Y2607D01*
X21790Y2524D01*
X21707D01*
X21873Y2607D02*
Y2774D01*
X20361Y1806D02*
X20277Y1723D01*
Y1557D01*
X20361Y1473D01*
X20694D01*
X20777Y1557D01*
Y1723D01*
X20694Y1806D01*
X20361Y1973D02*
X20277Y2056D01*
Y2223D01*
X20361Y2306D01*
X20444D01*
X20527Y2223D01*
Y2140D01*
Y2223D01*
X20611Y2306D01*
X20694D01*
X20777Y2223D01*
Y2056D01*
X20694Y1973D01*
Y2473D02*
X20777Y2556D01*
Y2723D01*
X20694Y2806D01*
X20361D01*
X20277Y2723D01*
Y2556D01*
X20361Y2473D01*
X20444D01*
X20527Y2556D01*
Y2806D01*
X25809Y9662D02*
X25726Y9745D01*
X25560D01*
X25476Y9662D01*
Y9329D01*
X25560Y9246D01*
X25726D01*
X25809Y9329D01*
X26226Y9246D02*
Y9745D01*
X25976Y9496D01*
X26309D01*
X26476Y9662D02*
X26559Y9745D01*
X26726D01*
X26809Y9662D01*
Y9329D01*
X26726Y9246D01*
X26559D01*
X26476Y9329D01*
Y9662D01*
X29809Y7394D02*
X29726Y7311D01*
Y7145D01*
X29809Y7061D01*
X30143D01*
X30226Y7145D01*
Y7311D01*
X30143Y7394D01*
X30226Y7811D02*
X29726D01*
X29976Y7561D01*
Y7894D01*
X30226Y8061D02*
Y8227D01*
Y8144D01*
X29726D01*
X29809Y8061D01*
X25502Y12141D02*
X25002D01*
Y12391D01*
X25085Y12474D01*
X25252D01*
X25335Y12391D01*
Y12141D01*
Y12308D02*
X25502Y12474D01*
Y12974D02*
Y12641D01*
X25168Y12974D01*
X25085D01*
X25002Y12891D01*
Y12724D01*
X25085Y12641D01*
X25781Y6858D02*
Y7358D01*
X26031D01*
X26114Y7275D01*
Y7108D01*
X26031Y7025D01*
X25781D01*
X25948D02*
X26114Y6858D01*
X26281Y6941D02*
X26364Y6858D01*
X26531D01*
X26614Y6941D01*
Y7275D01*
X26531Y7358D01*
X26364D01*
X26281Y7275D01*
Y7191D01*
X26364Y7108D01*
X26614D01*
X28854Y7137D02*
X28355D01*
Y7387D01*
X28438Y7471D01*
X28604D01*
X28688Y7387D01*
Y7137D01*
Y7304D02*
X28854Y7471D01*
Y7637D02*
Y7804D01*
Y7721D01*
X28355D01*
X28438Y7637D01*
Y8054D02*
X28355Y8137D01*
Y8304D01*
X28438Y8387D01*
X28521D01*
X28604Y8304D01*
X28688Y8387D01*
X28771D01*
X28854Y8304D01*
Y8137D01*
X28771Y8054D01*
X28688D01*
X28604Y8137D01*
X28521Y8054D01*
X28438D01*
X28604Y8137D02*
Y8304D01*
X30455Y12438D02*
Y12021D01*
X30538Y11938D01*
X30705D01*
X30788Y12021D01*
Y12438D01*
X30954Y11938D02*
X31121D01*
X31038D01*
Y12438D01*
X30954Y12355D01*
X31371Y11938D02*
X31538D01*
X31454D01*
Y12438D01*
X31371Y12355D01*
X17134Y9233D02*
X17051Y9316D01*
X16884D01*
X16801Y9233D01*
Y8900D01*
X16884Y8816D01*
X17051D01*
X17134Y8900D01*
X17300Y8816D02*
X17467D01*
X17384D01*
Y9316D01*
X17300Y9233D01*
X18050Y9316D02*
X17717D01*
Y9066D01*
X17884Y9150D01*
X17967D01*
X18050Y9066D01*
Y8900D01*
X17967Y8816D01*
X17800D01*
X17717Y8900D01*
X24298Y15700D02*
X24214Y15617D01*
Y15450D01*
X24298Y15367D01*
X24631D01*
X24714Y15450D01*
Y15617D01*
X24631Y15700D01*
X24714Y16200D02*
Y15867D01*
X24381Y16200D01*
X24298D01*
X24214Y16117D01*
Y15950D01*
X24298Y15867D01*
X24714Y16367D02*
Y16533D01*
Y16450D01*
X24214D01*
X24298Y16367D01*
X30991Y18654D02*
X30908Y18737D01*
X30741D01*
X30658Y18654D01*
Y18321D01*
X30741Y18237D01*
X30908D01*
X30991Y18321D01*
X31491Y18237D02*
X31158D01*
X31491Y18570D01*
Y18654D01*
X31408Y18737D01*
X31241D01*
X31158Y18654D01*
X31991Y18237D02*
X31657D01*
X31991Y18570D01*
Y18654D01*
X31907Y18737D01*
X31741D01*
X31657Y18654D01*
X15045Y2108D02*
X15545D01*
Y2441D01*
X15045Y2941D02*
Y2608D01*
X15545D01*
Y2941D01*
X15295Y2608D02*
Y2775D01*
X15045Y3108D02*
X15545D01*
Y3358D01*
X15461Y3441D01*
X15128D01*
X15045Y3358D01*
Y3108D01*
X15545Y3608D02*
Y3774D01*
Y3691D01*
X15045D01*
X15128Y3608D01*
X16671Y2210D02*
X17170D01*
Y2543D01*
X16671Y3043D02*
Y2710D01*
X17170D01*
Y3043D01*
X16920Y2710D02*
Y2876D01*
X16671Y3209D02*
X17170D01*
Y3459D01*
X17087Y3543D01*
X16754D01*
X16671Y3459D01*
Y3209D01*
X17170Y4043D02*
Y3709D01*
X16837Y4043D01*
X16754D01*
X16671Y3959D01*
Y3793D01*
X16754Y3709D01*
X13470Y2235D02*
X13970D01*
Y2568D01*
X13470Y3068D02*
Y2735D01*
X13970D01*
Y3068D01*
X13720Y2735D02*
Y2902D01*
X13470Y3235D02*
X13970D01*
Y3485D01*
X13887Y3568D01*
X13553D01*
X13470Y3485D01*
Y3235D01*
X13553Y3735D02*
X13470Y3818D01*
Y3985D01*
X13553Y4068D01*
X13637D01*
X13720Y3985D01*
Y3901D01*
Y3985D01*
X13803Y4068D01*
X13887D01*
X13970Y3985D01*
Y3818D01*
X13887Y3735D01*
X14331Y9743D02*
X13831D01*
Y9993D01*
X13915Y10076D01*
X14081D01*
X14165Y9993D01*
Y9743D01*
Y9910D02*
X14331Y10076D01*
Y10243D02*
Y10409D01*
Y10326D01*
X13831D01*
X13915Y10243D01*
X14331Y10909D02*
X13831D01*
X14081Y10659D01*
Y10992D01*
X15570Y5537D02*
X15070D01*
Y5787D01*
X15154Y5870D01*
X15320D01*
X15404Y5787D01*
Y5537D01*
Y5704D02*
X15570Y5870D01*
Y6037D02*
Y6204D01*
Y6120D01*
X15070D01*
X15154Y6037D01*
X15070Y6787D02*
Y6454D01*
X15320D01*
X15237Y6620D01*
Y6703D01*
X15320Y6787D01*
X15487D01*
X15570Y6703D01*
Y6537D01*
X15487Y6454D01*
X17170Y5588D02*
X16671D01*
Y5838D01*
X16754Y5921D01*
X16920D01*
X17004Y5838D01*
Y5588D01*
Y5755D02*
X17170Y5921D01*
Y6088D02*
Y6254D01*
Y6171D01*
X16671D01*
X16754Y6088D01*
X16671Y6838D02*
X16754Y6671D01*
X16920Y6504D01*
X17087D01*
X17170Y6588D01*
Y6754D01*
X17087Y6838D01*
X17004D01*
X16920Y6754D01*
Y6504D01*
X15030Y13487D02*
X14530D01*
Y13737D01*
X14613Y13821D01*
X14780D01*
X14863Y13737D01*
Y13487D01*
Y13654D02*
X15030Y13821D01*
Y13987D02*
Y14154D01*
Y14070D01*
X14530D01*
X14613Y13987D01*
X14530Y14404D02*
Y14737D01*
X14613D01*
X14946Y14404D01*
X15030D01*
X14021Y5588D02*
X13521D01*
Y5838D01*
X13604Y5921D01*
X13771D01*
X13854Y5838D01*
Y5588D01*
Y5755D02*
X14021Y5921D01*
Y6421D02*
Y6088D01*
X13688Y6421D01*
X13604D01*
X13521Y6338D01*
Y6171D01*
X13604Y6088D01*
X13521Y6921D02*
X13604Y6754D01*
X13771Y6588D01*
X13937D01*
X14021Y6671D01*
Y6838D01*
X13937Y6921D01*
X13854D01*
X13771Y6838D01*
Y6588D01*
X23216Y16612D02*
X22716D01*
Y16862D01*
X22799Y16945D01*
X22966D01*
X23049Y16862D01*
Y16612D01*
Y16778D02*
X23216Y16945D01*
X22716Y17445D02*
Y17111D01*
X22966D01*
X22882Y17278D01*
Y17361D01*
X22966Y17445D01*
X23132D01*
X23216Y17361D01*
Y17195D01*
X23132Y17111D01*
X23216Y17944D02*
Y17611D01*
X22882Y17944D01*
X22799D01*
X22716Y17861D01*
Y17695D01*
X22799Y17611D01*
X17078Y12379D02*
Y11962D01*
X17162Y11879D01*
X17328D01*
X17412Y11962D01*
Y12379D01*
X17578Y12296D02*
X17662Y12379D01*
X17828D01*
X17911Y12296D01*
Y12212D01*
X17828Y12129D01*
X17745D01*
X17828D01*
X17911Y12046D01*
Y11962D01*
X17828Y11879D01*
X17662D01*
X17578Y11962D01*
X27102Y17797D02*
Y17381D01*
X27185Y17297D01*
X27352D01*
X27435Y17381D01*
Y17797D01*
X27935D02*
X27602D01*
Y17547D01*
X27768Y17631D01*
X27852D01*
X27935Y17547D01*
Y17381D01*
X27852Y17297D01*
X27685D01*
X27602Y17381D01*
X42875Y14724D02*
Y14307D01*
X42959Y14224D01*
X43125D01*
X43208Y14307D01*
Y14724D01*
X43625Y14224D02*
Y14724D01*
X43375Y14474D01*
X43708D01*
X12932Y36612D02*
X12848Y36695D01*
X12682D01*
X12598Y36612D01*
Y36278D01*
X12682Y36195D01*
X12848D01*
X12932Y36278D01*
X13098Y36612D02*
X13182Y36695D01*
X13348D01*
X13431Y36612D01*
Y36528D01*
X13348Y36445D01*
X13431Y36362D01*
Y36278D01*
X13348Y36195D01*
X13182D01*
X13098Y36278D01*
Y36362D01*
X13182Y36445D01*
X13098Y36528D01*
Y36612D01*
X13182Y36445D02*
X13348D01*
X13598Y36695D02*
Y36195D01*
X13931D01*
X16906Y23701D02*
X16823Y23618D01*
Y23451D01*
X16906Y23368D01*
X17239D01*
X17323Y23451D01*
Y23618D01*
X17239Y23701D01*
X16906Y23868D02*
X16823Y23951D01*
Y24118D01*
X16906Y24201D01*
X16990D01*
X17073Y24118D01*
X17156Y24201D01*
X17239D01*
X17323Y24118D01*
Y23951D01*
X17239Y23868D01*
X17156D01*
X17073Y23951D01*
X16990Y23868D01*
X16906D01*
X17073Y23951D02*
Y24118D01*
X17323Y24368D02*
X16823D01*
Y24618D01*
X16906Y24701D01*
X17073D01*
X17156Y24618D01*
Y24368D01*
Y24534D02*
X17323Y24701D01*
X12043Y45476D02*
X11959Y45559D01*
X11793D01*
X11709Y45476D01*
Y45143D01*
X11793Y45060D01*
X11959D01*
X12043Y45143D01*
X12542Y45060D02*
X12209D01*
X12542Y45393D01*
Y45476D01*
X12459Y45559D01*
X12293D01*
X12209Y45476D01*
X12709Y45143D02*
X12792Y45060D01*
X12959D01*
X13042Y45143D01*
Y45476D01*
X12959Y45559D01*
X12792D01*
X12709Y45476D01*
Y45393D01*
X12792Y45310D01*
X13042D01*
X13209Y45559D02*
Y45060D01*
X13542D01*
X16716Y31455D02*
X16633Y31539D01*
X16466D01*
X16383Y31455D01*
Y31122D01*
X16466Y31039D01*
X16633D01*
X16716Y31122D01*
X17216Y31039D02*
X16883D01*
X17216Y31372D01*
Y31455D01*
X17133Y31539D01*
X16966D01*
X16883Y31455D01*
X17383Y31122D02*
X17466Y31039D01*
X17633D01*
X17716Y31122D01*
Y31455D01*
X17633Y31539D01*
X17466D01*
X17383Y31455D01*
Y31372D01*
X17466Y31289D01*
X17716D01*
X17883Y31039D02*
Y31539D01*
X18132D01*
X18216Y31455D01*
Y31289D01*
X18132Y31205D01*
X17883D01*
X18049D02*
X18216Y31039D01*
X18375Y35592D02*
Y36091D01*
X18625D01*
X18708Y36008D01*
Y35842D01*
X18625Y35758D01*
X18375D01*
X18542D02*
X18708Y35592D01*
X19208D02*
X18875D01*
X19208Y35925D01*
Y36008D01*
X19125Y36091D01*
X18958D01*
X18875Y36008D01*
X19708Y35592D02*
X19375D01*
X19708Y35925D01*
Y36008D01*
X19624Y36091D01*
X19458D01*
X19375Y36008D01*
X19874Y36091D02*
Y35592D01*
X20208D01*
X23266Y22962D02*
Y23461D01*
X23516D01*
X23600Y23378D01*
Y23212D01*
X23516Y23128D01*
X23266D01*
X23433D02*
X23600Y22962D01*
X24099D02*
X23766D01*
X24099Y23295D01*
Y23378D01*
X24016Y23461D01*
X23850D01*
X23766Y23378D01*
X24599Y22962D02*
X24266D01*
X24599Y23295D01*
Y23378D01*
X24516Y23461D01*
X24349D01*
X24266Y23378D01*
X24766Y22962D02*
Y23461D01*
X25016D01*
X25099Y23378D01*
Y23212D01*
X25016Y23128D01*
X24766D01*
X24933D02*
X25099Y22962D01*
X18787Y38445D02*
X18287D01*
Y38695D01*
X18371Y38778D01*
X18537D01*
X18620Y38695D01*
Y38445D01*
Y38611D02*
X18787Y38778D01*
Y39278D02*
Y38945D01*
X18454Y39278D01*
X18371D01*
X18287Y39195D01*
Y39028D01*
X18371Y38945D01*
X18287Y39778D02*
Y39444D01*
X18537D01*
X18454Y39611D01*
Y39694D01*
X18537Y39778D01*
X18704D01*
X18787Y39694D01*
Y39528D01*
X18704Y39444D01*
X18287Y39944D02*
X18787D01*
Y40278D01*
X23444Y24613D02*
X22944D01*
Y24863D01*
X23028Y24946D01*
X23194D01*
X23278Y24863D01*
Y24613D01*
Y24779D02*
X23444Y24946D01*
Y25446D02*
Y25112D01*
X23111Y25446D01*
X23028D01*
X22944Y25362D01*
Y25196D01*
X23028Y25112D01*
X22944Y25945D02*
Y25612D01*
X23194D01*
X23111Y25779D01*
Y25862D01*
X23194Y25945D01*
X23361D01*
X23444Y25862D01*
Y25696D01*
X23361Y25612D01*
X23444Y26112D02*
X22944D01*
Y26362D01*
X23028Y26445D01*
X23194D01*
X23278Y26362D01*
Y26112D01*
Y26279D02*
X23444Y26445D01*
X40103Y38162D02*
Y38662D01*
X40352D01*
X40436Y38579D01*
Y38412D01*
X40352Y38329D01*
X40103D01*
X40269D02*
X40436Y38162D01*
X40602Y38579D02*
X40686Y38662D01*
X40852D01*
X40936Y38579D01*
Y38496D01*
X40852Y38412D01*
X40769D01*
X40852D01*
X40936Y38329D01*
Y38246D01*
X40852Y38162D01*
X40686D01*
X40602Y38246D01*
X41102Y38579D02*
X41185Y38662D01*
X41352D01*
X41435Y38579D01*
Y38246D01*
X41352Y38162D01*
X41185D01*
X41102Y38246D01*
Y38579D01*
X41602Y38662D02*
Y38162D01*
X41935D01*
X44831Y24384D02*
Y24884D01*
X45081D01*
X45164Y24801D01*
Y24634D01*
X45081Y24551D01*
X44831D01*
X44998D02*
X45164Y24384D01*
X45331Y24801D02*
X45414Y24884D01*
X45581D01*
X45664Y24801D01*
Y24717D01*
X45581Y24634D01*
X45497D01*
X45581D01*
X45664Y24551D01*
Y24467D01*
X45581Y24384D01*
X45414D01*
X45331Y24467D01*
X45831Y24801D02*
X45914Y24884D01*
X46081D01*
X46164Y24801D01*
Y24467D01*
X46081Y24384D01*
X45914D01*
X45831Y24467D01*
Y24801D01*
X46331Y24384D02*
Y24884D01*
X46580D01*
X46664Y24801D01*
Y24634D01*
X46580Y24551D01*
X46331D01*
X46497D02*
X46664Y24384D01*
X40141Y36783D02*
Y37283D01*
X40391D01*
X40474Y37200D01*
Y37033D01*
X40391Y36950D01*
X40141D01*
X40308D02*
X40474Y36783D01*
X40641Y37200D02*
X40724Y37283D01*
X40891D01*
X40974Y37200D01*
Y37116D01*
X40891Y37033D01*
X40808D01*
X40891D01*
X40974Y36950D01*
Y36866D01*
X40891Y36783D01*
X40724D01*
X40641Y36866D01*
X41391Y36783D02*
Y37283D01*
X41141Y37033D01*
X41474D01*
X41641Y37283D02*
Y36783D01*
X41974D01*
X44755Y22987D02*
Y23487D01*
X45005D01*
X45088Y23404D01*
Y23237D01*
X45005Y23154D01*
X44755D01*
X44921D02*
X45088Y22987D01*
X45255Y23404D02*
X45338Y23487D01*
X45505D01*
X45588Y23404D01*
Y23320D01*
X45505Y23237D01*
X45421D01*
X45505D01*
X45588Y23154D01*
Y23070D01*
X45505Y22987D01*
X45338D01*
X45255Y23070D01*
X46004Y22987D02*
Y23487D01*
X45754Y23237D01*
X46088D01*
X46254Y22987D02*
Y23487D01*
X46504D01*
X46588Y23404D01*
Y23237D01*
X46504Y23154D01*
X46254D01*
X46421D02*
X46588Y22987D01*
X43713Y37838D02*
Y37421D01*
X43797Y37338D01*
X43963D01*
X44047Y37421D01*
Y37838D01*
X44213Y37338D02*
X44380D01*
X44297D01*
Y37838D01*
X44213Y37755D01*
X44630D02*
X44713Y37838D01*
X44880D01*
X44963Y37755D01*
Y37671D01*
X44880Y37588D01*
X44796D01*
X44880D01*
X44963Y37505D01*
Y37421D01*
X44880Y37338D01*
X44713D01*
X44630Y37421D01*
X45130Y37838D02*
Y37338D01*
X45463D01*
X47895Y23917D02*
Y23500D01*
X47979Y23417D01*
X48145D01*
X48228Y23500D01*
Y23917D01*
X48395Y23417D02*
X48562D01*
X48478D01*
Y23917D01*
X48395Y23834D01*
X48812D02*
X48895Y23917D01*
X49061D01*
X49145Y23834D01*
Y23750D01*
X49061Y23667D01*
X48978D01*
X49061D01*
X49145Y23584D01*
Y23500D01*
X49061Y23417D01*
X48895D01*
X48812Y23500D01*
X49311Y23417D02*
Y23917D01*
X49561D01*
X49645Y23834D01*
Y23667D01*
X49561Y23584D01*
X49311D01*
X49478D02*
X49645Y23417D01*
X5362Y32624D02*
X5279Y32707D01*
X5113D01*
X5029Y32624D01*
Y32540D01*
X5113Y32457D01*
X5279D01*
X5362Y32374D01*
Y32291D01*
X5279Y32207D01*
X5113D01*
X5029Y32291D01*
X5862Y32207D02*
X5529D01*
X5862Y32540D01*
Y32624D01*
X5779Y32707D01*
X5612D01*
X5529Y32624D01*
X8103Y32605D02*
Y32106D01*
X8353D01*
X8436Y32189D01*
Y32522D01*
X8353Y32605D01*
X8103D01*
X8602Y32106D02*
Y32605D01*
X8936Y32106D01*
Y32605D01*
X9102Y32106D02*
Y32605D01*
X9352D01*
X9436Y32522D01*
Y32356D01*
X9352Y32272D01*
X9102D01*
X49378Y49268D02*
Y48768D01*
X49628D01*
X49711Y48851D01*
Y49185D01*
X49628Y49268D01*
X49378D01*
X49877Y48768D02*
Y49268D01*
X50211Y48768D01*
Y49268D01*
X50377Y48768D02*
Y49268D01*
X50627D01*
X50710Y49185D01*
Y49018D01*
X50627Y48935D01*
X50377D01*
X75057Y52138D02*
Y51638D01*
X75307D01*
X75390Y51722D01*
Y52055D01*
X75307Y52138D01*
X75057D01*
X75557Y51638D02*
Y52138D01*
X75890Y51638D01*
Y52138D01*
X76057Y51638D02*
Y52138D01*
X76307D01*
X76390Y52055D01*
Y51888D01*
X76307Y51805D01*
X76057D01*
X80442Y41368D02*
Y40869D01*
X80692D01*
X80775Y40952D01*
Y41285D01*
X80692Y41368D01*
X80442D01*
X80942Y40869D02*
Y41368D01*
X81275Y40869D01*
Y41368D01*
X81441Y40869D02*
Y41368D01*
X81691D01*
X81775Y41285D01*
Y41119D01*
X81691Y41035D01*
X81441D01*
X82626Y20744D02*
Y20244D01*
X82876D01*
X82959Y20327D01*
Y20660D01*
X82876Y20744D01*
X82626D01*
X83126Y20244D02*
Y20744D01*
X83459Y20244D01*
Y20744D01*
X83626Y20244D02*
Y20744D01*
X83876D01*
X83959Y20660D01*
Y20494D01*
X83876Y20410D01*
X83626D01*
X42520Y13174D02*
Y12675D01*
X42770D01*
X42853Y12758D01*
Y13091D01*
X42770Y13174D01*
X42520D01*
X43019Y12675D02*
Y13174D01*
X43353Y12675D01*
Y13174D01*
X43519Y12675D02*
Y13174D01*
X43769D01*
X43853Y13091D01*
Y12925D01*
X43769Y12841D01*
X43519D01*
X21492Y6911D02*
Y7078D01*
Y6995D01*
X20993D01*
X21076Y6911D01*
M02*
