G04 Layer_Color=16711935*
%FSLAX43Y43*%
%MOMM*%
G71*
G01*
G75*
%ADD79R,1.703X1.703*%
%ADD105C,1.103*%
%ADD106C,1.703*%
%ADD107O,0.703X1.403*%
%ADD108C,1.600*%
%ADD109R,1.600X1.600*%
%ADD110C,1.503*%
%ADD111C,4.203*%
%ADD112O,1.803X2.603*%
%ADD113C,2.003*%
%ADD114R,1.703X1.703*%
%ADD115C,0.813*%
%ADD116C,1.219*%
%ADD117R,2.703X3.503*%
D79*
X2763Y32490D02*
D03*
X11263D02*
D03*
X8763D02*
D03*
X6263D02*
D03*
X44399Y13589D02*
D03*
D105*
X5500Y7050D02*
D03*
Y11450D02*
D03*
Y46950D02*
D03*
Y42550D02*
D03*
D106*
X41859Y13589D02*
D03*
X39319D02*
D03*
X66000Y51000D02*
D03*
Y49000D02*
D03*
X64000Y51000D02*
D03*
Y49000D02*
D03*
X62000Y51000D02*
D03*
Y49000D02*
D03*
X60000Y51000D02*
D03*
Y49000D02*
D03*
X58000Y51000D02*
D03*
Y49000D02*
D03*
X56000Y51000D02*
D03*
Y49000D02*
D03*
X54000Y51000D02*
D03*
Y49000D02*
D03*
X52000Y51000D02*
D03*
Y49000D02*
D03*
X48000Y51000D02*
D03*
Y49000D02*
D03*
X46000Y51000D02*
D03*
Y49000D02*
D03*
X44000Y51000D02*
D03*
Y49000D02*
D03*
X42000Y51000D02*
D03*
Y49000D02*
D03*
X40000Y51000D02*
D03*
Y49000D02*
D03*
X38000Y51000D02*
D03*
Y49000D02*
D03*
X36000Y51000D02*
D03*
Y49000D02*
D03*
X34000Y51000D02*
D03*
Y49000D02*
D03*
X32000Y51000D02*
D03*
Y49000D02*
D03*
X30000Y51000D02*
D03*
Y49000D02*
D03*
X28000Y51000D02*
D03*
Y49000D02*
D03*
X26000Y51000D02*
D03*
Y49000D02*
D03*
X24000Y51000D02*
D03*
Y49000D02*
D03*
X22000Y51000D02*
D03*
Y49000D02*
D03*
X20000Y51000D02*
D03*
Y49000D02*
D03*
X18000Y51000D02*
D03*
Y49000D02*
D03*
X16000Y51000D02*
D03*
Y49000D02*
D03*
X14000Y51000D02*
D03*
Y49000D02*
D03*
X12000Y51000D02*
D03*
Y49000D02*
D03*
X32000Y9000D02*
D03*
X20066Y18161D02*
D03*
X36676Y27813D02*
D03*
X32004Y41656D02*
D03*
X36449Y19939D02*
D03*
X83200Y16760D02*
D03*
Y19300D02*
D03*
Y21840D02*
D03*
D107*
X25984Y1346D02*
D03*
X32563D02*
D03*
D108*
X3937Y35941D02*
D03*
D109*
X1397D02*
D03*
D110*
X78200Y41500D02*
D03*
Y44040D02*
D03*
Y38960D02*
D03*
X83280D02*
D03*
Y44040D02*
D03*
D111*
X81000Y50000D02*
D03*
X4000Y18500D02*
D03*
D112*
X69800Y42000D02*
D03*
Y44900D02*
D03*
X73200Y42000D02*
D03*
D113*
X74700Y49900D02*
D03*
X70700D02*
D03*
D114*
X83200Y24380D02*
D03*
D115*
X70383Y27635D02*
D03*
X68148Y17755D02*
D03*
X72644Y27864D02*
D03*
X75794Y26111D02*
D03*
X68448Y26948D02*
D03*
X5639Y44755D02*
D03*
X11049Y7010D02*
D03*
X10500Y10500D02*
D03*
X10312Y9246D02*
D03*
X12040Y8458D02*
D03*
X6680Y15545D02*
D03*
X2438Y11786D02*
D03*
X2489Y2870D02*
D03*
X8001D02*
D03*
Y50902D02*
D03*
X2489Y47422D02*
D03*
X2515Y42088D02*
D03*
X6121Y40310D02*
D03*
X8103Y47396D02*
D03*
X8100Y11800D02*
D03*
X63779Y39125D02*
D03*
X63667Y40779D02*
D03*
X68936Y22758D02*
D03*
X52324Y20193D02*
D03*
X26060Y20472D02*
D03*
X10262Y838D02*
D03*
X22835Y6071D02*
D03*
X31203Y6121D02*
D03*
X10871Y37313D02*
D03*
X12090Y10770D02*
D03*
X20218Y11328D02*
D03*
X17780Y13233D02*
D03*
X19583Y16586D02*
D03*
X15570Y10744D02*
D03*
X15189Y9373D02*
D03*
X16967Y16078D02*
D03*
X21000Y12500D02*
D03*
X21895Y13157D02*
D03*
X45034Y25883D02*
D03*
X10719Y47295D02*
D03*
X40437Y39675D02*
D03*
X38862Y38100D02*
D03*
X39243Y37084D02*
D03*
X44577Y36728D02*
D03*
X49200Y22936D02*
D03*
X45212Y46609D02*
D03*
X23100Y36125D02*
D03*
X18000Y21925D02*
D03*
X17375Y26025D02*
D03*
X19750Y5850D02*
D03*
X18525Y26150D02*
D03*
X18825Y21075D02*
D03*
X54250Y24600D02*
D03*
X51550Y25575D02*
D03*
X49725Y38550D02*
D03*
X46875Y39425D02*
D03*
X12250Y38250D02*
D03*
X15225Y36625D02*
D03*
X18085Y34138D02*
D03*
X12903Y34442D02*
D03*
X16561Y32817D02*
D03*
X8915Y37236D02*
D03*
X1397Y37287D02*
D03*
X58242Y32715D02*
D03*
X30455Y19736D02*
D03*
X31217Y7468D02*
D03*
X10592Y19380D02*
D03*
X29997Y12217D02*
D03*
X26670Y14326D02*
D03*
X23927Y8509D02*
D03*
X22885Y13665D02*
D03*
X22809Y12573D02*
D03*
X18872Y1219D02*
D03*
X10592Y2692D02*
D03*
X21768Y18136D02*
D03*
X24562Y9652D02*
D03*
X25654Y9931D02*
D03*
X30937Y10109D02*
D03*
X29718Y9728D02*
D03*
X32461Y3796D02*
D03*
X26061D02*
D03*
X24486Y7112D02*
D03*
X26695Y5613D02*
D03*
X33147Y7772D02*
D03*
X19228Y3200D02*
D03*
X12675Y2642D02*
D03*
X17882Y2591D02*
D03*
X83947Y27305D02*
D03*
X83312Y28194D02*
D03*
X21742Y8661D02*
D03*
X15963Y38735D02*
D03*
X20408Y41402D02*
D03*
X21805Y37084D02*
D03*
X48824Y45688D02*
D03*
X29845Y42926D02*
D03*
X19050Y46609D02*
D03*
X23368D02*
D03*
X57927Y42260D02*
D03*
X44069Y39624D02*
D03*
X35267Y37885D02*
D03*
X32639Y37846D02*
D03*
X25251Y46924D02*
D03*
X48741Y25781D02*
D03*
X43534Y24257D02*
D03*
X26477Y23241D02*
D03*
X25080Y27559D02*
D03*
X62599Y28417D02*
D03*
X37311Y24003D02*
D03*
X49884Y32766D02*
D03*
X53496Y31845D02*
D03*
X34517Y29083D02*
D03*
X28040Y32766D02*
D03*
X23722D02*
D03*
X39939Y24042D02*
D03*
X29923Y33081D02*
D03*
X20635Y24892D02*
D03*
X43915Y23241D02*
D03*
X43561Y36068D02*
D03*
X13818Y18745D02*
D03*
X24460Y19406D02*
D03*
X30480Y17323D02*
D03*
X32155Y19712D02*
D03*
X70100Y39400D02*
D03*
X33800Y45700D02*
D03*
X38700Y31800D02*
D03*
X48233Y22225D02*
D03*
X58200Y34300D02*
D03*
X28004Y25996D02*
D03*
X24345Y37145D02*
D03*
X52300Y45200D02*
D03*
X7500Y34200D02*
D03*
X66700Y24300D02*
D03*
X28900Y34800D02*
D03*
X33000D02*
D03*
X20300Y13200D02*
D03*
X29017Y23317D02*
D03*
X77470Y30226D02*
D03*
X41478Y40665D02*
D03*
X46457Y26340D02*
D03*
X68466Y34404D02*
D03*
D116*
X71679Y16967D02*
D03*
X73533Y16764D02*
D03*
X51537Y47193D02*
D03*
X47269Y19101D02*
D03*
X34163Y13970D02*
D03*
X44475Y19456D02*
D03*
X67564Y41275D02*
D03*
X71247Y47371D02*
D03*
X81700Y31300D02*
D03*
X79375Y28702D02*
D03*
X59944Y16891D02*
D03*
X56261Y16637D02*
D03*
X81280Y35052D02*
D03*
X32512Y16510D02*
D03*
X34036Y19431D02*
D03*
X73533Y20574D02*
D03*
D117*
X74824Y36957D02*
D03*
X67924D02*
D03*
X67797Y29439D02*
D03*
X74697D02*
D03*
M02*
