G04 Layer_Physical_Order=1*
G04 Layer_Color=255*
%FSLAX43Y43*%
%MOMM*%
G71*
G01*
G75*
%ADD10R,2.500X2.000*%
%ADD11R,2.300X0.500*%
%ADD12R,1.500X1.500*%
%ADD13R,4.500X2.000*%
%ADD14R,0.250X0.520*%
%ADD15R,1.900X1.900*%
%ADD16R,1.600X1.400*%
%ADD17R,0.400X1.350*%
%ADD18R,0.900X1.400*%
%ADD19R,1.250X0.450*%
%ADD20R,0.850X0.350*%
%ADD21R,0.800X0.800*%
%ADD22R,0.600X1.050*%
%ADD23R,1.050X0.600*%
G04:AMPARAMS|DCode=24|XSize=0.762mm|YSize=1.143mm|CornerRadius=0mm|HoleSize=0mm|Usage=FLASHONLY|Rotation=270.000|XOffset=0mm|YOffset=0mm|HoleType=Round|Shape=Octagon|*
%AMOCTAGOND24*
4,1,8,0.572,0.191,0.572,-0.191,0.381,-0.381,-0.381,-0.381,-0.572,-0.191,-0.572,0.191,-0.381,0.381,0.381,0.381,0.572,0.191,0.0*
%
%ADD24OCTAGOND24*%

%ADD25R,1.143X0.762*%
%ADD26R,1.550X0.600*%
%ADD27R,0.100X0.100*%
%ADD28R,0.100X0.100*%
%ADD29R,0.600X0.800*%
%ADD30R,1.200X3.000*%
%ADD31R,3.000X1.200*%
%ADD32R,1.000X1.000*%
%ADD33R,1.000X1.000*%
%ADD34R,1.600X2.700*%
%ADD35R,2.700X1.600*%
%ADD36R,1.100X1.000*%
%ADD37R,1.000X1.100*%
%ADD38O,0.250X0.850*%
%ADD39R,2.550X1.550*%
%ADD40C,0.381*%
%ADD41C,0.508*%
%ADD42C,0.152*%
%ADD43C,0.254*%
%ADD44C,0.762*%
%ADD45C,0.635*%
%ADD46C,0.889*%
%ADD47C,2.540*%
%ADD48C,1.524*%
%ADD49C,2.032*%
%ADD50C,1.778*%
%ADD51C,1.270*%
%ADD52C,0.900*%
%ADD53C,1.500*%
%ADD54O,0.500X1.200*%
%ADD55C,1.300*%
%ADD56C,4.000*%
%ADD57O,1.600X2.400*%
%ADD58C,1.800*%
%ADD59R,1.500X1.500*%
%ADD60C,0.610*%
%ADD61C,1.016*%
G36*
X52551Y19362D02*
X52663Y19250D01*
X52724Y19103D01*
Y19023D01*
X51924D01*
Y19103D01*
X51985Y19250D01*
X52097Y19362D01*
X52244Y19423D01*
X52404D01*
X52551Y19362D01*
D02*
G37*
G36*
X25097Y19844D02*
X25017D01*
X24870Y19905D01*
X24758Y20017D01*
X24697Y20164D01*
Y20244D01*
Y20323D01*
X24758Y20470D01*
X24870Y20583D01*
X25017Y20644D01*
X25097D01*
Y19844D01*
D02*
G37*
G36*
X25523Y20583D02*
X25636Y20470D01*
X25697Y20323D01*
Y20244D01*
Y20164D01*
X25636Y20017D01*
X25523Y19905D01*
X25376Y19844D01*
X25297D01*
Y20644D01*
X25376D01*
X25523Y20583D01*
D02*
G37*
G36*
X9222Y768D02*
X9142D01*
X8995Y829D01*
X8883Y942D01*
X8822Y1089D01*
Y1168D01*
Y1248D01*
X8883Y1395D01*
X8995Y1508D01*
X9142Y1568D01*
X9222D01*
Y768D01*
D02*
G37*
G36*
X9648Y1508D02*
X9761Y1395D01*
X9822Y1248D01*
Y1168D01*
Y1089D01*
X9761Y942D01*
X9648Y829D01*
X9501Y768D01*
X9422D01*
Y1568D01*
X9501D01*
X9648Y1508D01*
D02*
G37*
G36*
X52724Y18743D02*
X52663Y18596D01*
X52551Y18484D01*
X52404Y18423D01*
X52244D01*
X52097Y18484D01*
X51985Y18596D01*
X51924Y18743D01*
Y18823D01*
X52724D01*
Y18743D01*
D02*
G37*
G36*
X66519Y43367D02*
X66632Y43254D01*
X66692Y43107D01*
Y43028D01*
Y42948D01*
X66632Y42801D01*
X66519Y42688D01*
X66372Y42628D01*
X66292D01*
Y43428D01*
X66372D01*
X66519Y43367D01*
D02*
G37*
G36*
X49760Y50603D02*
X49681D01*
X49534Y50664D01*
X49421Y50777D01*
X49360Y50924D01*
Y51003D01*
Y51083D01*
X49421Y51230D01*
X49534Y51342D01*
X49681Y51403D01*
X49760D01*
Y50603D01*
D02*
G37*
G36*
X50187Y51342D02*
X50299Y51230D01*
X50360Y51083D01*
Y51003D01*
Y50924D01*
X50299Y50777D01*
X50187Y50664D01*
X50040Y50603D01*
X49960D01*
Y51403D01*
X50040D01*
X50187Y51342D01*
D02*
G37*
G36*
X68251Y23806D02*
X68172D01*
X68025Y23867D01*
X67912Y23980D01*
X67851Y24127D01*
Y24206D01*
Y24286D01*
X67912Y24433D01*
X68025Y24545D01*
X68172Y24606D01*
X68251D01*
Y23806D01*
D02*
G37*
G36*
X68678Y24545D02*
X68790Y24433D01*
X68851Y24286D01*
Y24206D01*
Y24127D01*
X68790Y23980D01*
X68678Y23867D01*
X68531Y23806D01*
X68451D01*
Y24606D01*
X68531D01*
X68678Y24545D01*
D02*
G37*
G36*
X66092Y42628D02*
X66013D01*
X65866Y42688D01*
X65753Y42801D01*
X65692Y42948D01*
Y43028D01*
Y43107D01*
X65753Y43254D01*
X65866Y43367D01*
X66013Y43428D01*
X66092D01*
Y42628D01*
D02*
G37*
D10*
X2500Y4800D02*
D03*
Y13700D02*
D03*
X8000Y4800D02*
D03*
Y13700D02*
D03*
Y49200D02*
D03*
Y40300D02*
D03*
X2500Y49200D02*
D03*
Y40300D02*
D03*
D11*
X8100Y7650D02*
D03*
Y8450D02*
D03*
Y9250D02*
D03*
Y10050D02*
D03*
Y10850D02*
D03*
Y46350D02*
D03*
Y45550D02*
D03*
Y44750D02*
D03*
Y43950D02*
D03*
Y43150D02*
D03*
D12*
X14513Y32490D02*
D03*
X11263D02*
D03*
X8763D02*
D03*
X6263D02*
D03*
X44399Y13589D02*
D03*
X1397Y35941D02*
D03*
D13*
X73025Y24051D02*
D03*
Y30051D02*
D03*
D14*
X31961Y6786D02*
D03*
X32461D02*
D03*
X32961D02*
D03*
Y6016D02*
D03*
X32461D02*
D03*
X31961D02*
D03*
D15*
X30461Y1346D02*
D03*
X28061D02*
D03*
D16*
X32461Y3796D02*
D03*
X26061D02*
D03*
D17*
X30561Y4021D02*
D03*
X29911D02*
D03*
X29261D02*
D03*
X28611D02*
D03*
X27961D02*
D03*
D18*
X8719Y19507D02*
D03*
X12719D02*
D03*
D19*
X81794Y27926D02*
D03*
X77574D02*
D03*
X81794Y27276D02*
D03*
Y28576D02*
D03*
Y29226D02*
D03*
X77574Y27276D02*
D03*
Y28576D02*
D03*
Y29226D02*
D03*
D20*
X48149Y24526D02*
D03*
Y23876D02*
D03*
Y23226D02*
D03*
X50349D02*
D03*
Y24526D02*
D03*
X43477Y38369D02*
D03*
Y37719D02*
D03*
Y37069D02*
D03*
X45677D02*
D03*
Y38369D02*
D03*
X17063Y37323D02*
D03*
Y37973D02*
D03*
Y38623D02*
D03*
X14863D02*
D03*
Y37323D02*
D03*
X21735Y23480D02*
D03*
Y24130D02*
D03*
Y24780D02*
D03*
X19535D02*
D03*
Y23480D02*
D03*
D21*
X13716Y3975D02*
D03*
Y2375D02*
D03*
X16891Y3975D02*
D03*
Y2375D02*
D03*
X15265Y2210D02*
D03*
Y3810D02*
D03*
X23927Y11875D02*
D03*
Y13475D02*
D03*
D22*
X18501Y14583D02*
D03*
X17551D02*
D03*
X16601D02*
D03*
X17551Y11883D02*
D03*
X16601D02*
D03*
X18501D02*
D03*
D23*
X28673Y13142D02*
D03*
Y12192D02*
D03*
Y11242D02*
D03*
X31373Y12192D02*
D03*
Y11242D02*
D03*
Y13142D02*
D03*
X26256Y18501D02*
D03*
Y16601D02*
D03*
X28956Y18501D02*
D03*
Y17551D02*
D03*
Y16601D02*
D03*
X33335Y24003D02*
D03*
Y25903D02*
D03*
X30635Y24003D02*
D03*
Y24953D02*
D03*
Y25903D02*
D03*
X28663Y37846D02*
D03*
Y39746D02*
D03*
X25963Y37846D02*
D03*
Y38796D02*
D03*
Y39746D02*
D03*
D24*
X69774Y20574D02*
D03*
D25*
Y19304D02*
D03*
Y18034D02*
D03*
Y16764D02*
D03*
X74981D02*
D03*
Y18034D02*
D03*
Y19304D02*
D03*
Y20574D02*
D03*
D26*
X44861Y30649D02*
D03*
Y29379D02*
D03*
Y28109D02*
D03*
Y26839D02*
D03*
X50261D02*
D03*
Y28109D02*
D03*
Y29379D02*
D03*
Y30649D02*
D03*
X40189Y44492D02*
D03*
Y43222D02*
D03*
Y41952D02*
D03*
Y40682D02*
D03*
X45589D02*
D03*
Y41952D02*
D03*
Y43222D02*
D03*
Y44492D02*
D03*
X23266Y31377D02*
D03*
Y30107D02*
D03*
Y28837D02*
D03*
Y27567D02*
D03*
X28666D02*
D03*
Y28837D02*
D03*
Y30107D02*
D03*
Y31377D02*
D03*
X18594Y45220D02*
D03*
Y43950D02*
D03*
Y42680D02*
D03*
Y41410D02*
D03*
X23994D02*
D03*
Y42680D02*
D03*
Y43950D02*
D03*
Y45220D02*
D03*
X59899Y29687D02*
D03*
Y28417D02*
D03*
Y27147D02*
D03*
Y25877D02*
D03*
X65299D02*
D03*
Y27147D02*
D03*
Y28417D02*
D03*
Y29687D02*
D03*
X55227Y43530D02*
D03*
Y42260D02*
D03*
Y40990D02*
D03*
Y39720D02*
D03*
X60627D02*
D03*
Y40990D02*
D03*
Y42260D02*
D03*
Y43530D02*
D03*
X70325Y36322D02*
D03*
Y35052D02*
D03*
Y33782D02*
D03*
Y32512D02*
D03*
X75725D02*
D03*
Y33782D02*
D03*
Y35052D02*
D03*
Y36322D02*
D03*
X78000Y35105D02*
D03*
Y33835D02*
D03*
Y32565D02*
D03*
Y31295D02*
D03*
X83400D02*
D03*
Y32565D02*
D03*
Y33835D02*
D03*
Y35105D02*
D03*
D27*
X49560Y51003D02*
D03*
X50160D02*
D03*
X24897Y20244D02*
D03*
X25497D02*
D03*
X68651Y24206D02*
D03*
X68051D02*
D03*
X66492Y43028D02*
D03*
X65892D02*
D03*
X9622Y1168D02*
D03*
X9022D02*
D03*
D28*
X52324Y18623D02*
D03*
Y19223D02*
D03*
D29*
X24344Y5613D02*
D03*
X25744D02*
D03*
D30*
X37160Y16764D02*
D03*
X34112D02*
D03*
X74422Y38989D02*
D03*
X71374D02*
D03*
X59563Y20066D02*
D03*
X56515D02*
D03*
D31*
X78359Y20193D02*
D03*
Y17145D02*
D03*
D32*
X44743Y23241D02*
D03*
X46643D02*
D03*
X40071Y37084D02*
D03*
X41971D02*
D03*
X46643Y24638D02*
D03*
X44743D02*
D03*
X41971Y38481D02*
D03*
X40071D02*
D03*
X23241Y23241D02*
D03*
X25141D02*
D03*
X18569Y37084D02*
D03*
X20469D02*
D03*
X27137Y7112D02*
D03*
X25237D02*
D03*
X46660Y32327D02*
D03*
X48560D02*
D03*
X41988Y46170D02*
D03*
X43888D02*
D03*
X61714Y24455D02*
D03*
X63614D02*
D03*
X57042Y38298D02*
D03*
X58942D02*
D03*
X21458Y27559D02*
D03*
X19558D02*
D03*
X16786Y41402D02*
D03*
X14886D02*
D03*
X19548Y29058D02*
D03*
X21448D02*
D03*
X14900Y42824D02*
D03*
X16800D02*
D03*
X43216Y26594D02*
D03*
X41316D02*
D03*
X38542Y40335D02*
D03*
X36642D02*
D03*
X43165Y27991D02*
D03*
X41265D02*
D03*
X38517Y41707D02*
D03*
X36617D02*
D03*
X63574Y31178D02*
D03*
X61674D02*
D03*
X58902Y45021D02*
D03*
X57002D02*
D03*
X25146Y24638D02*
D03*
X27046D02*
D03*
X20474Y38481D02*
D03*
X22374D02*
D03*
X19573Y30455D02*
D03*
X21473D02*
D03*
X14925Y44399D02*
D03*
X16825D02*
D03*
X5324Y35966D02*
D03*
X7224D02*
D03*
X21675Y21875D02*
D03*
X19775D02*
D03*
X46875Y36975D02*
D03*
X48775D02*
D03*
X51525Y23175D02*
D03*
X53425D02*
D03*
D33*
X23175Y26477D02*
D03*
Y24577D02*
D03*
X18503Y40320D02*
D03*
Y38420D02*
D03*
X22962Y18349D02*
D03*
Y16449D02*
D03*
X13767Y7236D02*
D03*
Y5336D02*
D03*
X14783Y15047D02*
D03*
Y13147D02*
D03*
X16866Y5311D02*
D03*
Y7211D02*
D03*
X15291D02*
D03*
Y5311D02*
D03*
X14097Y11262D02*
D03*
Y9362D02*
D03*
X28575Y6822D02*
D03*
Y8722D02*
D03*
X25248Y11674D02*
D03*
Y13574D02*
D03*
X56869Y26665D02*
D03*
Y24765D02*
D03*
X52197Y40508D02*
D03*
Y38608D02*
D03*
X51979Y27741D02*
D03*
Y29641D02*
D03*
X47307Y41584D02*
D03*
Y43484D02*
D03*
X67070Y28661D02*
D03*
Y30561D02*
D03*
X62398Y42504D02*
D03*
Y44404D02*
D03*
X39802Y28057D02*
D03*
Y29957D02*
D03*
X35154Y42052D02*
D03*
Y43952D02*
D03*
X31215Y29972D02*
D03*
Y28072D02*
D03*
X26543Y43815D02*
D03*
Y41915D02*
D03*
X36549Y29911D02*
D03*
Y31811D02*
D03*
X31877Y43754D02*
D03*
Y45654D02*
D03*
X43114Y29403D02*
D03*
Y31303D02*
D03*
X38442Y43246D02*
D03*
Y45146D02*
D03*
X33147Y29936D02*
D03*
Y31836D02*
D03*
X28536Y43754D02*
D03*
Y45654D02*
D03*
X26543Y46924D02*
D03*
Y45024D02*
D03*
X31215Y33081D02*
D03*
Y31181D02*
D03*
X13550Y38800D02*
D03*
Y40700D02*
D03*
D34*
X61719Y16891D02*
D03*
X64519D02*
D03*
X61716Y20066D02*
D03*
X64516D02*
D03*
X77300Y24500D02*
D03*
X80100D02*
D03*
X72133Y45720D02*
D03*
X74933D02*
D03*
X47272Y16764D02*
D03*
X44472D02*
D03*
X41964Y16739D02*
D03*
X39164D02*
D03*
D35*
X67564Y39119D02*
D03*
Y36319D02*
D03*
D36*
X18071Y30429D02*
D03*
X16371D02*
D03*
X13372Y44425D02*
D03*
X11672D02*
D03*
X13950Y37300D02*
D03*
X12250D02*
D03*
X30455Y18491D02*
D03*
X32155D02*
D03*
X18376Y10008D02*
D03*
X16676D02*
D03*
X27012Y8636D02*
D03*
X25312D02*
D03*
X66990Y23114D02*
D03*
X65290D02*
D03*
X62318Y36957D02*
D03*
X60618D02*
D03*
X52347Y31845D02*
D03*
X50647D02*
D03*
X47675Y45688D02*
D03*
X45975D02*
D03*
X51550Y24600D02*
D03*
X53250D02*
D03*
X46925Y38400D02*
D03*
X48625D02*
D03*
X18122Y29058D02*
D03*
X16422D02*
D03*
X13472Y42672D02*
D03*
X11772D02*
D03*
X25058Y26060D02*
D03*
X26758D02*
D03*
X20574Y39878D02*
D03*
X22274D02*
D03*
X25119Y32766D02*
D03*
X26819D02*
D03*
X20447Y46609D02*
D03*
X22147D02*
D03*
X63488Y23058D02*
D03*
X61788D02*
D03*
X58816Y36901D02*
D03*
X57116D02*
D03*
X21358Y26162D02*
D03*
X19658D02*
D03*
X16686Y40005D02*
D03*
X14986D02*
D03*
X34859Y33147D02*
D03*
X33159D02*
D03*
X30187Y46990D02*
D03*
X28487D02*
D03*
X61825Y32473D02*
D03*
X63525D02*
D03*
X57153Y46316D02*
D03*
X58853D02*
D03*
X15811Y34417D02*
D03*
X14111D02*
D03*
X8700Y35975D02*
D03*
X10400D02*
D03*
D37*
X17975Y23150D02*
D03*
Y24850D02*
D03*
X24486Y16651D02*
D03*
Y18351D02*
D03*
X29972Y6821D02*
D03*
Y8521D02*
D03*
X20472Y4863D02*
D03*
Y3163D02*
D03*
X21819Y4838D02*
D03*
Y3138D02*
D03*
X23165Y4851D02*
D03*
Y3151D02*
D03*
X33020Y12432D02*
D03*
Y10732D02*
D03*
X26797Y11291D02*
D03*
Y12991D02*
D03*
X36256Y24042D02*
D03*
Y25742D02*
D03*
X31584Y37885D02*
D03*
Y39585D02*
D03*
X34517Y30011D02*
D03*
Y31711D02*
D03*
X29947Y43854D02*
D03*
Y45554D02*
D03*
X55475Y26729D02*
D03*
Y28429D02*
D03*
X50803Y40572D02*
D03*
Y42272D02*
D03*
X53948Y26963D02*
D03*
Y28663D02*
D03*
X49276Y40806D02*
D03*
Y42506D02*
D03*
X68441Y28829D02*
D03*
Y30529D02*
D03*
X63769Y42672D02*
D03*
Y44372D02*
D03*
X41590Y29503D02*
D03*
Y31203D02*
D03*
X36918Y43346D02*
D03*
Y45046D02*
D03*
X41580Y25031D02*
D03*
Y23331D02*
D03*
X36678Y38772D02*
D03*
Y37072D02*
D03*
X39776Y24931D02*
D03*
Y26631D02*
D03*
X35154Y38901D02*
D03*
Y40601D02*
D03*
X67044Y26948D02*
D03*
Y25248D02*
D03*
X62372Y40791D02*
D03*
Y39091D02*
D03*
X58219Y26526D02*
D03*
Y28226D02*
D03*
X53547Y40369D02*
D03*
Y42069D02*
D03*
X34898Y25742D02*
D03*
Y24042D02*
D03*
X30226Y39585D02*
D03*
Y37885D02*
D03*
X29017Y25996D02*
D03*
Y24296D02*
D03*
X24345Y39839D02*
D03*
Y38139D02*
D03*
D38*
X20617Y7211D02*
D03*
X21067D02*
D03*
X21517D02*
D03*
X21967D02*
D03*
X22417D02*
D03*
X22867D02*
D03*
Y10111D02*
D03*
X22417D02*
D03*
X21967D02*
D03*
X21517D02*
D03*
X21067D02*
D03*
X20617D02*
D03*
D39*
X21742Y8661D02*
D03*
D40*
X13748Y37323D02*
X14863D01*
X35267Y37885D02*
Y38901D01*
X39939Y24042D02*
Y25058D01*
X29845Y42926D02*
Y43854D01*
X24472Y38012D02*
X25256Y38796D01*
X29144Y24169D02*
X29928Y24953D01*
X24562Y9158D02*
X25210Y8509D01*
X30373Y1346D02*
X30440Y1280D01*
X16840Y2591D02*
X17882D01*
X24352Y39900D02*
X24506Y39746D01*
X12574Y7036D02*
X13767D01*
X12598Y1118D02*
X15037D01*
X11557Y2159D02*
X12598Y1118D01*
X11557Y2159D02*
Y6020D01*
X15037Y1118D02*
X15265Y1346D01*
X27584D02*
X28061D01*
X26061Y2870D02*
X27584Y1346D01*
X26061Y2870D02*
Y3796D01*
X32461Y2819D02*
Y3796D01*
X30988Y1346D02*
X32461Y2819D01*
X30461Y1346D02*
X30988D01*
X28061D02*
X30373D01*
X43688Y25654D02*
X44806D01*
X42697Y24663D02*
X43688Y25654D01*
X42697Y23952D02*
Y24663D01*
X67564Y41275D02*
Y42443D01*
X66980Y43028D02*
X67564Y42443D01*
X66492Y43028D02*
X66980D01*
X65405Y42540D02*
X65892Y43028D01*
X65405Y40480D02*
Y42540D01*
X64050Y39125D02*
X65405Y40480D01*
X50160Y51003D02*
X50360D01*
X12675Y2642D02*
X13792D01*
X56548Y44851D02*
X57203D01*
X69609Y24183D02*
X70053Y23738D01*
Y22454D02*
Y23738D01*
Y22454D02*
X71882Y20625D01*
Y19304D02*
Y20625D01*
X68651Y24206D02*
X68936Y23922D01*
Y22758D02*
Y23922D01*
X69609Y24183D02*
Y31796D01*
X65862Y17755D02*
X68148D01*
X71476Y16764D02*
X71679Y16967D01*
X69774Y16764D02*
X71476D01*
X61674Y30330D02*
Y31178D01*
X61031Y29687D02*
X61674Y30330D01*
X59899Y29687D02*
X61031D01*
X10675Y47251D02*
X11672Y46254D01*
X11252Y42672D02*
X11772D01*
X10312Y43612D02*
X11252Y42672D01*
X10312Y43612D02*
Y44755D01*
X9517Y45550D02*
X10312Y44755D01*
X56883Y26729D02*
X56910Y26702D01*
X55475Y26729D02*
X56883D01*
X16840Y4191D02*
Y5486D01*
X31276Y29911D02*
X33501D01*
X52211Y40572D02*
X52238Y40545D01*
X50803Y40572D02*
X52211D01*
X15265Y3810D02*
Y5486D01*
X61914Y24455D02*
Y25471D01*
X61710Y24252D02*
X61914Y24455D01*
X61197Y24765D02*
X61710Y24252D01*
X65240Y30361D02*
X67070D01*
X63389Y30993D02*
X64022Y30361D01*
X16786Y42672D02*
X18586D01*
X13792Y4242D02*
Y5511D01*
X18144Y28829D02*
X19558D01*
X57242Y38298D02*
Y39314D01*
X57038Y38095D02*
X57242Y38298D01*
X56525Y38608D02*
X57038Y38095D01*
X15595Y7011D02*
X16866D01*
X41214Y28006D02*
X41275Y28067D01*
X39177Y26758D02*
X39939D01*
X41275Y25715D02*
Y26797D01*
X25146Y24638D02*
Y26289D01*
X21458Y30099D02*
X23258D01*
X35267Y40601D02*
Y41849D01*
X14783Y13156D02*
X15165Y13147D01*
X14097Y12470D02*
X14783Y13156D01*
X22938Y16651D02*
X24486D01*
X43175Y26797D02*
Y28067D01*
X36549Y26035D02*
Y29911D01*
X34825Y25903D02*
X34986Y25742D01*
X26946Y26035D02*
Y27901D01*
X60568Y44204D02*
X62398D01*
X58717Y44836D02*
X59350Y44204D01*
X33159Y31860D02*
X33208Y31811D01*
X38503Y40640D02*
Y41910D01*
X40147D01*
X31877Y39878D02*
Y43754D01*
X30153Y39746D02*
X30314Y39585D01*
X7325Y35621D02*
Y35966D01*
X67094Y28837D02*
X68760D01*
X62422Y42680D02*
X64088D01*
X3937Y35941D02*
X5400D01*
X10185Y37694D02*
Y41402D01*
X9525Y42062D02*
X10185Y41402D01*
X6909Y42062D02*
X9525D01*
X9931Y37440D02*
X10185Y37694D01*
X8100Y43150D02*
X9440D01*
X10908Y41681D01*
X5639Y44755D02*
X5644Y44750D01*
X8100D01*
X11672Y44425D02*
Y46254D01*
X8100Y45550D02*
X9517D01*
X10409Y7650D02*
X11049Y7010D01*
X8100Y7650D02*
X10409D01*
X10308Y9250D02*
X10312Y9246D01*
X8100Y9250D02*
X10308D01*
X12031Y8450D02*
X12040Y8458D01*
X8100Y8450D02*
X12031D01*
X10500Y10800D02*
X12014Y12314D01*
X10500Y10500D02*
Y10800D01*
X16444Y19314D02*
Y28829D01*
X12014Y14884D02*
X16444Y19314D01*
X12014Y12314D02*
Y14884D01*
X15200Y18985D02*
Y30000D01*
X13030Y16815D02*
X15200Y18985D01*
X6452Y16815D02*
X13030D01*
X5182Y15545D02*
X6452Y16815D01*
X5182Y14148D02*
Y15545D01*
X4318Y13284D02*
X5182Y14148D01*
X4318Y9754D02*
Y13284D01*
Y9754D02*
X4822Y9250D01*
X8100D01*
X6790Y43950D02*
X8100D01*
X6426Y43586D02*
X6790Y43950D01*
X6426Y42545D02*
Y43586D01*
Y42545D02*
X6909Y42062D01*
X10908Y37350D02*
Y41681D01*
X8095Y44755D02*
X8100Y44750D01*
Y47394D02*
X8103Y47396D01*
X8100Y46350D02*
Y47394D01*
X10050Y10050D02*
X10500Y10500D01*
X8100Y10050D02*
X10050D01*
X8100Y10850D02*
Y11800D01*
X63779Y39125D02*
X64050D01*
X63745Y39091D02*
X63779Y39125D01*
X62372Y39091D02*
X63745D01*
X63655Y40791D02*
X63667Y40779D01*
X24460Y19406D02*
X24897Y19842D01*
Y20244D01*
X70612Y18034D02*
X71882Y19304D01*
X67958Y24300D02*
X68051Y24206D01*
X66700Y24300D02*
X67958D01*
X10592Y2032D02*
X11151Y1473D01*
X10592Y2032D02*
Y2692D01*
X60147Y47320D02*
X60782Y46685D01*
X55778Y47320D02*
X60147D01*
X54585Y46126D02*
X55778Y47320D01*
X60782Y46685D02*
X62230D01*
X63627Y45288D01*
Y44514D02*
Y45288D01*
X25969Y27112D02*
Y29210D01*
X25146Y26289D02*
X25969Y27112D01*
X10871Y37313D02*
X10908Y37350D01*
X18501Y11883D02*
Y12791D01*
X18059Y13233D02*
X18501Y12791D01*
X17780Y13233D02*
X18059D01*
X15570Y10744D02*
X16307Y10008D01*
X16676D01*
X14097Y9362D02*
X14107Y9373D01*
X15189D01*
X16601Y11883D02*
X17551D01*
X16967Y16078D02*
X17374D01*
X15814D02*
X16967D01*
X14097Y11262D02*
Y12470D01*
X15165Y13147D02*
X16601Y14583D01*
X14783Y15047D02*
X15814Y16078D01*
X17374D02*
X17551Y15900D01*
Y14583D02*
Y15900D01*
X32676Y10389D02*
X33020Y10732D01*
X31217Y10389D02*
X32676D01*
X30937Y10109D02*
X31217Y10389D01*
X39573Y39675D02*
X40437D01*
X38837Y38938D02*
X39573Y39675D01*
X38329Y38938D02*
X38837D01*
X37973Y38583D02*
X38329Y38938D01*
X37973Y37948D02*
Y38583D01*
X37694Y37668D02*
X37973Y37948D01*
X37694Y37338D02*
Y37668D01*
X37428Y37072D02*
X37694Y37338D01*
X36678Y37072D02*
X37428D01*
X36642Y40335D02*
X36678Y40300D01*
Y38772D02*
Y40300D01*
X35154Y40601D02*
X35267D01*
X34505D02*
X35154D01*
X44806Y25654D02*
X45034Y25883D01*
X42076Y23331D02*
X42697Y23952D01*
X41580Y23331D02*
X42076D01*
X19548Y30429D02*
X19573Y30455D01*
X18071Y30429D02*
X19548D01*
X10675Y47251D02*
X10719Y47295D01*
X17282Y43942D02*
X18586D01*
X16825Y44399D02*
X17282Y43942D01*
X14900Y44425D02*
X14925Y44399D01*
X13372Y44425D02*
X14900D01*
X38862Y38100D02*
X39243Y38481D01*
Y37084D02*
X40071D01*
X39243Y38481D02*
X40071D01*
X44577Y36728D02*
Y37338D01*
X44196Y37719D02*
X44577Y37338D01*
X43477Y37719D02*
X44196D01*
X49200Y22936D02*
Y23575D01*
X48899Y23876D02*
X49200Y23575D01*
X45212Y46609D02*
X45741D01*
X45975Y46375D01*
Y45688D02*
Y46375D01*
X17975Y21950D02*
X18000Y21925D01*
X17975Y21950D02*
Y23150D01*
X17375Y25450D02*
Y26025D01*
Y25450D02*
X17975Y24850D01*
Y23150D02*
X18305Y23480D01*
X20895Y23420D02*
X21675D01*
X19535Y24780D02*
X20895Y23420D01*
X19646Y26150D02*
X19658Y26162D01*
X18525Y26150D02*
X19646D01*
X18825Y21075D02*
X19625Y21875D01*
X19775D01*
X21675D02*
Y23420D01*
X48682Y24526D02*
X49165D01*
X50349Y23342D01*
Y23226D02*
Y23342D01*
X51550Y25575D02*
X51550Y25575D01*
X51550Y24600D02*
Y25575D01*
X52260Y22025D02*
X53410Y23175D01*
X48433Y22025D02*
X52260D01*
X48233Y22225D02*
X48433Y22025D01*
X53410Y23175D02*
X53425D01*
X50349Y23226D02*
X50400Y23175D01*
X51525D01*
X48149Y23876D02*
X48899D01*
X50349Y24526D02*
X50423Y24600D01*
X51550D01*
X43477Y38369D02*
X44377D01*
X45677Y37069D01*
X43561Y36068D02*
X43704Y35925D01*
X48275D01*
X48775Y36425D01*
Y36975D01*
X46781Y37069D02*
X46875Y36975D01*
X45677Y37069D02*
X46781D01*
X45677Y38369D02*
X45708Y38400D01*
X46925D01*
X46875Y39425D02*
X46925Y39375D01*
Y38400D02*
Y39375D01*
X13075Y35357D02*
X28541D01*
X9195Y37440D02*
X9931D01*
X14252Y41402D02*
X14886D01*
X13550Y40700D02*
X14252Y41402D01*
X14863Y36987D02*
X15225Y36625D01*
X14863Y36987D02*
Y37323D01*
Y38562D02*
Y38623D01*
Y38562D02*
X16102Y37323D01*
X17063D01*
X13725Y37300D02*
X13748Y37323D01*
X13550Y38800D02*
X13727Y38623D01*
X14863D01*
X20066Y18161D02*
X20091Y18136D01*
X21768D01*
X50444Y46126D02*
X54585D01*
X49073Y47498D02*
X50444Y46126D01*
X42545Y47498D02*
X49073D01*
X74422Y37625D02*
Y38989D01*
Y37625D02*
X75725Y36322D01*
X18085Y34138D02*
X18091Y34144D01*
X29160D01*
X12903Y34442D02*
X12929Y34417D01*
X14111D01*
X15811D02*
X16561Y33667D01*
Y32817D02*
Y33667D01*
X8853Y35992D02*
Y37098D01*
X11263Y32490D02*
Y35282D01*
X10553Y35992D02*
X11263Y35282D01*
X6477Y34773D02*
X7325Y35621D01*
X6477Y32704D02*
Y34773D01*
X6263Y32490D02*
X6477Y32704D01*
X5400Y35941D02*
X5425Y35966D01*
X1397Y35941D02*
Y37287D01*
X6045Y32708D02*
X6263Y32490D01*
X52300Y44790D02*
Y45200D01*
Y44790D02*
X53560Y43530D01*
X58293Y30480D02*
Y32664D01*
Y30480D02*
X59086Y29687D01*
X59899D01*
X30455Y18491D02*
Y19736D01*
X32236Y4021D02*
X32461Y3796D01*
X30561Y4021D02*
X32236D01*
X12719Y19507D02*
X13056D01*
X8846Y19380D02*
X10592D01*
X8719Y19507D02*
X8846Y19380D01*
X27788Y14326D02*
X31725D01*
X26670D02*
X27788D01*
X31725D02*
X33020Y13030D01*
Y12432D02*
Y13030D01*
X29972Y12192D02*
X29997Y12217D01*
X28673Y12192D02*
X29972D01*
X25730Y14326D02*
X26670D01*
X23736Y13665D02*
X23927Y13475D01*
X22885Y13665D02*
X23736D01*
X21018Y16586D02*
X21768Y17336D01*
X19583Y16586D02*
X21018D01*
X21768Y18136D02*
X22860D01*
X21768Y17336D02*
Y18136D01*
X22962Y18149D02*
Y18237D01*
X30328Y11242D02*
X31373D01*
X28673D02*
X30328D01*
X24562Y9158D02*
Y9652D01*
X28673Y13142D02*
Y13440D01*
X27788Y14326D02*
X28673Y13440D01*
X25248Y13843D02*
X25730Y14326D01*
X31373Y12192D02*
X32780D01*
X33020Y12432D01*
X26797Y12991D02*
X27065D01*
X27864Y12192D01*
X28673D01*
X26797Y11291D02*
X26846Y11242D01*
X28673D01*
X62372Y40791D02*
X63655D01*
X60627Y40990D02*
X62172D01*
X62372Y40791D01*
X15265Y1346D02*
Y2210D01*
X11557Y6020D02*
X12574Y7036D01*
X16840Y5486D02*
X16866Y5511D01*
X15265Y5486D02*
X15291Y5511D01*
X13767Y5536D02*
X13792Y5511D01*
X24486Y18351D02*
Y19380D01*
X22873Y16586D02*
X22938Y16651D01*
X24486D02*
X24535Y16601D01*
X26256D01*
X28956Y17551D02*
X30251D01*
X28956Y18501D02*
X28966Y18491D01*
X30455D01*
X28026Y18501D02*
X28956D01*
X27686Y18161D02*
X28026Y18501D01*
X27686Y16891D02*
Y18161D01*
Y16891D02*
X27976Y16601D01*
X28956D01*
X55227Y43530D02*
X56548Y44851D01*
X62398Y42704D02*
X62422Y42680D01*
X56835Y39720D02*
X57242Y39314D01*
X55227Y39720D02*
X56835D01*
X57116Y36901D02*
X57242Y37026D01*
X53547Y40369D02*
X54168Y40990D01*
X55227D01*
X53547Y42069D02*
X53738Y42260D01*
X55227D01*
X57115Y46121D02*
X57203Y46033D01*
X77574Y27926D02*
X78599D01*
X81794D02*
X83044D01*
X83312Y28194D01*
X81794Y27276D02*
X83918D01*
X83947Y27305D01*
X81794Y28576D02*
X82930D01*
X83312Y28194D01*
X81705Y31295D02*
X83400D01*
X34036Y16510D02*
Y16637D01*
X33782Y13970D02*
X34163D01*
X23927Y11875D02*
X25247D01*
X25248Y11874D01*
X60627Y43530D02*
Y44145D01*
X60568Y44204D02*
X60627Y44145D01*
X22860Y18136D02*
X22962Y18237D01*
X25248Y13374D02*
Y13574D01*
Y13843D01*
X18586Y43942D02*
X18594Y43950D01*
X18586Y42672D02*
X18594Y42680D01*
X16786Y41402D02*
Y42672D01*
X16471Y37973D02*
X17063D01*
X15963Y38481D02*
X16471Y37973D01*
X15963Y38481D02*
Y38735D01*
X18503Y37150D02*
Y38420D01*
Y37150D02*
X18569Y37084D01*
X20474Y38481D02*
Y39778D01*
X18503Y40320D02*
Y41319D01*
X18594Y41410D01*
X20400D01*
X20408Y41402D01*
X22374Y38481D02*
Y39778D01*
X22274Y39878D02*
X22374Y39778D01*
X22274Y39878D02*
Y41744D01*
X23210Y42680D01*
X23994D01*
X24506Y39746D02*
X25963D01*
X26763D01*
X25256Y38796D02*
X25963D01*
X28663Y39746D02*
X30153D01*
X30314Y39585D02*
X31584D01*
X30314Y37885D02*
X31584D01*
X30314Y37885D02*
X30314Y37885D01*
X18594Y43950D02*
X20400D01*
X21297Y43053D01*
Y40601D02*
Y43053D01*
X20474Y39778D02*
X20574Y39878D01*
X21297Y40601D01*
X17063Y38623D02*
X18300D01*
X18503Y38420D01*
X20469Y37084D02*
X21805D01*
X36918Y45046D02*
X38342D01*
X38442Y45146D01*
X39096Y44492D02*
X40189D01*
X38442Y45146D02*
X39096Y44492D01*
X38466Y43222D02*
X40189D01*
X38442Y43246D02*
X38466Y43222D01*
X37018Y43246D02*
X38442D01*
X36918Y43346D02*
X37018Y43246D01*
X35670Y43346D02*
X36918D01*
X35267Y43749D02*
X35670Y43346D01*
X35267Y41849D02*
X36542D01*
X36603Y41910D01*
X40147D02*
X40189Y41952D01*
X45589Y43222D02*
X47046D01*
X47307Y43484D01*
X46939Y41952D02*
X47307Y41584D01*
X45589Y41952D02*
X46939D01*
X45589Y44492D02*
Y45302D01*
X45975Y45688D01*
X47675D02*
X48824D01*
X43888Y42433D02*
Y46170D01*
Y42433D02*
X44369Y41952D01*
X45589D01*
X40310Y44492D02*
X41988Y46170D01*
X40189Y44492D02*
X40310D01*
X23994Y42680D02*
X24884D01*
X25400Y42164D01*
X25693D02*
X26482D01*
X26543Y43815D02*
Y45024D01*
X28487Y45703D02*
Y46990D01*
Y45703D02*
X28536Y45654D01*
X29745D01*
X29845Y45554D01*
X30187Y46990D02*
X31242D01*
X31877Y46355D01*
Y45654D02*
Y46355D01*
X25963Y37846D02*
X27178D01*
X31369Y39800D02*
X31584Y39585D01*
X31584Y39585D01*
X25251Y46924D02*
X26543D01*
X22725Y43950D02*
X23994D01*
X22147Y44528D02*
X22725Y43950D01*
X22147Y44528D02*
Y46609D01*
X19050D02*
X20447D01*
X22147D02*
X23368D01*
X47307Y43484D02*
X48884D01*
X59350Y44204D02*
X60568D01*
X63627Y44514D02*
X63769Y44372D01*
X58902Y45021D02*
Y46267D01*
X58853Y46316D02*
X58902Y46267D01*
X57002Y45021D02*
Y46165D01*
X57153Y46316D01*
X49510Y42272D02*
X50803D01*
X49276Y42506D02*
X49510Y42272D01*
X49276Y42506D02*
Y43091D01*
X48884Y43484D02*
X49276Y43091D01*
X47307Y41584D02*
X48085Y40806D01*
X49276D01*
X52197Y38608D02*
X56525D01*
X57116Y36901D02*
Y38017D01*
X57038Y38095D02*
X57116Y38017D01*
X58816Y38172D02*
X58942Y38298D01*
X58816Y36901D02*
X60562D01*
X60618Y36957D01*
X58942Y38298D02*
X60364Y39720D01*
X60627D01*
X55227Y42260D02*
X57927D01*
X60627D01*
X41971Y37084D02*
X43462D01*
X43477Y37069D01*
X41971Y37084D02*
Y38481D01*
X45127Y40682D02*
X45589D01*
X44069Y39624D02*
X45127Y40682D01*
X31584Y37885D02*
X32600D01*
X32639Y37846D01*
X17001Y40320D02*
X18503D01*
X16686Y40005D02*
X17001Y40320D01*
X14986Y40005D02*
Y41302D01*
X14886Y41402D02*
X14986Y41302D01*
X33909Y40005D02*
X34505Y40601D01*
X31584Y39585D02*
X31877Y39878D01*
X28536Y43754D02*
X28829D01*
X26543Y43815D02*
X26604Y43754D01*
X28536D01*
X38581Y23241D02*
X39597Y22225D01*
X38581Y26162D02*
X39177Y26758D01*
X38581Y23241D02*
Y26162D01*
X48741Y25781D02*
X49799Y26839D01*
X50261D01*
X46643Y23241D02*
X48134D01*
X48149Y23226D01*
X46643Y23241D02*
Y24638D01*
X43534Y24257D02*
X43915Y24638D01*
X44743D01*
X21673Y26477D02*
X23175D01*
X21358Y26162D02*
X21673Y26477D01*
X23175D02*
Y27476D01*
X23266Y27567D01*
X21735Y24780D02*
X22972D01*
X23175Y23307D02*
X23241Y23241D01*
X22972Y24780D02*
X23175Y24577D01*
Y23307D02*
Y24577D01*
X25141Y23241D02*
X26477D01*
X18305Y23480D02*
X19535D01*
X50261Y30649D02*
Y31459D01*
X50647Y31845D01*
X50261Y29379D02*
X51718D01*
X49041Y28109D02*
X50261D01*
X48560Y28590D02*
Y32327D01*
Y28590D02*
X49041Y28109D01*
X50261D02*
X51611D01*
X51979Y27741D01*
X43175Y28067D02*
X44819D01*
X44861Y28109D01*
X43138Y29379D02*
X44861D01*
X43768Y30649D02*
X44861D01*
X43114Y31303D02*
X43768Y30649D01*
X44861D02*
X44982D01*
X46660Y32327D01*
X26819Y30685D02*
X27397Y30107D01*
X28666D01*
X26819Y30685D02*
Y32766D01*
X26946Y27901D02*
X27882Y28837D01*
X29556D02*
X30072Y28321D01*
X30365D02*
X31154D01*
X27882Y28837D02*
X28666D01*
X29556D01*
X23266Y27567D02*
X25072D01*
X25080Y27559D01*
X21458Y28829D02*
X23258D01*
X23266Y28837D01*
Y30107D02*
X25072D01*
X23258Y30099D02*
X23266Y30107D01*
X25072D02*
X25969Y29210D01*
X65299Y29687D02*
Y30302D01*
X64022Y30361D02*
X65240D01*
X65299Y30302D01*
X59899Y28417D02*
X62599D01*
X65299D01*
Y27147D02*
X66844D01*
X67044Y26948D01*
X63614Y24455D02*
X65036Y25877D01*
X65299D01*
X59899D02*
X61507D01*
X61914Y25471D01*
X58219Y26526D02*
X58840Y27147D01*
X59899D01*
X58219Y28226D02*
X58410Y28417D01*
X59899D01*
X29178Y25903D02*
X30635D01*
X31435D01*
X30635Y24003D02*
X31850D01*
X31435Y25903D02*
X31977Y25361D01*
X31850Y24003D02*
X31977Y24130D01*
Y25361D01*
X29928Y24953D02*
X30635D01*
X33335Y25903D02*
X34825D01*
X36256Y25742D02*
X36549Y26035D01*
X56869Y24765D02*
X61197D01*
X46660Y32327D02*
Y33098D01*
X47217Y33655D01*
X63488Y23058D02*
Y24329D01*
X63614Y24455D01*
X61788Y23058D02*
Y24174D01*
X61710Y24252D02*
X61788Y24174D01*
X51979Y29641D02*
X53556D01*
X51718Y29379D02*
X51979Y29641D01*
X53556D02*
X53948Y29248D01*
Y28663D02*
Y29248D01*
X51979Y27741D02*
X52757Y26963D01*
X53948D01*
X19658Y26162D02*
Y27459D01*
X19558Y27559D02*
X19658Y27459D01*
X21458Y27559D02*
Y28829D01*
X67070Y28861D02*
X67094Y28837D01*
X39939Y29906D02*
X40342Y29503D01*
X41590D01*
X39939Y26758D02*
Y28006D01*
X41214D01*
X41275Y25715D02*
X41463Y25527D01*
X31215Y29972D02*
Y31181D01*
Y29972D02*
X31276Y29911D01*
X61674Y31178D02*
Y32322D01*
X61825Y32473D01*
X63574Y31178D02*
Y32424D01*
X63525Y32473D02*
X63574Y32424D01*
X36549Y31811D02*
Y32512D01*
X35914Y33147D02*
X36549Y32512D01*
X34859Y33147D02*
X35914D01*
X41590Y31203D02*
X43014D01*
X43114Y31303D01*
X41590Y29503D02*
X41690Y29403D01*
X43114D01*
X43138Y29379D01*
X27046Y24638D02*
Y25935D01*
X34417Y31811D02*
X34517Y31711D01*
X33159Y31860D02*
Y33147D01*
X33208Y31811D02*
X34417D01*
X34986Y25742D02*
X36256D01*
X36041Y25957D02*
X36256Y25742D01*
X36256Y25742D01*
X34986Y24042D02*
X34986Y24042D01*
X36256D02*
X37272D01*
X34986D02*
X36256D01*
X37272D02*
X37311Y24003D01*
X63488Y23058D02*
X65234D01*
X65290Y23114D01*
X49884Y32607D02*
X50647Y31845D01*
X49884Y32607D02*
Y32766D01*
X52347Y31845D02*
X53496D01*
X34517Y29083D02*
Y30011D01*
X53948Y28663D02*
X54182Y28429D01*
X55475D01*
X26946Y26035D02*
X27046Y25935D01*
X26819Y32766D02*
X28040D01*
X23722D02*
X25119D01*
X61788Y23058D02*
X61914Y23183D01*
X61787Y32278D02*
X61875Y32190D01*
X29923Y33081D02*
X31215D01*
X20635Y24638D02*
X21143Y24130D01*
X20635Y24638D02*
Y24892D01*
X21143Y24130D02*
X21735D01*
X73025Y30051D02*
Y32766D01*
X74041Y33782D01*
X75725D01*
X81700Y31300D02*
X81705Y31295D01*
X78599Y27926D02*
X79375Y28702D01*
X43915Y23241D02*
X44743D01*
X33909Y37084D02*
Y40005D01*
Y37084D02*
X34925Y36068D01*
X43561D01*
X61595Y35357D02*
X62318Y36080D01*
Y36957D01*
X13056Y19507D02*
X13818Y18745D01*
X24460Y19406D02*
X24486Y19380D01*
X30251Y17551D02*
X30480Y17323D01*
X32155Y18491D02*
Y19712D01*
X32512Y16510D02*
X32639Y16637D01*
X68299Y30671D02*
X68441Y30529D01*
X66394Y33655D02*
X68299Y31750D01*
Y30671D02*
Y31750D01*
X41988Y46941D02*
X42545Y47498D01*
X41988Y46170D02*
Y46941D01*
X31877Y45654D02*
X33754D01*
X33800Y45700D01*
X36560Y31800D02*
X38700D01*
X36549Y31811D02*
X36560Y31800D01*
X15200Y30000D02*
X15299Y30099D01*
X16356D01*
X39597Y22225D02*
X48233D01*
X47217Y33655D02*
X57929D01*
X57932Y33652D01*
X58468D01*
X58471Y33655D01*
X66394D01*
X28004Y25996D02*
X29017D01*
X24345Y37145D02*
Y38139D01*
X53560Y43530D02*
X55227D01*
X52300Y45200D02*
X52344Y45244D01*
X7500Y34200D02*
X8763Y32937D01*
Y32490D02*
Y32937D01*
X58816Y36901D02*
Y38172D01*
X66700Y24904D02*
X67044Y25248D01*
X66700Y24300D02*
Y24904D01*
X67044Y26948D02*
X68448D01*
X14863Y39882D02*
X14986Y40005D01*
X27178Y37846D02*
X27305Y37973D01*
Y39204D01*
X26763Y39746D02*
X27305Y39204D01*
X28900Y34800D02*
X28939Y34761D01*
X28541Y35357D02*
X28632Y35448D01*
X33268D02*
X33359Y35357D01*
X61595D01*
X28632Y35448D02*
X33268D01*
X32967Y34833D02*
X33000Y34800D01*
X28933Y34833D02*
X32967D01*
X28900Y34800D02*
X28933Y34833D01*
X29160Y34144D02*
X29168Y34152D01*
X46960D01*
X47108Y34300D01*
X58200D01*
X29017Y23317D02*
Y24296D01*
X77548Y28550D02*
X77574Y28576D01*
X76479D02*
X77574D01*
X76175Y28880D02*
X76479Y28576D01*
X76175Y28880D02*
Y29947D01*
X76454Y30226D01*
X77470D01*
X69088Y33782D02*
X70325D01*
X67564Y35306D02*
Y36319D01*
X40189Y40682D02*
X41462D01*
X41478Y40665D01*
X44861Y26839D02*
X45957D01*
X46457Y26340D01*
X67564Y35306D02*
X68466Y34404D01*
X69088Y33782D01*
X69774Y18034D02*
X70612D01*
X64999Y16891D02*
X65786Y17678D01*
X64519Y16891D02*
X64999D01*
X65557Y17678D02*
X65786D01*
X65862Y17755D01*
X13472Y42672D02*
X14886D01*
D41*
X8000Y1835D02*
Y4800D01*
X50546Y48184D02*
Y51003D01*
Y51867D01*
X6680Y15545D02*
X8000Y14225D01*
Y13700D02*
Y14225D01*
X2438Y11786D02*
Y13638D01*
X2500Y13700D01*
X8000Y1835D02*
X8667Y1168D01*
X2489Y2870D02*
X2500Y2881D01*
Y4800D01*
X8000Y50901D02*
X8001Y50902D01*
X8000Y49200D02*
Y50901D01*
X2489Y47422D02*
X2500Y47433D01*
Y49200D01*
Y42073D02*
X2515Y42088D01*
X2500Y40300D02*
Y42073D01*
X6121Y40310D02*
X6131Y40300D01*
X8000D01*
X50546Y51867D02*
X51410Y52730D01*
X51537D01*
X49301Y51003D02*
X49427D01*
X52324Y19329D02*
Y20193D01*
X54432Y16637D02*
X56261D01*
X52514Y18555D02*
X54432Y16637D01*
X25832Y20244D02*
X26060Y20472D01*
X25697Y20244D02*
X25832D01*
X9931Y1168D02*
X10262Y838D01*
X9754Y1168D02*
X9931D01*
X8667D02*
X8890D01*
X50546Y48184D02*
X51537Y47193D01*
X50360Y51003D02*
X50546D01*
X53250Y24600D02*
X54250D01*
X49575Y38400D02*
X49725Y38550D01*
X48625Y38400D02*
X49575D01*
X12250Y37300D02*
Y38250D01*
X78000Y31295D02*
X79068D01*
X77574Y27276D02*
X79600D01*
X74981Y18034D02*
X76581D01*
X77241Y17374D01*
X78130D01*
X79600Y27276D02*
X80493Y28169D01*
Y29870D01*
X79068Y31295D02*
X80493Y29870D01*
D42*
X29718Y8521D02*
Y9728D01*
X29770Y5463D02*
Y7022D01*
X28550D02*
X29770D01*
X29261Y4953D02*
X29770Y5463D01*
X32363D02*
X32461Y5561D01*
X29770Y5463D02*
X32363D01*
X20628Y6582D02*
Y7341D01*
X21978Y4997D02*
Y7341D01*
X28423Y8522D02*
Y9271D01*
X31144Y6016D02*
X31961D01*
X26937Y6591D02*
Y8482D01*
X12090Y533D02*
X18186D01*
X11151Y1473D02*
X12090Y533D01*
X22554Y6071D02*
X22835D01*
X22421Y6204D02*
X22554Y6071D01*
X31203Y6075D02*
Y6121D01*
X31144Y6016D02*
X31203Y6075D01*
X12090Y10770D02*
Y10796D01*
X20218Y11107D02*
Y11328D01*
Y11107D02*
X20628Y10697D01*
X20320Y12090D02*
Y13180D01*
Y12090D02*
X21517Y10893D01*
X20300Y13200D02*
X20320Y13180D01*
X21000Y12500D02*
X21031Y12469D01*
X21895Y11887D02*
Y13157D01*
X20628Y10241D02*
Y10697D01*
X21517Y6481D02*
Y7211D01*
X19750Y5850D02*
X19896D01*
X20628Y6582D01*
X22421Y6204D02*
Y7112D01*
X31961Y6786D02*
Y7264D01*
X31757Y7468D02*
X31961Y7264D01*
X31217Y7468D02*
X31757D01*
X32461Y5561D02*
Y6016D01*
X32961Y5261D02*
Y6016D01*
X32729Y5029D02*
X32961Y5261D01*
X30074Y5029D02*
X32729D01*
X21967Y10111D02*
Y11183D01*
X21031Y12119D02*
X21967Y11183D01*
X21031Y12119D02*
Y12469D01*
X22867Y10111D02*
Y10915D01*
X21517Y10111D02*
Y10893D01*
Y7211D02*
Y7330D01*
X23800Y8382D02*
X23927Y8509D01*
X23800Y6158D02*
Y8382D01*
Y6158D02*
X24344Y5613D01*
X18186Y533D02*
X18872Y1219D01*
X30328Y9627D02*
Y11242D01*
Y9627D02*
X31090Y8865D01*
X31953D01*
X25654Y9931D02*
X27762D01*
X28423Y9271D01*
X29261Y4021D02*
Y4953D01*
X29911Y4021D02*
Y4866D01*
X30074Y5029D01*
X28010Y1448D02*
X28061Y1796D01*
X25248Y13843D02*
Y13868D01*
X26910Y8509D02*
X26937Y8482D01*
X28931Y2845D02*
X30937D01*
X28611Y3165D02*
X28931Y2845D01*
X28611Y3165D02*
Y4021D01*
X26695Y5613D02*
X27305D01*
X25744D02*
X26695D01*
X32961Y7587D02*
X33147Y7772D01*
X32961Y6786D02*
Y7587D01*
X26937Y6591D02*
X28611Y4917D01*
Y4021D02*
Y4917D01*
X27961Y4021D02*
Y4948D01*
X27965Y4953D01*
X27305Y5613D02*
X27965Y4953D01*
X23165Y4851D02*
X23927Y5613D01*
X23151Y4838D02*
X23165Y4851D01*
X23927Y5613D02*
X24344D01*
X20472Y5436D02*
X21517Y6481D01*
X20472Y4863D02*
Y5436D01*
X21819Y4838D02*
X21978Y4997D01*
X21517Y7330D02*
X21528Y7341D01*
X19265Y3163D02*
X20472D01*
X19228Y3200D02*
X19265Y3163D01*
X20472D02*
X20498Y3138D01*
X21819D01*
X21832Y3151D01*
X23165D01*
X21819Y4838D02*
X23151D01*
X24486Y7112D02*
X25237D01*
X25437D01*
X66990Y22890D02*
Y23114D01*
X21895Y11887D02*
X22867Y10915D01*
D43*
X55093Y47854D02*
X58877D01*
X54432Y47193D02*
X55093Y47854D01*
X51537Y47193D02*
X54432D01*
X23724Y10693D02*
X26797D01*
X24025Y21125D02*
X52950D01*
X58877Y47854D02*
Y47877D01*
X60000Y49000D01*
X10871Y37129D02*
Y37313D01*
Y37129D02*
X12643Y35357D01*
X18169Y20150D02*
X23050D01*
X12700Y14681D02*
X18169Y20150D01*
X12700Y11406D02*
Y14681D01*
X12090Y10796D02*
X12700Y11406D01*
X19558Y7671D02*
Y12548D01*
X18501Y13604D02*
X19558Y12548D01*
X18501Y13604D02*
Y14583D01*
X13767Y7236D02*
Y7620D01*
X14503Y8357D01*
X17450D01*
X18376Y9283D01*
Y10008D01*
X16866Y7211D02*
X19098D01*
X19558Y7671D01*
X18376Y10008D02*
X18501Y10133D01*
Y11883D01*
X23100Y36125D02*
X23375Y36400D01*
Y39625D01*
X23589Y39839D01*
X24345D01*
X23050Y20150D02*
X24025Y21125D01*
X52950D02*
X53825Y22000D01*
X66100D01*
X12643Y35357D02*
X13075D01*
X26797Y10693D02*
Y11291D01*
X22809Y11608D02*
X23724Y10693D01*
X66100Y22000D02*
X66990Y22890D01*
X22809Y11608D02*
Y12573D01*
X73533Y20574D02*
X74981D01*
D44*
X73025Y23495D02*
Y24051D01*
X75794Y26111D02*
X77300Y24605D01*
Y24500D02*
Y24605D01*
X51537Y52730D02*
X53111D01*
X48895Y51003D02*
X49301D01*
X48892Y51000D02*
X48895Y51003D01*
X48000Y51000D02*
X48892D01*
X48000Y49000D02*
Y51000D01*
X53111Y52730D02*
X54000Y51842D01*
Y51000D02*
Y51842D01*
X78000Y38760D02*
X78200Y38960D01*
X78000Y35105D02*
Y38760D01*
X77300Y23706D02*
Y24500D01*
X41830Y13250D02*
X41964Y13384D01*
X65024Y20574D02*
X69774D01*
X64516Y20066D02*
X65024Y20574D01*
X67183Y19304D02*
X69774D01*
X59563Y20066D02*
X61716D01*
X77470Y19304D02*
X78359Y20193D01*
X74981Y19304D02*
X77470D01*
X73025Y23495D02*
X74295Y22225D01*
X76835D01*
X78359Y20701D01*
Y20193D02*
Y20701D01*
X67564Y36319D02*
X70322D01*
X70325Y36322D01*
X78200Y38960D02*
X79346D01*
X81026Y40640D01*
Y44831D01*
X80137Y45720D02*
X81026Y44831D01*
X74933Y45720D02*
X80137D01*
X81227Y35105D02*
X81280Y35052D01*
X78000Y35105D02*
X81227D01*
X65557Y17678D02*
X67183Y19304D01*
D45*
X69609Y31796D02*
X70325Y32512D01*
D46*
X73533Y16764D02*
X74981D01*
X71374Y38989D02*
X72263Y38100D01*
Y35687D02*
Y38100D01*
X71628Y35052D02*
X72263Y35687D01*
X70325Y35052D02*
X71628D01*
X70711Y38989D02*
X71374D01*
X70300Y39400D02*
X70711Y38989D01*
X70100Y39400D02*
X70300D01*
D47*
X72644Y29670D02*
X73025Y30051D01*
X72644Y27864D02*
Y29670D01*
X74422Y38989D02*
Y40778D01*
X73200Y42000D02*
X74422Y40778D01*
X47269Y19101D02*
X47272Y19098D01*
Y16764D02*
Y19098D01*
X80220Y24380D02*
X83200D01*
D48*
X41859Y13589D02*
Y16634D01*
X78359Y17145D02*
X80264D01*
X81153Y18034D01*
Y23447D01*
X41859Y16634D02*
X41964Y16739D01*
X44399Y13589D02*
X44472Y13662D01*
X67564Y39119D02*
Y41275D01*
X72133Y45720D02*
Y46485D01*
X71247Y47371D02*
X72133Y46485D01*
X59944Y16891D02*
X61719D01*
X56261Y19812D02*
X56515Y20066D01*
X56261Y16637D02*
Y19812D01*
D49*
X39164Y13744D02*
Y16739D01*
X37186D02*
X39164D01*
X37160Y16764D02*
X37186Y16739D01*
D50*
X34112Y16764D02*
Y19355D01*
Y14021D02*
Y16764D01*
X80100Y24500D02*
X80220Y24380D01*
X81153Y23447D01*
X44472Y13662D02*
Y16764D01*
Y19453D01*
X44475Y19456D01*
D51*
X39164Y13744D02*
X39319Y13589D01*
X32512Y16510D02*
X34036D01*
D52*
X5500Y7050D02*
D03*
Y11450D02*
D03*
Y46950D02*
D03*
Y42550D02*
D03*
D53*
X41859Y13589D02*
D03*
X39319D02*
D03*
X3937Y35941D02*
D03*
X66000Y51000D02*
D03*
Y49000D02*
D03*
X64000Y51000D02*
D03*
Y49000D02*
D03*
X62000Y51000D02*
D03*
Y49000D02*
D03*
X60000Y51000D02*
D03*
Y49000D02*
D03*
X58000Y51000D02*
D03*
Y49000D02*
D03*
X56000Y51000D02*
D03*
Y49000D02*
D03*
X54000Y51000D02*
D03*
Y49000D02*
D03*
X52000Y51000D02*
D03*
Y49000D02*
D03*
X48000Y51000D02*
D03*
Y49000D02*
D03*
X46000Y51000D02*
D03*
Y49000D02*
D03*
X44000Y51000D02*
D03*
Y49000D02*
D03*
X42000Y51000D02*
D03*
Y49000D02*
D03*
X40000Y51000D02*
D03*
Y49000D02*
D03*
X38000Y51000D02*
D03*
Y49000D02*
D03*
X36000Y51000D02*
D03*
Y49000D02*
D03*
X34000Y51000D02*
D03*
Y49000D02*
D03*
X32000Y51000D02*
D03*
Y49000D02*
D03*
X30000Y51000D02*
D03*
Y49000D02*
D03*
X28000Y51000D02*
D03*
Y49000D02*
D03*
X26000Y51000D02*
D03*
Y49000D02*
D03*
X24000Y51000D02*
D03*
Y49000D02*
D03*
X22000Y51000D02*
D03*
Y49000D02*
D03*
X20000Y51000D02*
D03*
Y49000D02*
D03*
X18000Y51000D02*
D03*
Y49000D02*
D03*
X16000Y51000D02*
D03*
Y49000D02*
D03*
X14000Y51000D02*
D03*
Y49000D02*
D03*
X12000Y51000D02*
D03*
Y49000D02*
D03*
X32000Y9000D02*
D03*
X20066Y18161D02*
D03*
X36676Y27813D02*
D03*
X32004Y41656D02*
D03*
X36449Y19939D02*
D03*
X83200Y16760D02*
D03*
Y19300D02*
D03*
Y21840D02*
D03*
D54*
X25984Y1346D02*
D03*
X32563D02*
D03*
D55*
X78200Y41500D02*
D03*
Y44040D02*
D03*
Y38960D02*
D03*
X83280D02*
D03*
Y44040D02*
D03*
D56*
X81000Y50000D02*
D03*
X4000Y18500D02*
D03*
D57*
X69800Y42000D02*
D03*
Y44900D02*
D03*
X73200Y42000D02*
D03*
D58*
X74700Y49900D02*
D03*
X70700D02*
D03*
D59*
X83200Y24380D02*
D03*
D60*
X70383Y27635D02*
D03*
X68148Y17755D02*
D03*
X72644Y27864D02*
D03*
X75794Y26111D02*
D03*
X68448Y26948D02*
D03*
X5639Y44755D02*
D03*
X11049Y7010D02*
D03*
X10500Y10500D02*
D03*
X10312Y9246D02*
D03*
X12040Y8458D02*
D03*
X6680Y15545D02*
D03*
X2438Y11786D02*
D03*
X2489Y2870D02*
D03*
X8001D02*
D03*
Y50902D02*
D03*
X2489Y47422D02*
D03*
X2515Y42088D02*
D03*
X6121Y40310D02*
D03*
X8103Y47396D02*
D03*
X8100Y11800D02*
D03*
X63779Y39125D02*
D03*
X63667Y40779D02*
D03*
X68936Y22758D02*
D03*
X52324Y20193D02*
D03*
X26060Y20472D02*
D03*
X10262Y838D02*
D03*
X22835Y6071D02*
D03*
X31203Y6121D02*
D03*
X10871Y37313D02*
D03*
X12090Y10770D02*
D03*
X20218Y11328D02*
D03*
X17780Y13233D02*
D03*
X19583Y16586D02*
D03*
X15570Y10744D02*
D03*
X15189Y9373D02*
D03*
X16967Y16078D02*
D03*
X21000Y12500D02*
D03*
X21895Y13157D02*
D03*
X45034Y25883D02*
D03*
X10719Y47295D02*
D03*
X40437Y39675D02*
D03*
X38862Y38100D02*
D03*
X39243Y37084D02*
D03*
X44577Y36728D02*
D03*
X49200Y22936D02*
D03*
X45212Y46609D02*
D03*
X23100Y36125D02*
D03*
X18000Y21925D02*
D03*
X17375Y26025D02*
D03*
X19750Y5850D02*
D03*
X18525Y26150D02*
D03*
X18825Y21075D02*
D03*
X54250Y24600D02*
D03*
X51550Y25575D02*
D03*
X49725Y38550D02*
D03*
X46875Y39425D02*
D03*
X12250Y38250D02*
D03*
X15225Y36625D02*
D03*
X18085Y34138D02*
D03*
X12903Y34442D02*
D03*
X16561Y32817D02*
D03*
X8915Y37236D02*
D03*
X1397Y37287D02*
D03*
X58242Y32715D02*
D03*
X30455Y19736D02*
D03*
X31217Y7468D02*
D03*
X10592Y19380D02*
D03*
X29997Y12217D02*
D03*
X26670Y14326D02*
D03*
X23927Y8509D02*
D03*
X22885Y13665D02*
D03*
X22809Y12573D02*
D03*
X18872Y1219D02*
D03*
X10592Y2692D02*
D03*
X21768Y18136D02*
D03*
X24562Y9652D02*
D03*
X25654Y9931D02*
D03*
X30937Y10109D02*
D03*
X29718Y9728D02*
D03*
X31140Y2896D02*
D03*
X32461Y3796D02*
D03*
X26061D02*
D03*
X24486Y7112D02*
D03*
X26695Y5613D02*
D03*
X33147Y7772D02*
D03*
X19228Y3200D02*
D03*
X12675Y2642D02*
D03*
X17882Y2591D02*
D03*
X83947Y27305D02*
D03*
X83312Y28194D02*
D03*
X21742Y8661D02*
D03*
X15963Y38735D02*
D03*
X20408Y41402D02*
D03*
X21805Y37084D02*
D03*
X48824Y45688D02*
D03*
X29845Y42926D02*
D03*
X19050Y46609D02*
D03*
X23368D02*
D03*
X57927Y42260D02*
D03*
X44069Y39624D02*
D03*
X35267Y37885D02*
D03*
X32639Y37846D02*
D03*
X25251Y46924D02*
D03*
X48741Y25781D02*
D03*
X43534Y24257D02*
D03*
X26477Y23241D02*
D03*
X25080Y27559D02*
D03*
X62599Y28417D02*
D03*
X37311Y24003D02*
D03*
X49884Y32766D02*
D03*
X53496Y31845D02*
D03*
X34517Y29083D02*
D03*
X28040Y32766D02*
D03*
X23722D02*
D03*
X39939Y24042D02*
D03*
X29923Y33081D02*
D03*
X20635Y24892D02*
D03*
X43915Y23241D02*
D03*
X43561Y36068D02*
D03*
X13818Y18745D02*
D03*
X24460Y19406D02*
D03*
X30480Y17323D02*
D03*
X32155Y19712D02*
D03*
X70100Y39400D02*
D03*
X33800Y45700D02*
D03*
X38700Y31800D02*
D03*
X48233Y22225D02*
D03*
X58200Y34300D02*
D03*
X28004Y25996D02*
D03*
X24345Y37145D02*
D03*
X52300Y45200D02*
D03*
X7500Y34200D02*
D03*
X66700Y24300D02*
D03*
X28900Y34800D02*
D03*
X33000D02*
D03*
X20300Y13200D02*
D03*
X29017Y23317D02*
D03*
X77470Y30226D02*
D03*
X41478Y40665D02*
D03*
X46457Y26340D02*
D03*
X68466Y34404D02*
D03*
D61*
X71679Y16967D02*
D03*
X73533Y16764D02*
D03*
X51537Y47193D02*
D03*
X47269Y19101D02*
D03*
X34163Y13970D02*
D03*
X44475Y19456D02*
D03*
X67564Y41275D02*
D03*
X71247Y47371D02*
D03*
X81700Y31300D02*
D03*
X79375Y28702D02*
D03*
X59944Y16891D02*
D03*
X56261Y16637D02*
D03*
X81280Y35052D02*
D03*
X32512Y16510D02*
D03*
X34036Y19431D02*
D03*
X73533Y20574D02*
D03*
M02*
