G04 Layer_Color=8388736*
%FSLAX43Y43*%
%MOMM*%
G71*
G01*
G75*
%ADD71C,0.152*%
D71*
X21259Y60802D02*
Y61602D01*
X21526Y61335D01*
X21793Y61602D01*
Y60802D01*
X22059D02*
X22326D01*
X22192D01*
Y61602D01*
X22059Y61468D01*
X23525Y61602D02*
Y60802D01*
X23925D01*
X24059Y60935D01*
Y61068D01*
X23925Y61202D01*
X23525D01*
X23925D01*
X24059Y61335D01*
Y61468D01*
X23925Y61602D01*
X23525D01*
X24458Y60802D02*
X24725D01*
X24858Y60935D01*
Y61202D01*
X24725Y61335D01*
X24458D01*
X24325Y61202D01*
Y60935D01*
X24458Y60802D01*
X25258Y61335D02*
X25525D01*
X25658Y61202D01*
Y60802D01*
X25258D01*
X25125Y60935D01*
X25258Y61068D01*
X25658D01*
X25925Y61335D02*
Y60802D01*
Y61068D01*
X26058Y61202D01*
X26191Y61335D01*
X26324D01*
X27257Y61602D02*
Y60802D01*
X26858D01*
X26724Y60935D01*
Y61202D01*
X26858Y61335D01*
X27257D01*
X28457Y60802D02*
X28724D01*
X28857Y60935D01*
Y61202D01*
X28724Y61335D01*
X28457D01*
X28324Y61202D01*
Y60935D01*
X28457Y60802D01*
X29124Y61335D02*
Y60935D01*
X29257Y60802D01*
X29657D01*
Y61335D01*
X30057Y61468D02*
Y61335D01*
X29923D01*
X30190D01*
X30057D01*
Y60935D01*
X30190Y60802D01*
X30590D02*
X30856D01*
X30723D01*
Y61602D01*
X30590D01*
X31256Y60802D02*
X31523D01*
X31389D01*
Y61335D01*
X31256D01*
X31923Y60802D02*
Y61335D01*
X32322D01*
X32456Y61202D01*
Y60802D01*
X33122D02*
X32856D01*
X32722Y60935D01*
Y61202D01*
X32856Y61335D01*
X33122D01*
X33256Y61202D01*
Y61068D01*
X32722D01*
X21259Y59477D02*
Y60277D01*
X21526Y60010D01*
X21793Y60277D01*
Y59477D01*
X22592D02*
X22059D01*
X22592Y60010D01*
Y60144D01*
X22459Y60277D01*
X22192D01*
X22059Y60144D01*
X24192Y60277D02*
X23659D01*
Y59877D01*
X23925D01*
X23659D01*
Y59477D01*
X24592Y60010D02*
X24858D01*
X24992Y59877D01*
Y59477D01*
X24592D01*
X24458Y59611D01*
X24592Y59744D01*
X24992D01*
X25258Y60277D02*
Y59477D01*
X25658D01*
X25791Y59611D01*
Y59744D01*
Y59877D01*
X25658Y60010D01*
X25258D01*
X26858Y59477D02*
X27124D01*
X26991D01*
Y60010D01*
X26858D01*
X27524Y59477D02*
Y60010D01*
X27924D01*
X28057Y59877D01*
Y59477D01*
X28324D02*
X28724D01*
X28857Y59611D01*
X28724Y59744D01*
X28457D01*
X28324Y59877D01*
X28457Y60010D01*
X28857D01*
X29257Y60144D02*
Y60010D01*
X29124D01*
X29390D01*
X29257D01*
Y59611D01*
X29390Y59477D01*
X29790Y60010D02*
Y59477D01*
Y59744D01*
X29923Y59877D01*
X30057Y60010D01*
X30190D01*
X30590D02*
Y59611D01*
X30723Y59477D01*
X31123D01*
Y60010D01*
X31923D02*
X31523D01*
X31389Y59877D01*
Y59611D01*
X31523Y59477D01*
X31923D01*
X32322Y60144D02*
Y60010D01*
X32189D01*
X32456D01*
X32322D01*
Y59611D01*
X32456Y59477D01*
X32856D02*
X33122D01*
X32989D01*
Y60010D01*
X32856D01*
X33655Y59477D02*
X33922D01*
X34055Y59611D01*
Y59877D01*
X33922Y60010D01*
X33655D01*
X33522Y59877D01*
Y59611D01*
X33655Y59477D01*
X34322D02*
Y60010D01*
X34722D01*
X34855Y59877D01*
Y59477D01*
X35122D02*
X35521D01*
X35655Y59611D01*
X35521Y59744D01*
X35255D01*
X35122Y59877D01*
X35255Y60010D01*
X35655D01*
X21259Y58153D02*
Y58953D01*
X21526Y58686D01*
X21793Y58953D01*
Y58153D01*
X22059Y58819D02*
X22192Y58953D01*
X22459D01*
X22592Y58819D01*
Y58686D01*
X22459Y58553D01*
X22326D01*
X22459D01*
X22592Y58419D01*
Y58286D01*
X22459Y58153D01*
X22192D01*
X22059Y58286D01*
X23792Y58686D02*
X24059D01*
X24192Y58553D01*
Y58153D01*
X23792D01*
X23659Y58286D01*
X23792Y58419D01*
X24192D01*
X24458Y58153D02*
X24858D01*
X24992Y58286D01*
X24858Y58419D01*
X24592D01*
X24458Y58553D01*
X24592Y58686D01*
X24992D01*
X25258Y58153D02*
X25658D01*
X25791Y58286D01*
X25658Y58419D01*
X25391D01*
X25258Y58553D01*
X25391Y58686D01*
X25791D01*
X26458Y58153D02*
X26191D01*
X26058Y58286D01*
Y58553D01*
X26191Y58686D01*
X26458D01*
X26591Y58553D01*
Y58419D01*
X26058D01*
X26858Y58153D02*
Y58686D01*
X26991D01*
X27124Y58553D01*
Y58153D01*
Y58553D01*
X27257Y58686D01*
X27391Y58553D01*
Y58153D01*
X27657Y58953D02*
Y58153D01*
X28057D01*
X28190Y58286D01*
Y58419D01*
Y58553D01*
X28057Y58686D01*
X27657D01*
X28457Y58153D02*
X28724D01*
X28590D01*
Y58953D01*
X28457D01*
X29124Y58686D02*
Y58286D01*
X29257Y58153D01*
X29657D01*
Y58019D01*
X29523Y57886D01*
X29390D01*
X29657Y58153D02*
Y58686D01*
X31256Y58953D02*
Y58153D01*
X30856D01*
X30723Y58286D01*
Y58553D01*
X30856Y58686D01*
X31256D01*
X31523D02*
Y58153D01*
Y58419D01*
X31656Y58553D01*
X31789Y58686D01*
X31923D01*
X32456D02*
X32722D01*
X32856Y58553D01*
Y58153D01*
X32456D01*
X32322Y58286D01*
X32456Y58419D01*
X32856D01*
X33122Y58686D02*
Y58286D01*
X33256Y58153D01*
X33389Y58286D01*
X33522Y58153D01*
X33655Y58286D01*
Y58686D01*
X33922Y58153D02*
X34189D01*
X34055D01*
Y58686D01*
X33922D01*
X34588Y58153D02*
Y58686D01*
X34988D01*
X35122Y58553D01*
Y58153D01*
X35655Y57886D02*
X35788D01*
X35921Y58019D01*
Y58686D01*
X35521D01*
X35388Y58553D01*
Y58286D01*
X35521Y58153D01*
X35921D01*
X-6427Y68888D02*
Y68088D01*
X-6027D01*
X-5893Y68221D01*
Y68755D01*
X-6027Y68888D01*
X-6427D01*
X-5627D02*
Y68088D01*
Y68488D01*
X-5494Y68621D01*
X-5227D01*
X-5094Y68488D01*
Y68088D01*
X-4827D02*
X-4561D01*
X-4694D01*
Y68621D01*
X-4827D01*
X-4161Y68088D02*
Y68621D01*
X-4027D01*
X-3894Y68488D01*
Y68088D01*
Y68488D01*
X-3761Y68621D01*
X-3628Y68488D01*
Y68088D01*
X-3228Y68621D02*
X-2961D01*
X-2828Y68488D01*
Y68088D01*
X-3228D01*
X-3361Y68221D01*
X-3228Y68355D01*
X-2828D01*
X-2561Y68088D02*
Y68621D01*
X-2161D01*
X-2028Y68488D01*
Y68088D01*
X-5893Y67563D02*
X-6427D01*
Y66764D01*
X-5893D01*
X-6427Y67163D02*
X-6160D01*
X-5627Y66764D02*
Y67563D01*
X-5360Y67297D01*
X-5094Y67563D01*
Y66764D01*
X-4827D02*
Y67297D01*
X-4561Y67563D01*
X-4294Y67297D01*
Y66764D01*
Y67163D01*
X-4827D01*
X-4027Y67563D02*
X-3761D01*
X-3894D01*
Y66764D01*
X-4027D01*
X-3761D01*
X-3361Y67563D02*
Y66764D01*
X-2828D01*
X-1228Y67563D02*
Y66764D01*
X-1628D01*
X-1761Y66897D01*
Y67163D01*
X-1628Y67297D01*
X-1228D01*
X-962Y67563D02*
Y66764D01*
Y67163D01*
X-828Y67297D01*
X-562D01*
X-429Y67163D01*
Y66764D01*
X-162D02*
X105D01*
X-29D01*
Y67297D01*
X-162D01*
X504Y66764D02*
Y67297D01*
X638D01*
X771Y67163D01*
Y66764D01*
Y67163D01*
X904Y67297D01*
X1038Y67163D01*
Y66764D01*
X1304D02*
Y67297D01*
X1704D01*
X1837Y67163D01*
Y66764D01*
X2104D02*
X2504D01*
X2637Y66897D01*
X2504Y67030D01*
X2237D01*
X2104Y67163D01*
X2237Y67297D01*
X2637D01*
X3304Y66764D02*
X3037D01*
X2904Y66897D01*
Y67163D01*
X3037Y67297D01*
X3304D01*
X3437Y67163D01*
Y67030D01*
X2904D01*
X3703Y66764D02*
Y67297D01*
X4103D01*
X4237Y67163D01*
Y66764D01*
X4903Y67030D02*
Y67163D01*
X4770D01*
Y67030D01*
X4903D01*
X5036Y67163D01*
Y67430D01*
X4903Y67563D01*
X4636D01*
X4503Y67430D01*
Y66897D01*
X4636Y66764D01*
X5036D01*
X5703D02*
X5436D01*
X5303Y66897D01*
Y67163D01*
X5436Y67297D01*
X5703D01*
X5836Y67163D01*
Y67030D01*
X5303D01*
X6103Y66764D02*
Y67297D01*
X6503D01*
X6636Y67163D01*
Y66764D01*
X7169Y66497D02*
X7302D01*
X7436Y66630D01*
Y67297D01*
X7036D01*
X6902Y67163D01*
Y66897D01*
X7036Y66764D01*
X7436D01*
X7702D02*
Y66897D01*
X7835D01*
Y66764D01*
X7702D01*
X8369Y67297D02*
Y66897D01*
X8502Y66764D01*
X8902D01*
Y67297D01*
X9702D02*
X9302D01*
X9168Y67163D01*
Y66897D01*
X9302Y66764D01*
X9702D01*
X9968D02*
X10368D01*
X10501Y66897D01*
X10368Y67030D01*
X10101D01*
X9968Y67163D01*
X10101Y67297D01*
X10501D01*
X11301Y67563D02*
Y66764D01*
X10901D01*
X10768Y66897D01*
Y67163D01*
X10901Y67297D01*
X11301D01*
X11568Y66764D02*
Y66897D01*
X11701D01*
Y66764D01*
X11568D01*
X12634D02*
X12367D01*
X12234Y66897D01*
Y67163D01*
X12367Y67297D01*
X12634D01*
X12767Y67163D01*
Y67030D01*
X12234D01*
X13567Y67563D02*
Y66764D01*
X13167D01*
X13034Y66897D01*
Y67163D01*
X13167Y67297D01*
X13567D01*
X13834D02*
Y66897D01*
X13967Y66764D01*
X14367D01*
Y67297D01*
X-5893Y65972D02*
X-6160Y65839D01*
X-6427Y65572D01*
Y65306D01*
X-6293Y65172D01*
X-6027D01*
X-5893Y65306D01*
Y65439D01*
X-6027Y65572D01*
X-6427D01*
X-5627Y65172D02*
Y65972D01*
X-5360Y65706D01*
X-5094Y65972D01*
Y65172D01*
X-4827Y65972D02*
X-4561D01*
X-4694D01*
Y65172D01*
X-4827D01*
X-4561D01*
X-4161Y65972D02*
Y65172D01*
X-3628D01*
X-2028Y65839D02*
X-2161Y65972D01*
X-2428D01*
X-2561Y65839D01*
Y65706D01*
X-2428Y65572D01*
X-2161D01*
X-2028Y65439D01*
Y65306D01*
X-2161Y65172D01*
X-2428D01*
X-2561Y65306D01*
X-1761Y65172D02*
Y65972D01*
X-1362D01*
X-1228Y65839D01*
Y65572D01*
X-1362Y65439D01*
X-1761D01*
X-962Y65172D02*
Y65706D01*
X-695Y65972D01*
X-429Y65706D01*
Y65172D01*
Y65572D01*
X-962D01*
X371Y65839D02*
X238Y65972D01*
X-29D01*
X-162Y65839D01*
Y65306D01*
X-29Y65172D01*
X238D01*
X371Y65306D01*
X1171Y65972D02*
X638D01*
Y65172D01*
X1171D01*
X638Y65572D02*
X904D01*
X1438Y65172D02*
X1971Y65706D01*
X2237Y65972D02*
X2770D01*
X2504D01*
Y65172D01*
X3037D02*
Y65972D01*
X3437D01*
X3570Y65839D01*
Y65572D01*
X3437Y65439D01*
X3037D01*
X3304D02*
X3570Y65172D01*
X3837D02*
Y65706D01*
X4103Y65972D01*
X4370Y65706D01*
Y65172D01*
Y65572D01*
X3837D01*
X5170Y65839D02*
X5036Y65972D01*
X4770D01*
X4636Y65839D01*
Y65306D01*
X4770Y65172D01*
X5036D01*
X5170Y65306D01*
X5969Y65972D02*
X5436D01*
Y65172D01*
X5969D01*
X5436Y65572D02*
X5703D01*
X-6427Y63848D02*
X-6160D01*
X-6293D01*
Y64648D01*
X-6427Y64514D01*
X-5227Y63848D02*
X-5760D01*
X-5227Y64381D01*
Y64514D01*
X-5360Y64648D01*
X-5627D01*
X-5760Y64514D01*
X-4960Y63848D02*
Y64648D01*
X-4694Y64381D01*
X-4427Y64648D01*
Y63848D01*
X-4161Y64648D02*
X-3894D01*
X-4027D01*
Y63848D01*
X-4161D01*
X-3894D01*
X-3494Y64648D02*
Y63848D01*
X-2961D01*
X-1895Y64648D02*
Y64115D01*
X-1628Y63848D01*
X-1362Y64115D01*
Y64648D01*
X-1095D02*
X-828D01*
X-962D01*
Y63848D01*
X-1095D01*
X-828D01*
X-429D02*
Y64381D01*
X-162Y64648D01*
X105Y64381D01*
Y63848D01*
Y64248D01*
X-429D01*
X-6427Y62524D02*
X-6160D01*
X-6293D01*
Y63323D01*
X-6427Y63190D01*
X-5760Y62524D02*
Y62657D01*
X-5627D01*
Y62524D01*
X-5760D01*
X-4561Y63323D02*
X-4827Y63190D01*
X-5094Y62923D01*
Y62657D01*
X-4960Y62524D01*
X-4694D01*
X-4561Y62657D01*
Y62790D01*
X-4694Y62923D01*
X-5094D01*
X-4294Y62524D02*
Y63057D01*
X-4161D01*
X-4027Y62923D01*
Y62524D01*
Y62923D01*
X-3894Y63057D01*
X-3761Y62923D01*
Y62524D01*
X-3494D02*
Y63057D01*
X-3361D01*
X-3228Y62923D01*
Y62524D01*
Y62923D01*
X-3094Y63057D01*
X-2961Y62923D01*
Y62524D01*
X-1895D02*
Y63323D01*
X-1495D01*
X-1362Y63190D01*
Y62923D01*
X-1495Y62790D01*
X-1895D01*
X-562Y63190D02*
X-695Y63323D01*
X-962D01*
X-1095Y63190D01*
Y62657D01*
X-962Y62524D01*
X-695D01*
X-562Y62657D01*
X-295Y63323D02*
Y62524D01*
X105D01*
X238Y62657D01*
Y62790D01*
X105Y62923D01*
X-295D01*
X105D01*
X238Y63057D01*
Y63190D01*
X105Y63323D01*
X-295D01*
X-6027Y61199D02*
Y61999D01*
X-6427Y61599D01*
X-5893D01*
X-4827Y61999D02*
Y61199D01*
X-4294D01*
X-4027D02*
Y61732D01*
X-3761Y61999D01*
X-3494Y61732D01*
Y61199D01*
Y61599D01*
X-4027D01*
X-3228Y61999D02*
Y61865D01*
X-2961Y61599D01*
X-2694Y61865D01*
Y61999D01*
X-2961Y61599D02*
Y61199D01*
X-1895Y61999D02*
X-2428D01*
Y61199D01*
X-1895D01*
X-2428Y61599D02*
X-2161D01*
X-1628Y61199D02*
Y61999D01*
X-1228D01*
X-1095Y61865D01*
Y61599D01*
X-1228Y61466D01*
X-1628D01*
X-1362D02*
X-1095Y61199D01*
X-295Y61865D02*
X-429Y61999D01*
X-695D01*
X-828Y61865D01*
Y61732D01*
X-695Y61599D01*
X-429D01*
X-295Y61466D01*
Y61332D01*
X-429Y61199D01*
X-695D01*
X-828Y61332D01*
X-5893Y60674D02*
X-6427D01*
Y60274D01*
X-6160D01*
X-6427D01*
Y59875D01*
X-5627D02*
Y60674D01*
X-5227D01*
X-5094Y60541D01*
Y60274D01*
X-5227Y60141D01*
X-5627D01*
X-5360D02*
X-5094Y59875D01*
X-4827Y60274D02*
X-4294D01*
X-3628Y59875D02*
Y60674D01*
X-4027Y60274D01*
X-3494D01*
X-5893Y59216D02*
X-6027Y59350D01*
X-6293D01*
X-6427Y59216D01*
Y58683D01*
X-6293Y58550D01*
X-6027D01*
X-5893Y58683D01*
X-5494Y58550D02*
X-5227D01*
X-5094Y58683D01*
Y58950D01*
X-5227Y59083D01*
X-5494D01*
X-5627Y58950D01*
Y58683D01*
X-5494Y58550D01*
X-4827D02*
Y59083D01*
X-4427D01*
X-4294Y58950D01*
Y58550D01*
X-3894Y59216D02*
Y59083D01*
X-4027D01*
X-3761D01*
X-3894D01*
Y58683D01*
X-3761Y58550D01*
X-3228Y59083D02*
X-2961D01*
X-2828Y58950D01*
Y58550D01*
X-3228D01*
X-3361Y58683D01*
X-3228Y58817D01*
X-2828D01*
X-2028Y59083D02*
X-2428D01*
X-2561Y58950D01*
Y58683D01*
X-2428Y58550D01*
X-2028D01*
X-1628Y59216D02*
Y59083D01*
X-1761D01*
X-1495D01*
X-1628D01*
Y58683D01*
X-1495Y58550D01*
X238Y59350D02*
X-295D01*
Y58550D01*
X238D01*
X-295Y58950D02*
X-29D01*
X504Y58550D02*
Y59350D01*
X771Y59083D01*
X1038Y59350D01*
Y58550D01*
X1304D02*
Y59083D01*
X1571Y59350D01*
X1837Y59083D01*
Y58550D01*
Y58950D01*
X1304D01*
X2104Y59350D02*
X2371D01*
X2237D01*
Y58550D01*
X2104D01*
X2371D01*
X2770Y59350D02*
Y58550D01*
X3304D01*
X4370Y59083D02*
Y58683D01*
X4503Y58550D01*
X4636Y58683D01*
X4770Y58550D01*
X4903Y58683D01*
Y59083D01*
X5170Y58550D02*
X5436D01*
X5303D01*
Y59083D01*
X5170D01*
X5969Y59216D02*
Y59083D01*
X5836D01*
X6103D01*
X5969D01*
Y58683D01*
X6103Y58550D01*
X6503Y59350D02*
Y58550D01*
Y58950D01*
X6636Y59083D01*
X6902D01*
X7036Y58950D01*
Y58550D01*
X8235Y59083D02*
X8502D01*
X8635Y58950D01*
Y58550D01*
X8235D01*
X8102Y58683D01*
X8235Y58817D01*
X8635D01*
X8902Y58550D02*
Y59083D01*
X9302D01*
X9435Y58950D01*
Y58550D01*
X9702Y59083D02*
Y58683D01*
X9835Y58550D01*
X10235D01*
Y58417D01*
X10101Y58283D01*
X9968D01*
X10235Y58550D02*
Y59083D01*
X-5893Y56692D02*
Y57492D01*
X-6293D01*
X-6427Y57359D01*
Y57092D01*
X-6293Y56959D01*
X-5893D01*
X-5627Y57492D02*
Y57092D01*
X-5494Y56959D01*
X-5094D01*
Y57492D01*
X-4427Y56959D02*
X-4694D01*
X-4827Y57092D01*
Y57359D01*
X-4694Y57492D01*
X-4427D01*
X-4294Y57359D01*
Y57226D01*
X-4827D01*
X-4027Y56959D02*
X-3628D01*
X-3494Y57092D01*
X-3628Y57226D01*
X-3894D01*
X-4027Y57359D01*
X-3894Y57492D01*
X-3494D01*
X-3094Y57625D02*
Y57492D01*
X-3228D01*
X-2961D01*
X-3094D01*
Y57092D01*
X-2961Y56959D01*
X-2561D02*
X-2295D01*
X-2428D01*
Y57492D01*
X-2561D01*
X-1761Y56959D02*
X-1495D01*
X-1362Y57092D01*
Y57359D01*
X-1495Y57492D01*
X-1761D01*
X-1895Y57359D01*
Y57092D01*
X-1761Y56959D01*
X-1095D02*
Y57492D01*
X-695D01*
X-562Y57359D01*
Y56959D01*
X-295D02*
X105D01*
X238Y57092D01*
X105Y57226D01*
X-162D01*
X-295Y57359D01*
X-162Y57492D01*
X238D01*
M02*
