G04 Layer_Physical_Order=1*
G04 Layer_Color=255*
%FSLAX43Y43*%
%MOMM*%
G71*
G01*
G75*
G04:AMPARAMS|DCode=10|XSize=0.6mm|YSize=1.5mm|CornerRadius=0mm|HoleSize=0mm|Usage=FLASHONLY|Rotation=242.900|XOffset=0mm|YOffset=0mm|HoleType=Round|Shape=Rectangle|*
%AMROTATEDRECTD10*
4,1,4,-0.531,0.609,0.804,-0.075,0.531,-0.609,-0.804,0.075,-0.531,0.609,0.0*
%
%ADD10ROTATEDRECTD10*%

%ADD11R,0.900X0.250*%
%ADD12R,1.200X2.000*%
%ADD13R,0.400X0.600*%
G04:AMPARAMS|DCode=14|XSize=0.4mm|YSize=0.6mm|CornerRadius=0mm|HoleSize=0mm|Usage=FLASHONLY|Rotation=330.000|XOffset=0mm|YOffset=0mm|HoleType=Round|Shape=Rectangle|*
%AMROTATEDRECTD14*
4,1,4,-0.323,-0.160,-0.023,0.360,0.323,0.160,0.023,-0.360,-0.323,-0.160,0.0*
%
%ADD14ROTATEDRECTD14*%

%ADD15R,0.600X0.400*%
%ADD16R,0.850X0.280*%
%ADD17R,0.750X0.280*%
G04:AMPARAMS|DCode=18|XSize=0.8mm|YSize=1mm|CornerRadius=0mm|HoleSize=0mm|Usage=FLASHONLY|Rotation=242.900|XOffset=0mm|YOffset=0mm|HoleType=Round|Shape=Rectangle|*
%AMROTATEDRECTD18*
4,1,4,-0.263,0.584,0.627,0.128,0.263,-0.584,-0.627,-0.128,-0.263,0.584,0.0*
%
%ADD18ROTATEDRECTD18*%

G04:AMPARAMS|DCode=19|XSize=0.8mm|YSize=2mm|CornerRadius=0mm|HoleSize=0mm|Usage=FLASHONLY|Rotation=152.900|XOffset=0mm|YOffset=0mm|HoleType=Round|Shape=Rectangle|*
%AMROTATEDRECTD19*
4,1,4,0.812,0.708,-0.099,-1.072,-0.812,-0.708,0.099,1.072,0.812,0.708,0.0*
%
%ADD19ROTATEDRECTD19*%

%ADD20C,0.300*%
%ADD21C,0.152*%
%ADD22C,0.250*%
%ADD23C,0.500*%
%ADD24C,0.200*%
%ADD25C,0.400*%
%ADD26C,1.000*%
%ADD27C,0.610*%
%ADD28C,0.601*%
D10*
X8473Y804D02*
D03*
X8086Y47D02*
D03*
D11*
X3550Y3450D02*
D03*
Y3950D02*
D03*
Y4450D02*
D03*
Y4950D02*
D03*
X650D02*
D03*
Y4450D02*
D03*
Y3950D02*
D03*
Y3450D02*
D03*
D12*
X2100Y4200D02*
D03*
D13*
X1200Y1700D02*
D03*
X2000D02*
D03*
X2700D02*
D03*
X3500D02*
D03*
X1600Y800D02*
D03*
X800D02*
D03*
X4800Y5600D02*
D03*
X5600D02*
D03*
Y1300D02*
D03*
X4800D02*
D03*
X300Y6400D02*
D03*
X1100D02*
D03*
X5600Y4500D02*
D03*
X4800D02*
D03*
X4700Y2300D02*
D03*
X5500D02*
D03*
X5600Y3400D02*
D03*
X4800D02*
D03*
X2600Y6400D02*
D03*
X1800D02*
D03*
D14*
X7546Y2600D02*
D03*
X6853Y3000D02*
D03*
X7383Y3780D02*
D03*
X8076Y3380D02*
D03*
X6753Y2000D02*
D03*
X7446Y1600D02*
D03*
D15*
X6400Y-100D02*
D03*
Y700D02*
D03*
X4600Y-300D02*
D03*
Y500D02*
D03*
X-500Y3700D02*
D03*
Y4500D02*
D03*
Y5300D02*
D03*
Y6100D02*
D03*
D16*
X2550Y700D02*
D03*
D17*
X2525Y200D02*
D03*
Y-300D02*
D03*
X3675D02*
D03*
Y200D02*
D03*
Y700D02*
D03*
D18*
X8130Y4470D02*
D03*
D19*
X9100Y3300D02*
D03*
D20*
X5600Y4500D02*
X6300Y3800D01*
X6100Y3600D02*
X6300Y3800D01*
X6753Y2900D02*
X6853Y3000D01*
X6753Y2000D02*
Y2900D01*
X7383Y3780D02*
X7900Y4700D01*
X6853Y3000D02*
X7383Y3780D01*
X6100Y3400D02*
Y3600D01*
X2300Y1700D02*
X2700D01*
X2000D02*
X2300D01*
X2300Y1700D02*
X2300Y1700D01*
X800Y400D02*
Y900D01*
X800Y1300D02*
X1200Y1700D01*
X800Y800D02*
Y1300D01*
X1200Y1700D02*
Y2500D01*
X2300Y4400D02*
Y4950D01*
X4600Y1000D02*
X4800Y1300D01*
X7546Y2600D02*
X8076Y3380D01*
X2000Y1300D02*
Y1700D01*
X1600Y900D02*
X2000Y1300D01*
X7846Y2000D02*
X8100D01*
X7446Y1600D02*
X7846Y2000D01*
X8076Y3380D02*
X9020D01*
X650Y3050D02*
X1200Y2500D01*
X800Y400D02*
X1000Y200D01*
X4600Y500D02*
Y1000D01*
X5600Y3400D02*
X6100D01*
Y1000D02*
Y3400D01*
X2600Y5900D02*
Y6400D01*
X2300Y5600D02*
X2600Y5900D01*
X2300Y4950D02*
Y5600D01*
D21*
X6200D02*
X6800Y5000D01*
X4800Y3376D02*
X5150Y3026D01*
Y2749D02*
Y3026D01*
Y2749D02*
X5600Y2300D01*
X-2800Y4800D02*
X-1700D01*
X-600Y3700D01*
X-500D01*
X350Y4950D02*
X650D01*
X299Y5001D02*
X350Y4950D01*
X299Y5001D02*
Y5599D01*
X-250Y3950D02*
X650D01*
X-500Y3700D02*
X-250Y3950D01*
X2048Y251D02*
X2100Y200D01*
X2048Y251D02*
Y548D01*
X2200Y700D01*
X2550D01*
X1800Y-100D02*
Y200D01*
Y-100D02*
X2000Y-300D01*
X2525D01*
X-3500Y6000D02*
X-3500Y6000D01*
X-1026Y3200D02*
X650D01*
X-2100Y3600D02*
X-1426D01*
X-1026Y3200D01*
X4300Y2800D02*
X4800Y2300D01*
X8400Y2600D02*
X9100Y3300D01*
X4800Y1300D02*
X4800D01*
X4600Y-300D02*
X4800D01*
X5700Y1300D02*
X5800D01*
X9020Y3380D02*
X9100Y3300D01*
X-500Y4500D02*
Y4600D01*
X650Y3050D02*
Y3200D01*
Y3450D01*
X-500Y4600D02*
Y5100D01*
X3550Y3950D02*
X4250D01*
X4800Y3400D01*
Y3376D02*
Y3400D01*
X5600Y5600D02*
X6200D01*
X4800Y4500D02*
Y5600D01*
X3550Y4450D02*
X4750D01*
X4800Y4500D01*
X3550Y3450D02*
X3850D01*
X4300Y3000D01*
Y2800D02*
Y3000D01*
X1100Y6400D02*
X1800D01*
X100Y6600D02*
X300Y6400D01*
X-1100Y6100D02*
X-500D01*
X-1200Y6000D02*
X-1100Y6100D01*
X-1801Y6599D02*
X-1801Y6600D01*
X100D01*
X-3500Y6000D02*
X-1200D01*
X3600Y2800D02*
X3800D01*
X4300D01*
X-350Y4450D02*
X650D01*
X-500Y4600D02*
X-350Y4450D01*
D22*
X3800Y1399D02*
X3999D01*
X3500Y1700D02*
X3800Y1399D01*
X1800Y200D02*
X2100D01*
X1000D02*
X1800D01*
X3675Y1075D02*
X3999Y1399D01*
X3675Y700D02*
Y1075D01*
Y200D02*
X4300D01*
X3675Y-300D02*
X4600D01*
X2300Y4950D02*
X3550D01*
D23*
X2300Y1700D02*
Y2600D01*
D24*
X4300Y200D02*
X4600Y500D01*
D25*
X4800Y-300D02*
X5500Y400D01*
X6000Y-100D02*
X6400D01*
X5500Y400D02*
X6000Y-100D01*
X5800Y1300D02*
X6100Y1000D01*
X6400Y700D01*
D26*
X0Y0D02*
D03*
X-700Y1200D02*
D03*
X-1400Y2400D02*
D03*
X-2100Y3600D02*
D03*
X-2800Y4800D02*
D03*
X-3500Y6000D02*
D03*
D27*
X6300Y3800D02*
D03*
X6800Y5000D02*
D03*
X3999Y1399D02*
D03*
X5500Y400D02*
D03*
X8100Y2000D02*
D03*
X299Y5599D02*
D03*
X-1801Y6599D02*
D03*
X3800Y2800D02*
D03*
X2300Y2600D02*
D03*
D28*
X2100Y3700D02*
D03*
X8800Y2800D02*
D03*
X2100Y4600D02*
D03*
X-1200Y6000D02*
D03*
M02*
