<?xml version="1.0" encoding="UTF-8" standalone="no"?>
<!DOCTYPE svg PUBLIC "-//W3C//DTD SVG 1.1//EN"
 "http://www.w3.org/Graphics/SVG/1.1/DTD/svg11.dtd">
<!-- Generated by graphviz version 2.40.1 (20161225.0304)
 -->
<!-- Title: libosp/afc/afc.c Pages: 1 -->
<svg width="509pt" height="82pt"
 viewBox="0.00 0.00 509.33 82.00" xmlns="http://www.w3.org/2000/svg" xmlns:xlink="http://www.w3.org/1999/xlink">
<g id="graph0" class="graph" transform="scale(1 1) rotate(0) translate(4 78)">
<title>libosp/afc/afc.c</title>
<polygon fill="#ffffff" stroke="transparent" points="-4,4 -4,-78 505.3306,-78 505.3306,4 -4,4"/>
<!-- Node0 -->
<g id="node1" class="node">
<title>Node0</title>
<polygon fill="#bfbfbf" stroke="#000000" points="174.771,-55.5 174.771,-73.5 256.9136,-73.5 256.9136,-55.5 174.771,-55.5"/>
<text text-anchor="middle" x="215.8423" y="-61.5" font-family="Helvetica,sans-Serif" font-size="10.00" fill="#000000">libosp/afc/afc.c</text>
</g>
<!-- Node1 -->
<g id="node2" class="node">
<title>Node1</title>
<polygon fill="#ffffff" stroke="#bfbfbf" points="0,-.5 0,-18.5 47.6846,-18.5 47.6846,-.5 0,-.5"/>
<text text-anchor="middle" x="23.8423" y="-6.5" font-family="Helvetica,sans-Serif" font-size="10.00" fill="#000000">stdlib.h</text>
</g>
<!-- Node0&#45;&gt;Node1 -->
<g id="edge1" class="edge">
<title>Node0&#45;&gt;Node1</title>
<path fill="none" stroke="#191970" d="M184.1623,-55.4503C154.075,-46.8521 107.3086,-33.4783 57.9036,-19.3017"/>
<polygon fill="#191970" stroke="#191970" points="58.5691,-15.8514 47.9916,-16.4568 56.6379,-22.5798 58.5691,-15.8514"/>
</g>
<!-- Node2 -->
<g id="node3" class="node">
<title>Node2</title>
<polygon fill="#ffffff" stroke="#bfbfbf" points="65.4458,-.5 65.4458,-18.5 114.2388,-18.5 114.2388,-.5 65.4458,-.5"/>
<text text-anchor="middle" x="89.8423" y="-6.5" font-family="Helvetica,sans-Serif" font-size="10.00" fill="#000000">string.h</text>
</g>
<!-- Node0&#45;&gt;Node2 -->
<g id="edge2" class="edge">
<title>Node0&#45;&gt;Node2</title>
<path fill="none" stroke="#191970" d="M195.0359,-55.4179C174.6084,-46.5011 143.2274,-32.803 120.0531,-22.6873"/>
<polygon fill="#191970" stroke="#191970" points="121.2447,-19.3885 110.6795,-18.5956 118.4442,-25.804 121.2447,-19.3885"/>
</g>
<!-- Node3 -->
<g id="node4" class="node">
<title>Node3</title>
<polygon fill="#ffffff" stroke="#bfbfbf" points="132.5566,-.5 132.5566,-18.5 179.1279,-18.5 179.1279,-.5 132.5566,-.5"/>
<text text-anchor="middle" x="155.8423" y="-6.5" font-family="Helvetica,sans-Serif" font-size="10.00" fill="#000000">math.h</text>
</g>
<!-- Node0&#45;&gt;Node3 -->
<g id="edge3" class="edge">
<title>Node0&#45;&gt;Node3</title>
<path fill="none" stroke="#191970" d="M205.9345,-55.4179C197.1287,-47.3458 184.0484,-35.3556 173.4623,-25.6517"/>
<polygon fill="#191970" stroke="#191970" points="175.7019,-22.9567 165.9653,-18.7795 170.9718,-28.1168 175.7019,-22.9567"/>
</g>
<!-- Node4 -->
<g id="node5" class="node">
<title>Node4</title>
<g id="a_node5"><a xlink:href="afc_8h.html" target="_top" xlink:title="afc.h">
<polygon fill="#ffffff" stroke="#000000" points="197.0024,-.5 197.0024,-18.5 234.6821,-18.5 234.6821,-.5 197.0024,-.5"/>
<text text-anchor="middle" x="215.8423" y="-6.5" font-family="Helvetica,sans-Serif" font-size="10.00" fill="#000000">afc.h</text>
</a>
</g>
</g>
<!-- Node0&#45;&gt;Node4 -->
<g id="edge4" class="edge">
<title>Node0&#45;&gt;Node4</title>
<path fill="none" stroke="#191970" d="M215.8423,-55.4179C215.8423,-48.2164 215.8423,-37.8962 215.8423,-28.8632"/>
<polygon fill="#191970" stroke="#191970" points="219.3424,-28.7794 215.8423,-18.7795 212.3424,-28.7795 219.3424,-28.7794"/>
</g>
<!-- Node5 -->
<g id="node6" class="node">
<title>Node5</title>
<g id="a_node6"><a xlink:href="filter_8h.html" target="_top" xlink:title="filter.h">
<polygon fill="#ffffff" stroke="#000000" points="252.5,-.5 252.5,-18.5 295.1846,-18.5 295.1846,-.5 252.5,-.5"/>
<text text-anchor="middle" x="273.8423" y="-6.5" font-family="Helvetica,sans-Serif" font-size="10.00" fill="#000000">filter.h</text>
</a>
</g>
</g>
<!-- Node0&#45;&gt;Node5 -->
<g id="edge5" class="edge">
<title>Node0&#45;&gt;Node5</title>
<path fill="none" stroke="#191970" d="M225.4198,-55.4179C233.8487,-47.425 246.3288,-35.5903 256.5079,-25.9377"/>
<polygon fill="#191970" stroke="#191970" points="259.2087,-28.2001 264.0567,-18.7795 254.3921,-23.1207 259.2087,-28.2001"/>
</g>
<!-- Node6 -->
<g id="node7" class="node">
<title>Node6</title>
<g id="a_node7"><a xlink:href="array__utilities_8h.html" target="_top" xlink:title="array_utilities.h">
<polygon fill="#ffffff" stroke="#000000" points="313.2168,-.5 313.2168,-18.5 396.4678,-18.5 396.4678,-.5 313.2168,-.5"/>
<text text-anchor="middle" x="354.8423" y="-6.5" font-family="Helvetica,sans-Serif" font-size="10.00" fill="#000000">array_utilities.h</text>
</a>
</g>
</g>
<!-- Node0&#45;&gt;Node6 -->
<g id="edge6" class="edge">
<title>Node0&#45;&gt;Node6</title>
<path fill="none" stroke="#191970" d="M238.7953,-55.4179C261.6323,-46.3817 296.8786,-32.4353 322.5367,-22.2828"/>
<polygon fill="#191970" stroke="#191970" points="323.8444,-25.5295 331.8552,-18.5956 321.2688,-19.0205 323.8444,-25.5295"/>
</g>
<!-- Node7 -->
<g id="node8" class="node">
<title>Node7</title>
<g id="a_node8"><a xlink:href="circular__buffer_8h.html" target="_top" xlink:title="circular_buffer.h">
<polygon fill="#ffffff" stroke="#000000" points="414.354,-.5 414.354,-18.5 501.3306,-18.5 501.3306,-.5 414.354,-.5"/>
<text text-anchor="middle" x="457.8423" y="-6.5" font-family="Helvetica,sans-Serif" font-size="10.00" fill="#000000">circular_buffer.h</text>
</a>
</g>
</g>
<!-- Node0&#45;&gt;Node7 -->
<g id="edge7" class="edge">
<title>Node0&#45;&gt;Node7</title>
<path fill="none" stroke="#191970" d="M255.5327,-55.4795C297.2948,-45.9881 363.1081,-31.0305 408.2597,-20.7688"/>
<polygon fill="#191970" stroke="#191970" points="409.1546,-24.1547 418.1302,-18.5255 407.6032,-17.3288 409.1546,-24.1547"/>
</g>
</g>
</svg>
