<?xml version="1.0" encoding="UTF-8" standalone="no"?>
<!DOCTYPE svg PUBLIC "-//W3C//DTD SVG 1.1//EN"
 "http://www.w3.org/Graphics/SVG/1.1/DTD/svg11.dtd">
<!-- Generated by graphviz version 2.40.1 (20161225.0304)
 -->
<!-- Title: libosp/afc/afc.c Pages: 1 -->
<!--zoomable 82 -->
<svg id="main" version="1.1" xmlns="http://www.w3.org/2000/svg" xmlns:xlink="http://www.w3.org/1999/xlink" xml:space="preserve" onload="init(evt)">
<style type="text/css"><![CDATA[
.edge:hover path { stroke: red; }
.edge:hover polygon { stroke: red; fill: red; }
]]></style>
<script type="text/javascript"><![CDATA[
var edges = document.getElementsByTagName('g');
if (edges && edges.length) {
  for (var i=0;i<edges.length;i++) {
    if (edges[i].id.substr(0,4)=='edge') {
      edges[i].setAttribute('class','edge');
    }
  }
}
]]></script>
        <defs>
                <circle id="rim" cx="0" cy="0" r="7"/>
                <circle id="rim2" cx="0" cy="0" r="3.5"/>
                <g id="zoomPlus">
                        <use xlink:href="#rim" fill="#404040">
                                <set attributeName="fill" to="#808080" begin="zoomplus.mouseover" end="zoomplus.mouseout"/>
                        </use>
                        <path d="M-4,0h8M0,-4v8" fill="none" stroke="white" stroke-width="1.5" pointer-events="none"/>
                </g>
                <g id="zoomMin">
                        <use xlink:href="#rim" fill="#404040">
                                <set attributeName="fill" to="#808080" begin="zoomminus.mouseover" end="zoomminus.mouseout"/>
                        </use>
                        <path d="M-4,0h8" fill="none" stroke="white" stroke-width="1.5" pointer-events="none"/>
                </g>
                <g id="dirArrow">
                        <path fill="none" stroke="white" stroke-width="1.5" d="M0,-3.0v7 M-2.5,-0.5L0,-3.0L2.5,-0.5"/>
                </g>
               <g id="resetDef">
                       <use xlink:href="#rim2" fill="#404040">
                               <set attributeName="fill" to="#808080" begin="reset.mouseover" end="reset.mouseout"/>
                       </use>
               </g>
        </defs>

<script type="text/javascript">
var viewWidth = 573;
var viewHeight = 82;
var sectionId = 'dynsection-0';
</script>
<script xlink:href="svgpan.js"/>
<svg id="graph" class="graph">
<g id="viewport">
<title>libosp/afc/afc.c</title>
<polygon fill="#ffffff" stroke="transparent" points="-4,4 -4,-78 569.2197,-78 569.2197,4 -4,4"/>
<!-- Node0 -->
<g id="node1" class="node">
<title>Node0</title>
<polygon fill="#bfbfbf" stroke="#000000" points="208.6602,-55.5 208.6602,-73.5 290.8027,-73.5 290.8027,-55.5 208.6602,-55.5"/>
<text text-anchor="middle" x="249.7314" y="-61.5" font-family="Helvetica,sans-Serif" font-size="10.00" fill="#000000">libosp/afc/afc.c</text>
</g>
<!-- Node1 -->
<g id="node2" class="node">
<title>Node1</title>
<polygon fill="#ffffff" stroke="#bfbfbf" points="0,-.5 0,-18.5 45.4629,-18.5 45.4629,-.5 0,-.5"/>
<text text-anchor="middle" x="22.7314" y="-6.5" font-family="Helvetica,sans-Serif" font-size="10.00" fill="#000000">stdio.h</text>
</g>
<!-- Node0&#45;&gt;Node1 -->
<g id="edge1" class="edge">
<title>Node0&#45;&gt;Node1</title>
<path fill="none" stroke="#191970" d="M208.4701,-55.6185C170.9677,-47.3796 113.9051,-34.43 55.5178,-19.0962"/>
<polygon fill="#191970" stroke="#191970" points="56.32,-15.6881 45.7574,-16.5135 54.5294,-22.4552 56.32,-15.6881"/>
</g>
<!-- Node2 -->
<g id="node3" class="node">
<title>Node2</title>
<polygon fill="#ffffff" stroke="#bfbfbf" points="63.8892,-.5 63.8892,-18.5 111.5737,-18.5 111.5737,-.5 63.8892,-.5"/>
<text text-anchor="middle" x="87.7314" y="-6.5" font-family="Helvetica,sans-Serif" font-size="10.00" fill="#000000">stdlib.h</text>
</g>
<!-- Node0&#45;&gt;Node2 -->
<g id="edge2" class="edge">
<title>Node0&#45;&gt;Node2</title>
<path fill="none" stroke="#191970" d="M222.9804,-55.4179C195.1248,-45.9607 151.4276,-31.1252 121.2786,-20.8895"/>
<polygon fill="#191970" stroke="#191970" points="122.2104,-17.5097 111.6161,-17.609 119.96,-24.1381 122.2104,-17.5097"/>
</g>
<!-- Node3 -->
<g id="node4" class="node">
<title>Node3</title>
<polygon fill="#ffffff" stroke="#bfbfbf" points="129.335,-.5 129.335,-18.5 178.1279,-18.5 178.1279,-.5 129.335,-.5"/>
<text text-anchor="middle" x="153.7314" y="-6.5" font-family="Helvetica,sans-Serif" font-size="10.00" fill="#000000">string.h</text>
</g>
<!-- Node0&#45;&gt;Node3 -->
<g id="edge3" class="edge">
<title>Node0&#45;&gt;Node3</title>
<path fill="none" stroke="#191970" d="M233.879,-55.4179C218.871,-46.8195 196.103,-33.7754 178.6643,-23.7844"/>
<polygon fill="#191970" stroke="#191970" points="180.0242,-20.5299 169.6074,-18.5956 176.5444,-26.6037 180.0242,-20.5299"/>
</g>
<!-- Node4 -->
<g id="node5" class="node">
<title>Node4</title>
<polygon fill="#ffffff" stroke="#bfbfbf" points="196.4458,-.5 196.4458,-18.5 243.0171,-18.5 243.0171,-.5 196.4458,-.5"/>
<text text-anchor="middle" x="219.7314" y="-6.5" font-family="Helvetica,sans-Serif" font-size="10.00" fill="#000000">math.h</text>
</g>
<!-- Node0&#45;&gt;Node4 -->
<g id="edge4" class="edge">
<title>Node0&#45;&gt;Node4</title>
<path fill="none" stroke="#191970" d="M244.7776,-55.4179C240.6768,-47.8998 234.7221,-36.9829 229.6477,-27.6799"/>
<polygon fill="#191970" stroke="#191970" points="232.6542,-25.8824 224.793,-18.7795 226.5089,-29.2344 232.6542,-25.8824"/>
</g>
<!-- Node5 -->
<g id="node6" class="node">
<title>Node5</title>
<g id="a_node6"><a xlink:href="afc_8h.html" target="_top" xlink:title="afc.h">
<polygon fill="#ffffff" stroke="#000000" points="260.8916,-.5 260.8916,-18.5 298.5713,-18.5 298.5713,-.5 260.8916,-.5"/>
<text text-anchor="middle" x="279.7314" y="-6.5" font-family="Helvetica,sans-Serif" font-size="10.00" fill="#000000">afc.h</text>
</a>
</g>
</g>
<!-- Node0&#45;&gt;Node5 -->
<g id="edge5" class="edge">
<title>Node0&#45;&gt;Node5</title>
<path fill="none" stroke="#191970" d="M254.6853,-55.4179C258.7861,-47.8998 264.7408,-36.9829 269.8152,-27.6799"/>
<polygon fill="#191970" stroke="#191970" points="272.954,-29.2344 274.6699,-18.7795 266.8087,-25.8824 272.954,-29.2344"/>
</g>
<!-- Node6 -->
<g id="node7" class="node">
<title>Node6</title>
<g id="a_node7"><a xlink:href="filter_8h.html" target="_top" xlink:title="filter.h">
<polygon fill="#ffffff" stroke="#000000" points="316.3892,-.5 316.3892,-18.5 359.0737,-18.5 359.0737,-.5 316.3892,-.5"/>
<text text-anchor="middle" x="337.7314" y="-6.5" font-family="Helvetica,sans-Serif" font-size="10.00" fill="#000000">filter.h</text>
</a>
</g>
</g>
<!-- Node0&#45;&gt;Node6 -->
<g id="edge6" class="edge">
<title>Node0&#45;&gt;Node6</title>
<path fill="none" stroke="#191970" d="M264.2629,-55.4179C277.8928,-46.8992 298.505,-34.0166 314.4311,-24.0627"/>
<polygon fill="#191970" stroke="#191970" points="316.5535,-26.8637 323.1784,-18.5956 312.8434,-20.9277 316.5535,-26.8637"/>
</g>
<!-- Node7 -->
<g id="node8" class="node">
<title>Node7</title>
<g id="a_node8"><a xlink:href="array__utilities_8h.html" target="_top" xlink:title="array_utilities.h">
<polygon fill="#ffffff" stroke="#000000" points="377.106,-.5 377.106,-18.5 460.3569,-18.5 460.3569,-.5 377.106,-.5"/>
<text text-anchor="middle" x="418.7314" y="-6.5" font-family="Helvetica,sans-Serif" font-size="10.00" fill="#000000">array_utilities.h</text>
</a>
</g>
</g>
<!-- Node0&#45;&gt;Node7 -->
<g id="edge7" class="edge">
<title>Node0&#45;&gt;Node7</title>
<path fill="none" stroke="#191970" d="M277.6384,-55.4179C305.978,-46.1949 350.0354,-31.8567 381.3726,-21.6582"/>
<polygon fill="#191970" stroke="#191970" points="382.638,-24.9271 391.064,-18.5042 380.4717,-18.2708 382.638,-24.9271"/>
</g>
<!-- Node8 -->
<g id="node9" class="node">
<title>Node8</title>
<g id="a_node9"><a xlink:href="circular__buffer_8h.html" target="_top" xlink:title="circular_buffer.h">
<polygon fill="#ffffff" stroke="#000000" points="478.2432,-.5 478.2432,-18.5 565.2197,-18.5 565.2197,-.5 478.2432,-.5"/>
<text text-anchor="middle" x="521.7314" y="-6.5" font-family="Helvetica,sans-Serif" font-size="10.00" fill="#000000">circular_buffer.h</text>
</a>
</g>
</g>
<!-- Node0&#45;&gt;Node8 -->
<g id="edge8" class="edge">
<title>Node0&#45;&gt;Node8</title>
<path fill="none" stroke="#191970" d="M291.0424,-56.1467C338.4136,-46.5679 416.2124,-30.8366 468.1927,-20.3258"/>
<polygon fill="#191970" stroke="#191970" points="469.12,-23.7093 478.2279,-18.2967 467.7326,-16.8481 469.12,-23.7093"/>
</g>
</g>
</svg>
        <g id="navigator" transform="translate(0 0)" fill="#404254">
                <rect fill="#f2f5e9" fill-opacity="0.5" stroke="#606060" stroke-width=".5" x="0" y="0" width="60" height="60"/>
                <use id="zoomplus" xlink:href="#zoomPlus" x="17" y="9" onmousedown="handleZoom(evt,'in')"/>
                <use id="zoomminus" xlink:href="#zoomMin" x="42" y="9" onmousedown="handleZoom(evt,'out')"/>
                <use id="reset" xlink:href="#resetDef" x="30" y="36" onmousedown="handleReset()"/>
                <g id="arrowUp" xlink:href="#dirArrow" transform="translate(30 24)" onmousedown="handlePan(0,-1)">
                  <use xlink:href="#rim" fill="#404040">
                        <set attributeName="fill" to="#808080" begin="arrowUp.mouseover" end="arrowUp.mouseout"/>
                  </use>
                  <path fill="none" stroke="white" stroke-width="1.5" d="M0,-3.0v7 M-2.5,-0.5L0,-3.0L2.5,-0.5"/>
                </g>
                <g id="arrowRight" xlink:href="#dirArrow" transform="rotate(90) translate(36 -43)" onmousedown="handlePan(1,0)">
                  <use xlink:href="#rim" fill="#404040">
                        <set attributeName="fill" to="#808080" begin="arrowRight.mouseover" end="arrowRight.mouseout"/>
                  </use>
                  <path fill="none" stroke="white" stroke-width="1.5" d="M0,-3.0v7 M-2.5,-0.5L0,-3.0L2.5,-0.5"/>
                </g>
                <g id="arrowDown" xlink:href="#dirArrow" transform="rotate(180) translate(-30 -48)" onmousedown="handlePan(0,1)">
                  <use xlink:href="#rim" fill="#404040">
                        <set attributeName="fill" to="#808080" begin="arrowDown.mouseover" end="arrowDown.mouseout"/>
                  </use>
                  <path fill="none" stroke="white" stroke-width="1.5" d="M0,-3.0v7 M-2.5,-0.5L0,-3.0L2.5,-0.5"/>
                </g>
                <g id="arrowLeft" xlink:href="#dirArrow" transform="rotate(270) translate(-36 17)" onmousedown="handlePan(-1,0)">
                  <use xlink:href="#rim" fill="#404040">
                        <set attributeName="fill" to="#808080" begin="arrowLeft.mouseover" end="arrowLeft.mouseout"/>
                  </use>
                  <path fill="none" stroke="white" stroke-width="1.5" d="M0,-3.0v7 M-2.5,-0.5L0,-3.0L2.5,-0.5"/>
                </g>
        </g>
        <svg viewBox="0 0 15 15" width="100%" height="30px" preserveAspectRatio="xMaxYMin meet">
         <g id="arrow_out" transform="scale(0.3 0.3)">
          <a xlink:href="afc_8c__incl_org.svg" target="_base">
           <rect id="button" ry="5" rx="5" y="6" x="6" height="38" width="38"
                fill="#f2f5e9" fill-opacity="0.5" stroke="#606060" stroke-width="1.0"/>
           <path id="arrow"
             d="M 11.500037,31.436501 C 11.940474,20.09759 22.043105,11.32322 32.158766,21.979434 L 37.068811,17.246167 C 37.068811,17.246167 37.088388,32 37.088388,32 L 22.160133,31.978069 C 22.160133,31.978069 26.997745,27.140456 26.997745,27.140456 C 18.528582,18.264221 13.291696,25.230495 11.500037,31.436501 z"
             style="fill:#404040;"/>
          </a>
         </g>
        </svg>
</svg>
