<?xml version="1.0" encoding="UTF-8" standalone="no"?>
<!DOCTYPE svg PUBLIC "-//W3C//DTD SVG 1.1//EN"
 "http://www.w3.org/Graphics/SVG/1.1/DTD/svg11.dtd">
<!-- Generated by graphviz version 2.40.1 (20161225.0304)
 -->
<!-- Title: libosp/afc/afc.h Pages: 1 -->
<svg width="210pt" height="92pt"
 viewBox="0.00 0.00 209.87 92.00" xmlns="http://www.w3.org/2000/svg" xmlns:xlink="http://www.w3.org/1999/xlink">
<g id="graph0" class="graph" transform="scale(1 1) rotate(0) translate(4 88)">
<title>libosp/afc/afc.h</title>
<polygon fill="#ffffff" stroke="transparent" points="-4,4 -4,-88 205.874,-88 205.874,4 -4,4"/>
<!-- Node1 -->
<g id="node1" class="node">
<title>Node1</title>
<polygon fill="#bfbfbf" stroke="#000000" points="54.7192,-65.5 54.7192,-83.5 137.4233,-83.5 137.4233,-65.5 54.7192,-65.5"/>
<text text-anchor="middle" x="96.0713" y="-71.5" font-family="Helvetica,sans-Serif" font-size="10.00" fill="#000000">libosp/afc/afc.h</text>
</g>
<!-- Node2 -->
<g id="node2" class="node">
<title>Node2</title>
<g id="a_node2"><a xlink:href="afc_8c.html" target="_top" xlink:title="libosp/afc/afc.c">
<polygon fill="#ffffff" stroke="#000000" points="0,-5.5 0,-23.5 82.1426,-23.5 82.1426,-5.5 0,-5.5"/>
<text text-anchor="middle" x="41.0713" y="-11.5" font-family="Helvetica,sans-Serif" font-size="10.00" fill="#000000">libosp/afc/afc.c</text>
</a>
</g>
</g>
<!-- Node1&#45;&gt;Node2 -->
<g id="edge1" class="edge">
<title>Node1&#45;&gt;Node2</title>
<path fill="none" stroke="#191970" d="M80.9473,-58.0011C70.8151,-46.9478 57.8508,-32.8049 49.5032,-23.6985"/>
<polygon fill="#191970" stroke="#191970" points="78.3806,-60.3808 87.718,-65.3873 83.5407,-55.6507 78.3806,-60.3808"/>
</g>
<!-- Node3 -->
<g id="node3" class="node">
<title>Node3</title>
<g id="a_node3"><a xlink:href="osp__process_8c.html" target="_top" xlink:title="libosp/osp_process\l/osp_process.c">
<polygon fill="#ffffff" stroke="#000000" points="100.2686,-.5 100.2686,-28.5 201.874,-28.5 201.874,-.5 100.2686,-.5"/>
<text text-anchor="start" x="108.2686" y="-16.5" font-family="Helvetica,sans-Serif" font-size="10.00" fill="#000000">libosp/osp_process</text>
<text text-anchor="middle" x="151.0713" y="-6.5" font-family="Helvetica,sans-Serif" font-size="10.00" fill="#000000">/osp_process.c</text>
</a>
</g>
</g>
<!-- Node1&#45;&gt;Node3 -->
<g id="edge2" class="edge">
<title>Node1&#45;&gt;Node3</title>
<path fill="none" stroke="#191970" d="M111.4361,-57.7384C119.7675,-48.6496 129.9577,-37.533 137.9193,-28.8477"/>
<polygon fill="#191970" stroke="#191970" points="108.6018,-55.6507 104.4246,-65.3873 113.7619,-60.3808 108.6018,-55.6507"/>
</g>
</g>
</svg>
