<?xml version="1.0" encoding="UTF-8" standalone="no"?>
<!DOCTYPE svg PUBLIC "-//W3C//DTD SVG 1.1//EN"
 "http://www.w3.org/Graphics/SVG/1.1/DTD/svg11.dtd">
<!-- Generated by graphviz version 2.40.1 (20161225.0304)
 -->
<!-- Title: libosp/array_utilities/array_utilities.h Pages: 1 -->
<svg width="447pt" height="287pt"
 viewBox="0.00 0.00 446.73 287.00" xmlns="http://www.w3.org/2000/svg" xmlns:xlink="http://www.w3.org/1999/xlink">
<g id="graph0" class="graph" transform="scale(1 1) rotate(0) translate(4 283)">
<title>libosp/array_utilities/array_utilities.h</title>
<polygon fill="#ffffff" stroke="transparent" points="-4,4 -4,-283 442.7285,-283 442.7285,4 -4,4"/>
<!-- Node1 -->
<g id="node1" class="node">
<title>Node1</title>
<polygon fill="#bfbfbf" stroke="#000000" points="116.1626,-250.5 116.1626,-278.5 219.98,-278.5 219.98,-250.5 116.1626,-250.5"/>
<text text-anchor="start" x="124.1626" y="-266.5" font-family="Helvetica,sans-Serif" font-size="10.00" fill="#000000">libosp/array_utilities</text>
<text text-anchor="middle" x="168.0713" y="-256.5" font-family="Helvetica,sans-Serif" font-size="10.00" fill="#000000">/array_utilities.h</text>
</g>
<!-- Node2 -->
<g id="node2" class="node">
<title>Node2</title>
<g id="a_node2"><a xlink:href="afc_8c.html" target="_top" xlink:title="libosp/afc/afc.c">
<polygon fill="#ffffff" stroke="#000000" points="0,-190.5 0,-208.5 82.1426,-208.5 82.1426,-190.5 0,-190.5"/>
<text text-anchor="middle" x="41.0713" y="-196.5" font-family="Helvetica,sans-Serif" font-size="10.00" fill="#000000">libosp/afc/afc.c</text>
</a>
</g>
</g>
<!-- Node1&#45;&gt;Node2 -->
<g id="edge1" class="edge">
<title>Node1&#45;&gt;Node2</title>
<path fill="none" stroke="#191970" d="M131.3855,-245.7238C107.5393,-233.5191 77.513,-218.1513 58.8011,-208.5743"/>
<polygon fill="#191970" stroke="#191970" points="130.0177,-248.9555 140.5142,-250.396 133.207,-242.7242 130.0177,-248.9555"/>
</g>
<!-- Node3 -->
<g id="node3" class="node">
<title>Node3</title>
<g id="a_node3"><a xlink:href="osp__process_8c.html" target="_top" xlink:title="libosp/osp_process\l/osp_process.c">
<polygon fill="#ffffff" stroke="#000000" points="97.2686,-55.5 97.2686,-83.5 198.874,-83.5 198.874,-55.5 97.2686,-55.5"/>
<text text-anchor="start" x="105.2686" y="-71.5" font-family="Helvetica,sans-Serif" font-size="10.00" fill="#000000">libosp/osp_process</text>
<text text-anchor="middle" x="148.0713" y="-61.5" font-family="Helvetica,sans-Serif" font-size="10.00" fill="#000000">/osp_process.c</text>
</a>
</g>
</g>
<!-- Node1&#45;&gt;Node3 -->
<g id="edge2" class="edge">
<title>Node1&#45;&gt;Node3</title>
<path fill="none" stroke="#191970" d="M151.2165,-242.0204C145.9273,-233.6658 140.7685,-223.8213 138.0713,-214 125.3518,-167.6844 137.1787,-110.0436 144.0046,-83.7588"/>
<polygon fill="#191970" stroke="#191970" points="148.399,-244.1021 156.8967,-250.4298 154.1997,-240.184 148.399,-244.1021"/>
</g>
<!-- Node4 -->
<g id="node4" class="node">
<title>Node4</title>
<g id="a_node4"><a xlink:href="speech__enhancement_8h.html" target="_top" xlink:title="libosp/speech_enhancement\l/speech_enhancement.h">
<polygon fill="#ffffff" stroke="#000000" points="147.4141,-185.5 147.4141,-213.5 290.7285,-213.5 290.7285,-185.5 147.4141,-185.5"/>
<text text-anchor="start" x="155.4141" y="-201.5" font-family="Helvetica,sans-Serif" font-size="10.00" fill="#000000">libosp/speech_enhancement</text>
<text text-anchor="middle" x="219.0713" y="-191.5" font-family="Helvetica,sans-Serif" font-size="10.00" fill="#000000">/speech_enhancement.h</text>
</a>
</g>
</g>
<!-- Node1&#45;&gt;Node4 -->
<g id="edge3" class="edge">
<title>Node1&#45;&gt;Node4</title>
<path fill="none" stroke="#191970" d="M185.3742,-242.4472C192.8662,-232.8986 201.4146,-222.0037 208.0266,-213.5765"/>
<polygon fill="#191970" stroke="#191970" points="182.5568,-240.368 179.1375,-250.396 188.064,-244.6891 182.5568,-240.368"/>
</g>
<!-- Node9 -->
<g id="node9" class="node">
<title>Node9</title>
<g id="a_node9"><a xlink:href="speech__enhancement_8c.html" target="_top" xlink:title="libosp/speech_enhancement\l/speech_enhancement.c">
<polygon fill="#ffffff" stroke="#000000" points="295.4141,-120.5 295.4141,-148.5 438.7285,-148.5 438.7285,-120.5 295.4141,-120.5"/>
<text text-anchor="start" x="303.4141" y="-136.5" font-family="Helvetica,sans-Serif" font-size="10.00" fill="#000000">libosp/speech_enhancement</text>
<text text-anchor="middle" x="367.0713" y="-126.5" font-family="Helvetica,sans-Serif" font-size="10.00" fill="#000000">/speech_enhancement.c</text>
</a>
</g>
</g>
<!-- Node1&#45;&gt;Node9 -->
<g id="edge12" class="edge">
<title>Node1&#45;&gt;Node9</title>
<path fill="none" stroke="#191970" d="M230.0434,-247.997C253.3096,-240.0109 279.16,-228.8643 300.0713,-214 325.3757,-196.0129 346.9222,-166.3084 358.3376,-148.7514"/>
<polygon fill="#191970" stroke="#191970" points="228.652,-244.7704 220.2523,-251.2277 230.8455,-251.4179 228.652,-244.7704"/>
</g>
<!-- Node4&#45;&gt;Node3 -->
<g id="edge4" class="edge">
<title>Node4&#45;&gt;Node3</title>
<path fill="none" stroke="#191970" d="M191.9663,-178.6074C182.8368,-170.3026 173.377,-160.0822 167.0713,-149 155.2109,-128.1556 150.7296,-100.1857 149.0535,-83.5824"/>
<polygon fill="#191970" stroke="#191970" points="189.9603,-181.4995 199.8166,-185.386 194.5352,-176.2014 189.9603,-181.4995"/>
</g>
<!-- Node5 -->
<g id="node5" class="node">
<title>Node5</title>
<g id="a_node5"><a xlink:href="osp__process_8h.html" target="_top" xlink:title="libosp/osp_process\l/osp_process.h">
<polygon fill="#ffffff" stroke="#000000" points="176.2686,-120.5 176.2686,-148.5 277.874,-148.5 277.874,-120.5 176.2686,-120.5"/>
<text text-anchor="start" x="184.2686" y="-136.5" font-family="Helvetica,sans-Serif" font-size="10.00" fill="#000000">libosp/osp_process</text>
<text text-anchor="middle" x="227.0713" y="-126.5" font-family="Helvetica,sans-Serif" font-size="10.00" fill="#000000">/osp_process.h</text>
</a>
</g>
</g>
<!-- Node4&#45;&gt;Node5 -->
<g id="edge5" class="edge">
<title>Node4&#45;&gt;Node5</title>
<path fill="none" stroke="#191970" d="M222.0371,-175.4029C223.1488,-166.3703 224.3749,-156.4078 225.3388,-148.5765"/>
<polygon fill="#191970" stroke="#191970" points="218.555,-175.0433 220.8072,-185.396 225.5026,-175.8984 218.555,-175.0433"/>
</g>
<!-- Node4&#45;&gt;Node9 -->
<g id="edge11" class="edge">
<title>Node4&#45;&gt;Node9</title>
<path fill="none" stroke="#191970" d="M260.5826,-181.2687C284.1551,-170.9159 313.2156,-158.1528 335.0202,-148.5765"/>
<polygon fill="#191970" stroke="#191970" points="258.9335,-178.1702 251.1851,-185.396 261.7484,-184.5793 258.9335,-178.1702"/>
</g>
<!-- Node5&#45;&gt;Node3 -->
<g id="edge10" class="edge">
<title>Node5&#45;&gt;Node3</title>
<path fill="none" stroke="#191970" d="M202.0139,-113.8832C190.0087,-104.0054 175.9392,-92.4293 165.1797,-83.5765"/>
<polygon fill="#191970" stroke="#191970" points="199.9835,-116.745 209.9295,-120.396 204.4311,-111.3395 199.9835,-116.745"/>
</g>
<!-- Node6 -->
<g id="node6" class="node">
<title>Node6</title>
<g id="a_node6"><a xlink:href="main_8c.html" target="_top" xlink:title="osp/main.c">
<polygon fill="#ffffff" stroke="#000000" points="194.894,-.5 194.894,-18.5 259.2485,-18.5 259.2485,-.5 194.894,-.5"/>
<text text-anchor="middle" x="227.0713" y="-6.5" font-family="Helvetica,sans-Serif" font-size="10.00" fill="#000000">osp/main.c</text>
</a>
</g>
</g>
<!-- Node5&#45;&gt;Node6 -->
<g id="edge6" class="edge">
<title>Node5&#45;&gt;Node6</title>
<path fill="none" stroke="#191970" d="M227.0713,-109.9957C227.0713,-82.0593 227.0713,-37.8007 227.0713,-18.736"/>
<polygon fill="#191970" stroke="#191970" points="223.5714,-110.1609 227.0713,-120.1609 230.5714,-110.1609 223.5714,-110.1609"/>
</g>
<!-- Node7 -->
<g id="node7" class="node">
<title>Node7</title>
<g id="a_node7"><a xlink:href="port__wrapper_8h.html" target="_top" xlink:title="osp/port_wrapper.h">
<polygon fill="#ffffff" stroke="#000000" points="255.2637,-60.5 255.2637,-78.5 356.8789,-78.5 356.8789,-60.5 255.2637,-60.5"/>
<text text-anchor="middle" x="306.0713" y="-66.5" font-family="Helvetica,sans-Serif" font-size="10.00" fill="#000000">osp/port_wrapper.h</text>
</a>
</g>
</g>
<!-- Node5&#45;&gt;Node7 -->
<g id="edge7" class="edge">
<title>Node5&#45;&gt;Node7</title>
<path fill="none" stroke="#191970" d="M252.2853,-113.7543C266.6887,-101.9034 284.0209,-87.6427 295.0425,-78.5743"/>
<polygon fill="#191970" stroke="#191970" points="249.7115,-111.3395 244.2131,-120.396 254.159,-116.745 249.7115,-111.3395"/>
</g>
<!-- Node7&#45;&gt;Node6 -->
<g id="edge8" class="edge">
<title>Node7&#45;&gt;Node6</title>
<path fill="none" stroke="#191970" d="M285.9736,-54.2359C271.103,-42.9418 251.3513,-27.9405 238.9238,-18.5019"/>
<polygon fill="#191970" stroke="#191970" points="283.9924,-57.1262 294.0729,-60.3873 288.2262,-51.5517 283.9924,-57.1262"/>
</g>
<!-- Node8 -->
<g id="node8" class="node">
<title>Node8</title>
<g id="a_node8"><a xlink:href="port__wrapper_8c.html" target="_top" xlink:title="osp/port_wrapper.c">
<polygon fill="#ffffff" stroke="#000000" points="277.5444,-.5 277.5444,-18.5 378.5981,-18.5 378.5981,-.5 277.5444,-.5"/>
<text text-anchor="middle" x="328.0713" y="-6.5" font-family="Helvetica,sans-Serif" font-size="10.00" fill="#000000">osp/port_wrapper.c</text>
</a>
</g>
</g>
<!-- Node7&#45;&gt;Node8 -->
<g id="edge9" class="edge">
<title>Node7&#45;&gt;Node8</title>
<path fill="none" stroke="#191970" d="M312.962,-50.7072C316.8701,-40.0487 321.5864,-27.186 324.6985,-18.6985"/>
<polygon fill="#191970" stroke="#191970" points="309.5692,-49.7936 309.4126,-60.3873 316.1413,-52.2034 309.5692,-49.7936"/>
</g>
</g>
</svg>
