<?xml version="1.0" encoding="UTF-8" standalone="no"?>
<!DOCTYPE svg PUBLIC "-//W3C//DTD SVG 1.1//EN"
 "http://www.w3.org/Graphics/SVG/1.1/DTD/svg11.dtd">
<!-- Generated by graphviz version 2.40.1 (20161225.0304)
 -->
<!-- Title: libosp/beam_forming/beam_forming.h Pages: 1 -->
<svg width="236pt" height="102pt"
 viewBox="0.00 0.00 235.94 102.00" xmlns="http://www.w3.org/2000/svg" xmlns:xlink="http://www.w3.org/1999/xlink">
<g id="graph0" class="graph" transform="scale(1 1) rotate(0) translate(4 98)">
<title>libosp/beam_forming/beam_forming.h</title>
<polygon fill="#ffffff" stroke="transparent" points="-4,4 -4,-98 231.9404,-98 231.9404,4 -4,4"/>
<!-- Node1 -->
<g id="node1" class="node">
<title>Node1</title>
<polygon fill="#bfbfbf" stroke="#000000" points="57.1133,-65.5 57.1133,-93.5 165.9404,-93.5 165.9404,-65.5 57.1133,-65.5"/>
<text text-anchor="start" x="65.1133" y="-81.5" font-family="Helvetica,sans-Serif" font-size="10.00" fill="#000000">libosp/beam_forming</text>
<text text-anchor="middle" x="111.5269" y="-71.5" font-family="Helvetica,sans-Serif" font-size="10.00" fill="#000000">/beam_forming.h</text>
</g>
<!-- Node2 -->
<g id="node2" class="node">
<title>Node2</title>
<g id="a_node2"><a xlink:href="port__wrapper_8c.html" target="_top" xlink:title="osp/port_wrapper.c">
<polygon fill="#ffffff" stroke="#000000" points="0,-5.5 0,-23.5 101.0537,-23.5 101.0537,-5.5 0,-5.5"/>
<text text-anchor="middle" x="50.5269" y="-11.5" font-family="Helvetica,sans-Serif" font-size="10.00" fill="#000000">osp/port_wrapper.c</text>
</a>
</g>
</g>
<!-- Node1&#45;&gt;Node2 -->
<g id="edge1" class="edge">
<title>Node1&#45;&gt;Node2</title>
<path fill="none" stroke="#191970" d="M91.4318,-58.0873C80.4376,-46.3721 67.3941,-32.4732 59.0427,-23.5743"/>
<polygon fill="#191970" stroke="#191970" points="88.8954,-60.4992 98.2908,-65.396 93.9998,-55.709 88.8954,-60.4992"/>
</g>
<!-- Node3 -->
<g id="node3" class="node">
<title>Node3</title>
<g id="a_node3"><a xlink:href="beam__forming_8c.html" target="_top" xlink:title="libosp/beam_forming\l/beam_forming.c">
<polygon fill="#ffffff" stroke="#000000" points="119.1133,-.5 119.1133,-28.5 227.9404,-28.5 227.9404,-.5 119.1133,-.5"/>
<text text-anchor="start" x="127.1133" y="-16.5" font-family="Helvetica,sans-Serif" font-size="10.00" fill="#000000">libosp/beam_forming</text>
<text text-anchor="middle" x="173.5269" y="-6.5" font-family="Helvetica,sans-Serif" font-size="10.00" fill="#000000">/beam_forming.c</text>
</a>
</g>
</g>
<!-- Node1&#45;&gt;Node3 -->
<g id="edge2" class="edge">
<title>Node1&#45;&gt;Node3</title>
<path fill="none" stroke="#191970" d="M132.0114,-58.0243C141.2489,-48.3398 151.8994,-37.1739 160.1,-28.5765"/>
<polygon fill="#191970" stroke="#191970" points="129.3494,-55.7441 124.9799,-65.396 134.4147,-60.5756 129.3494,-55.7441"/>
</g>
</g>
</svg>
