<?xml version="1.0" encoding="UTF-8" standalone="no"?>
<!DOCTYPE svg PUBLIC "-//W3C//DTD SVG 1.1//EN"
 "http://www.w3.org/Graphics/SVG/1.1/DTD/svg11.dtd">
<!-- Generated by graphviz version 2.40.1 (20161225.0304)
 -->
<!-- Title: libosp/beam_forming/beam_forming.c Pages: 1 -->
<svg width="314pt" height="92pt"
 viewBox="0.00 0.00 313.53 92.00" xmlns="http://www.w3.org/2000/svg" xmlns:xlink="http://www.w3.org/1999/xlink">
<g id="graph0" class="graph" transform="scale(1 1) rotate(0) translate(4 88)">
<title>libosp/beam_forming/beam_forming.c</title>
<polygon fill="#ffffff" stroke="transparent" points="-4,4 -4,-88 309.5293,-88 309.5293,4 -4,4"/>
<!-- Node0 -->
<g id="node1" class="node">
<title>Node0</title>
<polygon fill="#bfbfbf" stroke="#000000" points="76.4287,-55.5 76.4287,-83.5 185.2559,-83.5 185.2559,-55.5 76.4287,-55.5"/>
<text text-anchor="start" x="84.4287" y="-71.5" font-family="Helvetica,sans-Serif" font-size="10.00" fill="#000000">libosp/beam_forming</text>
<text text-anchor="middle" x="130.8423" y="-61.5" font-family="Helvetica,sans-Serif" font-size="10.00" fill="#000000">/beam_forming.c</text>
</g>
<!-- Node1 -->
<g id="node2" class="node">
<title>Node1</title>
<polygon fill="#ffffff" stroke="#bfbfbf" points="0,-.5 0,-18.5 47.6846,-18.5 47.6846,-.5 0,-.5"/>
<text text-anchor="middle" x="23.8423" y="-6.5" font-family="Helvetica,sans-Serif" font-size="10.00" fill="#000000">stdlib.h</text>
</g>
<!-- Node0&#45;&gt;Node1 -->
<g id="edge1" class="edge">
<title>Node0&#45;&gt;Node1</title>
<path fill="none" stroke="#191970" d="M105.7555,-55.4327C88.6608,-45.8468 66.1139,-33.2037 49.0034,-23.609"/>
<polygon fill="#191970" stroke="#191970" points="50.5602,-20.4693 40.126,-18.6311 47.1364,-26.5749 50.5602,-20.4693"/>
</g>
<!-- Node2 -->
<g id="node3" class="node">
<title>Node2</title>
<polygon fill="#ffffff" stroke="#bfbfbf" points="65.5566,-.5 65.5566,-18.5 112.1279,-18.5 112.1279,-.5 65.5566,-.5"/>
<text text-anchor="middle" x="88.8423" y="-6.5" font-family="Helvetica,sans-Serif" font-size="10.00" fill="#000000">math.h</text>
</g>
<!-- Node0&#45;&gt;Node2 -->
<g id="edge2" class="edge">
<title>Node0&#45;&gt;Node2</title>
<path fill="none" stroke="#191970" d="M120.8889,-55.2808C114.9215,-46.756 107.2904,-35.8545 100.9719,-26.8281"/>
<polygon fill="#191970" stroke="#191970" points="103.8032,-24.7694 95.2012,-18.5842 98.0686,-28.7837 103.8032,-24.7694"/>
</g>
<!-- Node3 -->
<g id="node4" class="node">
<title>Node3</title>
<g id="a_node4"><a xlink:href="beam__forming_8h.html" target="_top" xlink:title="beam_forming.h">
<polygon fill="#ffffff" stroke="#000000" points="129.7119,-.5 129.7119,-18.5 217.9727,-18.5 217.9727,-.5 129.7119,-.5"/>
<text text-anchor="middle" x="173.8423" y="-6.5" font-family="Helvetica,sans-Serif" font-size="10.00" fill="#000000">beam_forming.h</text>
</a>
</g>
</g>
<!-- Node0&#45;&gt;Node3 -->
<g id="edge3" class="edge">
<title>Node0&#45;&gt;Node3</title>
<path fill="none" stroke="#191970" d="M141.0327,-55.2808C147.1422,-46.756 154.9549,-35.8545 161.4238,-26.8281"/>
<polygon fill="#191970" stroke="#191970" points="164.3516,-28.7512 167.3319,-18.5842 158.6619,-24.6735 164.3516,-28.7512"/>
</g>
<!-- Node4 -->
<g id="node5" class="node">
<title>Node4</title>
<g id="a_node5"><a xlink:href="delay__line_8h.html" target="_top" xlink:title="delay_line.h">
<polygon fill="#ffffff" stroke="#000000" points="236.1553,-.5 236.1553,-18.5 305.5293,-18.5 305.5293,-.5 236.1553,-.5"/>
<text text-anchor="middle" x="270.8423" y="-6.5" font-family="Helvetica,sans-Serif" font-size="10.00" fill="#000000">delay_line.h</text>
</a>
</g>
</g>
<!-- Node0&#45;&gt;Node4 -->
<g id="edge4" class="edge">
<title>Node0&#45;&gt;Node4</title>
<path fill="none" stroke="#191970" d="M163.6661,-55.4327C186.7578,-45.5362 217.4533,-32.381 240.0749,-22.686"/>
<polygon fill="#191970" stroke="#191970" points="241.7238,-25.7873 249.5365,-18.6311 238.9663,-19.3533 241.7238,-25.7873"/>
</g>
</g>
</svg>
