<?xml version="1.0" encoding="UTF-8" standalone="no"?>
<!DOCTYPE svg PUBLIC "-//W3C//DTD SVG 1.1//EN"
 "http://www.w3.org/Graphics/SVG/1.1/DTD/svg11.dtd">
<!-- Generated by graphviz version 2.40.1 (20161225.0304)
 -->
<!-- Title: libosp/afc/circular_buffer.c Pages: 1 -->
<svg width="425pt" height="92pt"
 viewBox="0.00 0.00 425.22 92.00" xmlns="http://www.w3.org/2000/svg" xmlns:xlink="http://www.w3.org/1999/xlink">
<g id="graph0" class="graph" transform="scale(1 1) rotate(0) translate(4 88)">
<title>libosp/afc/circular_buffer.c</title>
<polygon fill="#ffffff" stroke="transparent" points="-4,4 -4,-88 421.2197,-88 421.2197,4 -4,4"/>
<!-- Node0 -->
<g id="node1" class="node">
<title>Node0</title>
<polygon fill="#bfbfbf" stroke="#000000" points="141.106,-55.5 141.106,-83.5 234.3569,-83.5 234.3569,-55.5 141.106,-55.5"/>
<text text-anchor="start" x="149.106" y="-71.5" font-family="Helvetica,sans-Serif" font-size="10.00" fill="#000000">libosp/afc/circular</text>
<text text-anchor="middle" x="187.7314" y="-61.5" font-family="Helvetica,sans-Serif" font-size="10.00" fill="#000000">_buffer.c</text>
</g>
<!-- Node1 -->
<g id="node2" class="node">
<title>Node1</title>
<polygon fill="#ffffff" stroke="#bfbfbf" points="0,-.5 0,-18.5 45.4629,-18.5 45.4629,-.5 0,-.5"/>
<text text-anchor="middle" x="22.7314" y="-6.5" font-family="Helvetica,sans-Serif" font-size="10.00" fill="#000000">stdio.h</text>
</g>
<!-- Node0&#45;&gt;Node1 -->
<g id="edge1" class="edge">
<title>Node0&#45;&gt;Node1</title>
<path fill="none" stroke="#191970" d="M149.0463,-55.4327C120.6671,-45.113 82.5436,-31.2499 55.6262,-21.4617"/>
<polygon fill="#191970" stroke="#191970" points="56.4962,-18.0539 45.9021,-17.9257 54.1039,-24.6325 56.4962,-18.0539"/>
</g>
<!-- Node2 -->
<g id="node3" class="node">
<title>Node2</title>
<polygon fill="#ffffff" stroke="#bfbfbf" points="63.8892,-.5 63.8892,-18.5 111.5737,-18.5 111.5737,-.5 63.8892,-.5"/>
<text text-anchor="middle" x="87.7314" y="-6.5" font-family="Helvetica,sans-Serif" font-size="10.00" fill="#000000">stdlib.h</text>
</g>
<!-- Node0&#45;&gt;Node2 -->
<g id="edge2" class="edge">
<title>Node0&#45;&gt;Node2</title>
<path fill="none" stroke="#191970" d="M164.2859,-55.4327C148.4575,-45.9356 127.6274,-33.4376 111.692,-23.8763"/>
<polygon fill="#191970" stroke="#191970" points="113.3256,-20.7748 102.9499,-18.6311 109.7241,-26.7773 113.3256,-20.7748"/>
</g>
<!-- Node3 -->
<g id="node4" class="node">
<title>Node3</title>
<polygon fill="#ffffff" stroke="#bfbfbf" points="129.335,-.5 129.335,-18.5 178.1279,-18.5 178.1279,-.5 129.335,-.5"/>
<text text-anchor="middle" x="153.7314" y="-6.5" font-family="Helvetica,sans-Serif" font-size="10.00" fill="#000000">string.h</text>
</g>
<!-- Node0&#45;&gt;Node3 -->
<g id="edge3" class="edge">
<title>Node0&#45;&gt;Node3</title>
<path fill="none" stroke="#191970" d="M179.6739,-55.2808C174.9438,-46.9336 168.9224,-36.3076 163.8717,-27.3946"/>
<polygon fill="#191970" stroke="#191970" points="166.8544,-25.5589 158.8792,-18.5842 160.7642,-29.01 166.8544,-25.5589"/>
</g>
<!-- Node4 -->
<g id="node5" class="node">
<title>Node4</title>
<polygon fill="#ffffff" stroke="#bfbfbf" points="195.9458,-.5 195.9458,-18.5 247.5171,-18.5 247.5171,-.5 195.9458,-.5"/>
<text text-anchor="middle" x="221.7314" y="-6.5" font-family="Helvetica,sans-Serif" font-size="10.00" fill="#000000">assert.h</text>
</g>
<!-- Node0&#45;&gt;Node4 -->
<g id="edge4" class="edge">
<title>Node0&#45;&gt;Node4</title>
<path fill="none" stroke="#191970" d="M195.789,-55.2808C200.5191,-46.9336 206.5404,-36.3076 211.5912,-27.3946"/>
<polygon fill="#191970" stroke="#191970" points="214.6986,-29.01 216.5837,-18.5842 208.6085,-25.5589 214.6986,-29.01"/>
</g>
<!-- Node5 -->
<g id="node6" class="node">
<title>Node5</title>
<polygon fill="#ffffff" stroke="#bfbfbf" points="265.4458,-.5 265.4458,-18.5 312.0171,-18.5 312.0171,-.5 265.4458,-.5"/>
<text text-anchor="middle" x="288.7314" y="-6.5" font-family="Helvetica,sans-Serif" font-size="10.00" fill="#000000">math.h</text>
</g>
<!-- Node0&#45;&gt;Node5 -->
<g id="edge5" class="edge">
<title>Node0&#45;&gt;Node5</title>
<path fill="none" stroke="#191970" d="M211.4115,-55.4327C227.3982,-45.9356 248.4366,-33.4376 264.5313,-23.8763"/>
<polygon fill="#191970" stroke="#191970" points="266.551,-26.7475 273.3608,-18.6311 262.9758,-20.7294 266.551,-26.7475"/>
</g>
<!-- Node6 -->
<g id="node7" class="node">
<title>Node6</title>
<g id="a_node7"><a xlink:href="circular__buffer_8h.html" target="_top" xlink:title="circular_buffer.h">
<polygon fill="#ffffff" stroke="#000000" points="330.2432,-.5 330.2432,-18.5 417.2197,-18.5 417.2197,-.5 330.2432,-.5"/>
<text text-anchor="middle" x="373.7314" y="-6.5" font-family="Helvetica,sans-Serif" font-size="10.00" fill="#000000">circular_buffer.h</text>
</a>
</g>
</g>
<!-- Node0&#45;&gt;Node6 -->
<g id="edge6" class="edge">
<title>Node0&#45;&gt;Node6</title>
<path fill="none" stroke="#191970" d="M231.3402,-55.4327C263.0787,-45.1944 305.6291,-31.4685 335.9293,-21.6942"/>
<polygon fill="#191970" stroke="#191970" points="337.2595,-24.9428 345.7021,-18.5417 335.1105,-18.2808 337.2595,-24.9428"/>
</g>
</g>
</svg>
