<?xml version="1.0" encoding="UTF-8" standalone="no"?>
<!DOCTYPE svg PUBLIC "-//W3C//DTD SVG 1.1//EN"
 "http://www.w3.org/Graphics/SVG/1.1/DTD/svg11.dtd">
<!-- Generated by graphviz version 2.40.1 (20161225.0304)
 -->
<!-- Title: libosp/afc/circular_buffer.h Pages: 1 -->
<svg width="202pt" height="102pt"
 viewBox="0.00 0.00 201.70 102.00" xmlns="http://www.w3.org/2000/svg" xmlns:xlink="http://www.w3.org/1999/xlink">
<g id="graph0" class="graph" transform="scale(1 1) rotate(0) translate(4 98)">
<title>libosp/afc/circular_buffer.h</title>
<polygon fill="#ffffff" stroke="transparent" points="-4,4 -4,-98 197.6968,-98 197.6968,4 -4,4"/>
<!-- Node1 -->
<g id="node1" class="node">
<title>Node1</title>
<polygon fill="#bfbfbf" stroke="#000000" points="47.4458,-65.5 47.4458,-93.5 140.6968,-93.5 140.6968,-65.5 47.4458,-65.5"/>
<text text-anchor="start" x="55.4458" y="-81.5" font-family="Helvetica,sans-Serif" font-size="10.00" fill="#000000">libosp/afc/circular</text>
<text text-anchor="middle" x="94.0713" y="-71.5" font-family="Helvetica,sans-Serif" font-size="10.00" fill="#000000">_buffer.h</text>
</g>
<!-- Node2 -->
<g id="node2" class="node">
<title>Node2</title>
<g id="a_node2"><a xlink:href="afc_8c.html" target="_top" xlink:title="libosp/afc/afc.c">
<polygon fill="#ffffff" stroke="#000000" points="0,-5.5 0,-23.5 82.1426,-23.5 82.1426,-5.5 0,-5.5"/>
<text text-anchor="middle" x="41.0713" y="-11.5" font-family="Helvetica,sans-Serif" font-size="10.00" fill="#000000">libosp/afc/afc.c</text>
</a>
</g>
</g>
<!-- Node1&#45;&gt;Node2 -->
<g id="edge1" class="edge">
<title>Node1&#45;&gt;Node2</title>
<path fill="none" stroke="#191970" d="M76.0639,-57.4155C66.6291,-45.8445 55.5882,-32.3037 48.4703,-23.5743"/>
<polygon fill="#191970" stroke="#191970" points="73.5391,-59.8576 82.5711,-65.396 78.9642,-55.434 73.5391,-59.8576"/>
</g>
<!-- Node3 -->
<g id="node3" class="node">
<title>Node3</title>
<g id="a_node3"><a xlink:href="circular__buffer_8c.html" target="_top" xlink:title="libosp/afc/circular\l_buffer.c">
<polygon fill="#ffffff" stroke="#000000" points="100.4458,-.5 100.4458,-28.5 193.6968,-28.5 193.6968,-.5 100.4458,-.5"/>
<text text-anchor="start" x="108.4458" y="-16.5" font-family="Helvetica,sans-Serif" font-size="10.00" fill="#000000">libosp/afc/circular</text>
<text text-anchor="middle" x="147.0713" y="-6.5" font-family="Helvetica,sans-Serif" font-size="10.00" fill="#000000">_buffer.c</text>
</a>
</g>
</g>
<!-- Node1&#45;&gt;Node3 -->
<g id="edge2" class="edge">
<title>Node1&#45;&gt;Node3</title>
<path fill="none" stroke="#191970" d="M112.0528,-57.4472C119.8386,-47.8986 128.7221,-37.0037 135.5935,-28.5765"/>
<polygon fill="#191970" stroke="#191970" points="109.1783,-55.434 105.5715,-65.396 114.6035,-59.8576 109.1783,-55.434"/>
</g>
</g>
</svg>
