<?xml version="1.0" encoding="UTF-8" standalone="no"?>
<!DOCTYPE svg PUBLIC "-//W3C//DTD SVG 1.1//EN"
 "http://www.w3.org/Graphics/SVG/1.1/DTD/svg11.dtd">
<!-- Generated by graphviz version 2.40.1 (20161225.0304)
 -->
<!-- Title: libosp/osp_process/coeffs.h Pages: 1 -->
<svg width="318pt" height="222pt"
 viewBox="0.00 0.00 318.33 222.00" xmlns="http://www.w3.org/2000/svg" xmlns:xlink="http://www.w3.org/1999/xlink">
<g id="graph0" class="graph" transform="scale(1 1) rotate(0) translate(4 218)">
<title>libosp/osp_process/coeffs.h</title>
<polygon fill="#ffffff" stroke="transparent" points="-4,4 -4,-218 314.3296,-218 314.3296,4 -4,4"/>
<!-- Node2 -->
<g id="node1" class="node">
<title>Node2</title>
<polygon fill="#bfbfbf" stroke="#000000" points="129.7241,-185.5 129.7241,-213.5 231.3296,-213.5 231.3296,-185.5 129.7241,-185.5"/>
<text text-anchor="start" x="137.7241" y="-201.5" font-family="Helvetica,sans-Serif" font-size="10.00" fill="#000000">libosp/osp_process</text>
<text text-anchor="middle" x="180.5269" y="-191.5" font-family="Helvetica,sans-Serif" font-size="10.00" fill="#000000">/coeffs.h</text>
</g>
<!-- Node3 -->
<g id="node2" class="node">
<title>Node3</title>
<g id="a_node2"><a xlink:href="port__wrapper_8c.html" target="_top" xlink:title="osp/port_wrapper.c">
<polygon fill="#ffffff" stroke="#000000" points="0,-.5 0,-18.5 101.0537,-18.5 101.0537,-.5 0,-.5"/>
<text text-anchor="middle" x="50.5269" y="-6.5" font-family="Helvetica,sans-Serif" font-size="10.00" fill="#000000">osp/port_wrapper.c</text>
</a>
</g>
</g>
<!-- Node2&#45;&gt;Node3 -->
<g id="edge1" class="edge">
<title>Node2&#45;&gt;Node3</title>
<path fill="none" stroke="#191970" d="M142.2948,-180.2855C108.7444,-161.0526 62.1769,-128.0075 41.5269,-84 31.3438,-62.2987 40.4483,-33.3062 46.3751,-18.7145"/>
<polygon fill="#191970" stroke="#191970" points="140.9401,-183.537 151.3802,-185.3415 144.344,-177.4204 140.9401,-183.537"/>
</g>
<!-- Node4 -->
<g id="node3" class="node">
<title>Node4</title>
<g id="a_node3"><a xlink:href="osp__process_8h.html" target="_top" xlink:title="libosp/osp_process\l/osp_process.h">
<polygon fill="#ffffff" stroke="#000000" points="129.7241,-120.5 129.7241,-148.5 231.3296,-148.5 231.3296,-120.5 129.7241,-120.5"/>
<text text-anchor="start" x="137.7241" y="-136.5" font-family="Helvetica,sans-Serif" font-size="10.00" fill="#000000">libosp/osp_process</text>
<text text-anchor="middle" x="180.5269" y="-126.5" font-family="Helvetica,sans-Serif" font-size="10.00" fill="#000000">/osp_process.h</text>
</a>
</g>
</g>
<!-- Node2&#45;&gt;Node4 -->
<g id="edge2" class="edge">
<title>Node2&#45;&gt;Node4</title>
<path fill="none" stroke="#191970" d="M180.5269,-175.1081C180.5269,-166.1539 180.5269,-156.3227 180.5269,-148.5765"/>
<polygon fill="#191970" stroke="#191970" points="177.027,-175.3959 180.5269,-185.396 184.027,-175.396 177.027,-175.3959"/>
</g>
<!-- Node7 -->
<g id="node6" class="node">
<title>Node7</title>
<g id="a_node6"><a xlink:href="osp__process_8c.html" target="_top" xlink:title="libosp/osp_process\l/osp_process.c">
<polygon fill="#ffffff" stroke="#000000" points="208.7241,-55.5 208.7241,-83.5 310.3296,-83.5 310.3296,-55.5 208.7241,-55.5"/>
<text text-anchor="start" x="216.7241" y="-71.5" font-family="Helvetica,sans-Serif" font-size="10.00" fill="#000000">libosp/osp_process</text>
<text text-anchor="middle" x="259.5269" y="-61.5" font-family="Helvetica,sans-Serif" font-size="10.00" fill="#000000">/osp_process.c</text>
</a>
</g>
</g>
<!-- Node2&#45;&gt;Node7 -->
<g id="edge8" class="edge">
<title>Node2&#45;&gt;Node7</title>
<path fill="none" stroke="#191970" d="M211.9364,-179.2495C222.443,-171.0317 233.3055,-160.7026 240.5269,-149 253.1209,-128.5905 257.3672,-100.4813 258.7988,-83.733"/>
<polygon fill="#191970" stroke="#191970" points="209.6185,-176.6107 203.663,-185.3733 213.783,-182.2371 209.6185,-176.6107"/>
</g>
<!-- Node5 -->
<g id="node4" class="node">
<title>Node5</title>
<g id="a_node4"><a xlink:href="main_8c.html" target="_top" xlink:title="osp/main.c">
<polygon fill="#ffffff" stroke="#000000" points="133.3496,-.5 133.3496,-18.5 197.7041,-18.5 197.7041,-.5 133.3496,-.5"/>
<text text-anchor="middle" x="165.5269" y="-6.5" font-family="Helvetica,sans-Serif" font-size="10.00" fill="#000000">osp/main.c</text>
</a>
</g>
</g>
<!-- Node4&#45;&gt;Node5 -->
<g id="edge3" class="edge">
<title>Node4&#45;&gt;Node5</title>
<path fill="none" stroke="#191970" d="M177.5863,-109.9957C174.234,-82.0593 168.9229,-37.8007 166.6352,-18.736"/>
<polygon fill="#191970" stroke="#191970" points="174.1396,-110.6492 178.8062,-120.1609 181.0897,-109.8151 174.1396,-110.6492"/>
</g>
<!-- Node6 -->
<g id="node5" class="node">
<title>Node6</title>
<g id="a_node5"><a xlink:href="port__wrapper_8h.html" target="_top" xlink:title="osp/port_wrapper.h">
<polygon fill="#ffffff" stroke="#000000" points="50.7192,-60.5 50.7192,-78.5 152.3345,-78.5 152.3345,-60.5 50.7192,-60.5"/>
<text text-anchor="middle" x="101.5269" y="-66.5" font-family="Helvetica,sans-Serif" font-size="10.00" fill="#000000">osp/port_wrapper.h</text>
</a>
</g>
</g>
<!-- Node4&#45;&gt;Node6 -->
<g id="edge4" class="edge">
<title>Node4&#45;&gt;Node6</title>
<path fill="none" stroke="#191970" d="M155.3128,-113.7543C140.9095,-101.9034 123.5773,-87.6427 112.5556,-78.5743"/>
<polygon fill="#191970" stroke="#191970" points="153.4391,-116.745 163.385,-120.396 157.8867,-111.3395 153.4391,-116.745"/>
</g>
<!-- Node4&#45;&gt;Node7 -->
<g id="edge7" class="edge">
<title>Node4&#45;&gt;Node7</title>
<path fill="none" stroke="#191970" d="M205.5842,-113.8832C217.5895,-104.0054 231.6589,-92.4293 242.4185,-83.5765"/>
<polygon fill="#191970" stroke="#191970" points="203.167,-111.3395 197.6687,-120.396 207.6146,-116.745 203.167,-111.3395"/>
</g>
<!-- Node6&#45;&gt;Node3 -->
<g id="edge6" class="edge">
<title>Node6&#45;&gt;Node3</title>
<path fill="none" stroke="#191970" d="M87.2284,-52.6783C77.8745,-41.6737 66.0109,-27.7165 58.3456,-18.6985"/>
<polygon fill="#191970" stroke="#191970" points="84.6377,-55.0347 93.7811,-60.3873 89.9713,-50.5011 84.6377,-55.0347"/>
</g>
<!-- Node6&#45;&gt;Node5 -->
<g id="edge5" class="edge">
<title>Node6&#45;&gt;Node5</title>
<path fill="none" stroke="#191970" d="M118.7833,-53.3221C130.6224,-42.2229 145.9073,-27.8933 155.7152,-18.6985"/>
<polygon fill="#191970" stroke="#191970" points="116.1487,-50.9945 111.2471,-60.3873 120.9363,-56.1012 116.1487,-50.9945"/>
</g>
</g>
</svg>
