<?xml version="1.0" encoding="UTF-8" standalone="no"?>
<!DOCTYPE svg PUBLIC "-//W3C//DTD SVG 1.1//EN"
 "http://www.w3.org/Graphics/SVG/1.1/DTD/svg11.dtd">
<!-- Generated by graphviz version 2.40.1 (20161225.0304)
 -->
<!-- Title: libosp/common/constants.h Pages: 1 -->
<svg width="478pt" height="277pt"
 viewBox="0.00 0.00 478.20 277.00" xmlns="http://www.w3.org/2000/svg" xmlns:xlink="http://www.w3.org/1999/xlink">
<g id="graph0" class="graph" transform="scale(1 1) rotate(0) translate(4 273)">
<title>libosp/common/constants.h</title>
<polygon fill="#ffffff" stroke="transparent" points="-4,4 -4,-273 474.2044,-273 474.2044,4 -4,4"/>
<!-- Node1 -->
<g id="node1" class="node">
<title>Node1</title>
<polygon fill="#bfbfbf" stroke="#000000" points="193.3794,-250.5 193.3794,-268.5 330.5513,-268.5 330.5513,-250.5 193.3794,-250.5"/>
<text text-anchor="middle" x="261.9653" y="-256.5" font-family="Helvetica,sans-Serif" font-size="10.00" fill="#000000">libosp/common/constants.h</text>
</g>
<!-- Node2 -->
<g id="node2" class="node">
<title>Node2</title>
<g id="a_node2"><a xlink:href="logger_8c.html" target="_top" xlink:title="osp/logger.c">
<polygon fill="#ffffff" stroke="#000000" points="0,-190.5 0,-208.5 69.9307,-208.5 69.9307,-190.5 0,-190.5"/>
<text text-anchor="middle" x="34.9653" y="-196.5" font-family="Helvetica,sans-Serif" font-size="10.00" fill="#000000">osp/logger.c</text>
</a>
</g>
</g>
<!-- Node1&#45;&gt;Node2 -->
<g id="edge1" class="edge">
<title>Node1&#45;&gt;Node2</title>
<path fill="none" stroke="#191970" d="M215.3076,-248.0808C179.3276,-239.1523 128.3743,-226.242 83.9653,-214 77.8075,-212.3025 71.2374,-210.4129 64.9742,-208.5735"/>
<polygon fill="#191970" stroke="#191970" points="214.4928,-251.4847 225.0408,-250.4896 216.1745,-244.6897 214.4928,-251.4847"/>
</g>
<!-- Node3 -->
<g id="node3" class="node">
<title>Node3</title>
<g id="a_node3"><a xlink:href="main_8c.html" target="_top" xlink:title="osp/main.c">
<polygon fill="#ffffff" stroke="#000000" points="126.7881,-.5 126.7881,-18.5 191.1426,-18.5 191.1426,-.5 126.7881,-.5"/>
<text text-anchor="middle" x="158.9653" y="-6.5" font-family="Helvetica,sans-Serif" font-size="10.00" fill="#000000">osp/main.c</text>
</a>
</g>
</g>
<!-- Node1&#45;&gt;Node3 -->
<g id="edge2" class="edge">
<title>Node1&#45;&gt;Node3</title>
<path fill="none" stroke="#191970" d="M206.6244,-247.2974C187.6753,-240.4845 167.9902,-230.0062 154.9653,-214 110.1646,-158.9445 126.0178,-124.5966 139.9653,-55 142.623,-41.7383 149.2376,-27.5146 153.9125,-18.5681"/>
<polygon fill="#191970" stroke="#191970" points="205.5367,-250.6241 216.1301,-250.4457 207.7376,-243.9791 205.5367,-250.6241"/>
</g>
<!-- Node4 -->
<g id="node4" class="node">
<title>Node4</title>
<g id="a_node4"><a xlink:href="coeffs_8h.html" target="_top" xlink:title="libosp/osp_process\l/coeffs.h">
<polygon fill="#ffffff" stroke="#000000" points="349.1626,-185.5 349.1626,-213.5 450.7681,-213.5 450.7681,-185.5 349.1626,-185.5"/>
<text text-anchor="start" x="357.1626" y="-201.5" font-family="Helvetica,sans-Serif" font-size="10.00" fill="#000000">libosp/osp_process</text>
<text text-anchor="middle" x="399.9653" y="-191.5" font-family="Helvetica,sans-Serif" font-size="10.00" fill="#000000">/coeffs.h</text>
</a>
</g>
</g>
<!-- Node1&#45;&gt;Node4 -->
<g id="edge3" class="edge">
<title>Node1&#45;&gt;Node4</title>
<path fill="none" stroke="#191970" d="M292.2697,-246.3242C314.618,-236.6075 344.9698,-223.4111 367.7561,-213.504"/>
<polygon fill="#191970" stroke="#191970" points="290.6997,-243.1902 282.9246,-250.3873 293.4908,-249.6097 290.6997,-243.1902"/>
</g>
<!-- Node6 -->
<g id="node6" class="node">
<title>Node6</title>
<g id="a_node6"><a xlink:href="osp__process_8h.html" target="_top" xlink:title="libosp/osp_process\l/osp_process.h">
<polygon fill="#ffffff" stroke="#000000" points="280.1626,-120.5 280.1626,-148.5 381.7681,-148.5 381.7681,-120.5 280.1626,-120.5"/>
<text text-anchor="start" x="288.1626" y="-136.5" font-family="Helvetica,sans-Serif" font-size="10.00" fill="#000000">libosp/osp_process</text>
<text text-anchor="middle" x="330.9653" y="-126.5" font-family="Helvetica,sans-Serif" font-size="10.00" fill="#000000">/osp_process.h</text>
</a>
</g>
</g>
<!-- Node1&#45;&gt;Node6 -->
<g id="edge13" class="edge">
<title>Node1&#45;&gt;Node6</title>
<path fill="none" stroke="#191970" d="M272.0349,-241.258C285.8575,-216.2171 310.4264,-171.7083 323.0281,-148.8791"/>
<polygon fill="#191970" stroke="#191970" points="268.9201,-239.6585 267.1515,-250.1047 275.0484,-243.0414 268.9201,-239.6585"/>
</g>
<!-- Node8 -->
<g id="node8" class="node">
<title>Node8</title>
<g id="a_node8"><a xlink:href="osp__process_8c.html" target="_top" xlink:title="libosp/osp_process\l/osp_process.c">
<polygon fill="#ffffff" stroke="#000000" points="322.1626,-55.5 322.1626,-83.5 423.7681,-83.5 423.7681,-55.5 322.1626,-55.5"/>
<text text-anchor="start" x="330.1626" y="-71.5" font-family="Helvetica,sans-Serif" font-size="10.00" fill="#000000">libosp/osp_process</text>
<text text-anchor="middle" x="372.9653" y="-61.5" font-family="Helvetica,sans-Serif" font-size="10.00" fill="#000000">/osp_process.c</text>
</a>
</g>
</g>
<!-- Node1&#45;&gt;Node8 -->
<g id="edge12" class="edge">
<title>Node1&#45;&gt;Node8</title>
<path fill="none" stroke="#191970" d="M340.4758,-251.4409C389.0309,-244.6523 444.8834,-232.9409 459.9653,-214 495.0785,-169.9027 428.1921,-110.4184 392.8497,-83.6219"/>
<polygon fill="#191970" stroke="#191970" points="340.0042,-247.9727 330.56,-252.7746 340.9374,-254.9103 340.0042,-247.9727"/>
</g>
<!-- Node9 -->
<g id="node9" class="node">
<title>Node9</title>
<g id="a_node9"><a xlink:href="osp__tcp_8h.html" target="_top" xlink:title="libosp/osp_tcp/osp\l_tcp.h">
<polygon fill="#ffffff" stroke="#000000" points="163.5493,-185.5 163.5493,-213.5 262.3813,-213.5 262.3813,-185.5 163.5493,-185.5"/>
<text text-anchor="start" x="171.5493" y="-201.5" font-family="Helvetica,sans-Serif" font-size="10.00" fill="#000000">libosp/osp_tcp/osp</text>
<text text-anchor="middle" x="212.9653" y="-191.5" font-family="Helvetica,sans-Serif" font-size="10.00" fill="#000000">_tcp.h</text>
</a>
</g>
</g>
<!-- Node1&#45;&gt;Node9 -->
<g id="edge14" class="edge">
<title>Node1&#45;&gt;Node9</title>
<path fill="none" stroke="#191970" d="M248.049,-242.4596C240.6691,-233.423 231.7032,-222.4444 224.6826,-213.8477"/>
<polygon fill="#191970" stroke="#191970" points="245.487,-244.8558 254.5233,-250.3873 250.9088,-240.4281 245.487,-244.8558"/>
</g>
<!-- Node5 -->
<g id="node5" class="node">
<title>Node5</title>
<g id="a_node5"><a xlink:href="port__wrapper_8c.html" target="_top" xlink:title="osp/port_wrapper.c">
<polygon fill="#ffffff" stroke="#000000" points="217.4385,-.5 217.4385,-18.5 318.4922,-18.5 318.4922,-.5 217.4385,-.5"/>
<text text-anchor="middle" x="267.9653" y="-6.5" font-family="Helvetica,sans-Serif" font-size="10.00" fill="#000000">osp/port_wrapper.c</text>
</a>
</g>
</g>
<!-- Node4&#45;&gt;Node5 -->
<g id="edge4" class="edge">
<title>Node4&#45;&gt;Node5</title>
<path fill="none" stroke="#191970" d="M415.7184,-176.4432C434.5726,-145.7012 460.3758,-90.9922 432.9653,-55 419.0576,-36.738 361.8388,-23.9463 318.6524,-16.6736"/>
<polygon fill="#191970" stroke="#191970" points="412.5812,-174.8533 410.1568,-185.167 418.4838,-178.6163 412.5812,-174.8533"/>
</g>
<!-- Node4&#45;&gt;Node6 -->
<g id="edge5" class="edge">
<title>Node4&#45;&gt;Node6</title>
<path fill="none" stroke="#191970" d="M377.4729,-178.3115C367.1226,-168.5612 355.1249,-157.259 345.9081,-148.5765"/>
<polygon fill="#191970" stroke="#191970" points="375.3145,-181.0866 384.9934,-185.396 380.1144,-175.9914 375.3145,-181.0866"/>
</g>
<!-- Node4&#45;&gt;Node8 -->
<g id="edge11" class="edge">
<title>Node4&#45;&gt;Node8</title>
<path fill="none" stroke="#191970" d="M398.6661,-175.2071C397.4631,-159.3385 395.1919,-138.2515 390.9653,-120 388.0676,-107.4866 383.0634,-93.7895 379.0658,-83.8211"/>
<polygon fill="#191970" stroke="#191970" points="395.1789,-175.5165 399.3392,-185.2603 402.1632,-175.0488 395.1789,-175.5165"/>
</g>
<!-- Node6&#45;&gt;Node3 -->
<g id="edge6" class="edge">
<title>Node6&#45;&gt;Node3</title>
<path fill="none" stroke="#191970" d="M270.7912,-117.5173C239.3307,-107.6724 204.928,-95.0715 192.9653,-84 173.3489,-65.8449 164.2077,-34.1767 160.7355,-18.634"/>
<polygon fill="#191970" stroke="#191970" points="269.8453,-120.8881 280.4322,-120.4795 271.9012,-114.1968 269.8453,-120.8881"/>
</g>
<!-- Node7 -->
<g id="node7" class="node">
<title>Node7</title>
<g id="a_node7"><a xlink:href="port__wrapper_8h.html" target="_top" xlink:title="osp/port_wrapper.h">
<polygon fill="#ffffff" stroke="#000000" points="202.1577,-60.5 202.1577,-78.5 303.7729,-78.5 303.7729,-60.5 202.1577,-60.5"/>
<text text-anchor="middle" x="252.9653" y="-66.5" font-family="Helvetica,sans-Serif" font-size="10.00" fill="#000000">osp/port_wrapper.h</text>
</a>
</g>
</g>
<!-- Node6&#45;&gt;Node7 -->
<g id="edge7" class="edge">
<title>Node6&#45;&gt;Node7</title>
<path fill="none" stroke="#191970" d="M306.0705,-113.7543C291.8494,-101.9034 274.7366,-87.6427 263.8545,-78.5743"/>
<polygon fill="#191970" stroke="#191970" points="304.1176,-116.6829 314.0405,-120.396 308.5989,-111.3053 304.1176,-116.6829"/>
</g>
<!-- Node6&#45;&gt;Node8 -->
<g id="edge10" class="edge">
<title>Node6&#45;&gt;Node8</title>
<path fill="none" stroke="#191970" d="M345.5898,-111.8669C351.6685,-102.4594 358.5345,-91.8334 363.8697,-83.5765"/>
<polygon fill="#191970" stroke="#191970" points="342.5662,-110.0973 340.0787,-120.396 348.4456,-113.8963 342.5662,-110.0973"/>
</g>
<!-- Node7&#45;&gt;Node3 -->
<g id="edge8" class="edge">
<title>Node7&#45;&gt;Node3</title>
<path fill="none" stroke="#191970" d="M230.0376,-54.8653C212.2391,-43.5045 188.1318,-28.1169 173.0683,-18.5019"/>
<polygon fill="#191970" stroke="#191970" points="228.3764,-57.9571 238.6888,-60.3873 232.1427,-52.0567 228.3764,-57.9571"/>
</g>
<!-- Node7&#45;&gt;Node5 -->
<g id="edge9" class="edge">
<title>Node7&#45;&gt;Node5</title>
<path fill="none" stroke="#191970" d="M257.747,-50.3734C260.395,-39.7812 263.5659,-27.0976 265.6657,-18.6985"/>
<polygon fill="#191970" stroke="#191970" points="254.2734,-49.837 255.2435,-60.3873 261.0644,-51.5348 254.2734,-49.837"/>
</g>
<!-- Node9&#45;&gt;Node3 -->
<g id="edge15" class="edge">
<title>Node9&#45;&gt;Node3</title>
<path fill="none" stroke="#191970" d="M180.3455,-179.2997C170.2832,-171.2316 160.4216,-160.9853 154.9653,-149 134.386,-103.7951 149.3308,-41.5342 156.1021,-18.5212"/>
<polygon fill="#191970" stroke="#191970" points="178.2706,-182.1184 188.3781,-185.2947 182.4575,-176.5085 178.2706,-182.1184"/>
</g>
<!-- Node10 -->
<g id="node10" class="node">
<title>Node10</title>
<g id="a_node10"><a xlink:href="osp__tcp_8c.html" target="_top" xlink:title="libosp/osp_tcp/osp\l_tcp.c">
<polygon fill="#ffffff" stroke="#000000" points="163.5493,-120.5 163.5493,-148.5 262.3813,-148.5 262.3813,-120.5 163.5493,-120.5"/>
<text text-anchor="start" x="171.5493" y="-136.5" font-family="Helvetica,sans-Serif" font-size="10.00" fill="#000000">libosp/osp_tcp/osp</text>
<text text-anchor="middle" x="212.9653" y="-126.5" font-family="Helvetica,sans-Serif" font-size="10.00" fill="#000000">_tcp.c</text>
</a>
</g>
</g>
<!-- Node9&#45;&gt;Node10 -->
<g id="edge16" class="edge">
<title>Node9&#45;&gt;Node10</title>
<path fill="none" stroke="#191970" d="M212.9653,-175.1081C212.9653,-166.1539 212.9653,-156.3227 212.9653,-148.5765"/>
<polygon fill="#191970" stroke="#191970" points="209.4654,-175.3959 212.9653,-185.396 216.4654,-175.396 209.4654,-175.3959"/>
</g>
</g>
</svg>
