<?xml version="1.0" encoding="UTF-8" standalone="no"?>
<!DOCTYPE svg PUBLIC "-//W3C//DTD SVG 1.1//EN"
 "http://www.w3.org/Graphics/SVG/1.1/DTD/svg11.dtd">
<!-- Generated by graphviz version 2.40.1 (20161225.0304)
 -->
<!-- Title: libosp/beam_forming/delay_line.h Pages: 1 -->
<svg width="363pt" height="102pt"
 viewBox="0.00 0.00 363.22 102.00" xmlns="http://www.w3.org/2000/svg" xmlns:xlink="http://www.w3.org/1999/xlink">
<g id="graph0" class="graph" transform="scale(1 1) rotate(0) translate(4 98)">
<title>libosp/beam_forming/delay_line.h</title>
<polygon fill="#ffffff" stroke="transparent" points="-4,4 -4,-98 359.2163,-98 359.2163,4 -4,4"/>
<!-- Node1 -->
<g id="node1" class="node">
<title>Node1</title>
<polygon fill="#bfbfbf" stroke="#000000" points="127,-65.5 127,-93.5 235.8271,-93.5 235.8271,-65.5 127,-65.5"/>
<text text-anchor="start" x="135" y="-81.5" font-family="Helvetica,sans-Serif" font-size="10.00" fill="#000000">libosp/beam_forming</text>
<text text-anchor="middle" x="181.4136" y="-71.5" font-family="Helvetica,sans-Serif" font-size="10.00" fill="#000000">/delay_line.h</text>
</g>
<!-- Node2 -->
<g id="node2" class="node">
<title>Node2</title>
<g id="a_node2"><a xlink:href="beam__forming_8c.html" target="_top" xlink:title="libosp/beam_forming\l/beam_forming.c">
<polygon fill="#ffffff" stroke="#000000" points="0,-.5 0,-28.5 108.8271,-28.5 108.8271,-.5 0,-.5"/>
<text text-anchor="start" x="8" y="-16.5" font-family="Helvetica,sans-Serif" font-size="10.00" fill="#000000">libosp/beam_forming</text>
<text text-anchor="middle" x="54.4136" y="-6.5" font-family="Helvetica,sans-Serif" font-size="10.00" fill="#000000">/beam_forming.c</text>
</a>
</g>
</g>
<!-- Node1&#45;&gt;Node2 -->
<g id="edge1" class="edge">
<title>Node1&#45;&gt;Node2</title>
<path fill="none" stroke="#191970" d="M144.7092,-60.7143C124.6799,-50.4631 100.2949,-37.9826 81.9169,-28.5765"/>
<polygon fill="#191970" stroke="#191970" points="143.36,-63.9555 153.8565,-65.396 146.5493,-57.7242 143.36,-63.9555"/>
</g>
<!-- Node3 -->
<g id="node3" class="node">
<title>Node3</title>
<g id="a_node3"><a xlink:href="delay__line_8c.html" target="_top" xlink:title="libosp/beam_forming\l/delay_line.c">
<polygon fill="#ffffff" stroke="#000000" points="127,-.5 127,-28.5 235.8271,-28.5 235.8271,-.5 127,-.5"/>
<text text-anchor="start" x="135" y="-16.5" font-family="Helvetica,sans-Serif" font-size="10.00" fill="#000000">libosp/beam_forming</text>
<text text-anchor="middle" x="181.4136" y="-6.5" font-family="Helvetica,sans-Serif" font-size="10.00" fill="#000000">/delay_line.c</text>
</a>
</g>
</g>
<!-- Node1&#45;&gt;Node3 -->
<g id="edge2" class="edge">
<title>Node1&#45;&gt;Node3</title>
<path fill="none" stroke="#191970" d="M181.4136,-55.1081C181.4136,-46.1539 181.4136,-36.3227 181.4136,-28.5765"/>
<polygon fill="#191970" stroke="#191970" points="177.9137,-55.3959 181.4136,-65.396 184.9137,-55.396 177.9137,-55.3959"/>
</g>
<!-- Node4 -->
<g id="node4" class="node">
<title>Node4</title>
<g id="a_node4"><a xlink:href="osp__process_8c.html" target="_top" xlink:title="libosp/osp_process\l/osp_process.c">
<polygon fill="#ffffff" stroke="#000000" points="253.6108,-.5 253.6108,-28.5 355.2163,-28.5 355.2163,-.5 253.6108,-.5"/>
<text text-anchor="start" x="261.6108" y="-16.5" font-family="Helvetica,sans-Serif" font-size="10.00" fill="#000000">libosp/osp_process</text>
<text text-anchor="middle" x="304.4136" y="-6.5" font-family="Helvetica,sans-Serif" font-size="10.00" fill="#000000">/osp_process.c</text>
</a>
</g>
</g>
<!-- Node1&#45;&gt;Node4 -->
<g id="edge3" class="edge">
<title>Node1&#45;&gt;Node4</title>
<path fill="none" stroke="#191970" d="M216.9619,-60.7143C236.3604,-50.4631 259.9773,-37.9826 277.7765,-28.5765"/>
<polygon fill="#191970" stroke="#191970" points="215.3088,-57.6292 208.1027,-65.396 218.5794,-63.8181 215.3088,-57.6292"/>
</g>
</g>
</svg>
