<?xml version="1.0" encoding="UTF-8" standalone="no"?>
<!DOCTYPE svg PUBLIC "-//W3C//DTD SVG 1.1//EN"
 "http://www.w3.org/Graphics/SVG/1.1/DTD/svg11.dtd">
<!-- Generated by graphviz version 2.40.1 (20161225.0304)
 -->
<!-- Title: libosp/beam_forming/delay_line.c Pages: 1 -->
<svg width="275pt" height="92pt"
 viewBox="0.00 0.00 274.97 92.00" xmlns="http://www.w3.org/2000/svg" xmlns:xlink="http://www.w3.org/1999/xlink">
<g id="graph0" class="graph" transform="scale(1 1) rotate(0) translate(4 88)">
<title>libosp/beam_forming/delay_line.c</title>
<polygon fill="#ffffff" stroke="transparent" points="-4,4 -4,-88 270.9727,-88 270.9727,4 -4,4"/>
<!-- Node0 -->
<g id="node1" class="node">
<title>Node0</title>
<polygon fill="#bfbfbf" stroke="#000000" points="90.2734,-55.5 90.2734,-83.5 199.1006,-83.5 199.1006,-55.5 90.2734,-55.5"/>
<text text-anchor="start" x="98.2734" y="-71.5" font-family="Helvetica,sans-Serif" font-size="10.00" fill="#000000">libosp/beam_forming</text>
<text text-anchor="middle" x="144.687" y="-61.5" font-family="Helvetica,sans-Serif" font-size="10.00" fill="#000000">/delay_line.c</text>
</g>
<!-- Node1 -->
<g id="node2" class="node">
<title>Node1</title>
<g id="a_node2"><a xlink:href="delay__line_8h.html" target="_top" xlink:title="delay_line.h">
<polygon fill="#ffffff" stroke="#000000" points="0,-.5 0,-18.5 69.374,-18.5 69.374,-.5 0,-.5"/>
<text text-anchor="middle" x="34.687" y="-6.5" font-family="Helvetica,sans-Serif" font-size="10.00" fill="#000000">delay_line.h</text>
</a>
</g>
</g>
<!-- Node0&#45;&gt;Node1 -->
<g id="edge1" class="edge">
<title>Node0&#45;&gt;Node1</title>
<path fill="none" stroke="#191970" d="M118.8969,-55.4327C101.3229,-45.8468 78.1438,-33.2037 60.5536,-23.609"/>
<polygon fill="#191970" stroke="#191970" points="61.8823,-20.347 51.4273,-18.6311 58.5303,-26.4923 61.8823,-20.347"/>
</g>
<!-- Node2 -->
<g id="node3" class="node">
<title>Node2</title>
<polygon fill="#ffffff" stroke="#bfbfbf" points="87.8447,-.5 87.8447,-18.5 135.5293,-18.5 135.5293,-.5 87.8447,-.5"/>
<text text-anchor="middle" x="111.687" y="-6.5" font-family="Helvetica,sans-Serif" font-size="10.00" fill="#000000">stdlib.h</text>
</g>
<!-- Node0&#45;&gt;Node2 -->
<g id="edge2" class="edge">
<title>Node0&#45;&gt;Node2</title>
<path fill="none" stroke="#191970" d="M136.8665,-55.2808C132.2755,-46.9336 126.4312,-36.3076 121.529,-27.3946"/>
<polygon fill="#191970" stroke="#191970" points="124.5693,-25.6596 116.6833,-18.5842 118.4358,-29.0331 124.5693,-25.6596"/>
</g>
<!-- Node3 -->
<g id="node4" class="node">
<title>Node3</title>
<polygon fill="#ffffff" stroke="#bfbfbf" points="153.2905,-.5 153.2905,-18.5 202.0835,-18.5 202.0835,-.5 153.2905,-.5"/>
<text text-anchor="middle" x="177.687" y="-6.5" font-family="Helvetica,sans-Serif" font-size="10.00" fill="#000000">string.h</text>
</g>
<!-- Node0&#45;&gt;Node3 -->
<g id="edge3" class="edge">
<title>Node0&#45;&gt;Node3</title>
<path fill="none" stroke="#191970" d="M152.5076,-55.2808C157.0985,-46.9336 162.9428,-36.3076 167.845,-27.3946"/>
<polygon fill="#191970" stroke="#191970" points="170.9382,-29.0331 172.6907,-18.5842 164.8047,-25.6596 170.9382,-29.0331"/>
</g>
<!-- Node4 -->
<g id="node5" class="node">
<title>Node4</title>
<polygon fill="#ffffff" stroke="#bfbfbf" points="220.4014,-.5 220.4014,-18.5 266.9727,-18.5 266.9727,-.5 220.4014,-.5"/>
<text text-anchor="middle" x="243.687" y="-6.5" font-family="Helvetica,sans-Serif" font-size="10.00" fill="#000000">math.h</text>
</g>
<!-- Node0&#45;&gt;Node4 -->
<g id="edge4" class="edge">
<title>Node0&#45;&gt;Node4</title>
<path fill="none" stroke="#191970" d="M167.8981,-55.4327C183.5683,-45.9356 204.19,-33.4376 219.9661,-23.8763"/>
<polygon fill="#191970" stroke="#191970" points="221.8828,-26.8073 228.6208,-18.6311 218.2547,-20.8209 221.8828,-26.8073"/>
</g>
</g>
</svg>
