<?xml version="1.0" encoding="UTF-8" standalone="no"?>
<!DOCTYPE svg PUBLIC "-//W3C//DTD SVG 1.1//EN"
 "http://www.w3.org/Graphics/SVG/1.1/DTD/svg11.dtd">
<!-- Generated by graphviz version 2.40.1 (20161225.0304)
 -->
<!-- Title: libosp/afc Pages: 1 -->
<svg width="154pt" height="150pt"
 viewBox="0.00 0.00 154.46 150.00" xmlns="http://www.w3.org/2000/svg" xmlns:xlink="http://www.w3.org/1999/xlink">
<g id="graph0" class="graph" transform="scale(1 1) rotate(0) translate(4 146)">
<title>libosp/afc</title>
<polygon fill="#ffffff" stroke="transparent" points="-4,4 -4,-146 150.4556,-146 150.4556,4 -4,4"/>
<g id="clust1" class="cluster">
<title>clusterdir_344a92ffc85f32daed969785c1237399</title>
<g id="a_clust1"><a xlink:href="dir_344a92ffc85f32daed969785c1237399.html" target="_top" xlink:title="libosp">
<polygon fill="#ddddee" stroke="#000000" points="43.4556,-64 43.4556,-134 113.4556,-134 113.4556,-64 43.4556,-64"/>
<text text-anchor="middle" x="78.4556" y="-122" font-family="Helvetica,sans-Serif" font-size="10.00" fill="#000000">libosp</text>
</a>
</g>
</g>
<!-- dir_d30d913637fbf7f792881e6c97312ebe -->
<g id="node1" class="node">
<title>dir_d30d913637fbf7f792881e6c97312ebe</title>
<g id="a_node1"><a xlink:href="dir_d30d913637fbf7f792881e6c97312ebe.html" target="_top" xlink:title="afc">
<polygon fill="#eeeeff" stroke="#000000" points="105.4556,-108 51.4556,-108 51.4556,-72 105.4556,-72 105.4556,-108"/>
<text text-anchor="middle" x="78.4556" y="-87" font-family="Helvetica,sans-Serif" font-size="10.00" fill="#000000">afc</text>
</a>
</g>
</g>
<!-- dir_d2ff1931eae1d716ba66faf7712a9d40 -->
<g id="node2" class="node">
<title>dir_d2ff1931eae1d716ba66faf7712a9d40</title>
<g id="a_node2"><a xlink:href="dir_d2ff1931eae1d716ba66faf7712a9d40.html" target="_top" xlink:title="array_utilities">
<polygon fill="none" stroke="#000000" points="74.8668,-36 .0444,-36 .0444,0 74.8668,0 74.8668,-36"/>
<text text-anchor="middle" x="37.4556" y="-15" font-family="Helvetica,sans-Serif" font-size="10.00" fill="#000000">array_utilities</text>
</a>
</g>
</g>
<!-- dir_d30d913637fbf7f792881e6c97312ebe&#45;&gt;dir_d2ff1931eae1d716ba66faf7712a9d40 -->
<g id="edge1" class="edge">
<title>dir_d30d913637fbf7f792881e6c97312ebe&#45;&gt;dir_d2ff1931eae1d716ba66faf7712a9d40</title>
<path fill="none" stroke="#000000" d="M68.1095,-71.8314C63.5318,-63.7925 58.0504,-54.1666 52.9967,-45.2918"/>
<polygon fill="#000000" stroke="#000000" points="55.9308,-43.3712 47.9409,-36.4133 49.8479,-46.8351 55.9308,-43.3712"/>
<g id="a_edge1&#45;headlabel"><a xlink:href="dir_000001_000002.html" target="_top" xlink:title="1">
<text text-anchor="middle" x="60.1768" y="-42.0899" font-family="Helvetica,sans-Serif" font-size="10.00" fill="#000000">1</text>
</a>
</g>
</g>
<!-- dir_de7a9cb073e10e7815aee1406a0b0d94 -->
<g id="node3" class="node">
<title>dir_de7a9cb073e10e7815aee1406a0b0d94</title>
<g id="a_node3"><a xlink:href="dir_de7a9cb073e10e7815aee1406a0b0d94.html" target="_top" xlink:title="filter">
<polygon fill="none" stroke="#000000" points="146.4556,-36 92.4556,-36 92.4556,0 146.4556,0 146.4556,-36"/>
<text text-anchor="middle" x="119.4556" y="-15" font-family="Helvetica,sans-Serif" font-size="10.00" fill="#000000">filter</text>
</a>
</g>
</g>
<!-- dir_d30d913637fbf7f792881e6c97312ebe&#45;&gt;dir_de7a9cb073e10e7815aee1406a0b0d94 -->
<g id="edge2" class="edge">
<title>dir_d30d913637fbf7f792881e6c97312ebe&#45;&gt;dir_de7a9cb073e10e7815aee1406a0b0d94</title>
<path fill="none" stroke="#000000" d="M88.8016,-71.8314C93.3793,-63.7925 98.8607,-54.1666 103.9144,-45.2918"/>
<polygon fill="#000000" stroke="#000000" points="107.0632,-46.8351 108.9702,-36.4133 100.9803,-43.3712 107.0632,-46.8351"/>
<g id="a_edge2&#45;headlabel"><a xlink:href="dir_000001_000005.html" target="_top" xlink:title="1">
<text text-anchor="middle" x="107.7518" y="-48.3637" font-family="Helvetica,sans-Serif" font-size="10.00" fill="#000000">1</text>
</a>
</g>
</g>
</g>
</svg>
