<?xml version="1.0" encoding="UTF-8" standalone="no"?>
<!DOCTYPE svg PUBLIC "-//W3C//DTD SVG 1.1//EN"
 "http://www.w3.org/Graphics/SVG/1.1/DTD/svg11.dtd">
<!-- Generated by graphviz version 2.40.1 (20161225.0304)
 -->
<!-- Title: libosp/osp_tcp Pages: 1 -->
<svg width="178pt" height="182pt"
 viewBox="0.00 0.00 178.17 182.00" xmlns="http://www.w3.org/2000/svg" xmlns:xlink="http://www.w3.org/1999/xlink">
<g id="graph0" class="graph" transform="scale(1 1) rotate(0) translate(4 178)">
<title>libosp/osp_tcp</title>
<polygon fill="#ffffff" stroke="transparent" points="-4,4 -4,-178 174.1724,-178 174.1724,4 -4,4"/>
<g id="clust1" class="cluster">
<title>clusterdir_344a92ffc85f32daed969785c1237399</title>
<g id="a_clust1"><a xlink:href="dir_344a92ffc85f32daed969785c1237399.html" target="_top" xlink:title="libosp">
<polygon fill="#ddddee" stroke="#000000" points="8,-8 8,-166 108,-166 108,-8 8,-8"/>
<text text-anchor="middle" x="58" y="-154" font-family="Helvetica,sans-Serif" font-size="10.00" fill="#000000">libosp</text>
</a>
</g>
</g>
<g id="clust2" class="cluster">
<title>clusterdir_13cda17aba8e814f4afb5662c5c96c8d</title>
<g id="a_clust2"><a xlink:href="dir_13cda17aba8e814f4afb5662c5c96c8d.html" target="_top">
<polygon fill="#eeeeff" stroke="#000000" points="16,-16 16,-140 100,-140 100,-16 16,-16"/>
</a>
</g>
</g>
<!-- dir_13cda17aba8e814f4afb5662c5c96c8d -->
<g id="node1" class="node">
<title>dir_13cda17aba8e814f4afb5662c5c96c8d</title>
<text text-anchor="middle" x="61" y="-111" font-family="Helvetica,sans-Serif" font-size="10.00" fill="#000000">osp_tcp</text>
</g>
<!-- dir_e22fa78a962c199a377020f2ec9bd4d2 -->
<g id="node2" class="node">
<title>dir_e22fa78a962c199a377020f2ec9bd4d2</title>
<g id="a_node2"><a xlink:href="dir_e22fa78a962c199a377020f2ec9bd4d2.html" target="_top" xlink:title="json_parser">
<polygon fill="#ffffff" stroke="#000000" points="92.2514,-60 23.7486,-60 23.7486,-24 92.2514,-24 92.2514,-60"/>
<text text-anchor="middle" x="58" y="-39" font-family="Helvetica,sans-Serif" font-size="10.00" fill="#000000">json_parser</text>
</a>
</g>
</g>
<!-- dir_13cda17aba8e814f4afb5662c5c96c8d&#45;&gt;dir_e22fa78a962c199a377020f2ec9bd4d2 -->
<g id="edge1" class="edge">
<title>dir_13cda17aba8e814f4afb5662c5c96c8d&#45;&gt;dir_e22fa78a962c199a377020f2ec9bd4d2</title>
<path fill="none" stroke="#000000" d="M60.243,-95.8314C59.9221,-88.131 59.5406,-78.9743 59.184,-70.4166"/>
<polygon fill="#000000" stroke="#000000" points="62.6806,-70.2589 58.7672,-60.4133 55.6867,-70.5503 62.6806,-70.2589"/>
<g id="a_edge1&#45;headlabel"><a xlink:href="dir_000007_000008.html" target="_top" xlink:title="2">
<text text-anchor="middle" x="65.6669" y="-70.7322" font-family="Helvetica,sans-Serif" font-size="10.00" fill="#000000">2</text>
</a>
</g>
</g>
<!-- dir_c1518514b5e4fe9e783e310dfe1cfbfe -->
<g id="node3" class="node">
<title>dir_c1518514b5e4fe9e783e310dfe1cfbfe</title>
<g id="a_node3"><a xlink:href="dir_c1518514b5e4fe9e783e310dfe1cfbfe.html" target="_top" xlink:title="common">
<polygon fill="none" stroke="#000000" points="170.3458,-60 115.6542,-60 115.6542,-24 170.3458,-24 170.3458,-60"/>
<text text-anchor="middle" x="143" y="-39" font-family="Helvetica,sans-Serif" font-size="10.00" fill="#000000">common</text>
</a>
</g>
</g>
<!-- dir_13cda17aba8e814f4afb5662c5c96c8d&#45;&gt;dir_c1518514b5e4fe9e783e310dfe1cfbfe -->
<g id="edge2" class="edge">
<title>dir_13cda17aba8e814f4afb5662c5c96c8d&#45;&gt;dir_c1518514b5e4fe9e783e310dfe1cfbfe</title>
<path fill="none" stroke="#000000" d="M81.6921,-95.8314C91.6948,-87.0485 103.855,-76.3712 114.6999,-66.8489"/>
<polygon fill="#000000" stroke="#000000" points="117.1094,-69.3909 122.3146,-60.1628 112.4908,-64.1308 117.1094,-69.3909"/>
<g id="a_edge2&#45;headlabel"><a xlink:href="dir_000007_000004.html" target="_top" xlink:title="1">
<text text-anchor="middle" x="116.2817" y="-70.8962" font-family="Helvetica,sans-Serif" font-size="10.00" fill="#000000">1</text>
</a>
</g>
</g>
</g>
</svg>
