<?xml version="1.0" encoding="UTF-8" standalone="no"?>
<!DOCTYPE svg PUBLIC "-//W3C//DTD SVG 1.1//EN"
 "http://www.w3.org/Graphics/SVG/1.1/DTD/svg11.dtd">
<!-- Generated by graphviz version 2.40.1 (20161225.0304)
 -->
<!-- Title: osp Pages: 1 -->
<svg width="166pt" height="132pt"
 viewBox="0.00 0.00 166.00 132.00" xmlns="http://www.w3.org/2000/svg" xmlns:xlink="http://www.w3.org/1999/xlink">
<g id="graph0" class="graph" transform="scale(1 1) rotate(0) translate(4 128)">
<title>osp</title>
<polygon fill="#ffffff" stroke="transparent" points="-4,4 -4,-128 162,-128 162,4 -4,4"/>
<g id="clust1" class="cluster">
<title>clusterdir_6afa061554a882e7516b72cded975962</title>
<g id="a_clust1"><a xlink:href="dir_6afa061554a882e7516b72cded975962.html" target="_top">
<polygon fill="#eeeeff" stroke="#000000" points="8,-64 8,-116 150,-116 150,-64 8,-64"/>
</a>
</g>
</g>
<!-- dir_6afa061554a882e7516b72cded975962 -->
<g id="node1" class="node">
<title>dir_6afa061554a882e7516b72cded975962</title>
<text text-anchor="middle" x="115" y="-87" font-family="Helvetica,sans-Serif" font-size="10.00" fill="#000000">osp</text>
</g>
<!-- dir_344a92ffc85f32daed969785c1237399 -->
<g id="node3" class="node">
<title>dir_344a92ffc85f32daed969785c1237399</title>
<g id="a_node3"><a xlink:href="dir_344a92ffc85f32daed969785c1237399.html" target="_top" xlink:title="libosp">
<polygon fill="#ffffff" stroke="#ff0000" points="142,-36 88,-36 88,0 142,0 142,-36"/>
<text text-anchor="middle" x="115" y="-15" font-family="Helvetica,sans-Serif" font-size="10.00" fill="#000000">libosp</text>
</a>
</g>
</g>
<!-- dir_6afa061554a882e7516b72cded975962&#45;&gt;dir_344a92ffc85f32daed969785c1237399 -->
<g id="edge1" class="edge">
<title>dir_6afa061554a882e7516b72cded975962&#45;&gt;dir_344a92ffc85f32daed969785c1237399</title>
<path fill="none" stroke="#000000" d="M115,-71.8314C115,-64.131 115,-54.9743 115,-46.4166"/>
<polygon fill="#000000" stroke="#000000" points="118.5001,-46.4132 115,-36.4133 111.5001,-46.4133 118.5001,-46.4132"/>
<g id="a_edge1&#45;headlabel"><a xlink:href="dir_000013_000000.html" target="_top" xlink:title="12">
<text text-anchor="middle" x="121.3393" y="-47.0079" font-family="Helvetica,sans-Serif" font-size="10.00" fill="#000000">12</text>
</a>
</g>
</g>
<!-- dir_f24ed79c9a7255f25da1f5c7845ea9a7 -->
<g id="node2" class="node">
<title>dir_f24ed79c9a7255f25da1f5c7845ea9a7</title>
<g id="a_node2"><a xlink:href="dir_f24ed79c9a7255f25da1f5c7845ea9a7.html" target="_top" xlink:title="scripts">
<polygon fill="#ffffff" stroke="#000000" points="70,-108 16,-108 16,-72 70,-72 70,-108"/>
<text text-anchor="middle" x="43" y="-87" font-family="Helvetica,sans-Serif" font-size="10.00" fill="#000000">scripts</text>
</a>
</g>
</g>
</g>
</svg>
