<?xml version="1.0" encoding="UTF-8" standalone="no"?>
<!DOCTYPE svg PUBLIC "-//W3C//DTD SVG 1.1//EN"
 "http://www.w3.org/Graphics/SVG/1.1/DTD/svg11.dtd">
<!-- Generated by graphviz version 2.40.1 (20161225.0304)
 -->
<!-- Title: libosp Pages: 1 -->
<svg width="672pt" height="220pt"
 viewBox="0.00 0.00 672.00 220.00" xmlns="http://www.w3.org/2000/svg" xmlns:xlink="http://www.w3.org/1999/xlink">
<g id="graph0" class="graph" transform="scale(1 1) rotate(0) translate(4 216)">
<title>libosp</title>
<polygon fill="#ffffff" stroke="transparent" points="-4,4 -4,-216 668,-216 668,4 -4,4"/>
<g id="clust1" class="cluster">
<title>clusterdir_344a92ffc85f32daed969785c1237399</title>
<g id="a_clust1"><a xlink:href="dir_344a92ffc85f32daed969785c1237399.html" target="_top">
<polygon fill="#eeeeff" stroke="#000000" points="8,-8 8,-204 656,-204 656,-8 8,-8"/>
</a>
</g>
</g>
<!-- dir_344a92ffc85f32daed969785c1237399 -->
<g id="node1" class="node">
<title>dir_344a92ffc85f32daed969785c1237399</title>
<text text-anchor="middle" x="549" y="-175" font-family="Helvetica,sans-Serif" font-size="10.00" fill="#000000">libosp</text>
</g>
<!-- dir_d30d913637fbf7f792881e6c97312ebe -->
<g id="node2" class="node">
<title>dir_d30d913637fbf7f792881e6c97312ebe</title>
<g id="a_node2"><a xlink:href="dir_d30d913637fbf7f792881e6c97312ebe.html" target="_top" xlink:title="afc">
<polygon fill="#ffffff" stroke="#000000" points="424,-124 370,-124 370,-88 424,-88 424,-124"/>
<text text-anchor="middle" x="397" y="-103" font-family="Helvetica,sans-Serif" font-size="10.00" fill="#000000">afc</text>
</a>
</g>
</g>
<!-- dir_d2ff1931eae1d716ba66faf7712a9d40 -->
<g id="node3" class="node">
<title>dir_d2ff1931eae1d716ba66faf7712a9d40</title>
<g id="a_node3"><a xlink:href="dir_d2ff1931eae1d716ba66faf7712a9d40.html" target="_top" xlink:title="array_utilities">
<polygon fill="#ffffff" stroke="#000000" points="552.4112,-52 477.5888,-52 477.5888,-16 552.4112,-16 552.4112,-52"/>
<text text-anchor="middle" x="515" y="-31" font-family="Helvetica,sans-Serif" font-size="10.00" fill="#000000">array_utilities</text>
</a>
</g>
</g>
<!-- dir_d30d913637fbf7f792881e6c97312ebe&#45;&gt;dir_d2ff1931eae1d716ba66faf7712a9d40 -->
<g id="edge12" class="edge">
<title>dir_d30d913637fbf7f792881e6c97312ebe&#45;&gt;dir_d2ff1931eae1d716ba66faf7712a9d40</title>
<path fill="none" stroke="#000000" d="M424.0716,-89.4817C439.6001,-80.0067 459.3513,-67.9552 476.4754,-57.5065"/>
<polygon fill="#000000" stroke="#000000" points="478.4412,-60.4072 485.1545,-52.2108 474.7951,-54.4317 478.4412,-60.4072"/>
<g id="a_edge12&#45;headlabel"><a xlink:href="dir_000001_000002.html" target="_top" xlink:title="1">
<text text-anchor="middle" x="476.8515" y="-61.7032" font-family="Helvetica,sans-Serif" font-size="10.00" fill="#000000">1</text>
</a>
</g>
</g>
<!-- dir_de7a9cb073e10e7815aee1406a0b0d94 -->
<g id="node6" class="node">
<title>dir_de7a9cb073e10e7815aee1406a0b0d94</title>
<g id="a_node6"><a xlink:href="dir_de7a9cb073e10e7815aee1406a0b0d94.html" target="_top" xlink:title="filter">
<polygon fill="#ffffff" stroke="#000000" points="262,-52 208,-52 208,-16 262,-16 262,-52"/>
<text text-anchor="middle" x="235" y="-31" font-family="Helvetica,sans-Serif" font-size="10.00" fill="#000000">filter</text>
</a>
</g>
</g>
<!-- dir_d30d913637fbf7f792881e6c97312ebe&#45;&gt;dir_de7a9cb073e10e7815aee1406a0b0d94 -->
<g id="edge13" class="edge">
<title>dir_d30d913637fbf7f792881e6c97312ebe&#45;&gt;dir_de7a9cb073e10e7815aee1406a0b0d94</title>
<path fill="none" stroke="#000000" d="M369.9559,-92.2649C366.9464,-90.8 363.916,-89.3524 361,-88 331.2663,-74.2095 297.0588,-59.6287 271.7962,-49.099"/>
<polygon fill="#000000" stroke="#000000" points="272.8178,-45.7335 262.2401,-45.1312 270.1334,-52.1984 272.8178,-45.7335"/>
<g id="a_edge13&#45;headlabel"><a xlink:href="dir_000001_000005.html" target="_top" xlink:title="1">
<text text-anchor="middle" x="277.2263" y="-41.4896" font-family="Helvetica,sans-Serif" font-size="10.00" fill="#000000">1</text>
</a>
</g>
</g>
<!-- dir_e541d5957584045964f1a22ce7cd4939 -->
<g id="node4" class="node">
<title>dir_e541d5957584045964f1a22ce7cd4939</title>
<g id="a_node4"><a xlink:href="dir_e541d5957584045964f1a22ce7cd4939.html" target="_top" xlink:title="beam_forming">
<polygon fill="#ffffff" stroke="#000000" points="187.9209,-124 108.0791,-124 108.0791,-88 187.9209,-88 187.9209,-124"/>
<text text-anchor="middle" x="148" y="-103" font-family="Helvetica,sans-Serif" font-size="10.00" fill="#000000">beam_forming</text>
</a>
</g>
</g>
<!-- dir_c1518514b5e4fe9e783e310dfe1cfbfe -->
<g id="node5" class="node">
<title>dir_c1518514b5e4fe9e783e310dfe1cfbfe</title>
<g id="a_node5"><a xlink:href="dir_c1518514b5e4fe9e783e310dfe1cfbfe.html" target="_top" xlink:title="common">
<polygon fill="#ffffff" stroke="#000000" points="70.3458,-124 15.6542,-124 15.6542,-88 70.3458,-88 70.3458,-124"/>
<text text-anchor="middle" x="43" y="-103" font-family="Helvetica,sans-Serif" font-size="10.00" fill="#000000">common</text>
</a>
</g>
</g>
<!-- dir_ddf0760a248aa19a1d9cd0e63f058c79 -->
<g id="node7" class="node">
<title>dir_ddf0760a248aa19a1d9cd0e63f058c79</title>
<g id="a_node7"><a xlink:href="dir_ddf0760a248aa19a1d9cd0e63f058c79.html" target="_top" xlink:title="osp_process">
<polygon fill="#ffffff" stroke="#000000" points="393.1998,-196 320.8002,-196 320.8002,-160 393.1998,-160 393.1998,-196"/>
<text text-anchor="middle" x="357" y="-175" font-family="Helvetica,sans-Serif" font-size="10.00" fill="#000000">osp_process</text>
</a>
</g>
</g>
<!-- dir_ddf0760a248aa19a1d9cd0e63f058c79&#45;&gt;dir_d30d913637fbf7f792881e6c97312ebe -->
<g id="edge7" class="edge">
<title>dir_ddf0760a248aa19a1d9cd0e63f058c79&#45;&gt;dir_d30d913637fbf7f792881e6c97312ebe</title>
<path fill="none" stroke="#000000" d="M367.0937,-159.8314C371.5597,-151.7925 376.9075,-142.1666 381.8379,-133.2918"/>
<polygon fill="#000000" stroke="#000000" points="384.9735,-134.8546 386.7704,-124.4133 378.8544,-131.4551 384.9735,-134.8546"/>
<g id="a_edge7&#45;headlabel"><a xlink:href="dir_000006_000001.html" target="_top" xlink:title="1">
<text text-anchor="middle" x="385.7098" y="-136.3757" font-family="Helvetica,sans-Serif" font-size="10.00" fill="#000000">1</text>
</a>
</g>
</g>
<!-- dir_ddf0760a248aa19a1d9cd0e63f058c79&#45;&gt;dir_d2ff1931eae1d716ba66faf7712a9d40 -->
<g id="edge4" class="edge">
<title>dir_ddf0760a248aa19a1d9cd0e63f058c79&#45;&gt;dir_d2ff1931eae1d716ba66faf7712a9d40</title>
<path fill="none" stroke="#000000" d="M393.4628,-169.3804C432.5605,-159.3632 490.9353,-141.9068 505,-124 518.5192,-106.7877 520.2917,-81.6794 519.0956,-62.3535"/>
<polygon fill="#000000" stroke="#000000" points="522.5726,-61.9407 518.1814,-52.2987 515.6013,-62.5746 522.5726,-61.9407"/>
<g id="a_edge4&#45;headlabel"><a xlink:href="dir_000006_000002.html" target="_top" xlink:title="1">
<text text-anchor="middle" x="525.7256" y="-62.2635" font-family="Helvetica,sans-Serif" font-size="10.00" fill="#000000">1</text>
</a>
</g>
</g>
<!-- dir_ddf0760a248aa19a1d9cd0e63f058c79&#45;&gt;dir_e541d5957584045964f1a22ce7cd4939 -->
<g id="edge2" class="edge">
<title>dir_ddf0760a248aa19a1d9cd0e63f058c79&#45;&gt;dir_e541d5957584045964f1a22ce7cd4939</title>
<path fill="none" stroke="#000000" d="M320.685,-166.0488C290.2246,-155.9564 245.3528,-140.9318 197.6541,-124.1916"/>
<polygon fill="#000000" stroke="#000000" points="198.6749,-120.8405 188.0801,-120.8216 196.3507,-127.4434 198.6749,-120.8405"/>
<g id="a_edge2&#45;headlabel"><a xlink:href="dir_000006_000003.html" target="_top" xlink:title="1">
<text text-anchor="middle" x="203.0083" y="-116.3557" font-family="Helvetica,sans-Serif" font-size="10.00" fill="#000000">1</text>
</a>
</g>
</g>
<!-- dir_ddf0760a248aa19a1d9cd0e63f058c79&#45;&gt;dir_c1518514b5e4fe9e783e310dfe1cfbfe -->
<g id="edge6" class="edge">
<title>dir_ddf0760a248aa19a1d9cd0e63f058c79&#45;&gt;dir_c1518514b5e4fe9e783e310dfe1cfbfe</title>
<path fill="none" stroke="#000000" d="M320.5988,-173.3809C267.6652,-166.0877 166.7347,-150 84,-124 82.7485,-123.6067 81.4839,-123.1871 80.2132,-122.7462"/>
<polygon fill="#000000" stroke="#000000" points="81.065,-119.3255 70.4741,-119.0381 78.5742,-125.8673 81.065,-119.3255"/>
<g id="a_edge6&#45;headlabel"><a xlink:href="dir_000006_000004.html" target="_top" xlink:title="3">
<text text-anchor="middle" x="85.4346" y="-114.951" font-family="Helvetica,sans-Serif" font-size="10.00" fill="#000000">3</text>
</a>
</g>
</g>
<!-- dir_ddf0760a248aa19a1d9cd0e63f058c79&#45;&gt;dir_de7a9cb073e10e7815aee1406a0b0d94 -->
<g id="edge8" class="edge">
<title>dir_ddf0760a248aa19a1d9cd0e63f058c79&#45;&gt;dir_de7a9cb073e10e7815aee1406a0b0d94</title>
<path fill="none" stroke="#000000" d="M320.6246,-175.8663C256.2702,-171.2497 126.52,-157.8763 99,-124 88.9115,-111.5814 90.0131,-101.2377 99,-88 120.9528,-55.6634 165.6387,-42.6905 197.8049,-37.4862"/>
<polygon fill="#000000" stroke="#000000" points="198.3636,-40.942 207.7639,-36.0548 197.3676,-34.0132 198.3636,-40.942"/>
<g id="a_edge8&#45;headlabel"><a xlink:href="dir_000006_000005.html" target="_top" xlink:title="1">
<text text-anchor="middle" x="195.2095" y="-41.2637" font-family="Helvetica,sans-Serif" font-size="10.00" fill="#000000">1</text>
</a>
</g>
</g>
<!-- dir_e4d4d3e4b2729fb205722b1fca19ad82 -->
<g id="node9" class="node">
<title>dir_e4d4d3e4b2729fb205722b1fca19ad82</title>
<g id="a_node9"><a xlink:href="dir_e4d4d3e4b2729fb205722b1fca19ad82.html" target="_top" xlink:title="peak_detect">
<polygon fill="#ffffff" stroke="#000000" points="352.489,-124 281.511,-124 281.511,-88 352.489,-88 352.489,-124"/>
<text text-anchor="middle" x="317" y="-103" font-family="Helvetica,sans-Serif" font-size="10.00" fill="#000000">peak_detect</text>
</a>
</g>
</g>
<!-- dir_ddf0760a248aa19a1d9cd0e63f058c79&#45;&gt;dir_e4d4d3e4b2729fb205722b1fca19ad82 -->
<g id="edge9" class="edge">
<title>dir_ddf0760a248aa19a1d9cd0e63f058c79&#45;&gt;dir_e4d4d3e4b2729fb205722b1fca19ad82</title>
<path fill="none" stroke="#000000" d="M346.9063,-159.8314C342.4403,-151.7925 337.0925,-142.1666 332.1621,-133.2918"/>
<polygon fill="#000000" stroke="#000000" points="335.1456,-131.4551 327.2296,-124.4133 329.0265,-134.8546 335.1456,-131.4551"/>
<g id="a_edge9&#45;headlabel"><a xlink:href="dir_000006_000009.html" target="_top" xlink:title="1">
<text text-anchor="middle" x="339.3732" y="-130.2185" font-family="Helvetica,sans-Serif" font-size="10.00" fill="#000000">1</text>
</a>
</g>
</g>
<!-- dir_7339c16d246cb01010ebb66c5ad22b88 -->
<g id="node11" class="node">
<title>dir_7339c16d246cb01010ebb66c5ad22b88</title>
<g id="a_node11"><a xlink:href="dir_7339c16d246cb01010ebb66c5ad22b88.html" target="_top" xlink:title="speech_enhancement">
<polygon fill="#ffffff" stroke="#000000" points="648.4089,-124 533.5911,-124 533.5911,-88 648.4089,-88 648.4089,-124"/>
<text text-anchor="middle" x="591" y="-103" font-family="Helvetica,sans-Serif" font-size="10.00" fill="#000000">speech_enhancement</text>
</a>
</g>
</g>
<!-- dir_ddf0760a248aa19a1d9cd0e63f058c79&#45;&gt;dir_7339c16d246cb01010ebb66c5ad22b88 -->
<g id="edge5" class="edge">
<title>dir_ddf0760a248aa19a1d9cd0e63f058c79&#45;&gt;dir_7339c16d246cb01010ebb66c5ad22b88</title>
<path fill="none" stroke="#000000" d="M393.3058,-166.829C428.0814,-156.1288 481.4011,-139.7227 523.9064,-126.6442"/>
<polygon fill="#000000" stroke="#000000" points="525.1,-129.9389 533.6284,-123.6528 523.0413,-123.2485 525.1,-129.9389"/>
<g id="a_edge5&#45;headlabel"><a xlink:href="dir_000006_000011.html" target="_top" xlink:title="2">
<text text-anchor="middle" x="522.4993" y="-130.7097" font-family="Helvetica,sans-Serif" font-size="10.00" fill="#000000">2</text>
</a>
</g>
</g>
<!-- dir_1192e444e0b425469744ddb44f5500ff -->
<g id="node12" class="node">
<title>dir_1192e444e0b425469744ddb44f5500ff</title>
<g id="a_node12"><a xlink:href="dir_1192e444e0b425469744ddb44f5500ff.html" target="_top" xlink:title="wdrc">
<polygon fill="#ffffff" stroke="#000000" points="496,-124 442,-124 442,-88 496,-88 496,-124"/>
<text text-anchor="middle" x="469" y="-103" font-family="Helvetica,sans-Serif" font-size="10.00" fill="#000000">wdrc</text>
</a>
</g>
</g>
<!-- dir_ddf0760a248aa19a1d9cd0e63f058c79&#45;&gt;dir_1192e444e0b425469744ddb44f5500ff -->
<g id="edge3" class="edge">
<title>dir_ddf0760a248aa19a1d9cd0e63f058c79&#45;&gt;dir_1192e444e0b425469744ddb44f5500ff</title>
<path fill="none" stroke="#000000" d="M385.2623,-159.8314C399.7802,-150.4984 417.6255,-139.0264 433.1068,-129.0742"/>
<polygon fill="#000000" stroke="#000000" points="435.3866,-131.7695 441.9058,-123.4177 431.6013,-125.8812 435.3866,-131.7695"/>
<g id="a_edge3&#45;headlabel"><a xlink:href="dir_000006_000012.html" target="_top" xlink:title="3">
<text text-anchor="middle" x="433.8983" y="-133.1016" font-family="Helvetica,sans-Serif" font-size="10.00" fill="#000000">3</text>
</a>
</g>
</g>
<!-- dir_13cda17aba8e814f4afb5662c5c96c8d -->
<g id="node8" class="node">
<title>dir_13cda17aba8e814f4afb5662c5c96c8d</title>
<g id="a_node8"><a xlink:href="dir_13cda17aba8e814f4afb5662c5c96c8d.html" target="_top" xlink:title="osp_tcp">
<polygon fill="#ffffff" stroke="#ff0000" points="70,-196 16,-196 16,-160 70,-160 70,-196"/>
<text text-anchor="middle" x="43" y="-175" font-family="Helvetica,sans-Serif" font-size="10.00" fill="#000000">osp_tcp</text>
</a>
</g>
</g>
<!-- dir_13cda17aba8e814f4afb5662c5c96c8d&#45;&gt;dir_c1518514b5e4fe9e783e310dfe1cfbfe -->
<g id="edge11" class="edge">
<title>dir_13cda17aba8e814f4afb5662c5c96c8d&#45;&gt;dir_c1518514b5e4fe9e783e310dfe1cfbfe</title>
<path fill="none" stroke="#000000" d="M43,-159.8314C43,-152.131 43,-142.9743 43,-134.4166"/>
<polygon fill="#000000" stroke="#000000" points="46.5001,-134.4132 43,-124.4133 39.5001,-134.4133 46.5001,-134.4132"/>
<g id="a_edge11&#45;headlabel"><a xlink:href="dir_000007_000004.html" target="_top" xlink:title="1">
<text text-anchor="middle" x="49.3393" y="-135.0079" font-family="Helvetica,sans-Serif" font-size="10.00" fill="#000000">1</text>
</a>
</g>
</g>
<!-- dir_b6246aa9d561796439e6a862135f2b86 -->
<g id="node10" class="node">
<title>dir_b6246aa9d561796439e6a862135f2b86</title>
<g id="a_node10"><a xlink:href="dir_b6246aa9d561796439e6a862135f2b86.html" target="_top" xlink:title="resample">
<polygon fill="#ffffff" stroke="#000000" points="263.6281,-124 206.3719,-124 206.3719,-88 263.6281,-88 263.6281,-124"/>
<text text-anchor="middle" x="235" y="-103" font-family="Helvetica,sans-Serif" font-size="10.00" fill="#000000">resample</text>
</a>
</g>
</g>
<!-- dir_b6246aa9d561796439e6a862135f2b86&#45;&gt;dir_de7a9cb073e10e7815aee1406a0b0d94 -->
<g id="edge1" class="edge">
<title>dir_b6246aa9d561796439e6a862135f2b86&#45;&gt;dir_de7a9cb073e10e7815aee1406a0b0d94</title>
<path fill="none" stroke="#000000" d="M235,-87.8314C235,-80.131 235,-70.9743 235,-62.4166"/>
<polygon fill="#000000" stroke="#000000" points="238.5001,-62.4132 235,-52.4133 231.5001,-62.4133 238.5001,-62.4132"/>
<g id="a_edge1&#45;headlabel"><a xlink:href="dir_000010_000005.html" target="_top" xlink:title="1">
<text text-anchor="middle" x="241.3393" y="-63.0079" font-family="Helvetica,sans-Serif" font-size="10.00" fill="#000000">1</text>
</a>
</g>
</g>
<!-- dir_7339c16d246cb01010ebb66c5ad22b88&#45;&gt;dir_d2ff1931eae1d716ba66faf7712a9d40 -->
<g id="edge10" class="edge">
<title>dir_7339c16d246cb01010ebb66c5ad22b88&#45;&gt;dir_d2ff1931eae1d716ba66faf7712a9d40</title>
<path fill="none" stroke="#000000" d="M571.822,-87.8314C562.6412,-79.1337 551.4994,-68.5783 541.5224,-59.1265"/>
<polygon fill="#000000" stroke="#000000" points="543.8385,-56.4995 534.1719,-52.1628 539.0243,-61.5811 543.8385,-56.4995"/>
<g id="a_edge10&#45;headlabel"><a xlink:href="dir_000011_000002.html" target="_top" xlink:title="2">
<text text-anchor="middle" x="548.4007" y="-53.9104" font-family="Helvetica,sans-Serif" font-size="10.00" fill="#000000">2</text>
</a>
</g>
</g>
</g>
</svg>
