<?xml version="1.0" encoding="UTF-8" standalone="no"?>
<!DOCTYPE svg PUBLIC "-//W3C//DTD SVG 1.1//EN"
 "http://www.w3.org/Graphics/SVG/1.1/DTD/svg11.dtd">
<!-- Generated by graphviz version 2.40.1 (20161225.0304)
 -->
<!-- Title: libosp/osp_process Pages: 1 -->
<!--zoomable 222 -->
<svg id="main" version="1.1" xmlns="http://www.w3.org/2000/svg" xmlns:xlink="http://www.w3.org/1999/xlink" xml:space="preserve" onload="init(evt)">
<style type="text/css"><![CDATA[
.edge:hover path { stroke: red; }
.edge:hover polygon { stroke: red; fill: red; }
]]></style>
<script type="text/javascript"><![CDATA[
var edges = document.getElementsByTagName('g');
if (edges && edges.length) {
  for (var i=0;i<edges.length;i++) {
    if (edges[i].id.substr(0,4)=='edge') {
      edges[i].setAttribute('class','edge');
    }
  }
}
]]></script>
        <defs>
                <circle id="rim" cx="0" cy="0" r="7"/>
                <circle id="rim2" cx="0" cy="0" r="3.5"/>
                <g id="zoomPlus">
                        <use xlink:href="#rim" fill="#404040">
                                <set attributeName="fill" to="#808080" begin="zoomplus.mouseover" end="zoomplus.mouseout"/>
                        </use>
                        <path d="M-4,0h8M0,-4v8" fill="none" stroke="white" stroke-width="1.5" pointer-events="none"/>
                </g>
                <g id="zoomMin">
                        <use xlink:href="#rim" fill="#404040">
                                <set attributeName="fill" to="#808080" begin="zoomminus.mouseover" end="zoomminus.mouseout"/>
                        </use>
                        <path d="M-4,0h8" fill="none" stroke="white" stroke-width="1.5" pointer-events="none"/>
                </g>
                <g id="dirArrow">
                        <path fill="none" stroke="white" stroke-width="1.5" d="M0,-3.0v7 M-2.5,-0.5L0,-3.0L2.5,-0.5"/>
                </g>
               <g id="resetDef">
                       <use xlink:href="#rim2" fill="#404040">
                               <set attributeName="fill" to="#808080" begin="reset.mouseover" end="reset.mouseout"/>
                       </use>
               </g>
        </defs>

<script type="text/javascript">
var viewWidth = 600;
var viewHeight = 222;
var sectionId = 'dynsection-0';
</script>
<script xlink:href="svgpan.js"/>
<svg id="graph" class="graph">
<g id="viewport">
<title>libosp/osp_process</title>
<polygon fill="#ffffff" stroke="transparent" points="-4,4 -4,-218 596.2041,-218 596.2041,4 -4,4"/>
<g id="clust1" class="cluster">
<title>clusterdir_344a92ffc85f32daed969785c1237399</title>
<g id="a_clust1"><a xlink:href="dir_344a92ffc85f32daed969785c1237399.html" target="_top" xlink:title="libosp">
<polygon fill="#ddddee" stroke="#000000" points="271.9604,-136 271.9604,-206 359.9604,-206 359.9604,-136 271.9604,-136"/>
<text text-anchor="middle" x="315.9604" y="-194" font-family="Helvetica,sans-Serif" font-size="10.00" fill="#000000">libosp</text>
</a>
</g>
</g>
<!-- dir_ddf0760a248aa19a1d9cd0e63f058c79 -->
<g id="node1" class="node">
<title>dir_ddf0760a248aa19a1d9cd0e63f058c79</title>
<g id="a_node1"><a xlink:href="dir_ddf0760a248aa19a1d9cd0e63f058c79.html" target="_top" xlink:title="osp_process">
<polygon fill="#eeeeff" stroke="#000000" points="352.1603,-180 279.7606,-180 279.7606,-144 352.1603,-144 352.1603,-180"/>
<text text-anchor="middle" x="315.9604" y="-159" font-family="Helvetica,sans-Serif" font-size="10.00" fill="#000000">osp_process</text>
</a>
</g>
</g>
<!-- dir_e541d5957584045964f1a22ce7cd4939 -->
<g id="node2" class="node">
<title>dir_e541d5957584045964f1a22ce7cd4939</title>
<g id="a_node2"><a xlink:href="dir_e541d5957584045964f1a22ce7cd4939.html" target="_top" xlink:title="beam_forming">
<polygon fill="none" stroke="#000000" points="79.8814,-108 .0395,-108 .0395,-72 79.8814,-72 79.8814,-108"/>
<text text-anchor="middle" x="39.9604" y="-87" font-family="Helvetica,sans-Serif" font-size="10.00" fill="#000000">beam_forming</text>
</a>
</g>
</g>
<!-- dir_ddf0760a248aa19a1d9cd0e63f058c79&#45;&gt;dir_e541d5957584045964f1a22ce7cd4939 -->
<g id="edge1" class="edge">
<title>dir_ddf0760a248aa19a1d9cd0e63f058c79&#45;&gt;dir_e541d5957584045964f1a22ce7cd4939</title>
<path fill="none" stroke="#000000" d="M279.4376,-154.7062C236.2266,-145.772 162.0103,-129.4722 89.6707,-108.0426"/>
<polygon fill="#000000" stroke="#000000" points="90.5252,-104.645 79.9413,-105.1254 88.5147,-111.3501 90.5252,-104.645"/>
<g id="a_edge1&#45;headlabel"><a xlink:href="dir_000006_000003.html" target="_top" xlink:title="1">
<text text-anchor="middle" x="94.7838" y="-99.9576" font-family="Helvetica,sans-Serif" font-size="10.00" fill="#000000">1</text>
</a>
</g>
</g>
<!-- dir_1192e444e0b425469744ddb44f5500ff -->
<g id="node3" class="node">
<title>dir_1192e444e0b425469744ddb44f5500ff</title>
<g id="a_node3"><a xlink:href="dir_1192e444e0b425469744ddb44f5500ff.html" target="_top" xlink:title="wdrc">
<polygon fill="none" stroke="#000000" points="151.9604,-108 97.9604,-108 97.9604,-72 151.9604,-72 151.9604,-108"/>
<text text-anchor="middle" x="124.9604" y="-87" font-family="Helvetica,sans-Serif" font-size="10.00" fill="#000000">wdrc</text>
</a>
</g>
</g>
<!-- dir_ddf0760a248aa19a1d9cd0e63f058c79&#45;&gt;dir_1192e444e0b425469744ddb44f5500ff -->
<g id="edge2" class="edge">
<title>dir_ddf0760a248aa19a1d9cd0e63f058c79&#45;&gt;dir_1192e444e0b425469744ddb44f5500ff</title>
<path fill="none" stroke="#000000" d="M279.6336,-149.7C249.093,-139.174 204.3928,-123.3335 165.9604,-108 164.5615,-107.4419 163.1395,-106.8651 161.7058,-106.2757"/>
<polygon fill="#000000" stroke="#000000" points="162.7725,-102.9271 152.1983,-102.2669 160.0528,-109.3772 162.7725,-102.9271"/>
<g id="a_edge2&#45;headlabel"><a xlink:href="dir_000006_000011.html" target="_top" xlink:title="3">
<text text-anchor="middle" x="167.1878" y="-98.7074" font-family="Helvetica,sans-Serif" font-size="10.00" fill="#000000">3</text>
</a>
</g>
</g>
<!-- dir_d2ff1931eae1d716ba66faf7712a9d40 -->
<g id="node4" class="node">
<title>dir_d2ff1931eae1d716ba66faf7712a9d40</title>
<g id="a_node4"><a xlink:href="dir_d2ff1931eae1d716ba66faf7712a9d40.html" target="_top" xlink:title="array_utilities">
<polygon fill="none" stroke="#000000" points="302.3716,-36 227.5493,-36 227.5493,0 302.3716,0 302.3716,-36"/>
<text text-anchor="middle" x="264.9604" y="-15" font-family="Helvetica,sans-Serif" font-size="10.00" fill="#000000">array_utilities</text>
</a>
</g>
</g>
<!-- dir_ddf0760a248aa19a1d9cd0e63f058c79&#45;&gt;dir_d2ff1931eae1d716ba66faf7712a9d40 -->
<g id="edge3" class="edge">
<title>dir_ddf0760a248aa19a1d9cd0e63f058c79&#45;&gt;dir_d2ff1931eae1d716ba66faf7712a9d40</title>
<path fill="none" stroke="#000000" d="M279.7499,-155.9654C252.3874,-149.3013 216.6243,-135.607 198.9604,-108 190.3372,-94.5226 192.1088,-86.4587 198.9604,-72 204.5133,-60.2821 213.9921,-50.2614 224.0606,-42.1482"/>
<polygon fill="#000000" stroke="#000000" points="226.2914,-44.8503 232.1979,-36.0546 222.0955,-39.2472 226.2914,-44.8503"/>
<g id="a_edge3&#45;headlabel"><a xlink:href="dir_000006_000002.html" target="_top" xlink:title="1">
<text text-anchor="middle" x="225.1161" y="-46.2776" font-family="Helvetica,sans-Serif" font-size="10.00" fill="#000000">1</text>
</a>
</g>
</g>
<!-- dir_7339c16d246cb01010ebb66c5ad22b88 -->
<g id="node5" class="node">
<title>dir_7339c16d246cb01010ebb66c5ad22b88</title>
<g id="a_node5"><a xlink:href="dir_7339c16d246cb01010ebb66c5ad22b88.html" target="_top" xlink:title="speech_enhancement">
<polygon fill="none" stroke="#000000" points="322.3694,-108 207.5515,-108 207.5515,-72 322.3694,-72 322.3694,-108"/>
<text text-anchor="middle" x="264.9604" y="-87" font-family="Helvetica,sans-Serif" font-size="10.00" fill="#000000">speech_enhancement</text>
</a>
</g>
</g>
<!-- dir_ddf0760a248aa19a1d9cd0e63f058c79&#45;&gt;dir_7339c16d246cb01010ebb66c5ad22b88 -->
<g id="edge4" class="edge">
<title>dir_ddf0760a248aa19a1d9cd0e63f058c79&#45;&gt;dir_7339c16d246cb01010ebb66c5ad22b88</title>
<path fill="none" stroke="#000000" d="M303.091,-143.8314C297.2769,-135.6232 290.2908,-125.7606 283.8958,-116.7323"/>
<polygon fill="#000000" stroke="#000000" points="286.6395,-114.5505 278.0032,-108.4133 280.9273,-118.5966 286.6395,-114.5505"/>
<g id="a_edge4&#45;headlabel"><a xlink:href="dir_000006_000010.html" target="_top" xlink:title="2">
<text text-anchor="middle" x="291.0341" y="-112.8426" font-family="Helvetica,sans-Serif" font-size="10.00" fill="#000000">2</text>
</a>
</g>
</g>
<!-- dir_c1518514b5e4fe9e783e310dfe1cfbfe -->
<g id="node6" class="node">
<title>dir_c1518514b5e4fe9e783e310dfe1cfbfe</title>
<g id="a_node6"><a xlink:href="dir_c1518514b5e4fe9e783e310dfe1cfbfe.html" target="_top" xlink:title="common">
<polygon fill="none" stroke="#000000" points="394.3063,-108 339.6146,-108 339.6146,-72 394.3063,-72 394.3063,-108"/>
<text text-anchor="middle" x="366.9604" y="-87" font-family="Helvetica,sans-Serif" font-size="10.00" fill="#000000">common</text>
</a>
</g>
</g>
<!-- dir_ddf0760a248aa19a1d9cd0e63f058c79&#45;&gt;dir_c1518514b5e4fe9e783e310dfe1cfbfe -->
<g id="edge5" class="edge">
<title>dir_ddf0760a248aa19a1d9cd0e63f058c79&#45;&gt;dir_c1518514b5e4fe9e783e310dfe1cfbfe</title>
<path fill="none" stroke="#000000" d="M328.8299,-143.8314C334.644,-135.6232 341.6301,-125.7606 348.0251,-116.7323"/>
<polygon fill="#000000" stroke="#000000" points="350.9936,-118.5966 353.9177,-108.4133 345.2814,-114.5505 350.9936,-118.5966"/>
<g id="a_edge5&#45;headlabel"><a xlink:href="dir_000006_000004.html" target="_top" xlink:title="3">
<text text-anchor="middle" x="351.2328" y="-120.171" font-family="Helvetica,sans-Serif" font-size="10.00" fill="#000000">3</text>
</a>
</g>
</g>
<!-- dir_d30d913637fbf7f792881e6c97312ebe -->
<g id="node7" class="node">
<title>dir_d30d913637fbf7f792881e6c97312ebe</title>
<g id="a_node7"><a xlink:href="dir_d30d913637fbf7f792881e6c97312ebe.html" target="_top" xlink:title="afc">
<polygon fill="none" stroke="#000000" points="465.9604,-108 411.9604,-108 411.9604,-72 465.9604,-72 465.9604,-108"/>
<text text-anchor="middle" x="438.9604" y="-87" font-family="Helvetica,sans-Serif" font-size="10.00" fill="#000000">afc</text>
</a>
</g>
</g>
<!-- dir_ddf0760a248aa19a1d9cd0e63f058c79&#45;&gt;dir_d30d913637fbf7f792881e6c97312ebe -->
<g id="edge6" class="edge">
<title>dir_ddf0760a248aa19a1d9cd0e63f058c79&#45;&gt;dir_d30d913637fbf7f792881e6c97312ebe</title>
<path fill="none" stroke="#000000" d="M346.9985,-143.8314C363.9675,-133.8983 385.0759,-121.5422 402.7881,-111.1741"/>
<polygon fill="#000000" stroke="#000000" points="404.8389,-114.0292 411.7009,-105.9568 401.3026,-107.9881 404.8389,-114.0292"/>
<g id="a_edge6&#45;headlabel"><a xlink:href="dir_000006_000001.html" target="_top" xlink:title="1">
<text text-anchor="middle" x="403.171" y="-115.2954" font-family="Helvetica,sans-Serif" font-size="10.00" fill="#000000">1</text>
</a>
</g>
</g>
<!-- dir_de7a9cb073e10e7815aee1406a0b0d94 -->
<g id="node8" class="node">
<title>dir_de7a9cb073e10e7815aee1406a0b0d94</title>
<g id="a_node8"><a xlink:href="dir_de7a9cb073e10e7815aee1406a0b0d94.html" target="_top" xlink:title="filter">
<polygon fill="none" stroke="#000000" points="492.9604,-36 438.9604,-36 438.9604,0 492.9604,0 492.9604,-36"/>
<text text-anchor="middle" x="465.9604" y="-15" font-family="Helvetica,sans-Serif" font-size="10.00" fill="#000000">filter</text>
</a>
</g>
</g>
<!-- dir_ddf0760a248aa19a1d9cd0e63f058c79&#45;&gt;dir_de7a9cb073e10e7815aee1406a0b0d94 -->
<g id="edge7" class="edge">
<title>dir_ddf0760a248aa19a1d9cd0e63f058c79&#45;&gt;dir_de7a9cb073e10e7815aee1406a0b0d94</title>
<path fill="none" stroke="#000000" d="M352.477,-154.7136C394.7631,-145.4478 460.4858,-128.2025 474.9604,-108 487.8108,-90.0645 483.8439,-64.705 477.6492,-45.4739"/>
<polygon fill="#000000" stroke="#000000" points="480.9425,-44.2887 474.284,-36.0477 474.35,-46.6424 480.9425,-44.2887"/>
<g id="a_edge7&#45;headlabel"><a xlink:href="dir_000006_000005.html" target="_top" xlink:title="1">
<text text-anchor="middle" x="484.825" y="-43.7195" font-family="Helvetica,sans-Serif" font-size="10.00" fill="#000000">1</text>
</a>
</g>
</g>
<!-- dir_e4d4d3e4b2729fb205722b1fca19ad82 -->
<g id="node9" class="node">
<title>dir_e4d4d3e4b2729fb205722b1fca19ad82</title>
<g id="a_node9"><a xlink:href="dir_e4d4d3e4b2729fb205722b1fca19ad82.html" target="_top" xlink:title="peak_detect">
<polygon fill="none" stroke="#000000" points="592.4495,-108 521.4714,-108 521.4714,-72 592.4495,-72 592.4495,-108"/>
<text text-anchor="middle" x="556.9604" y="-87" font-family="Helvetica,sans-Serif" font-size="10.00" fill="#000000">peak_detect</text>
</a>
</g>
</g>
<!-- dir_ddf0760a248aa19a1d9cd0e63f058c79&#45;&gt;dir_e4d4d3e4b2729fb205722b1fca19ad82 -->
<g id="edge8" class="edge">
<title>dir_ddf0760a248aa19a1d9cd0e63f058c79&#45;&gt;dir_e4d4d3e4b2729fb205722b1fca19ad82</title>
<path fill="none" stroke="#000000" d="M352.307,-152.6812C391.1072,-142.5233 454.2632,-125.3848 507.9604,-108 509.1972,-107.5996 510.4492,-107.1876 511.7108,-106.7664"/>
<polygon fill="#000000" stroke="#000000" points="513.1635,-109.968 521.4791,-103.4027 510.8844,-103.3494 513.1635,-109.968"/>
<g id="a_edge8&#45;headlabel"><a xlink:href="dir_000006_000008.html" target="_top" xlink:title="1">
<text text-anchor="middle" x="510.6892" y="-110.8228" font-family="Helvetica,sans-Serif" font-size="10.00" fill="#000000">1</text>
</a>
</g>
</g>
<!-- dir_7339c16d246cb01010ebb66c5ad22b88&#45;&gt;dir_d2ff1931eae1d716ba66faf7712a9d40 -->
<g id="edge9" class="edge">
<title>dir_7339c16d246cb01010ebb66c5ad22b88&#45;&gt;dir_d2ff1931eae1d716ba66faf7712a9d40</title>
<path fill="none" stroke="#000000" d="M264.9604,-71.8314C264.9604,-64.131 264.9604,-54.9743 264.9604,-46.4166"/>
<polygon fill="#000000" stroke="#000000" points="268.4605,-46.4132 264.9604,-36.4133 261.4605,-46.4133 268.4605,-46.4132"/>
<g id="a_edge9&#45;headlabel"><a xlink:href="dir_000010_000002.html" target="_top" xlink:title="2">
<text text-anchor="middle" x="271.2997" y="-47.0079" font-family="Helvetica,sans-Serif" font-size="10.00" fill="#000000">2</text>
</a>
</g>
</g>
<!-- dir_d30d913637fbf7f792881e6c97312ebe&#45;&gt;dir_d2ff1931eae1d716ba66faf7712a9d40 -->
<g id="edge10" class="edge">
<title>dir_d30d913637fbf7f792881e6c97312ebe&#45;&gt;dir_d2ff1931eae1d716ba66faf7712a9d40</title>
<path fill="none" stroke="#000000" d="M411.9592,-76.1706C408.9416,-74.7234 405.8976,-73.3057 402.9604,-72 373.1243,-58.7362 338.9541,-45.3517 312.0801,-35.2262"/>
<polygon fill="#000000" stroke="#000000" points="313.1232,-31.8795 302.5308,-31.6495 310.6678,-38.4348 313.1232,-31.8795"/>
<g id="a_edge10&#45;headlabel"><a xlink:href="dir_000001_000002.html" target="_top" xlink:title="1">
<text text-anchor="middle" x="317.4853" y="-27.4814" font-family="Helvetica,sans-Serif" font-size="10.00" fill="#000000">1</text>
</a>
</g>
</g>
<!-- dir_d30d913637fbf7f792881e6c97312ebe&#45;&gt;dir_de7a9cb073e10e7815aee1406a0b0d94 -->
<g id="edge11" class="edge">
<title>dir_d30d913637fbf7f792881e6c97312ebe&#45;&gt;dir_de7a9cb073e10e7815aee1406a0b0d94</title>
<path fill="none" stroke="#000000" d="M445.7737,-71.8314C448.7248,-63.9617 452.2463,-54.5712 455.5155,-45.8533"/>
<polygon fill="#000000" stroke="#000000" points="458.8213,-47.0055 459.0555,-36.4133 452.267,-44.5476 458.8213,-47.0055"/>
<g id="a_edge11&#45;headlabel"><a xlink:href="dir_000001_000005.html" target="_top" xlink:title="1">
<text text-anchor="middle" x="460.2177" y="-48.3682" font-family="Helvetica,sans-Serif" font-size="10.00" fill="#000000">1</text>
</a>
</g>
</g>
</g>
</svg>
        <g id="navigator" transform="translate(0 0)" fill="#404254">
                <rect fill="#f2f5e9" fill-opacity="0.5" stroke="#606060" stroke-width=".5" x="0" y="0" width="60" height="60"/>
                <use id="zoomplus" xlink:href="#zoomPlus" x="17" y="9" onmousedown="handleZoom(evt,'in')"/>
                <use id="zoomminus" xlink:href="#zoomMin" x="42" y="9" onmousedown="handleZoom(evt,'out')"/>
                <use id="reset" xlink:href="#resetDef" x="30" y="36" onmousedown="handleReset()"/>
                <g id="arrowUp" xlink:href="#dirArrow" transform="translate(30 24)" onmousedown="handlePan(0,-1)">
                  <use xlink:href="#rim" fill="#404040">
                        <set attributeName="fill" to="#808080" begin="arrowUp.mouseover" end="arrowUp.mouseout"/>
                  </use>
                  <path fill="none" stroke="white" stroke-width="1.5" d="M0,-3.0v7 M-2.5,-0.5L0,-3.0L2.5,-0.5"/>
                </g>
                <g id="arrowRight" xlink:href="#dirArrow" transform="rotate(90) translate(36 -43)" onmousedown="handlePan(1,0)">
                  <use xlink:href="#rim" fill="#404040">
                        <set attributeName="fill" to="#808080" begin="arrowRight.mouseover" end="arrowRight.mouseout"/>
                  </use>
                  <path fill="none" stroke="white" stroke-width="1.5" d="M0,-3.0v7 M-2.5,-0.5L0,-3.0L2.5,-0.5"/>
                </g>
                <g id="arrowDown" xlink:href="#dirArrow" transform="rotate(180) translate(-30 -48)" onmousedown="handlePan(0,1)">
                  <use xlink:href="#rim" fill="#404040">
                        <set attributeName="fill" to="#808080" begin="arrowDown.mouseover" end="arrowDown.mouseout"/>
                  </use>
                  <path fill="none" stroke="white" stroke-width="1.5" d="M0,-3.0v7 M-2.5,-0.5L0,-3.0L2.5,-0.5"/>
                </g>
                <g id="arrowLeft" xlink:href="#dirArrow" transform="rotate(270) translate(-36 17)" onmousedown="handlePan(-1,0)">
                  <use xlink:href="#rim" fill="#404040">
                        <set attributeName="fill" to="#808080" begin="arrowLeft.mouseover" end="arrowLeft.mouseout"/>
                  </use>
                  <path fill="none" stroke="white" stroke-width="1.5" d="M0,-3.0v7 M-2.5,-0.5L0,-3.0L2.5,-0.5"/>
                </g>
        </g>
        <svg viewBox="0 0 15 15" width="100%" height="30px" preserveAspectRatio="xMaxYMin meet">
         <g id="arrow_out" transform="scale(0.3 0.3)">
          <a xlink:href="dir_ddf0760a248aa19a1d9cd0e63f058c79_dep_org.svg" target="_base">
           <rect id="button" ry="5" rx="5" y="6" x="6" height="38" width="38"
                fill="#f2f5e9" fill-opacity="0.5" stroke="#606060" stroke-width="1.0"/>
           <path id="arrow"
             d="M 11.500037,31.436501 C 11.940474,20.09759 22.043105,11.32322 32.158766,21.979434 L 37.068811,17.246167 C 37.068811,17.246167 37.088388,32 37.088388,32 L 22.160133,31.978069 C 22.160133,31.978069 26.997745,27.140456 26.997745,27.140456 C 18.528582,18.264221 13.291696,25.230495 11.500037,31.436501 z"
             style="fill:#404040;"/>
          </a>
         </g>
        </svg>
</svg>
