<?xml version="1.0" encoding="UTF-8" standalone="no"?>
<!DOCTYPE svg PUBLIC "-//W3C//DTD SVG 1.1//EN"
 "http://www.w3.org/Graphics/SVG/1.1/DTD/svg11.dtd">
<!-- Generated by graphviz version 2.40.1 (20161225.0304)
 -->
<!-- Title: libosp/speech_enhancement Pages: 1 -->
<svg width="154pt" height="150pt"
 viewBox="0.00 0.00 154.00 150.00" xmlns="http://www.w3.org/2000/svg" xmlns:xlink="http://www.w3.org/1999/xlink">
<g id="graph0" class="graph" transform="scale(1 1) rotate(0) translate(4 146)">
<title>libosp/speech_enhancement</title>
<polygon fill="#ffffff" stroke="transparent" points="-4,4 -4,-146 150,-146 150,4 -4,4"/>
<g id="clust1" class="cluster">
<title>clusterdir_344a92ffc85f32daed969785c1237399</title>
<g id="a_clust1"><a xlink:href="dir_344a92ffc85f32daed969785c1237399.html" target="_top" xlink:title="libosp">
<polygon fill="#ddddee" stroke="#000000" points="8,-64 8,-134 138,-134 138,-64 8,-64"/>
<text text-anchor="middle" x="73" y="-122" font-family="Helvetica,sans-Serif" font-size="10.00" fill="#000000">libosp</text>
</a>
</g>
</g>
<!-- dir_7339c16d246cb01010ebb66c5ad22b88 -->
<g id="node1" class="node">
<title>dir_7339c16d246cb01010ebb66c5ad22b88</title>
<g id="a_node1"><a xlink:href="dir_7339c16d246cb01010ebb66c5ad22b88.html" target="_top" xlink:title="speech_enhancement">
<polygon fill="#eeeeff" stroke="#000000" points="130.4089,-108 15.5911,-108 15.5911,-72 130.4089,-72 130.4089,-108"/>
<text text-anchor="middle" x="73" y="-87" font-family="Helvetica,sans-Serif" font-size="10.00" fill="#000000">speech_enhancement</text>
</a>
</g>
</g>
<!-- dir_d2ff1931eae1d716ba66faf7712a9d40 -->
<g id="node2" class="node">
<title>dir_d2ff1931eae1d716ba66faf7712a9d40</title>
<g id="a_node2"><a xlink:href="dir_d2ff1931eae1d716ba66faf7712a9d40.html" target="_top" xlink:title="array_utilities">
<polygon fill="none" stroke="#000000" points="110.4112,-36 35.5888,-36 35.5888,0 110.4112,0 110.4112,-36"/>
<text text-anchor="middle" x="73" y="-15" font-family="Helvetica,sans-Serif" font-size="10.00" fill="#000000">array_utilities</text>
</a>
</g>
</g>
<!-- dir_7339c16d246cb01010ebb66c5ad22b88&#45;&gt;dir_d2ff1931eae1d716ba66faf7712a9d40 -->
<g id="edge1" class="edge">
<title>dir_7339c16d246cb01010ebb66c5ad22b88&#45;&gt;dir_d2ff1931eae1d716ba66faf7712a9d40</title>
<path fill="none" stroke="#000000" d="M73,-71.8314C73,-64.131 73,-54.9743 73,-46.4166"/>
<polygon fill="#000000" stroke="#000000" points="76.5001,-46.4132 73,-36.4133 69.5001,-46.4133 76.5001,-46.4132"/>
<g id="a_edge1&#45;headlabel"><a xlink:href="dir_000011_000002.html" target="_top" xlink:title="2">
<text text-anchor="middle" x="79.3393" y="-47.0079" font-family="Helvetica,sans-Serif" font-size="10.00" fill="#000000">2</text>
</a>
</g>
</g>
</g>
</svg>
