<?xml version="1.0" encoding="UTF-8" standalone="no"?>
<!DOCTYPE svg PUBLIC "-//W3C//DTD SVG 1.1//EN"
 "http://www.w3.org/Graphics/SVG/1.1/DTD/svg11.dtd">
<!-- Generated by graphviz version 2.40.1 (20161225.0304)
 -->
<!-- Title: osp/scripts/extract_bin.c Pages: 1 -->
<svg width="246pt" height="92pt"
 viewBox="0.00 0.00 246.35 92.00" xmlns="http://www.w3.org/2000/svg" xmlns:xlink="http://www.w3.org/1999/xlink">
<g id="graph0" class="graph" transform="scale(1 1) rotate(0) translate(4 88)">
<title>osp/scripts/extract_bin.c</title>
<polygon fill="#ffffff" stroke="transparent" points="-4,4 -4,-88 242.3472,-88 242.3472,4 -4,4"/>
<!-- Node0 -->
<g id="node1" class="node">
<title>Node0</title>
<polygon fill="#bfbfbf" stroke="#000000" points="72.4409,-55.5 72.4409,-83.5 169.022,-83.5 169.022,-55.5 72.4409,-55.5"/>
<text text-anchor="start" x="80.4409" y="-71.5" font-family="Helvetica,sans-Serif" font-size="10.00" fill="#000000">osp/scripts/extract</text>
<text text-anchor="middle" x="120.7314" y="-61.5" font-family="Helvetica,sans-Serif" font-size="10.00" fill="#000000">_bin.c</text>
</g>
<!-- Node1 -->
<g id="node2" class="node">
<title>Node1</title>
<polygon fill="#ffffff" stroke="#bfbfbf" points="0,-.5 0,-18.5 45.4629,-18.5 45.4629,-.5 0,-.5"/>
<text text-anchor="middle" x="22.7314" y="-6.5" font-family="Helvetica,sans-Serif" font-size="10.00" fill="#000000">stdio.h</text>
</g>
<!-- Node0&#45;&gt;Node1 -->
<g id="edge1" class="edge">
<title>Node0&#45;&gt;Node1</title>
<path fill="none" stroke="#191970" d="M97.5068,-55.2808C82.1325,-45.868 62.0254,-33.5575 46.5343,-24.0732"/>
<polygon fill="#191970" stroke="#191970" points="47.925,-20.8208 37.569,-18.5842 44.2699,-26.7908 47.925,-20.8208"/>
</g>
<!-- Node2 -->
<g id="node3" class="node">
<title>Node2</title>
<polygon fill="#ffffff" stroke="#bfbfbf" points="63.335,-.5 63.335,-18.5 112.1279,-18.5 112.1279,-.5 63.335,-.5"/>
<text text-anchor="middle" x="87.7314" y="-6.5" font-family="Helvetica,sans-Serif" font-size="10.00" fill="#000000">string.h</text>
</g>
<!-- Node0&#45;&gt;Node2 -->
<g id="edge2" class="edge">
<title>Node0&#45;&gt;Node2</title>
<path fill="none" stroke="#191970" d="M112.9109,-55.2808C108.3199,-46.9336 102.4757,-36.3076 97.5735,-27.3946"/>
<polygon fill="#191970" stroke="#191970" points="100.6137,-25.6596 92.7277,-18.5842 94.4802,-29.0331 100.6137,-25.6596"/>
</g>
<!-- Node3 -->
<g id="node4" class="node">
<title>Node3</title>
<polygon fill="#ffffff" stroke="#bfbfbf" points="129.8892,-.5 129.8892,-18.5 177.5737,-18.5 177.5737,-.5 129.8892,-.5"/>
<text text-anchor="middle" x="153.7314" y="-6.5" font-family="Helvetica,sans-Serif" font-size="10.00" fill="#000000">stdlib.h</text>
</g>
<!-- Node0&#45;&gt;Node3 -->
<g id="edge3" class="edge">
<title>Node0&#45;&gt;Node3</title>
<path fill="none" stroke="#191970" d="M128.552,-55.2808C133.143,-46.9336 138.9872,-36.3076 143.8894,-27.3946"/>
<polygon fill="#191970" stroke="#191970" points="146.9827,-29.0331 148.7351,-18.5842 140.8491,-25.6596 146.9827,-29.0331"/>
</g>
<!-- Node4 -->
<g id="node5" class="node">
<title>Node4</title>
<polygon fill="#ffffff" stroke="#bfbfbf" points="195.1157,-.5 195.1157,-18.5 238.3472,-18.5 238.3472,-.5 195.1157,-.5"/>
<text text-anchor="middle" x="216.7314" y="-6.5" font-family="Helvetica,sans-Serif" font-size="10.00" fill="#000000">time.h</text>
</g>
<!-- Node0&#45;&gt;Node4 -->
<g id="edge4" class="edge">
<title>Node0&#45;&gt;Node4</title>
<path fill="none" stroke="#191970" d="M143.4821,-55.2808C158.5427,-45.868 178.2394,-33.5575 193.4144,-24.0732"/>
<polygon fill="#191970" stroke="#191970" points="195.5718,-26.8522 202.1967,-18.5842 191.8617,-20.9162 195.5718,-26.8522"/>
</g>
</g>
</svg>
