<?xml version="1.0" encoding="UTF-8" standalone="no"?>
<!DOCTYPE svg PUBLIC "-//W3C//DTD SVG 1.1//EN"
 "http://www.w3.org/Graphics/SVG/1.1/DTD/svg11.dtd">
<!-- Generated by graphviz version 2.40.1 (20161225.0304)
 -->
<!-- Title: libosp/filter/filter.c Pages: 1 -->
<svg width="381pt" height="82pt"
 viewBox="0.00 0.00 381.07 82.00" xmlns="http://www.w3.org/2000/svg" xmlns:xlink="http://www.w3.org/1999/xlink">
<g id="graph0" class="graph" transform="scale(1 1) rotate(0) translate(4 78)">
<title>libosp/filter/filter.c</title>
<polygon fill="#ffffff" stroke="transparent" points="-4,4 -4,-78 377.0737,-78 377.0737,4 -4,4"/>
<!-- Node0 -->
<g id="node1" class="node">
<title>Node0</title>
<polygon fill="#bfbfbf" stroke="#000000" points="141.3818,-55.5 141.3818,-73.5 234.0811,-73.5 234.0811,-55.5 141.3818,-55.5"/>
<text text-anchor="middle" x="187.7314" y="-61.5" font-family="Helvetica,sans-Serif" font-size="10.00" fill="#000000">libosp/filter/filter.c</text>
</g>
<!-- Node1 -->
<g id="node2" class="node">
<title>Node1</title>
<polygon fill="#ffffff" stroke="#bfbfbf" points="0,-.5 0,-18.5 45.4629,-18.5 45.4629,-.5 0,-.5"/>
<text text-anchor="middle" x="22.7314" y="-6.5" font-family="Helvetica,sans-Serif" font-size="10.00" fill="#000000">stdio.h</text>
</g>
<!-- Node0&#45;&gt;Node1 -->
<g id="edge1" class="edge">
<title>Node0&#45;&gt;Node1</title>
<path fill="none" stroke="#191970" d="M160.4851,-55.4179C131.6201,-45.7962 86.0542,-30.6076 55.3104,-20.3597"/>
<polygon fill="#191970" stroke="#191970" points="56.0917,-16.9308 45.4981,-17.0889 53.8781,-23.5716 56.0917,-16.9308"/>
</g>
<!-- Node2 -->
<g id="node3" class="node">
<title>Node2</title>
<polygon fill="#ffffff" stroke="#bfbfbf" points="63.8892,-.5 63.8892,-18.5 111.5737,-18.5 111.5737,-.5 63.8892,-.5"/>
<text text-anchor="middle" x="87.7314" y="-6.5" font-family="Helvetica,sans-Serif" font-size="10.00" fill="#000000">stdlib.h</text>
</g>
<!-- Node0&#45;&gt;Node2 -->
<g id="edge2" class="edge">
<title>Node0&#45;&gt;Node2</title>
<path fill="none" stroke="#191970" d="M171.2185,-55.4179C155.4404,-46.7399 131.4286,-33.5334 113.2,-23.5077"/>
<polygon fill="#191970" stroke="#191970" points="114.7178,-20.3481 104.2689,-18.5956 111.3444,-26.4816 114.7178,-20.3481"/>
</g>
<!-- Node3 -->
<g id="node4" class="node">
<title>Node3</title>
<polygon fill="#ffffff" stroke="#bfbfbf" points="129.335,-.5 129.335,-18.5 178.1279,-18.5 178.1279,-.5 129.335,-.5"/>
<text text-anchor="middle" x="153.7314" y="-6.5" font-family="Helvetica,sans-Serif" font-size="10.00" fill="#000000">string.h</text>
</g>
<!-- Node0&#45;&gt;Node3 -->
<g id="edge3" class="edge">
<title>Node0&#45;&gt;Node3</title>
<path fill="none" stroke="#191970" d="M182.117,-55.4179C177.4206,-47.8207 170.5786,-36.7527 164.7886,-27.3866"/>
<polygon fill="#191970" stroke="#191970" points="167.7032,-25.445 159.4678,-18.7795 161.749,-29.1258 167.7032,-25.445"/>
</g>
<!-- Node4 -->
<g id="node5" class="node">
<title>Node4</title>
<polygon fill="#ffffff" stroke="#bfbfbf" points="195.9458,-.5 195.9458,-18.5 247.5171,-18.5 247.5171,-.5 195.9458,-.5"/>
<text text-anchor="middle" x="221.7314" y="-6.5" font-family="Helvetica,sans-Serif" font-size="10.00" fill="#000000">assert.h</text>
</g>
<!-- Node0&#45;&gt;Node4 -->
<g id="edge4" class="edge">
<title>Node0&#45;&gt;Node4</title>
<path fill="none" stroke="#191970" d="M193.3459,-55.4179C198.0423,-47.8207 204.8843,-36.7527 210.6743,-27.3866"/>
<polygon fill="#191970" stroke="#191970" points="213.7139,-29.1258 215.9951,-18.7795 207.7597,-25.445 213.7139,-29.1258"/>
</g>
<!-- Node5 -->
<g id="node6" class="node">
<title>Node5</title>
<polygon fill="#ffffff" stroke="#bfbfbf" points="265.4458,-.5 265.4458,-18.5 312.0171,-18.5 312.0171,-.5 265.4458,-.5"/>
<text text-anchor="middle" x="288.7314" y="-6.5" font-family="Helvetica,sans-Serif" font-size="10.00" fill="#000000">math.h</text>
</g>
<!-- Node0&#45;&gt;Node5 -->
<g id="edge5" class="edge">
<title>Node0&#45;&gt;Node5</title>
<path fill="none" stroke="#191970" d="M204.4095,-55.4179C220.3454,-46.7399 244.5973,-33.5334 263.0082,-23.5077"/>
<polygon fill="#191970" stroke="#191970" points="264.9202,-26.4519 272.0286,-18.5956 261.5724,-20.3043 264.9202,-26.4519"/>
</g>
<!-- Node6 -->
<g id="node7" class="node">
<title>Node6</title>
<g id="a_node7"><a xlink:href="filter_8h.html" target="_top" xlink:title="filter.h">
<polygon fill="#ffffff" stroke="#000000" points="330.3892,-.5 330.3892,-18.5 373.0737,-18.5 373.0737,-.5 330.3892,-.5"/>
<text text-anchor="middle" x="351.7314" y="-6.5" font-family="Helvetica,sans-Serif" font-size="10.00" fill="#000000">filter.h</text>
</a>
</g>
</g>
<!-- Node0&#45;&gt;Node6 -->
<g id="edge6" class="edge">
<title>Node0&#45;&gt;Node6</title>
<path fill="none" stroke="#191970" d="M214.8127,-55.4179C243.9114,-45.6592 290.0861,-30.1737 320.6467,-19.9248"/>
<polygon fill="#191970" stroke="#191970" points="321.9968,-23.1636 330.3649,-16.6656 319.771,-16.5269 321.9968,-23.1636"/>
</g>
</g>
</svg>
