<?xml version="1.0" encoding="UTF-8" standalone="no"?>
<!DOCTYPE svg PUBLIC "-//W3C//DTD SVG 1.1//EN"
 "http://www.w3.org/Graphics/SVG/1.1/DTD/svg11.dtd">
<!-- Generated by graphviz version 2.40.1 (20161225.0304)
 -->
<!-- Title: libosp/filter/filter.h Pages: 1 -->
<svg width="476pt" height="92pt"
 viewBox="0.00 0.00 475.93 92.00" xmlns="http://www.w3.org/2000/svg" xmlns:xlink="http://www.w3.org/1999/xlink">
<g id="graph0" class="graph" transform="scale(1 1) rotate(0) translate(4 88)">
<title>libosp/filter/filter.h</title>
<polygon fill="#ffffff" stroke="transparent" points="-4,4 -4,-88 471.9307,-88 471.9307,4 -4,4"/>
<!-- Node1 -->
<g id="node1" class="node">
<title>Node1</title>
<polygon fill="#bfbfbf" stroke="#000000" points="156.4409,-65.5 156.4409,-83.5 249.7017,-83.5 249.7017,-65.5 156.4409,-65.5"/>
<text text-anchor="middle" x="203.0713" y="-71.5" font-family="Helvetica,sans-Serif" font-size="10.00" fill="#000000">libosp/filter/filter.h</text>
</g>
<!-- Node2 -->
<g id="node2" class="node">
<title>Node2</title>
<g id="a_node2"><a xlink:href="afc_8c.html" target="_top" xlink:title="libosp/afc/afc.c">
<polygon fill="#ffffff" stroke="#000000" points="0,-5.5 0,-23.5 82.1426,-23.5 82.1426,-5.5 0,-5.5"/>
<text text-anchor="middle" x="41.0713" y="-11.5" font-family="Helvetica,sans-Serif" font-size="10.00" fill="#000000">libosp/afc/afc.c</text>
</a>
</g>
</g>
<!-- Node1&#45;&gt;Node2 -->
<g id="edge1" class="edge">
<title>Node1&#45;&gt;Node2</title>
<path fill="none" stroke="#191970" d="M168.9236,-61.8527C137.8941,-50.3603 92.8851,-33.6903 65.3763,-23.5019"/>
<polygon fill="#191970" stroke="#191970" points="167.8739,-65.1962 178.467,-65.3873 170.3051,-58.632 167.8739,-65.1962"/>
</g>
<!-- Node3 -->
<g id="node3" class="node">
<title>Node3</title>
<g id="a_node3"><a xlink:href="filter_8c.html" target="_top" xlink:title="libosp/filter/filter.c">
<polygon fill="#ffffff" stroke="#000000" points="99.7217,-5.5 99.7217,-23.5 192.4209,-23.5 192.4209,-5.5 99.7217,-5.5"/>
<text text-anchor="middle" x="146.0713" y="-11.5" font-family="Helvetica,sans-Serif" font-size="10.00" fill="#000000">libosp/filter/filter.c</text>
</a>
</g>
</g>
<!-- Node1&#45;&gt;Node3 -->
<g id="edge2" class="edge">
<title>Node1&#45;&gt;Node3</title>
<path fill="none" stroke="#191970" d="M187.3973,-58.0011C176.8967,-46.9478 163.461,-32.8049 154.8098,-23.6985"/>
<polygon fill="#191970" stroke="#191970" points="184.9892,-60.5479 194.4142,-65.3873 190.0642,-55.7266 184.9892,-60.5479"/>
</g>
<!-- Node4 -->
<g id="node4" class="node">
<title>Node4</title>
<g id="a_node4"><a xlink:href="osp__process_8c.html" target="_top" xlink:title="libosp/osp_process\l/osp_process.c">
<polygon fill="#ffffff" stroke="#000000" points="210.2686,-.5 210.2686,-28.5 311.874,-28.5 311.874,-.5 210.2686,-.5"/>
<text text-anchor="start" x="218.2686" y="-16.5" font-family="Helvetica,sans-Serif" font-size="10.00" fill="#000000">libosp/osp_process</text>
<text text-anchor="middle" x="261.0713" y="-6.5" font-family="Helvetica,sans-Serif" font-size="10.00" fill="#000000">/osp_process.c</text>
</a>
</g>
</g>
<!-- Node1&#45;&gt;Node4 -->
<g id="edge3" class="edge">
<title>Node1&#45;&gt;Node4</title>
<path fill="none" stroke="#191970" d="M219.0058,-58.016C227.8404,-48.8768 238.7204,-37.6216 247.2019,-28.8477"/>
<polygon fill="#191970" stroke="#191970" points="216.314,-55.7648 211.8802,-65.3873 221.347,-60.63 216.314,-55.7648"/>
</g>
<!-- Node5 -->
<g id="node5" class="node">
<title>Node5</title>
<g id="a_node5"><a xlink:href="resample_8c.html" target="_top" xlink:title="libosp/resample/resample.c">
<polygon fill="#ffffff" stroke="#000000" points="330.2119,-5.5 330.2119,-23.5 467.9307,-23.5 467.9307,-5.5 330.2119,-5.5"/>
<text text-anchor="middle" x="399.0713" y="-11.5" font-family="Helvetica,sans-Serif" font-size="10.00" fill="#000000">libosp/resample/resample.c</text>
</a>
</g>
</g>
<!-- Node1&#45;&gt;Node5 -->
<g id="edge4" class="edge">
<title>Node1&#45;&gt;Node5</title>
<path fill="none" stroke="#191970" d="M242.451,-62.445C280.0354,-50.9395 335.8067,-33.8667 369.6652,-23.5019"/>
<polygon fill="#191970" stroke="#191970" points="241.3769,-59.1134 232.8395,-65.3873 243.426,-65.8068 241.3769,-59.1134"/>
</g>
</g>
</svg>
