<?xml version="1.0" encoding="UTF-8" standalone="no"?>
<!DOCTYPE svg PUBLIC "-//W3C//DTD SVG 1.1//EN"
 "http://www.w3.org/Graphics/SVG/1.1/DTD/svg11.dtd">
<!-- Generated by graphviz version 2.40.1 (20161225.0304)
 -->
<!-- Title: libosp/osp_tcp/json_parser/jsmn.c Pages: 1 -->
<svg width="109pt" height="147pt"
 viewBox="0.00 0.00 109.05 147.00" xmlns="http://www.w3.org/2000/svg" xmlns:xlink="http://www.w3.org/1999/xlink">
<g id="graph0" class="graph" transform="scale(1 1) rotate(0) translate(4 143)">
<title>libosp/osp_tcp/json_parser/jsmn.c</title>
<polygon fill="#ffffff" stroke="transparent" points="-4,4 -4,-143 105.0537,-143 105.0537,4 -4,4"/>
<!-- Node0 -->
<g id="node1" class="node">
<title>Node0</title>
<polygon fill="#bfbfbf" stroke="#000000" points="0,-110.5 0,-138.5 101.0537,-138.5 101.0537,-110.5 0,-110.5"/>
<text text-anchor="start" x="8" y="-126.5" font-family="Helvetica,sans-Serif" font-size="10.00" fill="#000000">libosp/osp_tcp/json</text>
<text text-anchor="middle" x="50.5269" y="-116.5" font-family="Helvetica,sans-Serif" font-size="10.00" fill="#000000">_parser/jsmn.c</text>
</g>
<!-- Node1 -->
<g id="node2" class="node">
<title>Node1</title>
<g id="a_node2"><a xlink:href="jsmn_8h.html" target="_top" xlink:title="jsmn.h">
<polygon fill="#ffffff" stroke="#000000" points="27.8003,-55.5 27.8003,-73.5 73.2534,-73.5 73.2534,-55.5 27.8003,-55.5"/>
<text text-anchor="middle" x="50.5269" y="-61.5" font-family="Helvetica,sans-Serif" font-size="10.00" fill="#000000">jsmn.h</text>
</a>
</g>
</g>
<!-- Node0&#45;&gt;Node1 -->
<g id="edge1" class="edge">
<title>Node0&#45;&gt;Node1</title>
<path fill="none" stroke="#191970" d="M50.5269,-110.2808C50.5269,-102.3776 50.5269,-92.4316 50.5269,-83.8308"/>
<polygon fill="#191970" stroke="#191970" points="54.027,-83.5842 50.5269,-73.5842 47.027,-83.5842 54.027,-83.5842"/>
</g>
<!-- Node2 -->
<g id="node3" class="node">
<title>Node2</title>
<polygon fill="#ffffff" stroke="#bfbfbf" points="24.7363,-.5 24.7363,-18.5 76.3174,-18.5 76.3174,-.5 24.7363,-.5"/>
<text text-anchor="middle" x="50.5269" y="-6.5" font-family="Helvetica,sans-Serif" font-size="10.00" fill="#000000">stddef.h</text>
</g>
<!-- Node1&#45;&gt;Node2 -->
<g id="edge2" class="edge">
<title>Node1&#45;&gt;Node2</title>
<path fill="none" stroke="#191970" d="M50.5269,-55.4179C50.5269,-48.2164 50.5269,-37.8962 50.5269,-28.8632"/>
<polygon fill="#191970" stroke="#191970" points="54.027,-28.7794 50.5269,-18.7795 47.027,-28.7795 54.027,-28.7794"/>
</g>
</g>
</svg>
