<?xml version="1.0" encoding="UTF-8" standalone="no"?>
<!DOCTYPE svg PUBLIC "-//W3C//DTD SVG 1.1//EN"
 "http://www.w3.org/Graphics/SVG/1.1/DTD/svg11.dtd">
<!-- Generated by graphviz version 2.40.1 (20161225.0304)
 -->
<!-- Title: libosp/osp_tcp/json_parser/jsmn.h Pages: 1 -->
<svg width="278pt" height="167pt"
 viewBox="0.00 0.00 278.13 167.00" xmlns="http://www.w3.org/2000/svg" xmlns:xlink="http://www.w3.org/1999/xlink">
<g id="graph0" class="graph" transform="scale(1 1) rotate(0) translate(4 163)">
<title>libosp/osp_tcp/json_parser/jsmn.h</title>
<polygon fill="#ffffff" stroke="transparent" points="-4,4 -4,-163 274.1259,-163 274.1259,4 -4,4"/>
<!-- Node2 -->
<g id="node1" class="node">
<title>Node2</title>
<polygon fill="#bfbfbf" stroke="#000000" points="73.183,-130.5 73.183,-158.5 174.2368,-158.5 174.2368,-130.5 73.183,-130.5"/>
<text text-anchor="start" x="81.183" y="-146.5" font-family="Helvetica,sans-Serif" font-size="10.00" fill="#000000">libosp/osp_tcp/json</text>
<text text-anchor="middle" x="123.7099" y="-136.5" font-family="Helvetica,sans-Serif" font-size="10.00" fill="#000000">_parser/jsmn.h</text>
</g>
<!-- Node3 -->
<g id="node2" class="node">
<title>Node3</title>
<g id="a_node2"><a xlink:href="main_8c.html" target="_top" xlink:title="osp/main.c">
<polygon fill="#ffffff" stroke="#000000" points="40.5327,-5.5 40.5327,-23.5 104.8871,-23.5 104.8871,-5.5 40.5327,-5.5"/>
<text text-anchor="middle" x="72.7099" y="-11.5" font-family="Helvetica,sans-Serif" font-size="10.00" fill="#000000">osp/main.c</text>
</a>
</g>
</g>
<!-- Node2&#45;&gt;Node3 -->
<g id="edge1" class="edge">
<title>Node2&#45;&gt;Node3</title>
<path fill="none" stroke="#191970" d="M63.2598,-133.4719C40.9908,-126.1646 17.983,-114.0515 4.7099,-94 -13.5358,-66.4364 28.531,-37.8829 54.3754,-23.6786"/>
<polygon fill="#191970" stroke="#191970" points="62.4796,-136.8918 73.0635,-136.4104 64.4894,-130.1866 62.4796,-136.8918"/>
</g>
<!-- Node4 -->
<g id="node3" class="node">
<title>Node4</title>
<g id="a_node3"><a xlink:href="jsmn_8c.html" target="_top" xlink:title="libosp/osp_tcp/json\l_parser/jsmn.c">
<polygon fill="#ffffff" stroke="#000000" points="14.183,-65.5 14.183,-93.5 115.2368,-93.5 115.2368,-65.5 14.183,-65.5"/>
<text text-anchor="start" x="22.183" y="-81.5" font-family="Helvetica,sans-Serif" font-size="10.00" fill="#000000">libosp/osp_tcp/json</text>
<text text-anchor="middle" x="64.7099" y="-71.5" font-family="Helvetica,sans-Serif" font-size="10.00" fill="#000000">_parser/jsmn.c</text>
</a>
</g>
</g>
<!-- Node2&#45;&gt;Node4 -->
<g id="edge2" class="edge">
<title>Node2&#45;&gt;Node4</title>
<path fill="none" stroke="#191970" d="M103.955,-122.7362C95.2256,-113.119 85.2136,-102.0888 77.487,-93.5765"/>
<polygon fill="#191970" stroke="#191970" points="101.5951,-125.3438 110.9078,-130.396 106.7783,-120.639 101.5951,-125.3438"/>
</g>
<!-- Node5 -->
<g id="node4" class="node">
<title>Node5</title>
<g id="a_node4"><a xlink:href="osp__tcp_8h.html" target="_top" xlink:title="libosp/osp_tcp/osp\l_tcp.h">
<polygon fill="#ffffff" stroke="#000000" points="133.2939,-65.5 133.2939,-93.5 232.1259,-93.5 232.1259,-65.5 133.2939,-65.5"/>
<text text-anchor="start" x="141.2939" y="-81.5" font-family="Helvetica,sans-Serif" font-size="10.00" fill="#000000">libosp/osp_tcp/osp</text>
<text text-anchor="middle" x="182.7099" y="-71.5" font-family="Helvetica,sans-Serif" font-size="10.00" fill="#000000">_tcp.h</text>
</a>
</g>
</g>
<!-- Node2&#45;&gt;Node5 -->
<g id="edge3" class="edge">
<title>Node2&#45;&gt;Node5</title>
<path fill="none" stroke="#191970" d="M143.4648,-122.7362C152.1942,-113.119 162.2062,-102.0888 169.9328,-93.5765"/>
<polygon fill="#191970" stroke="#191970" points="140.6415,-120.639 136.512,-130.396 145.8247,-125.3438 140.6415,-120.639"/>
</g>
<!-- Node6 -->
<g id="node5" class="node">
<title>Node6</title>
<g id="a_node5"><a xlink:href="osp__tcp_8c.html" target="_top" xlink:title="libosp/osp_tcp/osp\l_tcp.c">
<polygon fill="#ffffff" stroke="#000000" points="171.2939,-.5 171.2939,-28.5 270.1259,-28.5 270.1259,-.5 171.2939,-.5"/>
<text text-anchor="start" x="179.2939" y="-16.5" font-family="Helvetica,sans-Serif" font-size="10.00" fill="#000000">libosp/osp_tcp/osp</text>
<text text-anchor="middle" x="220.7099" y="-6.5" font-family="Helvetica,sans-Serif" font-size="10.00" fill="#000000">_tcp.c</text>
</a>
</g>
</g>
<!-- Node2&#45;&gt;Node6 -->
<g id="edge6" class="edge">
<title>Node2&#45;&gt;Node6</title>
<path fill="none" stroke="#191970" d="M184.2635,-132.853C205.8188,-125.4759 227.9028,-113.477 240.7099,-94 254.0028,-73.7842 240.8215,-45.3597 230.4651,-28.5434"/>
<polygon fill="#191970" stroke="#191970" points="182.9317,-129.6023 174.4322,-135.9275 185.0211,-136.2832 182.9317,-129.6023"/>
</g>
<!-- Node5&#45;&gt;Node3 -->
<g id="edge4" class="edge">
<title>Node5&#45;&gt;Node3</title>
<path fill="none" stroke="#191970" d="M150.1095,-60.2361C129.5919,-48.1121 104.0584,-33.0241 88.0664,-23.5743"/>
<polygon fill="#191970" stroke="#191970" points="148.4517,-63.3219 158.8415,-65.396 152.0128,-57.2954 148.4517,-63.3219"/>
</g>
<!-- Node5&#45;&gt;Node6 -->
<g id="edge5" class="edge">
<title>Node5&#45;&gt;Node6</title>
<path fill="none" stroke="#191970" d="M196.1119,-56.5756C201.5692,-47.2406 207.7032,-36.7483 212.4806,-28.5765"/>
<polygon fill="#191970" stroke="#191970" points="192.9808,-54.9965 190.9553,-65.396 199.0239,-58.5294 192.9808,-54.9965"/>
</g>
</g>
</svg>
