<?xml version="1.0" encoding="UTF-8" standalone="no"?>
<!DOCTYPE svg PUBLIC "-//W3C//DTD SVG 1.1//EN"
 "http://www.w3.org/Graphics/SVG/1.1/DTD/svg11.dtd">
<!-- Generated by graphviz version 2.40.1 (20161225.0304)
 -->
<!-- Title: libosp/osp_process/logger.h Pages: 1 -->
<svg width="120pt" height="92pt"
 viewBox="0.00 0.00 119.57 92.00" xmlns="http://www.w3.org/2000/svg" xmlns:xlink="http://www.w3.org/1999/xlink">
<g id="graph0" class="graph" transform="scale(1 1) rotate(0) translate(4 88)">
<title>libosp/osp_process/logger.h</title>
<polygon fill="#ffffff" stroke="transparent" points="-4,4 -4,-88 115.5737,-88 115.5737,4 -4,4"/>
<!-- Node0 -->
<g id="node1" class="node">
<title>Node0</title>
<polygon fill="#bfbfbf" stroke="#000000" points="3.9287,-55.5 3.9287,-83.5 105.5342,-83.5 105.5342,-55.5 3.9287,-55.5"/>
<text text-anchor="start" x="11.9287" y="-71.5" font-family="Helvetica,sans-Serif" font-size="10.00" fill="#000000">libosp/osp_process</text>
<text text-anchor="middle" x="54.7314" y="-61.5" font-family="Helvetica,sans-Serif" font-size="10.00" fill="#000000">/logger.h</text>
</g>
<!-- Node1 -->
<g id="node2" class="node">
<title>Node1</title>
<polygon fill="#ffffff" stroke="#bfbfbf" points="0,-.5 0,-18.5 45.4629,-18.5 45.4629,-.5 0,-.5"/>
<text text-anchor="middle" x="22.7314" y="-6.5" font-family="Helvetica,sans-Serif" font-size="10.00" fill="#000000">stdio.h</text>
</g>
<!-- Node0&#45;&gt;Node1 -->
<g id="edge1" class="edge">
<title>Node0&#45;&gt;Node1</title>
<path fill="none" stroke="#191970" d="M47.1479,-55.2808C42.7434,-47.0224 37.1493,-36.5335 32.4273,-27.6796"/>
<polygon fill="#191970" stroke="#191970" points="35.3705,-25.7607 27.5763,-18.5842 29.194,-29.0548 35.3705,-25.7607"/>
</g>
<!-- Node2 -->
<g id="node3" class="node">
<title>Node2</title>
<polygon fill="#ffffff" stroke="#bfbfbf" points="63.8892,-.5 63.8892,-18.5 111.5737,-18.5 111.5737,-.5 63.8892,-.5"/>
<text text-anchor="middle" x="87.7314" y="-6.5" font-family="Helvetica,sans-Serif" font-size="10.00" fill="#000000">stdlib.h</text>
</g>
<!-- Node0&#45;&gt;Node2 -->
<g id="edge2" class="edge">
<title>Node0&#45;&gt;Node2</title>
<path fill="none" stroke="#191970" d="M62.552,-55.2808C67.143,-46.9336 72.9872,-36.3076 77.8894,-27.3946"/>
<polygon fill="#191970" stroke="#191970" points="80.9827,-29.0331 82.7351,-18.5842 74.8491,-25.6596 80.9827,-29.0331"/>
</g>
</g>
</svg>
