<?xml version="1.0" encoding="UTF-8" standalone="no"?>
<!DOCTYPE svg PUBLIC "-//W3C//DTD SVG 1.1//EN"
 "http://www.w3.org/Graphics/SVG/1.1/DTD/svg11.dtd">
<!-- Generated by graphviz version 2.40.1 (20161225.0304)
 -->
<!-- Title: osp/logger.c Pages: 1 -->
<svg width="494pt" height="82pt"
 viewBox="0.00 0.00 493.52 82.00" xmlns="http://www.w3.org/2000/svg" xmlns:xlink="http://www.w3.org/1999/xlink">
<g id="graph0" class="graph" transform="scale(1 1) rotate(0) translate(4 78)">
<title>osp/logger.c</title>
<polygon fill="#ffffff" stroke="transparent" points="-4,4 -4,-78 489.522,-78 489.522,4 -4,4"/>
<!-- Node0 -->
<g id="node1" class="node">
<title>Node0</title>
<polygon fill="#bfbfbf" stroke="#000000" points="210.0444,-55.5 210.0444,-73.5 279.9751,-73.5 279.9751,-55.5 210.0444,-55.5"/>
<text text-anchor="middle" x="245.0098" y="-61.5" font-family="Helvetica,sans-Serif" font-size="10.00" fill="#000000">osp/logger.c</text>
</g>
<!-- Node1 -->
<g id="node2" class="node">
<title>Node1</title>
<polygon fill="#ffffff" stroke="#bfbfbf" points="0,-.5 0,-18.5 66.0195,-18.5 66.0195,-.5 0,-.5"/>
<text text-anchor="middle" x="33.0098" y="-6.5" font-family="Helvetica,sans-Serif" font-size="10.00" fill="#000000">sys/types.h</text>
</g>
<!-- Node0&#45;&gt;Node1 -->
<g id="edge1" class="edge">
<title>Node0&#45;&gt;Node1</title>
<path fill="none" stroke="#191970" d="M210.0023,-55.4179C173.3266,-45.903 115.6661,-30.9439 76.1903,-20.7025"/>
<polygon fill="#191970" stroke="#191970" points="76.8791,-17.2654 66.3206,-18.142 75.1212,-24.0411 76.8791,-17.2654"/>
</g>
<!-- Node2 -->
<g id="node3" class="node">
<title>Node2</title>
<polygon fill="#ffffff" stroke="#bfbfbf" points="83.8916,-.5 83.8916,-18.5 142.1279,-18.5 142.1279,-.5 83.8916,-.5"/>
<text text-anchor="middle" x="113.0098" y="-6.5" font-family="Helvetica,sans-Serif" font-size="10.00" fill="#000000">sys/stat.h</text>
</g>
<!-- Node0&#45;&gt;Node2 -->
<g id="edge2" class="edge">
<title>Node0&#45;&gt;Node2</title>
<path fill="none" stroke="#191970" d="M223.2127,-55.4179C201.7168,-46.4613 168.6433,-32.6806 144.3346,-22.552"/>
<polygon fill="#191970" stroke="#191970" points="145.4162,-19.2111 134.8393,-18.5956 142.7239,-25.6726 145.4162,-19.2111"/>
</g>
<!-- Node3 -->
<g id="node4" class="node">
<title>Node3</title>
<polygon fill="#ffffff" stroke="#bfbfbf" points="160.2783,-.5 160.2783,-18.5 205.7412,-18.5 205.7412,-.5 160.2783,-.5"/>
<text text-anchor="middle" x="183.0098" y="-6.5" font-family="Helvetica,sans-Serif" font-size="10.00" fill="#000000">stdio.h</text>
</g>
<!-- Node0&#45;&gt;Node3 -->
<g id="edge3" class="edge">
<title>Node0&#45;&gt;Node3</title>
<path fill="none" stroke="#191970" d="M234.7717,-55.4179C225.6724,-47.3458 212.1561,-35.3556 201.2171,-25.6517"/>
<polygon fill="#191970" stroke="#191970" points="203.2737,-22.7974 193.4702,-18.7795 198.6284,-28.0339 203.2737,-22.7974"/>
</g>
<!-- Node4 -->
<g id="node5" class="node">
<title>Node4</title>
<polygon fill="#ffffff" stroke="#bfbfbf" points="223.394,-.5 223.394,-18.5 266.6255,-18.5 266.6255,-.5 223.394,-.5"/>
<text text-anchor="middle" x="245.0098" y="-6.5" font-family="Helvetica,sans-Serif" font-size="10.00" fill="#000000">time.h</text>
</g>
<!-- Node0&#45;&gt;Node4 -->
<g id="edge4" class="edge">
<title>Node0&#45;&gt;Node4</title>
<path fill="none" stroke="#191970" d="M245.0098,-55.4179C245.0098,-48.2164 245.0098,-37.8962 245.0098,-28.8632"/>
<polygon fill="#191970" stroke="#191970" points="248.5099,-28.7794 245.0098,-18.7795 241.5099,-28.7795 248.5099,-28.7794"/>
</g>
<!-- Node5 -->
<g id="node6" class="node">
<title>Node5</title>
<polygon fill="#ffffff" stroke="#bfbfbf" points="284.1675,-.5 284.1675,-18.5 331.8521,-18.5 331.8521,-.5 284.1675,-.5"/>
<text text-anchor="middle" x="308.0098" y="-6.5" font-family="Helvetica,sans-Serif" font-size="10.00" fill="#000000">stdlib.h</text>
</g>
<!-- Node0&#45;&gt;Node5 -->
<g id="edge5" class="edge">
<title>Node0&#45;&gt;Node5</title>
<path fill="none" stroke="#191970" d="M255.4129,-55.4179C264.7497,-47.2667 278.6631,-35.1201 289.8349,-25.3669"/>
<polygon fill="#191970" stroke="#191970" points="292.1492,-27.9927 297.3806,-18.7795 287.5456,-22.7194 292.1492,-27.9927"/>
</g>
<!-- Node6 -->
<g id="node7" class="node">
<title>Node6</title>
<g id="a_node7"><a xlink:href="constants_8h.html" target="_top" xlink:title="constants.h">
<polygon fill="#ffffff" stroke="#000000" points="349.4385,-.5 349.4385,-18.5 416.5811,-18.5 416.5811,-.5 349.4385,-.5"/>
<text text-anchor="middle" x="383.0098" y="-6.5" font-family="Helvetica,sans-Serif" font-size="10.00" fill="#000000">constants.h</text>
</a>
</g>
</g>
<!-- Node0&#45;&gt;Node6 -->
<g id="edge6" class="edge">
<title>Node0&#45;&gt;Node6</title>
<path fill="none" stroke="#191970" d="M267.7977,-55.4179C290.3705,-46.4215 325.155,-32.5581 350.5994,-22.4172"/>
<polygon fill="#191970" stroke="#191970" points="352.1944,-25.5493 360.188,-18.5956 349.6028,-19.0467 352.1944,-25.5493"/>
</g>
<!-- Node7 -->
<g id="node8" class="node">
<title>Node7</title>
<polygon fill="#ffffff" stroke="#bfbfbf" points="434.4976,-.5 434.4976,-18.5 485.522,-18.5 485.522,-.5 434.4976,-.5"/>
<text text-anchor="middle" x="460.0098" y="-6.5" font-family="Helvetica,sans-Serif" font-size="10.00" fill="#000000">unistd.h</text>
</g>
<!-- Node0&#45;&gt;Node7 -->
<g id="edge7" class="edge">
<title>Node0&#45;&gt;Node7</title>
<path fill="none" stroke="#191970" d="M280.1167,-55.9635C314.6371,-47.5058 369.0676,-34.0002 424.7388,-19.294"/>
<polygon fill="#191970" stroke="#191970" points="425.6403,-22.676 434.4096,-16.7304 423.8466,-15.9097 425.6403,-22.676"/>
</g>
</g>
</svg>
