<?xml version="1.0" encoding="UTF-8" standalone="no"?>
<!DOCTYPE svg PUBLIC "-//W3C//DTD SVG 1.1//EN"
 "http://www.w3.org/Graphics/SVG/1.1/DTD/svg11.dtd">
<!-- Generated by graphviz version 2.40.1 (20161225.0304)
 -->
<!-- Title: osp/main.c Pages: 1 -->
<svg width="1599pt" height="247pt"
 viewBox="0.00 0.00 1598.53 247.00" xmlns="http://www.w3.org/2000/svg" xmlns:xlink="http://www.w3.org/1999/xlink">
<g id="graph0" class="graph" transform="scale(1 1) rotate(0) translate(4 243)">
<title>osp/main.c</title>
<polygon fill="#ffffff" stroke="transparent" points="-4,4 -4,-243 1594.5269,-243 1594.5269,4 -4,4"/>
<!-- Node0 -->
<g id="node1" class="node">
<title>Node0</title>
<polygon fill="#bfbfbf" stroke="#000000" points="695.5542,-220.5 695.5542,-238.5 759.9087,-238.5 759.9087,-220.5 695.5542,-220.5"/>
<text text-anchor="middle" x="727.7314" y="-226.5" font-family="Helvetica,sans-Serif" font-size="10.00" fill="#000000">osp/main.c</text>
</g>
<!-- Node1 -->
<g id="node2" class="node">
<title>Node1</title>
<polygon fill="#ffffff" stroke="#bfbfbf" points="0,-110.5 0,-128.5 45.4629,-128.5 45.4629,-110.5 0,-110.5"/>
<text text-anchor="middle" x="22.7314" y="-116.5" font-family="Helvetica,sans-Serif" font-size="10.00" fill="#000000">stdio.h</text>
</g>
<!-- Node0&#45;&gt;Node1 -->
<g id="edge1" class="edge">
<title>Node0&#45;&gt;Node1</title>
<path fill="none" stroke="#191970" d="M695.1928,-228.8737C587.2246,-226.5038 241.6696,-216.5024 135.7314,-184 100.5849,-173.2168 64.4556,-150.0755 42.7983,-134.6473"/>
<polygon fill="#191970" stroke="#191970" points="44.5917,-131.6237 34.4476,-128.5661 40.4709,-137.2822 44.5917,-131.6237"/>
</g>
<!-- Node2 -->
<g id="node3" class="node">
<title>Node2</title>
<polygon fill="#ffffff" stroke="#bfbfbf" points="63.335,-110.5 63.335,-128.5 112.1279,-128.5 112.1279,-110.5 63.335,-110.5"/>
<text text-anchor="middle" x="87.7314" y="-116.5" font-family="Helvetica,sans-Serif" font-size="10.00" fill="#000000">string.h</text>
</g>
<!-- Node0&#45;&gt;Node2 -->
<g id="edge2" class="edge">
<title>Node0&#45;&gt;Node2</title>
<path fill="none" stroke="#191970" d="M695.2556,-229.2085C591.5078,-227.9092 269.2318,-220.926 172.7314,-184 145.3279,-173.514 119.2957,-151.3127 103.4282,-135.907"/>
<polygon fill="#191970" stroke="#191970" points="105.6451,-133.1737 96.1036,-128.5683 100.6906,-138.1187 105.6451,-133.1737"/>
</g>
<!-- Node3 -->
<g id="node4" class="node">
<title>Node3</title>
<polygon fill="#ffffff" stroke="#bfbfbf" points="633.4976,-165.5 633.4976,-183.5 683.9653,-183.5 683.9653,-165.5 633.4976,-165.5"/>
<text text-anchor="middle" x="658.7314" y="-171.5" font-family="Helvetica,sans-Serif" font-size="10.00" fill="#000000">signal.h</text>
</g>
<!-- Node0&#45;&gt;Node3 -->
<g id="edge3" class="edge">
<title>Node0&#45;&gt;Node3</title>
<path fill="none" stroke="#191970" d="M716.3375,-220.4179C706.0122,-212.1876 690.5767,-199.8839 678.2817,-190.0836"/>
<polygon fill="#191970" stroke="#191970" points="680.3743,-187.2757 670.3729,-183.7795 676.0111,-192.7495 680.3743,-187.2757"/>
</g>
<!-- Node4 -->
<g id="node5" class="node">
<title>Node4</title>
<polygon fill="#ffffff" stroke="#bfbfbf" points="129.8892,-110.5 129.8892,-128.5 177.5737,-128.5 177.5737,-110.5 129.8892,-110.5"/>
<text text-anchor="middle" x="153.7314" y="-116.5" font-family="Helvetica,sans-Serif" font-size="10.00" fill="#000000">stdlib.h</text>
</g>
<!-- Node0&#45;&gt;Node4 -->
<g id="edge4" class="edge">
<title>Node0&#45;&gt;Node4</title>
<path fill="none" stroke="#191970" d="M695.2166,-228.3702C586.276,-224.3592 238.5803,-209.6535 195.7314,-184 178.5913,-173.7382 167.1467,-153.4649 160.5909,-138.3729"/>
<polygon fill="#191970" stroke="#191970" points="163.7826,-136.9278 156.8234,-128.9391 157.2819,-139.524 163.7826,-136.9278"/>
</g>
<!-- Node5 -->
<g id="node6" class="node">
<title>Node5</title>
<polygon fill="#ffffff" stroke="#bfbfbf" points="702.2192,-165.5 702.2192,-183.5 753.2437,-183.5 753.2437,-165.5 702.2192,-165.5"/>
<text text-anchor="middle" x="727.7314" y="-171.5" font-family="Helvetica,sans-Serif" font-size="10.00" fill="#000000">unistd.h</text>
</g>
<!-- Node0&#45;&gt;Node5 -->
<g id="edge5" class="edge">
<title>Node0&#45;&gt;Node5</title>
<path fill="none" stroke="#191970" d="M727.7314,-220.4179C727.7314,-213.2164 727.7314,-202.8962 727.7314,-193.8632"/>
<polygon fill="#191970" stroke="#191970" points="731.2315,-193.7794 727.7314,-183.7795 724.2315,-193.7795 731.2315,-193.7794"/>
</g>
<!-- Node6 -->
<g id="node7" class="node">
<title>Node6</title>
<polygon fill="#ffffff" stroke="#bfbfbf" points="771.1748,-165.5 771.1748,-183.5 818.2881,-183.5 818.2881,-165.5 771.1748,-165.5"/>
<text text-anchor="middle" x="794.7314" y="-171.5" font-family="Helvetica,sans-Serif" font-size="10.00" fill="#000000">limits.h</text>
</g>
<!-- Node0&#45;&gt;Node6 -->
<g id="edge6" class="edge">
<title>Node0&#45;&gt;Node6</title>
<path fill="none" stroke="#191970" d="M738.7951,-220.4179C748.7247,-212.2667 763.5215,-200.1201 775.4026,-190.3669"/>
<polygon fill="#191970" stroke="#191970" points="777.9188,-192.8297 783.4274,-183.7795 773.4773,-187.4192 777.9188,-192.8297"/>
</g>
<!-- Node7 -->
<g id="node8" class="node">
<title>Node7</title>
<polygon fill="#ffffff" stroke="#bfbfbf" points="835.9385,-165.5 835.9385,-183.5 897.5244,-183.5 897.5244,-165.5 835.9385,-165.5"/>
<text text-anchor="middle" x="866.7314" y="-171.5" font-family="Helvetica,sans-Serif" font-size="10.00" fill="#000000">execinfo.h</text>
</g>
<!-- Node0&#45;&gt;Node7 -->
<g id="edge7" class="edge">
<title>Node0&#45;&gt;Node7</title>
<path fill="none" stroke="#191970" d="M750.6845,-220.4179C773.5214,-211.3817 808.7677,-197.4353 834.4259,-187.2828"/>
<polygon fill="#191970" stroke="#191970" points="835.7335,-190.5295 843.7443,-183.5956 833.158,-184.0205 835.7335,-190.5295"/>
</g>
<!-- Node8 -->
<g id="node9" class="node">
<title>Node8</title>
<polygon fill="#ffffff" stroke="#bfbfbf" points="275.4458,-.5 275.4458,-18.5 322.0171,-18.5 322.0171,-.5 275.4458,-.5"/>
<text text-anchor="middle" x="298.7314" y="-6.5" font-family="Helvetica,sans-Serif" font-size="10.00" fill="#000000">math.h</text>
</g>
<!-- Node0&#45;&gt;Node8 -->
<g id="edge8" class="edge">
<title>Node0&#45;&gt;Node8</title>
<path fill="none" stroke="#191970" d="M695.36,-226.4946C635.498,-220.4895 510.1861,-205.6939 472.7314,-184 435.603,-162.495 446.2683,-134.0441 410.7314,-110 368.1266,-81.1737 331.565,-115.1754 300.7314,-74 291.1936,-61.2631 291.6235,-42.8053 293.8967,-28.8953"/>
<polygon fill="#191970" stroke="#191970" points="297.3637,-29.4122 295.9596,-18.9108 290.5085,-27.9958 297.3637,-29.4122"/>
</g>
<!-- Node9 -->
<g id="node10" class="node">
<title>Node9</title>
<polygon fill="#ffffff" stroke="#bfbfbf" points="915.6035,-165.5 915.6035,-183.5 973.8594,-183.5 973.8594,-165.5 915.6035,-165.5"/>
<text text-anchor="middle" x="944.7314" y="-171.5" font-family="Helvetica,sans-Serif" font-size="10.00" fill="#000000">pthread.h</text>
</g>
<!-- Node0&#45;&gt;Node9 -->
<g id="edge9" class="edge">
<title>Node0&#45;&gt;Node9</title>
<path fill="none" stroke="#191970" d="M760.2185,-221.2659C799.1036,-211.4103 864.1654,-194.92 905.7303,-184.3851"/>
<polygon fill="#191970" stroke="#191970" points="906.671,-187.7574 915.5046,-181.9077 904.9512,-180.972 906.671,-187.7574"/>
</g>
<!-- Node10 -->
<g id="node11" class="node">
<title>Node10</title>
<polygon fill="#ffffff" stroke="#bfbfbf" points="991.8892,-165.5 991.8892,-183.5 1039.5737,-183.5 1039.5737,-165.5 991.8892,-165.5"/>
<text text-anchor="middle" x="1015.7314" y="-171.5" font-family="Helvetica,sans-Serif" font-size="10.00" fill="#000000">errno.h</text>
</g>
<!-- Node0&#45;&gt;Node10 -->
<g id="edge10" class="edge">
<title>Node0&#45;&gt;Node10</title>
<path fill="none" stroke="#191970" d="M760.1533,-224.8186C806.9994,-217.8153 896.4891,-203.5433 981.8127,-184.0232"/>
<polygon fill="#191970" stroke="#191970" points="982.7042,-187.4095 991.6565,-181.7431 981.1246,-180.59 982.7042,-187.4095"/>
</g>
<!-- Node11 -->
<g id="node12" class="node">
<title>Node11</title>
<polygon fill="#ffffff" stroke="#bfbfbf" points="335.7217,-110.5 335.7217,-128.5 401.7412,-128.5 401.7412,-110.5 335.7217,-110.5"/>
<text text-anchor="middle" x="368.7314" y="-116.5" font-family="Helvetica,sans-Serif" font-size="10.00" fill="#000000">sys/types.h</text>
</g>
<!-- Node0&#45;&gt;Node11 -->
<g id="edge11" class="edge">
<title>Node0&#45;&gt;Node11</title>
<path fill="none" stroke="#191970" d="M695.4159,-227.9373C625.4368,-224.0551 462.4232,-212.1757 415.7314,-184 397.9964,-173.2979 384.9465,-153.0986 377.158,-138.1443"/>
<polygon fill="#191970" stroke="#191970" points="380.138,-136.2694 372.6137,-128.8105 373.8443,-139.3336 380.138,-136.2694"/>
</g>
<!-- Node12 -->
<g id="node13" class="node">
<title>Node12</title>
<polygon fill="#ffffff" stroke="#bfbfbf" points="1057.5542,-165.5 1057.5542,-183.5 1111.9087,-183.5 1111.9087,-165.5 1057.5542,-165.5"/>
<text text-anchor="middle" x="1084.7314" y="-171.5" font-family="Helvetica,sans-Serif" font-size="10.00" fill="#000000">ifaddrs.h</text>
</g>
<!-- Node0&#45;&gt;Node12 -->
<g id="edge12" class="edge">
<title>Node0&#45;&gt;Node12</title>
<path fill="none" stroke="#191970" d="M760.2953,-226.1615C816.8182,-220.0917 936.8777,-205.9872 1047.3203,-184.0986"/>
<polygon fill="#191970" stroke="#191970" points="1048.177,-187.4965 1057.2918,-182.0954 1046.7983,-180.6336 1048.177,-187.4965"/>
</g>
<!-- Node13 -->
<g id="node14" class="node">
<title>Node13</title>
<polygon fill="#ffffff" stroke="#bfbfbf" points="1130.2217,-165.5 1130.2217,-183.5 1201.2412,-183.5 1201.2412,-165.5 1130.2217,-165.5"/>
<text text-anchor="middle" x="1165.7314" y="-171.5" font-family="Helvetica,sans-Serif" font-size="10.00" fill="#000000">sys/socket.h</text>
</g>
<!-- Node0&#45;&gt;Node13 -->
<g id="edge13" class="edge">
<title>Node0&#45;&gt;Node13</title>
<path fill="none" stroke="#191970" d="M759.965,-226.7893C825.6878,-221.0435 980.0642,-206.4302 1119.8858,-184.0002"/>
<polygon fill="#191970" stroke="#191970" points="1120.6157,-187.4276 1129.9264,-182.3717 1119.495,-180.5179 1120.6157,-187.4276"/>
</g>
<!-- Node14 -->
<g id="node15" class="node">
<title>Node14</title>
<polygon fill="#ffffff" stroke="#bfbfbf" points="1219.1035,-165.5 1219.1035,-183.5 1282.3594,-183.5 1282.3594,-165.5 1219.1035,-165.5"/>
<text text-anchor="middle" x="1250.7314" y="-171.5" font-family="Helvetica,sans-Serif" font-size="10.00" fill="#000000">arpa/inet.h</text>
</g>
<!-- Node0&#45;&gt;Node14 -->
<g id="edge14" class="edge">
<title>Node0&#45;&gt;Node14</title>
<path fill="none" stroke="#191970" d="M760.1501,-228.0076C836.6937,-224.1518 1034.717,-212.2364 1208.8241,-184.1287"/>
<polygon fill="#191970" stroke="#191970" points="1209.6325,-187.5431 1218.9356,-182.4734 1208.5015,-180.635 1209.6325,-187.5431"/>
</g>
<!-- Node15 -->
<g id="node16" class="node">
<title>Node15</title>
<polygon fill="#ffffff" stroke="#bfbfbf" points="1300.2686,-165.5 1300.2686,-183.5 1365.1943,-183.5 1365.1943,-165.5 1300.2686,-165.5"/>
<text text-anchor="middle" x="1332.7314" y="-171.5" font-family="Helvetica,sans-Serif" font-size="10.00" fill="#000000">netinet/in.h</text>
</g>
<!-- Node0&#45;&gt;Node15 -->
<g id="edge15" class="edge">
<title>Node0&#45;&gt;Node15</title>
<path fill="none" stroke="#191970" d="M760.0389,-228.5572C845.2494,-225.7179 1083.2026,-215.5093 1290.0073,-184.0689"/>
<polygon fill="#191970" stroke="#191970" points="1290.7919,-187.4894 1300.1421,-182.5071 1289.7256,-180.5711 1290.7919,-187.4894"/>
</g>
<!-- Node16 -->
<g id="node17" class="node">
<title>Node16</title>
<g id="a_node17"><a xlink:href="osp__tcp_8h.html" target="_top" xlink:title="osp_tcp.h">
<polygon fill="#ffffff" stroke="#000000" points="205.0493,-165.5 205.0493,-183.5 264.4136,-183.5 264.4136,-165.5 205.0493,-165.5"/>
<text text-anchor="middle" x="234.7314" y="-171.5" font-family="Helvetica,sans-Serif" font-size="10.00" fill="#000000">osp_tcp.h</text>
</a>
</g>
</g>
<!-- Node0&#45;&gt;Node16 -->
<g id="edge16" class="edge">
<title>Node0&#45;&gt;Node16</title>
<path fill="none" stroke="#191970" d="M695.3763,-226.2038C625.0058,-218.9871 452.7849,-201.0665 308.7314,-184 297.7168,-182.695 285.7909,-181.2001 274.796,-179.7884"/>
<polygon fill="#191970" stroke="#191970" points="274.9662,-176.2813 264.5998,-178.4692 274.068,-183.2234 274.9662,-176.2813"/>
</g>
<!-- Node18 -->
<g id="node19" class="node">
<title>Node18</title>
<g id="a_node19"><a xlink:href="constants_8h.html" target="_top" xlink:title="constants.h">
<polygon fill="#ffffff" stroke="#000000" points="494.1602,-.5 494.1602,-18.5 561.3027,-18.5 561.3027,-.5 494.1602,-.5"/>
<text text-anchor="middle" x="527.7314" y="-6.5" font-family="Helvetica,sans-Serif" font-size="10.00" fill="#000000">constants.h</text>
</a>
</g>
</g>
<!-- Node0&#45;&gt;Node18 -->
<g id="edge38" class="edge">
<title>Node0&#45;&gt;Node18</title>
<path fill="none" stroke="#191970" d="M695.4308,-228.3144C635.9754,-225.3804 512.8847,-215.5529 486.7314,-184 448.2476,-137.5707 491.5175,-61.4455 514.8235,-27.1848"/>
<polygon fill="#191970" stroke="#191970" points="517.9044,-28.8875 520.783,-18.6912 512.1742,-24.8668 517.9044,-28.8875"/>
</g>
<!-- Node19 -->
<g id="node20" class="node">
<title>Node19</title>
<g id="a_node20"><a xlink:href="jsmn_8h.html" target="_top" xlink:title="jsmn.h">
<polygon fill="#ffffff" stroke="#000000" points="234.0049,-110.5 234.0049,-128.5 279.458,-128.5 279.458,-110.5 234.0049,-110.5"/>
<text text-anchor="middle" x="256.7314" y="-116.5" font-family="Helvetica,sans-Serif" font-size="10.00" fill="#000000">jsmn.h</text>
</a>
</g>
</g>
<!-- Node0&#45;&gt;Node19 -->
<g id="edge40" class="edge">
<title>Node0&#45;&gt;Node19</title>
<path fill="none" stroke="#191970" d="M695.5373,-228.4536C634.8804,-225.7616 500.0293,-216.3358 391.7314,-184 350.9439,-171.8216 307.056,-148.8044 280.7507,-133.8154"/>
<polygon fill="#191970" stroke="#191970" points="282.3017,-130.6692 271.8931,-128.6913 278.7964,-136.7284 282.3017,-130.6692"/>
</g>
<!-- Node20 -->
<g id="node21" class="node">
<title>Node20</title>
<g id="a_node21"><a xlink:href="osp__process_8h.html" target="_top" xlink:title="osp_process.h">
<polygon fill="#ffffff" stroke="#000000" points="580.2119,-110.5 580.2119,-128.5 661.251,-128.5 661.251,-110.5 580.2119,-110.5"/>
<text text-anchor="middle" x="620.7314" y="-116.5" font-family="Helvetica,sans-Serif" font-size="10.00" fill="#000000">osp_process.h</text>
</a>
</g>
</g>
<!-- Node0&#45;&gt;Node20 -->
<g id="edge25" class="edge">
<title>Node0&#45;&gt;Node20</title>
<path fill="none" stroke="#191970" d="M695.0761,-224.2576C671.3993,-218.6086 640.8206,-207.0996 624.7314,-184 615.6239,-170.9241 615.391,-152.5035 616.9887,-138.6937"/>
<polygon fill="#191970" stroke="#191970" points="620.4494,-139.2163 618.5279,-128.7972 613.5326,-138.1405 620.4494,-139.2163"/>
</g>
<!-- Node24 -->
<g id="node25" class="node">
<title>Node24</title>
<g id="a_node25"><a xlink:href="resample_8h.html" target="_top" xlink:title="resample.h">
<polygon fill="#ffffff" stroke="#000000" points="1382.9976,-165.5 1382.9976,-183.5 1448.4653,-183.5 1448.4653,-165.5 1382.9976,-165.5"/>
<text text-anchor="middle" x="1415.7314" y="-171.5" font-family="Helvetica,sans-Serif" font-size="10.00" fill="#000000">resample.h</text>
</a>
</g>
</g>
<!-- Node0&#45;&gt;Node24 -->
<g id="edge33" class="edge">
<title>Node0&#45;&gt;Node24</title>
<path fill="none" stroke="#191970" d="M760.1839,-228.9565C853.7899,-227.0206 1132.393,-218.6709 1372.8297,-183.9061"/>
<polygon fill="#191970" stroke="#191970" points="1373.4182,-187.3573 1382.8055,-182.4451 1372.4038,-180.4312 1373.4182,-187.3573"/>
</g>
<!-- Node25 -->
<g id="node26" class="node">
<title>Node25</title>
<g id="a_node26"><a xlink:href="utilities_8h.html" target="_top" xlink:title="utilities.h">
<polygon fill="#ffffff" stroke="#000000" points="1466.2783,-165.5 1466.2783,-183.5 1521.1846,-183.5 1521.1846,-165.5 1466.2783,-165.5"/>
<text text-anchor="middle" x="1493.7314" y="-171.5" font-family="Helvetica,sans-Serif" font-size="10.00" fill="#000000">utilities.h</text>
</a>
</g>
</g>
<!-- Node0&#45;&gt;Node25 -->
<g id="edge34" class="edge">
<title>Node0&#45;&gt;Node25</title>
<path fill="none" stroke="#191970" d="M760.0476,-228.3284C880.0644,-223.8496 1300.8143,-206.9772 1455.6912,-184.0026"/>
<polygon fill="#191970" stroke="#191970" points="1456.5955,-187.4041 1465.939,-182.4093 1455.52,-180.4872 1456.5955,-187.4041"/>
</g>
<!-- Node26 -->
<g id="node27" class="node">
<title>Node26</title>
<g id="a_node27"><a xlink:href="port__wrapper_8h.html" target="_top" xlink:title="port_wrapper.h">
<polygon fill="#ffffff" stroke="#000000" points="495.3745,-165.5 495.3745,-183.5 578.0884,-183.5 578.0884,-165.5 495.3745,-165.5"/>
<text text-anchor="middle" x="536.7314" y="-171.5" font-family="Helvetica,sans-Serif" font-size="10.00" fill="#000000">port_wrapper.h</text>
</a>
</g>
</g>
<!-- Node0&#45;&gt;Node26 -->
<g id="edge35" class="edge">
<title>Node0&#45;&gt;Node26</title>
<path fill="none" stroke="#191970" d="M696.1917,-220.4179C663.8855,-211.115 613.5066,-196.608 578.0369,-186.3943"/>
<polygon fill="#191970" stroke="#191970" points="578.5787,-182.9081 568.0006,-183.5042 576.6416,-189.6348 578.5787,-182.9081"/>
</g>
<!-- Node28 -->
<g id="node29" class="node">
<title>Node28</title>
<g id="a_node29"><a xlink:href="osp_2logger_8h.html" target="_top" xlink:title="logger.h">
<polygon fill="#ffffff" stroke="#000000" points="1538.936,-165.5 1538.936,-183.5 1590.5269,-183.5 1590.5269,-165.5 1538.936,-165.5"/>
<text text-anchor="middle" x="1564.7314" y="-171.5" font-family="Helvetica,sans-Serif" font-size="10.00" fill="#000000">logger.h</text>
</a>
</g>
</g>
<!-- Node0&#45;&gt;Node28 -->
<g id="edge39" class="edge">
<title>Node0&#45;&gt;Node28</title>
<path fill="none" stroke="#191970" d="M760.0754,-228.5652C887.8338,-224.7363 1358.2546,-209.3168 1528.7986,-183.7445"/>
<polygon fill="#191970" stroke="#191970" points="1529.5328,-187.1723 1538.8695,-182.1646 1528.4479,-180.2568 1529.5328,-187.1723"/>
</g>
<!-- Node16&#45;&gt;Node1 -->
<g id="edge20" class="edge">
<title>Node16&#45;&gt;Node1</title>
<path fill="none" stroke="#191970" d="M205.0119,-167.3832C171.13,-159.1832 113.8632,-145.0627 55.521,-129.1383"/>
<polygon fill="#191970" stroke="#191970" points="56.3409,-125.7339 45.7711,-126.4627 54.4883,-132.4843 56.3409,-125.7339"/>
</g>
<!-- Node16&#45;&gt;Node2 -->
<g id="edge22" class="edge">
<title>Node16&#45;&gt;Node2</title>
<path fill="none" stroke="#191970" d="M210.4574,-165.4179C186.1997,-156.3419 148.7025,-142.3123 121.5383,-132.1488"/>
<polygon fill="#191970" stroke="#191970" points="122.634,-128.8219 112.0416,-128.5956 120.181,-135.378 122.634,-128.8219"/>
</g>
<!-- Node16&#45;&gt;Node4 -->
<g id="edge21" class="edge">
<title>Node16&#45;&gt;Node4</title>
<path fill="none" stroke="#191970" d="M221.3559,-165.4179C208.9274,-156.9788 190.1917,-144.257 175.5905,-134.3426"/>
<polygon fill="#191970" stroke="#191970" points="177.366,-131.3176 167.1268,-128.5956 173.4338,-137.1088 177.366,-131.3176"/>
</g>
<!-- Node16&#45;&gt;Node11 -->
<g id="edge19" class="edge">
<title>Node16&#45;&gt;Node11</title>
<path fill="none" stroke="#191970" d="M256.8588,-165.4179C278.7773,-156.4215 312.5536,-142.5581 337.2605,-132.4172"/>
<polygon fill="#191970" stroke="#191970" points="338.6491,-135.6306 346.5712,-128.5956 335.9911,-129.1549 338.6491,-135.6306"/>
</g>
<!-- Node17 -->
<g id="node18" class="node">
<title>Node17</title>
<polygon fill="#ffffff" stroke="#bfbfbf" points="205.9409,-.5 205.9409,-18.5 257.522,-18.5 257.522,-.5 205.9409,-.5"/>
<text text-anchor="middle" x="231.7314" y="-6.5" font-family="Helvetica,sans-Serif" font-size="10.00" fill="#000000">stddef.h</text>
</g>
<!-- Node16&#45;&gt;Node17 -->
<g id="edge17" class="edge">
<title>Node16&#45;&gt;Node17</title>
<path fill="none" stroke="#191970" d="M232.0636,-165.1868C229.5969,-156.0585 226.111,-141.7041 224.7314,-129 220.8945,-93.6671 225.3078,-52.2125 228.6608,-28.583"/>
<polygon fill="#191970" stroke="#191970" points="232.1479,-28.9305 230.1809,-18.5199 225.2264,-27.8849 232.1479,-28.9305"/>
</g>
<!-- Node16&#45;&gt;Node18 -->
<g id="edge18" class="edge">
<title>Node16&#45;&gt;Node18</title>
<path fill="none" stroke="#191970" d="M245.3695,-165.3877C261.8285,-151.6877 294.8989,-125.7186 326.7314,-110 374.3728,-86.4752 393.4061,-98.1541 440.7314,-74 466.687,-60.7527 493.1023,-39.905 509.9075,-25.5149"/>
<polygon fill="#191970" stroke="#191970" points="512.5356,-27.8667 517.7661,-18.653 507.9315,-22.5938 512.5356,-27.8667"/>
</g>
<!-- Node16&#45;&gt;Node19 -->
<g id="edge23" class="edge">
<title>Node16&#45;&gt;Node19</title>
<path fill="none" stroke="#191970" d="M238.3643,-165.4179C241.3082,-158.0581 245.555,-147.441 249.2236,-138.2695"/>
<polygon fill="#191970" stroke="#191970" points="252.5554,-139.3641 253.0197,-128.7795 246.056,-136.7643 252.5554,-139.3641"/>
</g>
<!-- Node19&#45;&gt;Node17 -->
<g id="edge24" class="edge">
<title>Node19&#45;&gt;Node17</title>
<path fill="none" stroke="#191970" d="M254.6856,-110.4982C250.6386,-92.6913 241.532,-52.6225 236.084,-28.6515"/>
<polygon fill="#191970" stroke="#191970" points="239.4348,-27.6018 233.8056,-18.6261 232.6089,-29.1532 239.4348,-27.6018"/>
</g>
<!-- Node20&#45;&gt;Node18 -->
<g id="edge28" class="edge">
<title>Node20&#45;&gt;Node18</title>
<path fill="none" stroke="#191970" d="M618.4683,-110.3212C614.8267,-96.993 606.6304,-72.0193 592.7314,-55 582.3549,-42.2938 567.5655,-31.5626 554.7149,-23.7187"/>
<polygon fill="#191970" stroke="#191970" points="556.1953,-20.5309 545.7911,-18.5304 552.677,-26.5824 556.1953,-20.5309"/>
</g>
<!-- Node21 -->
<g id="node22" class="node">
<title>Node21</title>
<g id="a_node22"><a xlink:href="coeffs_8h.html" target="_top" xlink:title="coeffs.h">
<polygon fill="#ffffff" stroke="#000000" points="533.3096,-55.5 533.3096,-73.5 584.1533,-73.5 584.1533,-55.5 533.3096,-55.5"/>
<text text-anchor="middle" x="558.7314" y="-61.5" font-family="Helvetica,sans-Serif" font-size="10.00" fill="#000000">coeffs.h</text>
</a>
</g>
</g>
<!-- Node20&#45;&gt;Node21 -->
<g id="edge26" class="edge">
<title>Node20&#45;&gt;Node21</title>
<path fill="none" stroke="#191970" d="M610.4934,-110.4179C601.394,-102.3458 587.8778,-90.3556 576.9388,-80.6517"/>
<polygon fill="#191970" stroke="#191970" points="578.9954,-77.7974 569.1919,-73.7795 574.35,-83.0339 578.9954,-77.7974"/>
</g>
<!-- Node22 -->
<g id="node23" class="node">
<title>Node22</title>
<g id="a_node23"><a xlink:href="speech__enhancement_8h.html" target="_top" xlink:title="speech_enhancement.h">
<polygon fill="#ffffff" stroke="#000000" points="309.3574,-55.5 309.3574,-73.5 432.1055,-73.5 432.1055,-55.5 309.3574,-55.5"/>
<text text-anchor="middle" x="370.7314" y="-61.5" font-family="Helvetica,sans-Serif" font-size="10.00" fill="#000000">speech_enhancement.h</text>
</a>
</g>
</g>
<!-- Node20&#45;&gt;Node22 -->
<g id="edge29" class="edge">
<title>Node20&#45;&gt;Node22</title>
<path fill="none" stroke="#191970" d="M580.0082,-110.5409C536.826,-101.0408 468.5269,-86.015 421.7773,-75.7301"/>
<polygon fill="#191970" stroke="#191970" points="422.3715,-72.2772 411.853,-73.5467 420.8674,-79.1137 422.3715,-72.2772"/>
</g>
<!-- Node21&#45;&gt;Node18 -->
<g id="edge27" class="edge">
<title>Node21&#45;&gt;Node18</title>
<path fill="none" stroke="#191970" d="M553.6124,-55.4179C549.375,-47.8998 543.2218,-36.9829 537.9783,-27.6799"/>
<polygon fill="#191970" stroke="#191970" points="540.9209,-25.7724 532.9617,-18.7795 534.8228,-29.2096 540.9209,-25.7724"/>
</g>
<!-- Node22&#45;&gt;Node8 -->
<g id="edge30" class="edge">
<title>Node22&#45;&gt;Node8</title>
<path fill="none" stroke="#191970" d="M358.8421,-55.4179C348.0679,-47.1876 331.9613,-34.8839 319.1317,-25.0836"/>
<polygon fill="#191970" stroke="#191970" points="320.9505,-22.0685 310.8791,-18.7795 316.7012,-27.6313 320.9505,-22.0685"/>
</g>
<!-- Node22&#45;&gt;Node17 -->
<g id="edge31" class="edge">
<title>Node22&#45;&gt;Node17</title>
<path fill="none" stroke="#191970" d="M347.7784,-55.4179C324.9415,-46.3817 289.6951,-32.4353 264.037,-22.2828"/>
<polygon fill="#191970" stroke="#191970" points="265.3049,-19.0205 254.7186,-18.5956 262.7293,-25.5295 265.3049,-19.0205"/>
</g>
<!-- Node23 -->
<g id="node24" class="node">
<title>Node23</title>
<g id="a_node24"><a xlink:href="array__utilities_8h.html" target="_top" xlink:title="array_utilities.h">
<polygon fill="#ffffff" stroke="#000000" points="340.106,-.5 340.106,-18.5 423.3569,-18.5 423.3569,-.5 340.106,-.5"/>
<text text-anchor="middle" x="381.7314" y="-6.5" font-family="Helvetica,sans-Serif" font-size="10.00" fill="#000000">array_utilities.h</text>
</a>
</g>
</g>
<!-- Node22&#45;&gt;Node23 -->
<g id="edge32" class="edge">
<title>Node22&#45;&gt;Node23</title>
<path fill="none" stroke="#191970" d="M372.5479,-55.4179C373.9882,-48.2164 376.0522,-37.8962 377.8588,-28.8632"/>
<polygon fill="#191970" stroke="#191970" points="381.3463,-29.2717 379.8756,-18.7795 374.4823,-27.8988 381.3463,-29.2717"/>
</g>
<!-- Node26&#45;&gt;Node20 -->
<g id="edge37" class="edge">
<title>Node26&#45;&gt;Node20</title>
<path fill="none" stroke="#191970" d="M550.6023,-165.4179C563.4911,-156.9788 582.9208,-144.257 598.0628,-134.3426"/>
<polygon fill="#191970" stroke="#191970" points="600.391,-137.0017 606.8399,-128.5956 596.5565,-131.1454 600.391,-137.0017"/>
</g>
<!-- Node27 -->
<g id="node28" class="node">
<title>Node27</title>
<polygon fill="#ffffff" stroke="#bfbfbf" points="495.7119,-110.5 495.7119,-128.5 561.751,-128.5 561.751,-110.5 495.7119,-110.5"/>
<text text-anchor="middle" x="528.7314" y="-116.5" font-family="Helvetica,sans-Serif" font-size="10.00" fill="#000000">portaudio.h</text>
</g>
<!-- Node26&#45;&gt;Node27 -->
<g id="edge36" class="edge">
<title>Node26&#45;&gt;Node27</title>
<path fill="none" stroke="#191970" d="M535.4104,-165.4179C534.3629,-158.2164 532.8618,-147.8962 531.5479,-138.8632"/>
<polygon fill="#191970" stroke="#191970" points="534.9842,-138.1715 530.0812,-128.7795 528.0571,-139.1791 534.9842,-138.1715"/>
</g>
</g>
</svg>
