<?xml version="1.0" encoding="UTF-8" standalone="no"?>
<!DOCTYPE svg PUBLIC "-//W3C//DTD SVG 1.1//EN"
 "http://www.w3.org/Graphics/SVG/1.1/DTD/svg11.dtd">
<!-- Generated by graphviz version 2.40.1 (20161225.0304)
 -->
<!-- Title: osp/main.c Pages: 1 -->
<svg width="1491pt" height="247pt"
 viewBox="0.00 0.00 1490.53 247.00" xmlns="http://www.w3.org/2000/svg" xmlns:xlink="http://www.w3.org/1999/xlink">
<g id="graph0" class="graph" transform="scale(1 1) rotate(0) translate(4 243)">
<title>osp/main.c</title>
<polygon fill="#ffffff" stroke="transparent" points="-4,4 -4,-243 1486.5269,-243 1486.5269,4 -4,4"/>
<!-- Node0 -->
<g id="node1" class="node">
<title>Node0</title>
<polygon fill="#bfbfbf" stroke="#000000" points="680.5542,-220.5 680.5542,-238.5 744.9087,-238.5 744.9087,-220.5 680.5542,-220.5"/>
<text text-anchor="middle" x="712.7314" y="-226.5" font-family="Helvetica,sans-Serif" font-size="10.00" fill="#000000">osp/main.c</text>
</g>
<!-- Node1 -->
<g id="node2" class="node">
<title>Node1</title>
<polygon fill="#ffffff" stroke="#bfbfbf" points="0,-165.5 0,-183.5 45.4629,-183.5 45.4629,-165.5 0,-165.5"/>
<text text-anchor="middle" x="22.7314" y="-171.5" font-family="Helvetica,sans-Serif" font-size="10.00" fill="#000000">stdio.h</text>
</g>
<!-- Node0&#45;&gt;Node1 -->
<g id="edge1" class="edge">
<title>Node0&#45;&gt;Node1</title>
<path fill="none" stroke="#191970" d="M680.4806,-228.2088C568.4668,-223.5814 195.9415,-206.9627 55.7391,-183.7196"/>
<polygon fill="#191970" stroke="#191970" points="56.1101,-180.2316 45.6576,-181.9623 54.908,-187.1276 56.1101,-180.2316"/>
</g>
<!-- Node2 -->
<g id="node3" class="node">
<title>Node2</title>
<polygon fill="#ffffff" stroke="#bfbfbf" points="63.335,-165.5 63.335,-183.5 112.1279,-183.5 112.1279,-165.5 63.335,-165.5"/>
<text text-anchor="middle" x="87.7314" y="-171.5" font-family="Helvetica,sans-Serif" font-size="10.00" fill="#000000">string.h</text>
</g>
<!-- Node0&#45;&gt;Node2 -->
<g id="edge2" class="edge">
<title>Node0&#45;&gt;Node2</title>
<path fill="none" stroke="#191970" d="M680.4928,-227.8518C576.4078,-222.4033 249.2454,-204.2532 122.6744,-183.7542"/>
<polygon fill="#191970" stroke="#191970" points="122.9303,-180.2475 112.4848,-182.02 121.7558,-187.1482 122.9303,-180.2475"/>
</g>
<!-- Node3 -->
<g id="node4" class="node">
<title>Node3</title>
<polygon fill="#ffffff" stroke="#bfbfbf" points="130.4976,-165.5 130.4976,-183.5 180.9653,-183.5 180.9653,-165.5 130.4976,-165.5"/>
<text text-anchor="middle" x="155.7314" y="-171.5" font-family="Helvetica,sans-Serif" font-size="10.00" fill="#000000">signal.h</text>
</g>
<!-- Node0&#45;&gt;Node3 -->
<g id="edge3" class="edge">
<title>Node0&#45;&gt;Node3</title>
<path fill="none" stroke="#191970" d="M680.3176,-228.768C599.2139,-226.4942 380.9721,-217.6492 191.1096,-183.9535"/>
<polygon fill="#191970" stroke="#191970" points="191.6951,-180.5027 181.2328,-182.1732 190.4533,-187.3917 191.6951,-180.5027"/>
</g>
<!-- Node4 -->
<g id="node5" class="node">
<title>Node4</title>
<polygon fill="#ffffff" stroke="#bfbfbf" points="198.8892,-165.5 198.8892,-183.5 246.5737,-183.5 246.5737,-165.5 198.8892,-165.5"/>
<text text-anchor="middle" x="222.7314" y="-171.5" font-family="Helvetica,sans-Serif" font-size="10.00" fill="#000000">stdlib.h</text>
</g>
<!-- Node0&#45;&gt;Node4 -->
<g id="edge4" class="edge">
<title>Node0&#45;&gt;Node4</title>
<path fill="none" stroke="#191970" d="M680.499,-228.3965C606.8164,-225.4286 420.3864,-215.394 256.9562,-184.1445"/>
<polygon fill="#191970" stroke="#191970" points="257.2067,-180.6277 246.7224,-182.1536 255.87,-187.4988 257.2067,-180.6277"/>
</g>
<!-- Node5 -->
<g id="node6" class="node">
<title>Node5</title>
<polygon fill="#ffffff" stroke="#bfbfbf" points="264.2192,-165.5 264.2192,-183.5 315.2437,-183.5 315.2437,-165.5 264.2192,-165.5"/>
<text text-anchor="middle" x="289.7314" y="-171.5" font-family="Helvetica,sans-Serif" font-size="10.00" fill="#000000">unistd.h</text>
</g>
<!-- Node0&#45;&gt;Node5 -->
<g id="edge5" class="edge">
<title>Node0&#45;&gt;Node5</title>
<path fill="none" stroke="#191970" d="M680.4475,-227.435C615.024,-222.8846 462.0502,-210.3887 325.0812,-184.0134"/>
<polygon fill="#191970" stroke="#191970" points="325.7344,-180.5749 315.2485,-182.0903 324.3907,-187.4448 325.7344,-180.5749"/>
</g>
<!-- Node6 -->
<g id="node7" class="node">
<title>Node6</title>
<polygon fill="#ffffff" stroke="#bfbfbf" points="333.1748,-165.5 333.1748,-183.5 380.2881,-183.5 380.2881,-165.5 333.1748,-165.5"/>
<text text-anchor="middle" x="356.7314" y="-171.5" font-family="Helvetica,sans-Serif" font-size="10.00" fill="#000000">limits.h</text>
</g>
<!-- Node0&#45;&gt;Node6 -->
<g id="edge6" class="edge">
<title>Node0&#45;&gt;Node6</title>
<path fill="none" stroke="#191970" d="M680.2585,-226.558C623.3015,-221.0505 501.5974,-207.7362 390.4296,-184.1196"/>
<polygon fill="#191970" stroke="#191970" points="390.9084,-180.6424 380.395,-181.953 389.4311,-187.4847 390.9084,-180.6424"/>
</g>
<!-- Node7 -->
<g id="node8" class="node">
<title>Node7</title>
<polygon fill="#ffffff" stroke="#bfbfbf" points="397.9385,-165.5 397.9385,-183.5 459.5244,-183.5 459.5244,-165.5 397.9385,-165.5"/>
<text text-anchor="middle" x="428.7314" y="-171.5" font-family="Helvetica,sans-Serif" font-size="10.00" fill="#000000">execinfo.h</text>
</g>
<!-- Node0&#45;&gt;Node7 -->
<g id="edge7" class="edge">
<title>Node0&#45;&gt;Node7</title>
<path fill="none" stroke="#191970" d="M680.2192,-223.5228C634.1976,-215.0138 547.4453,-198.7961 473.7314,-184 472.4544,-183.7437 471.1574,-183.4814 469.8482,-183.2151"/>
<polygon fill="#191970" stroke="#191970" points="470.2007,-179.7142 459.6999,-181.1224 468.787,-186.57 470.2007,-179.7142"/>
</g>
<!-- Node8 -->
<g id="node9" class="node">
<title>Node8</title>
<polygon fill="#ffffff" stroke="#bfbfbf" points="351.4458,-.5 351.4458,-18.5 398.0171,-18.5 398.0171,-.5 351.4458,-.5"/>
<text text-anchor="middle" x="374.7314" y="-6.5" font-family="Helvetica,sans-Serif" font-size="10.00" fill="#000000">math.h</text>
</g>
<!-- Node0&#45;&gt;Node8 -->
<g id="edge8" class="edge">
<title>Node0&#45;&gt;Node8</title>
<path fill="none" stroke="#191970" d="M680.3855,-226.0458C641.3936,-220.9335 574.6402,-209.1073 522.7314,-184 453.984,-150.7481 430.2662,-139.3368 390.7314,-74 382.4255,-60.2733 378.4221,-42.4269 376.4977,-28.9871"/>
<polygon fill="#191970" stroke="#191970" points="379.9585,-28.4474 375.3214,-18.9213 373.0059,-29.26 379.9585,-28.4474"/>
</g>
<!-- Node9 -->
<g id="node10" class="node">
<title>Node9</title>
<polygon fill="#ffffff" stroke="#bfbfbf" points="807.6035,-165.5 807.6035,-183.5 865.8594,-183.5 865.8594,-165.5 807.6035,-165.5"/>
<text text-anchor="middle" x="836.7314" y="-171.5" font-family="Helvetica,sans-Serif" font-size="10.00" fill="#000000">pthread.h</text>
</g>
<!-- Node0&#45;&gt;Node9 -->
<g id="edge9" class="edge">
<title>Node0&#45;&gt;Node9</title>
<path fill="none" stroke="#191970" d="M733.2075,-220.4179C753.3108,-211.5011 784.1937,-197.803 807.0002,-187.6873"/>
<polygon fill="#191970" stroke="#191970" points="808.5029,-190.8496 816.2249,-183.5956 805.6647,-184.4508 808.5029,-190.8496"/>
</g>
<!-- Node10 -->
<g id="node11" class="node">
<title>Node10</title>
<polygon fill="#ffffff" stroke="#bfbfbf" points="883.8892,-165.5 883.8892,-183.5 931.5737,-183.5 931.5737,-165.5 883.8892,-165.5"/>
<text text-anchor="middle" x="907.7314" y="-171.5" font-family="Helvetica,sans-Serif" font-size="10.00" fill="#000000">errno.h</text>
</g>
<!-- Node0&#45;&gt;Node10 -->
<g id="edge10" class="edge">
<title>Node0&#45;&gt;Node10</title>
<path fill="none" stroke="#191970" d="M745.0223,-220.4971C775.7507,-211.9152 823.5417,-198.5301 873.8348,-184.2431"/>
<polygon fill="#191970" stroke="#191970" points="874.9245,-187.572 883.5861,-181.4705 873.0101,-180.8389 874.9245,-187.572"/>
</g>
<!-- Node11 -->
<g id="node12" class="node">
<title>Node11</title>
<polygon fill="#ffffff" stroke="#bfbfbf" points="721.7217,-110.5 721.7217,-128.5 787.7412,-128.5 787.7412,-110.5 721.7217,-110.5"/>
<text text-anchor="middle" x="754.7314" y="-116.5" font-family="Helvetica,sans-Serif" font-size="10.00" fill="#000000">sys/types.h</text>
</g>
<!-- Node0&#45;&gt;Node11 -->
<g id="edge11" class="edge">
<title>Node0&#45;&gt;Node11</title>
<path fill="none" stroke="#191970" d="M716.1685,-220.4982C723.029,-202.5302 738.5441,-161.8954 747.666,-138.0046"/>
<polygon fill="#191970" stroke="#191970" points="750.9496,-139.2168 751.2469,-128.6261 744.4101,-136.7199 750.9496,-139.2168"/>
</g>
<!-- Node12 -->
<g id="node13" class="node">
<title>Node12</title>
<polygon fill="#ffffff" stroke="#bfbfbf" points="949.5542,-165.5 949.5542,-183.5 1003.9087,-183.5 1003.9087,-165.5 949.5542,-165.5"/>
<text text-anchor="middle" x="976.7314" y="-171.5" font-family="Helvetica,sans-Serif" font-size="10.00" fill="#000000">ifaddrs.h</text>
</g>
<!-- Node0&#45;&gt;Node12 -->
<g id="edge12" class="edge">
<title>Node0&#45;&gt;Node12</title>
<path fill="none" stroke="#191970" d="M744.9587,-223.71C787.3417,-215.9558 864.3408,-201.3892 939.1914,-184.2575"/>
<polygon fill="#191970" stroke="#191970" points="940.3,-187.5938 949.257,-181.9349 938.7261,-180.773 940.3,-187.5938"/>
</g>
<!-- Node13 -->
<g id="node14" class="node">
<title>Node13</title>
<polygon fill="#ffffff" stroke="#bfbfbf" points="1022.2217,-165.5 1022.2217,-183.5 1093.2412,-183.5 1093.2412,-165.5 1022.2217,-165.5"/>
<text text-anchor="middle" x="1057.7314" y="-171.5" font-family="Helvetica,sans-Serif" font-size="10.00" fill="#000000">sys/socket.h</text>
</g>
<!-- Node0&#45;&gt;Node13 -->
<g id="edge13" class="edge">
<title>Node0&#45;&gt;Node13</title>
<path fill="none" stroke="#191970" d="M745.2402,-225.1941C798.6805,-217.9806 908.6474,-202.5699 1011.9341,-184.058"/>
<polygon fill="#191970" stroke="#191970" points="1012.6879,-187.4786 1021.9066,-182.2571 1011.4438,-180.5901 1012.6879,-187.4786"/>
</g>
<!-- Node14 -->
<g id="node15" class="node">
<title>Node14</title>
<polygon fill="#ffffff" stroke="#bfbfbf" points="1111.1035,-165.5 1111.1035,-183.5 1174.3594,-183.5 1174.3594,-165.5 1111.1035,-165.5"/>
<text text-anchor="middle" x="1142.7314" y="-171.5" font-family="Helvetica,sans-Serif" font-size="10.00" fill="#000000">arpa/inet.h</text>
</g>
<!-- Node0&#45;&gt;Node14 -->
<g id="edge14" class="edge">
<title>Node0&#45;&gt;Node14</title>
<path fill="none" stroke="#191970" d="M745.0197,-227.0204C810.4688,-221.7184 963.5878,-207.9148 1101.0554,-184.138"/>
<polygon fill="#191970" stroke="#191970" points="1101.6787,-187.5822 1110.9246,-182.4088 1100.4706,-180.6872 1101.6787,-187.5822"/>
</g>
<!-- Node15 -->
<g id="node16" class="node">
<title>Node15</title>
<polygon fill="#ffffff" stroke="#bfbfbf" points="1192.2686,-165.5 1192.2686,-183.5 1257.1943,-183.5 1257.1943,-165.5 1192.2686,-165.5"/>
<text text-anchor="middle" x="1224.7314" y="-171.5" font-family="Helvetica,sans-Serif" font-size="10.00" fill="#000000">netinet/in.h</text>
</g>
<!-- Node0&#45;&gt;Node15 -->
<g id="edge15" class="edge">
<title>Node0&#45;&gt;Node15</title>
<path fill="none" stroke="#191970" d="M745.1846,-227.8376C820.3793,-223.6719 1012.4617,-211.2311 1182.029,-184.0989"/>
<polygon fill="#191970" stroke="#191970" points="1182.8239,-187.5158 1192.1346,-182.46 1181.7032,-180.6061 1182.8239,-187.5158"/>
</g>
<!-- Node16 -->
<g id="node17" class="node">
<title>Node16</title>
<g id="a_node17"><a xlink:href="osp__tcp_8h.html" target="_top" xlink:title="osp_tcp.h">
<polygon fill="#ffffff" stroke="#000000" points="654.0493,-165.5 654.0493,-183.5 713.4136,-183.5 713.4136,-165.5 654.0493,-165.5"/>
<text text-anchor="middle" x="683.7314" y="-171.5" font-family="Helvetica,sans-Serif" font-size="10.00" fill="#000000">osp_tcp.h</text>
</a>
</g>
</g>
<!-- Node0&#45;&gt;Node16 -->
<g id="edge16" class="edge">
<title>Node0&#45;&gt;Node16</title>
<path fill="none" stroke="#191970" d="M707.9427,-220.4179C703.9786,-212.8998 698.2224,-201.9829 693.3172,-192.6799"/>
<polygon fill="#191970" stroke="#191970" points="696.3844,-190.9927 688.6242,-183.7795 690.1924,-194.2576 696.3844,-190.9927"/>
</g>
<!-- Node18 -->
<g id="node19" class="node">
<title>Node18</title>
<g id="a_node19"><a xlink:href="constants_8h.html" target="_top" xlink:title="constants.h">
<polygon fill="#ffffff" stroke="#000000" points="642.1602,-.5 642.1602,-18.5 709.3027,-18.5 709.3027,-.5 642.1602,-.5"/>
<text text-anchor="middle" x="675.7314" y="-6.5" font-family="Helvetica,sans-Serif" font-size="10.00" fill="#000000">constants.h</text>
</a>
</g>
</g>
<!-- Node0&#45;&gt;Node18 -->
<g id="edge33" class="edge">
<title>Node0&#45;&gt;Node18</title>
<path fill="none" stroke="#191970" d="M727.8916,-220.2989C757.3917,-201.1398 817.8504,-154.9944 796.7314,-110 777.6764,-69.4027 733.2736,-39.5333 703.8866,-23.3348"/>
<polygon fill="#191970" stroke="#191970" points="705.3954,-20.173 694.9241,-18.5597 702.1038,-26.3509 705.3954,-20.173"/>
</g>
<!-- Node19 -->
<g id="node20" class="node">
<title>Node19</title>
<g id="a_node20"><a xlink:href="osp__process_8h.html" target="_top" xlink:title="osp_process.h">
<polygon fill="#ffffff" stroke="#000000" points="462.2119,-110.5 462.2119,-128.5 543.251,-128.5 543.251,-110.5 462.2119,-110.5"/>
<text text-anchor="middle" x="502.7314" y="-116.5" font-family="Helvetica,sans-Serif" font-size="10.00" fill="#000000">osp_process.h</text>
</a>
</g>
</g>
<!-- Node0&#45;&gt;Node19 -->
<g id="edge20" class="edge">
<title>Node0&#45;&gt;Node19</title>
<path fill="none" stroke="#191970" d="M680.4273,-223.6008C637.9819,-215.3732 566.294,-199.6901 544.7314,-184 528.7334,-172.3589 517.1914,-152.6076 510.3026,-138.0215"/>
<polygon fill="#191970" stroke="#191970" points="513.3447,-136.2449 506.1116,-128.5033 506.9382,-139.0658 513.3447,-136.2449"/>
</g>
<!-- Node23 -->
<g id="node24" class="node">
<title>Node23</title>
<g id="a_node24"><a xlink:href="resample_8h.html" target="_top" xlink:title="resample.h">
<polygon fill="#ffffff" stroke="#000000" points="1274.9976,-165.5 1274.9976,-183.5 1340.4653,-183.5 1340.4653,-165.5 1274.9976,-165.5"/>
<text text-anchor="middle" x="1307.7314" y="-171.5" font-family="Helvetica,sans-Serif" font-size="10.00" fill="#000000">resample.h</text>
</a>
</g>
</g>
<!-- Node0&#45;&gt;Node23 -->
<g id="edge28" class="edge">
<title>Node0&#45;&gt;Node23</title>
<path fill="none" stroke="#191970" d="M745.0184,-228.4272C829.0764,-225.2984 1061.688,-214.4928 1264.8431,-183.9257"/>
<polygon fill="#191970" stroke="#191970" points="1265.4415,-187.375 1274.7999,-182.4079 1264.3866,-180.4549 1265.4415,-187.375"/>
</g>
<!-- Node24 -->
<g id="node25" class="node">
<title>Node24</title>
<g id="a_node25"><a xlink:href="utilities_8h.html" target="_top" xlink:title="utilities.h">
<polygon fill="#ffffff" stroke="#000000" points="1358.2783,-165.5 1358.2783,-183.5 1413.1846,-183.5 1413.1846,-165.5 1358.2783,-165.5"/>
<text text-anchor="middle" x="1385.7314" y="-171.5" font-family="Helvetica,sans-Serif" font-size="10.00" fill="#000000">utilities.h</text>
</a>
</g>
</g>
<!-- Node0&#45;&gt;Node24 -->
<g id="edge29" class="edge">
<title>Node0&#45;&gt;Node24</title>
<path fill="none" stroke="#191970" d="M745.0916,-227.9896C854.7473,-222.7497 1212.5256,-204.6259 1347.8219,-184.0008"/>
<polygon fill="#191970" stroke="#191970" points="1348.6129,-187.4189 1357.9349,-182.3839 1347.5077,-180.5066 1348.6129,-187.4189"/>
</g>
<!-- Node25 -->
<g id="node26" class="node">
<title>Node25</title>
<g id="a_node26"><a xlink:href="port__wrapper_8h.html" target="_top" xlink:title="port_wrapper.h">
<polygon fill="#ffffff" stroke="#000000" points="553.3745,-165.5 553.3745,-183.5 636.0884,-183.5 636.0884,-165.5 553.3745,-165.5"/>
<text text-anchor="middle" x="594.7314" y="-171.5" font-family="Helvetica,sans-Serif" font-size="10.00" fill="#000000">port_wrapper.h</text>
</a>
</g>
</g>
<!-- Node0&#45;&gt;Node25 -->
<g id="edge30" class="edge">
<title>Node0&#45;&gt;Node25</title>
<path fill="none" stroke="#191970" d="M693.2461,-220.4179C674.201,-211.5409 644.9893,-197.9253 623.3152,-187.823"/>
<polygon fill="#191970" stroke="#191970" points="624.7881,-184.648 614.2457,-183.5956 621.8308,-190.9927 624.7881,-184.648"/>
</g>
<!-- Node27 -->
<g id="node28" class="node">
<title>Node27</title>
<g id="a_node28"><a xlink:href="osp_2logger_8h.html" target="_top" xlink:title="logger.h">
<polygon fill="#ffffff" stroke="#000000" points="1430.936,-165.5 1430.936,-183.5 1482.5269,-183.5 1482.5269,-165.5 1430.936,-165.5"/>
<text text-anchor="middle" x="1456.7314" y="-171.5" font-family="Helvetica,sans-Serif" font-size="10.00" fill="#000000">logger.h</text>
</a>
</g>
</g>
<!-- Node0&#45;&gt;Node27 -->
<g id="edge34" class="edge">
<title>Node0&#45;&gt;Node27</title>
<path fill="none" stroke="#191970" d="M744.9437,-228.2941C862.6168,-223.7581 1269.7834,-206.8829 1420.864,-183.7473"/>
<polygon fill="#191970" stroke="#191970" points="1421.5466,-187.1827 1430.8659,-182.1427 1420.4377,-180.2711 1421.5466,-187.1827"/>
</g>
<!-- Node16&#45;&gt;Node11 -->
<g id="edge19" class="edge">
<title>Node16&#45;&gt;Node11</title>
<path fill="none" stroke="#191970" d="M695.4557,-165.4179C706.0802,-157.1876 721.9631,-144.8839 734.6145,-135.0836"/>
<polygon fill="#191970" stroke="#191970" points="736.9904,-137.6704 742.7525,-128.7795 732.7036,-132.1365 736.9904,-137.6704"/>
</g>
<!-- Node17 -->
<g id="node18" class="node">
<title>Node17</title>
<polygon fill="#ffffff" stroke="#bfbfbf" points="554.9409,-.5 554.9409,-18.5 606.522,-18.5 606.522,-.5 554.9409,-.5"/>
<text text-anchor="middle" x="580.7314" y="-6.5" font-family="Helvetica,sans-Serif" font-size="10.00" fill="#000000">stddef.h</text>
</g>
<!-- Node16&#45;&gt;Node17 -->
<g id="edge17" class="edge">
<title>Node16&#45;&gt;Node17</title>
<path fill="none" stroke="#191970" d="M681.819,-165.3305C677.074,-144.208 663.1889,-91.1653 636.7314,-55 627.9772,-43.0337 615.3474,-32.4063 604.2969,-24.4378"/>
<polygon fill="#191970" stroke="#191970" points="606.0992,-21.4293 595.8774,-18.6424 602.1302,-27.1954 606.0992,-21.4293"/>
</g>
<!-- Node16&#45;&gt;Node18 -->
<g id="edge18" class="edge">
<title>Node16&#45;&gt;Node18</title>
<path fill="none" stroke="#191970" d="M683.2784,-165.1561C682.0078,-138.9504 678.3911,-64.3557 676.6673,-28.8021"/>
<polygon fill="#191970" stroke="#191970" points="680.1598,-28.5601 676.1795,-18.7414 673.168,-28.8992 680.1598,-28.5601"/>
</g>
<!-- Node19&#45;&gt;Node18 -->
<g id="edge23" class="edge">
<title>Node19&#45;&gt;Node18</title>
<path fill="none" stroke="#191970" d="M510.3839,-110.0507C521.8548,-96.3857 544.736,-70.9964 568.7314,-55 589.7561,-40.9841 615.8026,-29.7962 636.9331,-22.0219"/>
<polygon fill="#191970" stroke="#191970" points="638.3199,-25.2433 646.5631,-18.5873 635.9684,-18.65 638.3199,-25.2433"/>
</g>
<!-- Node20 -->
<g id="node21" class="node">
<title>Node20</title>
<g id="a_node21"><a xlink:href="coeffs_8h.html" target="_top" xlink:title="coeffs.h">
<polygon fill="#ffffff" stroke="#000000" points="577.3096,-55.5 577.3096,-73.5 628.1533,-73.5 628.1533,-55.5 577.3096,-55.5"/>
<text text-anchor="middle" x="602.7314" y="-61.5" font-family="Helvetica,sans-Serif" font-size="10.00" fill="#000000">coeffs.h</text>
</a>
</g>
</g>
<!-- Node19&#45;&gt;Node20 -->
<g id="edge21" class="edge">
<title>Node19&#45;&gt;Node20</title>
<path fill="none" stroke="#191970" d="M519.2444,-110.4179C535.0225,-101.7399 559.0343,-88.5334 577.2629,-78.5077"/>
<polygon fill="#191970" stroke="#191970" points="579.1185,-81.4816 586.1939,-73.5956 575.745,-75.3481 579.1185,-81.4816"/>
</g>
<!-- Node21 -->
<g id="node22" class="node">
<title>Node21</title>
<g id="a_node22"><a xlink:href="speech__enhancement_8h.html" target="_top" xlink:title="speech_enhancement.h">
<polygon fill="#ffffff" stroke="#000000" points="399.3574,-55.5 399.3574,-73.5 522.1055,-73.5 522.1055,-55.5 399.3574,-55.5"/>
<text text-anchor="middle" x="460.7314" y="-61.5" font-family="Helvetica,sans-Serif" font-size="10.00" fill="#000000">speech_enhancement.h</text>
</a>
</g>
</g>
<!-- Node19&#45;&gt;Node21 -->
<g id="edge24" class="edge">
<title>Node19&#45;&gt;Node21</title>
<path fill="none" stroke="#191970" d="M495.796,-110.4179C489.8736,-102.6624 481.1893,-91.29 473.945,-81.8035"/>
<polygon fill="#191970" stroke="#191970" points="476.6684,-79.6029 467.8176,-73.7795 471.1051,-83.8514 476.6684,-79.6029"/>
</g>
<!-- Node20&#45;&gt;Node18 -->
<g id="edge22" class="edge">
<title>Node20&#45;&gt;Node18</title>
<path fill="none" stroke="#191970" d="M614.7859,-55.4179C625.8148,-47.1084 642.3546,-34.6469 655.4221,-24.8015"/>
<polygon fill="#191970" stroke="#191970" points="657.5343,-27.5924 663.4151,-18.7795 653.3221,-22.0016 657.5343,-27.5924"/>
</g>
<!-- Node21&#45;&gt;Node8 -->
<g id="edge25" class="edge">
<title>Node21&#45;&gt;Node8</title>
<path fill="none" stroke="#191970" d="M446.5303,-55.4179C433.2101,-46.8992 413.0664,-34.0166 397.5023,-24.0627"/>
<polygon fill="#191970" stroke="#191970" points="399.2639,-21.0348 388.9537,-18.5956 395.4925,-26.932 399.2639,-21.0348"/>
</g>
<!-- Node21&#45;&gt;Node17 -->
<g id="edge26" class="edge">
<title>Node21&#45;&gt;Node17</title>
<path fill="none" stroke="#191970" d="M480.547,-55.4179C499.915,-46.5409 529.6218,-32.9253 551.6632,-22.823"/>
<polygon fill="#191970" stroke="#191970" points="553.2541,-25.944 560.8864,-18.5956 550.3375,-19.5805 553.2541,-25.944"/>
</g>
<!-- Node22 -->
<g id="node23" class="node">
<title>Node22</title>
<g id="a_node23"><a xlink:href="array__utilities_8h.html" target="_top" xlink:title="array_utilities.h">
<polygon fill="#ffffff" stroke="#000000" points="419.106,-.5 419.106,-18.5 502.3569,-18.5 502.3569,-.5 419.106,-.5"/>
<text text-anchor="middle" x="460.7314" y="-6.5" font-family="Helvetica,sans-Serif" font-size="10.00" fill="#000000">array_utilities.h</text>
</a>
</g>
</g>
<!-- Node21&#45;&gt;Node22 -->
<g id="edge27" class="edge">
<title>Node21&#45;&gt;Node22</title>
<path fill="none" stroke="#191970" d="M460.7314,-55.4179C460.7314,-48.2164 460.7314,-37.8962 460.7314,-28.8632"/>
<polygon fill="#191970" stroke="#191970" points="464.2315,-28.7794 460.7314,-18.7795 457.2315,-28.7795 464.2315,-28.7794"/>
</g>
<!-- Node25&#45;&gt;Node19 -->
<g id="edge32" class="edge">
<title>Node25&#45;&gt;Node19</title>
<path fill="none" stroke="#191970" d="M579.5395,-165.4179C565.1569,-156.8195 543.3375,-143.7754 526.6254,-133.7844"/>
<polygon fill="#191970" stroke="#191970" points="528.3251,-130.7228 517.9459,-128.5956 524.7332,-136.731 528.3251,-130.7228"/>
</g>
<!-- Node26 -->
<g id="node27" class="node">
<title>Node26</title>
<polygon fill="#ffffff" stroke="#bfbfbf" points="561.7119,-110.5 561.7119,-128.5 627.751,-128.5 627.751,-110.5 561.7119,-110.5"/>
<text text-anchor="middle" x="594.7314" y="-116.5" font-family="Helvetica,sans-Serif" font-size="10.00" fill="#000000">portaudio.h</text>
</g>
<!-- Node25&#45;&gt;Node26 -->
<g id="edge31" class="edge">
<title>Node25&#45;&gt;Node26</title>
<path fill="none" stroke="#191970" d="M594.7314,-165.4179C594.7314,-158.2164 594.7314,-147.8962 594.7314,-138.8632"/>
<polygon fill="#191970" stroke="#191970" points="598.2315,-138.7794 594.7314,-128.7795 591.2315,-138.7795 598.2315,-138.7794"/>
</g>
</g>
</svg>
