<?xml version="1.0" encoding="UTF-8" standalone="no"?>
<!DOCTYPE svg PUBLIC "-//W3C//DTD SVG 1.1//EN"
 "http://www.w3.org/Graphics/SVG/1.1/DTD/svg11.dtd">
<!-- Generated by graphviz version 2.40.1 (20161225.0304)
 -->
<!-- Title: libosp/wdrc/mpo.c Pages: 1 -->
<svg width="120pt" height="137pt"
 viewBox="0.00 0.00 120.08 137.00" xmlns="http://www.w3.org/2000/svg" xmlns:xlink="http://www.w3.org/1999/xlink">
<g id="graph0" class="graph" transform="scale(1 1) rotate(0) translate(4 133)">
<title>libosp/wdrc/mpo.c</title>
<polygon fill="#ffffff" stroke="transparent" points="-4,4 -4,-133 116.0762,-133 116.0762,4 -4,4"/>
<!-- Node0 -->
<g id="node1" class="node">
<title>Node0</title>
<polygon fill="#bfbfbf" stroke="#000000" points="8.7759,-110.5 8.7759,-128.5 104.8052,-128.5 104.8052,-110.5 8.7759,-110.5"/>
<text text-anchor="middle" x="56.7905" y="-116.5" font-family="Helvetica,sans-Serif" font-size="10.00" fill="#000000">libosp/wdrc/mpo.c</text>
</g>
<!-- Node1 -->
<g id="node2" class="node">
<title>Node1</title>
<g id="a_node2"><a xlink:href="mpo_8h.html" target="_top" xlink:title="mpo.h">
<polygon fill="#ffffff" stroke="#000000" points="3.894,-55.5 3.894,-73.5 47.687,-73.5 47.687,-55.5 3.894,-55.5"/>
<text text-anchor="middle" x="25.7905" y="-61.5" font-family="Helvetica,sans-Serif" font-size="10.00" fill="#000000">mpo.h</text>
</a>
</g>
</g>
<!-- Node0&#45;&gt;Node1 -->
<g id="edge1" class="edge">
<title>Node0&#45;&gt;Node1</title>
<path fill="none" stroke="#191970" d="M51.6715,-110.4179C47.4341,-102.8998 41.2809,-91.9829 36.0374,-82.6799"/>
<polygon fill="#191970" stroke="#191970" points="38.98,-80.7724 31.0208,-73.7795 32.8819,-84.2096 38.98,-80.7724"/>
</g>
<!-- Node3 -->
<g id="node4" class="node">
<title>Node3</title>
<polygon fill="#ffffff" stroke="#bfbfbf" points="65.5049,-55.5 65.5049,-73.5 112.0762,-73.5 112.0762,-55.5 65.5049,-55.5"/>
<text text-anchor="middle" x="88.7905" y="-61.5" font-family="Helvetica,sans-Serif" font-size="10.00" fill="#000000">math.h</text>
</g>
<!-- Node0&#45;&gt;Node3 -->
<g id="edge3" class="edge">
<title>Node0&#45;&gt;Node3</title>
<path fill="none" stroke="#191970" d="M62.0747,-110.4179C66.4488,-102.8998 72.8005,-91.9829 78.2132,-82.6799"/>
<polygon fill="#191970" stroke="#191970" points="81.3878,-84.1831 83.3916,-73.7795 75.3374,-80.6628 81.3878,-84.1831"/>
</g>
<!-- Node2 -->
<g id="node3" class="node">
<title>Node2</title>
<polygon fill="#ffffff" stroke="#bfbfbf" points="0,-.5 0,-18.5 51.5811,-18.5 51.5811,-.5 0,-.5"/>
<text text-anchor="middle" x="25.7905" y="-6.5" font-family="Helvetica,sans-Serif" font-size="10.00" fill="#000000">stddef.h</text>
</g>
<!-- Node1&#45;&gt;Node2 -->
<g id="edge2" class="edge">
<title>Node1&#45;&gt;Node2</title>
<path fill="none" stroke="#191970" d="M25.7905,-55.4179C25.7905,-48.2164 25.7905,-37.8962 25.7905,-28.8632"/>
<polygon fill="#191970" stroke="#191970" points="29.2906,-28.7794 25.7905,-18.7795 22.2906,-28.7795 29.2906,-28.7794"/>
</g>
</g>
</svg>
