<?xml version="1.0" encoding="UTF-8" standalone="no"?>
<!DOCTYPE svg PUBLIC "-//W3C//DTD SVG 1.1//EN"
 "http://www.w3.org/Graphics/SVG/1.1/DTD/svg11.dtd">
<!-- Generated by graphviz version 2.40.1 (20161225.0304)
 -->
<!-- Title: libosp/wdrc/mpo.h Pages: 1 -->
<svg width="224pt" height="92pt"
 viewBox="0.00 0.00 223.82 92.00" xmlns="http://www.w3.org/2000/svg" xmlns:xlink="http://www.w3.org/1999/xlink">
<g id="graph0" class="graph" transform="scale(1 1) rotate(0) translate(4 88)">
<title>libosp/wdrc/mpo.h</title>
<polygon fill="#ffffff" stroke="transparent" points="-4,4 -4,-88 219.8174,-88 219.8174,4 -4,4"/>
<!-- Node2 -->
<g id="node1" class="node">
<title>Node2</title>
<polygon fill="#bfbfbf" stroke="#000000" points="60.5073,-65.5 60.5073,-83.5 157.0981,-83.5 157.0981,-65.5 60.5073,-65.5"/>
<text text-anchor="middle" x="108.8027" y="-71.5" font-family="Helvetica,sans-Serif" font-size="10.00" fill="#000000">libosp/wdrc/mpo.h</text>
</g>
<!-- Node3 -->
<g id="node2" class="node">
<title>Node3</title>
<g id="a_node2"><a xlink:href="osp__process_8c.html" target="_top" xlink:title="libosp/osp_process\l/osp_process.c">
<polygon fill="#ffffff" stroke="#000000" points="0,-.5 0,-28.5 101.6055,-28.5 101.6055,-.5 0,-.5"/>
<text text-anchor="start" x="8" y="-16.5" font-family="Helvetica,sans-Serif" font-size="10.00" fill="#000000">libosp/osp_process</text>
<text text-anchor="middle" x="50.8027" y="-6.5" font-family="Helvetica,sans-Serif" font-size="10.00" fill="#000000">/osp_process.c</text>
</a>
</g>
</g>
<!-- Node2&#45;&gt;Node3 -->
<g id="edge1" class="edge">
<title>Node2&#45;&gt;Node3</title>
<path fill="none" stroke="#191970" d="M92.8682,-58.016C84.0336,-48.8768 73.1537,-37.6216 64.6721,-28.8477"/>
<polygon fill="#191970" stroke="#191970" points="90.5271,-60.63 99.9938,-65.3873 95.56,-55.7648 90.5271,-60.63"/>
</g>
<!-- Node4 -->
<g id="node3" class="node">
<title>Node4</title>
<g id="a_node3"><a xlink:href="mpo_8c.html" target="_top" xlink:title="libosp/wdrc/mpo.c">
<polygon fill="#ffffff" stroke="#000000" points="119.7881,-5.5 119.7881,-23.5 215.8174,-23.5 215.8174,-5.5 119.7881,-5.5"/>
<text text-anchor="middle" x="167.8027" y="-11.5" font-family="Helvetica,sans-Serif" font-size="10.00" fill="#000000">libosp/wdrc/mpo.c</text>
</a>
</g>
</g>
<!-- Node2&#45;&gt;Node4 -->
<g id="edge2" class="edge">
<title>Node2&#45;&gt;Node4</title>
<path fill="none" stroke="#191970" d="M125.0267,-58.0011C135.8957,-46.9478 149.8029,-32.8049 158.7576,-23.6985"/>
<polygon fill="#191970" stroke="#191970" points="122.2794,-55.803 117.7636,-65.3873 127.2706,-60.711 122.2794,-55.803"/>
</g>
</g>
</svg>
