<?xml version="1.0" encoding="UTF-8" standalone="no"?>
<!DOCTYPE svg PUBLIC "-//W3C//DTD SVG 1.1//EN"
 "http://www.w3.org/Graphics/SVG/1.1/DTD/svg11.dtd">
<!-- Generated by graphviz version 2.40.1 (20161225.0304)
 -->
<!-- Title: libosp/osp_process/osp_process.h Pages: 1 -->
<svg width="310pt" height="147pt"
 viewBox="0.00 0.00 310.20 147.00" xmlns="http://www.w3.org/2000/svg" xmlns:xlink="http://www.w3.org/1999/xlink">
<g id="graph0" class="graph" transform="scale(1 1) rotate(0) translate(4 143)">
<title>libosp/osp_process/osp_process.h</title>
<polygon fill="#ffffff" stroke="transparent" points="-4,4 -4,-143 306.1968,-143 306.1968,4 -4,4"/>
<!-- Node0 -->
<g id="node1" class="node">
<title>Node0</title>
<polygon fill="#bfbfbf" stroke="#000000" points="35.7686,-110.5 35.7686,-138.5 137.374,-138.5 137.374,-110.5 35.7686,-110.5"/>
<text text-anchor="start" x="43.7686" y="-126.5" font-family="Helvetica,sans-Serif" font-size="10.00" fill="#000000">libosp/osp_process</text>
<text text-anchor="middle" x="86.5713" y="-116.5" font-family="Helvetica,sans-Serif" font-size="10.00" fill="#000000">/osp_process.h</text>
</g>
<!-- Node1 -->
<g id="node2" class="node">
<title>Node1</title>
<g id="a_node2"><a xlink:href="coeffs_8h.html" target="_top" xlink:title="coeffs.h">
<polygon fill="#ffffff" stroke="#000000" points="8.1494,-55.5 8.1494,-73.5 58.9932,-73.5 58.9932,-55.5 8.1494,-55.5"/>
<text text-anchor="middle" x="33.5713" y="-61.5" font-family="Helvetica,sans-Serif" font-size="10.00" fill="#000000">coeffs.h</text>
</a>
</g>
</g>
<!-- Node0&#45;&gt;Node1 -->
<g id="edge1" class="edge">
<title>Node0&#45;&gt;Node1</title>
<path fill="none" stroke="#191970" d="M74.011,-110.2808C66.3238,-101.5784 56.4489,-90.3992 48.3816,-81.2664"/>
<polygon fill="#191970" stroke="#191970" points="50.8392,-78.7618 41.5957,-73.5842 45.5929,-83.3961 50.8392,-78.7618"/>
</g>
<!-- Node2 -->
<g id="node3" class="node">
<title>Node2</title>
<g id="a_node3"><a xlink:href="constants_8h.html" target="_top" xlink:title="constants.h">
<polygon fill="#ffffff" stroke="#000000" points="0,-.5 0,-18.5 67.1426,-18.5 67.1426,-.5 0,-.5"/>
<text text-anchor="middle" x="33.5713" y="-6.5" font-family="Helvetica,sans-Serif" font-size="10.00" fill="#000000">constants.h</text>
</a>
</g>
</g>
<!-- Node0&#45;&gt;Node2 -->
<g id="edge3" class="edge">
<title>Node0&#45;&gt;Node2</title>
<path fill="none" stroke="#191970" d="M84.3149,-110.3669C81.6455,-95.9197 76.409,-73.0963 67.5713,-55 62.561,-44.7407 55.128,-34.4544 48.4887,-26.2641"/>
<polygon fill="#191970" stroke="#191970" points="51.1199,-23.9552 41.9919,-18.5766 45.7735,-28.4736 51.1199,-23.9552"/>
</g>
<!-- Node3 -->
<g id="node4" class="node">
<title>Node3</title>
<g id="a_node4"><a xlink:href="speech__enhancement_8h.html" target="_top" xlink:title="speech_enhancement.h">
<polygon fill="#ffffff" stroke="#000000" points="114.1973,-55.5 114.1973,-73.5 236.9453,-73.5 236.9453,-55.5 114.1973,-55.5"/>
<text text-anchor="middle" x="175.5713" y="-61.5" font-family="Helvetica,sans-Serif" font-size="10.00" fill="#000000">speech_enhancement.h</text>
</a>
</g>
</g>
<!-- Node0&#45;&gt;Node3 -->
<g id="edge4" class="edge">
<title>Node0&#45;&gt;Node3</title>
<path fill="none" stroke="#191970" d="M107.663,-110.2808C121.4938,-100.9568 139.5418,-88.7895 153.5552,-79.3423"/>
<polygon fill="#191970" stroke="#191970" points="155.7612,-82.0763 162.0964,-73.5842 151.8482,-76.272 155.7612,-82.0763"/>
</g>
<!-- Node1&#45;&gt;Node2 -->
<g id="edge2" class="edge">
<title>Node1&#45;&gt;Node2</title>
<path fill="none" stroke="#191970" d="M33.5713,-55.4179C33.5713,-48.2164 33.5713,-37.8962 33.5713,-28.8632"/>
<polygon fill="#191970" stroke="#191970" points="37.0714,-28.7794 33.5713,-18.7795 30.0714,-28.7795 37.0714,-28.7794"/>
</g>
<!-- Node4 -->
<g id="node5" class="node">
<title>Node4</title>
<polygon fill="#ffffff" stroke="#bfbfbf" points="85.2856,-.5 85.2856,-18.5 131.8569,-18.5 131.8569,-.5 85.2856,-.5"/>
<text text-anchor="middle" x="108.5713" y="-6.5" font-family="Helvetica,sans-Serif" font-size="10.00" fill="#000000">math.h</text>
</g>
<!-- Node3&#45;&gt;Node4 -->
<g id="edge5" class="edge">
<title>Node3&#45;&gt;Node4</title>
<path fill="none" stroke="#191970" d="M164.5076,-55.4179C154.578,-47.2667 139.7813,-35.1201 127.9001,-25.3669"/>
<polygon fill="#191970" stroke="#191970" points="129.8254,-22.4192 119.8754,-18.7795 125.3839,-27.8297 129.8254,-22.4192"/>
</g>
<!-- Node5 -->
<g id="node6" class="node">
<title>Node5</title>
<polygon fill="#ffffff" stroke="#bfbfbf" points="149.7808,-.5 149.7808,-18.5 201.3618,-18.5 201.3618,-.5 149.7808,-.5"/>
<text text-anchor="middle" x="175.5713" y="-6.5" font-family="Helvetica,sans-Serif" font-size="10.00" fill="#000000">stddef.h</text>
</g>
<!-- Node3&#45;&gt;Node5 -->
<g id="edge6" class="edge">
<title>Node3&#45;&gt;Node5</title>
<path fill="none" stroke="#191970" d="M175.5713,-55.4179C175.5713,-48.2164 175.5713,-37.8962 175.5713,-28.8632"/>
<polygon fill="#191970" stroke="#191970" points="179.0714,-28.7794 175.5713,-18.7795 172.0714,-28.7795 179.0714,-28.7794"/>
</g>
<!-- Node6 -->
<g id="node7" class="node">
<title>Node6</title>
<g id="a_node7"><a xlink:href="array__utilities_8h.html" target="_top" xlink:title="array_utilities.h">
<polygon fill="#ffffff" stroke="#000000" points="218.9458,-.5 218.9458,-18.5 302.1968,-18.5 302.1968,-.5 218.9458,-.5"/>
<text text-anchor="middle" x="260.5713" y="-6.5" font-family="Helvetica,sans-Serif" font-size="10.00" fill="#000000">array_utilities.h</text>
</a>
</g>
</g>
<!-- Node3&#45;&gt;Node6 -->
<g id="edge7" class="edge">
<title>Node3&#45;&gt;Node6</title>
<path fill="none" stroke="#191970" d="M189.6073,-55.4179C202.7726,-46.8992 222.6821,-34.0166 238.0653,-24.0627"/>
<polygon fill="#191970" stroke="#191970" points="240.0201,-26.9667 246.5144,-18.5956 236.2173,-21.0897 240.0201,-26.9667"/>
</g>
</g>
</svg>
