<?xml version="1.0" encoding="UTF-8" standalone="no"?>
<!DOCTYPE svg PUBLIC "-//W3C//DTD SVG 1.1//EN"
 "http://www.w3.org/Graphics/SVG/1.1/DTD/svg11.dtd">
<!-- Generated by graphviz version 2.40.1 (20161225.0304)
 -->
<!-- Title: libosp/osp_tcp/osp_tcp.h Pages: 1 -->
<svg width="190pt" height="102pt"
 viewBox="0.00 0.00 189.59 102.00" xmlns="http://www.w3.org/2000/svg" xmlns:xlink="http://www.w3.org/1999/xlink">
<g id="graph0" class="graph" transform="scale(1 1) rotate(0) translate(4 98)">
<title>libosp/osp_tcp/osp_tcp.h</title>
<polygon fill="#ffffff" stroke="transparent" points="-4,4 -4,-98 185.5933,-98 185.5933,4 -4,4"/>
<!-- Node8 -->
<g id="node1" class="node">
<title>Node8</title>
<polygon fill="#bfbfbf" stroke="#000000" points="32.7612,-65.5 32.7612,-93.5 131.5933,-93.5 131.5933,-65.5 32.7612,-65.5"/>
<text text-anchor="start" x="40.7612" y="-81.5" font-family="Helvetica,sans-Serif" font-size="10.00" fill="#000000">libosp/osp_tcp/osp</text>
<text text-anchor="middle" x="82.1772" y="-71.5" font-family="Helvetica,sans-Serif" font-size="10.00" fill="#000000">_tcp.h</text>
</g>
<!-- Node9 -->
<g id="node2" class="node">
<title>Node9</title>
<g id="a_node2"><a xlink:href="main_8c.html" target="_top" xlink:title="osp/main.c">
<polygon fill="#ffffff" stroke="#000000" points="0,-5.5 0,-23.5 64.3545,-23.5 64.3545,-5.5 0,-5.5"/>
<text text-anchor="middle" x="32.1772" y="-11.5" font-family="Helvetica,sans-Serif" font-size="10.00" fill="#000000">osp/main.c</text>
</a>
</g>
</g>
<!-- Node8&#45;&gt;Node9 -->
<g id="edge1" class="edge">
<title>Node8&#45;&gt;Node9</title>
<path fill="none" stroke="#191970" d="M65.1892,-57.4155C56.2884,-45.8445 45.8724,-32.3037 39.1575,-23.5743"/>
<polygon fill="#191970" stroke="#191970" points="62.4567,-59.6037 71.328,-65.396 68.005,-55.3357 62.4567,-59.6037"/>
</g>
<!-- Node10 -->
<g id="node3" class="node">
<title>Node10</title>
<g id="a_node3"><a xlink:href="osp__tcp_8c.html" target="_top" xlink:title="libosp/osp_tcp/osp\l_tcp.c">
<polygon fill="#ffffff" stroke="#000000" points="82.7612,-.5 82.7612,-28.5 181.5933,-28.5 181.5933,-.5 82.7612,-.5"/>
<text text-anchor="start" x="90.7612" y="-16.5" font-family="Helvetica,sans-Serif" font-size="10.00" fill="#000000">libosp/osp_tcp/osp</text>
<text text-anchor="middle" x="132.1772" y="-6.5" font-family="Helvetica,sans-Serif" font-size="10.00" fill="#000000">_tcp.c</text>
</a>
</g>
</g>
<!-- Node8&#45;&gt;Node10 -->
<g id="edge2" class="edge">
<title>Node8&#45;&gt;Node10</title>
<path fill="none" stroke="#191970" d="M99.1409,-57.4472C106.486,-47.8986 114.8667,-37.0037 121.3492,-28.5765"/>
<polygon fill="#191970" stroke="#191970" points="96.3495,-55.3357 93.0265,-65.396 101.8978,-59.6037 96.3495,-55.3357"/>
</g>
</g>
</svg>
