<?xml version="1.0" encoding="UTF-8" standalone="no"?>
<!DOCTYPE svg PUBLIC "-//W3C//DTD SVG 1.1//EN"
 "http://www.w3.org/Graphics/SVG/1.1/DTD/svg11.dtd">
<!-- Generated by graphviz version 2.40.1 (20161225.0304)
 -->
<!-- Title: libosp/osp_process/osp_process.c Pages: 1 -->
<svg width="954pt" height="202pt"
 viewBox="0.00 0.00 954.15 202.00" xmlns="http://www.w3.org/2000/svg" xmlns:xlink="http://www.w3.org/1999/xlink">
<g id="graph0" class="graph" transform="scale(1 1) rotate(0) translate(4 198)">
<title>libosp/osp_process/osp_process.c</title>
<polygon fill="#ffffff" stroke="transparent" points="-4,4 -4,-198 950.145,-198 950.145,4 -4,4"/>
<!-- Node0 -->
<g id="node1" class="node">
<title>Node0</title>
<polygon fill="#bfbfbf" stroke="#000000" points="385.9287,-165.5 385.9287,-193.5 487.5342,-193.5 487.5342,-165.5 385.9287,-165.5"/>
<text text-anchor="start" x="393.9287" y="-181.5" font-family="Helvetica,sans-Serif" font-size="10.00" fill="#000000">libosp/osp_process</text>
<text text-anchor="middle" x="436.7314" y="-171.5" font-family="Helvetica,sans-Serif" font-size="10.00" fill="#000000">/osp_process.c</text>
</g>
<!-- Node1 -->
<g id="node2" class="node">
<title>Node1</title>
<polygon fill="#ffffff" stroke="#bfbfbf" points="0,-55.5 0,-73.5 45.4629,-73.5 45.4629,-55.5 0,-55.5"/>
<text text-anchor="middle" x="22.7314" y="-61.5" font-family="Helvetica,sans-Serif" font-size="10.00" fill="#000000">stdio.h</text>
</g>
<!-- Node0&#45;&gt;Node1 -->
<g id="edge1" class="edge">
<title>Node0&#45;&gt;Node1</title>
<path fill="none" stroke="#191970" d="M385.7624,-176.6707C282.0894,-170.4217 54.3364,-153.9855 29.7314,-129 18.2692,-117.3605 17.5477,-98.2077 19.0758,-83.7903"/>
<polygon fill="#191970" stroke="#191970" points="22.539,-84.2961 20.5424,-73.8911 15.6146,-83.2702 22.539,-84.2961"/>
</g>
<!-- Node2 -->
<g id="node3" class="node">
<title>Node2</title>
<polygon fill="#ffffff" stroke="#bfbfbf" points="83.8892,-55.5 83.8892,-73.5 131.5737,-73.5 131.5737,-55.5 83.8892,-55.5"/>
<text text-anchor="middle" x="107.7314" y="-61.5" font-family="Helvetica,sans-Serif" font-size="10.00" fill="#000000">stdlib.h</text>
</g>
<!-- Node0&#45;&gt;Node2 -->
<g id="edge2" class="edge">
<title>Node0&#45;&gt;Node2</title>
<path fill="none" stroke="#191970" d="M385.8291,-173.4288C338.5774,-166.5957 266.9654,-153.1521 208.7314,-129 178.2334,-116.3512 146.7347,-94.5984 127.1958,-79.8894"/>
<polygon fill="#191970" stroke="#191970" points="129.1715,-76.9939 119.1066,-73.685 124.9113,-82.5482 129.1715,-76.9939"/>
</g>
<!-- Node3 -->
<g id="node4" class="node">
<title>Node3</title>
<polygon fill="#ffffff" stroke="#bfbfbf" points="108.335,-110.5 108.335,-128.5 157.1279,-128.5 157.1279,-110.5 108.335,-110.5"/>
<text text-anchor="middle" x="132.7314" y="-116.5" font-family="Helvetica,sans-Serif" font-size="10.00" fill="#000000">string.h</text>
</g>
<!-- Node0&#45;&gt;Node3 -->
<g id="edge3" class="edge">
<title>Node0&#45;&gt;Node3</title>
<path fill="none" stroke="#191970" d="M385.5603,-170.6842C331.8703,-161.2245 245.1059,-145.3427 170.7314,-129 169.4986,-128.7291 168.2447,-128.4475 166.9793,-128.1583"/>
<polygon fill="#191970" stroke="#191970" points="167.7506,-124.7442 157.2125,-125.8395 166.1336,-131.5548 167.7506,-124.7442"/>
</g>
<!-- Node4 -->
<g id="node5" class="node">
<title>Node4</title>
<g id="a_node5"><a xlink:href="constants_8h.html" target="_top" xlink:title="constants.h">
<polygon fill="#ffffff" stroke="#000000" points="367.1602,-.5 367.1602,-18.5 434.3027,-18.5 434.3027,-.5 367.1602,-.5"/>
<text text-anchor="middle" x="400.7314" y="-6.5" font-family="Helvetica,sans-Serif" font-size="10.00" fill="#000000">constants.h</text>
</a>
</g>
</g>
<!-- Node0&#45;&gt;Node4 -->
<g id="edge4" class="edge">
<title>Node0&#45;&gt;Node4</title>
<path fill="none" stroke="#191970" d="M439.2778,-165.2002C442.8897,-141.5329 447.7189,-93.0531 434.7314,-55 431.0909,-44.3332 423.9237,-34.1214 417.1046,-26.0846"/>
<polygon fill="#191970" stroke="#191970" points="419.598,-23.6239 410.2869,-18.5689 414.4133,-28.3271 419.598,-23.6239"/>
</g>
<!-- Node5 -->
<g id="node6" class="node">
<title>Node5</title>
<g id="a_node6"><a xlink:href="libosp_2osp__process_2logger_8h.html" target="_top" xlink:title="logger.h">
<polygon fill="#ffffff" stroke="#000000" points="38.936,-110.5 38.936,-128.5 90.5269,-128.5 90.5269,-110.5 38.936,-110.5"/>
<text text-anchor="middle" x="64.7314" y="-116.5" font-family="Helvetica,sans-Serif" font-size="10.00" fill="#000000">logger.h</text>
</a>
</g>
</g>
<!-- Node0&#45;&gt;Node5 -->
<g id="edge5" class="edge">
<title>Node0&#45;&gt;Node5</title>
<path fill="none" stroke="#191970" d="M385.8763,-173.7499C321.6186,-166.0708 207.5037,-151.0598 100.6301,-128.9821"/>
<polygon fill="#191970" stroke="#191970" points="101.1485,-125.5149 90.6437,-126.8938 99.7156,-132.3667 101.1485,-125.5149"/>
</g>
<!-- Node6 -->
<g id="node7" class="node">
<title>Node6</title>
<g id="a_node7"><a xlink:href="speech__enhancement_8h.html" target="_top" xlink:title="speech_enhancement.h">
<polygon fill="#ffffff" stroke="#000000" points="197.3574,-55.5 197.3574,-73.5 320.1055,-73.5 320.1055,-55.5 197.3574,-55.5"/>
<text text-anchor="middle" x="258.7314" y="-61.5" font-family="Helvetica,sans-Serif" font-size="10.00" fill="#000000">speech_enhancement.h</text>
</a>
</g>
</g>
<!-- Node0&#45;&gt;Node6 -->
<g id="edge8" class="edge">
<title>Node0&#45;&gt;Node6</title>
<path fill="none" stroke="#191970" d="M385.6954,-168.3957C345.8886,-158.7919 294.8923,-144.107 279.7314,-129 267.7515,-117.0626 262.6039,-98.2207 260.3931,-83.9774"/>
<polygon fill="#191970" stroke="#191970" points="263.8343,-83.2757 259.1753,-73.7602 256.8835,-84.1042 263.8343,-83.2757"/>
</g>
<!-- Node9 -->
<g id="node10" class="node">
<title>Node9</title>
<g id="a_node10"><a xlink:href="array__utilities_8h.html" target="_top" xlink:title="array_utilities.h">
<polygon fill="#ffffff" stroke="#000000" points="131.106,-.5 131.106,-18.5 214.3569,-18.5 214.3569,-.5 131.106,-.5"/>
<text text-anchor="middle" x="172.7314" y="-6.5" font-family="Helvetica,sans-Serif" font-size="10.00" fill="#000000">array_utilities.h</text>
</a>
</g>
</g>
<!-- Node0&#45;&gt;Node9 -->
<g id="edge22" class="edge">
<title>Node0&#45;&gt;Node9</title>
<path fill="none" stroke="#191970" d="M385.7474,-169.3463C350.5999,-161.2057 303.4303,-147.9815 264.7314,-129 227.2971,-110.6387 212.0587,-108.5587 188.7314,-74 179.6543,-60.5525 175.7217,-42.4161 174.0206,-28.7999"/>
<polygon fill="#191970" stroke="#191970" points="177.4843,-28.2511 173.0526,-18.6277 170.5157,-28.9143 177.4843,-28.2511"/>
</g>
<!-- Node10 -->
<g id="node11" class="node">
<title>Node10</title>
<g id="a_node11"><a xlink:href="osp__process_8h.html" target="_top" xlink:title="osp_process.h">
<polygon fill="#ffffff" stroke="#000000" points="289.2119,-110.5 289.2119,-128.5 370.251,-128.5 370.251,-110.5 289.2119,-110.5"/>
<text text-anchor="middle" x="329.7314" y="-116.5" font-family="Helvetica,sans-Serif" font-size="10.00" fill="#000000">osp_process.h</text>
</a>
</g>
</g>
<!-- Node0&#45;&gt;Node10 -->
<g id="edge12" class="edge">
<title>Node0&#45;&gt;Node10</title>
<path fill="none" stroke="#191970" d="M411.6447,-165.4327C394.55,-155.8468 372.003,-143.2037 354.8925,-133.609"/>
<polygon fill="#191970" stroke="#191970" points="356.4493,-130.4693 346.0152,-128.6311 353.0256,-136.5749 356.4493,-130.4693"/>
</g>
<!-- Node11 -->
<g id="node12" class="node">
<title>Node11</title>
<g id="a_node12"><a xlink:href="coeffs_8h.html" target="_top" xlink:title="coeffs.h">
<polygon fill="#ffffff" stroke="#000000" points="375.3096,-55.5 375.3096,-73.5 426.1533,-73.5 426.1533,-55.5 375.3096,-55.5"/>
<text text-anchor="middle" x="400.7314" y="-61.5" font-family="Helvetica,sans-Serif" font-size="10.00" fill="#000000">coeffs.h</text>
</a>
</g>
</g>
<!-- Node0&#45;&gt;Node11 -->
<g id="edge19" class="edge">
<title>Node0&#45;&gt;Node11</title>
<path fill="none" stroke="#191970" d="M432.3171,-165.3987C425.8662,-144.7914 413.8493,-106.4041 406.6417,-83.38"/>
<polygon fill="#191970" stroke="#191970" points="409.9481,-82.2263 403.6204,-73.7286 403.2678,-84.3176 409.9481,-82.2263"/>
</g>
<!-- Node12 -->
<g id="node13" class="node">
<title>Node12</title>
<g id="a_node13"><a xlink:href="utilities_8h.html" target="_top" xlink:title="utilities.h">
<polygon fill="#ffffff" stroke="#000000" points="464.2783,-110.5 464.2783,-128.5 519.1846,-128.5 519.1846,-110.5 464.2783,-110.5"/>
<text text-anchor="middle" x="491.7314" y="-116.5" font-family="Helvetica,sans-Serif" font-size="10.00" fill="#000000">utilities.h</text>
</a>
</g>
</g>
<!-- Node0&#45;&gt;Node12 -->
<g id="edge17" class="edge">
<title>Node0&#45;&gt;Node12</title>
<path fill="none" stroke="#191970" d="M449.7657,-165.2808C457.8243,-156.4896 468.1999,-145.1708 476.6179,-135.9875"/>
<polygon fill="#191970" stroke="#191970" points="479.227,-138.3208 483.4043,-128.5842 474.0669,-133.5907 479.227,-138.3208"/>
</g>
<!-- Node13 -->
<g id="node14" class="node">
<title>Node13</title>
<g id="a_node14"><a xlink:href="filter_8h.html" target="_top" xlink:title="filter.h">
<polygon fill="#ffffff" stroke="#000000" points="537.3892,-110.5 537.3892,-128.5 580.0737,-128.5 580.0737,-110.5 537.3892,-110.5"/>
<text text-anchor="middle" x="558.7314" y="-116.5" font-family="Helvetica,sans-Serif" font-size="10.00" fill="#000000">filter.h</text>
</a>
</g>
</g>
<!-- Node0&#45;&gt;Node13 -->
<g id="edge18" class="edge">
<title>Node0&#45;&gt;Node13</title>
<path fill="none" stroke="#191970" d="M465.335,-165.4327C485.1871,-155.6693 511.4882,-142.7344 531.1205,-133.0792"/>
<polygon fill="#191970" stroke="#191970" points="532.7361,-136.185 540.165,-128.6311 529.6468,-129.9036 532.7361,-136.185"/>
</g>
<!-- Node14 -->
<g id="node15" class="node">
<title>Node14</title>
<g id="a_node15"><a xlink:href="afc_8h.html" target="_top" xlink:title="afc.h">
<polygon fill="#ffffff" stroke="#000000" points="597.8916,-110.5 597.8916,-128.5 635.5713,-128.5 635.5713,-110.5 597.8916,-110.5"/>
<text text-anchor="middle" x="616.7314" y="-116.5" font-family="Helvetica,sans-Serif" font-size="10.00" fill="#000000">afc.h</text>
</a>
</g>
</g>
<!-- Node0&#45;&gt;Node14 -->
<g id="edge20" class="edge">
<title>Node0&#45;&gt;Node14</title>
<path fill="none" stroke="#191970" d="M479.3428,-165.423C507.6835,-156.0422 545.9769,-143.3327 588.1312,-129.1882"/>
<polygon fill="#191970" stroke="#191970" points="589.3937,-132.4564 597.7593,-125.9551 587.1653,-125.8205 589.3937,-132.4564"/>
</g>
<!-- Node15 -->
<g id="node16" class="node">
<title>Node15</title>
<g id="a_node16"><a xlink:href="delay__line_8h.html" target="_top" xlink:title="delay_line.h">
<polygon fill="#ffffff" stroke="#000000" points="654.0444,-110.5 654.0444,-128.5 723.4185,-128.5 723.4185,-110.5 654.0444,-110.5"/>
<text text-anchor="middle" x="688.7314" y="-116.5" font-family="Helvetica,sans-Serif" font-size="10.00" fill="#000000">delay_line.h</text>
</a>
</g>
</g>
<!-- Node0&#45;&gt;Node15 -->
<g id="edge21" class="edge">
<title>Node0&#45;&gt;Node15</title>
<path fill="none" stroke="#191970" d="M487.7274,-167.3581C533.6258,-156.4299 600.4013,-140.531 644.1947,-130.104"/>
<polygon fill="#191970" stroke="#191970" points="645.0722,-133.493 653.9895,-127.7719 643.4508,-126.6833 645.0722,-133.493"/>
</g>
<!-- Node16 -->
<g id="node17" class="node">
<title>Node16</title>
<g id="a_node17"><a xlink:href="peak__detect_8h.html" target="_top" xlink:title="peak_detect.h">
<polygon fill="#ffffff" stroke="#000000" points="867.3179,-55.5 867.3179,-73.5 946.145,-73.5 946.145,-55.5 867.3179,-55.5"/>
<text text-anchor="middle" x="906.7314" y="-61.5" font-family="Helvetica,sans-Serif" font-size="10.00" fill="#000000">peak_detect.h</text>
</a>
</g>
</g>
<!-- Node0&#45;&gt;Node16 -->
<g id="edge23" class="edge">
<title>Node0&#45;&gt;Node16</title>
<path fill="none" stroke="#191970" d="M487.6925,-174.5404C571.7488,-165.974 735.6435,-147.5361 790.7314,-129 826.0501,-117.1159 863.0374,-94.507 885.4908,-79.4658"/>
<polygon fill="#191970" stroke="#191970" points="887.6135,-82.2546 893.9015,-73.7275 883.6683,-76.4722 887.6135,-82.2546"/>
</g>
<!-- Node17 -->
<g id="node18" class="node">
<title>Node17</title>
<g id="a_node18"><a xlink:href="wdrc_8h.html" target="_top" xlink:title="wdrc.h">
<polygon fill="#ffffff" stroke="#000000" points="615.0049,-55.5 615.0049,-73.5 660.458,-73.5 660.458,-55.5 615.0049,-55.5"/>
<text text-anchor="middle" x="637.7314" y="-61.5" font-family="Helvetica,sans-Serif" font-size="10.00" fill="#000000">wdrc.h</text>
</a>
</g>
</g>
<!-- Node0&#45;&gt;Node17 -->
<g id="edge25" class="edge">
<title>Node0&#45;&gt;Node17</title>
<path fill="none" stroke="#191970" d="M487.8404,-174.3583C568.3264,-165.7412 717.1191,-147.5015 732.7314,-129 738.1774,-122.5463 737.2318,-117.1453 732.7314,-110 725.5043,-98.5252 694.7652,-85.0745 670.183,-75.7887"/>
<polygon fill="#191970" stroke="#191970" points="671.3819,-72.5005 660.7886,-72.3254 668.9606,-79.0684 671.3819,-72.5005"/>
</g>
<!-- Node18 -->
<g id="node19" class="node">
<title>Node18</title>
<g id="a_node19"><a xlink:href="wdrc__mpo__support_8h.html" target="_top" xlink:title="wdrc_mpo_support.h">
<polygon fill="#ffffff" stroke="#000000" points="678.0396,-55.5 678.0396,-73.5 787.4233,-73.5 787.4233,-55.5 678.0396,-55.5"/>
<text text-anchor="middle" x="732.7314" y="-61.5" font-family="Helvetica,sans-Serif" font-size="10.00" fill="#000000">wdrc_mpo_support.h</text>
</a>
</g>
</g>
<!-- Node0&#45;&gt;Node18 -->
<g id="edge27" class="edge">
<title>Node0&#45;&gt;Node18</title>
<path fill="none" stroke="#191970" d="M487.712,-174.8157C571.5822,-166.5898 731.095,-148.5558 747.7314,-129 758.7474,-116.051 752.0319,-96.5403 744.3941,-82.3691"/>
<polygon fill="#191970" stroke="#191970" points="747.2786,-80.3714 739.1655,-73.5575 741.2586,-83.9436 747.2786,-80.3714"/>
</g>
<!-- Node19 -->
<g id="node20" class="node">
<title>Node19</title>
<g id="a_node20"><a xlink:href="mpo_8h.html" target="_top" xlink:title="mpo.h">
<polygon fill="#ffffff" stroke="#000000" points="805.835,-55.5 805.835,-73.5 849.6279,-73.5 849.6279,-55.5 805.835,-55.5"/>
<text text-anchor="middle" x="827.7314" y="-61.5" font-family="Helvetica,sans-Serif" font-size="10.00" fill="#000000">mpo.h</text>
</a>
</g>
</g>
<!-- Node0&#45;&gt;Node19 -->
<g id="edge29" class="edge">
<title>Node0&#45;&gt;Node19</title>
<path fill="none" stroke="#191970" d="M487.6349,-175.5405C567.105,-168.7117 716.4517,-153.0913 763.7314,-129 785.1485,-118.087 803.744,-97.314 815.2892,-82.285"/>
<polygon fill="#191970" stroke="#191970" points="818.419,-83.9372 821.5288,-73.8091 812.7817,-79.7873 818.419,-83.9372"/>
</g>
<!-- Node5&#45;&gt;Node1 -->
<g id="edge6" class="edge">
<title>Node5&#45;&gt;Node1</title>
<path fill="none" stroke="#191970" d="M57.796,-110.4179C51.8736,-102.6624 43.1893,-91.29 35.945,-81.8035"/>
<polygon fill="#191970" stroke="#191970" points="38.6684,-79.6029 29.8176,-73.7795 33.1051,-83.8514 38.6684,-79.6029"/>
</g>
<!-- Node5&#45;&gt;Node2 -->
<g id="edge7" class="edge">
<title>Node5&#45;&gt;Node2</title>
<path fill="none" stroke="#191970" d="M71.832,-110.4179C77.8954,-102.6624 86.7865,-91.29 94.2033,-81.8035"/>
<polygon fill="#191970" stroke="#191970" points="97.0747,-83.8133 100.4766,-73.7795 91.56,-79.5018 97.0747,-83.8133"/>
</g>
<!-- Node7 -->
<g id="node8" class="node">
<title>Node7</title>
<polygon fill="#ffffff" stroke="#bfbfbf" points="235.4458,-.5 235.4458,-18.5 282.0171,-18.5 282.0171,-.5 235.4458,-.5"/>
<text text-anchor="middle" x="258.7314" y="-6.5" font-family="Helvetica,sans-Serif" font-size="10.00" fill="#000000">math.h</text>
</g>
<!-- Node6&#45;&gt;Node7 -->
<g id="edge9" class="edge">
<title>Node6&#45;&gt;Node7</title>
<path fill="none" stroke="#191970" d="M258.7314,-55.4179C258.7314,-48.2164 258.7314,-37.8962 258.7314,-28.8632"/>
<polygon fill="#191970" stroke="#191970" points="262.2315,-28.7794 258.7314,-18.7795 255.2315,-28.7795 262.2315,-28.7794"/>
</g>
<!-- Node8 -->
<g id="node9" class="node">
<title>Node8</title>
<polygon fill="#ffffff" stroke="#bfbfbf" points="706.9409,-.5 706.9409,-18.5 758.522,-18.5 758.522,-.5 706.9409,-.5"/>
<text text-anchor="middle" x="732.7314" y="-6.5" font-family="Helvetica,sans-Serif" font-size="10.00" fill="#000000">stddef.h</text>
</g>
<!-- Node6&#45;&gt;Node8 -->
<g id="edge10" class="edge">
<title>Node6&#45;&gt;Node8</title>
<path fill="none" stroke="#191970" d="M320.2127,-57.3661C420.42,-45.7387 615.8687,-23.06 696.556,-13.6976"/>
<polygon fill="#191970" stroke="#191970" points="697.1812,-17.1486 706.7111,-12.5192 696.3743,-10.1953 697.1812,-17.1486"/>
</g>
<!-- Node6&#45;&gt;Node9 -->
<g id="edge11" class="edge">
<title>Node6&#45;&gt;Node9</title>
<path fill="none" stroke="#191970" d="M244.5303,-55.4179C231.2101,-46.8992 211.0664,-34.0166 195.5023,-24.0627"/>
<polygon fill="#191970" stroke="#191970" points="197.2639,-21.0348 186.9537,-18.5956 193.4925,-26.932 197.2639,-21.0348"/>
</g>
<!-- Node10&#45;&gt;Node4 -->
<g id="edge15" class="edge">
<title>Node10&#45;&gt;Node4</title>
<path fill="none" stroke="#191970" d="M334.658,-110.1035C341.4458,-97.3546 354.2556,-73.9892 366.7314,-55 373.081,-45.3355 380.7476,-34.9779 387.1923,-26.59"/>
<polygon fill="#191970" stroke="#191970" points="389.975,-28.7132 393.3597,-18.6736 384.4529,-24.4112 389.975,-28.7132"/>
</g>
<!-- Node10&#45;&gt;Node6 -->
<g id="edge16" class="edge">
<title>Node10&#45;&gt;Node6</title>
<path fill="none" stroke="#191970" d="M318.0072,-110.4179C307.3827,-102.1876 291.4998,-89.8839 278.8484,-80.0836"/>
<polygon fill="#191970" stroke="#191970" points="280.7593,-77.1365 270.7104,-73.7795 276.4725,-82.6704 280.7593,-77.1365"/>
</g>
<!-- Node10&#45;&gt;Node11 -->
<g id="edge13" class="edge">
<title>Node10&#45;&gt;Node11</title>
<path fill="none" stroke="#191970" d="M341.4557,-110.4179C352.0802,-102.1876 367.9631,-89.8839 380.6145,-80.0836"/>
<polygon fill="#191970" stroke="#191970" points="382.9904,-82.6704 388.7525,-73.7795 378.7036,-77.1365 382.9904,-82.6704"/>
</g>
<!-- Node11&#45;&gt;Node4 -->
<g id="edge14" class="edge">
<title>Node11&#45;&gt;Node4</title>
<path fill="none" stroke="#191970" d="M400.7314,-55.4179C400.7314,-48.2164 400.7314,-37.8962 400.7314,-28.8632"/>
<polygon fill="#191970" stroke="#191970" points="404.2315,-28.7794 400.7314,-18.7795 397.2315,-28.7795 404.2315,-28.7794"/>
</g>
<!-- Node16&#45;&gt;Node8 -->
<g id="edge24" class="edge">
<title>Node16&#45;&gt;Node8</title>
<path fill="none" stroke="#191970" d="M877.9989,-55.4179C847.9072,-45.9061 800.6035,-30.9538 768.2043,-20.7127"/>
<polygon fill="#191970" stroke="#191970" points="769.2534,-17.3737 758.6635,-17.6969 767.1436,-24.0482 769.2534,-17.3737"/>
</g>
<!-- Node17&#45;&gt;Node8 -->
<g id="edge26" class="edge">
<title>Node17&#45;&gt;Node8</title>
<path fill="none" stroke="#191970" d="M653.4188,-55.4179C668.2704,-46.8195 690.8012,-33.7754 708.0584,-23.7844"/>
<polygon fill="#191970" stroke="#191970" points="710.1202,-26.635 717.0208,-18.5956 706.6129,-20.577 710.1202,-26.635"/>
</g>
<!-- Node18&#45;&gt;Node8 -->
<g id="edge28" class="edge">
<title>Node18&#45;&gt;Node8</title>
<path fill="none" stroke="#191970" d="M732.7314,-55.4179C732.7314,-48.2164 732.7314,-37.8962 732.7314,-28.8632"/>
<polygon fill="#191970" stroke="#191970" points="736.2315,-28.7794 732.7314,-18.7795 729.2315,-28.7795 736.2315,-28.7794"/>
</g>
<!-- Node19&#45;&gt;Node8 -->
<g id="edge30" class="edge">
<title>Node19&#45;&gt;Node8</title>
<path fill="none" stroke="#191970" d="M812.0441,-55.4179C797.1925,-46.8195 774.6616,-33.7754 757.4045,-23.7844"/>
<polygon fill="#191970" stroke="#191970" points="758.85,-20.577 748.4421,-18.5956 755.3427,-26.635 758.85,-20.577"/>
</g>
</g>
</svg>
