<?xml version="1.0" encoding="UTF-8" standalone="no"?>
<!DOCTYPE svg PUBLIC "-//W3C//DTD SVG 1.1//EN"
 "http://www.w3.org/Graphics/SVG/1.1/DTD/svg11.dtd">
<!-- Generated by graphviz version 2.40.1 (20161225.0304)
 -->
<!-- Title: libosp/osp_tcp/osp_tcp.c Pages: 1 -->
<svg width="470pt" height="202pt"
 viewBox="0.00 0.00 470.24 202.00" xmlns="http://www.w3.org/2000/svg" xmlns:xlink="http://www.w3.org/1999/xlink">
<g id="graph0" class="graph" transform="scale(1 1) rotate(0) translate(4 198)">
<title>libosp/osp_tcp/osp_tcp.c</title>
<polygon fill="#ffffff" stroke="transparent" points="-4,4 -4,-198 466.2388,-198 466.2388,4 -4,4"/>
<!-- Node0 -->
<g id="node1" class="node">
<title>Node0</title>
<polygon fill="#bfbfbf" stroke="#000000" points="216.4263,-165.5 216.4263,-193.5 315.2583,-193.5 315.2583,-165.5 216.4263,-165.5"/>
<text text-anchor="start" x="224.4263" y="-181.5" font-family="Helvetica,sans-Serif" font-size="10.00" fill="#000000">libosp/osp_tcp/osp</text>
<text text-anchor="middle" x="265.8423" y="-171.5" font-family="Helvetica,sans-Serif" font-size="10.00" fill="#000000">_tcp.c</text>
</g>
<!-- Node1 -->
<g id="node2" class="node">
<title>Node1</title>
<g id="a_node2"><a xlink:href="osp__tcp_8h.html" target="_top" xlink:title="osp_tcp.h">
<polygon fill="#ffffff" stroke="#000000" points="207.1602,-110.5 207.1602,-128.5 266.5244,-128.5 266.5244,-110.5 207.1602,-110.5"/>
<text text-anchor="middle" x="236.8423" y="-116.5" font-family="Helvetica,sans-Serif" font-size="10.00" fill="#000000">osp_tcp.h</text>
</a>
</g>
</g>
<!-- Node0&#45;&gt;Node1 -->
<g id="edge1" class="edge">
<title>Node0&#45;&gt;Node1</title>
<path fill="none" stroke="#191970" d="M258.9697,-165.2808C254.9781,-157.0224 249.9085,-146.5335 245.6291,-137.6796"/>
<polygon fill="#191970" stroke="#191970" points="248.7359,-136.0646 241.233,-128.5842 242.4335,-139.1108 248.7359,-136.0646"/>
</g>
<!-- Node5 -->
<g id="node6" class="node">
<title>Node5</title>
<polygon fill="#ffffff" stroke="#bfbfbf" points="284.1108,-55.5 284.1108,-73.5 329.5737,-73.5 329.5737,-55.5 284.1108,-55.5"/>
<text text-anchor="middle" x="306.8423" y="-61.5" font-family="Helvetica,sans-Serif" font-size="10.00" fill="#000000">stdio.h</text>
</g>
<!-- Node0&#45;&gt;Node5 -->
<g id="edge13" class="edge">
<title>Node0&#45;&gt;Node5</title>
<path fill="none" stroke="#191970" d="M270.8697,-165.3987C278.2166,-144.7914 291.9025,-106.4041 300.1111,-83.38"/>
<polygon fill="#191970" stroke="#191970" points="303.4906,-84.3233 303.5521,-73.7286 296.8971,-81.9725 303.4906,-84.3233"/>
</g>
<!-- Node6 -->
<g id="node7" class="node">
<title>Node6</title>
<polygon fill="#ffffff" stroke="#bfbfbf" points="348,-55.5 348,-73.5 395.6846,-73.5 395.6846,-55.5 348,-55.5"/>
<text text-anchor="middle" x="371.8423" y="-61.5" font-family="Helvetica,sans-Serif" font-size="10.00" fill="#000000">stdlib.h</text>
</g>
<!-- Node0&#45;&gt;Node6 -->
<g id="edge12" class="edge">
<title>Node0&#45;&gt;Node6</title>
<path fill="none" stroke="#191970" d="M278.84,-165.3987C298.4362,-144.1387 335.4755,-103.9545 356.4128,-81.2395"/>
<polygon fill="#191970" stroke="#191970" points="359.1319,-83.4537 363.3359,-73.7286 353.9848,-78.7095 359.1319,-83.4537"/>
</g>
<!-- Node7 -->
<g id="node8" class="node">
<title>Node7</title>
<polygon fill="#ffffff" stroke="#bfbfbf" points="413.4458,-55.5 413.4458,-73.5 462.2388,-73.5 462.2388,-55.5 413.4458,-55.5"/>
<text text-anchor="middle" x="437.8423" y="-61.5" font-family="Helvetica,sans-Serif" font-size="10.00" fill="#000000">string.h</text>
</g>
<!-- Node0&#45;&gt;Node7 -->
<g id="edge14" class="edge">
<title>Node0&#45;&gt;Node7</title>
<path fill="none" stroke="#191970" d="M286.9329,-165.3987C319.5673,-143.5792 382.0149,-101.8265 415.4326,-79.4832"/>
<polygon fill="#191970" stroke="#191970" points="417.6717,-82.1964 424.0395,-73.7286 413.781,-76.3773 417.6717,-82.1964"/>
</g>
<!-- Node8 -->
<g id="node9" class="node">
<title>Node8</title>
<g id="a_node9"><a xlink:href="jsmn_8h.html" target="_top" xlink:title="jsmn.h">
<polygon fill="#ffffff" stroke="#000000" points="13.1157,-55.5 13.1157,-73.5 58.5688,-73.5 58.5688,-55.5 13.1157,-55.5"/>
<text text-anchor="middle" x="35.8423" y="-61.5" font-family="Helvetica,sans-Serif" font-size="10.00" fill="#000000">jsmn.h</text>
</a>
</g>
</g>
<!-- Node0&#45;&gt;Node8 -->
<g id="edge15" class="edge">
<title>Node0&#45;&gt;Node8</title>
<path fill="none" stroke="#191970" d="M237.6398,-165.3987C193.0498,-143.1038 106.8368,-99.9973 62.9434,-78.0506"/>
<polygon fill="#191970" stroke="#191970" points="64.5076,-74.9196 53.998,-73.5779 61.377,-81.1806 64.5076,-74.9196"/>
</g>
<!-- Node9 -->
<g id="node10" class="node">
<title>Node9</title>
<g id="a_node10"><a xlink:href="tcplib_8h.html" target="_top" xlink:title="tcplib.h">
<polygon fill="#ffffff" stroke="#000000" points="0,-110.5 0,-128.5 47.6846,-128.5 47.6846,-110.5 0,-110.5"/>
<text text-anchor="middle" x="23.8423" y="-116.5" font-family="Helvetica,sans-Serif" font-size="10.00" fill="#000000">tcplib.h</text>
</a>
</g>
</g>
<!-- Node0&#45;&gt;Node9 -->
<g id="edge10" class="edge">
<title>Node0&#45;&gt;Node9</title>
<path fill="none" stroke="#191970" d="M216.286,-167.2133C168.9915,-155.4874 99.0095,-138.1365 57.7545,-127.908"/>
<polygon fill="#191970" stroke="#191970" points="58.4645,-124.4781 47.9161,-125.4687 56.7799,-131.2724 58.4645,-124.4781"/>
</g>
<!-- Node2 -->
<g id="node3" class="node">
<title>Node2</title>
<polygon fill="#ffffff" stroke="#bfbfbf" points="10.0518,-.5 10.0518,-18.5 61.6328,-18.5 61.6328,-.5 10.0518,-.5"/>
<text text-anchor="middle" x="35.8423" y="-6.5" font-family="Helvetica,sans-Serif" font-size="10.00" fill="#000000">stddef.h</text>
</g>
<!-- Node1&#45;&gt;Node2 -->
<g id="edge2" class="edge">
<title>Node1&#45;&gt;Node2</title>
<path fill="none" stroke="#191970" d="M206.9777,-112.8594C179.3971,-105.8857 137.9644,-93.2293 105.8423,-74 84.2705,-61.0865 63.6155,-40.7411 50.4066,-26.3583"/>
<polygon fill="#191970" stroke="#191970" points="52.8146,-23.8005 43.5391,-18.6802 47.597,-28.4671 52.8146,-23.8005"/>
</g>
<!-- Node3 -->
<g id="node4" class="node">
<title>Node3</title>
<g id="a_node4"><a xlink:href="constants_8h.html" target="_top" xlink:title="constants.h">
<polygon fill="#ffffff" stroke="#000000" points="199.271,-55.5 199.271,-73.5 266.4136,-73.5 266.4136,-55.5 199.271,-55.5"/>
<text text-anchor="middle" x="232.8423" y="-61.5" font-family="Helvetica,sans-Serif" font-size="10.00" fill="#000000">constants.h</text>
</a>
</g>
</g>
<!-- Node1&#45;&gt;Node3 -->
<g id="edge3" class="edge">
<title>Node1&#45;&gt;Node3</title>
<path fill="none" stroke="#191970" d="M236.1818,-110.4179C235.658,-103.2164 234.9075,-92.8962 234.2505,-83.8632"/>
<polygon fill="#191970" stroke="#191970" points="237.7334,-83.4992 233.5172,-73.7795 230.7518,-84.007 237.7334,-83.4992"/>
</g>
<!-- Node4 -->
<g id="node5" class="node">
<title>Node4</title>
<polygon fill="#ffffff" stroke="#bfbfbf" points="114.8325,-55.5 114.8325,-73.5 180.8521,-73.5 180.8521,-55.5 114.8325,-55.5"/>
<text text-anchor="middle" x="147.8423" y="-61.5" font-family="Helvetica,sans-Serif" font-size="10.00" fill="#000000">sys/types.h</text>
</g>
<!-- Node1&#45;&gt;Node4 -->
<g id="edge4" class="edge">
<title>Node1&#45;&gt;Node4</title>
<path fill="none" stroke="#191970" d="M222.1457,-110.4179C208.3609,-101.8992 187.5145,-89.0166 171.4074,-79.0627"/>
<polygon fill="#191970" stroke="#191970" points="172.9073,-75.8753 162.5607,-73.5956 169.2274,-81.83 172.9073,-75.8753"/>
</g>
<!-- Node1&#45;&gt;Node5 -->
<g id="edge5" class="edge">
<title>Node1&#45;&gt;Node5</title>
<path fill="none" stroke="#191970" d="M248.4014,-110.4179C258.8763,-102.1876 274.5355,-89.8839 287.0087,-80.0836"/>
<polygon fill="#191970" stroke="#191970" points="289.3313,-82.7098 295.0321,-73.7795 285.0065,-77.2056 289.3313,-82.7098"/>
</g>
<!-- Node1&#45;&gt;Node6 -->
<g id="edge6" class="edge">
<title>Node1&#45;&gt;Node6</title>
<path fill="none" stroke="#191970" d="M259.1348,-110.4179C281.2169,-101.4215 315.2452,-87.5581 340.1365,-77.4172"/>
<polygon fill="#191970" stroke="#191970" points="341.5763,-80.61 349.5167,-73.5956 338.9352,-74.1273 341.5763,-80.61"/>
</g>
<!-- Node1&#45;&gt;Node7 -->
<g id="edge7" class="edge">
<title>Node1&#45;&gt;Node7</title>
<path fill="none" stroke="#191970" d="M266.6216,-111.5871C298.3303,-103.1281 350.2262,-89.1888 403.701,-74.2913"/>
<polygon fill="#191970" stroke="#191970" points="404.6557,-77.6587 413.3462,-71.5985 402.7733,-70.9165 404.6557,-77.6587"/>
</g>
<!-- Node1&#45;&gt;Node8 -->
<g id="edge8" class="edge">
<title>Node1&#45;&gt;Node8</title>
<path fill="none" stroke="#191970" d="M206.7506,-111.2659C169.7119,-101.131 107.0328,-83.98 68.748,-73.5041"/>
<polygon fill="#191970" stroke="#191970" points="69.2075,-70.0012 58.6383,-70.7377 67.3599,-76.753 69.2075,-70.0012"/>
</g>
<!-- Node8&#45;&gt;Node2 -->
<g id="edge9" class="edge">
<title>Node8&#45;&gt;Node2</title>
<path fill="none" stroke="#191970" d="M35.8423,-55.4179C35.8423,-48.2164 35.8423,-37.8962 35.8423,-28.8632"/>
<polygon fill="#191970" stroke="#191970" points="39.3424,-28.7794 35.8423,-18.7795 32.3424,-28.7795 39.3424,-28.7794"/>
</g>
<!-- Node9&#45;&gt;Node2 -->
<g id="edge11" class="edge">
<title>Node9&#45;&gt;Node2</title>
<path fill="none" stroke="#191970" d="M17.3798,-110.3037C9.4047,-97.7817 -2.3829,-74.6726 3.8423,-55 7.1373,-44.5871 13.7662,-34.4946 20.1404,-26.4715"/>
<polygon fill="#191970" stroke="#191970" points="22.9718,-28.5448 26.7871,-18.6607 17.6408,-24.0082 22.9718,-28.5448"/>
</g>
</g>
</svg>
