<?xml version="1.0" encoding="UTF-8" standalone="no"?>
<!DOCTYPE svg PUBLIC "-//W3C//DTD SVG 1.1//EN"
 "http://www.w3.org/Graphics/SVG/1.1/DTD/svg11.dtd">
<!-- Generated by graphviz version 2.40.1 (20161225.0304)
 -->
<!-- Title: libosp/osp_process/osp_process.h Pages: 1 -->
<svg width="290pt" height="157pt"
 viewBox="0.00 0.00 289.98 157.00" xmlns="http://www.w3.org/2000/svg" xmlns:xlink="http://www.w3.org/1999/xlink">
<g id="graph0" class="graph" transform="scale(1 1) rotate(0) translate(4 153)">
<title>libosp/osp_process/osp_process.h</title>
<polygon fill="#ffffff" stroke="transparent" points="-4,4 -4,-153 285.98,-153 285.98,4 -4,4"/>
<!-- Node7 -->
<g id="node1" class="node">
<title>Node7</title>
<polygon fill="#bfbfbf" stroke="#000000" points="60.3745,-120.5 60.3745,-148.5 161.98,-148.5 161.98,-120.5 60.3745,-120.5"/>
<text text-anchor="start" x="68.3745" y="-136.5" font-family="Helvetica,sans-Serif" font-size="10.00" fill="#000000">libosp/osp_process</text>
<text text-anchor="middle" x="111.1772" y="-126.5" font-family="Helvetica,sans-Serif" font-size="10.00" fill="#000000">/osp_process.h</text>
</g>
<!-- Node8 -->
<g id="node2" class="node">
<title>Node8</title>
<g id="a_node2"><a xlink:href="main_8c.html" target="_top" xlink:title="osp/main.c">
<polygon fill="#ffffff" stroke="#000000" points="0,-.5 0,-18.5 64.3545,-18.5 64.3545,-.5 0,-.5"/>
<text text-anchor="middle" x="32.1772" y="-6.5" font-family="Helvetica,sans-Serif" font-size="10.00" fill="#000000">osp/main.c</text>
</a>
</g>
</g>
<!-- Node7&#45;&gt;Node8 -->
<g id="edge1" class="edge">
<title>Node7&#45;&gt;Node8</title>
<path fill="none" stroke="#191970" d="M79.8648,-114.1891C69.368,-105.9652 58.4868,-95.6477 51.1772,-84 38.1221,-63.1968 34.0183,-33.8114 32.7426,-18.9276"/>
<polygon fill="#191970" stroke="#191970" points="78.0093,-117.1707 88.125,-120.3211 82.1818,-111.5502 78.0093,-117.1707"/>
</g>
<!-- Node9 -->
<g id="node3" class="node">
<title>Node9</title>
<g id="a_node3"><a xlink:href="port__wrapper_8h.html" target="_top" xlink:title="osp/port_wrapper.h">
<polygon fill="#ffffff" stroke="#000000" points="60.3696,-60.5 60.3696,-78.5 161.9849,-78.5 161.9849,-60.5 60.3696,-60.5"/>
<text text-anchor="middle" x="111.1772" y="-66.5" font-family="Helvetica,sans-Serif" font-size="10.00" fill="#000000">osp/port_wrapper.h</text>
</a>
</g>
</g>
<!-- Node7&#45;&gt;Node9 -->
<g id="edge2" class="edge">
<title>Node7&#45;&gt;Node9</title>
<path fill="none" stroke="#191970" d="M111.1772,-110.3747C111.1772,-99.2832 111.1772,-86.7952 111.1772,-78.5743"/>
<polygon fill="#191970" stroke="#191970" points="107.6773,-110.3959 111.1772,-120.396 114.6773,-110.396 107.6773,-110.3959"/>
</g>
<!-- Node11 -->
<g id="node5" class="node">
<title>Node11</title>
<g id="a_node5"><a xlink:href="osp__process_8c.html" target="_top" xlink:title="libosp/osp_process\l/osp_process.c">
<polygon fill="#ffffff" stroke="#000000" points="180.3745,-55.5 180.3745,-83.5 281.98,-83.5 281.98,-55.5 180.3745,-55.5"/>
<text text-anchor="start" x="188.3745" y="-71.5" font-family="Helvetica,sans-Serif" font-size="10.00" fill="#000000">libosp/osp_process</text>
<text text-anchor="middle" x="231.1772" y="-61.5" font-family="Helvetica,sans-Serif" font-size="10.00" fill="#000000">/osp_process.c</text>
</a>
</g>
</g>
<!-- Node7&#45;&gt;Node11 -->
<g id="edge5" class="edge">
<title>Node7&#45;&gt;Node11</title>
<path fill="none" stroke="#191970" d="M146.1157,-115.575C164.9923,-105.3502 187.9033,-92.94 205.1898,-83.5765"/>
<polygon fill="#191970" stroke="#191970" points="144.3414,-112.5556 137.2155,-120.396 147.6754,-118.7106 144.3414,-112.5556"/>
</g>
<!-- Node9&#45;&gt;Node8 -->
<g id="edge3" class="edge">
<title>Node9&#45;&gt;Node8</title>
<path fill="none" stroke="#191970" d="M91.0796,-54.2359C76.2089,-42.9418 56.4572,-27.9405 44.0297,-18.5019"/>
<polygon fill="#191970" stroke="#191970" points="89.0984,-57.1262 99.1788,-60.3873 93.3322,-51.5517 89.0984,-57.1262"/>
</g>
<!-- Node10 -->
<g id="node4" class="node">
<title>Node10</title>
<g id="a_node4"><a xlink:href="port__wrapper_8c.html" target="_top" xlink:title="osp/port_wrapper.c">
<polygon fill="#ffffff" stroke="#000000" points="82.6504,-.5 82.6504,-18.5 183.7041,-18.5 183.7041,-.5 82.6504,-.5"/>
<text text-anchor="middle" x="133.1772" y="-6.5" font-family="Helvetica,sans-Serif" font-size="10.00" fill="#000000">osp/port_wrapper.c</text>
</a>
</g>
</g>
<!-- Node9&#45;&gt;Node10 -->
<g id="edge4" class="edge">
<title>Node9&#45;&gt;Node10</title>
<path fill="none" stroke="#191970" d="M118.0679,-50.7072C121.976,-40.0487 126.6924,-27.186 129.8045,-18.6985"/>
<polygon fill="#191970" stroke="#191970" points="114.6751,-49.7936 114.5186,-60.3873 121.2473,-52.2034 114.6751,-49.7936"/>
</g>
</g>
</svg>
