<?xml version="1.0" encoding="UTF-8" standalone="no"?>
<!DOCTYPE svg PUBLIC "-//W3C//DTD SVG 1.1//EN"
 "http://www.w3.org/Graphics/SVG/1.1/DTD/svg11.dtd">
<!-- Generated by graphviz version 2.40.1 (20161225.0304)
 -->
<!-- Title: libosp/osp_tcp/osp_tcp.h Pages: 1 -->
<svg width="229pt" height="92pt"
 viewBox="0.00 0.00 228.80 92.00" xmlns="http://www.w3.org/2000/svg" xmlns:xlink="http://www.w3.org/1999/xlink">
<g id="graph0" class="graph" transform="scale(1 1) rotate(0) translate(4 88)">
<title>libosp/osp_tcp/osp_tcp.h</title>
<polygon fill="#ffffff" stroke="transparent" points="-4,4 -4,-88 224.8003,-88 224.8003,4 -4,4"/>
<!-- Node0 -->
<g id="node1" class="node">
<title>Node0</title>
<polygon fill="#bfbfbf" stroke="#000000" points="53.3745,-55.5 53.3745,-83.5 152.2065,-83.5 152.2065,-55.5 53.3745,-55.5"/>
<text text-anchor="start" x="61.3745" y="-71.5" font-family="Helvetica,sans-Serif" font-size="10.00" fill="#000000">libosp/osp_tcp/osp</text>
<text text-anchor="middle" x="102.7905" y="-61.5" font-family="Helvetica,sans-Serif" font-size="10.00" fill="#000000">_tcp.h</text>
</g>
<!-- Node1 -->
<g id="node2" class="node">
<title>Node1</title>
<polygon fill="#ffffff" stroke="#bfbfbf" points="0,-.5 0,-18.5 51.5811,-18.5 51.5811,-.5 0,-.5"/>
<text text-anchor="middle" x="25.7905" y="-6.5" font-family="Helvetica,sans-Serif" font-size="10.00" fill="#000000">stddef.h</text>
</g>
<!-- Node0&#45;&gt;Node1 -->
<g id="edge1" class="edge">
<title>Node0&#45;&gt;Node1</title>
<path fill="none" stroke="#191970" d="M84.5426,-55.2808C72.8046,-46.1344 57.5556,-34.252 45.5347,-24.8851"/>
<polygon fill="#191970" stroke="#191970" points="47.4879,-21.9699 37.4486,-18.5842 43.1853,-27.4915 47.4879,-21.9699"/>
</g>
<!-- Node2 -->
<g id="node3" class="node">
<title>Node2</title>
<g id="a_node3"><a xlink:href="constants_8h.html" target="_top" xlink:title="constants.h">
<polygon fill="#ffffff" stroke="#000000" points="69.2192,-.5 69.2192,-18.5 136.3618,-18.5 136.3618,-.5 69.2192,-.5"/>
<text text-anchor="middle" x="102.7905" y="-6.5" font-family="Helvetica,sans-Serif" font-size="10.00" fill="#000000">constants.h</text>
</a>
</g>
</g>
<!-- Node0&#45;&gt;Node2 -->
<g id="edge2" class="edge">
<title>Node0&#45;&gt;Node2</title>
<path fill="none" stroke="#191970" d="M102.7905,-55.2808C102.7905,-47.3776 102.7905,-37.4316 102.7905,-28.8308"/>
<polygon fill="#191970" stroke="#191970" points="106.2906,-28.5842 102.7905,-18.5842 99.2906,-28.5842 106.2906,-28.5842"/>
</g>
<!-- Node3 -->
<g id="node4" class="node">
<title>Node3</title>
<polygon fill="#ffffff" stroke="#bfbfbf" points="154.7808,-.5 154.7808,-18.5 220.8003,-18.5 220.8003,-.5 154.7808,-.5"/>
<text text-anchor="middle" x="187.7905" y="-6.5" font-family="Helvetica,sans-Serif" font-size="10.00" fill="#000000">sys/types.h</text>
</g>
<!-- Node0&#45;&gt;Node3 -->
<g id="edge3" class="edge">
<title>Node0&#45;&gt;Node3</title>
<path fill="none" stroke="#191970" d="M122.9343,-55.2808C136.0176,-46.0456 153.0524,-34.021 166.3805,-24.613"/>
<polygon fill="#191970" stroke="#191970" points="168.77,-27.2105 174.9213,-18.5842 164.7332,-21.4917 168.77,-27.2105"/>
</g>
</g>
</svg>
