<?xml version="1.0" encoding="UTF-8" standalone="no"?>
<!DOCTYPE svg PUBLIC "-//W3C//DTD SVG 1.1//EN"
 "http://www.w3.org/Graphics/SVG/1.1/DTD/svg11.dtd">
<!-- Generated by graphviz version 2.40.1 (20161225.0304)
 -->
<!-- Title: libosp/osp_tcp/osp_tcp.h Pages: 1 -->
<svg width="433pt" height="147pt"
 viewBox="0.00 0.00 432.64 147.00" xmlns="http://www.w3.org/2000/svg" xmlns:xlink="http://www.w3.org/1999/xlink">
<g id="graph0" class="graph" transform="scale(1 1) rotate(0) translate(4 143)">
<title>libosp/osp_tcp/osp_tcp.h</title>
<polygon fill="#ffffff" stroke="transparent" points="-4,4 -4,-143 428.6387,-143 428.6387,4 -4,4"/>
<!-- Node0 -->
<g id="node1" class="node">
<title>Node0</title>
<polygon fill="#bfbfbf" stroke="#000000" points="156.4961,-110.5 156.4961,-138.5 255.3281,-138.5 255.3281,-110.5 156.4961,-110.5"/>
<text text-anchor="start" x="164.4961" y="-126.5" font-family="Helvetica,sans-Serif" font-size="10.00" fill="#000000">libosp/osp_tcp/osp</text>
<text text-anchor="middle" x="205.9121" y="-116.5" font-family="Helvetica,sans-Serif" font-size="10.00" fill="#000000">_tcp.h</text>
</g>
<!-- Node1 -->
<g id="node2" class="node">
<title>Node1</title>
<polygon fill="#ffffff" stroke="#bfbfbf" points="167.1216,-.5 167.1216,-18.5 218.7026,-18.5 218.7026,-.5 167.1216,-.5"/>
<text text-anchor="middle" x="192.9121" y="-6.5" font-family="Helvetica,sans-Serif" font-size="10.00" fill="#000000">stddef.h</text>
</g>
<!-- Node0&#45;&gt;Node1 -->
<g id="edge1" class="edge">
<title>Node0&#45;&gt;Node1</title>
<path fill="none" stroke="#191970" d="M156.3793,-119.0596C102.7896,-112.0328 22.4879,-97.7914 3.9121,-74 -1.2847,-67.344 -1.3137,-61.6332 3.9121,-55 22.5825,-31.3014 107.3549,-18.5123 156.7957,-12.9532"/>
<polygon fill="#191970" stroke="#191970" points="157.2068,-16.4293 166.773,-11.8754 156.4549,-9.4698 157.2068,-16.4293"/>
</g>
<!-- Node2 -->
<g id="node3" class="node">
<title>Node2</title>
<g id="a_node3"><a xlink:href="constants_8h.html" target="_top" xlink:title="constants.h">
<polygon fill="#ffffff" stroke="#000000" points="13.3408,-55.5 13.3408,-73.5 80.4834,-73.5 80.4834,-55.5 13.3408,-55.5"/>
<text text-anchor="middle" x="46.9121" y="-61.5" font-family="Helvetica,sans-Serif" font-size="10.00" fill="#000000">constants.h</text>
</a>
</g>
</g>
<!-- Node0&#45;&gt;Node2 -->
<g id="edge2" class="edge">
<title>Node0&#45;&gt;Node2</title>
<path fill="none" stroke="#191970" d="M168.6337,-110.4327C141.9376,-100.3587 106.2934,-86.908 80.4815,-77.1677"/>
<polygon fill="#191970" stroke="#191970" points="81.7012,-73.8871 71.1094,-73.6311 79.2297,-80.4363 81.7012,-73.8871"/>
</g>
<!-- Node3 -->
<g id="node4" class="node">
<title>Node3</title>
<polygon fill="#ffffff" stroke="#bfbfbf" points="98.9024,-55.5 98.9024,-73.5 164.9219,-73.5 164.9219,-55.5 98.9024,-55.5"/>
<text text-anchor="middle" x="131.9121" y="-61.5" font-family="Helvetica,sans-Serif" font-size="10.00" fill="#000000">sys/types.h</text>
</g>
<!-- Node0&#45;&gt;Node3 -->
<g id="edge3" class="edge">
<title>Node0&#45;&gt;Node3</title>
<path fill="none" stroke="#191970" d="M188.3752,-110.2808C177.0945,-101.1344 162.4396,-89.252 150.8871,-79.8851"/>
<polygon fill="#191970" stroke="#191970" points="153.0879,-77.1636 143.116,-73.5842 148.6792,-82.6009 153.0879,-77.1636"/>
</g>
<!-- Node4 -->
<g id="node5" class="node">
<title>Node4</title>
<polygon fill="#ffffff" stroke="#bfbfbf" points="183.1807,-55.5 183.1807,-73.5 228.6436,-73.5 228.6436,-55.5 183.1807,-55.5"/>
<text text-anchor="middle" x="205.9121" y="-61.5" font-family="Helvetica,sans-Serif" font-size="10.00" fill="#000000">stdio.h</text>
</g>
<!-- Node0&#45;&gt;Node4 -->
<g id="edge4" class="edge">
<title>Node0&#45;&gt;Node4</title>
<path fill="none" stroke="#191970" d="M205.9121,-110.2808C205.9121,-102.3776 205.9121,-92.4316 205.9121,-83.8308"/>
<polygon fill="#191970" stroke="#191970" points="209.4122,-83.5842 205.9121,-73.5842 202.4122,-83.5842 209.4122,-83.5842"/>
</g>
<!-- Node5 -->
<g id="node6" class="node">
<title>Node5</title>
<polygon fill="#ffffff" stroke="#bfbfbf" points="247.0698,-55.5 247.0698,-73.5 294.7544,-73.5 294.7544,-55.5 247.0698,-55.5"/>
<text text-anchor="middle" x="270.9121" y="-61.5" font-family="Helvetica,sans-Serif" font-size="10.00" fill="#000000">stdlib.h</text>
</g>
<!-- Node0&#45;&gt;Node5 -->
<g id="edge5" class="edge">
<title>Node0&#45;&gt;Node5</title>
<path fill="none" stroke="#191970" d="M221.3162,-110.2808C231.0325,-101.312 243.5987,-89.7124 253.6508,-80.4335"/>
<polygon fill="#191970" stroke="#191970" points="256.0968,-82.9388 261.0709,-73.5842 251.3489,-77.7952 256.0968,-82.9388"/>
</g>
<!-- Node6 -->
<g id="node7" class="node">
<title>Node6</title>
<polygon fill="#ffffff" stroke="#bfbfbf" points="312.5156,-55.5 312.5156,-73.5 361.3086,-73.5 361.3086,-55.5 312.5156,-55.5"/>
<text text-anchor="middle" x="336.9121" y="-61.5" font-family="Helvetica,sans-Serif" font-size="10.00" fill="#000000">string.h</text>
</g>
<!-- Node0&#45;&gt;Node6 -->
<g id="edge6" class="edge">
<title>Node0&#45;&gt;Node6</title>
<path fill="none" stroke="#191970" d="M236.6258,-110.4327C258.1362,-100.5806 286.6978,-87.4989 307.8374,-77.8167"/>
<polygon fill="#191970" stroke="#191970" points="309.3417,-80.9774 316.976,-73.6311 306.4267,-74.6132 309.3417,-80.9774"/>
</g>
<!-- Node7 -->
<g id="node8" class="node">
<title>Node7</title>
<g id="a_node8"><a xlink:href="jsmn_8h.html" target="_top" xlink:title="jsmn.h">
<polygon fill="#ffffff" stroke="#000000" points="379.1856,-55.5 379.1856,-73.5 424.6387,-73.5 424.6387,-55.5 379.1856,-55.5"/>
<text text-anchor="middle" x="401.9121" y="-61.5" font-family="Helvetica,sans-Serif" font-size="10.00" fill="#000000">jsmn.h</text>
</a>
</g>
</g>
<!-- Node0&#45;&gt;Node7 -->
<g id="edge7" class="edge">
<title>Node0&#45;&gt;Node7</title>
<path fill="none" stroke="#191970" d="M251.8654,-110.4327C287.9061,-99.3998 337.177,-84.3169 369.2674,-74.4933"/>
<polygon fill="#191970" stroke="#191970" points="370.5066,-77.7743 379.0441,-71.5004 368.4576,-71.0809 370.5066,-77.7743"/>
</g>
<!-- Node7&#45;&gt;Node1 -->
<g id="edge8" class="edge">
<title>Node7&#45;&gt;Node1</title>
<path fill="none" stroke="#191970" d="M378.8694,-57.5485C375.8611,-56.6735 372.8164,-55.8041 369.9121,-55 321.2085,-41.5156 264.5919,-27.1973 228.7623,-18.3027"/>
<polygon fill="#191970" stroke="#191970" points="229.3352,-14.8389 218.7871,-15.8332 227.653,-21.6338 229.3352,-14.8389"/>
</g>
</g>
</svg>
