<?xml version="1.0" encoding="UTF-8" standalone="no"?>
<!DOCTYPE svg PUBLIC "-//W3C//DTD SVG 1.1//EN"
 "http://www.w3.org/Graphics/SVG/1.1/DTD/svg11.dtd">
<!-- Generated by graphviz version 2.40.1 (20161225.0304)
 -->
<!-- Title: libosp/osp_tcp/osp_tcp.c Pages: 1 -->
<svg width="269pt" height="147pt"
 viewBox="0.00 0.00 268.52 147.00" xmlns="http://www.w3.org/2000/svg" xmlns:xlink="http://www.w3.org/1999/xlink">
<g id="graph0" class="graph" transform="scale(1 1) rotate(0) translate(4 143)">
<title>libosp/osp_tcp/osp_tcp.c</title>
<polygon fill="#ffffff" stroke="transparent" points="-4,4 -4,-143 264.522,-143 264.522,4 -4,4"/>
<!-- Node0 -->
<g id="node1" class="node">
<title>Node0</title>
<polygon fill="#bfbfbf" stroke="#000000" points="87.3745,-110.5 87.3745,-138.5 186.2065,-138.5 186.2065,-110.5 87.3745,-110.5"/>
<text text-anchor="start" x="95.3745" y="-126.5" font-family="Helvetica,sans-Serif" font-size="10.00" fill="#000000">libosp/osp_tcp/osp</text>
<text text-anchor="middle" x="136.7905" y="-116.5" font-family="Helvetica,sans-Serif" font-size="10.00" fill="#000000">_tcp.c</text>
</g>
<!-- Node1 -->
<g id="node2" class="node">
<title>Node1</title>
<g id="a_node2"><a xlink:href="osp__tcp_8h.html" target="_top" xlink:title="osp_tcp.h">
<polygon fill="#ffffff" stroke="#000000" points="71.1084,-55.5 71.1084,-73.5 130.4727,-73.5 130.4727,-55.5 71.1084,-55.5"/>
<text text-anchor="middle" x="100.7905" y="-61.5" font-family="Helvetica,sans-Serif" font-size="10.00" fill="#000000">osp_tcp.h</text>
</a>
</g>
</g>
<!-- Node0&#45;&gt;Node1 -->
<g id="edge1" class="edge">
<title>Node0&#45;&gt;Node1</title>
<path fill="none" stroke="#191970" d="M128.259,-110.2808C123.2507,-101.9336 116.8751,-91.3076 111.5273,-82.3946"/>
<polygon fill="#191970" stroke="#191970" points="114.3873,-80.3584 106.241,-73.5842 108.3848,-83.9599 114.3873,-80.3584"/>
</g>
<!-- Node5 -->
<g id="node6" class="node">
<title>Node5</title>
<g id="a_node6"><a xlink:href="tcplib_8h.html" target="_top" xlink:title="tcplib.h">
<polygon fill="#ffffff" stroke="#000000" points="3.9482,-55.5 3.9482,-73.5 51.6328,-73.5 51.6328,-55.5 3.9482,-55.5"/>
<text text-anchor="middle" x="27.7905" y="-61.5" font-family="Helvetica,sans-Serif" font-size="10.00" fill="#000000">tcplib.h</text>
</a>
</g>
</g>
<!-- Node0&#45;&gt;Node5 -->
<g id="edge5" class="edge">
<title>Node0&#45;&gt;Node5</title>
<path fill="none" stroke="#191970" d="M111.2349,-110.4327C93.8206,-100.8468 70.8522,-88.2037 53.4219,-78.609"/>
<polygon fill="#191970" stroke="#191970" points="54.8269,-75.3872 44.3786,-73.6311 51.4513,-81.5195 54.8269,-75.3872"/>
</g>
<!-- Node6 -->
<g id="node7" class="node">
<title>Node6</title>
<polygon fill="#ffffff" stroke="#bfbfbf" points="148.9482,-55.5 148.9482,-73.5 196.6328,-73.5 196.6328,-55.5 148.9482,-55.5"/>
<text text-anchor="middle" x="172.7905" y="-61.5" font-family="Helvetica,sans-Serif" font-size="10.00" fill="#000000">stdlib.h</text>
</g>
<!-- Node0&#45;&gt;Node6 -->
<g id="edge7" class="edge">
<title>Node0&#45;&gt;Node6</title>
<path fill="none" stroke="#191970" d="M145.322,-110.2808C150.3304,-101.9336 156.7059,-91.3076 162.0538,-82.3946"/>
<polygon fill="#191970" stroke="#191970" points="165.1962,-83.9599 167.34,-73.5842 159.1938,-80.3584 165.1962,-83.9599"/>
</g>
<!-- Node7 -->
<g id="node8" class="node">
<title>Node7</title>
<polygon fill="#ffffff" stroke="#bfbfbf" points="215.0591,-55.5 215.0591,-73.5 260.522,-73.5 260.522,-55.5 215.0591,-55.5"/>
<text text-anchor="middle" x="237.7905" y="-61.5" font-family="Helvetica,sans-Serif" font-size="10.00" fill="#000000">stdio.h</text>
</g>
<!-- Node0&#45;&gt;Node7 -->
<g id="edge8" class="edge">
<title>Node0&#45;&gt;Node7</title>
<path fill="none" stroke="#191970" d="M160.4705,-110.4327C176.4573,-100.9356 197.4956,-88.4376 213.5904,-78.8763"/>
<polygon fill="#191970" stroke="#191970" points="215.6101,-81.7475 222.4199,-73.6311 212.0349,-75.7294 215.6101,-81.7475"/>
</g>
<!-- Node2 -->
<g id="node3" class="node">
<title>Node2</title>
<polygon fill="#ffffff" stroke="#bfbfbf" points="0,-.5 0,-18.5 51.5811,-18.5 51.5811,-.5 0,-.5"/>
<text text-anchor="middle" x="25.7905" y="-6.5" font-family="Helvetica,sans-Serif" font-size="10.00" fill="#000000">stddef.h</text>
</g>
<!-- Node1&#45;&gt;Node2 -->
<g id="edge2" class="edge">
<title>Node1&#45;&gt;Node2</title>
<path fill="none" stroke="#191970" d="M88.4058,-55.4179C77.0065,-47.0584 59.8768,-34.4966 46.414,-24.6239"/>
<polygon fill="#191970" stroke="#191970" points="48.3275,-21.6869 38.1937,-18.5956 44.1879,-27.3317 48.3275,-21.6869"/>
</g>
<!-- Node3 -->
<g id="node4" class="node">
<title>Node3</title>
<g id="a_node4"><a xlink:href="constants_8h.html" target="_top" xlink:title="constants.h">
<polygon fill="#ffffff" stroke="#000000" points="69.2192,-.5 69.2192,-18.5 136.3618,-18.5 136.3618,-.5 69.2192,-.5"/>
<text text-anchor="middle" x="102.7905" y="-6.5" font-family="Helvetica,sans-Serif" font-size="10.00" fill="#000000">constants.h</text>
</a>
</g>
</g>
<!-- Node1&#45;&gt;Node3 -->
<g id="edge3" class="edge">
<title>Node1&#45;&gt;Node3</title>
<path fill="none" stroke="#191970" d="M101.1208,-55.4179C101.3827,-48.2164 101.7579,-37.8962 102.0864,-28.8632"/>
<polygon fill="#191970" stroke="#191970" points="105.5873,-28.9001 102.4531,-18.7795 98.5919,-28.6456 105.5873,-28.9001"/>
</g>
<!-- Node4 -->
<g id="node5" class="node">
<title>Node4</title>
<polygon fill="#ffffff" stroke="#bfbfbf" points="154.7808,-.5 154.7808,-18.5 220.8003,-18.5 220.8003,-.5 154.7808,-.5"/>
<text text-anchor="middle" x="187.7905" y="-6.5" font-family="Helvetica,sans-Serif" font-size="10.00" fill="#000000">sys/types.h</text>
</g>
<!-- Node1&#45;&gt;Node4 -->
<g id="edge4" class="edge">
<title>Node1&#45;&gt;Node4</title>
<path fill="none" stroke="#191970" d="M115.1568,-55.4179C128.6319,-46.8992 149.0098,-34.0166 164.7549,-24.0627"/>
<polygon fill="#191970" stroke="#191970" points="166.8206,-26.8977 173.4029,-18.5956 163.08,-20.9808 166.8206,-26.8977"/>
</g>
<!-- Node5&#45;&gt;Node2 -->
<g id="edge6" class="edge">
<title>Node5&#45;&gt;Node2</title>
<path fill="none" stroke="#191970" d="M27.4603,-55.4179C27.1984,-48.2164 26.8231,-37.8962 26.4946,-28.8632"/>
<polygon fill="#191970" stroke="#191970" points="29.9891,-28.6456 26.128,-18.7795 22.9938,-28.9001 29.9891,-28.6456"/>
</g>
</g>
</svg>
