<?xml version="1.0" encoding="UTF-8" standalone="no"?>
<!DOCTYPE svg PUBLIC "-//W3C//DTD SVG 1.1//EN"
 "http://www.w3.org/Graphics/SVG/1.1/DTD/svg11.dtd">
<!-- Generated by graphviz version 2.40.1 (20161225.0304)
 -->
<!-- Title: libosp/peak_detect/peak_detect.c Pages: 1 -->
<svg width="349pt" height="147pt"
 viewBox="0.00 0.00 348.81 147.00" xmlns="http://www.w3.org/2000/svg" xmlns:xlink="http://www.w3.org/1999/xlink">
<g id="graph0" class="graph" transform="scale(1 1) rotate(0) translate(4 143)">
<title>libosp/peak_detect/peak_detect.c</title>
<polygon fill="#ffffff" stroke="transparent" points="-4,4 -4,-143 344.8101,-143 344.8101,4 -4,4"/>
<!-- Node0 -->
<g id="node1" class="node">
<title>Node0</title>
<polygon fill="#bfbfbf" stroke="#000000" points="135.7168,-110.5 135.7168,-138.5 235.1104,-138.5 235.1104,-110.5 135.7168,-110.5"/>
<text text-anchor="start" x="143.7168" y="-126.5" font-family="Helvetica,sans-Serif" font-size="10.00" fill="#000000">libosp/peak_detect</text>
<text text-anchor="middle" x="185.4136" y="-116.5" font-family="Helvetica,sans-Serif" font-size="10.00" fill="#000000">/peak_detect.c</text>
</g>
<!-- Node1 -->
<g id="node2" class="node">
<title>Node1</title>
<g id="a_node2"><a xlink:href="peak__detect_8h.html" target="_top" xlink:title="peak_detect.h">
<polygon fill="#ffffff" stroke="#000000" points="0,-55.5 0,-73.5 78.8271,-73.5 78.8271,-55.5 0,-55.5"/>
<text text-anchor="middle" x="39.4136" y="-61.5" font-family="Helvetica,sans-Serif" font-size="10.00" fill="#000000">peak_detect.h</text>
</a>
</g>
</g>
<!-- Node0&#45;&gt;Node1 -->
<g id="edge1" class="edge">
<title>Node0&#45;&gt;Node1</title>
<path fill="none" stroke="#191970" d="M151.1831,-110.4327C126.9937,-100.4918 94.8034,-87.263 71.1827,-77.5558"/>
<polygon fill="#191970" stroke="#191970" points="72.2123,-74.195 61.6325,-73.6311 69.5515,-80.6695 72.2123,-74.195"/>
</g>
<!-- Node3 -->
<g id="node4" class="node">
<title>Node3</title>
<polygon fill="#ffffff" stroke="#bfbfbf" points="97.1279,-55.5 97.1279,-73.5 143.6992,-73.5 143.6992,-55.5 97.1279,-55.5"/>
<text text-anchor="middle" x="120.4136" y="-61.5" font-family="Helvetica,sans-Serif" font-size="10.00" fill="#000000">math.h</text>
</g>
<!-- Node0&#45;&gt;Node3 -->
<g id="edge3" class="edge">
<title>Node0&#45;&gt;Node3</title>
<path fill="none" stroke="#191970" d="M170.0095,-110.2808C160.2932,-101.312 147.727,-89.7124 137.6749,-80.4335"/>
<polygon fill="#191970" stroke="#191970" points="139.9768,-77.7952 130.2548,-73.5842 135.2288,-82.9388 139.9768,-77.7952"/>
</g>
<!-- Node4 -->
<g id="node5" class="node">
<title>Node4</title>
<polygon fill="#ffffff" stroke="#bfbfbf" points="161.8569,-55.5 161.8569,-73.5 208.9702,-73.5 208.9702,-55.5 161.8569,-55.5"/>
<text text-anchor="middle" x="185.4136" y="-61.5" font-family="Helvetica,sans-Serif" font-size="10.00" fill="#000000">limits.h</text>
</g>
<!-- Node0&#45;&gt;Node4 -->
<g id="edge4" class="edge">
<title>Node0&#45;&gt;Node4</title>
<path fill="none" stroke="#191970" d="M185.4136,-110.2808C185.4136,-102.3776 185.4136,-92.4316 185.4136,-83.8308"/>
<polygon fill="#191970" stroke="#191970" points="188.9137,-83.5842 185.4136,-73.5842 181.9137,-83.5842 188.9137,-83.5842"/>
</g>
<!-- Node5 -->
<g id="node6" class="node">
<title>Node5</title>
<polygon fill="#ffffff" stroke="#bfbfbf" points="226.5713,-55.5 226.5713,-73.5 274.2559,-73.5 274.2559,-55.5 226.5713,-55.5"/>
<text text-anchor="middle" x="250.4136" y="-61.5" font-family="Helvetica,sans-Serif" font-size="10.00" fill="#000000">stdlib.h</text>
</g>
<!-- Node0&#45;&gt;Node5 -->
<g id="edge5" class="edge">
<title>Node0&#45;&gt;Node5</title>
<path fill="none" stroke="#191970" d="M200.8177,-110.2808C210.5339,-101.312 223.1001,-89.7124 233.1522,-80.4335"/>
<polygon fill="#191970" stroke="#191970" points="235.5983,-82.9388 240.5724,-73.5842 230.8503,-77.7952 235.5983,-82.9388"/>
</g>
<!-- Node6 -->
<g id="node7" class="node">
<title>Node6</title>
<polygon fill="#ffffff" stroke="#bfbfbf" points="292.0171,-55.5 292.0171,-73.5 340.8101,-73.5 340.8101,-55.5 292.0171,-55.5"/>
<text text-anchor="middle" x="316.4136" y="-61.5" font-family="Helvetica,sans-Serif" font-size="10.00" fill="#000000">string.h</text>
</g>
<!-- Node0&#45;&gt;Node6 -->
<g id="edge6" class="edge">
<title>Node0&#45;&gt;Node6</title>
<path fill="none" stroke="#191970" d="M216.1273,-110.4327C237.6377,-100.5806 266.1992,-87.4989 287.3389,-77.8167"/>
<polygon fill="#191970" stroke="#191970" points="288.8431,-80.9774 296.4774,-73.6311 285.9282,-74.6132 288.8431,-80.9774"/>
</g>
<!-- Node2 -->
<g id="node3" class="node">
<title>Node2</title>
<polygon fill="#ffffff" stroke="#bfbfbf" points="13.623,-.5 13.623,-18.5 65.2041,-18.5 65.2041,-.5 13.623,-.5"/>
<text text-anchor="middle" x="39.4136" y="-6.5" font-family="Helvetica,sans-Serif" font-size="10.00" fill="#000000">stddef.h</text>
</g>
<!-- Node1&#45;&gt;Node2 -->
<g id="edge2" class="edge">
<title>Node1&#45;&gt;Node2</title>
<path fill="none" stroke="#191970" d="M39.4136,-55.4179C39.4136,-48.2164 39.4136,-37.8962 39.4136,-28.8632"/>
<polygon fill="#191970" stroke="#191970" points="42.9137,-28.7794 39.4136,-18.7795 35.9137,-28.7795 42.9137,-28.7794"/>
</g>
</g>
</svg>
