<?xml version="1.0" encoding="UTF-8" standalone="no"?>
<!DOCTYPE svg PUBLIC "-//W3C//DTD SVG 1.1//EN"
 "http://www.w3.org/Graphics/SVG/1.1/DTD/svg11.dtd">
<!-- Generated by graphviz version 2.40.1 (20161225.0304)
 -->
<!-- Title: libosp/peak_detect/peak_detect.h Pages: 1 -->
<svg width="226pt" height="102pt"
 viewBox="0.00 0.00 226.50 102.00" xmlns="http://www.w3.org/2000/svg" xmlns:xlink="http://www.w3.org/1999/xlink">
<g id="graph0" class="graph" transform="scale(1 1) rotate(0) translate(4 98)">
<title>libosp/peak_detect/peak_detect.h</title>
<polygon fill="#ffffff" stroke="transparent" points="-4,4 -4,-98 222.4995,-98 222.4995,4 -4,4"/>
<!-- Node2 -->
<g id="node1" class="node">
<title>Node2</title>
<polygon fill="#bfbfbf" stroke="#000000" points="60.106,-65.5 60.106,-93.5 159.4995,-93.5 159.4995,-65.5 60.106,-65.5"/>
<text text-anchor="start" x="68.106" y="-81.5" font-family="Helvetica,sans-Serif" font-size="10.00" fill="#000000">libosp/peak_detect</text>
<text text-anchor="middle" x="109.8027" y="-71.5" font-family="Helvetica,sans-Serif" font-size="10.00" fill="#000000">/peak_detect.h</text>
</g>
<!-- Node3 -->
<g id="node2" class="node">
<title>Node3</title>
<g id="a_node2"><a xlink:href="osp__process_8c.html" target="_top" xlink:title="libosp/osp_process\l/osp_process.c">
<polygon fill="#ffffff" stroke="#000000" points="0,-.5 0,-28.5 101.6055,-28.5 101.6055,-.5 0,-.5"/>
<text text-anchor="start" x="8" y="-16.5" font-family="Helvetica,sans-Serif" font-size="10.00" fill="#000000">libosp/osp_process</text>
<text text-anchor="middle" x="50.8027" y="-6.5" font-family="Helvetica,sans-Serif" font-size="10.00" fill="#000000">/osp_process.c</text>
</a>
</g>
</g>
<!-- Node2&#45;&gt;Node3 -->
<g id="edge1" class="edge">
<title>Node2&#45;&gt;Node3</title>
<path fill="none" stroke="#191970" d="M90.0479,-57.7362C81.3184,-48.119 71.3064,-37.0888 63.5799,-28.5765"/>
<polygon fill="#191970" stroke="#191970" points="87.6879,-60.3438 97.0006,-65.396 92.8711,-55.639 87.6879,-60.3438"/>
</g>
<!-- Node4 -->
<g id="node3" class="node">
<title>Node4</title>
<g id="a_node3"><a xlink:href="peak__detect_8c.html" target="_top" xlink:title="libosp/peak_detect\l/peak_detect.c">
<polygon fill="#ffffff" stroke="#000000" points="119.106,-.5 119.106,-28.5 218.4995,-28.5 218.4995,-.5 119.106,-.5"/>
<text text-anchor="start" x="127.106" y="-16.5" font-family="Helvetica,sans-Serif" font-size="10.00" fill="#000000">libosp/peak_detect</text>
<text text-anchor="middle" x="168.8027" y="-6.5" font-family="Helvetica,sans-Serif" font-size="10.00" fill="#000000">/peak_detect.c</text>
</a>
</g>
</g>
<!-- Node2&#45;&gt;Node4 -->
<g id="edge2" class="edge">
<title>Node2&#45;&gt;Node4</title>
<path fill="none" stroke="#191970" d="M129.5576,-57.7362C138.287,-48.119 148.2991,-37.0888 156.0256,-28.5765"/>
<polygon fill="#191970" stroke="#191970" points="126.7343,-55.639 122.6049,-65.396 131.9175,-60.3438 126.7343,-55.639"/>
</g>
</g>
</svg>
