<?xml version="1.0" encoding="UTF-8" standalone="no"?>
<!DOCTYPE svg PUBLIC "-//W3C//DTD SVG 1.1//EN"
 "http://www.w3.org/Graphics/SVG/1.1/DTD/svg11.dtd">
<!-- Generated by graphviz version 2.40.1 (20161225.0304)
 -->
<!-- Title: osp/port_wrapper.c Pages: 1 -->
<svg width="587pt" height="247pt"
 viewBox="0.00 0.00 587.18 247.00" xmlns="http://www.w3.org/2000/svg" xmlns:xlink="http://www.w3.org/1999/xlink">
<g id="graph0" class="graph" transform="scale(1 1) rotate(0) translate(4 243)">
<title>osp/port_wrapper.c</title>
<polygon fill="#ffffff" stroke="transparent" points="-4,4 -4,-243 583.1846,-243 583.1846,4 -4,4"/>
<!-- Node0 -->
<g id="node1" class="node">
<title>Node0</title>
<polygon fill="#bfbfbf" stroke="#000000" points="189.2046,-220.5 189.2046,-238.5 290.2583,-238.5 290.2583,-220.5 189.2046,-220.5"/>
<text text-anchor="middle" x="239.7314" y="-226.5" font-family="Helvetica,sans-Serif" font-size="10.00" fill="#000000">osp/port_wrapper.c</text>
</g>
<!-- Node1 -->
<g id="node2" class="node">
<title>Node1</title>
<polygon fill="#ffffff" stroke="#bfbfbf" points="0,-165.5 0,-183.5 45.4629,-183.5 45.4629,-165.5 0,-165.5"/>
<text text-anchor="middle" x="22.7314" y="-171.5" font-family="Helvetica,sans-Serif" font-size="10.00" fill="#000000">stdio.h</text>
</g>
<!-- Node0&#45;&gt;Node1 -->
<g id="edge1" class="edge">
<title>Node0&#45;&gt;Node1</title>
<path fill="none" stroke="#191970" d="M200.6144,-220.4482C165.1279,-212.1098 111.1552,-199.1134 55.4485,-184.1049"/>
<polygon fill="#191970" stroke="#191970" points="56.3337,-180.7186 45.7663,-181.4805 54.5023,-187.4748 56.3337,-180.7186"/>
</g>
<!-- Node2 -->
<g id="node3" class="node">
<title>Node2</title>
<polygon fill="#ffffff" stroke="#bfbfbf" points="63.8892,-165.5 63.8892,-183.5 111.5737,-183.5 111.5737,-165.5 63.8892,-165.5"/>
<text text-anchor="middle" x="87.7314" y="-171.5" font-family="Helvetica,sans-Serif" font-size="10.00" fill="#000000">stdlib.h</text>
</g>
<!-- Node0&#45;&gt;Node2 -->
<g id="edge2" class="edge">
<title>Node0&#45;&gt;Node2</title>
<path fill="none" stroke="#191970" d="M214.6317,-220.4179C189.1372,-211.1929 149.4998,-196.8504 121.3138,-186.6515"/>
<polygon fill="#191970" stroke="#191970" points="122.4578,-183.3434 111.8635,-183.232 120.076,-189.9258 122.4578,-183.3434"/>
</g>
<!-- Node3 -->
<g id="node4" class="node">
<title>Node3</title>
<polygon fill="#ffffff" stroke="#bfbfbf" points="129.335,-165.5 129.335,-183.5 178.1279,-183.5 178.1279,-165.5 129.335,-165.5"/>
<text text-anchor="middle" x="153.7314" y="-171.5" font-family="Helvetica,sans-Serif" font-size="10.00" fill="#000000">string.h</text>
</g>
<!-- Node0&#45;&gt;Node3 -->
<g id="edge3" class="edge">
<title>Node0&#45;&gt;Node3</title>
<path fill="none" stroke="#191970" d="M225.5303,-220.4179C212.2101,-211.8992 192.0664,-199.0166 176.5023,-189.0627"/>
<polygon fill="#191970" stroke="#191970" points="178.2639,-186.0348 167.9537,-183.5956 174.4925,-191.932 178.2639,-186.0348"/>
</g>
<!-- Node4 -->
<g id="node5" class="node">
<title>Node4</title>
<g id="a_node5"><a xlink:href="port__wrapper_8h.html" target="_top" xlink:title="port_wrapper.h">
<polygon fill="#ffffff" stroke="#000000" points="233.3745,-165.5 233.3745,-183.5 316.0884,-183.5 316.0884,-165.5 233.3745,-165.5"/>
<text text-anchor="middle" x="274.7314" y="-171.5" font-family="Helvetica,sans-Serif" font-size="10.00" fill="#000000">port_wrapper.h</text>
</a>
</g>
</g>
<!-- Node0&#45;&gt;Node4 -->
<g id="edge4" class="edge">
<title>Node0&#45;&gt;Node4</title>
<path fill="none" stroke="#191970" d="M245.511,-220.4179C250.3456,-212.8207 257.3888,-201.7527 263.3491,-192.3866"/>
<polygon fill="#191970" stroke="#191970" points="266.4104,-194.0952 268.8263,-183.7795 260.5047,-190.337 266.4104,-194.0952"/>
</g>
<!-- Node7 -->
<g id="node8" class="node">
<title>Node7</title>
<g id="a_node8"><a xlink:href="coeffs_8h.html" target="_top" xlink:title="coeffs.h">
<polygon fill="#ffffff" stroke="#000000" points="235.3096,-55.5 235.3096,-73.5 286.1533,-73.5 286.1533,-55.5 235.3096,-55.5"/>
<text text-anchor="middle" x="260.7314" y="-61.5" font-family="Helvetica,sans-Serif" font-size="10.00" fill="#000000">coeffs.h</text>
</a>
</g>
</g>
<!-- Node0&#45;&gt;Node7 -->
<g id="edge15" class="edge">
<title>Node0&#45;&gt;Node7</title>
<path fill="none" stroke="#191970" d="M235.799,-220.2104C227.7092,-199.7106 211.0641,-149.3009 224.7314,-110 228.5032,-99.1541 236.0547,-88.9451 243.2716,-80.9564"/>
<polygon fill="#191970" stroke="#191970" points="245.7888,-83.3882 250.2246,-73.7666 240.7569,-78.522 245.7888,-83.3882"/>
</g>
<!-- Node13 -->
<g id="node14" class="node">
<title>Node13</title>
<g id="a_node14"><a xlink:href="resample_8h.html" target="_top" xlink:title="resample.h">
<polygon fill="#ffffff" stroke="#000000" points="333.9976,-165.5 333.9976,-183.5 399.4653,-183.5 399.4653,-165.5 333.9976,-165.5"/>
<text text-anchor="middle" x="366.7314" y="-171.5" font-family="Helvetica,sans-Serif" font-size="10.00" fill="#000000">resample.h</text>
</a>
</g>
</g>
<!-- Node0&#45;&gt;Node13 -->
<g id="edge14" class="edge">
<title>Node0&#45;&gt;Node13</title>
<path fill="none" stroke="#191970" d="M260.7029,-220.4179C281.2926,-211.5011 312.9226,-197.803 336.2809,-187.6873"/>
<polygon fill="#191970" stroke="#191970" points="337.9433,-190.7815 345.7288,-183.5956 335.1614,-184.358 337.9433,-190.7815"/>
</g>
<!-- Node14 -->
<g id="node15" class="node">
<title>Node14</title>
<g id="a_node15"><a xlink:href="beam__forming_8h.html" target="_top" xlink:title="beam_forming.h">
<polygon fill="#ffffff" stroke="#000000" points="417.6011,-165.5 417.6011,-183.5 505.8618,-183.5 505.8618,-165.5 417.6011,-165.5"/>
<text text-anchor="middle" x="461.7314" y="-171.5" font-family="Helvetica,sans-Serif" font-size="10.00" fill="#000000">beam_forming.h</text>
</a>
</g>
</g>
<!-- Node0&#45;&gt;Node14 -->
<g id="edge16" class="edge">
<title>Node0&#45;&gt;Node14</title>
<path fill="none" stroke="#191970" d="M276.3902,-220.4179C314.5039,-210.9753 374.2593,-196.171 415.5679,-185.9369"/>
<polygon fill="#191970" stroke="#191970" points="416.5223,-189.3064 425.3872,-183.5042 414.8389,-182.5118 416.5223,-189.3064"/>
</g>
<!-- Node15 -->
<g id="node16" class="node">
<title>Node15</title>
<g id="a_node16"><a xlink:href="utilities_8h.html" target="_top" xlink:title="utilities.h">
<polygon fill="#ffffff" stroke="#000000" points="524.2783,-165.5 524.2783,-183.5 579.1846,-183.5 579.1846,-165.5 524.2783,-165.5"/>
<text text-anchor="middle" x="551.7314" y="-171.5" font-family="Helvetica,sans-Serif" font-size="10.00" fill="#000000">utilities.h</text>
</a>
</g>
</g>
<!-- Node0&#45;&gt;Node15 -->
<g id="edge17" class="edge">
<title>Node0&#45;&gt;Node15</title>
<path fill="none" stroke="#191970" d="M290.4113,-222.4704C343.6683,-214.7804 430.0616,-201.4508 513.9606,-184.0111"/>
<polygon fill="#191970" stroke="#191970" points="514.8456,-187.4017 523.9123,-181.9204 513.4063,-180.5512 514.8456,-187.4017"/>
</g>
<!-- Node5 -->
<g id="node6" class="node">
<title>Node5</title>
<polygon fill="#ffffff" stroke="#bfbfbf" points="233.7119,-110.5 233.7119,-128.5 299.751,-128.5 299.751,-110.5 233.7119,-110.5"/>
<text text-anchor="middle" x="266.7314" y="-116.5" font-family="Helvetica,sans-Serif" font-size="10.00" fill="#000000">portaudio.h</text>
</g>
<!-- Node4&#45;&gt;Node5 -->
<g id="edge5" class="edge">
<title>Node4&#45;&gt;Node5</title>
<path fill="none" stroke="#191970" d="M273.4104,-165.4179C272.3629,-158.2164 270.8618,-147.8962 269.5479,-138.8632"/>
<polygon fill="#191970" stroke="#191970" points="272.9842,-138.1715 268.0812,-128.7795 266.0571,-139.1791 272.9842,-138.1715"/>
</g>
<!-- Node6 -->
<g id="node7" class="node">
<title>Node6</title>
<g id="a_node7"><a xlink:href="osp__process_8h.html" target="_top" xlink:title="osp_process.h">
<polygon fill="#ffffff" stroke="#000000" points="318.2119,-110.5 318.2119,-128.5 399.251,-128.5 399.251,-110.5 318.2119,-110.5"/>
<text text-anchor="middle" x="358.7314" y="-116.5" font-family="Helvetica,sans-Serif" font-size="10.00" fill="#000000">osp_process.h</text>
</a>
</g>
</g>
<!-- Node4&#45;&gt;Node6 -->
<g id="edge6" class="edge">
<title>Node4&#45;&gt;Node6</title>
<path fill="none" stroke="#191970" d="M288.6023,-165.4179C301.4911,-156.9788 320.9208,-144.257 336.0628,-134.3426"/>
<polygon fill="#191970" stroke="#191970" points="338.391,-137.0017 344.8399,-128.5956 334.5565,-131.1454 338.391,-137.0017"/>
</g>
<!-- Node6&#45;&gt;Node7 -->
<g id="edge7" class="edge">
<title>Node6&#45;&gt;Node7</title>
<path fill="none" stroke="#191970" d="M342.5487,-110.4179C327.0862,-101.7399 303.5547,-88.5334 285.6906,-78.5077"/>
<polygon fill="#191970" stroke="#191970" points="287.3717,-75.4377 276.9382,-73.5956 283.9457,-81.542 287.3717,-75.4377"/>
</g>
<!-- Node8 -->
<g id="node9" class="node">
<title>Node8</title>
<g id="a_node9"><a xlink:href="constants_8h.html" target="_top" xlink:title="constants.h">
<polygon fill="#ffffff" stroke="#000000" points="227.1602,-.5 227.1602,-18.5 294.3027,-18.5 294.3027,-.5 227.1602,-.5"/>
<text text-anchor="middle" x="260.7314" y="-6.5" font-family="Helvetica,sans-Serif" font-size="10.00" fill="#000000">constants.h</text>
</a>
</g>
</g>
<!-- Node6&#45;&gt;Node8 -->
<g id="edge9" class="edge">
<title>Node6&#45;&gt;Node8</title>
<path fill="none" stroke="#191970" d="M350.7117,-110.4982C334.2731,-92.0467 296.5392,-49.6924 275.5325,-26.1134"/>
<polygon fill="#191970" stroke="#191970" points="278.1274,-23.7645 268.862,-18.6261 272.9008,-28.421 278.1274,-23.7645"/>
</g>
<!-- Node9 -->
<g id="node10" class="node">
<title>Node9</title>
<g id="a_node10"><a xlink:href="speech__enhancement_8h.html" target="_top" xlink:title="speech_enhancement.h">
<polygon fill="#ffffff" stroke="#000000" points="341.3574,-55.5 341.3574,-73.5 464.1055,-73.5 464.1055,-55.5 341.3574,-55.5"/>
<text text-anchor="middle" x="402.7314" y="-61.5" font-family="Helvetica,sans-Serif" font-size="10.00" fill="#000000">speech_enhancement.h</text>
</a>
</g>
</g>
<!-- Node6&#45;&gt;Node9 -->
<g id="edge10" class="edge">
<title>Node6&#45;&gt;Node9</title>
<path fill="none" stroke="#191970" d="M365.9972,-110.4179C372.2015,-102.6624 381.2994,-91.29 388.8886,-81.8035"/>
<polygon fill="#191970" stroke="#191970" points="391.7939,-83.7746 395.3079,-73.7795 386.3278,-79.4017 391.7939,-83.7746"/>
</g>
<!-- Node7&#45;&gt;Node8 -->
<g id="edge8" class="edge">
<title>Node7&#45;&gt;Node8</title>
<path fill="none" stroke="#191970" d="M260.7314,-55.4179C260.7314,-48.2164 260.7314,-37.8962 260.7314,-28.8632"/>
<polygon fill="#191970" stroke="#191970" points="264.2315,-28.7794 260.7314,-18.7795 257.2315,-28.7795 264.2315,-28.7794"/>
</g>
<!-- Node10 -->
<g id="node11" class="node">
<title>Node10</title>
<polygon fill="#ffffff" stroke="#bfbfbf" points="312.4458,-.5 312.4458,-18.5 359.0171,-18.5 359.0171,-.5 312.4458,-.5"/>
<text text-anchor="middle" x="335.7314" y="-6.5" font-family="Helvetica,sans-Serif" font-size="10.00" fill="#000000">math.h</text>
</g>
<!-- Node9&#45;&gt;Node10 -->
<g id="edge11" class="edge">
<title>Node9&#45;&gt;Node10</title>
<path fill="none" stroke="#191970" d="M391.6678,-55.4179C381.7382,-47.2667 366.9414,-35.1201 355.0603,-25.3669"/>
<polygon fill="#191970" stroke="#191970" points="356.9856,-22.4192 347.0355,-18.7795 352.5441,-27.8297 356.9856,-22.4192"/>
</g>
<!-- Node11 -->
<g id="node12" class="node">
<title>Node11</title>
<polygon fill="#ffffff" stroke="#bfbfbf" points="376.9409,-.5 376.9409,-18.5 428.522,-18.5 428.522,-.5 376.9409,-.5"/>
<text text-anchor="middle" x="402.7314" y="-6.5" font-family="Helvetica,sans-Serif" font-size="10.00" fill="#000000">stddef.h</text>
</g>
<!-- Node9&#45;&gt;Node11 -->
<g id="edge12" class="edge">
<title>Node9&#45;&gt;Node11</title>
<path fill="none" stroke="#191970" d="M402.7314,-55.4179C402.7314,-48.2164 402.7314,-37.8962 402.7314,-28.8632"/>
<polygon fill="#191970" stroke="#191970" points="406.2315,-28.7794 402.7314,-18.7795 399.2315,-28.7795 406.2315,-28.7794"/>
</g>
<!-- Node12 -->
<g id="node13" class="node">
<title>Node12</title>
<g id="a_node13"><a xlink:href="array__utilities_8h.html" target="_top" xlink:title="array_utilities.h">
<polygon fill="#ffffff" stroke="#000000" points="446.106,-.5 446.106,-18.5 529.3569,-18.5 529.3569,-.5 446.106,-.5"/>
<text text-anchor="middle" x="487.7314" y="-6.5" font-family="Helvetica,sans-Serif" font-size="10.00" fill="#000000">array_utilities.h</text>
</a>
</g>
</g>
<!-- Node9&#45;&gt;Node12 -->
<g id="edge13" class="edge">
<title>Node9&#45;&gt;Node12</title>
<path fill="none" stroke="#191970" d="M416.7675,-55.4179C429.9328,-46.8992 449.8422,-34.0166 465.2254,-24.0627"/>
<polygon fill="#191970" stroke="#191970" points="467.1802,-26.9667 473.6746,-18.5956 463.3775,-21.0897 467.1802,-26.9667"/>
</g>
</g>
</svg>
