<?xml version="1.0" encoding="UTF-8" standalone="no"?>
<!DOCTYPE svg PUBLIC "-//W3C//DTD SVG 1.1//EN"
 "http://www.w3.org/Graphics/SVG/1.1/DTD/svg11.dtd">
<!-- Generated by graphviz version 2.40.1 (20161225.0304)
 -->
<!-- Title: osp/port_wrapper.h Pages: 1 -->
<svg width="192pt" height="82pt"
 viewBox="0.00 0.00 191.70 82.00" xmlns="http://www.w3.org/2000/svg" xmlns:xlink="http://www.w3.org/1999/xlink">
<g id="graph0" class="graph" transform="scale(1 1) rotate(0) translate(4 78)">
<title>osp/port_wrapper.h</title>
<polygon fill="#ffffff" stroke="transparent" points="-4,4 -4,-78 187.7041,-78 187.7041,4 -4,4"/>
<!-- Node9 -->
<g id="node1" class="node">
<title>Node9</title>
<polygon fill="#bfbfbf" stroke="#000000" points="31.3696,-55.5 31.3696,-73.5 132.9849,-73.5 132.9849,-55.5 31.3696,-55.5"/>
<text text-anchor="middle" x="82.1772" y="-61.5" font-family="Helvetica,sans-Serif" font-size="10.00" fill="#000000">osp/port_wrapper.h</text>
</g>
<!-- Node10 -->
<g id="node2" class="node">
<title>Node10</title>
<g id="a_node2"><a xlink:href="main_8c.html" target="_top" xlink:title="osp/main.c">
<polygon fill="#ffffff" stroke="#000000" points="0,-.5 0,-18.5 64.3545,-18.5 64.3545,-.5 0,-.5"/>
<text text-anchor="middle" x="32.1772" y="-6.5" font-family="Helvetica,sans-Serif" font-size="10.00" fill="#000000">osp/main.c</text>
</a>
</g>
</g>
<!-- Node9&#45;&gt;Node10 -->
<g id="edge1" class="edge">
<title>Node9&#45;&gt;Node10</title>
<path fill="none" stroke="#191970" d="M67.189,-48.0129C58.4941,-38.4485 47.8638,-26.7552 40.6131,-18.7795"/>
<polygon fill="#191970" stroke="#191970" points="64.6042,-50.3728 73.9208,-55.4179 69.7838,-45.6641 64.6042,-50.3728"/>
</g>
<!-- Node11 -->
<g id="node3" class="node">
<title>Node11</title>
<g id="a_node3"><a xlink:href="port__wrapper_8c.html" target="_top" xlink:title="osp/port_wrapper.c">
<polygon fill="#ffffff" stroke="#000000" points="82.6504,-.5 82.6504,-18.5 183.7041,-18.5 183.7041,-.5 82.6504,-.5"/>
<text text-anchor="middle" x="133.1772" y="-6.5" font-family="Helvetica,sans-Serif" font-size="10.00" fill="#000000">osp/port_wrapper.c</text>
</a>
</g>
</g>
<!-- Node9&#45;&gt;Node11 -->
<g id="edge2" class="edge">
<title>Node9&#45;&gt;Node11</title>
<path fill="none" stroke="#191970" d="M97.4653,-48.0129C106.3341,-38.4485 117.177,-26.7552 124.5727,-18.7795"/>
<polygon fill="#191970" stroke="#191970" points="94.8318,-45.7054 90.5989,-55.4179 99.9647,-50.465 94.8318,-45.7054"/>
</g>
</g>
</svg>
