<?xml version="1.0" encoding="UTF-8" standalone="no"?>
<!DOCTYPE svg PUBLIC "-//W3C//DTD SVG 1.1//EN"
 "http://www.w3.org/Graphics/SVG/1.1/DTD/svg11.dtd">
<!-- Generated by graphviz version 2.40.1 (20161225.0304)
 -->
<!-- Title: osp/port_wrapper.h Pages: 1 -->
<svg width="349pt" height="192pt"
 viewBox="0.00 0.00 348.65 192.00" xmlns="http://www.w3.org/2000/svg" xmlns:xlink="http://www.w3.org/1999/xlink">
<g id="graph0" class="graph" transform="scale(1 1) rotate(0) translate(4 188)">
<title>osp/port_wrapper.h</title>
<polygon fill="#ffffff" stroke="transparent" points="-4,4 -4,-188 344.645,-188 344.645,4 -4,4"/>
<!-- Node0 -->
<g id="node1" class="node">
<title>Node0</title>
<polygon fill="#bfbfbf" stroke="#000000" points="28.2119,-165.5 28.2119,-183.5 129.8271,-183.5 129.8271,-165.5 28.2119,-165.5"/>
<text text-anchor="middle" x="79.0195" y="-171.5" font-family="Helvetica,sans-Serif" font-size="10.00" fill="#000000">osp/port_wrapper.h</text>
</g>
<!-- Node1 -->
<g id="node2" class="node">
<title>Node1</title>
<polygon fill="#ffffff" stroke="#bfbfbf" points="0,-110.5 0,-128.5 66.0391,-128.5 66.0391,-110.5 0,-110.5"/>
<text text-anchor="middle" x="33.0195" y="-116.5" font-family="Helvetica,sans-Serif" font-size="10.00" fill="#000000">portaudio.h</text>
</g>
<!-- Node0&#45;&gt;Node1 -->
<g id="edge1" class="edge">
<title>Node0&#45;&gt;Node1</title>
<path fill="none" stroke="#191970" d="M71.4236,-165.4179C64.871,-157.5833 55.2313,-146.0575 47.2492,-136.5137"/>
<polygon fill="#191970" stroke="#191970" points="49.8809,-134.2048 40.7805,-128.7795 44.5113,-138.6957 49.8809,-134.2048"/>
</g>
<!-- Node2 -->
<g id="node3" class="node">
<title>Node2</title>
<g id="a_node3"><a xlink:href="osp__process_8h.html" target="_top" xlink:title="osp_process.h">
<polygon fill="#ffffff" stroke="#000000" points="84.5,-110.5 84.5,-128.5 165.5391,-128.5 165.5391,-110.5 84.5,-110.5"/>
<text text-anchor="middle" x="125.0195" y="-116.5" font-family="Helvetica,sans-Serif" font-size="10.00" fill="#000000">osp_process.h</text>
</a>
</g>
</g>
<!-- Node0&#45;&gt;Node2 -->
<g id="edge2" class="edge">
<title>Node0&#45;&gt;Node2</title>
<path fill="none" stroke="#191970" d="M86.6155,-165.4179C93.1681,-157.5833 102.8078,-146.0575 110.7899,-136.5137"/>
<polygon fill="#191970" stroke="#191970" points="113.5277,-138.6957 117.2585,-128.7795 108.1582,-134.2048 113.5277,-138.6957"/>
</g>
<!-- Node3 -->
<g id="node4" class="node">
<title>Node3</title>
<g id="a_node4"><a xlink:href="coeffs_8h.html" target="_top" xlink:title="coeffs.h">
<polygon fill="#ffffff" stroke="#000000" points="46.5977,-55.5 46.5977,-73.5 97.4414,-73.5 97.4414,-55.5 46.5977,-55.5"/>
<text text-anchor="middle" x="72.0195" y="-61.5" font-family="Helvetica,sans-Serif" font-size="10.00" fill="#000000">coeffs.h</text>
</a>
</g>
</g>
<!-- Node2&#45;&gt;Node3 -->
<g id="edge3" class="edge">
<title>Node2&#45;&gt;Node3</title>
<path fill="none" stroke="#191970" d="M116.2677,-110.4179C108.6417,-102.5041 97.3866,-90.8243 88.1364,-81.2251"/>
<polygon fill="#191970" stroke="#191970" points="90.4208,-78.5516 80.9616,-73.7795 85.3802,-83.4089 90.4208,-78.5516"/>
</g>
<!-- Node4 -->
<g id="node5" class="node">
<title>Node4</title>
<g id="a_node5"><a xlink:href="constants_8h.html" target="_top" xlink:title="constants.h">
<polygon fill="#ffffff" stroke="#000000" points="38.4482,-.5 38.4482,-18.5 105.5908,-18.5 105.5908,-.5 38.4482,-.5"/>
<text text-anchor="middle" x="72.0195" y="-6.5" font-family="Helvetica,sans-Serif" font-size="10.00" fill="#000000">constants.h</text>
</a>
</g>
</g>
<!-- Node2&#45;&gt;Node4 -->
<g id="edge5" class="edge">
<title>Node2&#45;&gt;Node4</title>
<path fill="none" stroke="#191970" d="M123.3932,-110.3603C120.8732,-97.506 115.3207,-73.5811 106.0195,-55 100.9089,-44.7904 93.4664,-34.5088 86.8466,-26.3087"/>
<polygon fill="#191970" stroke="#191970" points="89.4898,-24.0137 80.3782,-18.6072 84.1295,-28.5157 89.4898,-24.0137"/>
</g>
<!-- Node5 -->
<g id="node6" class="node">
<title>Node5</title>
<g id="a_node6"><a xlink:href="speech__enhancement_8h.html" target="_top" xlink:title="speech_enhancement.h">
<polygon fill="#ffffff" stroke="#000000" points="152.6455,-55.5 152.6455,-73.5 275.3936,-73.5 275.3936,-55.5 152.6455,-55.5"/>
<text text-anchor="middle" x="214.0195" y="-61.5" font-family="Helvetica,sans-Serif" font-size="10.00" fill="#000000">speech_enhancement.h</text>
</a>
</g>
</g>
<!-- Node2&#45;&gt;Node5 -->
<g id="edge6" class="edge">
<title>Node2&#45;&gt;Node5</title>
<path fill="none" stroke="#191970" d="M139.7161,-110.4179C153.5009,-101.8992 174.3473,-89.0166 190.4544,-79.0627"/>
<polygon fill="#191970" stroke="#191970" points="192.6344,-81.83 199.3012,-73.5956 188.9545,-75.8753 192.6344,-81.83"/>
</g>
<!-- Node3&#45;&gt;Node4 -->
<g id="edge4" class="edge">
<title>Node3&#45;&gt;Node4</title>
<path fill="none" stroke="#191970" d="M72.0195,-55.4179C72.0195,-48.2164 72.0195,-37.8962 72.0195,-28.8632"/>
<polygon fill="#191970" stroke="#191970" points="75.5196,-28.7794 72.0195,-18.7795 68.5196,-28.7795 75.5196,-28.7794"/>
</g>
<!-- Node6 -->
<g id="node7" class="node">
<title>Node6</title>
<polygon fill="#ffffff" stroke="#bfbfbf" points="123.7339,-.5 123.7339,-18.5 170.3052,-18.5 170.3052,-.5 123.7339,-.5"/>
<text text-anchor="middle" x="147.0195" y="-6.5" font-family="Helvetica,sans-Serif" font-size="10.00" fill="#000000">math.h</text>
</g>
<!-- Node5&#45;&gt;Node6 -->
<g id="edge7" class="edge">
<title>Node5&#45;&gt;Node6</title>
<path fill="none" stroke="#191970" d="M202.9558,-55.4179C193.0263,-47.2667 178.2295,-35.1201 166.3484,-25.3669"/>
<polygon fill="#191970" stroke="#191970" points="168.2736,-22.4192 158.3236,-18.7795 163.8322,-27.8297 168.2736,-22.4192"/>
</g>
<!-- Node7 -->
<g id="node8" class="node">
<title>Node7</title>
<polygon fill="#ffffff" stroke="#bfbfbf" points="188.229,-.5 188.229,-18.5 239.8101,-18.5 239.8101,-.5 188.229,-.5"/>
<text text-anchor="middle" x="214.0195" y="-6.5" font-family="Helvetica,sans-Serif" font-size="10.00" fill="#000000">stddef.h</text>
</g>
<!-- Node5&#45;&gt;Node7 -->
<g id="edge8" class="edge">
<title>Node5&#45;&gt;Node7</title>
<path fill="none" stroke="#191970" d="M214.0195,-55.4179C214.0195,-48.2164 214.0195,-37.8962 214.0195,-28.8632"/>
<polygon fill="#191970" stroke="#191970" points="217.5196,-28.7794 214.0195,-18.7795 210.5196,-28.7795 217.5196,-28.7794"/>
</g>
<!-- Node8 -->
<g id="node9" class="node">
<title>Node8</title>
<g id="a_node9"><a xlink:href="array__utilities_8h.html" target="_top" xlink:title="array_utilities.h">
<polygon fill="#ffffff" stroke="#000000" points="257.394,-.5 257.394,-18.5 340.645,-18.5 340.645,-.5 257.394,-.5"/>
<text text-anchor="middle" x="299.0195" y="-6.5" font-family="Helvetica,sans-Serif" font-size="10.00" fill="#000000">array_utilities.h</text>
</a>
</g>
</g>
<!-- Node5&#45;&gt;Node8 -->
<g id="edge9" class="edge">
<title>Node5&#45;&gt;Node8</title>
<path fill="none" stroke="#191970" d="M228.0556,-55.4179C241.2208,-46.8992 261.1303,-34.0166 276.5135,-24.0627"/>
<polygon fill="#191970" stroke="#191970" points="278.4683,-26.9667 284.9627,-18.5956 274.6655,-21.0897 278.4683,-26.9667"/>
</g>
</g>
</svg>
