<?xml version="1.0" encoding="UTF-8" standalone="no"?>
<!DOCTYPE svg PUBLIC "-//W3C//DTD SVG 1.1//EN"
 "http://www.w3.org/Graphics/SVG/1.1/DTD/svg11.dtd">
<!-- Generated by graphviz version 2.40.1 (20161225.0304)
 -->
<!-- Title: libosp/resample/resample.h Pages: 1 -->
<svg width="347pt" height="82pt"
 viewBox="0.00 0.00 347.04 82.00" xmlns="http://www.w3.org/2000/svg" xmlns:xlink="http://www.w3.org/1999/xlink">
<g id="graph0" class="graph" transform="scale(1 1) rotate(0) translate(4 78)">
<title>libosp/resample/resample.h</title>
<polygon fill="#ffffff" stroke="transparent" points="-4,4 -4,-78 343.0366,-78 343.0366,4 -4,4"/>
<!-- Node1 -->
<g id="node1" class="node">
<title>Node1</title>
<polygon fill="#bfbfbf" stroke="#000000" points="64.0371,-55.5 64.0371,-73.5 202.3174,-73.5 202.3174,-55.5 64.0371,-55.5"/>
<text text-anchor="middle" x="133.1772" y="-61.5" font-family="Helvetica,sans-Serif" font-size="10.00" fill="#000000">libosp/resample/resample.h</text>
</g>
<!-- Node2 -->
<g id="node2" class="node">
<title>Node2</title>
<g id="a_node2"><a xlink:href="main_8c.html" target="_top" xlink:title="osp/main.c">
<polygon fill="#ffffff" stroke="#000000" points="0,-.5 0,-18.5 64.3545,-18.5 64.3545,-.5 0,-.5"/>
<text text-anchor="middle" x="32.1772" y="-6.5" font-family="Helvetica,sans-Serif" font-size="10.00" fill="#000000">osp/main.c</text>
</a>
</g>
</g>
<!-- Node1&#45;&gt;Node2 -->
<g id="edge1" class="edge">
<title>Node1&#45;&gt;Node2</title>
<path fill="none" stroke="#191970" d="M107.4827,-50.5079C89.0778,-40.4854 64.8246,-27.2783 48.8801,-18.5956"/>
<polygon fill="#191970" stroke="#191970" points="106.043,-53.7092 116.4992,-55.4179 109.3907,-47.5616 106.043,-53.7092"/>
</g>
<!-- Node3 -->
<g id="node3" class="node">
<title>Node3</title>
<g id="a_node3"><a xlink:href="port__wrapper_8c.html" target="_top" xlink:title="osp/port_wrapper.c">
<polygon fill="#ffffff" stroke="#000000" points="82.6504,-.5 82.6504,-18.5 183.7041,-18.5 183.7041,-.5 82.6504,-.5"/>
<text text-anchor="middle" x="133.1772" y="-6.5" font-family="Helvetica,sans-Serif" font-size="10.00" fill="#000000">osp/port_wrapper.c</text>
</a>
</g>
</g>
<!-- Node1&#45;&gt;Node3 -->
<g id="edge2" class="edge">
<title>Node1&#45;&gt;Node3</title>
<path fill="none" stroke="#191970" d="M133.1772,-45.383C133.1772,-36.3738 133.1772,-26.0373 133.1772,-18.7795"/>
<polygon fill="#191970" stroke="#191970" points="129.6773,-45.4178 133.1772,-55.4179 136.6773,-45.4179 129.6773,-45.4178"/>
</g>
<!-- Node4 -->
<g id="node4" class="node">
<title>Node4</title>
<g id="a_node4"><a xlink:href="resample_8c.html" target="_top" xlink:title="libosp/resample/resample.c">
<polygon fill="#ffffff" stroke="#000000" points="201.3179,-.5 201.3179,-18.5 339.0366,-18.5 339.0366,-.5 201.3179,-.5"/>
<text text-anchor="middle" x="270.1772" y="-6.5" font-family="Helvetica,sans-Serif" font-size="10.00" fill="#000000">libosp/resample/resample.c</text>
</a>
</g>
</g>
<!-- Node1&#45;&gt;Node4 -->
<g id="edge3" class="edge">
<title>Node1&#45;&gt;Node4</title>
<path fill="none" stroke="#191970" d="M165.3149,-51.598C190.5656,-41.4609 225.0995,-27.5969 247.5209,-18.5956"/>
<polygon fill="#191970" stroke="#191970" points="163.7761,-48.4442 155.8,-55.4179 166.3841,-54.9403 163.7761,-48.4442"/>
</g>
</g>
</svg>
