<?xml version="1.0" encoding="UTF-8" standalone="no"?>
<!DOCTYPE svg PUBLIC "-//W3C//DTD SVG 1.1//EN"
 "http://www.w3.org/Graphics/SVG/1.1/DTD/svg11.dtd">
<!-- Generated by graphviz version 2.40.1 (20161225.0304)
 -->
<!-- Title: libosp/resample/resample.c Pages: 1 -->
<svg width="200pt" height="82pt"
 viewBox="0.00 0.00 200.18 82.00" xmlns="http://www.w3.org/2000/svg" xmlns:xlink="http://www.w3.org/1999/xlink">
<g id="graph0" class="graph" transform="scale(1 1) rotate(0) translate(4 78)">
<title>libosp/resample/resample.c</title>
<polygon fill="#ffffff" stroke="transparent" points="-4,4 -4,-78 196.1846,-78 196.1846,4 -4,4"/>
<!-- Node0 -->
<g id="node1" class="node">
<title>Node0</title>
<polygon fill="#bfbfbf" stroke="#000000" points="29.9829,-55.5 29.9829,-73.5 167.7017,-73.5 167.7017,-55.5 29.9829,-55.5"/>
<text text-anchor="middle" x="98.8423" y="-61.5" font-family="Helvetica,sans-Serif" font-size="10.00" fill="#000000">libosp/resample/resample.c</text>
</g>
<!-- Node1 -->
<g id="node2" class="node">
<title>Node1</title>
<polygon fill="#ffffff" stroke="#bfbfbf" points="0,-.5 0,-18.5 47.6846,-18.5 47.6846,-.5 0,-.5"/>
<text text-anchor="middle" x="23.8423" y="-6.5" font-family="Helvetica,sans-Serif" font-size="10.00" fill="#000000">stdlib.h</text>
</g>
<!-- Node0&#45;&gt;Node1 -->
<g id="edge1" class="edge">
<title>Node0&#45;&gt;Node1</title>
<path fill="none" stroke="#191970" d="M86.4576,-55.4179C75.0583,-47.0584 57.9286,-34.4966 44.4658,-24.6239"/>
<polygon fill="#191970" stroke="#191970" points="46.3793,-21.6869 36.2454,-18.5956 42.2397,-27.3317 46.3793,-21.6869"/>
</g>
<!-- Node2 -->
<g id="node3" class="node">
<title>Node2</title>
<g id="a_node3"><a xlink:href="resample_8h.html" target="_top" xlink:title="resample.h">
<polygon fill="#ffffff" stroke="#000000" points="66.1084,-.5 66.1084,-18.5 131.5762,-18.5 131.5762,-.5 66.1084,-.5"/>
<text text-anchor="middle" x="98.8423" y="-6.5" font-family="Helvetica,sans-Serif" font-size="10.00" fill="#000000">resample.h</text>
</a>
</g>
</g>
<!-- Node0&#45;&gt;Node2 -->
<g id="edge2" class="edge">
<title>Node0&#45;&gt;Node2</title>
<path fill="none" stroke="#191970" d="M98.8423,-55.4179C98.8423,-48.2164 98.8423,-37.8962 98.8423,-28.8632"/>
<polygon fill="#191970" stroke="#191970" points="102.3424,-28.7794 98.8423,-18.7795 95.3424,-28.7795 102.3424,-28.7794"/>
</g>
<!-- Node3 -->
<g id="node4" class="node">
<title>Node3</title>
<g id="a_node4"><a xlink:href="filter_8h.html" target="_top" xlink:title="filter.h">
<polygon fill="#ffffff" stroke="#000000" points="149.5,-.5 149.5,-18.5 192.1846,-18.5 192.1846,-.5 149.5,-.5"/>
<text text-anchor="middle" x="170.8423" y="-6.5" font-family="Helvetica,sans-Serif" font-size="10.00" fill="#000000">filter.h</text>
</a>
</g>
</g>
<!-- Node0&#45;&gt;Node3 -->
<g id="edge3" class="edge">
<title>Node0&#45;&gt;Node3</title>
<path fill="none" stroke="#191970" d="M110.7316,-55.4179C121.5058,-47.1876 137.6125,-34.8839 150.442,-25.0836"/>
<polygon fill="#191970" stroke="#191970" points="152.8726,-27.6313 158.6946,-18.7795 148.6232,-22.0685 152.8726,-27.6313"/>
</g>
</g>
</svg>
