<?xml version="1.0" encoding="UTF-8" standalone="no"?>
<!DOCTYPE svg PUBLIC "-//W3C//DTD SVG 1.1//EN"
 "http://www.w3.org/Graphics/SVG/1.1/DTD/svg11.dtd">
<!-- Generated by graphviz version 2.40.1 (20161225.0304)
 -->
<!-- Title: libosp/speech_enhancement/speech_enhancement.c Pages: 1 -->
<svg width="338pt" height="147pt"
 viewBox="0.00 0.00 338.02 147.00" xmlns="http://www.w3.org/2000/svg" xmlns:xlink="http://www.w3.org/1999/xlink">
<g id="graph0" class="graph" transform="scale(1 1) rotate(0) translate(4 143)">
<title>libosp/speech_enhancement/speech_enhancement.c</title>
<polygon fill="#ffffff" stroke="transparent" points="-4,4 -4,-143 334.0171,-143 334.0171,4 -4,4"/>
<!-- Node0 -->
<g id="node1" class="node">
<title>Node0</title>
<polygon fill="#bfbfbf" stroke="#000000" points="118.6284,-110.5 118.6284,-138.5 261.9429,-138.5 261.9429,-110.5 118.6284,-110.5"/>
<text text-anchor="start" x="126.6284" y="-126.5" font-family="Helvetica,sans-Serif" font-size="10.00" fill="#000000">libosp/speech_enhancement</text>
<text text-anchor="middle" x="190.2856" y="-116.5" font-family="Helvetica,sans-Serif" font-size="10.00" fill="#000000">/speech_enhancement.c</text>
</g>
<!-- Node1 -->
<g id="node2" class="node">
<title>Node1</title>
<g id="a_node2"><a xlink:href="speech__enhancement_8h.html" target="_top" xlink:title="speech_enhancement.h">
<polygon fill="#ffffff" stroke="#000000" points="39.9116,-55.5 39.9116,-73.5 162.6597,-73.5 162.6597,-55.5 39.9116,-55.5"/>
<text text-anchor="middle" x="101.2856" y="-61.5" font-family="Helvetica,sans-Serif" font-size="10.00" fill="#000000">speech_enhancement.h</text>
</a>
</g>
</g>
<!-- Node0&#45;&gt;Node1 -->
<g id="edge1" class="edge">
<title>Node0&#45;&gt;Node1</title>
<path fill="none" stroke="#191970" d="M169.1939,-110.2808C155.3632,-100.9568 137.3151,-88.7895 123.3018,-79.3423"/>
<polygon fill="#191970" stroke="#191970" points="125.0088,-76.272 114.7605,-73.5842 121.0958,-82.0763 125.0088,-76.272"/>
</g>
<!-- Node2 -->
<g id="node3" class="node">
<title>Node2</title>
<polygon fill="#ffffff" stroke="#bfbfbf" points="0,-.5 0,-18.5 46.5713,-18.5 46.5713,-.5 0,-.5"/>
<text text-anchor="middle" x="23.2856" y="-6.5" font-family="Helvetica,sans-Serif" font-size="10.00" fill="#000000">math.h</text>
</g>
<!-- Node0&#45;&gt;Node2 -->
<g id="edge5" class="edge">
<title>Node0&#45;&gt;Node2</title>
<path fill="none" stroke="#191970" d="M121.8226,-110.4693C84.4457,-101.3742 43.3637,-88.5351 31.2856,-74 20.9293,-61.5368 19.6747,-42.759 20.5692,-28.6734"/>
<polygon fill="#191970" stroke="#191970" points="24.0643,-28.9009 21.6145,-18.5932 17.1017,-28.1788 24.0643,-28.9009"/>
</g>
<!-- Node4 -->
<g id="node5" class="node">
<title>Node4</title>
<g id="a_node5"><a xlink:href="array__utilities_8h.html" target="_top" xlink:title="array_utilities.h">
<polygon fill="#ffffff" stroke="#000000" points="146.6602,-.5 146.6602,-18.5 229.9111,-18.5 229.9111,-.5 146.6602,-.5"/>
<text text-anchor="middle" x="188.2856" y="-6.5" font-family="Helvetica,sans-Serif" font-size="10.00" fill="#000000">array_utilities.h</text>
</a>
</g>
</g>
<!-- Node0&#45;&gt;Node4 -->
<g id="edge7" class="edge">
<title>Node0&#45;&gt;Node4</title>
<path fill="none" stroke="#191970" d="M190.0404,-110.3987C189.6853,-89.9779 189.0265,-52.0975 188.6249,-29.0089"/>
<polygon fill="#191970" stroke="#191970" points="192.1196,-28.6662 188.4461,-18.7286 185.1207,-28.788 192.1196,-28.6662"/>
</g>
<!-- Node5 -->
<g id="node6" class="node">
<title>Node5</title>
<polygon fill="#ffffff" stroke="#bfbfbf" points="218.4434,-55.5 218.4434,-73.5 266.1279,-73.5 266.1279,-55.5 218.4434,-55.5"/>
<text text-anchor="middle" x="242.2856" y="-61.5" font-family="Helvetica,sans-Serif" font-size="10.00" fill="#000000">stdlib.h</text>
</g>
<!-- Node0&#45;&gt;Node5 -->
<g id="edge6" class="edge">
<title>Node0&#45;&gt;Node5</title>
<path fill="none" stroke="#191970" d="M202.6089,-110.2808C210.1511,-101.5784 219.8397,-90.3992 227.7548,-81.2664"/>
<polygon fill="#191970" stroke="#191970" points="230.5083,-83.4334 234.4127,-73.5842 225.2184,-78.8488 230.5083,-83.4334"/>
</g>
<!-- Node6 -->
<g id="node7" class="node">
<title>Node6</title>
<polygon fill="#ffffff" stroke="#bfbfbf" points="284.5542,-55.5 284.5542,-73.5 330.0171,-73.5 330.0171,-55.5 284.5542,-55.5"/>
<text text-anchor="middle" x="307.2856" y="-61.5" font-family="Helvetica,sans-Serif" font-size="10.00" fill="#000000">stdio.h</text>
</g>
<!-- Node0&#45;&gt;Node6 -->
<g id="edge8" class="edge">
<title>Node0&#45;&gt;Node6</title>
<path fill="none" stroke="#191970" d="M217.7169,-110.4327C236.6689,-100.7137 261.7494,-87.8519 280.5491,-78.211"/>
<polygon fill="#191970" stroke="#191970" points="282.179,-81.3086 289.4801,-73.6311 278.9848,-75.0799 282.179,-81.3086"/>
</g>
<!-- Node1&#45;&gt;Node2 -->
<g id="edge2" class="edge">
<title>Node1&#45;&gt;Node2</title>
<path fill="none" stroke="#191970" d="M88.4055,-55.4179C76.5503,-47.0584 58.7354,-34.4966 44.7341,-24.6239"/>
<polygon fill="#191970" stroke="#191970" points="46.3745,-21.498 36.1849,-18.5956 42.3405,-27.2188 46.3745,-21.498"/>
</g>
<!-- Node3 -->
<g id="node4" class="node">
<title>Node3</title>
<polygon fill="#ffffff" stroke="#bfbfbf" points="75.4951,-.5 75.4951,-18.5 127.0762,-18.5 127.0762,-.5 75.4951,-.5"/>
<text text-anchor="middle" x="101.2856" y="-6.5" font-family="Helvetica,sans-Serif" font-size="10.00" fill="#000000">stddef.h</text>
</g>
<!-- Node1&#45;&gt;Node3 -->
<g id="edge3" class="edge">
<title>Node1&#45;&gt;Node3</title>
<path fill="none" stroke="#191970" d="M101.2856,-55.4179C101.2856,-48.2164 101.2856,-37.8962 101.2856,-28.8632"/>
<polygon fill="#191970" stroke="#191970" points="104.7857,-28.7794 101.2856,-18.7795 97.7857,-28.7795 104.7857,-28.7794"/>
</g>
<!-- Node1&#45;&gt;Node4 -->
<g id="edge4" class="edge">
<title>Node1&#45;&gt;Node4</title>
<path fill="none" stroke="#191970" d="M115.6519,-55.4179C129.127,-46.8992 149.5049,-34.0166 165.2501,-24.0627"/>
<polygon fill="#191970" stroke="#191970" points="167.3157,-26.8977 173.898,-18.5956 163.5752,-20.9808 167.3157,-26.8977"/>
</g>
</g>
</svg>
