<?xml version="1.0" encoding="UTF-8" standalone="no"?>
<!DOCTYPE svg PUBLIC "-//W3C//DTD SVG 1.1//EN"
 "http://www.w3.org/Graphics/SVG/1.1/DTD/svg11.dtd">
<!-- Generated by graphviz version 2.40.1 (20161225.0304)
 -->
<!-- Title: libosp/speech_enhancement/speech_enhancement.h Pages: 1 -->
<svg width="349pt" height="222pt"
 viewBox="0.00 0.00 349.46 222.00" xmlns="http://www.w3.org/2000/svg" xmlns:xlink="http://www.w3.org/1999/xlink">
<g id="graph0" class="graph" transform="scale(1 1) rotate(0) translate(4 218)">
<title>libosp/speech_enhancement/speech_enhancement.h</title>
<polygon fill="#ffffff" stroke="transparent" points="-4,4 -4,-218 345.46,-218 345.46,4 -4,4"/>
<!-- Node4 -->
<g id="node1" class="node">
<title>Node4</title>
<polygon fill="#bfbfbf" stroke="#000000" points="58.1455,-185.5 58.1455,-213.5 201.46,-213.5 201.46,-185.5 58.1455,-185.5"/>
<text text-anchor="start" x="66.1455" y="-201.5" font-family="Helvetica,sans-Serif" font-size="10.00" fill="#000000">libosp/speech_enhancement</text>
<text text-anchor="middle" x="129.8027" y="-191.5" font-family="Helvetica,sans-Serif" font-size="10.00" fill="#000000">/speech_enhancement.h</text>
</g>
<!-- Node5 -->
<g id="node2" class="node">
<title>Node5</title>
<g id="a_node2"><a xlink:href="osp__process_8c.html" target="_top" xlink:title="libosp/osp_process\l/osp_process.c">
<polygon fill="#ffffff" stroke="#000000" points="0,-55.5 0,-83.5 101.6055,-83.5 101.6055,-55.5 0,-55.5"/>
<text text-anchor="start" x="8" y="-71.5" font-family="Helvetica,sans-Serif" font-size="10.00" fill="#000000">libosp/osp_process</text>
<text text-anchor="middle" x="50.8027" y="-61.5" font-family="Helvetica,sans-Serif" font-size="10.00" fill="#000000">/osp_process.c</text>
</a>
</g>
</g>
<!-- Node4&#45;&gt;Node5 -->
<g id="edge1" class="edge">
<title>Node4&#45;&gt;Node5</title>
<path fill="none" stroke="#191970" d="M98.3932,-179.2495C87.8866,-171.0317 77.0241,-160.7026 69.8027,-149 57.2087,-128.5905 52.9624,-100.4813 51.5308,-83.733"/>
<polygon fill="#191970" stroke="#191970" points="96.5465,-182.2371 106.6666,-185.3733 100.7111,-176.6107 96.5465,-182.2371"/>
</g>
<!-- Node6 -->
<g id="node3" class="node">
<title>Node6</title>
<g id="a_node3"><a xlink:href="osp__process_8h.html" target="_top" xlink:title="libosp/osp_process\l/osp_process.h">
<polygon fill="#ffffff" stroke="#000000" points="79,-120.5 79,-148.5 180.6055,-148.5 180.6055,-120.5 79,-120.5"/>
<text text-anchor="start" x="87" y="-136.5" font-family="Helvetica,sans-Serif" font-size="10.00" fill="#000000">libosp/osp_process</text>
<text text-anchor="middle" x="129.8027" y="-126.5" font-family="Helvetica,sans-Serif" font-size="10.00" fill="#000000">/osp_process.h</text>
</a>
</g>
</g>
<!-- Node4&#45;&gt;Node6 -->
<g id="edge2" class="edge">
<title>Node4&#45;&gt;Node6</title>
<path fill="none" stroke="#191970" d="M129.8027,-175.1081C129.8027,-166.1539 129.8027,-156.3227 129.8027,-148.5765"/>
<polygon fill="#191970" stroke="#191970" points="126.3028,-175.3959 129.8027,-185.396 133.3028,-175.396 126.3028,-175.3959"/>
</g>
<!-- Node10 -->
<g id="node7" class="node">
<title>Node10</title>
<g id="a_node7"><a xlink:href="speech__enhancement_8c.html" target="_top" xlink:title="libosp/speech_enhancement\l/speech_enhancement.c">
<polygon fill="#ffffff" stroke="#000000" points="198.1455,-120.5 198.1455,-148.5 341.46,-148.5 341.46,-120.5 198.1455,-120.5"/>
<text text-anchor="start" x="206.1455" y="-136.5" font-family="Helvetica,sans-Serif" font-size="10.00" fill="#000000">libosp/speech_enhancement</text>
<text text-anchor="middle" x="269.8027" y="-126.5" font-family="Helvetica,sans-Serif" font-size="10.00" fill="#000000">/speech_enhancement.c</text>
</a>
</g>
</g>
<!-- Node4&#45;&gt;Node10 -->
<g id="edge8" class="edge">
<title>Node4&#45;&gt;Node10</title>
<path fill="none" stroke="#191970" d="M169.3678,-181.1305C191.6128,-170.8025 218.9498,-158.1103 239.4841,-148.5765"/>
<polygon fill="#191970" stroke="#191970" points="167.7768,-178.0103 160.1806,-185.396 170.7247,-184.3593 167.7768,-178.0103"/>
</g>
<!-- Node6&#45;&gt;Node5 -->
<g id="edge7" class="edge">
<title>Node6&#45;&gt;Node5</title>
<path fill="none" stroke="#191970" d="M104.7454,-113.8832C92.7401,-104.0054 78.6706,-92.4293 67.9111,-83.5765"/>
<polygon fill="#191970" stroke="#191970" points="102.715,-116.745 112.6609,-120.396 107.1626,-111.3395 102.715,-116.745"/>
</g>
<!-- Node7 -->
<g id="node4" class="node">
<title>Node7</title>
<g id="a_node4"><a xlink:href="main_8c.html" target="_top" xlink:title="osp/main.c">
<polygon fill="#ffffff" stroke="#000000" points="97.6255,-.5 97.6255,-18.5 161.98,-18.5 161.98,-.5 97.6255,-.5"/>
<text text-anchor="middle" x="129.8027" y="-6.5" font-family="Helvetica,sans-Serif" font-size="10.00" fill="#000000">osp/main.c</text>
</a>
</g>
</g>
<!-- Node6&#45;&gt;Node7 -->
<g id="edge3" class="edge">
<title>Node6&#45;&gt;Node7</title>
<path fill="none" stroke="#191970" d="M129.8027,-109.9957C129.8027,-82.0593 129.8027,-37.8007 129.8027,-18.736"/>
<polygon fill="#191970" stroke="#191970" points="126.3028,-110.1609 129.8027,-120.1609 133.3028,-110.1609 126.3028,-110.1609"/>
</g>
<!-- Node8 -->
<g id="node5" class="node">
<title>Node8</title>
<g id="a_node5"><a xlink:href="port__wrapper_8h.html" target="_top" xlink:title="osp/port_wrapper.h">
<polygon fill="#ffffff" stroke="#000000" points="157.9951,-60.5 157.9951,-78.5 259.6104,-78.5 259.6104,-60.5 157.9951,-60.5"/>
<text text-anchor="middle" x="208.8027" y="-66.5" font-family="Helvetica,sans-Serif" font-size="10.00" fill="#000000">osp/port_wrapper.h</text>
</a>
</g>
</g>
<!-- Node6&#45;&gt;Node8 -->
<g id="edge4" class="edge">
<title>Node6&#45;&gt;Node8</title>
<path fill="none" stroke="#191970" d="M155.0167,-113.7543C169.4201,-101.9034 186.7523,-87.6427 197.774,-78.5743"/>
<polygon fill="#191970" stroke="#191970" points="152.4429,-111.3395 146.9446,-120.396 156.8905,-116.745 152.4429,-111.3395"/>
</g>
<!-- Node8&#45;&gt;Node7 -->
<g id="edge5" class="edge">
<title>Node8&#45;&gt;Node7</title>
<path fill="none" stroke="#191970" d="M188.705,-54.2359C173.8344,-42.9418 154.0827,-27.9405 141.6552,-18.5019"/>
<polygon fill="#191970" stroke="#191970" points="186.7238,-57.1262 196.8043,-60.3873 190.9577,-51.5517 186.7238,-57.1262"/>
</g>
<!-- Node9 -->
<g id="node6" class="node">
<title>Node9</title>
<g id="a_node6"><a xlink:href="port__wrapper_8c.html" target="_top" xlink:title="osp/port_wrapper.c">
<polygon fill="#ffffff" stroke="#000000" points="180.2759,-.5 180.2759,-18.5 281.3296,-18.5 281.3296,-.5 180.2759,-.5"/>
<text text-anchor="middle" x="230.8027" y="-6.5" font-family="Helvetica,sans-Serif" font-size="10.00" fill="#000000">osp/port_wrapper.c</text>
</a>
</g>
</g>
<!-- Node8&#45;&gt;Node9 -->
<g id="edge6" class="edge">
<title>Node8&#45;&gt;Node9</title>
<path fill="none" stroke="#191970" d="M215.6934,-50.7072C219.6015,-40.0487 224.3179,-27.186 227.43,-18.6985"/>
<polygon fill="#191970" stroke="#191970" points="212.3006,-49.7936 212.1441,-60.3873 218.8727,-52.2034 212.3006,-49.7936"/>
</g>
</g>
</svg>
