<?xml version="1.0" encoding="UTF-8" standalone="no"?>
<!DOCTYPE svg PUBLIC "-//W3C//DTD SVG 1.1//EN"
 "http://www.w3.org/Graphics/SVG/1.1/DTD/svg11.dtd">
<!-- Generated by graphviz version 2.40.1 (20161225.0304)
 -->
<!-- Title: libosp/speech_enhancement/speech_enhancement.h Pages: 1 -->
<svg width="225pt" height="92pt"
 viewBox="0.00 0.00 224.91 92.00" xmlns="http://www.w3.org/2000/svg" xmlns:xlink="http://www.w3.org/1999/xlink">
<g id="graph0" class="graph" transform="scale(1 1) rotate(0) translate(4 88)">
<title>libosp/speech_enhancement/speech_enhancement.h</title>
<polygon fill="#ffffff" stroke="transparent" points="-4,4 -4,-88 220.9111,-88 220.9111,4 -4,4"/>
<!-- Node0 -->
<g id="node1" class="node">
<title>Node0</title>
<polygon fill="#bfbfbf" stroke="#000000" points="18.6284,-55.5 18.6284,-83.5 161.9429,-83.5 161.9429,-55.5 18.6284,-55.5"/>
<text text-anchor="start" x="26.6284" y="-71.5" font-family="Helvetica,sans-Serif" font-size="10.00" fill="#000000">libosp/speech_enhancement</text>
<text text-anchor="middle" x="90.2856" y="-61.5" font-family="Helvetica,sans-Serif" font-size="10.00" fill="#000000">/speech_enhancement.h</text>
</g>
<!-- Node1 -->
<g id="node2" class="node">
<title>Node1</title>
<polygon fill="#ffffff" stroke="#bfbfbf" points="0,-.5 0,-18.5 46.5713,-18.5 46.5713,-.5 0,-.5"/>
<text text-anchor="middle" x="23.2856" y="-6.5" font-family="Helvetica,sans-Serif" font-size="10.00" fill="#000000">math.h</text>
</g>
<!-- Node0&#45;&gt;Node1 -->
<g id="edge1" class="edge">
<title>Node0&#45;&gt;Node1</title>
<path fill="none" stroke="#191970" d="M74.4076,-55.2808C64.3923,-46.312 51.4395,-34.7124 41.0781,-25.4335"/>
<polygon fill="#191970" stroke="#191970" points="43.2141,-22.6481 33.4297,-18.5842 38.5443,-27.8628 43.2141,-22.6481"/>
</g>
<!-- Node2 -->
<g id="node3" class="node">
<title>Node2</title>
<polygon fill="#ffffff" stroke="#bfbfbf" points="64.4951,-.5 64.4951,-18.5 116.0762,-18.5 116.0762,-.5 64.4951,-.5"/>
<text text-anchor="middle" x="90.2856" y="-6.5" font-family="Helvetica,sans-Serif" font-size="10.00" fill="#000000">stddef.h</text>
</g>
<!-- Node0&#45;&gt;Node2 -->
<g id="edge2" class="edge">
<title>Node0&#45;&gt;Node2</title>
<path fill="none" stroke="#191970" d="M90.2856,-55.2808C90.2856,-47.3776 90.2856,-37.4316 90.2856,-28.8308"/>
<polygon fill="#191970" stroke="#191970" points="93.7857,-28.5842 90.2856,-18.5842 86.7857,-28.5842 93.7857,-28.5842"/>
</g>
<!-- Node3 -->
<g id="node4" class="node">
<title>Node3</title>
<g id="a_node4"><a xlink:href="array__utilities_8h.html" target="_top" xlink:title="array_utilities.h">
<polygon fill="#ffffff" stroke="#000000" points="133.6602,-.5 133.6602,-18.5 216.9111,-18.5 216.9111,-.5 133.6602,-.5"/>
<text text-anchor="middle" x="175.2856" y="-6.5" font-family="Helvetica,sans-Serif" font-size="10.00" fill="#000000">array_utilities.h</text>
</a>
</g>
</g>
<!-- Node0&#45;&gt;Node3 -->
<g id="edge3" class="edge">
<title>Node0&#45;&gt;Node3</title>
<path fill="none" stroke="#191970" d="M110.4295,-55.2808C123.5128,-46.0456 140.5475,-34.021 153.8756,-24.613"/>
<polygon fill="#191970" stroke="#191970" points="156.2651,-27.2105 162.4164,-18.5842 152.2283,-21.4917 156.2651,-27.2105"/>
</g>
</g>
</svg>
