<?xml version="1.0" encoding="UTF-8" standalone="no"?>
<!DOCTYPE svg PUBLIC "-//W3C//DTD SVG 1.1//EN"
 "http://www.w3.org/Graphics/SVG/1.1/DTD/svg11.dtd">
<!-- Generated by graphviz version 2.40.1 (20161225.0304)
 -->
<!-- Title: resample_t Pages: 1 -->
<svg width="100pt" height="102pt"
 viewBox="0.00 0.00 99.65 102.00" xmlns="http://www.w3.org/2000/svg" xmlns:xlink="http://www.w3.org/1999/xlink">
<g id="graph0" class="graph" transform="scale(1 1) rotate(0) translate(4 98)">
<title>resample_t</title>
<polygon fill="#ffffff" stroke="transparent" points="-4,4 -4,-98 95.6548,-98 95.6548,4 -4,4"/>
<!-- Node1 -->
<g id="node1" class="node">
<title>Node1</title>
<polygon fill="#bfbfbf" stroke="#000000" points="0,-.5 0,-18.5 65.4678,-18.5 65.4678,-.5 0,-.5"/>
<text text-anchor="middle" x="32.7339" y="-6.5" font-family="Helvetica,sans-Serif" font-size="10.00" fill="#000000">resample_t</text>
</g>
<!-- Node2 -->
<g id="node2" class="node">
<title>Node2</title>
<g id="a_node2"><a xlink:href="structfilter__t.html" target="_top" xlink:title="Structure containing filter information. ">
<polygon fill="#ffffff" stroke="#000000" points="11.1182,-75.5 11.1182,-93.5 54.3496,-93.5 54.3496,-75.5 11.1182,-75.5"/>
<text text-anchor="middle" x="32.7339" y="-81.5" font-family="Helvetica,sans-Serif" font-size="10.00" fill="#000000">filter_t</text>
</a>
</g>
</g>
<!-- Node2&#45;&gt;Node1 -->
<g id="edge1" class="edge">
<title>Node2&#45;&gt;Node1</title>
<path fill="none" stroke="#9a32cd" stroke-dasharray="5,2" d="M32.7339,-65.1079C32.7339,-50.2042 32.7339,-30.2791 32.7339,-18.7717"/>
<polygon fill="#9a32cd" stroke="#9a32cd" points="29.234,-65.3035 32.7339,-75.3035 36.234,-65.3036 29.234,-65.3035"/>
<text text-anchor="middle" x="62.1943" y="-49" font-family="Helvetica,sans-Serif" font-size="10.00" fill="#000000"> downsample</text>
<text text-anchor="middle" x="62.1943" y="-39" font-family="Helvetica,sans-Serif" font-size="10.00" fill="#000000">upsample</text>
</g>
</g>
</svg>
