<?xml version="1.0" encoding="UTF-8" standalone="no"?>
<!DOCTYPE svg PUBLIC "-//W3C//DTD SVG 1.1//EN"
 "http://www.w3.org/Graphics/SVG/1.1/DTD/svg11.dtd">
<!-- Generated by graphviz version 2.40.1 (20161225.0304)
 -->
<!-- Title: pa_loopback_data_t Pages: 1 -->
<svg width="238pt" height="92pt"
 viewBox="0.00 0.00 237.51 92.00" xmlns="http://www.w3.org/2000/svg" xmlns:xlink="http://www.w3.org/1999/xlink">
<g id="graph0" class="graph" transform="scale(1 1) rotate(0) translate(4 88)">
<title>pa_loopback_data_t</title>
<polygon fill="#ffffff" stroke="transparent" points="-4,4 -4,-88 233.5093,-88 233.5093,4 -4,4"/>
<!-- Node1 -->
<g id="node1" class="node">
<title>Node1</title>
<polygon fill="#bfbfbf" stroke="#000000" points="54.2119,-.5 54.2119,-18.5 160.29,-18.5 160.29,-.5 54.2119,-.5"/>
<text text-anchor="middle" x="107.251" y="-6.5" font-family="Helvetica,sans-Serif" font-size="10.00" fill="#000000">pa_loopback_data_t</text>
</g>
<!-- Node2 -->
<g id="node2" class="node">
<title>Node2</title>
<g id="a_node2"><a xlink:href="structosp__user__data__t.html" target="_top" xlink:title="general data structure shared between client and C application ">
<polygon fill="#ffffff" stroke="#000000" points="0,-65.5 0,-83.5 90.502,-83.5 90.502,-65.5 0,-65.5"/>
<text text-anchor="middle" x="45.251" y="-71.5" font-family="Helvetica,sans-Serif" font-size="10.00" fill="#000000">osp_user_data_t</text>
</a>
</g>
</g>
<!-- Node2&#45;&gt;Node1 -->
<g id="edge1" class="edge">
<title>Node2&#45;&gt;Node1</title>
<path fill="none" stroke="#9a32cd" stroke-dasharray="5,2" d="M60.9644,-58.0262C72.7834,-45.6354 88.5566,-29.0989 98.3019,-18.8821"/>
<polygon fill="#9a32cd" stroke="#9a32cd" points="58.2413,-55.8102 53.8718,-65.462 63.3066,-60.6417 58.2413,-55.8102"/>
<text text-anchor="middle" x="102.2139" y="-39" font-family="Helvetica,sans-Serif" font-size="10.00" fill="#000000"> osp_data</text>
</g>
<!-- Node3 -->
<g id="node3" class="node">
<title>Node3</title>
<g id="a_node3"><a xlink:href="structfile__loopback__context__t.html" target="_top" xlink:title="Struct containing details for file loopback mode. ">
<polygon fill="#ffffff" stroke="#000000" points="108.9927,-65.5 108.9927,-83.5 229.5093,-83.5 229.5093,-65.5 108.9927,-65.5"/>
<text text-anchor="middle" x="169.251" y="-71.5" font-family="Helvetica,sans-Serif" font-size="10.00" fill="#000000">file_loopback_context_t</text>
</a>
</g>
</g>
<!-- Node3&#45;&gt;Node1 -->
<g id="edge2" class="edge">
<title>Node3&#45;&gt;Node1</title>
<path fill="none" stroke="#9a32cd" stroke-dasharray="5,2" d="M153.5375,-58.0262C141.7186,-45.6354 125.9454,-29.0989 116.2001,-18.8821"/>
<polygon fill="#9a32cd" stroke="#9a32cd" points="151.1954,-60.6417 160.6301,-65.462 156.2606,-55.8102 151.1954,-60.6417"/>
<text text-anchor="middle" x="158.2017" y="-39" font-family="Helvetica,sans-Serif" font-size="10.00" fill="#000000"> file_ctx</text>
</g>
</g>
</svg>
