<?xml version="1.0" encoding="UTF-8" standalone="no"?>
<!DOCTYPE svg PUBLIC "-//W3C//DTD SVG 1.1//EN"
 "http://www.w3.org/Graphics/SVG/1.1/DTD/svg11.dtd">
<!-- Generated by graphviz version 2.40.1 (20161225.0304)
 -->
<!-- Title: afc_t Pages: 1 -->
<svg width="203pt" height="122pt"
 viewBox="0.00 0.00 202.92 122.00" xmlns="http://www.w3.org/2000/svg" xmlns:xlink="http://www.w3.org/1999/xlink">
<g id="graph0" class="graph" transform="scale(1 1) rotate(0) translate(4 118)">
<title>afc_t</title>
<polygon fill="#ffffff" stroke="transparent" points="-4,4 -4,-118 198.9189,-118 198.9189,4 -4,4"/>
<!-- Node1 -->
<g id="node1" class="node">
<title>Node1</title>
<polygon fill="#bfbfbf" stroke="#000000" points="65.9219,-.5 65.9219,-18.5 103.6016,-18.5 103.6016,-.5 65.9219,-.5"/>
<text text-anchor="middle" x="84.7617" y="-6.5" font-family="Helvetica,sans-Serif" font-size="10.00" fill="#000000">afc_t</text>
</g>
<!-- Node2 -->
<g id="node2" class="node">
<title>Node2</title>
<g id="a_node2"><a xlink:href="structcircular__buffer__t.html" target="_top" xlink:title="circular_buffer_t">
<polygon fill="#ffffff" stroke="#000000" points="0,-95.5 0,-113.5 87.5234,-113.5 87.5234,-95.5 0,-95.5"/>
<text text-anchor="middle" x="43.7617" y="-101.5" font-family="Helvetica,sans-Serif" font-size="10.00" fill="#000000">circular_buffer_t</text>
</a>
</g>
</g>
<!-- Node2&#45;&gt;Node1 -->
<g id="edge1" class="edge">
<title>Node2&#45;&gt;Node1</title>
<path fill="none" stroke="#9a32cd" stroke-dasharray="5,2" d="M51.7457,-86.0004C60.4695,-65.7868 74.0921,-34.2222 80.7821,-18.721"/>
<polygon fill="#9a32cd" stroke="#9a32cd" points="48.442,-84.8227 47.693,-95.391 54.869,-87.5965 48.442,-84.8227"/>
<text text-anchor="middle" x="82.4932" y="-54" font-family="Helvetica,sans-Serif" font-size="10.00" fill="#000000"> upa</text>
</g>
<!-- Node3 -->
<g id="node3" class="node">
<title>Node3</title>
<g id="a_node3"><a xlink:href="structfilter__t.html" target="_top" xlink:title="Structure containing filter information. ">
<polygon fill="#ffffff" stroke="#000000" points="105.146,-95.5 105.146,-113.5 148.3774,-113.5 148.3774,-95.5 105.146,-95.5"/>
<text text-anchor="middle" x="126.7617" y="-101.5" font-family="Helvetica,sans-Serif" font-size="10.00" fill="#000000">filter_t</text>
</a>
</g>
</g>
<!-- Node3&#45;&gt;Node1 -->
<g id="edge2" class="edge">
<title>Node3&#45;&gt;Node1</title>
<path fill="none" stroke="#9a32cd" stroke-dasharray="5,2" d="M118.583,-86.0004C109.6464,-65.7868 95.6915,-34.2222 88.8384,-18.721"/>
<polygon fill="#9a32cd" stroke="#9a32cd" points="115.4899,-87.6602 122.7346,-95.391 121.8921,-84.8297 115.4899,-87.6602"/>
<text text-anchor="middle" x="154.3403" y="-69" font-family="Helvetica,sans-Serif" font-size="10.00" fill="#000000"> afc_filter</text>
<text text-anchor="middle" x="154.3403" y="-59" font-family="Helvetica,sans-Serif" font-size="10.00" fill="#000000">band_limited_filter</text>
<text text-anchor="middle" x="154.3403" y="-49" font-family="Helvetica,sans-Serif" font-size="10.00" fill="#000000">prefilter_u</text>
<text text-anchor="middle" x="154.3403" y="-39" font-family="Helvetica,sans-Serif" font-size="10.00" fill="#000000">prefilter_e</text>
</g>
</g>
</svg>
