<?xml version="1.0" encoding="UTF-8" standalone="no"?>
<!DOCTYPE svg PUBLIC "-//W3C//DTD SVG 1.1//EN"
 "http://www.w3.org/Graphics/SVG/1.1/DTD/svg11.dtd">
<!-- Generated by graphviz version 2.40.1 (20161225.0304)
 -->
<!-- Title: pa_user_data_t Pages: 1 -->
<svg width="198pt" height="92pt"
 viewBox="0.00 0.00 198.34 92.00" xmlns="http://www.w3.org/2000/svg" xmlns:xlink="http://www.w3.org/1999/xlink">
<g id="graph0" class="graph" transform="scale(1 1) rotate(0) translate(4 88)">
<title>pa_user_data_t</title>
<polygon fill="#ffffff" stroke="transparent" points="-4,4 -4,-88 194.3369,-88 194.3369,4 -4,4"/>
<!-- Node1 -->
<g id="node1" class="node">
<title>Node1</title>
<polygon fill="#bfbfbf" stroke="#000000" points="54.5,-.5 54.5,-18.5 140.002,-18.5 140.002,-.5 54.5,-.5"/>
<text text-anchor="middle" x="97.251" y="-6.5" font-family="Helvetica,sans-Serif" font-size="10.00" fill="#000000">pa_user_data_t</text>
</g>
<!-- Node2 -->
<g id="node2" class="node">
<title>Node2</title>
<g id="a_node2"><a xlink:href="structosp__user__data__t.html" target="_top" xlink:title="general data structure shared between client and C application ">
<polygon fill="#ffffff" stroke="#000000" points="0,-65.5 0,-83.5 90.502,-83.5 90.502,-65.5 0,-65.5"/>
<text text-anchor="middle" x="45.251" y="-71.5" font-family="Helvetica,sans-Serif" font-size="10.00" fill="#000000">osp_user_data_t</text>
</a>
</g>
</g>
<!-- Node2&#45;&gt;Node1 -->
<g id="edge1" class="edge">
<title>Node2&#45;&gt;Node1</title>
<path fill="none" stroke="#9a32cd" stroke-dasharray="5,2" d="M59,-57.3137C68.8448,-45.0077 81.7275,-28.9043 89.7453,-18.8821"/>
<polygon fill="#9a32cd" stroke="#9a32cd" points="55.9953,-55.4669 52.4814,-65.462 61.4614,-59.8398 55.9953,-55.4669"/>
<text text-anchor="middle" x="98.8789" y="-39" font-family="Helvetica,sans-Serif" font-size="10.00" fill="#000000"> user_data</text>
</g>
<!-- Node3 -->
<g id="node3" class="node">
<title>Node3</title>
<g id="a_node3"><a xlink:href="structpa__aux__data__t.html" target="_top" xlink:title="Struct that contains misc data passed to PortAudio. ">
<polygon fill="#ffffff" stroke="#000000" points="108.165,-65.5 108.165,-83.5 190.3369,-83.5 190.3369,-65.5 108.165,-65.5"/>
<text text-anchor="middle" x="149.251" y="-71.5" font-family="Helvetica,sans-Serif" font-size="10.00" fill="#000000">pa_aux_data_t</text>
</a>
</g>
</g>
<!-- Node3&#45;&gt;Node1 -->
<g id="edge2" class="edge">
<title>Node3&#45;&gt;Node1</title>
<path fill="none" stroke="#9a32cd" stroke-dasharray="5,2" d="M139.6341,-56.7099C135.8147,-50.2524 131.1618,-43.0597 126.251,-37 120.834,-30.3157 113.8607,-23.6548 108.1098,-18.5629"/>
<polygon fill="#9a32cd" stroke="#9a32cd" points="136.5956,-58.4472 144.5663,-65.4271 142.688,-55.0001 136.5956,-58.4472"/>
<text text-anchor="middle" x="155.2139" y="-39" font-family="Helvetica,sans-Serif" font-size="10.00" fill="#000000"> aux_data</text>
</g>
</g>
</svg>
