<?xml version="1.0" encoding="UTF-8" standalone="no"?>
<!DOCTYPE svg PUBLIC "-//W3C//DTD SVG 1.1//EN"
 "http://www.w3.org/Graphics/SVG/1.1/DTD/svg11.dtd">
<!-- Generated by graphviz version 2.40.1 (20161225.0304)
 -->
<!-- Title: libosp/osp_tcp/tcplib.c Pages: 1 -->
<svg width="954pt" height="137pt"
 viewBox="0.00 0.00 953.52 137.00" xmlns="http://www.w3.org/2000/svg" xmlns:xlink="http://www.w3.org/1999/xlink">
<g id="graph0" class="graph" transform="scale(1 1) rotate(0) translate(4 133)">
<title>libosp/osp_tcp/tcplib.c</title>
<polygon fill="#ffffff" stroke="transparent" points="-4,4 -4,-133 949.522,-133 949.522,4 -4,4"/>
<!-- Node0 -->
<g id="node1" class="node">
<title>Node0</title>
<polygon fill="#bfbfbf" stroke="#000000" points="392.8154,-110.5 392.8154,-128.5 506.6475,-128.5 506.6475,-110.5 392.8154,-110.5"/>
<text text-anchor="middle" x="449.7314" y="-116.5" font-family="Helvetica,sans-Serif" font-size="10.00" fill="#000000">libosp/osp_tcp/tcplib.c</text>
</g>
<!-- Node1 -->
<g id="node2" class="node">
<title>Node1</title>
<polygon fill="#ffffff" stroke="#bfbfbf" points="0,-55.5 0,-73.5 45.4629,-73.5 45.4629,-55.5 0,-55.5"/>
<text text-anchor="middle" x="22.7314" y="-61.5" font-family="Helvetica,sans-Serif" font-size="10.00" fill="#000000">stdio.h</text>
</g>
<!-- Node0&#45;&gt;Node1 -->
<g id="edge1" class="edge">
<title>Node0&#45;&gt;Node1</title>
<path fill="none" stroke="#191970" d="M392.6609,-116.0525C317.4582,-110.8196 181.0278,-98.9451 55.8279,-73.8977"/>
<polygon fill="#191970" stroke="#191970" points="56.1794,-70.3975 45.6824,-71.8336 54.7838,-77.257 56.1794,-70.3975"/>
</g>
<!-- Node2 -->
<g id="node3" class="node">
<title>Node2</title>
<polygon fill="#ffffff" stroke="#bfbfbf" points="63.8892,-55.5 63.8892,-73.5 111.5737,-73.5 111.5737,-55.5 63.8892,-55.5"/>
<text text-anchor="middle" x="87.7314" y="-61.5" font-family="Helvetica,sans-Serif" font-size="10.00" fill="#000000">stdlib.h</text>
</g>
<!-- Node0&#45;&gt;Node2 -->
<g id="edge2" class="edge">
<title>Node0&#45;&gt;Node2</title>
<path fill="none" stroke="#191970" d="M392.632,-114.2817C328.6047,-107.8389 221.5924,-95.3009 121.6969,-74.1909"/>
<polygon fill="#191970" stroke="#191970" points="122.255,-70.731 111.743,-72.0535 120.7853,-77.575 122.255,-70.731"/>
</g>
<!-- Node3 -->
<g id="node4" class="node">
<title>Node3</title>
<polygon fill="#ffffff" stroke="#bfbfbf" points="129.2192,-55.5 129.2192,-73.5 180.2437,-73.5 180.2437,-55.5 129.2192,-55.5"/>
<text text-anchor="middle" x="154.7314" y="-61.5" font-family="Helvetica,sans-Serif" font-size="10.00" fill="#000000">unistd.h</text>
</g>
<!-- Node0&#45;&gt;Node3 -->
<g id="edge3" class="edge">
<title>Node0&#45;&gt;Node3</title>
<path fill="none" stroke="#191970" d="M392.6375,-111.228C341.8229,-103.486 265.3023,-90.8996 190.3634,-74.2071"/>
<polygon fill="#191970" stroke="#191970" points="190.8065,-70.7192 180.2816,-71.934 189.2668,-77.5478 190.8065,-70.7192"/>
</g>
<!-- Node4 -->
<g id="node5" class="node">
<title>Node4</title>
<polygon fill="#ffffff" stroke="#bfbfbf" points="197.8892,-55.5 197.8892,-73.5 245.5737,-73.5 245.5737,-55.5 197.8892,-55.5"/>
<text text-anchor="middle" x="221.7314" y="-61.5" font-family="Helvetica,sans-Serif" font-size="10.00" fill="#000000">errno.h</text>
</g>
<!-- Node0&#45;&gt;Node4 -->
<g id="edge4" class="edge">
<title>Node0&#45;&gt;Node4</title>
<path fill="none" stroke="#191970" d="M408.1171,-110.4364C370.6209,-102.1252 313.7701,-89.1681 255.572,-74.1261"/>
<polygon fill="#191970" stroke="#191970" points="256.402,-70.7256 245.8429,-71.595 254.6395,-77.5001 256.402,-70.7256"/>
</g>
<!-- Node5 -->
<g id="node6" class="node">
<title>Node5</title>
<polygon fill="#ffffff" stroke="#bfbfbf" points="263.335,-55.5 263.335,-73.5 312.1279,-73.5 312.1279,-55.5 263.335,-55.5"/>
<text text-anchor="middle" x="287.7314" y="-61.5" font-family="Helvetica,sans-Serif" font-size="10.00" fill="#000000">string.h</text>
</g>
<!-- Node0&#45;&gt;Node5 -->
<g id="edge5" class="edge">
<title>Node0&#45;&gt;Node5</title>
<path fill="none" stroke="#191970" d="M422.9804,-110.4179C395.2863,-101.0155 351.9337,-86.2971 321.8043,-76.068"/>
<polygon fill="#191970" stroke="#191970" points="322.7296,-72.6859 312.1352,-72.7852 320.4791,-79.3143 322.7296,-72.6859"/>
</g>
<!-- Node6 -->
<g id="node7" class="node">
<title>Node6</title>
<polygon fill="#ffffff" stroke="#bfbfbf" points="329.7217,-55.5 329.7217,-73.5 395.7412,-73.5 395.7412,-55.5 329.7217,-55.5"/>
<text text-anchor="middle" x="362.7314" y="-61.5" font-family="Helvetica,sans-Serif" font-size="10.00" fill="#000000">sys/types.h</text>
</g>
<!-- Node0&#45;&gt;Node6 -->
<g id="edge6" class="edge">
<title>Node0&#45;&gt;Node6</title>
<path fill="none" stroke="#191970" d="M435.3652,-110.4179C421.8901,-101.8992 401.5122,-89.0166 385.767,-79.0627"/>
<polygon fill="#191970" stroke="#191970" points="387.4419,-75.9808 377.1191,-73.5956 383.7014,-81.8977 387.4419,-75.9808"/>
</g>
<!-- Node7 -->
<g id="node8" class="node">
<title>Node7</title>
<polygon fill="#ffffff" stroke="#bfbfbf" points="414.2217,-55.5 414.2217,-73.5 485.2412,-73.5 485.2412,-55.5 414.2217,-55.5"/>
<text text-anchor="middle" x="449.7314" y="-61.5" font-family="Helvetica,sans-Serif" font-size="10.00" fill="#000000">sys/socket.h</text>
</g>
<!-- Node0&#45;&gt;Node7 -->
<g id="edge7" class="edge">
<title>Node0&#45;&gt;Node7</title>
<path fill="none" stroke="#191970" d="M449.7314,-110.4179C449.7314,-103.2164 449.7314,-92.8962 449.7314,-83.8632"/>
<polygon fill="#191970" stroke="#191970" points="453.2315,-83.7794 449.7314,-73.7795 446.2315,-83.7795 453.2315,-83.7794"/>
</g>
<!-- Node8 -->
<g id="node9" class="node">
<title>Node8</title>
<polygon fill="#ffffff" stroke="#bfbfbf" points="503.2266,-55.5 503.2266,-73.5 564.2363,-73.5 564.2363,-55.5 503.2266,-55.5"/>
<text text-anchor="middle" x="533.7314" y="-61.5" font-family="Helvetica,sans-Serif" font-size="10.00" fill="#000000">sys/time.h</text>
</g>
<!-- Node0&#45;&gt;Node8 -->
<g id="edge8" class="edge">
<title>Node0&#45;&gt;Node8</title>
<path fill="none" stroke="#191970" d="M463.6023,-110.4179C476.4911,-101.9788 495.9208,-89.257 511.0628,-79.3426"/>
<polygon fill="#191970" stroke="#191970" points="513.391,-82.0017 519.8399,-73.5956 509.5565,-76.1454 513.391,-82.0017"/>
</g>
<!-- Node9 -->
<g id="node10" class="node">
<title>Node9</title>
<polygon fill="#ffffff" stroke="#bfbfbf" points="582.3916,-55.5 582.3916,-73.5 625.0713,-73.5 625.0713,-55.5 582.3916,-55.5"/>
<text text-anchor="middle" x="603.7314" y="-61.5" font-family="Helvetica,sans-Serif" font-size="10.00" fill="#000000">fcntl.h</text>
</g>
<!-- Node0&#45;&gt;Node9 -->
<g id="edge9" class="edge">
<title>Node0&#45;&gt;Node9</title>
<path fill="none" stroke="#191970" d="M475.1614,-110.4179C501.9084,-100.8654 544.0199,-85.8255 572.7038,-75.5813"/>
<polygon fill="#191970" stroke="#191970" points="574.0022,-78.8342 582.2425,-72.1746 571.6478,-72.242 574.0022,-78.8342"/>
</g>
<!-- Node10 -->
<g id="node11" class="node">
<title>Node10</title>
<polygon fill="#ffffff" stroke="#bfbfbf" points="643.2686,-55.5 643.2686,-73.5 708.1943,-73.5 708.1943,-55.5 643.2686,-55.5"/>
<text text-anchor="middle" x="675.7314" y="-61.5" font-family="Helvetica,sans-Serif" font-size="10.00" fill="#000000">netinet/in.h</text>
</g>
<!-- Node0&#45;&gt;Node10 -->
<g id="edge10" class="edge">
<title>Node0&#45;&gt;Node10</title>
<path fill="none" stroke="#191970" d="M486.7977,-110.4795C526.9411,-100.71 590.8808,-85.1495 633.0818,-74.8793"/>
<polygon fill="#191970" stroke="#191970" points="634.1628,-78.2185 643.0516,-72.4531 632.5076,-71.417 634.1628,-78.2185"/>
</g>
<!-- Node11 -->
<g id="node12" class="node">
<title>Node11</title>
<polygon fill="#ffffff" stroke="#bfbfbf" points="726.4902,-55.5 726.4902,-73.5 796.9727,-73.5 796.9727,-55.5 726.4902,-55.5"/>
<text text-anchor="middle" x="761.7314" y="-61.5" font-family="Helvetica,sans-Serif" font-size="10.00" fill="#000000">netinet/tcp.h</text>
</g>
<!-- Node0&#45;&gt;Node11 -->
<g id="edge11" class="edge">
<title>Node0&#45;&gt;Node11</title>
<path fill="none" stroke="#191970" d="M506.6208,-110.4695C558.535,-102.0783 637.6285,-88.9186 716.2954,-74.0199"/>
<polygon fill="#191970" stroke="#191970" points="717.2157,-77.4077 726.3846,-72.099 715.9064,-70.5312 717.2157,-77.4077"/>
</g>
<!-- Node12 -->
<g id="node13" class="node">
<title>Node12</title>
<polygon fill="#ffffff" stroke="#bfbfbf" points="815.1035,-55.5 815.1035,-73.5 878.3594,-73.5 878.3594,-55.5 815.1035,-55.5"/>
<text text-anchor="middle" x="846.7314" y="-61.5" font-family="Helvetica,sans-Serif" font-size="10.00" fill="#000000">arpa/inet.h</text>
</g>
<!-- Node0&#45;&gt;Node12 -->
<g id="edge12" class="edge">
<title>Node0&#45;&gt;Node12</title>
<path fill="none" stroke="#191970" d="M506.7246,-114.0014C575.1809,-106.999 693.6593,-93.6166 804.9564,-73.9768"/>
<polygon fill="#191970" stroke="#191970" points="805.7833,-77.3846 815.0124,-72.1815 804.5529,-70.4936 805.7833,-77.3846"/>
</g>
<!-- Node13 -->
<g id="node14" class="node">
<title>Node13</title>
<g id="a_node14"><a xlink:href="tcplib_8h.html" target="_top" xlink:title="tcplib.h">
<polygon fill="#ffffff" stroke="#000000" points="895.8892,-55.5 895.8892,-73.5 943.5737,-73.5 943.5737,-55.5 895.8892,-55.5"/>
<text text-anchor="middle" x="919.7314" y="-61.5" font-family="Helvetica,sans-Serif" font-size="10.00" fill="#000000">tcplib.h</text>
</a>
</g>
</g>
<!-- Node0&#45;&gt;Node13 -->
<g id="edge13" class="edge">
<title>Node0&#45;&gt;Node13</title>
<path fill="none" stroke="#191970" d="M506.9319,-116.9383C589.0777,-112.5167 745.2186,-101.3461 885.6551,-74.1292"/>
<polygon fill="#191970" stroke="#191970" points="886.6039,-77.5096 895.7382,-72.1417 885.2501,-70.6418 886.6039,-77.5096"/>
</g>
<!-- Node14 -->
<g id="node15" class="node">
<title>Node14</title>
<polygon fill="#ffffff" stroke="#bfbfbf" points="893.9409,-.5 893.9409,-18.5 945.522,-18.5 945.522,-.5 893.9409,-.5"/>
<text text-anchor="middle" x="919.7314" y="-6.5" font-family="Helvetica,sans-Serif" font-size="10.00" fill="#000000">stddef.h</text>
</g>
<!-- Node13&#45;&gt;Node14 -->
<g id="edge14" class="edge">
<title>Node13&#45;&gt;Node14</title>
<path fill="none" stroke="#191970" d="M919.7314,-55.4179C919.7314,-48.2164 919.7314,-37.8962 919.7314,-28.8632"/>
<polygon fill="#191970" stroke="#191970" points="923.2315,-28.7794 919.7314,-18.7795 916.2315,-28.7795 923.2315,-28.7794"/>
</g>
</g>
</svg>
