<?xml version="1.0" encoding="UTF-8" standalone="no"?>
<!DOCTYPE svg PUBLIC "-//W3C//DTD SVG 1.1//EN"
 "http://www.w3.org/Graphics/SVG/1.1/DTD/svg11.dtd">
<!-- Generated by graphviz version 2.40.1 (20161225.0304)
 -->
<!-- Title: libosp/osp_tcp/tcplib.h Pages: 1 -->
<svg width="238pt" height="92pt"
 viewBox="0.00 0.00 238.33 92.00" xmlns="http://www.w3.org/2000/svg" xmlns:xlink="http://www.w3.org/1999/xlink">
<g id="graph0" class="graph" transform="scale(1 1) rotate(0) translate(4 88)">
<title>libosp/osp_tcp/tcplib.h</title>
<polygon fill="#ffffff" stroke="transparent" points="-4,4 -4,-88 234.332,-88 234.332,4 -4,4"/>
<!-- Node2 -->
<g id="node1" class="node">
<title>Node2</title>
<polygon fill="#bfbfbf" stroke="#000000" points="54.2192,-65.5 54.2192,-83.5 168.6128,-83.5 168.6128,-65.5 54.2192,-65.5"/>
<text text-anchor="middle" x="111.416" y="-71.5" font-family="Helvetica,sans-Serif" font-size="10.00" fill="#000000">libosp/osp_tcp/tcplib.h</text>
</g>
<!-- Node3 -->
<g id="node2" class="node">
<title>Node3</title>
<g id="a_node2"><a xlink:href="osp__tcp_8c.html" target="_top" xlink:title="libosp/osp_tcp/osp\l_tcp.c">
<polygon fill="#ffffff" stroke="#000000" points="0,-.5 0,-28.5 98.832,-28.5 98.832,-.5 0,-.5"/>
<text text-anchor="start" x="8" y="-16.5" font-family="Helvetica,sans-Serif" font-size="10.00" fill="#000000">libosp/osp_tcp/osp</text>
<text text-anchor="middle" x="49.416" y="-6.5" font-family="Helvetica,sans-Serif" font-size="10.00" fill="#000000">_tcp.c</text>
</a>
</g>
</g>
<!-- Node2&#45;&gt;Node3 -->
<g id="edge1" class="edge">
<title>Node2&#45;&gt;Node3</title>
<path fill="none" stroke="#191970" d="M94.6681,-58.2923C85.1739,-49.1044 73.4,-37.7103 64.2419,-28.8477"/>
<polygon fill="#191970" stroke="#191970" points="92.3795,-60.9482 101.9996,-65.3873 97.2475,-55.9179 92.3795,-60.9482"/>
</g>
<!-- Node4 -->
<g id="node3" class="node">
<title>Node4</title>
<g id="a_node3"><a xlink:href="tcplib_8c.html" target="_top" xlink:title="libosp/osp_tcp/tcplib.c">
<polygon fill="#ffffff" stroke="#000000" points="116.5,-5.5 116.5,-23.5 230.332,-23.5 230.332,-5.5 116.5,-5.5"/>
<text text-anchor="middle" x="173.416" y="-11.5" font-family="Helvetica,sans-Serif" font-size="10.00" fill="#000000">libosp/osp_tcp/tcplib.c</text>
</a>
</g>
</g>
<!-- Node2&#45;&gt;Node4 -->
<g id="edge2" class="edge">
<title>Node2&#45;&gt;Node4</title>
<path fill="none" stroke="#191970" d="M128.1332,-58.3221C139.6023,-47.2229 154.4096,-32.8933 163.9109,-23.6985"/>
<polygon fill="#191970" stroke="#191970" points="125.5845,-55.9179 120.8325,-65.3873 130.4525,-60.9482 125.5845,-55.9179"/>
</g>
</g>
</svg>
