<?xml version="1.0" encoding="UTF-8" standalone="no"?>
<!DOCTYPE svg PUBLIC "-//W3C//DTD SVG 1.1//EN"
 "http://www.w3.org/Graphics/SVG/1.1/DTD/svg11.dtd">
<!-- Generated by graphviz version 2.40.1 (20161225.0304)
 -->
<!-- Title: libosp/osp_process/utilities.h Pages: 1 -->
<svg width="311pt" height="102pt"
 viewBox="0.00 0.00 310.98 102.00" xmlns="http://www.w3.org/2000/svg" xmlns:xlink="http://www.w3.org/1999/xlink">
<g id="graph0" class="graph" transform="scale(1 1) rotate(0) translate(4 98)">
<title>libosp/osp_process/utilities.h</title>
<polygon fill="#ffffff" stroke="transparent" points="-4,4 -4,-98 306.98,-98 306.98,4 -4,4"/>
<!-- Node1 -->
<g id="node1" class="node">
<title>Node1</title>
<polygon fill="#bfbfbf" stroke="#000000" points="82.3745,-65.5 82.3745,-93.5 183.98,-93.5 183.98,-65.5 82.3745,-65.5"/>
<text text-anchor="start" x="90.3745" y="-81.5" font-family="Helvetica,sans-Serif" font-size="10.00" fill="#000000">libosp/osp_process</text>
<text text-anchor="middle" x="133.1772" y="-71.5" font-family="Helvetica,sans-Serif" font-size="10.00" fill="#000000">/utilities.h</text>
</g>
<!-- Node2 -->
<g id="node2" class="node">
<title>Node2</title>
<g id="a_node2"><a xlink:href="main_8c.html" target="_top" xlink:title="osp/main.c">
<polygon fill="#ffffff" stroke="#000000" points="0,-5.5 0,-23.5 64.3545,-23.5 64.3545,-5.5 0,-5.5"/>
<text text-anchor="middle" x="32.1772" y="-11.5" font-family="Helvetica,sans-Serif" font-size="10.00" fill="#000000">osp/main.c</text>
</a>
</g>
</g>
<!-- Node1&#45;&gt;Node2 -->
<g id="edge1" class="edge">
<title>Node1&#45;&gt;Node2</title>
<path fill="none" stroke="#191970" d="M102.7362,-59.9092C83.9855,-47.8419 60.8292,-32.9394 46.2773,-23.5743"/>
<polygon fill="#191970" stroke="#191970" points="100.9585,-62.9273 111.2618,-65.396 104.7468,-57.041 100.9585,-62.9273"/>
</g>
<!-- Node3 -->
<g id="node3" class="node">
<title>Node3</title>
<g id="a_node3"><a xlink:href="port__wrapper_8c.html" target="_top" xlink:title="osp/port_wrapper.c">
<polygon fill="#ffffff" stroke="#000000" points="82.6504,-5.5 82.6504,-23.5 183.7041,-23.5 183.7041,-5.5 82.6504,-5.5"/>
<text text-anchor="middle" x="133.1772" y="-11.5" font-family="Helvetica,sans-Serif" font-size="10.00" fill="#000000">osp/port_wrapper.c</text>
</a>
</g>
</g>
<!-- Node1&#45;&gt;Node3 -->
<g id="edge2" class="edge">
<title>Node1&#45;&gt;Node3</title>
<path fill="none" stroke="#191970" d="M133.1772,-55.3747C133.1772,-44.2832 133.1772,-31.7952 133.1772,-23.5743"/>
<polygon fill="#191970" stroke="#191970" points="129.6773,-55.3959 133.1772,-65.396 136.6773,-55.396 129.6773,-55.3959"/>
</g>
<!-- Node4 -->
<g id="node4" class="node">
<title>Node4</title>
<g id="a_node4"><a xlink:href="osp__process_8c.html" target="_top" xlink:title="libosp/osp_process\l/osp_process.c">
<polygon fill="#ffffff" stroke="#000000" points="201.3745,-.5 201.3745,-28.5 302.98,-28.5 302.98,-.5 201.3745,-.5"/>
<text text-anchor="start" x="209.3745" y="-16.5" font-family="Helvetica,sans-Serif" font-size="10.00" fill="#000000">libosp/osp_process</text>
<text text-anchor="middle" x="252.1772" y="-6.5" font-family="Helvetica,sans-Serif" font-size="10.00" fill="#000000">/osp_process.c</text>
</a>
</g>
</g>
<!-- Node1&#45;&gt;Node4 -->
<g id="edge3" class="edge">
<title>Node1&#45;&gt;Node4</title>
<path fill="none" stroke="#191970" d="M167.8246,-60.575C186.5438,-50.3502 209.264,-37.94 226.4064,-28.5765"/>
<polygon fill="#191970" stroke="#191970" points="166.0968,-57.5306 158.9985,-65.396 169.4524,-63.6739 166.0968,-57.5306"/>
</g>
</g>
</svg>
