<?xml version="1.0" encoding="UTF-8" standalone="no"?>
<!DOCTYPE svg PUBLIC "-//W3C//DTD SVG 1.1//EN"
 "http://www.w3.org/Graphics/SVG/1.1/DTD/svg11.dtd">
<!-- Generated by graphviz version 2.40.1 (20161225.0304)
 -->
<!-- Title: libosp/osp_process/utilities.c Pages: 1 -->
<svg width="184pt" height="92pt"
 viewBox="0.00 0.00 184.29 92.00" xmlns="http://www.w3.org/2000/svg" xmlns:xlink="http://www.w3.org/1999/xlink">
<g id="graph0" class="graph" transform="scale(1 1) rotate(0) translate(4 88)">
<title>libosp/osp_process/utilities.c</title>
<polygon fill="#ffffff" stroke="transparent" points="-4,4 -4,-88 180.2881,-88 180.2881,4 -4,4"/>
<!-- Node0 -->
<g id="node1" class="node">
<title>Node0</title>
<polygon fill="#bfbfbf" stroke="#000000" points="36.9287,-55.5 36.9287,-83.5 138.5342,-83.5 138.5342,-55.5 36.9287,-55.5"/>
<text text-anchor="start" x="44.9287" y="-71.5" font-family="Helvetica,sans-Serif" font-size="10.00" fill="#000000">libosp/osp_process</text>
<text text-anchor="middle" x="87.7314" y="-61.5" font-family="Helvetica,sans-Serif" font-size="10.00" fill="#000000">/utilities.c</text>
</g>
<!-- Node1 -->
<g id="node2" class="node">
<title>Node1</title>
<polygon fill="#ffffff" stroke="#bfbfbf" points="0,-.5 0,-18.5 45.4629,-18.5 45.4629,-.5 0,-.5"/>
<text text-anchor="middle" x="22.7314" y="-6.5" font-family="Helvetica,sans-Serif" font-size="10.00" fill="#000000">stdio.h</text>
</g>
<!-- Node0&#45;&gt;Node1 -->
<g id="edge1" class="edge">
<title>Node0&#45;&gt;Node1</title>
<path fill="none" stroke="#191970" d="M72.3274,-55.2808C62.6111,-46.312 50.0449,-34.7124 39.9928,-25.4335"/>
<polygon fill="#191970" stroke="#191970" points="42.2947,-22.7952 32.5726,-18.5842 37.5467,-27.9388 42.2947,-22.7952"/>
</g>
<!-- Node2 -->
<g id="node3" class="node">
<title>Node2</title>
<polygon fill="#ffffff" stroke="#bfbfbf" points="63.8892,-.5 63.8892,-18.5 111.5737,-18.5 111.5737,-.5 63.8892,-.5"/>
<text text-anchor="middle" x="87.7314" y="-6.5" font-family="Helvetica,sans-Serif" font-size="10.00" fill="#000000">stdlib.h</text>
</g>
<!-- Node0&#45;&gt;Node2 -->
<g id="edge2" class="edge">
<title>Node0&#45;&gt;Node2</title>
<path fill="none" stroke="#191970" d="M87.7314,-55.2808C87.7314,-47.3776 87.7314,-37.4316 87.7314,-28.8308"/>
<polygon fill="#191970" stroke="#191970" points="91.2315,-28.5842 87.7314,-18.5842 84.2315,-28.5842 91.2315,-28.5842"/>
</g>
<!-- Node3 -->
<g id="node4" class="node">
<title>Node3</title>
<polygon fill="#ffffff" stroke="#bfbfbf" points="129.1748,-.5 129.1748,-18.5 176.2881,-18.5 176.2881,-.5 129.1748,-.5"/>
<text text-anchor="middle" x="152.7314" y="-6.5" font-family="Helvetica,sans-Serif" font-size="10.00" fill="#000000">limits.h</text>
</g>
<!-- Node0&#45;&gt;Node3 -->
<g id="edge3" class="edge">
<title>Node0&#45;&gt;Node3</title>
<path fill="none" stroke="#191970" d="M103.1355,-55.2808C112.8518,-46.312 125.418,-34.7124 135.4701,-25.4335"/>
<polygon fill="#191970" stroke="#191970" points="137.9162,-27.9388 142.8902,-18.5842 133.1682,-22.7952 137.9162,-27.9388"/>
</g>
</g>
</svg>
