<?xml version="1.0" encoding="UTF-8" standalone="no"?>
<!DOCTYPE svg PUBLIC "-//W3C//DTD SVG 1.1//EN"
 "http://www.w3.org/Graphics/SVG/1.1/DTD/svg11.dtd">
<!-- Generated by graphviz version 2.40.1 (20161225.0304)
 -->
<!-- Title: libosp/wdrc/wdrc.h Pages: 1 -->
<svg width="226pt" height="92pt"
 viewBox="0.00 0.00 225.65 92.00" xmlns="http://www.w3.org/2000/svg" xmlns:xlink="http://www.w3.org/1999/xlink">
<g id="graph0" class="graph" transform="scale(1 1) rotate(0) translate(4 88)">
<title>libosp/wdrc/wdrc.h</title>
<polygon fill="#ffffff" stroke="transparent" points="-4,4 -4,-88 221.6475,-88 221.6475,4 -4,4"/>
<!-- Node2 -->
<g id="node1" class="node">
<title>Node2</title>
<polygon fill="#bfbfbf" stroke="#000000" points="60.6772,-65.5 60.6772,-83.5 158.9282,-83.5 158.9282,-65.5 60.6772,-65.5"/>
<text text-anchor="middle" x="109.8027" y="-71.5" font-family="Helvetica,sans-Serif" font-size="10.00" fill="#000000">libosp/wdrc/wdrc.h</text>
</g>
<!-- Node3 -->
<g id="node2" class="node">
<title>Node3</title>
<g id="a_node2"><a xlink:href="osp__process_8c.html" target="_top" xlink:title="libosp/osp_process\l/osp_process.c">
<polygon fill="#ffffff" stroke="#000000" points="0,-.5 0,-28.5 101.6055,-28.5 101.6055,-.5 0,-.5"/>
<text text-anchor="start" x="8" y="-16.5" font-family="Helvetica,sans-Serif" font-size="10.00" fill="#000000">libosp/osp_process</text>
<text text-anchor="middle" x="50.8027" y="-6.5" font-family="Helvetica,sans-Serif" font-size="10.00" fill="#000000">/osp_process.c</text>
</a>
</g>
</g>
<!-- Node2&#45;&gt;Node3 -->
<g id="edge1" class="edge">
<title>Node2&#45;&gt;Node3</title>
<path fill="none" stroke="#191970" d="M93.5935,-58.016C84.6065,-48.8768 73.539,-37.6216 64.9113,-28.8477"/>
<polygon fill="#191970" stroke="#191970" points="91.3349,-60.711 100.8419,-65.3873 96.3261,-55.803 91.3349,-60.711"/>
</g>
<!-- Node4 -->
<g id="node3" class="node">
<title>Node4</title>
<g id="a_node3"><a xlink:href="wdrc_8c.html" target="_top" xlink:title="libosp/wdrc/wdrc.c">
<polygon fill="#ffffff" stroke="#000000" points="119.958,-5.5 119.958,-23.5 217.6475,-23.5 217.6475,-5.5 119.958,-5.5"/>
<text text-anchor="middle" x="168.8027" y="-11.5" font-family="Helvetica,sans-Serif" font-size="10.00" fill="#000000">libosp/wdrc/wdrc.c</text>
</a>
</g>
</g>
<!-- Node2&#45;&gt;Node4 -->
<g id="edge2" class="edge">
<title>Node2&#45;&gt;Node4</title>
<path fill="none" stroke="#191970" d="M126.0267,-58.0011C136.8957,-46.9478 150.8029,-32.8049 159.7576,-23.6985"/>
<polygon fill="#191970" stroke="#191970" points="123.2794,-55.803 118.7636,-65.3873 128.2706,-60.711 123.2794,-55.803"/>
</g>
</g>
</svg>
