<?xml version="1.0" encoding="UTF-8" standalone="no"?>
<!DOCTYPE svg PUBLIC "-//W3C//DTD SVG 1.1//EN"
 "http://www.w3.org/Graphics/SVG/1.1/DTD/svg11.dtd">
<!-- Generated by graphviz version 2.40.1 (20161225.0304)
 -->
<!-- Title: libosp/wdrc/wdrc_mpo_support.c Pages: 1 -->
<svg width="123pt" height="147pt"
 viewBox="0.00 0.00 122.93 147.00" xmlns="http://www.w3.org/2000/svg" xmlns:xlink="http://www.w3.org/1999/xlink">
<g id="graph0" class="graph" transform="scale(1 1) rotate(0) translate(4 143)">
<title>libosp/wdrc/wdrc_mpo_support.c</title>
<polygon fill="#ffffff" stroke="transparent" points="-4,4 -4,-143 118.9258,-143 118.9258,4 -4,4"/>
<!-- Node0 -->
<g id="node1" class="node">
<title>Node0</title>
<polygon fill="#bfbfbf" stroke="#000000" points="0,-110.5 0,-138.5 114.9258,-138.5 114.9258,-110.5 0,-110.5"/>
<text text-anchor="start" x="8" y="-126.5" font-family="Helvetica,sans-Serif" font-size="10.00" fill="#000000">libosp/wdrc/wdrc_mpo</text>
<text text-anchor="middle" x="57.4629" y="-116.5" font-family="Helvetica,sans-Serif" font-size="10.00" fill="#000000">_support.c</text>
</g>
<!-- Node1 -->
<g id="node2" class="node">
<title>Node1</title>
<g id="a_node2"><a xlink:href="wdrc__mpo__support_8h.html" target="_top" xlink:title="wdrc_mpo_support.h">
<polygon fill="#ffffff" stroke="#000000" points="2.771,-55.5 2.771,-73.5 112.1548,-73.5 112.1548,-55.5 2.771,-55.5"/>
<text text-anchor="middle" x="57.4629" y="-61.5" font-family="Helvetica,sans-Serif" font-size="10.00" fill="#000000">wdrc_mpo_support.h</text>
</a>
</g>
</g>
<!-- Node0&#45;&gt;Node1 -->
<g id="edge1" class="edge">
<title>Node0&#45;&gt;Node1</title>
<path fill="none" stroke="#191970" d="M57.4629,-110.2808C57.4629,-102.3776 57.4629,-92.4316 57.4629,-83.8308"/>
<polygon fill="#191970" stroke="#191970" points="60.963,-83.5842 57.4629,-73.5842 53.963,-83.5842 60.963,-83.5842"/>
</g>
<!-- Node2 -->
<g id="node3" class="node">
<title>Node2</title>
<polygon fill="#ffffff" stroke="#bfbfbf" points="31.6724,-.5 31.6724,-18.5 83.2534,-18.5 83.2534,-.5 31.6724,-.5"/>
<text text-anchor="middle" x="57.4629" y="-6.5" font-family="Helvetica,sans-Serif" font-size="10.00" fill="#000000">stddef.h</text>
</g>
<!-- Node1&#45;&gt;Node2 -->
<g id="edge2" class="edge">
<title>Node1&#45;&gt;Node2</title>
<path fill="none" stroke="#191970" d="M57.4629,-55.4179C57.4629,-48.2164 57.4629,-37.8962 57.4629,-28.8632"/>
<polygon fill="#191970" stroke="#191970" points="60.963,-28.7794 57.4629,-18.7795 53.963,-28.7795 60.963,-28.7794"/>
</g>
</g>
</svg>
