<?xml version="1.0" encoding="UTF-8" standalone="no"?>
<!DOCTYPE svg PUBLIC "-//W3C//DTD SVG 1.1//EN"
 "http://www.w3.org/Graphics/SVG/1.1/DTD/svg11.dtd">
<!-- Generated by graphviz version 2.40.1 (20161225.0304)
 -->
<!-- Title: libosp/wdrc/wdrc_mpo_support.h Pages: 1 -->
<svg width="242pt" height="102pt"
 viewBox="0.00 0.00 242.27 102.00" xmlns="http://www.w3.org/2000/svg" xmlns:xlink="http://www.w3.org/1999/xlink">
<g id="graph0" class="graph" transform="scale(1 1) rotate(0) translate(4 98)">
<title>libosp/wdrc/wdrc_mpo_support.h</title>
<polygon fill="#ffffff" stroke="transparent" points="-4,4 -4,-98 238.2656,-98 238.2656,4 -4,4"/>
<!-- Node2 -->
<g id="node1" class="node">
<title>Node2</title>
<polygon fill="#bfbfbf" stroke="#000000" points="56.3398,-65.5 56.3398,-93.5 171.2656,-93.5 171.2656,-65.5 56.3398,-65.5"/>
<text text-anchor="start" x="64.3398" y="-81.5" font-family="Helvetica,sans-Serif" font-size="10.00" fill="#000000">libosp/wdrc/wdrc_mpo</text>
<text text-anchor="middle" x="113.8027" y="-71.5" font-family="Helvetica,sans-Serif" font-size="10.00" fill="#000000">_support.h</text>
</g>
<!-- Node3 -->
<g id="node2" class="node">
<title>Node3</title>
<g id="a_node2"><a xlink:href="osp__process_8c.html" target="_top" xlink:title="libosp/osp_process\l/osp_process.c">
<polygon fill="#ffffff" stroke="#000000" points="0,-.5 0,-28.5 101.6055,-28.5 101.6055,-.5 0,-.5"/>
<text text-anchor="start" x="8" y="-16.5" font-family="Helvetica,sans-Serif" font-size="10.00" fill="#000000">libosp/osp_process</text>
<text text-anchor="middle" x="50.8027" y="-6.5" font-family="Helvetica,sans-Serif" font-size="10.00" fill="#000000">/osp_process.c</text>
</a>
</g>
</g>
<!-- Node2&#45;&gt;Node3 -->
<g id="edge1" class="edge">
<title>Node2&#45;&gt;Node3</title>
<path fill="none" stroke="#191970" d="M92.9878,-58.0243C83.6013,-48.3398 72.779,-37.1739 64.4461,-28.5765"/>
<polygon fill="#191970" stroke="#191970" points="90.6597,-60.6512 100.1327,-65.396 95.6862,-55.7793 90.6597,-60.6512"/>
</g>
<!-- Node4 -->
<g id="node3" class="node">
<title>Node4</title>
<g id="a_node3"><a xlink:href="wdrc__mpo__support_8c.html" target="_top" xlink:title="libosp/wdrc/wdrc_mpo\l_support.c">
<polygon fill="#ffffff" stroke="#000000" points="119.3398,-.5 119.3398,-28.5 234.2656,-28.5 234.2656,-.5 119.3398,-.5"/>
<text text-anchor="start" x="127.3398" y="-16.5" font-family="Helvetica,sans-Serif" font-size="10.00" fill="#000000">libosp/wdrc/wdrc_mpo</text>
<text text-anchor="middle" x="176.8027" y="-6.5" font-family="Helvetica,sans-Serif" font-size="10.00" fill="#000000">_support.c</text>
</a>
</g>
</g>
<!-- Node2&#45;&gt;Node4 -->
<g id="edge2" class="edge">
<title>Node2&#45;&gt;Node4</title>
<path fill="none" stroke="#191970" d="M134.6177,-58.0243C144.0041,-48.3398 154.8265,-37.1739 163.1594,-28.5765"/>
<polygon fill="#191970" stroke="#191970" points="131.9193,-55.7793 127.4728,-65.396 136.9458,-60.6512 131.9193,-55.7793"/>
</g>
</g>
</svg>
