G04 Layer_Color=8388736*
%FSLAX43Y43*%
%MOMM*%
G71*
G01*
G75*
%ADD26C,1.000*%
G04:AMPARAMS|DCode=31|XSize=0.7mm|YSize=1.6mm|CornerRadius=0mm|HoleSize=0mm|Usage=FLASHONLY|Rotation=242.900|XOffset=0mm|YOffset=0mm|HoleType=Round|Shape=Rectangle|*
%AMROTATEDRECTD31*
4,1,4,-0.553,0.676,0.872,-0.053,0.553,-0.676,-0.872,0.053,-0.553,0.676,0.0*
%
%ADD31ROTATEDRECTD31*%

%ADD32R,1.020X0.370*%
%ADD33R,1.403X2.203*%
%ADD34R,0.500X0.700*%
G04:AMPARAMS|DCode=35|XSize=0.5mm|YSize=0.7mm|CornerRadius=0mm|HoleSize=0mm|Usage=FLASHONLY|Rotation=330.000|XOffset=0mm|YOffset=0mm|HoleType=Round|Shape=Rectangle|*
%AMROTATEDRECTD35*
4,1,4,-0.392,-0.178,-0.042,0.428,0.392,0.178,0.042,-0.428,-0.392,-0.178,0.0*
%
%ADD35ROTATEDRECTD35*%

%ADD36R,0.700X0.500*%
%ADD37R,0.930X0.360*%
%ADD38R,0.830X0.360*%
G04:AMPARAMS|DCode=39|XSize=0.9mm|YSize=1.1mm|CornerRadius=0mm|HoleSize=0mm|Usage=FLASHONLY|Rotation=242.900|XOffset=0mm|YOffset=0mm|HoleType=Round|Shape=Rectangle|*
%AMROTATEDRECTD39*
4,1,4,-0.285,0.651,0.695,0.150,0.285,-0.651,-0.695,-0.150,-0.285,0.651,0.0*
%
%ADD39ROTATEDRECTD39*%

G04:AMPARAMS|DCode=40|XSize=0.9mm|YSize=2.1mm|CornerRadius=0mm|HoleSize=0mm|Usage=FLASHONLY|Rotation=152.900|XOffset=0mm|YOffset=0mm|HoleType=Round|Shape=Rectangle|*
%AMROTATEDRECTD40*
4,1,4,0.879,0.730,-0.078,-1.140,-0.879,-0.730,0.078,1.140,0.879,0.730,0.0*
%
%ADD40ROTATEDRECTD40*%

D26*
X0Y0D02*
D03*
X-700Y1200D02*
D03*
X-1400Y2400D02*
D03*
X-2100Y3600D02*
D03*
X-2800Y4800D02*
D03*
X-3500Y6000D02*
D03*
D31*
X8473Y804D02*
D03*
X8086Y47D02*
D03*
D32*
X3550Y3450D02*
D03*
Y3950D02*
D03*
Y4450D02*
D03*
Y4950D02*
D03*
X650D02*
D03*
Y4450D02*
D03*
Y3950D02*
D03*
Y3450D02*
D03*
D33*
X2100Y4200D02*
D03*
D34*
X1200Y1700D02*
D03*
X2000D02*
D03*
X2700D02*
D03*
X3500D02*
D03*
X1600Y800D02*
D03*
X800D02*
D03*
X4800Y5600D02*
D03*
X5600D02*
D03*
Y1300D02*
D03*
X4800D02*
D03*
X300Y6400D02*
D03*
X1100D02*
D03*
X5600Y4500D02*
D03*
X4800D02*
D03*
X4700Y2300D02*
D03*
X5500D02*
D03*
X5600Y3400D02*
D03*
X4800D02*
D03*
X2600Y6400D02*
D03*
X1800D02*
D03*
D35*
X7546Y2600D02*
D03*
X6853Y3000D02*
D03*
X7383Y3780D02*
D03*
X8076Y3380D02*
D03*
X6753Y2000D02*
D03*
X7446Y1600D02*
D03*
D36*
X6400Y-100D02*
D03*
Y700D02*
D03*
X4600Y-300D02*
D03*
Y500D02*
D03*
X-500Y3700D02*
D03*
Y4500D02*
D03*
Y5300D02*
D03*
Y6100D02*
D03*
D37*
X2550Y700D02*
D03*
D38*
X2525Y200D02*
D03*
Y-300D02*
D03*
X3675D02*
D03*
Y200D02*
D03*
Y700D02*
D03*
D39*
X8130Y4470D02*
D03*
D40*
X9100Y3300D02*
D03*
M02*
