G04 Layer_Color=32896*
%FSLAX43Y43*%
%MOMM*%
G71*
G01*
G75*
%ADD21C,0.152*%
%ADD29C,0.127*%
%ADD41R,3.850X2.020*%
D21*
X10536Y-2190D02*
X11675Y36D01*
X9716Y1038D02*
X11675Y36D01*
X11230Y263D02*
X11412Y620D01*
X11234Y711D02*
X11412Y620D01*
X11097Y444D02*
X11234Y711D01*
X9776Y-2138D02*
X9913Y-1871D01*
X9776Y-2138D02*
X9954Y-2229D01*
X10091Y-1962D01*
X8577Y-1188D02*
X9170Y-30D01*
X8577Y-1188D02*
X10358Y-2099D01*
X9762Y1127D02*
X11720Y125D01*
X9170Y-30D02*
X9762Y1127D01*
X10515Y404D02*
X11584Y-142D01*
X9625Y860D02*
X10515Y404D01*
X9671Y949D02*
X11629Y-53D01*
X9671Y949D02*
X9716Y1038D01*
X10358Y-2099D02*
X10536Y-2190D01*
X10358Y-2099D02*
X10447Y-2144D01*
X-900Y5000D02*
X-1414Y5613D01*
X-1447Y5237D01*
X-1822Y5270D01*
X-1308Y4657D01*
X-1770Y4792D02*
X-2178Y4450D01*
X856Y307D02*
X514Y715D01*
X1200Y2150D02*
X686Y2763D01*
X380Y2506D01*
X363Y2318D01*
X535Y2114D01*
X722Y2097D01*
X1029Y2354D01*
X824Y2183D02*
X792Y1807D01*
X330Y1942D02*
X-78Y1600D01*
X-45Y1975D02*
X297Y1567D01*
X-587Y3168D02*
X-570Y3356D01*
X-366Y3527D01*
X-178Y3511D01*
X164Y3102D01*
X148Y2914D01*
X-56Y2743D01*
X-244Y2759D01*
X-415Y2964D01*
X-211Y3135D01*
X-964Y4663D02*
X-621Y4254D01*
X-654Y3879D01*
X-1030Y3911D01*
X-1372Y4320D01*
X-2656Y6343D02*
X-2314Y5935D01*
X-2689Y5967D02*
X-2281Y6310D01*
X7128Y2826D02*
X7048Y2997D01*
X6798Y3088D01*
X6627Y3009D01*
X6445Y2508D01*
X6524Y2337D01*
X6775Y2246D01*
X6946Y2325D01*
X7128Y2826D01*
X5921Y3407D02*
X6422Y3225D01*
X6285Y2849D01*
X6080Y3066D01*
X5955Y3111D01*
X5784Y3032D01*
X5693Y2781D01*
X5773Y2610D01*
X6023Y2519D01*
X6194Y2599D01*
X5397Y2747D02*
X5078Y3430D01*
X4645Y3021D02*
X4395Y3112D01*
X4520Y3066D01*
X4794Y3818D01*
X4873Y3647D01*
X4247Y3875D02*
X4167Y4046D01*
X3917Y4137D01*
X3746Y4057D01*
X3701Y3932D01*
X3780Y3761D01*
X3609Y3681D01*
X3564Y3556D01*
X3643Y3385D01*
X3894Y3294D01*
X4065Y3374D01*
X4110Y3499D01*
X4031Y3670D01*
X4202Y3750D01*
X4247Y3875D01*
X4031Y3670D02*
X3780Y3761D01*
X5573Y5334D02*
X5823Y5243D01*
X5698Y5288D01*
X5470Y4662D01*
X5549Y4491D01*
X5675Y4446D01*
X5846Y4525D01*
X5322Y5425D02*
X5048Y4674D01*
X4673Y4810D01*
X4593Y4981D01*
X4639Y5106D01*
X4810Y5186D01*
X5185Y5049D01*
X4810Y5186D01*
X4730Y5357D01*
X4775Y5482D01*
X4946Y5562D01*
X5322Y5425D01*
X4251Y4822D02*
X3750Y5004D01*
X3819Y5972D02*
X3637Y5471D01*
X3295Y5312D01*
X3136Y5653D01*
X3318Y6154D01*
X3067Y6246D02*
X2566Y6428D01*
X2521Y6303D01*
X2840Y5619D01*
X2794Y5494D01*
X12013Y-1900D02*
X11857Y-1684D01*
X11935Y-1792D01*
X12476Y-1402D01*
X12506Y-1216D01*
X12428Y-1108D01*
X12242Y-1078D01*
X12277Y-2038D02*
X12247Y-2225D01*
X12403Y-2441D01*
X12589Y-2471D01*
X12697Y-2393D01*
X12727Y-2207D01*
X12649Y-2099D01*
X12727Y-2207D01*
X12913Y-2237D01*
X13022Y-2159D01*
X13052Y-1973D01*
X12896Y-1757D01*
X12710Y-1727D01*
D29*
X7537Y1193D02*
G03*
X7537Y1193I-100J0D01*
G01*
X7719Y1549D02*
G03*
X7719Y1549I-100J0D01*
G01*
X8257Y1723D02*
G03*
X8257Y1723I-100J0D01*
G01*
X8614Y1541D02*
G03*
X8614Y1541I-100J0D01*
G01*
X7255Y-235D02*
G03*
X7255Y-235I-100J0D01*
G01*
X7081Y303D02*
G03*
X7081Y303I-100J0D01*
G01*
X7264Y659D02*
G03*
X7264Y659I-100J0D01*
G01*
D41*
X3035Y330D02*
D03*
M02*
