G04 Layer_Physical_Order=2*
G04 Layer_Color=16711680*
%FSLAX43Y43*%
%MOMM*%
G71*
G01*
G75*
G04:AMPARAMS|DCode=10|XSize=0.6mm|YSize=1.5mm|CornerRadius=0mm|HoleSize=0mm|Usage=FLASHONLY|Rotation=242.900|XOffset=0mm|YOffset=0mm|HoleType=Round|Shape=Rectangle|*
%AMROTATEDRECTD10*
4,1,4,-0.531,0.609,0.804,-0.075,0.531,-0.609,-0.804,0.075,-0.531,0.609,0.0*
%
%ADD10ROTATEDRECTD10*%

G04:AMPARAMS|DCode=18|XSize=0.8mm|YSize=1mm|CornerRadius=0mm|HoleSize=0mm|Usage=FLASHONLY|Rotation=242.900|XOffset=0mm|YOffset=0mm|HoleType=Round|Shape=Rectangle|*
%AMROTATEDRECTD18*
4,1,4,-0.263,0.584,0.627,0.128,0.263,-0.584,-0.627,-0.128,-0.263,0.584,0.0*
%
%ADD18ROTATEDRECTD18*%

G04:AMPARAMS|DCode=19|XSize=0.8mm|YSize=2mm|CornerRadius=0mm|HoleSize=0mm|Usage=FLASHONLY|Rotation=152.900|XOffset=0mm|YOffset=0mm|HoleType=Round|Shape=Rectangle|*
%AMROTATEDRECTD19*
4,1,4,0.812,0.708,-0.099,-1.072,-0.812,-0.708,0.099,1.072,0.812,0.708,0.0*
%
%ADD19ROTATEDRECTD19*%

%ADD21C,0.152*%
%ADD23C,0.500*%
%ADD25C,0.400*%
%ADD26C,1.000*%
%ADD27C,0.610*%
%ADD28C,0.601*%
G36*
X-316Y4785D02*
X-240Y4735D01*
X-151Y4717D01*
X1100D01*
X1189Y4735D01*
X1265Y4785D01*
X1375Y4896D01*
X2804D01*
X3400Y4300D01*
Y3025D01*
X3369Y2978D01*
X3333Y2800D01*
X3369Y2621D01*
X3400Y2574D01*
Y2500D01*
X3450D01*
X3470Y2470D01*
X3621Y2369D01*
X3800Y2333D01*
X3978Y2369D01*
X4129Y2470D01*
X4231Y2621D01*
X4258Y2758D01*
X4800Y3300D01*
X7410D01*
X7500Y3210D01*
X7500Y2500D01*
X7336Y2336D01*
X7312Y2332D01*
X7196Y2254D01*
X6701Y1759D01*
X4285D01*
X4178Y1830D01*
X3999Y1866D01*
X3821Y1830D01*
X3669Y1729D01*
X3568Y1578D01*
X3533Y1399D01*
X3568Y1221D01*
X3669Y1070D01*
X3821Y969D01*
X3999Y933D01*
X4178Y969D01*
X4285Y1040D01*
X6100D01*
X6100Y330D01*
X5804Y33D01*
X1801D01*
X469Y1365D01*
X394Y1415D01*
X382Y1418D01*
X-300Y2100D01*
X-596D01*
X-599Y2104D01*
X-662Y2227D01*
X-656Y2273D01*
X-1400D01*
Y2527D01*
X-656D01*
X-665Y2597D01*
X-741Y2780D01*
X-862Y2938D01*
X-1020Y3059D01*
X-1203Y3135D01*
X-1400Y3161D01*
Y5300D01*
X-830D01*
X-316Y4785D01*
D02*
G37*
D10*
X8473Y804D02*
D03*
X8086Y47D02*
D03*
D18*
X8130Y4470D02*
D03*
D19*
X9100Y3300D02*
D03*
D21*
X-1801Y4599D02*
Y6599D01*
X-2071Y4329D02*
X-1801Y4599D01*
X-2071Y3629D02*
Y4329D01*
X-2100Y3600D02*
X-2071Y3629D01*
X-151Y4950D02*
X1100D01*
X-1200Y6000D02*
X-151Y4950D01*
X6800Y5000D02*
X7150D01*
X8130Y4470D01*
X5900Y-200D02*
X7100Y1000D01*
X1279Y5129D02*
X3271D01*
X1100Y4950D02*
X1279Y5129D01*
X3271D02*
X3800Y4600D01*
X6095Y-505D02*
X6647Y47D01*
X505Y-505D02*
X6095D01*
X0Y0D02*
X505Y-505D01*
X1704Y-200D02*
X5900D01*
X304Y1200D02*
X1704Y-200D01*
X-700Y1200D02*
X304D01*
X7100Y1000D02*
X7900D01*
X6647Y47D02*
X8086D01*
X8096Y804D02*
X8473D01*
X7900Y1000D02*
X8096Y804D01*
X3800Y2800D02*
Y4600D01*
D23*
X2300Y2600D02*
X2799D01*
X2100D02*
X2300D01*
X2100Y1500D02*
Y2600D01*
X-1400Y2400D02*
X-800Y3000D01*
X2100D01*
Y3700D02*
Y4600D01*
Y1500D02*
X3200Y400D01*
X5500D01*
X5200Y2800D02*
X8600D01*
X4400Y2200D02*
X5200Y2800D01*
X2799Y2600D02*
X3299Y2100D01*
X2100Y3000D02*
Y3700D01*
D25*
X5200Y3800D02*
X6300D01*
X7450Y2000D02*
X8100D01*
X6849Y1399D02*
X7450Y2000D01*
X3999Y1399D02*
X6849D01*
X4228Y4771D02*
Y4777D01*
X3377Y5628D02*
X4228Y4777D01*
Y4771D02*
X5200Y3800D01*
X299Y5599D02*
X328Y5628D01*
X3377D01*
X3299Y2100D02*
X4300D01*
X4400Y2200D01*
D26*
X0Y0D02*
D03*
X-700Y1200D02*
D03*
X-1400Y2400D02*
D03*
X-2100Y3600D02*
D03*
X-2800Y4800D02*
D03*
X-3500Y6000D02*
D03*
D27*
X6300Y3800D02*
D03*
X6800Y5000D02*
D03*
X3999Y1399D02*
D03*
X5500Y400D02*
D03*
X8100Y2000D02*
D03*
X299Y5599D02*
D03*
X-1801Y6599D02*
D03*
X3800Y2800D02*
D03*
X2300Y2600D02*
D03*
D28*
X2100Y3700D02*
D03*
X8800Y2800D02*
D03*
X2100Y4600D02*
D03*
X-1200Y6000D02*
D03*
M02*
