M48
;Layer_Color=9474304
;FILE_FORMAT=4:3
METRIC,TZ
;TYPE=PLATED
T1F00S00C0.305
T3F00S00C0.508
T5F00S00C0.900
T6F00S00C1.000
T7F00S00C1.090
T8F00S00C1.300
T9F00S00C2.500
;TYPE=NON_PLATED
T10F00S00C0.900
%
T01
X48233Y22225
X49200Y22936
X48741Y25781
X51550Y25575
X54250Y24600
X52324Y20193
X68148Y17755
X68936Y22758
X66700Y24300
X68448Y26948
X70383Y27635
X72644Y27864
X75794Y26111
X83947Y27305
X83312Y28194
X62599Y28417
X46457Y26340
X45034Y25883
X43534Y24257
X43915Y23241
X39939Y24042
X37311Y24003
X29017Y23317
X26477Y23241
X26060Y20472
X24460Y19406
X21768Y18136
X19583Y16586
X16967Y16078
X17780Y13233
X20300Y13200
X21000Y12500
X21895Y13157
X22885Y13665
X22809Y12573
X20218Y11328
X21742Y8661
X23927Y8509
X24562Y9652
X25654Y9931
X24486Y7112
X22835Y6071
X19750Y5850
X19228Y3200
X17882Y2591
X18872Y1219
X12675Y2642
X10592Y2692
X10262Y838
X8001Y2870
X11049Y7010
X12040Y8458
X12090Y10770
X10500Y10500
X10312Y9246
X8100Y11800
X15570Y10744
X15189Y9373
X13818Y18745
X10592Y19380
X18825Y21075
X18000Y21925
X17375Y26025
X18525Y26150
X20635Y24892
X25080Y27559
X28004Y25996
X30455Y19736
X32155Y19712
X30480Y17323
X29997Y12217
X29718Y9728
X30937Y10109
X31217Y7468
X31203Y6121
X31140Y2896
X32461Y3796
X33147Y7772
X26695Y5613
X26061Y3796
X26670Y14326
X6680Y15545
X2438Y11786
X2489Y2870
X1397Y37287
X2515Y42088
X2489Y47422
X5639Y44755
X6121Y40310
X8915Y37236
X10871Y37313
X12250Y38250
X15963Y38735
X15225Y36625
X12903Y34442
X16561Y32817
X18085Y34138
X21805Y37084
X23100Y36125
X24345Y37145
X23722Y32766
X28040
X29923Y33081
X28900Y34800
X33000
X32639Y37846
X35267Y37885
X38862Y38100
X39243Y37084
X40437Y39675
X41478Y40665
X44069Y39624
X44577Y36728
X43561Y36068
X38700Y31800
X34517Y29083
X33800Y45700
X29845Y42926
X25251Y46924
X23368Y46609
X19050
X20408Y41402
X10719Y47295
X8103Y47396
X8001Y50902
X7500Y34200
X45212Y46609
X48824Y45688
X52300Y45200
X57927Y42260
X63667Y40779
X63779Y39125
X70100Y39400
X68466Y34404
X58200Y34300
X58242Y32715
X53496Y31845
X49884Y32766
X49725Y38550
X46875Y39425
X77470Y30226
T03
X47269Y19101
X56261Y16637
X59944Y16891
X71679Y16967
X73533Y16764
Y20574
X79375Y28702
X44475Y19456
X34036Y19431
X32512Y16510
X34163Y13970
X51537Y47193
X71247Y47371
X67564Y41275
X81280Y35052
X81700Y31300
T05
X83200Y16760
Y19300
Y21840
Y24380
X36676Y27813
X36449Y19939
X32000Y9000
X20066Y18161
X32004Y41656
T06
X39319Y13589
X41859
X44399
X3937Y35941
X1397
X12000Y49000
X14000
X16000
X18000
X20000
X22000
X24000
X26000
X28000
X30000
X32000
X34000
X36000
X38000
X40000
X42000
X44000
X46000
Y51000
X44000
X42000
X40000
X38000
X36000
X34000
X32000
X30000
X28000
X26000
X24000
X22000
X20000
X18000
X16000
X14000
X12000
X48000
Y49000
X52000
X54000
X56000
X58000
X60000
X62000
X64000
X66000
Y51000
X64000
X62000
X60000
X58000
X56000
X54000
X52000
T07
X78200Y38960
Y41500
Y44040
X83280
Y38960
T08
X70700Y49900
X74700
T09
X4000Y18500
X81000Y50000
T10
X5500Y7050
Y11450
Y42550
Y46950
M30
