G04*
G04 #@! TF.GenerationSoftware,Altium Limited,Altium Designer,19.0.15 (446)*
G04*
G04 Layer_Color=8421504*
%FSAX42Y42*%
%MOMM*%
G71*
G01*
G75*
%ADD19R,0.60X0.75*%
%ADD20R,0.75X0.60*%
%ADD21R,0.60X0.64*%
%ADD22R,0.30X0.60*%
%ADD23R,0.90X1.00*%
%ADD24R,0.25X0.68*%
%ADD25R,0.68X0.25*%
%ADD26R,0.64X0.60*%
%ADD27R,0.60X1.10*%
%ADD28R,0.60X1.50*%
%ADD29R,0.29X0.53*%
%ADD30R,0.85X0.65*%
%ADD31R,0.85X0.95*%
%ADD32R,2.00X0.60*%
%ADD33R,4.20X0.70*%
%ADD34R,0.30X0.52*%
%ADD35C,0.40*%
%ADD36R,1.90X1.80*%
G04:AMPARAMS|DCode=37|XSize=1.6mm|YSize=1.4mm|CornerRadius=0.35mm|HoleSize=0mm|Usage=FLASHONLY|Rotation=180.000|XOffset=0mm|YOffset=0mm|HoleType=Round|Shape=RoundedRectangle|*
%AMROUNDEDRECTD37*
21,1,1.60,0.70,0,0,180.0*
21,1,0.90,1.40,0,0,180.0*
1,1,0.70,-0.45,0.35*
1,1,0.70,0.45,0.35*
1,1,0.70,0.45,-0.35*
1,1,0.70,-0.45,-0.35*
%
%ADD37ROUNDEDRECTD37*%
%ADD38O,0.40X1.35*%
%ADD39R,1.05X1.40*%
%ADD40R,1.00X0.90*%
%ADD41R,0.70X1.20*%
%ADD42R,1.00X1.20*%
%ADD43R,1.00X0.80*%
%ADD44R,1.00X2.80*%
%ADD45R,1.30X1.90*%
%ADD46R,0.80X0.80*%
%ADD47R,0.80X0.80*%
%ADD48R,0.65X0.95*%
%ADD49R,0.85X0.25*%
%ADD50R,1.58X2.48*%
%ADD51R,1.00X1.00*%
%ADD52R,1.00X1.00*%
%ADD53R,0.95X0.85*%
%ADD54R,4.06X1.91*%
D19*
X002650Y-000607D02*
D03*
Y-000493D02*
D03*
X002250Y-002627D02*
D03*
Y-002512D02*
D03*
X004290Y-004197D02*
D03*
Y-004083D02*
D03*
Y-004447D02*
D03*
Y-004333D02*
D03*
X005730Y-002073D02*
D03*
Y-002188D02*
D03*
X001410Y-000422D02*
D03*
Y-000538D02*
D03*
X005880Y-002188D02*
D03*
Y-002073D02*
D03*
X000600Y-000612D02*
D03*
Y-000728D02*
D03*
X001820Y-004592D02*
D03*
Y-004708D02*
D03*
D20*
X005167Y-002160D02*
D03*
X005053D02*
D03*
X004592Y-002100D02*
D03*
X004708D02*
D03*
X000848Y-000740D02*
D03*
X000732D02*
D03*
X004158Y-004450D02*
D03*
X004042D02*
D03*
X004172Y-004580D02*
D03*
X004288D02*
D03*
X004042Y-004330D02*
D03*
X004158D02*
D03*
X005535Y-002340D02*
D03*
X005420D02*
D03*
X005535Y-002490D02*
D03*
X005420D02*
D03*
X005535Y-002640D02*
D03*
X005420D02*
D03*
X005535Y-002790D02*
D03*
X005420D02*
D03*
X005538Y-003090D02*
D03*
X005422D02*
D03*
X005538Y-002940D02*
D03*
X005422D02*
D03*
X001738Y-000940D02*
D03*
X001623D02*
D03*
X002133Y-000730D02*
D03*
X002248D02*
D03*
X002508D02*
D03*
X002392D02*
D03*
X003867Y-002080D02*
D03*
X003753D02*
D03*
X001823Y-004840D02*
D03*
X001938D02*
D03*
X002067Y-004710D02*
D03*
X001952D02*
D03*
Y-004590D02*
D03*
X002067D02*
D03*
X001938Y-004460D02*
D03*
X001823D02*
D03*
D21*
X004896Y-001840D02*
D03*
X004984D02*
D03*
X005426Y-001990D02*
D03*
X005514D02*
D03*
X004414Y-001840D02*
D03*
X004326D02*
D03*
X003914Y-004110D02*
D03*
X003826D02*
D03*
X002254Y-000600D02*
D03*
X002166D02*
D03*
X002386D02*
D03*
X002474D02*
D03*
D22*
X005300Y-001988D02*
D03*
X005250D02*
D03*
X005200D02*
D03*
Y-001833D02*
D03*
X005250D02*
D03*
X005300D02*
D03*
X004540D02*
D03*
X004590D02*
D03*
X004640D02*
D03*
Y-001988D02*
D03*
X004590D02*
D03*
X004540D02*
D03*
D23*
X005047Y-001980D02*
D03*
X004912D02*
D03*
X002327Y-001240D02*
D03*
X002192D02*
D03*
D24*
X003225Y-001216D02*
D03*
X003275D02*
D03*
X003325D02*
D03*
X003375D02*
D03*
Y-000964D02*
D03*
X003325D02*
D03*
X003275D02*
D03*
X003225D02*
D03*
D25*
X003401Y-001140D02*
D03*
Y-001090D02*
D03*
Y-001040D02*
D03*
X003199D02*
D03*
Y-001090D02*
D03*
Y-001140D02*
D03*
D26*
X003520Y-001186D02*
D03*
Y-001274D02*
D03*
X002490Y-002656D02*
D03*
Y-002744D02*
D03*
X004340Y-003644D02*
D03*
Y-003556D02*
D03*
X003520Y-000966D02*
D03*
Y-001054D02*
D03*
X001920Y-001076D02*
D03*
Y-001164D02*
D03*
X002050Y-001076D02*
D03*
Y-001164D02*
D03*
Y-000944D02*
D03*
Y-000856D02*
D03*
X004060Y-002834D02*
D03*
Y-002746D02*
D03*
X002480Y-003924D02*
D03*
Y-003836D02*
D03*
D27*
X000560Y-002310D02*
D03*
X000680D02*
D03*
X000800D02*
D03*
X000920D02*
D03*
D28*
X000433Y-001970D02*
D03*
X001047D02*
D03*
D29*
X000209Y-004069D02*
D03*
X000150D02*
D03*
X000090D02*
D03*
X005791Y-004067D02*
D03*
X005850D02*
D03*
X005909D02*
D03*
D30*
X004055Y-003725D02*
D03*
Y-003560D02*
D03*
X004210D02*
D03*
Y-003725D02*
D03*
D31*
X005325Y-002190D02*
D03*
X005455D02*
D03*
D32*
X004580Y-003870D02*
D03*
Y-003770D02*
D03*
Y-003670D02*
D03*
Y-003570D02*
D03*
Y-003470D02*
D03*
Y-003370D02*
D03*
D33*
X004790Y-003970D02*
D03*
Y-003270D02*
D03*
D34*
X000910Y-000638D02*
D03*
X000860D02*
D03*
X000810D02*
D03*
Y-000562D02*
D03*
X000860D02*
D03*
X000910D02*
D03*
X002020Y-000658D02*
D03*
X001970D02*
D03*
X001920D02*
D03*
Y-000582D02*
D03*
X001970D02*
D03*
X002020D02*
D03*
D35*
X003870Y-003920D02*
D03*
X003790D02*
D03*
X003710D02*
D03*
X003630D02*
D03*
X003550D02*
D03*
X003470D02*
D03*
X003390D02*
D03*
X003310D02*
D03*
X003230D02*
D03*
X003150D02*
D03*
X003070D02*
D03*
X002990D02*
D03*
X002910D02*
D03*
X002830D02*
D03*
X002750D02*
D03*
X002670D02*
D03*
X003870Y-003840D02*
D03*
X003790D02*
D03*
X003710D02*
D03*
X003630D02*
D03*
X003550D02*
D03*
X003470D02*
D03*
X003390D02*
D03*
X003310D02*
D03*
X003230D02*
D03*
X003150D02*
D03*
X003070D02*
D03*
X002990D02*
D03*
X002910D02*
D03*
X002830D02*
D03*
X002750D02*
D03*
X002670D02*
D03*
X003870Y-003760D02*
D03*
X003790D02*
D03*
X003710D02*
D03*
X003630D02*
D03*
X003550D02*
D03*
X003470D02*
D03*
X003390D02*
D03*
X003310D02*
D03*
X003230D02*
D03*
X003150D02*
D03*
X003070D02*
D03*
X002990D02*
D03*
X002910D02*
D03*
X002830D02*
D03*
X002750D02*
D03*
X002670D02*
D03*
X003870Y-003680D02*
D03*
X003790D02*
D03*
X003710D02*
D03*
X003630D02*
D03*
X003550D02*
D03*
X003470D02*
D03*
X003390D02*
D03*
X003310D02*
D03*
X003230D02*
D03*
X003150D02*
D03*
X003070D02*
D03*
X002990D02*
D03*
X002910D02*
D03*
X002830D02*
D03*
X002750D02*
D03*
X002670D02*
D03*
X003870Y-003600D02*
D03*
X003790D02*
D03*
X003710D02*
D03*
X003630D02*
D03*
X003550D02*
D03*
X003470D02*
D03*
X003390D02*
D03*
X003310D02*
D03*
X003230D02*
D03*
X003150D02*
D03*
X003070D02*
D03*
X002990D02*
D03*
X002910D02*
D03*
X002830D02*
D03*
X002750D02*
D03*
X002670D02*
D03*
X003870Y-003520D02*
D03*
X003790D02*
D03*
X003710D02*
D03*
X003630D02*
D03*
X003550D02*
D03*
X003470D02*
D03*
X003390D02*
D03*
X003310D02*
D03*
X003230D02*
D03*
X003150D02*
D03*
X003070D02*
D03*
X002990D02*
D03*
X002910D02*
D03*
X002830D02*
D03*
X002750D02*
D03*
X002670D02*
D03*
X003870Y-003440D02*
D03*
X003790D02*
D03*
X003710D02*
D03*
X003630D02*
D03*
X003550D02*
D03*
X003470D02*
D03*
X003390D02*
D03*
X003310D02*
D03*
X003230D02*
D03*
X003150D02*
D03*
X003070D02*
D03*
X002990D02*
D03*
X002910D02*
D03*
X002830D02*
D03*
X002750D02*
D03*
X002670D02*
D03*
X003870Y-003360D02*
D03*
X003790D02*
D03*
X003710D02*
D03*
X003630D02*
D03*
X003550D02*
D03*
X003470D02*
D03*
X003390D02*
D03*
X003310D02*
D03*
X003230D02*
D03*
X003150D02*
D03*
X003070D02*
D03*
X002990D02*
D03*
X002910D02*
D03*
X002830D02*
D03*
X002750D02*
D03*
X002670D02*
D03*
X003870Y-003280D02*
D03*
X003790D02*
D03*
X003710D02*
D03*
X003630D02*
D03*
X003550D02*
D03*
X003470D02*
D03*
X003390D02*
D03*
X003310D02*
D03*
X003230D02*
D03*
X003150D02*
D03*
X003070D02*
D03*
X002990D02*
D03*
X002910D02*
D03*
X002830D02*
D03*
X002750D02*
D03*
X002670D02*
D03*
X003870Y-003200D02*
D03*
X003790D02*
D03*
X003710D02*
D03*
X003630D02*
D03*
X003550D02*
D03*
X003470D02*
D03*
X003390D02*
D03*
X003310D02*
D03*
X003230D02*
D03*
X003150D02*
D03*
X003070D02*
D03*
X002990D02*
D03*
X002910D02*
D03*
X002830D02*
D03*
X002750D02*
D03*
X002670D02*
D03*
X003870Y-003120D02*
D03*
X003790D02*
D03*
X003710D02*
D03*
X003630D02*
D03*
X003550D02*
D03*
X003470D02*
D03*
X003390D02*
D03*
X003310D02*
D03*
X003230D02*
D03*
X003150D02*
D03*
X003070D02*
D03*
X002990D02*
D03*
X002910D02*
D03*
X002830D02*
D03*
X002750D02*
D03*
X002670D02*
D03*
X003870Y-003040D02*
D03*
X003790D02*
D03*
X003710D02*
D03*
X003630D02*
D03*
X003550D02*
D03*
X003470D02*
D03*
X003390D02*
D03*
X003310D02*
D03*
X003230D02*
D03*
X003150D02*
D03*
X003070D02*
D03*
X002990D02*
D03*
X002910D02*
D03*
X002830D02*
D03*
X002750D02*
D03*
X002670D02*
D03*
X003870Y-002960D02*
D03*
X003790D02*
D03*
X003710D02*
D03*
X003630D02*
D03*
X003550D02*
D03*
X003470D02*
D03*
X003390D02*
D03*
X003310D02*
D03*
X003230D02*
D03*
X003150D02*
D03*
X003070D02*
D03*
X002990D02*
D03*
X002910D02*
D03*
X002830D02*
D03*
X002750D02*
D03*
X002670D02*
D03*
X003870Y-002880D02*
D03*
X003790D02*
D03*
X003710D02*
D03*
X003630D02*
D03*
X003550D02*
D03*
X003470D02*
D03*
X003390D02*
D03*
X003310D02*
D03*
X003230D02*
D03*
X003150D02*
D03*
X003070D02*
D03*
X002990D02*
D03*
X002910D02*
D03*
X002830D02*
D03*
X002750D02*
D03*
X002670D02*
D03*
X003870Y-002800D02*
D03*
X003790D02*
D03*
X003710D02*
D03*
X003630D02*
D03*
X003550D02*
D03*
X003470D02*
D03*
X003390D02*
D03*
X003310D02*
D03*
X003230D02*
D03*
X003150D02*
D03*
X003070D02*
D03*
X002990D02*
D03*
X002910D02*
D03*
X002830D02*
D03*
X002750D02*
D03*
X002670D02*
D03*
X003870Y-002720D02*
D03*
X003790D02*
D03*
X003710D02*
D03*
X003630D02*
D03*
X003550D02*
D03*
X003470D02*
D03*
X003390D02*
D03*
X003310D02*
D03*
X003230D02*
D03*
X003150D02*
D03*
X003070D02*
D03*
X002990D02*
D03*
X002910D02*
D03*
X002830D02*
D03*
X002750D02*
D03*
X002670D02*
D03*
D36*
X000740Y-000123D02*
D03*
X000980D02*
D03*
X002080Y-000125D02*
D03*
X001840D02*
D03*
D37*
X000540Y-000367D02*
D03*
X001180D02*
D03*
X002280Y-000370D02*
D03*
X001640D02*
D03*
D38*
X000860Y-000390D02*
D03*
X000925D02*
D03*
X000990D02*
D03*
X000730D02*
D03*
X000795D02*
D03*
X001895Y-000392D02*
D03*
X001830D02*
D03*
X002090D02*
D03*
X002025D02*
D03*
X001960D02*
D03*
D39*
X000233Y-003430D02*
D03*
X000088D02*
D03*
X000233Y-003790D02*
D03*
X000088D02*
D03*
X000233Y-002560D02*
D03*
X000088D02*
D03*
X000233Y-002920D02*
D03*
X000088D02*
D03*
X000233Y-000460D02*
D03*
X000088D02*
D03*
X000233Y-000820D02*
D03*
X000088D02*
D03*
D40*
X001900Y-000927D02*
D03*
Y-000792D02*
D03*
D41*
X004560Y-001650D02*
D03*
X004670D02*
D03*
X004780D02*
D03*
X004890D02*
D03*
X005000D02*
D03*
X005110D02*
D03*
X005220D02*
D03*
X005330D02*
D03*
X005425D02*
D03*
D42*
X004405D02*
D03*
X005520Y-001220D02*
D03*
D43*
X005535Y-000600D02*
D03*
D44*
X005520Y-000190D02*
D03*
D45*
X004185Y-000140D02*
D03*
D46*
X001410Y-000115D02*
D03*
Y-000265D02*
D03*
X005730Y-001915D02*
D03*
Y-001765D02*
D03*
X005880Y-001915D02*
D03*
Y-001765D02*
D03*
X001730Y-000780D02*
D03*
Y-000630D02*
D03*
D47*
X005703Y-002340D02*
D03*
X005853D02*
D03*
X005703Y-002490D02*
D03*
X005853D02*
D03*
X005703Y-002640D02*
D03*
X005853D02*
D03*
X005703Y-002790D02*
D03*
X005853D02*
D03*
X005703Y-003090D02*
D03*
X005853D02*
D03*
Y-002940D02*
D03*
X005703D02*
D03*
D48*
X001680Y-001085D02*
D03*
X001775Y-001315D02*
D03*
X001585D02*
D03*
D49*
X002178Y-000867D02*
D03*
Y-000912D02*
D03*
Y-000957D02*
D03*
Y-001002D02*
D03*
Y-001047D02*
D03*
Y-001092D02*
D03*
X002461Y-000867D02*
D03*
Y-000912D02*
D03*
Y-000957D02*
D03*
Y-001002D02*
D03*
Y-001047D02*
D03*
Y-001092D02*
D03*
D50*
X002320Y-000980D02*
D03*
D51*
X004090Y-003000D02*
D03*
X004660D02*
D03*
X004280D02*
D03*
D52*
X004470D02*
D03*
D53*
X003970Y-000625D02*
D03*
Y-000495D02*
D03*
D54*
X-000170Y-001360D02*
D03*
Y-001610D02*
D03*
Y-001860D02*
D03*
Y-002110D02*
D03*
M02*
