G04*
G04 #@! TF.GenerationSoftware,Altium Limited,Altium Designer,19.0.15 (446)*
G04*
G04 Layer_Color=65535*
%FSAX42Y42*%
%MOMM*%
G71*
G01*
G75*
%ADD10C,0.25*%
%ADD11C,0.25*%
%ADD12C,0.20*%
%ADD13C,0.50*%
%ADD14C,0.10*%
%ADD15C,0.20*%
%ADD16C,0.15*%
%ADD17C,0.13*%
%ADD18C,0.18*%
G36*
X003870Y-004020D02*
X003970Y-003920D01*
Y-004020D01*
X003870D01*
D02*
G37*
D10*
X005383Y-001833D02*
G03*
X005383Y-001833I-000012J000000D01*
G01*
X004483Y-001988D02*
G03*
X004483Y-001988I-000012J000000D01*
G01*
X001510Y-001315D02*
G03*
X001510Y-001315I-000012J000000D01*
G01*
D11*
X003235Y-001290D02*
G03*
X003235Y-001290I-000010J000000D01*
G01*
X004530Y-004050D02*
Y-003920D01*
Y-004050D02*
X005080D01*
Y-003190D01*
X004530D02*
X005080D01*
X004530Y-003320D02*
Y-003190D01*
X000010Y-003785D02*
Y-003685D01*
X-000040D02*
X000010D01*
X-000040D02*
Y-003535D01*
X000010D01*
Y-003435D01*
X000310Y-003785D02*
Y-003435D01*
X000010Y-002915D02*
Y-002815D01*
X-000040D02*
X000010D01*
X-000040D02*
Y-002665D01*
X000010D01*
Y-002565D01*
X000310Y-002915D02*
Y-002565D01*
X000010Y-000815D02*
Y-000715D01*
X-000040D02*
X000010D01*
X-000040D02*
Y-000565D01*
X000010D01*
Y-000465D01*
X000310Y-000815D02*
Y-000465D01*
X000522Y-002500D02*
X000370Y-002558D01*
X000522Y-002616D02*
X000370Y-002558D01*
X000522Y-002679D02*
X000515Y-002665D01*
X000501Y-002650D01*
X000486Y-002643D01*
X000464Y-002636D01*
X000428D01*
X000406Y-002643D01*
X000392Y-002650D01*
X000377Y-002665D01*
X000370Y-002679D01*
Y-002708D01*
X000377Y-002723D01*
X000392Y-002737D01*
X000406Y-002745D01*
X000428Y-002752D01*
X000464D01*
X000486Y-002745D01*
X000501Y-002737D01*
X000515Y-002723D01*
X000522Y-002708D01*
Y-002679D01*
Y-002787D02*
X000370D01*
Y-002874D01*
X000435Y-002891D02*
Y-003022D01*
X002438Y-000369D02*
X002590D01*
X002438Y-000420D02*
Y-000318D01*
Y-000249D02*
X002590D01*
X002438Y-000300D02*
Y-000199D01*
Y-000181D02*
X002510Y-000123D01*
X002590D01*
X002438Y-000064D02*
X002510Y-000123D01*
X000522Y-003350D02*
X000370Y-003408D01*
X000522Y-003466D02*
X000370Y-003408D01*
X000522Y-003529D02*
X000515Y-003515D01*
X000501Y-003500D01*
X000486Y-003493D01*
X000464Y-003486D01*
X000428D01*
X000406Y-003493D01*
X000392Y-003500D01*
X000377Y-003515D01*
X000370Y-003529D01*
Y-003558D01*
X000377Y-003573D01*
X000392Y-003587D01*
X000406Y-003595D01*
X000428Y-003602D01*
X000464D01*
X000486Y-003595D01*
X000501Y-003587D01*
X000515Y-003573D01*
X000522Y-003558D01*
Y-003529D01*
Y-003637D02*
X000370D01*
Y-003724D01*
X000501Y-003806D02*
X000370D01*
X000435Y-003741D02*
Y-003872D01*
X000433Y-000460D02*
Y-000525D01*
X000440Y-000547D01*
X000447Y-000554D01*
X000462Y-000562D01*
X000483D01*
X000498Y-000554D01*
X000505Y-000547D01*
X000512Y-000525D01*
Y-000460D01*
X000360D01*
X000512Y-000596D02*
X000360Y-000632D01*
X000512Y-000668D02*
X000360Y-000632D01*
X000512Y-000668D02*
X000360Y-000705D01*
X000512Y-000741D02*
X000360Y-000705D01*
X000512Y-000771D02*
X000360D01*
X000512D02*
Y-000837D01*
X000505Y-000858D01*
X000498Y-000866D01*
X000483Y-000873D01*
X000469D01*
X000454Y-000866D01*
X000447Y-000858D01*
X000440Y-000837D01*
Y-000771D01*
Y-000822D02*
X000360Y-000873D01*
X000166Y-000210D02*
X000108Y-000058D01*
X000050Y-000210D01*
X000072Y-000159D02*
X000144D01*
X000202Y-000058D02*
Y-000210D01*
Y-000058D02*
X000252D01*
X000274Y-000065D01*
X000289Y-000079D01*
X000296Y-000094D01*
X000303Y-000116D01*
Y-000152D01*
X000296Y-000174D01*
X000289Y-000188D01*
X000274Y-000203D01*
X000252Y-000210D01*
X000202D01*
X000337Y-000058D02*
Y-000210D01*
Y-000058D02*
X000403D01*
X000424Y-000065D01*
X000432Y-000072D01*
X000439Y-000087D01*
Y-000101D01*
X000432Y-000116D01*
X000424Y-000123D01*
X000403Y-000130D01*
X000337D02*
X000403D01*
X000424Y-000137D01*
X000432Y-000145D01*
X000439Y-000159D01*
Y-000181D01*
X000432Y-000195D01*
X000424Y-000203D01*
X000403Y-000210D01*
X000337D01*
D12*
X004290Y-003755D02*
G03*
X004290Y-003755I-000010J000000D01*
G01*
X000970Y-000560D02*
G03*
X000970Y-000560I-000010J000000D01*
G01*
X002080Y-000580D02*
G03*
X002080Y-000580I-000010J000000D01*
G01*
X005165Y-001920D02*
X005335D01*
X005165Y-001900D02*
X005335D01*
X005165Y-001920D02*
Y-001900D01*
X005335Y-001920D02*
Y-001900D01*
X004505D02*
X004675D01*
X004505Y-001920D02*
X004675D01*
Y-001900D01*
X004505Y-001920D02*
Y-001900D01*
X003870Y-004020D02*
X003970Y-003920D01*
Y-004020D02*
Y-002620D01*
X002570Y-004020D02*
Y-002620D01*
Y-004020D02*
X003970D01*
X002570Y-002620D02*
X003970D01*
X000490Y-000028D02*
Y000043D01*
Y-000267D02*
Y-000217D01*
X000650Y-000407D02*
X000680D01*
X001040D02*
X001070D01*
X001230Y-000267D02*
Y-000217D01*
Y-000028D02*
Y000043D01*
X000490D02*
X001230D01*
Y000152D01*
X000490D02*
X001230D01*
X000490Y000043D02*
Y000152D01*
X004290Y-000050D02*
X005430D01*
X004150Y-001660D02*
Y-000280D01*
Y-001660D02*
X004330D01*
X005500D02*
X005530D01*
Y-001320D01*
Y-001120D02*
Y-000680D01*
Y-000520D02*
Y-000370D01*
X001590Y000040D02*
Y000150D01*
X002330D01*
Y000040D02*
Y000150D01*
X001590Y000040D02*
X002330D01*
Y-000030D02*
Y000040D01*
Y-000270D02*
Y-000220D01*
X002140Y-000410D02*
X002170D01*
X001750D02*
X001780D01*
X001590Y-000270D02*
Y-000220D01*
Y-000030D02*
Y000040D01*
X001752Y-001130D02*
X001830D01*
Y-001230D02*
Y-001130D01*
X001530D02*
X001608D01*
X001530Y-001230D02*
Y-001130D01*
X002170Y-000815D02*
X002211D01*
X002429D02*
X002470D01*
X002170Y-001145D02*
X002211D01*
X002429D02*
X002470D01*
X-000250Y-001250D02*
Y-001230D01*
X000040D01*
Y-001250D02*
Y-001230D01*
X-000250Y-002240D02*
Y-002220D01*
Y-002240D02*
X000040D01*
Y-002220D01*
X000050Y-002170D02*
X000160D01*
Y-002060D01*
X000050D02*
X000160D01*
X000050Y-001810D02*
X000160D01*
Y-001920D02*
Y-001810D01*
X000050Y-001920D02*
X000160D01*
X000050Y-001560D02*
X000160D01*
Y-001670D02*
Y-001560D01*
X000050Y-001670D02*
X000160D01*
X000050Y-001310D02*
X000160D01*
Y-001420D02*
Y-001310D01*
X000050Y-001420D02*
X000160D01*
X-000250Y-001500D02*
Y-001470D01*
Y-001750D02*
Y-001720D01*
Y-002000D02*
Y-001970D01*
X000040Y-001500D02*
Y-001470D01*
Y-001750D02*
Y-001720D01*
Y-002000D02*
Y-001970D01*
D13*
X004047Y-004005D02*
G03*
X004047Y-004005I-000012J000000D01*
G01*
D14*
X002135Y-000815D02*
G03*
X002135Y-000815I-000005J000000D01*
G01*
X001410Y-000173D02*
X001435Y-000208D01*
X001410D02*
X001435D01*
X001410Y-000173D02*
X001432D01*
X001388D02*
X001410D01*
X001385Y-000208D02*
X001410D01*
X001385D02*
X001410Y-000173D01*
X005705Y-001858D02*
X005730Y-001823D01*
X005705Y-001858D02*
X005730D01*
X005708Y-001823D02*
X005730D01*
X005753D01*
X005730Y-001858D02*
X005755D01*
X005730Y-001823D02*
X005755Y-001858D01*
X005880Y-001823D02*
X005905Y-001858D01*
X005880D02*
X005905D01*
X005880Y-001823D02*
X005903D01*
X005858D02*
X005880D01*
X005855Y-001858D02*
X005880D01*
X005855D02*
X005880Y-001823D01*
X005760Y-002365D02*
X005795Y-002340D01*
X005760Y-002365D02*
Y-002340D01*
X005795Y-002362D02*
Y-002340D01*
Y-002317D01*
X005760Y-002340D02*
Y-002315D01*
X005795Y-002340D01*
X005760Y-002515D02*
X005795Y-002490D01*
X005760Y-002515D02*
Y-002490D01*
X005795Y-002512D02*
Y-002490D01*
Y-002467D01*
X005760Y-002490D02*
Y-002465D01*
X005795Y-002490D01*
X005760Y-002665D02*
X005795Y-002640D01*
X005760Y-002665D02*
Y-002640D01*
X005795Y-002662D02*
Y-002640D01*
Y-002617D01*
X005760Y-002640D02*
Y-002615D01*
X005795Y-002640D01*
X005760Y-002815D02*
X005795Y-002790D01*
X005760Y-002815D02*
Y-002790D01*
X005795Y-002812D02*
Y-002790D01*
Y-002767D01*
X005760Y-002790D02*
Y-002765D01*
X005795Y-002790D01*
X005760Y-003065D02*
X005795Y-003090D01*
X005760D02*
Y-003065D01*
X005795Y-003090D02*
Y-003067D01*
Y-003112D02*
Y-003090D01*
X005760Y-003115D02*
Y-003090D01*
Y-003115D02*
X005795Y-003090D01*
X005760Y-002965D02*
X005795Y-002940D01*
X005760Y-002965D02*
Y-002940D01*
X005795Y-002962D02*
Y-002940D01*
Y-002917D01*
X005760Y-002940D02*
Y-002915D01*
X005795Y-002940D01*
X001730Y-000688D02*
X001755Y-000722D01*
X001730D02*
X001755D01*
X001730Y-000688D02*
X001752D01*
X001708D02*
X001730D01*
X001705Y-000722D02*
X001730D01*
X001705D02*
X001730Y-000688D01*
D15*
X002290Y-000810D02*
G03*
X002350Y-000810I000030J000000D01*
G01*
X002148Y-000815D02*
G03*
X002148Y-000815I-000018J000000D01*
G01*
X002350Y-000810D02*
X002470D01*
X002170D02*
X002290D01*
X002170Y-001150D02*
X002470D01*
X005154Y-003368D02*
Y-003470D01*
X005120Y-003368D02*
X005188D01*
X005272Y-003393D02*
X005268Y-003383D01*
X005258Y-003373D01*
X005248Y-003368D01*
X005229D01*
X005219Y-003373D01*
X005209Y-003383D01*
X005205Y-003393D01*
X005200Y-003407D01*
Y-003431D01*
X005205Y-003446D01*
X005209Y-003455D01*
X005219Y-003465D01*
X005229Y-003470D01*
X005248D01*
X005258Y-003465D01*
X005268Y-003455D01*
X005272Y-003446D01*
X005301Y-003368D02*
Y-003470D01*
X005369Y-003368D02*
X005301Y-003436D01*
X005325Y-003412D02*
X005369Y-003470D01*
X005154Y-003508D02*
Y-003610D01*
X005120Y-003508D02*
X005188D01*
X005200D02*
Y-003610D01*
Y-003508D02*
X005239Y-003610D01*
X005277Y-003508D02*
X005239Y-003610D01*
X005277Y-003508D02*
Y-003610D01*
X005374Y-003523D02*
X005364Y-003513D01*
X005350Y-003508D01*
X005330D01*
X005316Y-003513D01*
X005306Y-003523D01*
Y-003533D01*
X005311Y-003542D01*
X005316Y-003547D01*
X005326Y-003552D01*
X005355Y-003562D01*
X005364Y-003566D01*
X005369Y-003571D01*
X005374Y-003581D01*
Y-003595D01*
X005364Y-003605D01*
X005350Y-003610D01*
X005330D01*
X005316Y-003605D01*
X005306Y-003595D01*
X005154Y-003648D02*
Y-003750D01*
X005120Y-003648D02*
X005188D01*
X005200D02*
Y-003750D01*
Y-003648D02*
X005234D01*
X005248Y-003653D01*
X005258Y-003663D01*
X005263Y-003673D01*
X005268Y-003687D01*
Y-003711D01*
X005263Y-003726D01*
X005258Y-003735D01*
X005248Y-003745D01*
X005234Y-003750D01*
X005200D01*
X005290Y-003648D02*
Y-003750D01*
X005154Y-003788D02*
Y-003890D01*
X005120Y-003788D02*
X005188D01*
X005200D02*
Y-003890D01*
Y-003788D02*
X005234D01*
X005248Y-003793D01*
X005258Y-003803D01*
X005263Y-003813D01*
X005268Y-003827D01*
Y-003851D01*
X005263Y-003866D01*
X005258Y-003875D01*
X005248Y-003885D01*
X005234Y-003890D01*
X005200D01*
X005319Y-003788D02*
X005310Y-003793D01*
X005300Y-003803D01*
X005295Y-003813D01*
X005290Y-003827D01*
Y-003851D01*
X005295Y-003866D01*
X005300Y-003875D01*
X005310Y-003885D01*
X005319Y-003890D01*
X005339D01*
X005348Y-003885D01*
X005358Y-003875D01*
X005363Y-003866D01*
X005368Y-003851D01*
Y-003827D01*
X005363Y-003813D01*
X005358Y-003803D01*
X005348Y-003793D01*
X005339Y-003788D01*
X005319D01*
X005130Y-003928D02*
X005183D01*
X005154Y-003967D01*
X005168D01*
X005178Y-003972D01*
X005183Y-003977D01*
X005188Y-003991D01*
Y-004001D01*
X005183Y-004015D01*
X005173Y-004025D01*
X005159Y-004030D01*
X005144D01*
X005130Y-004025D01*
X005125Y-004020D01*
X005120Y-004011D01*
X005210Y-003928D02*
X005249Y-004030D01*
X005288Y-003928D02*
X005249Y-004030D01*
X005311Y-003928D02*
X005364D01*
X005335Y-003967D01*
X005349D01*
X005359Y-003972D01*
X005364Y-003977D01*
X005369Y-003991D01*
Y-004001D01*
X005364Y-004015D01*
X005354Y-004025D01*
X005340Y-004030D01*
X005325D01*
X005311Y-004025D01*
X005306Y-004020D01*
X005301Y-004011D01*
X005149Y-003228D02*
X005135Y-003233D01*
X005125Y-003248D01*
X005120Y-003272D01*
Y-003286D01*
X005125Y-003311D01*
X005135Y-003325D01*
X005149Y-003330D01*
X005159D01*
X005173Y-003325D01*
X005183Y-003311D01*
X005188Y-003286D01*
Y-003272D01*
X005183Y-003248D01*
X005173Y-003233D01*
X005159Y-003228D01*
X005149D01*
X000933Y-001706D02*
X001020D01*
X000976Y-001750D02*
Y-001663D01*
X000618Y-001751D02*
X000720D01*
X000618D02*
X000720Y-001683D01*
X000618D02*
X000720D01*
X000618Y-001621D02*
X000720D01*
X000618Y-001655D02*
Y-001588D01*
X000643Y-001503D02*
X000633Y-001508D01*
X000623Y-001517D01*
X000618Y-001527D01*
Y-001546D01*
X000623Y-001556D01*
X000633Y-001566D01*
X000643Y-001571D01*
X000657Y-001575D01*
X000681D01*
X000696Y-001571D01*
X000705Y-001566D01*
X000715Y-001556D01*
X000720Y-001546D01*
Y-001527D01*
X000715Y-001517D01*
X000705Y-001508D01*
X000696Y-001503D01*
X000526Y-001750D02*
Y-001663D01*
X004990Y-002738D02*
Y-002811D01*
X004995Y-002825D01*
X005005Y-002835D01*
X005019Y-002840D01*
X005029D01*
X005043Y-002835D01*
X005053Y-002825D01*
X005058Y-002811D01*
Y-002738D01*
X005153Y-002753D02*
X005144Y-002743D01*
X005129Y-002738D01*
X005110D01*
X005095Y-002743D01*
X005086Y-002753D01*
Y-002763D01*
X005091Y-002772D01*
X005095Y-002777D01*
X005105Y-002782D01*
X005134Y-002792D01*
X005144Y-002796D01*
X005149Y-002801D01*
X005153Y-002811D01*
Y-002825D01*
X005144Y-002835D01*
X005129Y-002840D01*
X005110D01*
X005095Y-002835D01*
X005086Y-002825D01*
X005239Y-002738D02*
X005176D01*
Y-002840D01*
X005239D01*
X005176Y-002787D02*
X005215D01*
X005256Y-002738D02*
Y-002840D01*
Y-002738D02*
X005300D01*
X005314Y-002743D01*
X005319Y-002748D01*
X005324Y-002758D01*
Y-002767D01*
X005319Y-002777D01*
X005314Y-002782D01*
X005300Y-002787D01*
X005256D01*
X005290D02*
X005324Y-002840D01*
X005238Y-002603D02*
X005228Y-002593D01*
X005214Y-002588D01*
X005194D01*
X005180Y-002593D01*
X005170Y-002603D01*
Y-002613D01*
X005175Y-002622D01*
X005180Y-002627D01*
X005189Y-002632D01*
X005218Y-002642D01*
X005228Y-002646D01*
X005233Y-002651D01*
X005238Y-002661D01*
Y-002675D01*
X005228Y-002685D01*
X005214Y-002690D01*
X005194D01*
X005180Y-002685D01*
X005170Y-002675D01*
X005260Y-002588D02*
Y-002690D01*
Y-002588D02*
X005294D01*
X005309Y-002593D01*
X005318Y-002603D01*
X005323Y-002613D01*
X005328Y-002627D01*
Y-002651D01*
X005323Y-002666D01*
X005318Y-002675D01*
X005309Y-002685D01*
X005294Y-002690D01*
X005260D01*
X004960Y-002501D02*
X005018D01*
Y-002492D01*
X005013Y-002482D01*
X005008Y-002477D01*
X004999Y-002472D01*
X004984D01*
X004975Y-002477D01*
X004965Y-002487D01*
X004960Y-002501D01*
Y-002511D01*
X004965Y-002525D01*
X004975Y-002535D01*
X004984Y-002540D01*
X004999D01*
X005008Y-002535D01*
X005018Y-002525D01*
X005040Y-002438D02*
Y-002540D01*
Y-002438D02*
X005079Y-002540D01*
X005117Y-002438D02*
X005079Y-002540D01*
X005117Y-002438D02*
Y-002540D01*
X005146Y-002438D02*
Y-002540D01*
Y-002438D02*
X005185Y-002540D01*
X005224Y-002438D02*
X005185Y-002540D01*
X005224Y-002438D02*
Y-002540D01*
X005325Y-002463D02*
X005320Y-002453D01*
X005311Y-002443D01*
X005301Y-002438D01*
X005282D01*
X005272Y-002443D01*
X005262Y-002453D01*
X005257Y-002463D01*
X005253Y-002477D01*
Y-002501D01*
X005257Y-002516D01*
X005262Y-002525D01*
X005272Y-002535D01*
X005282Y-002540D01*
X005301D01*
X005311Y-002535D01*
X005320Y-002525D01*
X005325Y-002516D01*
X005000Y-002288D02*
Y-002390D01*
X005068Y-002288D02*
X005000Y-002356D01*
X005024Y-002332D02*
X005068Y-002390D01*
X005153Y-002288D02*
X005090D01*
Y-002390D01*
X005153D01*
X005090Y-002337D02*
X005129D01*
X005170Y-002288D02*
Y-002390D01*
Y-002288D02*
X005214D01*
X005228Y-002293D01*
X005233Y-002298D01*
X005238Y-002308D01*
Y-002317D01*
X005233Y-002327D01*
X005228Y-002332D01*
X005214Y-002337D01*
X005170D01*
X005204D02*
X005238Y-002390D01*
X005261Y-002288D02*
Y-002390D01*
Y-002288D02*
X005328Y-002390D01*
Y-002288D02*
Y-002390D01*
X005160Y-002888D02*
Y-002990D01*
Y-002888D02*
X005204D01*
X005218Y-002893D01*
X005223Y-002898D01*
X005228Y-002908D01*
Y-002917D01*
X005223Y-002927D01*
X005218Y-002932D01*
X005204Y-002937D01*
X005160D02*
X005204D01*
X005218Y-002942D01*
X005223Y-002946D01*
X005228Y-002956D01*
Y-002971D01*
X005223Y-002980D01*
X005218Y-002985D01*
X005204Y-002990D01*
X005160D01*
X005284Y-002888D02*
Y-002990D01*
X005250Y-002888D02*
X005318D01*
X005100Y-003038D02*
X005124Y-003140D01*
X005148Y-003038D02*
X005124Y-003140D01*
X005148Y-003038D02*
X005173Y-003140D01*
X005197Y-003038D02*
X005173Y-003140D01*
X005217Y-003038D02*
Y-003140D01*
X005238Y-003038D02*
Y-003140D01*
Y-003038D02*
X005301D01*
X005238Y-003087D02*
X005277D01*
X005313Y-003038D02*
Y-003140D01*
X000778Y-001750D02*
X000880D01*
X000870Y-001724D02*
X000875Y-001729D01*
X000880Y-001724D01*
X000875Y-001719D01*
X000870Y-001724D01*
X000778Y-001697D02*
X000880D01*
X000778D02*
Y-001663D01*
X000783Y-001648D01*
X000793Y-001639D01*
X000803Y-001634D01*
X000817Y-001629D01*
X000841D01*
X000856Y-001634D01*
X000865Y-001639D01*
X000875Y-001648D01*
X000880Y-001663D01*
Y-001697D01*
X001383Y-000827D02*
X001373Y-000832D01*
X001363Y-000842D01*
X001358Y-000852D01*
Y-000871D01*
X001363Y-000881D01*
X001373Y-000890D01*
X001383Y-000895D01*
X001397Y-000900D01*
X001421D01*
X001436Y-000895D01*
X001445Y-000890D01*
X001455Y-000881D01*
X001460Y-000871D01*
Y-000852D01*
X001455Y-000842D01*
X001445Y-000832D01*
X001436Y-000827D01*
X001358Y-000799D02*
X001460D01*
X001358Y-000731D02*
X001460D01*
X001407Y-000799D02*
Y-000731D01*
X001383Y-000631D02*
X001373Y-000635D01*
X001363Y-000645D01*
X001358Y-000655D01*
Y-000674D01*
X001363Y-000684D01*
X001373Y-000693D01*
X001383Y-000698D01*
X001397Y-000703D01*
X001421D01*
X001436Y-000698D01*
X001445Y-000693D01*
X001455Y-000684D01*
X001460Y-000674D01*
Y-000655D01*
X001455Y-000645D01*
X001445Y-000635D01*
X001436Y-000631D01*
X001421D01*
Y-000655D02*
Y-000631D01*
X005668Y-001620D02*
Y-001567D01*
X005707Y-001596D01*
Y-001582D01*
X005712Y-001572D01*
X005717Y-001567D01*
X005731Y-001562D01*
X005741D01*
X005755Y-001567D01*
X005765Y-001577D01*
X005770Y-001591D01*
Y-001606D01*
X005765Y-001620D01*
X005760Y-001625D01*
X005751Y-001630D01*
X005668Y-001540D02*
X005770Y-001501D01*
X005668Y-001462D02*
X005770Y-001501D01*
X005668Y-001381D02*
X005770Y-001430D01*
X005668Y-001449D02*
Y-001381D01*
X005828Y-001620D02*
Y-001567D01*
X005867Y-001596D01*
Y-001582D01*
X005872Y-001572D01*
X005877Y-001567D01*
X005891Y-001562D01*
X005901D01*
X005915Y-001567D01*
X005925Y-001577D01*
X005930Y-001591D01*
Y-001606D01*
X005925Y-001620D01*
X005920Y-001625D01*
X005911Y-001630D01*
X005828Y-001540D02*
X005930Y-001501D01*
X005828Y-001462D02*
X005930Y-001501D01*
X005828Y-001439D02*
Y-001386D01*
X005867Y-001415D01*
Y-001401D01*
X005872Y-001391D01*
X005877Y-001386D01*
X005891Y-001381D01*
X005901D01*
X005915Y-001386D01*
X005925Y-001396D01*
X005930Y-001410D01*
Y-001425D01*
X005925Y-001439D01*
X005920Y-001444D01*
X005911Y-001449D01*
X004142Y-003110D02*
X004040D01*
X004142D02*
X004040Y-003149D01*
X004142Y-003187D02*
X004040Y-003149D01*
X004142Y-003187D02*
X004040D01*
X004122Y-003216D02*
X004127Y-003226D01*
X004142Y-003241D01*
X004040D01*
X004332Y-003110D02*
X004230D01*
X004332D02*
X004230Y-003149D01*
X004332Y-003187D02*
X004230Y-003149D01*
X004332Y-003187D02*
X004230D01*
X004307Y-003221D02*
X004312D01*
X004322Y-003226D01*
X004327Y-003231D01*
X004332Y-003241D01*
Y-003260D01*
X004327Y-003270D01*
X004322Y-003274D01*
X004312Y-003279D01*
X004303D01*
X004293Y-003274D01*
X004278Y-003265D01*
X004230Y-003216D01*
Y-003284D01*
X004512Y-003110D02*
X004410D01*
Y-003168D01*
X004492Y-003179D02*
X004497Y-003189D01*
X004512Y-003203D01*
X004410D01*
X004760Y-002948D02*
Y-003050D01*
X004818D01*
X004834Y-002973D02*
Y-002968D01*
X004839Y-002958D01*
X004844Y-002953D01*
X004853Y-002948D01*
X004873D01*
X004882Y-002953D01*
X004887Y-002958D01*
X004892Y-002968D01*
Y-002977D01*
X004887Y-002987D01*
X004878Y-003002D01*
X004829Y-003050D01*
X004897D01*
X000264Y-001323D02*
Y-001410D01*
X000220Y-001366D02*
X000307D01*
X000229Y-001558D02*
Y-001660D01*
Y-001558D02*
X000297Y-001660D01*
Y-001558D02*
Y-001660D01*
X000359Y-001558D02*
Y-001660D01*
X000325Y-001558D02*
X000392D01*
X000477Y-001583D02*
X000472Y-001573D01*
X000463Y-001563D01*
X000453Y-001558D01*
X000434D01*
X000424Y-001563D01*
X000414Y-001573D01*
X000409Y-001583D01*
X000405Y-001597D01*
Y-001621D01*
X000409Y-001636D01*
X000414Y-001645D01*
X000424Y-001655D01*
X000434Y-001660D01*
X000453D01*
X000463Y-001655D01*
X000472Y-001645D01*
X000477Y-001636D01*
X000220Y-001866D02*
X000307D01*
X000230Y-002058D02*
Y-002160D01*
X000256Y-002150D02*
X000251Y-002155D01*
X000256Y-002160D01*
X000261Y-002155D01*
X000256Y-002150D01*
X000283Y-002058D02*
Y-002160D01*
Y-002058D02*
X000317D01*
X000332Y-002063D01*
X000341Y-002073D01*
X000346Y-002083D01*
X000351Y-002097D01*
Y-002121D01*
X000346Y-002136D01*
X000341Y-002145D01*
X000332Y-002155D01*
X000317Y-002160D01*
X000283D01*
D16*
X002599Y-000550D02*
X002701D01*
X002688Y-000436D02*
X002701D01*
Y-000664D02*
Y-000436D01*
X002688Y-000664D02*
X002701D01*
X002599D02*
X002612D01*
X002599D02*
Y-000436D01*
X002612D01*
X005224Y-002122D02*
Y-002109D01*
X004996D02*
X005224D01*
X004996Y-002122D02*
Y-002109D01*
Y-002211D02*
Y-002198D01*
Y-002211D02*
X005224D01*
Y-002198D01*
X005110Y-002211D02*
Y-002109D01*
X005040Y-001810D02*
Y-001790D01*
X004840D02*
X005040D01*
X004840Y-001810D02*
Y-001790D01*
Y-001890D02*
Y-001870D01*
Y-001890D02*
X005040D01*
Y-001870D01*
X005570Y-001960D02*
Y-001940D01*
X005370D02*
X005570D01*
X005370Y-001960D02*
Y-001940D01*
Y-002040D02*
Y-002020D01*
Y-002040D02*
X005570D01*
Y-002020D01*
X005120Y-001940D02*
Y-001910D01*
X004840D02*
X005120D01*
X004840Y-001940D02*
Y-001910D01*
Y-002050D02*
Y-002020D01*
Y-002050D02*
X005120D01*
Y-002020D01*
X004980Y-002050D02*
Y-001910D01*
X004536Y-002151D02*
Y-002138D01*
Y-002151D02*
X004764D01*
Y-002138D01*
Y-002062D02*
Y-002049D01*
X004536D02*
X004764D01*
X004536Y-002062D02*
Y-002049D01*
X004650Y-002151D02*
Y-002049D01*
X004270Y-001890D02*
Y-001870D01*
Y-001890D02*
X004470D01*
Y-001870D01*
Y-001810D02*
Y-001790D01*
X004270D02*
X004470D01*
X004270Y-001810D02*
Y-001790D01*
X003550Y-001130D02*
X003570D01*
Y-001330D02*
Y-001130D01*
X003550Y-001330D02*
X003570D01*
X003470D02*
X003490D01*
X003470D02*
Y-001130D01*
X003490D01*
X002288Y-002684D02*
X002301D01*
Y-002456D01*
X002288D02*
X002301D01*
X002199D02*
X002212D01*
X002199Y-002684D02*
Y-002456D01*
Y-002684D02*
X002212D01*
X002199Y-002570D02*
X002301D01*
X005517Y-002139D02*
Y-002120D01*
X005263D02*
X005517D01*
X005263Y-002139D02*
Y-002120D01*
Y-002260D02*
Y-002241D01*
Y-002260D02*
X005517D01*
Y-002241D01*
X005390Y-002260D02*
Y-002120D01*
X000790Y-000791D02*
Y-000689D01*
X000676Y-000702D02*
Y-000689D01*
X000904D01*
Y-000702D02*
Y-000689D01*
Y-000791D02*
Y-000778D01*
X000676Y-000791D02*
X000904D01*
X000676D02*
Y-000778D01*
X004239Y-004140D02*
X004341D01*
X004328Y-004026D02*
X004341D01*
Y-004254D02*
Y-004026D01*
X004328Y-004254D02*
X004341D01*
X004239D02*
X004252D01*
X004239D02*
Y-004026D01*
X004252D01*
X004239Y-004390D02*
X004341D01*
X004328Y-004276D02*
X004341D01*
Y-004504D02*
Y-004276D01*
X004328Y-004504D02*
X004341D01*
X004239D02*
X004252D01*
X004239D02*
Y-004276D01*
X004252D01*
X004100Y-004501D02*
Y-004399D01*
X003986Y-004412D02*
Y-004399D01*
X004214D01*
Y-004412D02*
Y-004399D01*
Y-004501D02*
Y-004488D01*
X003986Y-004501D02*
X004214D01*
X003986D02*
Y-004488D01*
X004230Y-004631D02*
Y-004529D01*
X004344Y-004631D02*
Y-004618D01*
X004116Y-004631D02*
X004344D01*
X004116D02*
Y-004618D01*
Y-004542D02*
Y-004529D01*
X004344D01*
Y-004542D02*
Y-004529D01*
X005679Y-002130D02*
X005781D01*
X005679Y-002244D02*
X005692D01*
X005679D02*
Y-002016D01*
X005692D01*
X005768D02*
X005781D01*
Y-002244D02*
Y-002016D01*
X005768Y-002244D02*
X005781D01*
X002520Y-002600D02*
X002540D01*
Y-002800D02*
Y-002600D01*
X002520Y-002800D02*
X002540D01*
X002440D02*
X002460D01*
X002440D02*
Y-002600D01*
X002460D01*
X003770Y-004160D02*
Y-004140D01*
Y-004160D02*
X003970D01*
Y-004140D01*
Y-004080D02*
Y-004060D01*
X003770D02*
X003970D01*
X003770Y-004080D02*
Y-004060D01*
X004290Y-003500D02*
X004310D01*
X004290Y-003700D02*
Y-003500D01*
Y-003700D02*
X004310D01*
X004370D02*
X004390D01*
Y-003500D01*
X004370D02*
X004390D01*
X003550Y-000910D02*
X003570D01*
Y-001110D02*
Y-000910D01*
X003550Y-001110D02*
X003570D01*
X003470D02*
X003490D01*
X003470D02*
Y-000910D01*
X003490D01*
X002400Y-001200D02*
Y-001170D01*
X002120D02*
X002400D01*
X002120Y-001200D02*
Y-001170D01*
Y-001310D02*
Y-001280D01*
Y-001310D02*
X002400D01*
Y-001280D01*
X002260Y-001310D02*
Y-001170D01*
X001950Y-001220D02*
X001970D01*
Y-001020D01*
X001950D02*
X001970D01*
X001870D02*
X001890D01*
X001870Y-001220D02*
Y-001020D01*
Y-001220D02*
X001890D01*
X002080D02*
X002100D01*
Y-001020D01*
X002080D02*
X002100D01*
X002000D02*
X002020D01*
X002000Y-001220D02*
Y-001020D01*
Y-001220D02*
X002020D01*
X002000Y-000800D02*
X002020D01*
X002000Y-001000D02*
Y-000800D01*
Y-001000D02*
X002020D01*
X002080D02*
X002100D01*
Y-000800D01*
X002080D02*
X002100D01*
X002110Y-000650D02*
Y-000630D01*
Y-000650D02*
X002310D01*
Y-000630D01*
Y-000570D02*
Y-000550D01*
X002110D02*
X002310D01*
X002110Y-000570D02*
Y-000550D01*
X002530Y-000570D02*
Y-000550D01*
X002330D02*
X002530D01*
X002330Y-000570D02*
Y-000550D01*
Y-000650D02*
Y-000630D01*
Y-000650D02*
X002530D01*
Y-000630D01*
X001940Y-001000D02*
X001970D01*
Y-000720D01*
X001940D02*
X001970D01*
X001830D02*
X001860D01*
X001830Y-001000D02*
Y-000720D01*
Y-001000D02*
X001860D01*
X001830Y-000860D02*
X001970D01*
X001340Y-000190D02*
X001375D01*
X001445D02*
X001480D01*
X001461Y-000342D02*
X001480D01*
Y-000040D01*
X001435Y-000050D02*
X001480D01*
X001340D02*
X001385D01*
X001340Y-000342D02*
Y-000040D01*
Y-000342D02*
X001359D01*
X001480Y-000050D02*
Y-000038D01*
X001435D02*
X001480D01*
X001435Y-000050D02*
Y-000038D01*
X001340Y-000050D02*
Y-000038D01*
X001385D01*
Y-000050D02*
Y-000038D01*
X005765Y-001840D02*
X005800D01*
X005705Y-001700D02*
Y-001688D01*
X005660D02*
X005705D01*
X005660Y-001700D02*
Y-001688D01*
X005755Y-001700D02*
Y-001688D01*
X005800D01*
Y-001700D02*
Y-001688D01*
X005660Y-001840D02*
X005695D01*
X005660Y-001992D02*
X005679D01*
X005660D02*
Y-001690D01*
Y-001700D02*
X005705D01*
X005755D02*
X005800D01*
Y-001992D02*
Y-001700D01*
X005781Y-001992D02*
X005800D01*
X005810Y-001840D02*
X005845D01*
X005915D02*
X005950D01*
X005855Y-001700D02*
Y-001688D01*
X005810D02*
X005855D01*
X005810Y-001700D02*
Y-001688D01*
X005905Y-001700D02*
Y-001688D01*
X005950D01*
Y-001700D02*
Y-001688D01*
X005810Y-001992D02*
X005829D01*
X005810D02*
Y-001690D01*
Y-001700D02*
X005855D01*
X005905D02*
X005950D01*
Y-001992D02*
Y-001690D01*
X005931Y-001992D02*
X005950D01*
X005778Y-002305D02*
Y-002270D01*
Y-002410D02*
Y-002375D01*
X005917Y-002315D02*
X005930D01*
Y-002270D01*
X005917D02*
X005930D01*
X005917Y-002365D02*
X005930D01*
Y-002410D02*
Y-002365D01*
X005917Y-002410D02*
X005930D01*
X005625Y-002289D02*
Y-002270D01*
X005928D01*
X005917Y-002315D02*
Y-002270D01*
Y-002410D02*
Y-002365D01*
X005625Y-002410D02*
X005928D01*
X005625D02*
Y-002391D01*
X005778Y-002455D02*
Y-002420D01*
Y-002560D02*
Y-002525D01*
X005917Y-002465D02*
X005930D01*
Y-002420D01*
X005917D02*
X005930D01*
X005917Y-002515D02*
X005930D01*
Y-002560D02*
Y-002515D01*
X005917Y-002560D02*
X005930D01*
X005625Y-002439D02*
Y-002420D01*
X005928D01*
X005917Y-002465D02*
Y-002420D01*
Y-002560D02*
Y-002515D01*
X005625Y-002560D02*
X005928D01*
X005625D02*
Y-002541D01*
X005778Y-002605D02*
Y-002570D01*
Y-002710D02*
Y-002675D01*
X005917Y-002615D02*
X005930D01*
Y-002570D01*
X005917D02*
X005930D01*
X005917Y-002665D02*
X005930D01*
Y-002710D02*
Y-002665D01*
X005917Y-002710D02*
X005930D01*
X005625Y-002589D02*
Y-002570D01*
X005928D01*
X005917Y-002615D02*
Y-002570D01*
Y-002710D02*
Y-002665D01*
X005625Y-002710D02*
X005928D01*
X005625D02*
Y-002691D01*
X005778Y-002755D02*
Y-002720D01*
Y-002860D02*
Y-002825D01*
X005917Y-002765D02*
X005930D01*
Y-002720D01*
X005917D02*
X005930D01*
X005917Y-002815D02*
X005930D01*
Y-002860D02*
Y-002815D01*
X005917Y-002860D02*
X005930D01*
X005625Y-002739D02*
Y-002720D01*
X005928D01*
X005917Y-002765D02*
Y-002720D01*
Y-002860D02*
Y-002815D01*
X005625Y-002860D02*
X005928D01*
X005625D02*
Y-002841D01*
X005778Y-003160D02*
Y-003125D01*
X005917Y-003065D02*
X005930D01*
Y-003020D01*
X005917D02*
X005930D01*
X005917Y-003115D02*
X005930D01*
Y-003160D02*
Y-003115D01*
X005917Y-003160D02*
X005930D01*
X005778Y-003055D02*
Y-003020D01*
X005625Y-003039D02*
Y-003020D01*
X005928D01*
X005917Y-003065D02*
Y-003020D01*
Y-003160D02*
Y-003115D01*
X005625Y-003160D02*
X005917D01*
X005625D02*
Y-003141D01*
X005778Y-002905D02*
Y-002870D01*
Y-003010D02*
Y-002975D01*
X005625Y-003010D02*
Y-002991D01*
Y-003010D02*
X005928D01*
X005917D02*
Y-002965D01*
Y-002915D02*
Y-002870D01*
X005625D02*
X005928D01*
X005625Y-002889D02*
Y-002870D01*
X005917Y-003010D02*
X005930D01*
Y-002965D01*
X005917D02*
X005930D01*
X005917Y-002870D02*
X005930D01*
Y-002915D02*
Y-002870D01*
X005917Y-002915D02*
X005930D01*
X001660Y-000705D02*
X001695D01*
X001765D02*
X001800D01*
X001705Y-000565D02*
Y-000553D01*
X001660D02*
X001705D01*
X001660Y-000565D02*
Y-000553D01*
X001755Y-000565D02*
Y-000553D01*
X001800D01*
Y-000565D02*
Y-000553D01*
X001660Y-000857D02*
X001679D01*
X001660D02*
Y-000555D01*
Y-000565D02*
X001705D01*
X001755D02*
X001800D01*
Y-000857D02*
Y-000555D01*
X001781Y-000857D02*
X001800D01*
X001359Y-000366D02*
X001372D01*
X001359Y-000594D02*
Y-000366D01*
Y-000594D02*
X001372D01*
X001448D02*
X001461D01*
Y-000366D01*
X001448D02*
X001461D01*
X001359Y-000480D02*
X001461D01*
X005918Y-002244D02*
X005931D01*
Y-002016D01*
X005918D02*
X005931D01*
X005829D02*
X005842D01*
X005829Y-002244D02*
Y-002016D01*
Y-002244D02*
X005842D01*
X005829Y-002130D02*
X005931D01*
X003986Y-004381D02*
Y-004368D01*
Y-004381D02*
X004214D01*
Y-004368D01*
Y-004292D02*
Y-004279D01*
X003986D02*
X004214D01*
X003986Y-004292D02*
Y-004279D01*
X004100Y-004381D02*
Y-004279D01*
X005592Y-002302D02*
Y-002289D01*
X005363D02*
X005592D01*
X005363Y-002302D02*
Y-002289D01*
Y-002391D02*
Y-002378D01*
Y-002391D02*
X005592D01*
Y-002378D01*
X005478Y-002391D02*
Y-002289D01*
X005592Y-002452D02*
Y-002439D01*
X005363D02*
X005592D01*
X005363Y-002452D02*
Y-002439D01*
Y-002541D02*
Y-002528D01*
Y-002541D02*
X005592D01*
Y-002528D01*
X005478Y-002541D02*
Y-002439D01*
X005592Y-002602D02*
Y-002589D01*
X005363D02*
X005592D01*
X005363Y-002602D02*
Y-002589D01*
Y-002691D02*
Y-002678D01*
Y-002691D02*
X005592D01*
Y-002678D01*
X005478Y-002691D02*
Y-002589D01*
X005592Y-002752D02*
Y-002739D01*
X005363D02*
X005592D01*
X005363Y-002752D02*
Y-002739D01*
Y-002841D02*
Y-002828D01*
Y-002841D02*
X005592D01*
Y-002828D01*
X005478Y-002841D02*
Y-002739D01*
X005594Y-003052D02*
Y-003039D01*
X005366D02*
X005594D01*
X005366Y-003052D02*
Y-003039D01*
Y-003141D02*
Y-003128D01*
Y-003141D02*
X005594D01*
Y-003128D01*
X005480Y-003141D02*
Y-003039D01*
X005594Y-002902D02*
Y-002889D01*
X005366D02*
X005594D01*
X005366Y-002902D02*
Y-002889D01*
Y-002991D02*
Y-002978D01*
Y-002991D02*
X005594D01*
Y-002978D01*
X005480Y-002991D02*
Y-002889D01*
X001794Y-000902D02*
Y-000889D01*
X001566D02*
X001794D01*
X001566Y-000902D02*
Y-000889D01*
Y-000991D02*
Y-000978D01*
Y-000991D02*
X001794D01*
Y-000978D01*
X001680Y-000991D02*
Y-000889D01*
X002076Y-000781D02*
Y-000768D01*
Y-000781D02*
X002304D01*
Y-000768D01*
Y-000692D02*
Y-000679D01*
X002076D02*
X002304D01*
X002076Y-000692D02*
Y-000679D01*
X002190Y-000781D02*
Y-000679D01*
X002564Y-000692D02*
Y-000679D01*
X002336D02*
X002564D01*
X002336Y-000692D02*
Y-000679D01*
Y-000781D02*
Y-000768D01*
Y-000781D02*
X002564D01*
Y-000768D01*
X002450Y-000781D02*
Y-000679D01*
X000549Y-000556D02*
X000562D01*
X000549Y-000784D02*
Y-000556D01*
Y-000784D02*
X000562D01*
X000638D02*
X000651D01*
Y-000556D01*
X000638D02*
X000651D01*
X000549Y-000670D02*
X000651D01*
X004010Y-002690D02*
X004030D01*
X004010Y-002890D02*
Y-002690D01*
Y-002890D02*
X004030D01*
X004090D02*
X004110D01*
Y-002690D01*
X004090D02*
X004110D01*
X003924Y-002042D02*
Y-002029D01*
X003696D02*
X003924D01*
X003696Y-002042D02*
Y-002029D01*
Y-002131D02*
Y-002118D01*
Y-002131D02*
X003924D01*
Y-002118D01*
X003810Y-002131D02*
Y-002029D01*
X003900Y-000433D02*
X003919D01*
X003900Y-000687D02*
Y-000433D01*
Y-000687D02*
X003919D01*
X004021D02*
X004040D01*
Y-000433D01*
X004021D02*
X004040D01*
X003900Y-000560D02*
X004040D01*
X001880Y-004891D02*
Y-004789D01*
X001994Y-004891D02*
Y-004878D01*
X001766Y-004891D02*
X001994D01*
X001766D02*
Y-004878D01*
Y-004802D02*
Y-004789D01*
X001994D01*
Y-004802D02*
Y-004789D01*
X002124Y-004672D02*
Y-004659D01*
X001896D02*
X002124D01*
X001896Y-004672D02*
Y-004659D01*
Y-004761D02*
Y-004748D01*
Y-004761D02*
X002124D01*
Y-004748D01*
X002010Y-004761D02*
Y-004659D01*
X001769Y-004650D02*
X001871D01*
X001769Y-004764D02*
X001782D01*
X001769D02*
Y-004536D01*
X001782D01*
X001858D02*
X001871D01*
Y-004764D02*
Y-004536D01*
X001858Y-004764D02*
X001871D01*
X002010Y-004641D02*
Y-004539D01*
X002124Y-004641D02*
Y-004628D01*
X001896Y-004641D02*
X002124D01*
X001896D02*
Y-004628D01*
Y-004552D02*
Y-004539D01*
X002124D01*
Y-004552D02*
Y-004539D01*
X001880Y-004511D02*
Y-004409D01*
X001766Y-004422D02*
Y-004409D01*
X001994D01*
Y-004422D02*
Y-004409D01*
Y-004511D02*
Y-004498D01*
X001766Y-004511D02*
X001994D01*
X001766D02*
Y-004498D01*
X002430Y-003980D02*
X002450D01*
X002430D02*
Y-003780D01*
X002450D01*
X002510D02*
X002530D01*
Y-003980D02*
Y-003780D01*
X002510Y-003980D02*
X002530D01*
D17*
X003175Y-001240D02*
X003200D01*
X003175D02*
Y-001215D01*
Y-000965D02*
Y-000940D01*
X003200D01*
X003400Y-001240D02*
X003425D01*
Y-001215D01*
X003400Y-000940D02*
X003425D01*
Y-000965D02*
Y-000940D01*
X000480Y-001910D02*
X001000D01*
X001080Y-002310D02*
Y-002060D01*
X000970Y-002310D02*
X001080D01*
X000400D02*
Y-002060D01*
Y-002310D02*
X000510D01*
X000460Y-001880D02*
Y-001800D01*
X001020D01*
Y-001880D02*
Y-001800D01*
X000243Y-004297D02*
Y-004022D01*
X000056D02*
X000243D01*
X000056Y-004297D02*
X000243D01*
X000056D02*
Y-004022D01*
X005757Y-004295D02*
Y-004020D01*
Y-004295D02*
X005944D01*
X005757Y-004020D02*
X005944D01*
Y-004295D02*
Y-004020D01*
X004233Y-003672D02*
Y-003612D01*
X004033Y-003672D02*
Y-003612D01*
X004112Y-003512D02*
X004153D01*
X004112Y-003772D02*
X004153D01*
D18*
X004020Y-003070D02*
Y-002930D01*
X004160D01*
Y-003070D02*
Y-002930D01*
X004020Y-003070D02*
X004160D01*
X004590D02*
Y-002930D01*
X004730D01*
Y-003070D02*
Y-002930D01*
X004590Y-003070D02*
X004730D01*
X004210D02*
Y-002930D01*
X004350D01*
Y-003070D02*
Y-002930D01*
X004210Y-003070D02*
X004350D01*
X004400Y-002930D02*
X004540D01*
Y-003070D02*
Y-002930D01*
X004400Y-003070D02*
X004540D01*
X004400D02*
Y-002930D01*
M02*
