G04*
G04 #@! TF.GenerationSoftware,Altium Limited,Altium Designer,19.0.15 (446)*
G04*
G04 Layer_Physical_Order=2*
G04 Layer_Color=36540*
%FSAX42Y42*%
%MOMM*%
G71*
G01*
G75*
%ADD115O,1.15X0.65*%
%ADD117O,1.00X1.60*%
%ADD118O,1.00X2.56*%
%ADD119O,0.90X1.60*%
%ADD121C,0.46*%
G36*
X005730Y-000040D02*
X005730Y-000044D01*
X005706Y-000064D01*
X005685Y-000089D01*
X005670Y-000118D01*
X005660Y-000149D01*
X005657Y-000181D01*
X005660Y-000213D01*
X005670Y-000244D01*
X005685Y-000273D01*
X005706Y-000298D01*
X005731Y-000319D01*
X005760Y-000334D01*
X005791Y-000344D01*
X005823Y-000347D01*
X005855Y-000344D01*
X005886Y-000334D01*
X005915Y-000319D01*
X005940Y-000298D01*
X005956Y-000279D01*
X005969Y-000283D01*
Y-002293D01*
X005958Y-002299D01*
X005956Y-002299D01*
X005940Y-002296D01*
X005923Y-002299D01*
X005909Y-002309D01*
X005899Y-002323D01*
X005896Y-002340D01*
X005899Y-002357D01*
X005909Y-002371D01*
X005923Y-002381D01*
X005940Y-002384D01*
X005956Y-002381D01*
X005958Y-002381D01*
X005969Y-002387D01*
Y-002443D01*
X005958Y-002449D01*
X005956Y-002449D01*
X005940Y-002446D01*
X005923Y-002449D01*
X005909Y-002459D01*
X005899Y-002473D01*
X005896Y-002490D01*
X005899Y-002507D01*
X005909Y-002521D01*
X005923Y-002531D01*
X005940Y-002534D01*
X005956Y-002531D01*
X005958Y-002531D01*
X005969Y-002537D01*
Y-002593D01*
X005958Y-002599D01*
X005956Y-002599D01*
X005940Y-002596D01*
X005923Y-002599D01*
X005909Y-002609D01*
X005899Y-002623D01*
X005896Y-002640D01*
X005899Y-002657D01*
X005909Y-002671D01*
X005923Y-002681D01*
X005940Y-002684D01*
X005956Y-002681D01*
X005958Y-002681D01*
X005969Y-002687D01*
Y-002743D01*
X005958Y-002749D01*
X005956Y-002749D01*
X005940Y-002746D01*
X005923Y-002749D01*
X005909Y-002759D01*
X005899Y-002773D01*
X005896Y-002790D01*
X005899Y-002807D01*
X005909Y-002821D01*
X005923Y-002831D01*
X005940Y-002834D01*
X005956Y-002831D01*
X005958Y-002831D01*
X005969Y-002837D01*
Y-002893D01*
X005958Y-002899D01*
X005956Y-002899D01*
X005940Y-002896D01*
X005923Y-002899D01*
X005909Y-002909D01*
X005899Y-002923D01*
X005896Y-002940D01*
X005899Y-002957D01*
X005909Y-002971D01*
X005923Y-002981D01*
X005940Y-002984D01*
X005956Y-002981D01*
X005958Y-002981D01*
X005969Y-002987D01*
Y-003043D01*
X005958Y-003049D01*
X005956Y-003049D01*
X005940Y-003046D01*
X005923Y-003049D01*
X005909Y-003059D01*
X005899Y-003073D01*
X005896Y-003090D01*
X005899Y-003107D01*
X005909Y-003121D01*
X005923Y-003131D01*
X005940Y-003134D01*
X005956Y-003131D01*
X005958Y-003131D01*
X005969Y-003137D01*
Y-005079D01*
X005631D01*
Y-005012D01*
X005631Y-005012D01*
X005644Y-005009D01*
X005654Y-005022D01*
X005669Y-005034D01*
X005688Y-005041D01*
X005695Y-005042D01*
Y-004890D01*
Y-004738D01*
X005688Y-004739D01*
X005669Y-004746D01*
X005654Y-004758D01*
X005644Y-004771D01*
X005631Y-004768D01*
X005631Y-004768D01*
Y-004626D01*
X005631Y-004626D01*
X005644Y-004623D01*
X005654Y-004636D01*
X005669Y-004648D01*
X005688Y-004655D01*
X005695Y-004656D01*
Y-004517D01*
X005631D01*
Y-004550D01*
X005630Y-004552D01*
X005619Y-004556D01*
X005612Y-004551D01*
X005600Y-004549D01*
X005404D01*
X005398Y-004538D01*
X005400Y-004535D01*
X005404Y-004514D01*
X005400Y-004496D01*
X005405Y-004487D01*
X005407Y-004484D01*
Y-004437D01*
X005338D01*
X005340Y-004447D01*
X005343Y-004451D01*
X005338Y-004462D01*
X005329Y-004464D01*
X005320Y-004471D01*
X005310Y-004475D01*
X005300Y-004471D01*
X005291Y-004464D01*
X005283Y-004463D01*
X005277Y-004449D01*
X005280Y-004445D01*
X005284Y-004424D01*
X005280Y-004403D01*
X005268Y-004386D01*
X005251Y-004374D01*
X005230Y-004370D01*
X005209Y-004374D01*
X005192Y-004386D01*
X005191Y-004387D01*
X005179D01*
X005178Y-004386D01*
X005161Y-004374D01*
X005140Y-004370D01*
X005119Y-004374D01*
X005102Y-004386D01*
X005098D01*
X005081Y-004374D01*
X005060Y-004370D01*
X005039Y-004374D01*
X005022Y-004386D01*
X005021Y-004387D01*
X005009D01*
X005008Y-004386D01*
X004991Y-004374D01*
X004970Y-004370D01*
X004949Y-004374D01*
X004932Y-004386D01*
X004920Y-004403D01*
X004916Y-004424D01*
X004920Y-004445D01*
X004923Y-004449D01*
X004917Y-004463D01*
X004909Y-004464D01*
X004900Y-004471D01*
X004890Y-004475D01*
X004880Y-004471D01*
X004871Y-004464D01*
X004862Y-004462D01*
X004857Y-004451D01*
X004860Y-004447D01*
X004862Y-004437D01*
X004793D01*
Y-004484D01*
X004795Y-004487D01*
X004800Y-004496D01*
X004796Y-004514D01*
X004800Y-004535D01*
X004802Y-004538D01*
X004796Y-004549D01*
X004600D01*
X004588Y-004551D01*
X004581Y-004556D01*
X004570Y-004552D01*
X004569Y-004550D01*
Y-004517D01*
X004505D01*
Y-004656D01*
X004512Y-004655D01*
X004531Y-004648D01*
X004546Y-004636D01*
X004556Y-004623D01*
X004569Y-004626D01*
X004569Y-004626D01*
Y-004758D01*
X004569Y-004758D01*
X004556Y-004761D01*
X004546Y-004748D01*
X004531Y-004736D01*
X004512Y-004729D01*
X004505Y-004728D01*
Y-004880D01*
Y-005032D01*
X004512Y-005031D01*
X004531Y-005024D01*
X004546Y-005012D01*
X004556Y-004999D01*
X004569Y-005002D01*
X004569Y-005002D01*
Y-005079D01*
X001431D01*
Y-005012D01*
X001431Y-005012D01*
X001444Y-005009D01*
X001454Y-005022D01*
X001469Y-005034D01*
X001488Y-005041D01*
X001495Y-005042D01*
Y-004890D01*
Y-004738D01*
X001488Y-004739D01*
X001469Y-004746D01*
X001454Y-004758D01*
X001444Y-004771D01*
X001431Y-004768D01*
X001431Y-004768D01*
Y-004626D01*
X001431Y-004626D01*
X001444Y-004623D01*
X001454Y-004636D01*
X001469Y-004648D01*
X001488Y-004655D01*
X001495Y-004656D01*
Y-004517D01*
X001431D01*
Y-004550D01*
X001430Y-004552D01*
X001419Y-004556D01*
X001412Y-004551D01*
X001400Y-004549D01*
X001204D01*
X001198Y-004538D01*
X001200Y-004535D01*
X001204Y-004514D01*
X001200Y-004496D01*
X001205Y-004487D01*
X001207Y-004484D01*
Y-004437D01*
X001138D01*
X001140Y-004447D01*
X001143Y-004451D01*
X001138Y-004462D01*
X001129Y-004464D01*
X001112Y-004476D01*
X001108D01*
X001091Y-004464D01*
X001083Y-004463D01*
X001077Y-004449D01*
X001080Y-004445D01*
X001084Y-004424D01*
X001080Y-004403D01*
X001068Y-004386D01*
X001051Y-004374D01*
X001030Y-004370D01*
X001009Y-004374D01*
X000992Y-004386D01*
X000991Y-004387D01*
X000979D01*
X000978Y-004386D01*
X000961Y-004374D01*
X000940Y-004370D01*
X000919Y-004374D01*
X000902Y-004386D01*
X000898D01*
X000881Y-004374D01*
X000860Y-004370D01*
X000839Y-004374D01*
X000822Y-004386D01*
X000821Y-004387D01*
X000809D01*
X000808Y-004386D01*
X000791Y-004374D01*
X000770Y-004370D01*
X000749Y-004374D01*
X000732Y-004386D01*
X000720Y-004403D01*
X000716Y-004424D01*
X000720Y-004445D01*
X000723Y-004449D01*
X000717Y-004463D01*
X000709Y-004464D01*
X000700Y-004471D01*
X000690Y-004475D01*
X000680Y-004471D01*
X000671Y-004464D01*
X000662Y-004462D01*
X000657Y-004451D01*
X000660Y-004447D01*
X000662Y-004437D01*
X000593D01*
Y-004484D01*
X000595Y-004487D01*
X000600Y-004496D01*
X000596Y-004514D01*
X000600Y-004535D01*
X000602Y-004538D01*
X000596Y-004549D01*
X000400D01*
X000388Y-004551D01*
X000381Y-004556D01*
X000370Y-004552D01*
X000369Y-004550D01*
Y-004517D01*
X000305D01*
Y-004656D01*
X000312Y-004655D01*
X000331Y-004648D01*
X000346Y-004636D01*
X000356Y-004623D01*
X000369Y-004626D01*
X000369Y-004626D01*
Y-004758D01*
X000369Y-004758D01*
X000356Y-004761D01*
X000346Y-004748D01*
X000331Y-004736D01*
X000312Y-004729D01*
X000305Y-004728D01*
Y-004880D01*
Y-005032D01*
X000312Y-005031D01*
X000331Y-005024D01*
X000346Y-005012D01*
X000356Y-004999D01*
X000369Y-005002D01*
X000369Y-005002D01*
Y-005079D01*
X000031D01*
Y-002260D01*
X000029Y-002248D01*
X000022Y-002238D01*
X000012Y-002231D01*
X-000000Y-002229D01*
X-000379D01*
Y-002211D01*
X-000366Y-002204D01*
X-000357Y-002211D01*
X-000340Y-002214D01*
X-000323Y-002211D01*
X-000310Y-002202D01*
X-000297Y-002211D01*
X-000280Y-002214D01*
X-000263Y-002211D01*
X-000250Y-002202D01*
X-000237Y-002211D01*
X-000220Y-002214D01*
X-000203Y-002211D01*
X-000190Y-002202D01*
X-000177Y-002211D01*
X-000160Y-002214D01*
X-000143Y-002211D01*
X-000130Y-002202D01*
X-000117Y-002211D01*
X-000100Y-002214D01*
X-000083Y-002211D01*
X-000070Y-002202D01*
X-000057Y-002211D01*
X-000040Y-002214D01*
X-000023Y-002211D01*
X-000010Y-002202D01*
X000003Y-002211D01*
X000020Y-002214D01*
X000037Y-002211D01*
X000051Y-002201D01*
X000061Y-002187D01*
X000064Y-002170D01*
X000061Y-002153D01*
X000052Y-002140D01*
X000061Y-002127D01*
X000064Y-002110D01*
X000061Y-002093D01*
X000052Y-002080D01*
X000061Y-002067D01*
X000064Y-002050D01*
X000061Y-002033D01*
X000051Y-002019D01*
X000037Y-002009D01*
X000020Y-002006D01*
X000003Y-002009D01*
X-000010Y-002018D01*
X-000023Y-002009D01*
X-000040Y-002006D01*
X-000057Y-002009D01*
X-000070Y-002018D01*
X-000083Y-002009D01*
X-000100Y-002006D01*
X-000117Y-002009D01*
X-000130Y-002018D01*
X-000143Y-002009D01*
X-000160Y-002006D01*
X-000177Y-002009D01*
X-000190Y-002018D01*
X-000203Y-002009D01*
X-000220Y-002006D01*
X-000237Y-002009D01*
X-000250Y-002018D01*
X-000263Y-002009D01*
X-000280Y-002006D01*
X-000297Y-002009D01*
X-000310Y-002018D01*
X-000323Y-002009D01*
X-000340Y-002006D01*
X-000357Y-002009D01*
X-000366Y-002016D01*
X-000379Y-002009D01*
Y-001711D01*
X-000366Y-001704D01*
X-000357Y-001711D01*
X-000340Y-001714D01*
X-000323Y-001711D01*
X-000310Y-001702D01*
X-000297Y-001711D01*
X-000280Y-001714D01*
X-000263Y-001711D01*
X-000250Y-001702D01*
X-000237Y-001711D01*
X-000220Y-001714D01*
X-000203Y-001711D01*
X-000190Y-001702D01*
X-000177Y-001711D01*
X-000160Y-001714D01*
X-000143Y-001711D01*
X-000130Y-001702D01*
X-000117Y-001711D01*
X-000100Y-001714D01*
X-000083Y-001711D01*
X-000070Y-001702D01*
X-000057Y-001711D01*
X-000040Y-001714D01*
X-000023Y-001711D01*
X-000010Y-001702D01*
X000003Y-001711D01*
X000020Y-001714D01*
X000037Y-001711D01*
X000051Y-001701D01*
X000061Y-001687D01*
X000064Y-001670D01*
X000061Y-001653D01*
X000052Y-001640D01*
X000061Y-001627D01*
X000064Y-001610D01*
X000061Y-001593D01*
X000052Y-001580D01*
X000061Y-001567D01*
X000064Y-001550D01*
X000061Y-001533D01*
X000051Y-001519D01*
X000037Y-001509D01*
X000020Y-001506D01*
X000003Y-001509D01*
X-000010Y-001518D01*
X-000023Y-001509D01*
X-000040Y-001506D01*
X-000057Y-001509D01*
X-000070Y-001518D01*
X-000083Y-001509D01*
X-000100Y-001506D01*
X-000117Y-001509D01*
X-000130Y-001518D01*
X-000143Y-001509D01*
X-000160Y-001506D01*
X-000177Y-001509D01*
X-000190Y-001518D01*
X-000203Y-001509D01*
X-000220Y-001506D01*
X-000237Y-001509D01*
X-000250Y-001518D01*
X-000263Y-001509D01*
X-000280Y-001506D01*
X-000297Y-001509D01*
X-000310Y-001518D01*
X-000323Y-001509D01*
X-000340Y-001506D01*
X-000357Y-001509D01*
X-000366Y-001516D01*
X-000379Y-001509D01*
Y-001461D01*
X-000366Y-001454D01*
X-000357Y-001461D01*
X-000340Y-001464D01*
X-000323Y-001461D01*
X-000310Y-001452D01*
X-000297Y-001461D01*
X-000280Y-001464D01*
X-000263Y-001461D01*
X-000250Y-001452D01*
X-000237Y-001461D01*
X-000220Y-001464D01*
X-000203Y-001461D01*
X-000190Y-001452D01*
X-000177Y-001461D01*
X-000160Y-001464D01*
X-000143Y-001461D01*
X-000130Y-001452D01*
X-000117Y-001461D01*
X-000100Y-001464D01*
X-000083Y-001461D01*
X-000070Y-001452D01*
X-000057Y-001461D01*
X-000040Y-001464D01*
X-000023Y-001461D01*
X-000010Y-001452D01*
X000003Y-001461D01*
X000020Y-001464D01*
X000037Y-001461D01*
X000051Y-001451D01*
X000061Y-001437D01*
X000064Y-001420D01*
X000061Y-001403D01*
X000052Y-001390D01*
X000061Y-001377D01*
X000064Y-001360D01*
X000061Y-001343D01*
X000052Y-001330D01*
X000061Y-001317D01*
X000064Y-001300D01*
X000061Y-001283D01*
X000051Y-001269D01*
X000037Y-001259D01*
X000020Y-001256D01*
X000003Y-001259D01*
X-000010Y-001268D01*
X-000023Y-001259D01*
X-000040Y-001256D01*
X-000057Y-001259D01*
X-000070Y-001268D01*
X-000083Y-001259D01*
X-000100Y-001256D01*
X-000117Y-001259D01*
X-000130Y-001268D01*
X-000143Y-001259D01*
X-000160Y-001256D01*
X-000177Y-001259D01*
X-000190Y-001268D01*
X-000203Y-001259D01*
X-000220Y-001256D01*
X-000237Y-001259D01*
X-000250Y-001268D01*
X-000263Y-001259D01*
X-000280Y-001256D01*
X-000297Y-001259D01*
X-000310Y-001268D01*
X-000323Y-001259D01*
X-000340Y-001256D01*
X-000357Y-001259D01*
X-000366Y-001266D01*
X-000379Y-001259D01*
Y-001241D01*
X-000000D01*
X000012Y-001239D01*
X000022Y-001232D01*
X000029Y-001222D01*
X000031Y-001210D01*
Y-000031D01*
X000469D01*
X000475Y-000044D01*
X000469Y-000052D01*
X000461Y-000069D01*
X000459Y-000088D01*
Y-000110D01*
X000530D01*
X000601D01*
Y-000088D01*
X000599Y-000069D01*
X000591Y-000052D01*
X000585Y-000044D01*
X000591Y-000031D01*
X001129D01*
X001135Y-000044D01*
X001129Y-000052D01*
X001121Y-000069D01*
X001119Y-000088D01*
Y-000110D01*
X001190D01*
X001261D01*
Y-000088D01*
X001259Y-000069D01*
X001251Y-000052D01*
X001245Y-000044D01*
X001251Y-000031D01*
X001571D01*
X001577Y-000044D01*
X001569Y-000054D01*
X001561Y-000072D01*
X001559Y-000090D01*
Y-000112D01*
X001630D01*
X001701D01*
Y-000090D01*
X001699Y-000072D01*
X001691Y-000054D01*
X001683Y-000044D01*
X001689Y-000031D01*
X002231D01*
X002237Y-000044D01*
X002229Y-000054D01*
X002221Y-000072D01*
X002219Y-000090D01*
Y-000112D01*
X002290D01*
X002361D01*
Y-000090D01*
X002359Y-000072D01*
X002351Y-000054D01*
X002343Y-000044D01*
X002349Y-000031D01*
X005728D01*
X005730Y-000040D01*
D02*
G37*
%LPC*%
G36*
X001261Y-000135D02*
X001203D01*
Y-000227D01*
X001208Y-000226D01*
X001226Y-000219D01*
X001240Y-000208D01*
X001251Y-000193D01*
X001259Y-000176D01*
X001261Y-000158D01*
Y-000135D01*
D02*
G37*
G36*
X000601Y-000135D02*
X000543D01*
Y-000227D01*
X000548Y-000226D01*
X000566Y-000219D01*
X000580Y-000208D01*
X000591Y-000193D01*
X000599Y-000176D01*
X000601Y-000158D01*
Y-000135D01*
D02*
G37*
G36*
X000517D02*
X000459D01*
Y-000158D01*
X000461Y-000176D01*
X000469Y-000193D01*
X000480Y-000208D01*
X000494Y-000219D01*
X000512Y-000226D01*
X000517Y-000227D01*
Y-000135D01*
D02*
G37*
G36*
X001177Y-000135D02*
X001119D01*
Y-000158D01*
X001121Y-000176D01*
X001129Y-000193D01*
X001140Y-000208D01*
X001154Y-000219D01*
X001172Y-000226D01*
X001177Y-000227D01*
Y-000135D01*
D02*
G37*
G36*
X002361Y-000138D02*
X002303D01*
Y-000229D01*
X002308Y-000229D01*
X002326Y-000221D01*
X002340Y-000210D01*
X002351Y-000196D01*
X002359Y-000178D01*
X002361Y-000160D01*
Y-000138D01*
D02*
G37*
G36*
X001701Y-000138D02*
X001643D01*
Y-000229D01*
X001648Y-000229D01*
X001666Y-000221D01*
X001680Y-000210D01*
X001691Y-000196D01*
X001699Y-000178D01*
X001701Y-000160D01*
Y-000138D01*
D02*
G37*
G36*
X001617D02*
X001559D01*
Y-000160D01*
X001561Y-000178D01*
X001569Y-000196D01*
X001580Y-000210D01*
X001594Y-000221D01*
X001612Y-000229D01*
X001617Y-000229D01*
Y-000138D01*
D02*
G37*
G36*
X002277Y-000138D02*
X002219D01*
Y-000160D01*
X002221Y-000178D01*
X002229Y-000196D01*
X002240Y-000210D01*
X002254Y-000221D01*
X002272Y-000229D01*
X002277Y-000229D01*
Y-000138D01*
D02*
G37*
G36*
X004250Y-000236D02*
X004233Y-000239D01*
X004219Y-000249D01*
X004216Y-000253D01*
X004204D01*
X004201Y-000249D01*
X004187Y-000239D01*
X004170Y-000236D01*
X004153Y-000239D01*
X004139Y-000249D01*
X004129Y-000263D01*
X004126Y-000280D01*
X004129Y-000297D01*
X004139Y-000311D01*
X004153Y-000321D01*
X004170Y-000324D01*
X004187Y-000321D01*
X004201Y-000311D01*
X004204Y-000307D01*
X004216D01*
X004219Y-000311D01*
X004233Y-000321D01*
X004250Y-000324D01*
X004267Y-000321D01*
X004281Y-000311D01*
X004291Y-000297D01*
X004294Y-000280D01*
X004291Y-000263D01*
X004281Y-000249D01*
X004267Y-000239D01*
X004250Y-000236D01*
D02*
G37*
G36*
X002930Y-000216D02*
X002913Y-000219D01*
X002899Y-000229D01*
X002889Y-000243D01*
X002887Y-000257D01*
X002880Y-000256D01*
X002863Y-000259D01*
X002850Y-000268D01*
X002837Y-000259D01*
X002820Y-000256D01*
X002813Y-000257D01*
X002811Y-000243D01*
X002801Y-000229D01*
X002787Y-000219D01*
X002770Y-000216D01*
X002753Y-000219D01*
X002739Y-000229D01*
X002729Y-000243D01*
X002726Y-000260D01*
X002729Y-000277D01*
X002739Y-000291D01*
X002753Y-000301D01*
X002770Y-000304D01*
X002777Y-000303D01*
X002779Y-000317D01*
X002789Y-000331D01*
X002803Y-000341D01*
X002820Y-000344D01*
X002837Y-000341D01*
X002850Y-000332D01*
X002863Y-000341D01*
X002880Y-000344D01*
X002897Y-000341D01*
X002911Y-000331D01*
X002921Y-000317D01*
X002923Y-000303D01*
X002930Y-000304D01*
X002947Y-000301D01*
X002961Y-000291D01*
X002971Y-000277D01*
X002974Y-000260D01*
X002971Y-000243D01*
X002961Y-000229D01*
X002947Y-000219D01*
X002930Y-000216D01*
D02*
G37*
G36*
X000990Y-000246D02*
X000973Y-000249D01*
X000959Y-000259D01*
X000949Y-000273D01*
X000946Y-000290D01*
X000949Y-000307D01*
X000959Y-000321D01*
X000973Y-000331D01*
X000990Y-000334D01*
X001007Y-000331D01*
X001021Y-000321D01*
X001031Y-000307D01*
X001034Y-000290D01*
X001031Y-000273D01*
X001021Y-000259D01*
X001007Y-000249D01*
X000990Y-000246D01*
D02*
G37*
G36*
X001050Y-000326D02*
X001033Y-000329D01*
X001019Y-000339D01*
X001009Y-000353D01*
X001006Y-000370D01*
X001009Y-000387D01*
X001019Y-000401D01*
X001033Y-000411D01*
X001050Y-000414D01*
X001067Y-000411D01*
X001081Y-000401D01*
X001091Y-000387D01*
X001094Y-000370D01*
X001091Y-000353D01*
X001081Y-000339D01*
X001067Y-000329D01*
X001050Y-000326D01*
D02*
G37*
G36*
X000860Y-000446D02*
X000843Y-000449D01*
X000829Y-000459D01*
X000826Y-000464D01*
X000812Y-000454D01*
X000795Y-000451D01*
X000778Y-000454D01*
X000764Y-000464D01*
X000754Y-000478D01*
X000751Y-000495D01*
X000754Y-000512D01*
X000764Y-000526D01*
X000778Y-000536D01*
X000795Y-000539D01*
X000812Y-000536D01*
X000826Y-000526D01*
X000829Y-000521D01*
X000843Y-000531D01*
X000860Y-000534D01*
X000877Y-000531D01*
X000891Y-000521D01*
X000894Y-000526D01*
X000908Y-000536D01*
X000925Y-000539D01*
X000942Y-000536D01*
X000956Y-000526D01*
X000966Y-000512D01*
X000969Y-000495D01*
X000966Y-000478D01*
X000956Y-000464D01*
X000942Y-000454D01*
X000925Y-000451D01*
X000908Y-000454D01*
X000894Y-000464D01*
X000891Y-000459D01*
X000877Y-000449D01*
X000860Y-000446D01*
D02*
G37*
G36*
X004250Y-000456D02*
X004233Y-000459D01*
X004219Y-000469D01*
X004216Y-000473D01*
X004204D01*
X004201Y-000469D01*
X004187Y-000459D01*
X004170Y-000456D01*
X004153Y-000459D01*
X004139Y-000469D01*
X004136Y-000473D01*
X004124D01*
X004121Y-000469D01*
X004107Y-000459D01*
X004090Y-000456D01*
X004073Y-000459D01*
X004059Y-000469D01*
X004049Y-000483D01*
X004046Y-000500D01*
X004049Y-000517D01*
X004059Y-000531D01*
X004073Y-000541D01*
X004090Y-000544D01*
X004107Y-000541D01*
X004121Y-000531D01*
X004124Y-000527D01*
X004136D01*
X004139Y-000531D01*
X004153Y-000541D01*
X004170Y-000544D01*
X004187Y-000541D01*
X004201Y-000531D01*
X004204Y-000527D01*
X004216D01*
X004219Y-000531D01*
X004233Y-000541D01*
X004250Y-000544D01*
X004267Y-000541D01*
X004281Y-000531D01*
X004291Y-000517D01*
X004294Y-000500D01*
X004291Y-000483D01*
X004281Y-000469D01*
X004267Y-000459D01*
X004250Y-000456D01*
D02*
G37*
G36*
X003510Y-000466D02*
X003493Y-000469D01*
X003479Y-000479D01*
X003476Y-000483D01*
X003464D01*
X003461Y-000479D01*
X003447Y-000469D01*
X003430Y-000466D01*
X003413Y-000469D01*
X003399Y-000479D01*
X003389Y-000493D01*
X003386Y-000510D01*
X003389Y-000527D01*
X003399Y-000541D01*
X003413Y-000551D01*
X003430Y-000554D01*
X003447Y-000551D01*
X003461Y-000541D01*
X003464Y-000537D01*
X003476D01*
X003479Y-000541D01*
X003493Y-000551D01*
X003510Y-000554D01*
X003527Y-000551D01*
X003541Y-000541D01*
X003551Y-000527D01*
X003554Y-000510D01*
X003551Y-000493D01*
X003541Y-000479D01*
X003527Y-000469D01*
X003510Y-000466D01*
D02*
G37*
G36*
X001320Y-000396D02*
X001303Y-000399D01*
X001289Y-000409D01*
X001279Y-000423D01*
X001276Y-000440D01*
X001279Y-000457D01*
X001289Y-000471D01*
X001303Y-000481D01*
X001320Y-000484D01*
X001337Y-000481D01*
X001351Y-000471D01*
X001361Y-000457D01*
X001364Y-000440D01*
X001361Y-000423D01*
X001351Y-000409D01*
X001337Y-000399D01*
X001320Y-000396D01*
D02*
G37*
G36*
X001060Y-000436D02*
X001043Y-000439D01*
X001029Y-000449D01*
X001019Y-000463D01*
X001016Y-000480D01*
X001019Y-000497D01*
X001029Y-000511D01*
X001043Y-000521D01*
X001060Y-000524D01*
X001077Y-000521D01*
X001091Y-000511D01*
X001101Y-000497D01*
X001104Y-000480D01*
X001101Y-000463D01*
X001091Y-000449D01*
X001077Y-000439D01*
X001060Y-000436D01*
D02*
G37*
G36*
X001160Y-000446D02*
X001143Y-000449D01*
X001129Y-000459D01*
X001119Y-000473D01*
X001116Y-000490D01*
X001119Y-000507D01*
X001129Y-000521D01*
X001143Y-000531D01*
X001160Y-000534D01*
X001177Y-000531D01*
X001191Y-000521D01*
X001201Y-000507D01*
X001204Y-000490D01*
X001201Y-000473D01*
X001191Y-000459D01*
X001177Y-000449D01*
X001160Y-000446D01*
D02*
G37*
G36*
X003870Y-000456D02*
X003853Y-000459D01*
X003839Y-000469D01*
X003829Y-000483D01*
X003826Y-000500D01*
X003829Y-000517D01*
X003839Y-000531D01*
X003853Y-000541D01*
X003870Y-000544D01*
X003887Y-000541D01*
X003901Y-000531D01*
X003911Y-000517D01*
X003914Y-000500D01*
X003911Y-000483D01*
X003901Y-000469D01*
X003887Y-000459D01*
X003870Y-000456D01*
D02*
G37*
G36*
X002530Y-000456D02*
X002513Y-000459D01*
X002499Y-000469D01*
X002489Y-000483D01*
X002486Y-000500D01*
X002489Y-000517D01*
X002499Y-000531D01*
X002513Y-000541D01*
X002530Y-000544D01*
X002547Y-000541D01*
X002561Y-000531D01*
X002571Y-000517D01*
X002574Y-000500D01*
X002571Y-000483D01*
X002561Y-000469D01*
X002547Y-000459D01*
X002530Y-000456D01*
D02*
G37*
G36*
X002970Y-000556D02*
X002953Y-000559D01*
X002939Y-000569D01*
X002929Y-000583D01*
X002926Y-000600D01*
X002929Y-000617D01*
X002939Y-000631D01*
X002953Y-000641D01*
X002970Y-000644D01*
X002974Y-000643D01*
X002986Y-000650D01*
X002989Y-000667D01*
X002990Y-000668D01*
X002986Y-000684D01*
X002979Y-000689D01*
X002969Y-000703D01*
X002966Y-000720D01*
X002969Y-000737D01*
X002979Y-000751D01*
X002993Y-000761D01*
X003010Y-000764D01*
X003027Y-000761D01*
X003041Y-000751D01*
X003051Y-000737D01*
X003054Y-000720D01*
X003051Y-000703D01*
X003050Y-000702D01*
X003054Y-000686D01*
X003061Y-000681D01*
X003071Y-000667D01*
X003074Y-000650D01*
X003071Y-000633D01*
X003061Y-000619D01*
X003047Y-000609D01*
X003030Y-000606D01*
X003026Y-000607D01*
X003014Y-000600D01*
X003011Y-000583D01*
X003001Y-000569D01*
X002987Y-000559D01*
X002970Y-000556D01*
D02*
G37*
G36*
X002700Y-000736D02*
X002683Y-000739D01*
X002669Y-000749D01*
X002659Y-000763D01*
X002656Y-000780D01*
X002659Y-000797D01*
X002669Y-000811D01*
X002683Y-000821D01*
X002700Y-000824D01*
X002717Y-000821D01*
X002731Y-000811D01*
X002741Y-000797D01*
X002744Y-000780D01*
X002741Y-000763D01*
X002731Y-000749D01*
X002717Y-000739D01*
X002700Y-000736D01*
D02*
G37*
G36*
X002550Y-000856D02*
X002533Y-000859D01*
X002519Y-000869D01*
X002509Y-000883D01*
X002506Y-000900D01*
X002509Y-000917D01*
X002519Y-000931D01*
X002533Y-000941D01*
X002550Y-000944D01*
X002567Y-000941D01*
X002581Y-000931D01*
X002591Y-000917D01*
X002594Y-000900D01*
X002591Y-000883D01*
X002581Y-000869D01*
X002567Y-000859D01*
X002550Y-000856D01*
D02*
G37*
G36*
X003600Y-000926D02*
X003583Y-000929D01*
X003569Y-000939D01*
X003559Y-000953D01*
X003556Y-000970D01*
X003559Y-000987D01*
X003569Y-001001D01*
X003583Y-001011D01*
X003600Y-001014D01*
X003617Y-001011D01*
X003631Y-001001D01*
X003641Y-000987D01*
X003644Y-000970D01*
X003641Y-000953D01*
X003631Y-000939D01*
X003617Y-000929D01*
X003600Y-000926D01*
D02*
G37*
G36*
X000450Y-001006D02*
X000433Y-001009D01*
X000419Y-001019D01*
X000409Y-001033D01*
X000406Y-001050D01*
X000409Y-001067D01*
X000419Y-001081D01*
X000433Y-001091D01*
X000450Y-001094D01*
X000467Y-001091D01*
X000481Y-001081D01*
X000491Y-001067D01*
X000494Y-001050D01*
X000491Y-001033D01*
X000481Y-001019D01*
X000467Y-001009D01*
X000450Y-001006D01*
D02*
G37*
G36*
X002810Y-001046D02*
X002793Y-001049D01*
X002779Y-001059D01*
X002769Y-001073D01*
X002766Y-001090D01*
X002769Y-001107D01*
X002779Y-001121D01*
X002793Y-001131D01*
X002810Y-001134D01*
X002827Y-001131D01*
X002841Y-001121D01*
X002851Y-001107D01*
X002854Y-001090D01*
X002851Y-001073D01*
X002841Y-001059D01*
X002827Y-001049D01*
X002810Y-001046D01*
D02*
G37*
G36*
X002540D02*
X002523Y-001049D01*
X002509Y-001059D01*
X002499Y-001073D01*
X002496Y-001090D01*
X002499Y-001107D01*
X002509Y-001121D01*
X002523Y-001131D01*
X002540Y-001134D01*
X002557Y-001131D01*
X002571Y-001121D01*
X002581Y-001107D01*
X002584Y-001090D01*
X002581Y-001073D01*
X002571Y-001059D01*
X002557Y-001049D01*
X002540Y-001046D01*
D02*
G37*
G36*
X001360D02*
X001343Y-001049D01*
X001329Y-001059D01*
X001319Y-001073D01*
X001316Y-001090D01*
X001319Y-001107D01*
X001329Y-001121D01*
X001343Y-001131D01*
X001360Y-001134D01*
X001377Y-001131D01*
X001391Y-001121D01*
X001401Y-001107D01*
X001404Y-001090D01*
X001401Y-001073D01*
X001391Y-001059D01*
X001377Y-001049D01*
X001360Y-001046D01*
D02*
G37*
G36*
X002730Y-001116D02*
X002713Y-001119D01*
X002699Y-001129D01*
X002689Y-001143D01*
X002686Y-001160D01*
X002689Y-001177D01*
X002699Y-001191D01*
X002713Y-001201D01*
X002730Y-001204D01*
X002747Y-001201D01*
X002761Y-001191D01*
X002771Y-001177D01*
X002774Y-001160D01*
X002771Y-001143D01*
X002761Y-001129D01*
X002747Y-001119D01*
X002730Y-001116D01*
D02*
G37*
G36*
X003130Y-001046D02*
X003113Y-001049D01*
X003099Y-001059D01*
X003089Y-001073D01*
X003086Y-001090D01*
X003089Y-001107D01*
X003099Y-001121D01*
Y-001129D01*
X003089Y-001143D01*
X003086Y-001160D01*
X003089Y-001177D01*
X003099Y-001191D01*
X003113Y-001201D01*
X003120Y-001202D01*
X003130Y-001216D01*
X003130Y-001216D01*
X003133Y-001233D01*
X003143Y-001247D01*
X003157Y-001257D01*
X003174Y-001260D01*
X003191Y-001257D01*
X003205Y-001247D01*
X003214Y-001233D01*
X003218Y-001216D01*
X003214Y-001199D01*
X003205Y-001185D01*
X003191Y-001176D01*
X003184Y-001174D01*
X003174Y-001160D01*
X003174Y-001160D01*
X003171Y-001143D01*
X003161Y-001129D01*
Y-001121D01*
X003171Y-001107D01*
X003174Y-001090D01*
X003171Y-001073D01*
X003161Y-001059D01*
X003147Y-001049D01*
X003130Y-001046D01*
D02*
G37*
G36*
X002850Y-001176D02*
X002833Y-001179D01*
X002819Y-001189D01*
X002809Y-001203D01*
X002806Y-001220D01*
X002809Y-001237D01*
X002819Y-001251D01*
X002833Y-001261D01*
X002850Y-001264D01*
X002867Y-001261D01*
X002881Y-001251D01*
X002891Y-001237D01*
X002894Y-001220D01*
X002891Y-001203D01*
X002881Y-001189D01*
X002867Y-001179D01*
X002850Y-001176D01*
D02*
G37*
G36*
X003890Y-001306D02*
X003873Y-001309D01*
X003859Y-001319D01*
X003849Y-001333D01*
X003846Y-001350D01*
X003849Y-001367D01*
X003859Y-001381D01*
X003873Y-001391D01*
X003890Y-001394D01*
X003907Y-001391D01*
X003921Y-001381D01*
X003931Y-001367D01*
X003934Y-001350D01*
X003931Y-001333D01*
X003921Y-001319D01*
X003907Y-001309D01*
X003890Y-001306D01*
D02*
G37*
G36*
X003200Y-001386D02*
X003183Y-001389D01*
X003169Y-001399D01*
X003159Y-001413D01*
X003158Y-001421D01*
X003147Y-001429D01*
X003144Y-001429D01*
X003130Y-001426D01*
X003113Y-001429D01*
X003099Y-001439D01*
X003089Y-001453D01*
X003086Y-001470D01*
X003089Y-001487D01*
X003099Y-001501D01*
X003113Y-001511D01*
X003130Y-001514D01*
X003147Y-001511D01*
X003161Y-001501D01*
X003171Y-001487D01*
X003172Y-001479D01*
X003183Y-001471D01*
X003186Y-001471D01*
X003200Y-001474D01*
X003217Y-001471D01*
X003231Y-001461D01*
X003241Y-001447D01*
X003244Y-001430D01*
X003241Y-001413D01*
X003231Y-001399D01*
X003217Y-001389D01*
X003200Y-001386D01*
D02*
G37*
G36*
X001487Y-001369D02*
X001470Y-001372D01*
X001456Y-001382D01*
X001446Y-001396D01*
X001443Y-001413D01*
X001446Y-001430D01*
X001456Y-001444D01*
X001470Y-001454D01*
X001487Y-001457D01*
X001504Y-001454D01*
X001518Y-001444D01*
X001528Y-001430D01*
X001531Y-001413D01*
X001528Y-001396D01*
X001518Y-001382D01*
X001504Y-001372D01*
X001487Y-001369D01*
D02*
G37*
G36*
X001106Y-001372D02*
X001089Y-001375D01*
X001075Y-001385D01*
X001065Y-001399D01*
X001062Y-001416D01*
X001065Y-001433D01*
X001075Y-001447D01*
X001089Y-001457D01*
X001106Y-001460D01*
X001123Y-001457D01*
X001137Y-001447D01*
X001147Y-001433D01*
X001150Y-001416D01*
X001147Y-001399D01*
X001137Y-001385D01*
X001123Y-001375D01*
X001106Y-001372D01*
D02*
G37*
G36*
X003200Y-001506D02*
X003183Y-001509D01*
X003169Y-001519D01*
X003159Y-001533D01*
X003158Y-001541D01*
X003147Y-001549D01*
X003144Y-001549D01*
X003130Y-001546D01*
X003113Y-001549D01*
X003099Y-001559D01*
X003089Y-001573D01*
X003086Y-001590D01*
X003089Y-001607D01*
X003099Y-001621D01*
X003103Y-001624D01*
Y-001636D01*
X003099Y-001639D01*
X003089Y-001653D01*
X003086Y-001670D01*
X003089Y-001687D01*
X003099Y-001701D01*
X003113Y-001711D01*
X003130Y-001714D01*
X003147Y-001711D01*
X003161Y-001701D01*
X003171Y-001687D01*
X003174Y-001670D01*
X003171Y-001653D01*
X003161Y-001639D01*
X003157Y-001636D01*
Y-001624D01*
X003161Y-001621D01*
X003171Y-001607D01*
X003172Y-001599D01*
X003183Y-001591D01*
X003186Y-001591D01*
X003200Y-001594D01*
X003217Y-001591D01*
X003231Y-001581D01*
X003241Y-001567D01*
X003244Y-001550D01*
X003241Y-001533D01*
X003231Y-001519D01*
X003217Y-001509D01*
X003200Y-001506D01*
D02*
G37*
G36*
X002630Y-001386D02*
X002613Y-001389D01*
X002599Y-001399D01*
X002589Y-001413D01*
X002586Y-001430D01*
X002589Y-001447D01*
X002599Y-001461D01*
X002613Y-001471D01*
X002630Y-001474D01*
X002644Y-001471D01*
X002647Y-001471D01*
X002658Y-001479D01*
X002659Y-001487D01*
X002669Y-001501D01*
X002673Y-001504D01*
Y-001516D01*
X002669Y-001519D01*
X002659Y-001533D01*
X002656Y-001550D01*
X002659Y-001567D01*
X002669Y-001581D01*
X002683Y-001591D01*
X002700Y-001594D01*
X002717Y-001591D01*
X002731Y-001581D01*
X002741Y-001567D01*
X002744Y-001550D01*
X002741Y-001533D01*
X002731Y-001519D01*
X002727Y-001516D01*
Y-001504D01*
X002731Y-001501D01*
X002741Y-001487D01*
X002744Y-001470D01*
X002741Y-001453D01*
X002731Y-001439D01*
X002717Y-001429D01*
X002700Y-001426D01*
X002686Y-001429D01*
X002683Y-001429D01*
X002672Y-001421D01*
X002671Y-001413D01*
X002661Y-001399D01*
X002647Y-001389D01*
X002630Y-001386D01*
D02*
G37*
G36*
X001980Y-001546D02*
X001963Y-001549D01*
X001949Y-001559D01*
X001939Y-001573D01*
X001936Y-001590D01*
X001939Y-001607D01*
X001949Y-001621D01*
X001963Y-001631D01*
X001980Y-001634D01*
X001997Y-001631D01*
X002011Y-001621D01*
X002021Y-001607D01*
X002024Y-001590D01*
X002021Y-001573D01*
X002011Y-001559D01*
X001997Y-001549D01*
X001980Y-001546D01*
D02*
G37*
G36*
X002050Y-001626D02*
X002033Y-001629D01*
X002019Y-001639D01*
X002009Y-001653D01*
X002006Y-001670D01*
X002009Y-001687D01*
X002019Y-001701D01*
X002033Y-001711D01*
X002050Y-001714D01*
X002067Y-001711D01*
X002081Y-001701D01*
X002091Y-001687D01*
X002094Y-001670D01*
X002091Y-001653D01*
X002081Y-001639D01*
X002067Y-001629D01*
X002050Y-001626D01*
D02*
G37*
G36*
X002630Y-001666D02*
X002613Y-001669D01*
X002599Y-001679D01*
X002589Y-001693D01*
X002586Y-001710D01*
X002589Y-001727D01*
X002599Y-001741D01*
X002613Y-001751D01*
X002630Y-001754D01*
X002647Y-001751D01*
X002661Y-001741D01*
X002671Y-001727D01*
X002674Y-001710D01*
X002671Y-001693D01*
X002661Y-001679D01*
X002647Y-001669D01*
X002630Y-001666D01*
D02*
G37*
G36*
X004430Y-001726D02*
X004413Y-001729D01*
X004399Y-001739D01*
X004389Y-001753D01*
X004386Y-001770D01*
X004389Y-001787D01*
X004399Y-001801D01*
X004413Y-001811D01*
X004430Y-001814D01*
X004447Y-001811D01*
X004461Y-001801D01*
X004471Y-001787D01*
X004474Y-001770D01*
X004471Y-001753D01*
X004461Y-001739D01*
X004447Y-001729D01*
X004430Y-001726D01*
D02*
G37*
G36*
X003750Y-001766D02*
X003733Y-001769D01*
X003719Y-001779D01*
X003709Y-001793D01*
X003706Y-001810D01*
X003709Y-001827D01*
X003719Y-001841D01*
X003733Y-001851D01*
X003750Y-001854D01*
X003767Y-001851D01*
X003781Y-001841D01*
X003791Y-001827D01*
X003794Y-001810D01*
X003791Y-001793D01*
X003781Y-001779D01*
X003767Y-001769D01*
X003750Y-001766D01*
D02*
G37*
G36*
X001910Y-001786D02*
X001893Y-001789D01*
X001879Y-001799D01*
X001869Y-001813D01*
X001866Y-001830D01*
X001869Y-001847D01*
X001879Y-001861D01*
X001893Y-001871D01*
X001910Y-001874D01*
X001927Y-001871D01*
X001941Y-001861D01*
X001951Y-001847D01*
X001954Y-001830D01*
X001951Y-001813D01*
X001941Y-001799D01*
X001927Y-001789D01*
X001910Y-001786D01*
D02*
G37*
G36*
X004730Y-001766D02*
X004713Y-001769D01*
X004699Y-001779D01*
X004689Y-001793D01*
X004686Y-001810D01*
X004689Y-001827D01*
X004699Y-001841D01*
X004713Y-001851D01*
X004730Y-001854D01*
X004737Y-001853D01*
X004739Y-001867D01*
X004749Y-001881D01*
X004763Y-001891D01*
X004780Y-001894D01*
X004797Y-001891D01*
X004811Y-001881D01*
X004821Y-001867D01*
X004824Y-001850D01*
X004821Y-001833D01*
X004811Y-001819D01*
X004797Y-001809D01*
X004780Y-001806D01*
X004773Y-001807D01*
X004771Y-001793D01*
X004761Y-001779D01*
X004747Y-001769D01*
X004730Y-001766D01*
D02*
G37*
G36*
X003820Y-001886D02*
X003803Y-001889D01*
X003789Y-001899D01*
X003779Y-001913D01*
X003776Y-001930D01*
X003778Y-001942D01*
X003767Y-001949D01*
X003767Y-001949D01*
X003750Y-001946D01*
X003733Y-001949D01*
X003719Y-001959D01*
X003709Y-001973D01*
X003706Y-001990D01*
X003709Y-002007D01*
X003719Y-002021D01*
X003733Y-002031D01*
X003750Y-002034D01*
X003767Y-002031D01*
X003781Y-002021D01*
X003791Y-002007D01*
X003794Y-001990D01*
X003792Y-001978D01*
X003803Y-001971D01*
X003803Y-001971D01*
X003820Y-001974D01*
X003827Y-001986D01*
X003826Y-001990D01*
X003829Y-002007D01*
X003839Y-002021D01*
X003853Y-002031D01*
X003870Y-002034D01*
X003887Y-002031D01*
X003901Y-002021D01*
X003911Y-002007D01*
X003914Y-001990D01*
X003911Y-001973D01*
X003901Y-001959D01*
X003887Y-001949D01*
X003870Y-001946D01*
X003863Y-001934D01*
X003864Y-001930D01*
X003861Y-001913D01*
X003851Y-001899D01*
X003837Y-001889D01*
X003820Y-001886D01*
D02*
G37*
G36*
X005370Y-001788D02*
X005353Y-001792D01*
X005339Y-001801D01*
X005329Y-001816D01*
X005326Y-001833D01*
X005329Y-001849D01*
X005339Y-001864D01*
X005341Y-001865D01*
Y-001878D01*
X005339Y-001879D01*
X005329Y-001893D01*
X005326Y-001910D01*
X005329Y-001927D01*
X005339Y-001941D01*
X005353Y-001951D01*
X005370Y-001954D01*
X005387Y-001951D01*
X005401Y-001941D01*
X005411Y-001927D01*
X005414Y-001910D01*
X005411Y-001893D01*
X005401Y-001879D01*
X005399Y-001878D01*
Y-001865D01*
X005401Y-001864D01*
X005411Y-001849D01*
X005414Y-001833D01*
X005411Y-001816D01*
X005401Y-001801D01*
X005387Y-001792D01*
X005370Y-001788D01*
D02*
G37*
G36*
X002340Y-001866D02*
X002323Y-001869D01*
X002309Y-001879D01*
X002299Y-001893D01*
X002296Y-001910D01*
X002299Y-001927D01*
X002309Y-001941D01*
X002323Y-001951D01*
X002340Y-001954D01*
X002357Y-001951D01*
X002371Y-001941D01*
X002381Y-001927D01*
X002384Y-001910D01*
X002381Y-001893D01*
X002371Y-001879D01*
X002357Y-001869D01*
X002340Y-001866D01*
D02*
G37*
G36*
X002630Y-001946D02*
X002613Y-001949D01*
X002599Y-001959D01*
X002589Y-001973D01*
X002586Y-001990D01*
X002589Y-002007D01*
X002599Y-002021D01*
X002613Y-002031D01*
X002630Y-002034D01*
X002647Y-002031D01*
X002661Y-002021D01*
X002671Y-002007D01*
X002674Y-001990D01*
X002671Y-001973D01*
X002661Y-001959D01*
X002647Y-001949D01*
X002630Y-001946D01*
D02*
G37*
G36*
X005260Y-002036D02*
X005243Y-002039D01*
X005229Y-002049D01*
X005226Y-002053D01*
X005214D01*
X005211Y-002049D01*
X005197Y-002039D01*
X005180Y-002036D01*
X005163Y-002039D01*
X005149Y-002049D01*
X005139Y-002063D01*
X005136Y-002080D01*
X005139Y-002097D01*
X005149Y-002111D01*
X005163Y-002121D01*
X005180Y-002124D01*
X005197Y-002121D01*
X005211Y-002111D01*
X005214Y-002107D01*
X005226D01*
X005229Y-002111D01*
X005243Y-002121D01*
X005260Y-002124D01*
X005277Y-002121D01*
X005291Y-002111D01*
X005301Y-002097D01*
X005304Y-002080D01*
X005301Y-002063D01*
X005291Y-002049D01*
X005277Y-002039D01*
X005260Y-002036D01*
D02*
G37*
G36*
X001470Y-002016D02*
X001453Y-002019D01*
X001439Y-002029D01*
X001429Y-002043D01*
X001426Y-002057D01*
X001414D01*
X001411Y-002043D01*
X001401Y-002029D01*
X001387Y-002019D01*
X001370Y-002016D01*
X001353Y-002019D01*
X001339Y-002029D01*
X001329Y-002043D01*
X001326Y-002060D01*
X001329Y-002077D01*
X001339Y-002091D01*
X001353Y-002101D01*
X001370Y-002104D01*
X001387Y-002101D01*
X001401Y-002091D01*
X001411Y-002077D01*
X001414Y-002063D01*
X001426D01*
X001429Y-002077D01*
X001439Y-002091D01*
X001453Y-002101D01*
X001470Y-002104D01*
X001487Y-002101D01*
X001501Y-002091D01*
X001511Y-002077D01*
X001514Y-002060D01*
X001511Y-002043D01*
X001501Y-002029D01*
X001487Y-002019D01*
X001470Y-002016D01*
D02*
G37*
G36*
X001220D02*
X001203Y-002019D01*
X001189Y-002029D01*
X001179Y-002043D01*
X001176Y-002057D01*
X001164D01*
X001161Y-002043D01*
X001151Y-002029D01*
X001137Y-002019D01*
X001120Y-002016D01*
X001103Y-002019D01*
X001089Y-002029D01*
X001079Y-002043D01*
X001076Y-002060D01*
X001079Y-002077D01*
X001089Y-002091D01*
X001103Y-002101D01*
X001120Y-002104D01*
X001137Y-002101D01*
X001151Y-002091D01*
X001161Y-002077D01*
X001164Y-002063D01*
X001176D01*
X001179Y-002077D01*
X001189Y-002091D01*
X001203Y-002101D01*
X001220Y-002104D01*
X001237Y-002101D01*
X001251Y-002091D01*
X001261Y-002077D01*
X001264Y-002060D01*
X001261Y-002043D01*
X001251Y-002029D01*
X001237Y-002019D01*
X001220Y-002016D01*
D02*
G37*
G36*
X004912Y-002013D02*
X004896Y-002017D01*
X004881Y-002026D01*
X004872Y-002041D01*
X004868Y-002058D01*
X004872Y-002074D01*
X004881Y-002089D01*
X004896Y-002098D01*
X004912Y-002102D01*
X004929Y-002098D01*
X004944Y-002089D01*
X004953Y-002074D01*
X004957Y-002058D01*
X004953Y-002041D01*
X004944Y-002026D01*
X004929Y-002017D01*
X004912Y-002013D01*
D02*
G37*
G36*
X005426Y-002022D02*
X005409Y-002025D01*
X005395Y-002035D01*
X005385Y-002049D01*
X005382Y-002066D01*
X005385Y-002083D01*
X005395Y-002097D01*
X005409Y-002107D01*
X005426Y-002110D01*
X005443Y-002107D01*
X005457Y-002097D01*
X005467Y-002083D01*
X005470Y-002066D01*
X005467Y-002049D01*
X005457Y-002035D01*
X005443Y-002025D01*
X005426Y-002022D01*
D02*
G37*
G36*
X005822Y-002143D02*
X005806Y-002147D01*
X005791Y-002156D01*
X005782Y-002171D01*
X005778Y-002188D01*
X005782Y-002204D01*
X005791Y-002219D01*
X005806Y-002228D01*
X005822Y-002232D01*
X005839Y-002228D01*
X005854Y-002219D01*
X005863Y-002204D01*
X005867Y-002188D01*
X005863Y-002171D01*
X005854Y-002156D01*
X005839Y-002147D01*
X005822Y-002143D01*
D02*
G37*
G36*
X003270Y-002146D02*
X003253Y-002149D01*
X003239Y-002159D01*
X003229Y-002173D01*
X003226Y-002190D01*
X003229Y-002207D01*
X003239Y-002221D01*
X003253Y-002231D01*
X003270Y-002234D01*
X003287Y-002231D01*
X003301Y-002221D01*
X003311Y-002207D01*
X003314Y-002190D01*
X003311Y-002173D01*
X003301Y-002159D01*
X003287Y-002149D01*
X003270Y-002146D01*
D02*
G37*
G36*
X003110D02*
X003093Y-002149D01*
X003079Y-002159D01*
X003069Y-002173D01*
X003066Y-002190D01*
X003069Y-002207D01*
X003079Y-002221D01*
X003093Y-002231D01*
X003110Y-002234D01*
X003127Y-002231D01*
X003141Y-002221D01*
X003151Y-002207D01*
X003154Y-002190D01*
X003151Y-002173D01*
X003141Y-002159D01*
X003127Y-002149D01*
X003110Y-002146D01*
D02*
G37*
G36*
X004710Y-002166D02*
X004693Y-002169D01*
X004679Y-002179D01*
X004669Y-002193D01*
X004666Y-002210D01*
X004669Y-002227D01*
X004679Y-002241D01*
X004693Y-002251D01*
X004710Y-002254D01*
X004727Y-002251D01*
X004741Y-002241D01*
X004751Y-002227D01*
X004754Y-002210D01*
X004751Y-002193D01*
X004741Y-002179D01*
X004727Y-002169D01*
X004710Y-002166D01*
D02*
G37*
G36*
X000920Y-002176D02*
X000903Y-002179D01*
X000889Y-002189D01*
X000879Y-002203D01*
X000876Y-002220D01*
X000879Y-002237D01*
X000889Y-002251D01*
X000903Y-002261D01*
X000920Y-002264D01*
X000937Y-002261D01*
X000951Y-002251D01*
X000961Y-002237D01*
X000964Y-002220D01*
X000961Y-002203D01*
X000951Y-002189D01*
X000937Y-002179D01*
X000920Y-002176D01*
D02*
G37*
G36*
X005050Y-002196D02*
X005033Y-002199D01*
X005019Y-002209D01*
X005009Y-002223D01*
X005006Y-002240D01*
X005009Y-002257D01*
X005019Y-002271D01*
X005033Y-002281D01*
X005050Y-002284D01*
X005067Y-002281D01*
X005081Y-002271D01*
X005091Y-002257D01*
X005094Y-002240D01*
X005091Y-002223D01*
X005081Y-002209D01*
X005067Y-002199D01*
X005050Y-002196D01*
D02*
G37*
G36*
X004250Y-002416D02*
X004233Y-002419D01*
X004219Y-002429D01*
X004216Y-002433D01*
X004204D01*
X004201Y-002429D01*
X004187Y-002419D01*
X004170Y-002416D01*
X004153Y-002419D01*
X004139Y-002429D01*
X004136Y-002433D01*
X004124D01*
X004121Y-002429D01*
X004107Y-002419D01*
X004090Y-002416D01*
X004073Y-002419D01*
X004064Y-002425D01*
X004055Y-002428D01*
X004046Y-002425D01*
X004037Y-002419D01*
X004020Y-002416D01*
X004003Y-002419D01*
X003989Y-002429D01*
X003979Y-002443D01*
X003976Y-002460D01*
X003979Y-002477D01*
X003989Y-002491D01*
X004003Y-002501D01*
X004020Y-002504D01*
X004037Y-002501D01*
X004051Y-002491D01*
X004059D01*
X004073Y-002501D01*
X004090Y-002504D01*
X004107Y-002501D01*
X004121Y-002491D01*
X004124Y-002487D01*
X004136D01*
X004139Y-002491D01*
X004153Y-002501D01*
X004170Y-002504D01*
X004187Y-002501D01*
X004201Y-002491D01*
X004204Y-002487D01*
X004216D01*
X004219Y-002491D01*
X004233Y-002501D01*
X004250Y-002504D01*
X004267Y-002501D01*
X004281Y-002491D01*
X004291Y-002477D01*
X004294Y-002460D01*
X004291Y-002443D01*
X004281Y-002429D01*
X004267Y-002419D01*
X004250Y-002416D01*
D02*
G37*
G36*
X000920Y-002356D02*
X000903Y-002359D01*
X000889Y-002369D01*
X000879Y-002383D01*
X000876Y-002400D01*
X000879Y-002417D01*
X000889Y-002431D01*
X000903Y-002441D01*
X000920Y-002444D01*
X000937Y-002441D01*
X000951Y-002431D01*
X000961Y-002417D01*
X000964Y-002400D01*
X000961Y-002383D01*
X000951Y-002369D01*
X000937Y-002359D01*
X000920Y-002356D01*
D02*
G37*
G36*
X001921Y-002151D02*
X001889Y-002154D01*
X001858Y-002164D01*
X001829Y-002179D01*
X001804Y-002200D01*
X001783Y-002225D01*
X001768Y-002254D01*
X001758Y-002285D01*
X001755Y-002317D01*
X001758Y-002349D01*
X001768Y-002380D01*
X001783Y-002409D01*
X001804Y-002434D01*
X001829Y-002455D01*
X001858Y-002470D01*
X001889Y-002480D01*
X001921Y-002483D01*
X001953Y-002480D01*
X001984Y-002470D01*
X002013Y-002455D01*
X002038Y-002434D01*
X002059Y-002409D01*
X002074Y-002380D01*
X002084Y-002349D01*
X002087Y-002317D01*
X002084Y-002285D01*
X002074Y-002254D01*
X002059Y-002225D01*
X002038Y-002200D01*
X002013Y-002179D01*
X001984Y-002164D01*
X001953Y-002154D01*
X001921Y-002151D01*
D02*
G37*
G36*
X002180Y-002466D02*
X002163Y-002469D01*
X002149Y-002479D01*
X002139Y-002493D01*
X002136Y-002510D01*
X002139Y-002527D01*
X002149Y-002541D01*
X002163Y-002551D01*
X002180Y-002554D01*
X002197Y-002551D01*
X002211Y-002541D01*
X002221Y-002527D01*
X002224Y-002510D01*
X002221Y-002493D01*
X002211Y-002479D01*
X002197Y-002469D01*
X002180Y-002466D01*
D02*
G37*
G36*
X004490Y-002476D02*
X004473Y-002479D01*
X004459Y-002489D01*
X004449Y-002503D01*
X004446Y-002520D01*
X004449Y-002537D01*
X004459Y-002551D01*
X004473Y-002561D01*
X004490Y-002564D01*
X004507Y-002561D01*
X004521Y-002551D01*
X004531Y-002537D01*
X004534Y-002520D01*
X004531Y-002503D01*
X004521Y-002489D01*
X004507Y-002479D01*
X004490Y-002476D01*
D02*
G37*
G36*
X000920D02*
X000903Y-002479D01*
X000889Y-002489D01*
X000879Y-002503D01*
X000876Y-002520D01*
X000879Y-002537D01*
X000889Y-002551D01*
X000903Y-002561D01*
X000920Y-002564D01*
X000937Y-002561D01*
X000951Y-002551D01*
X000961Y-002537D01*
X000964Y-002520D01*
X000961Y-002503D01*
X000951Y-002489D01*
X000937Y-002479D01*
X000920Y-002476D01*
D02*
G37*
G36*
X001720Y-002486D02*
X001703Y-002489D01*
X001689Y-002499D01*
X001679Y-002513D01*
X001676Y-002530D01*
X001679Y-002547D01*
X001689Y-002561D01*
X001703Y-002571D01*
X001720Y-002574D01*
X001737Y-002571D01*
X001751Y-002561D01*
X001761Y-002547D01*
X001764Y-002530D01*
X001761Y-002513D01*
X001751Y-002499D01*
X001737Y-002489D01*
X001720Y-002486D01*
D02*
G37*
G36*
X004460Y-002596D02*
X004443Y-002599D01*
X004429Y-002609D01*
X004419Y-002623D01*
X004417Y-002637D01*
X004410Y-002636D01*
X004393Y-002639D01*
X004379Y-002649D01*
X004369Y-002663D01*
X004366Y-002680D01*
X004369Y-002697D01*
X004379Y-002711D01*
X004386Y-002716D01*
X004390Y-002732D01*
X004389Y-002733D01*
X004386Y-002750D01*
X004389Y-002767D01*
X004399Y-002781D01*
X004413Y-002791D01*
X004430Y-002794D01*
X004447Y-002791D01*
X004461Y-002781D01*
X004471Y-002767D01*
X004474Y-002750D01*
X004471Y-002733D01*
X004461Y-002719D01*
X004454Y-002714D01*
X004450Y-002698D01*
X004451Y-002697D01*
X004453Y-002683D01*
X004460Y-002684D01*
X004477Y-002681D01*
X004491Y-002671D01*
X004501Y-002657D01*
X004504Y-002640D01*
X004501Y-002623D01*
X004491Y-002609D01*
X004477Y-002599D01*
X004460Y-002596D01*
D02*
G37*
G36*
X003330Y-002446D02*
X003313Y-002449D01*
X003299Y-002459D01*
X003289Y-002473D01*
X003286Y-002490D01*
X003289Y-002507D01*
X003299Y-002521D01*
X003313Y-002531D01*
X003329Y-002534D01*
X003326Y-002550D01*
X003329Y-002567D01*
X003339Y-002581D01*
X003353Y-002591D01*
X003369Y-002594D01*
X003366Y-002610D01*
X003369Y-002627D01*
X003379Y-002641D01*
X003393Y-002651D01*
X003410Y-002654D01*
X003427Y-002651D01*
X003441Y-002641D01*
X003451Y-002627D01*
X003454Y-002610D01*
X003451Y-002593D01*
X003441Y-002579D01*
X003427Y-002569D01*
X003411Y-002566D01*
X003414Y-002550D01*
X003411Y-002533D01*
X003401Y-002519D01*
X003387Y-002509D01*
X003371Y-002506D01*
X003374Y-002490D01*
X003371Y-002473D01*
X003361Y-002459D01*
X003347Y-002449D01*
X003330Y-002446D01*
D02*
G37*
G36*
X003870Y-002596D02*
X003853Y-002599D01*
X003839Y-002609D01*
X003829Y-002623D01*
X003826Y-002640D01*
X003829Y-002657D01*
X003839Y-002671D01*
X003853Y-002681D01*
X003870Y-002684D01*
X003887Y-002681D01*
X003901Y-002671D01*
X003911Y-002657D01*
X003914Y-002640D01*
X003911Y-002623D01*
X003901Y-002609D01*
X003887Y-002599D01*
X003870Y-002596D01*
D02*
G37*
G36*
X002670D02*
X002653Y-002599D01*
X002639Y-002609D01*
X002629Y-002623D01*
X002626Y-002640D01*
X002629Y-002657D01*
X002639Y-002671D01*
X002653Y-002681D01*
X002670Y-002684D01*
X002687Y-002681D01*
X002701Y-002671D01*
X002711Y-002657D01*
X002714Y-002640D01*
X002711Y-002623D01*
X002701Y-002609D01*
X002687Y-002599D01*
X002670Y-002596D01*
D02*
G37*
G36*
X004020Y-002606D02*
X004003Y-002609D01*
X003989Y-002619D01*
X003979Y-002633D01*
X003976Y-002650D01*
X003979Y-002667D01*
X003989Y-002681D01*
X004003Y-002691D01*
X004020Y-002694D01*
X004037Y-002691D01*
X004051Y-002681D01*
X004061Y-002667D01*
X004064Y-002650D01*
X004061Y-002633D01*
X004051Y-002619D01*
X004037Y-002609D01*
X004020Y-002606D01*
D02*
G37*
G36*
X003650Y-002426D02*
X003633Y-002429D01*
X003619Y-002439D01*
X003609Y-002453D01*
X003606Y-002470D01*
X003609Y-002487D01*
X003619Y-002501D01*
X003633Y-002511D01*
X003649Y-002514D01*
X003646Y-002530D01*
X003649Y-002547D01*
X003659Y-002561D01*
X003673Y-002571D01*
X003689Y-002574D01*
X003686Y-002590D01*
X003689Y-002607D01*
X003699Y-002621D01*
X003713Y-002631D01*
X003729Y-002634D01*
X003726Y-002650D01*
X003729Y-002667D01*
X003739Y-002681D01*
X003753Y-002691D01*
X003770Y-002694D01*
X003787Y-002691D01*
X003801Y-002681D01*
X003811Y-002667D01*
X003814Y-002650D01*
X003811Y-002633D01*
X003801Y-002619D01*
X003787Y-002609D01*
X003771Y-002606D01*
X003774Y-002590D01*
X003771Y-002573D01*
X003761Y-002559D01*
X003747Y-002549D01*
X003731Y-002546D01*
X003734Y-002530D01*
X003731Y-002513D01*
X003721Y-002499D01*
X003707Y-002489D01*
X003691Y-002486D01*
X003694Y-002470D01*
X003691Y-002453D01*
X003681Y-002439D01*
X003667Y-002429D01*
X003650Y-002426D01*
D02*
G37*
G36*
X002890D02*
X002873Y-002429D01*
X002859Y-002439D01*
X002849Y-002453D01*
X002846Y-002470D01*
X002849Y-002486D01*
X002833Y-002489D01*
X002819Y-002499D01*
X002809Y-002513D01*
X002806Y-002530D01*
X002809Y-002546D01*
X002793Y-002549D01*
X002779Y-002559D01*
X002769Y-002573D01*
X002766Y-002590D01*
X002769Y-002606D01*
X002753Y-002609D01*
X002739Y-002619D01*
X002729Y-002633D01*
X002726Y-002650D01*
X002729Y-002667D01*
X002739Y-002681D01*
X002753Y-002691D01*
X002770Y-002694D01*
X002787Y-002691D01*
X002801Y-002681D01*
X002811Y-002667D01*
X002814Y-002650D01*
X002811Y-002634D01*
X002827Y-002631D01*
X002841Y-002621D01*
X002851Y-002607D01*
X002854Y-002590D01*
X002851Y-002574D01*
X002867Y-002571D01*
X002881Y-002561D01*
X002891Y-002547D01*
X002894Y-002530D01*
X002891Y-002514D01*
X002907Y-002511D01*
X002914Y-002506D01*
X002928Y-002512D01*
X002929Y-002517D01*
X002939Y-002531D01*
X002953Y-002541D01*
X002967Y-002543D01*
X002966Y-002550D01*
X002969Y-002567D01*
X002979Y-002581D01*
X002993Y-002591D01*
X003009Y-002594D01*
X003006Y-002610D01*
X003009Y-002627D01*
X003019Y-002641D01*
X003033Y-002651D01*
X003049Y-002654D01*
X003046Y-002670D01*
X003049Y-002687D01*
X003059Y-002701D01*
X003073Y-002711D01*
X003090Y-002714D01*
X003107Y-002711D01*
X003121Y-002701D01*
X003131Y-002687D01*
X003134Y-002670D01*
X003131Y-002653D01*
X003121Y-002639D01*
X003107Y-002629D01*
X003091Y-002626D01*
X003094Y-002610D01*
X003091Y-002593D01*
X003081Y-002579D01*
X003067Y-002569D01*
X003051Y-002566D01*
X003054Y-002550D01*
X003051Y-002533D01*
X003041Y-002519D01*
X003027Y-002509D01*
X003013Y-002507D01*
X003014Y-002500D01*
X003011Y-002483D01*
X003001Y-002469D01*
X002987Y-002459D01*
X002970Y-002456D01*
X002953Y-002459D01*
X002946Y-002464D01*
X002932Y-002458D01*
X002931Y-002453D01*
X002921Y-002439D01*
X002907Y-002429D01*
X002890Y-002426D01*
D02*
G37*
G36*
X002400Y-002686D02*
X002383Y-002689D01*
X002369Y-002699D01*
X002359Y-002713D01*
X002356Y-002730D01*
X002359Y-002747D01*
X002369Y-002761D01*
X002383Y-002771D01*
X002400Y-002774D01*
X002417Y-002771D01*
X002431Y-002761D01*
X002441Y-002747D01*
X002444Y-002730D01*
X002441Y-002713D01*
X002431Y-002699D01*
X002417Y-002689D01*
X002400Y-002686D01*
D02*
G37*
G36*
X001940Y-002706D02*
X001923Y-002709D01*
X001909Y-002719D01*
X001899Y-002733D01*
X001896Y-002750D01*
X001899Y-002767D01*
X001909Y-002781D01*
X001923Y-002791D01*
X001940Y-002794D01*
X001957Y-002791D01*
X001971Y-002781D01*
X001981Y-002767D01*
X001984Y-002750D01*
X001981Y-002733D01*
X001971Y-002719D01*
X001957Y-002709D01*
X001940Y-002706D01*
D02*
G37*
G36*
X000685Y-002741D02*
X000668Y-002744D01*
X000654Y-002754D01*
X000644Y-002768D01*
X000641Y-002785D01*
X000644Y-002802D01*
X000654Y-002816D01*
X000668Y-002826D01*
X000685Y-002829D01*
X000702Y-002826D01*
X000716Y-002816D01*
X000726Y-002802D01*
X000729Y-002785D01*
X000726Y-002768D01*
X000716Y-002754D01*
X000702Y-002744D01*
X000685Y-002741D01*
D02*
G37*
G36*
X001316Y-002930D02*
X001299Y-002933D01*
X001285Y-002943D01*
X001271Y-002933D01*
X001254Y-002930D01*
X001237Y-002933D01*
X001223Y-002943D01*
X001213Y-002957D01*
X001210Y-002974D01*
X001213Y-002991D01*
X001223Y-003005D01*
X001237Y-003015D01*
X001254Y-003018D01*
X001271Y-003015D01*
X001285Y-003005D01*
X001299Y-003015D01*
X001316Y-003018D01*
X001333Y-003015D01*
X001347Y-003005D01*
X001357Y-002991D01*
X001360Y-002974D01*
X001357Y-002957D01*
X001347Y-002943D01*
X001333Y-002933D01*
X001316Y-002930D01*
D02*
G37*
G36*
X004060Y-002856D02*
X004043Y-002859D01*
X004029Y-002869D01*
X004019Y-002883D01*
X004016Y-002900D01*
X004019Y-002917D01*
X004029Y-002931D01*
X004043Y-002941D01*
X004060Y-002944D01*
X004077Y-002941D01*
X004091Y-002931D01*
X004101Y-002917D01*
X004104Y-002900D01*
X004101Y-002883D01*
X004091Y-002869D01*
X004077Y-002859D01*
X004060Y-002856D01*
D02*
G37*
G36*
X003430Y-002876D02*
X003413Y-002879D01*
X003399Y-002889D01*
X003389Y-002903D01*
X003386Y-002920D01*
X003389Y-002937D01*
X003399Y-002951D01*
X003413Y-002961D01*
X003430Y-002964D01*
X003447Y-002961D01*
X003461Y-002951D01*
X003471Y-002937D01*
X003474Y-002920D01*
X003471Y-002903D01*
X003461Y-002889D01*
X003447Y-002879D01*
X003430Y-002876D01*
D02*
G37*
G36*
X003110D02*
X003093Y-002879D01*
X003079Y-002889D01*
X003069Y-002903D01*
X003066Y-002920D01*
X003069Y-002937D01*
X003079Y-002951D01*
X003093Y-002961D01*
X003110Y-002964D01*
X003127Y-002961D01*
X003141Y-002951D01*
X003151Y-002937D01*
X003154Y-002920D01*
X003151Y-002903D01*
X003141Y-002889D01*
X003127Y-002879D01*
X003110Y-002876D01*
D02*
G37*
G36*
X000556Y-002930D02*
X000539Y-002933D01*
X000525Y-002943D01*
X000515Y-002957D01*
X000512Y-002974D01*
X000515Y-002991D01*
X000525Y-003005D01*
X000539Y-003015D01*
X000556Y-003018D01*
X000573Y-003015D01*
X000587Y-003005D01*
X000597Y-002991D01*
X000600Y-002974D01*
X000597Y-002957D01*
X000587Y-002943D01*
X000573Y-002933D01*
X000556Y-002930D01*
D02*
G37*
G36*
X003510Y-002956D02*
X003493Y-002959D01*
X003479Y-002969D01*
X003469Y-002983D01*
X003466Y-003000D01*
X003469Y-003017D01*
X003479Y-003031D01*
X003493Y-003041D01*
X003510Y-003044D01*
X003527Y-003041D01*
X003541Y-003031D01*
X003551Y-003017D01*
X003554Y-003000D01*
X003551Y-002983D01*
X003541Y-002969D01*
X003527Y-002959D01*
X003510Y-002956D01*
D02*
G37*
G36*
X003030D02*
X003013Y-002959D01*
X002999Y-002969D01*
X002989Y-002983D01*
X002986Y-003000D01*
X002989Y-003017D01*
X002999Y-003031D01*
X003013Y-003041D01*
X003030Y-003044D01*
X003047Y-003041D01*
X003061Y-003031D01*
X003071Y-003017D01*
X003074Y-003000D01*
X003071Y-002983D01*
X003061Y-002969D01*
X003047Y-002959D01*
X003030Y-002956D01*
D02*
G37*
G36*
X003590Y-003036D02*
X003573Y-003039D01*
X003559Y-003049D01*
X003549Y-003063D01*
X003546Y-003080D01*
X003549Y-003097D01*
X003559Y-003111D01*
X003573Y-003121D01*
X003590Y-003124D01*
X003607Y-003121D01*
X003621Y-003111D01*
X003631Y-003097D01*
X003634Y-003080D01*
X003631Y-003063D01*
X003621Y-003049D01*
X003607Y-003039D01*
X003590Y-003036D01*
D02*
G37*
G36*
X002950D02*
X002933Y-003039D01*
X002919Y-003049D01*
X002909Y-003063D01*
X002906Y-003080D01*
X002909Y-003097D01*
X002919Y-003111D01*
X002933Y-003121D01*
X002950Y-003124D01*
X002967Y-003121D01*
X002981Y-003111D01*
X002991Y-003097D01*
X002994Y-003080D01*
X002991Y-003063D01*
X002981Y-003049D01*
X002967Y-003039D01*
X002950Y-003036D01*
D02*
G37*
G36*
X003430Y-003116D02*
X003413Y-003119D01*
X003399Y-003129D01*
X003389Y-003143D01*
X003386Y-003160D01*
X003389Y-003177D01*
X003399Y-003191D01*
X003413Y-003201D01*
X003430Y-003204D01*
X003447Y-003201D01*
X003461Y-003191D01*
X003471Y-003177D01*
X003474Y-003160D01*
X003471Y-003143D01*
X003461Y-003129D01*
X003447Y-003119D01*
X003430Y-003116D01*
D02*
G37*
G36*
X003270D02*
X003253Y-003119D01*
X003239Y-003129D01*
X003229Y-003143D01*
X003226Y-003160D01*
X003229Y-003177D01*
X003239Y-003191D01*
X003253Y-003201D01*
X003270Y-003204D01*
X003287Y-003201D01*
X003301Y-003191D01*
X003311Y-003177D01*
X003314Y-003160D01*
X003311Y-003143D01*
X003301Y-003129D01*
X003287Y-003119D01*
X003270Y-003116D01*
D02*
G37*
G36*
X003110D02*
X003093Y-003119D01*
X003079Y-003129D01*
X003069Y-003143D01*
X003066Y-003160D01*
X003069Y-003177D01*
X003079Y-003191D01*
X003093Y-003201D01*
X003110Y-003204D01*
X003127Y-003201D01*
X003141Y-003191D01*
X003151Y-003177D01*
X003154Y-003160D01*
X003151Y-003143D01*
X003141Y-003129D01*
X003127Y-003119D01*
X003110Y-003116D01*
D02*
G37*
G36*
X004590Y-003126D02*
X004573Y-003129D01*
X004559Y-003139D01*
X004549Y-003153D01*
X004546Y-003170D01*
X004549Y-003187D01*
X004559Y-003201D01*
X004573Y-003211D01*
X004590Y-003214D01*
X004607Y-003211D01*
X004621Y-003201D01*
X004631Y-003187D01*
X004634Y-003170D01*
X004631Y-003153D01*
X004621Y-003139D01*
X004607Y-003129D01*
X004590Y-003126D01*
D02*
G37*
G36*
X003430Y-003276D02*
X003413Y-003279D01*
X003399Y-003289D01*
X003389Y-003303D01*
X003386Y-003320D01*
X003389Y-003337D01*
X003399Y-003351D01*
X003413Y-003361D01*
X003430Y-003364D01*
X003447Y-003361D01*
X003461Y-003351D01*
X003471Y-003337D01*
X003474Y-003320D01*
X003471Y-003303D01*
X003461Y-003289D01*
X003447Y-003279D01*
X003430Y-003276D01*
D02*
G37*
G36*
X003110D02*
X003093Y-003279D01*
X003079Y-003289D01*
X003069Y-003303D01*
X003066Y-003320D01*
X003069Y-003337D01*
X003079Y-003351D01*
X003093Y-003361D01*
X003110Y-003364D01*
X003127Y-003361D01*
X003141Y-003351D01*
X003151Y-003337D01*
X003154Y-003320D01*
X003151Y-003303D01*
X003141Y-003289D01*
X003127Y-003279D01*
X003110Y-003276D01*
D02*
G37*
G36*
X005290Y-003296D02*
X005273Y-003299D01*
X005259Y-003309D01*
X005249Y-003323D01*
X005246Y-003340D01*
X005249Y-003357D01*
X005259Y-003371D01*
X005273Y-003381D01*
X005290Y-003384D01*
X005307Y-003381D01*
X005321Y-003371D01*
X005331Y-003357D01*
X005334Y-003340D01*
X005331Y-003323D01*
X005321Y-003309D01*
X005307Y-003299D01*
X005290Y-003296D01*
D02*
G37*
G36*
X005894Y-003402D02*
X005877Y-003405D01*
X005863Y-003415D01*
X005853Y-003429D01*
X005850Y-003446D01*
X005853Y-003463D01*
X005863Y-003477D01*
X005877Y-003487D01*
X005894Y-003490D01*
X005911Y-003487D01*
X005925Y-003477D01*
X005935Y-003463D01*
X005938Y-003446D01*
X005935Y-003429D01*
X005925Y-003415D01*
X005911Y-003405D01*
X005894Y-003402D01*
D02*
G37*
G36*
X004080Y-003406D02*
X004063Y-003409D01*
X004049Y-003419D01*
X004039Y-003433D01*
X004036Y-003450D01*
X004039Y-003467D01*
X004049Y-003481D01*
X004063Y-003491D01*
X004080Y-003494D01*
X004097Y-003491D01*
X004111Y-003481D01*
X004121Y-003467D01*
X004124Y-003450D01*
X004121Y-003433D01*
X004111Y-003419D01*
X004097Y-003409D01*
X004080Y-003406D01*
D02*
G37*
G36*
X003430Y-003436D02*
X003413Y-003439D01*
X003399Y-003449D01*
X003389Y-003463D01*
X003386Y-003480D01*
X003389Y-003497D01*
X003399Y-003511D01*
X003413Y-003521D01*
X003430Y-003524D01*
X003447Y-003521D01*
X003461Y-003511D01*
X003471Y-003497D01*
X003474Y-003480D01*
X003471Y-003463D01*
X003461Y-003449D01*
X003447Y-003439D01*
X003430Y-003436D01*
D02*
G37*
G36*
X003270D02*
X003253Y-003439D01*
X003239Y-003449D01*
X003229Y-003463D01*
X003226Y-003480D01*
X003229Y-003497D01*
X003239Y-003511D01*
X003253Y-003521D01*
X003270Y-003524D01*
X003287Y-003521D01*
X003301Y-003511D01*
X003311Y-003497D01*
X003314Y-003480D01*
X003311Y-003463D01*
X003301Y-003449D01*
X003287Y-003439D01*
X003270Y-003436D01*
D02*
G37*
G36*
X003110D02*
X003093Y-003439D01*
X003079Y-003449D01*
X003069Y-003463D01*
X003066Y-003480D01*
X003069Y-003497D01*
X003079Y-003511D01*
X003093Y-003521D01*
X003110Y-003524D01*
X003127Y-003521D01*
X003141Y-003511D01*
X003151Y-003497D01*
X003154Y-003480D01*
X003151Y-003463D01*
X003141Y-003449D01*
X003127Y-003439D01*
X003110Y-003436D01*
D02*
G37*
G36*
X003590Y-003516D02*
X003573Y-003519D01*
X003559Y-003529D01*
X003549Y-003543D01*
X003546Y-003560D01*
X003549Y-003577D01*
X003559Y-003591D01*
X003573Y-003601D01*
X003590Y-003604D01*
X003607Y-003601D01*
X003621Y-003591D01*
X003631Y-003577D01*
X003634Y-003560D01*
X003631Y-003543D01*
X003621Y-003529D01*
X003607Y-003519D01*
X003590Y-003516D01*
D02*
G37*
G36*
X002950D02*
X002933Y-003519D01*
X002919Y-003529D01*
X002909Y-003543D01*
X002906Y-003560D01*
X002909Y-003577D01*
X002919Y-003591D01*
X002933Y-003601D01*
X002950Y-003604D01*
X002967Y-003601D01*
X002981Y-003591D01*
X002991Y-003577D01*
X002994Y-003560D01*
X002991Y-003543D01*
X002981Y-003529D01*
X002967Y-003519D01*
X002950Y-003516D01*
D02*
G37*
G36*
X003510Y-003596D02*
X003493Y-003599D01*
X003479Y-003609D01*
X003469Y-003623D01*
X003466Y-003640D01*
X003469Y-003657D01*
X003479Y-003671D01*
X003493Y-003681D01*
X003510Y-003684D01*
X003527Y-003681D01*
X003541Y-003671D01*
X003551Y-003657D01*
X003554Y-003640D01*
X003551Y-003623D01*
X003541Y-003609D01*
X003527Y-003599D01*
X003510Y-003596D01*
D02*
G37*
G36*
X003030D02*
X003013Y-003599D01*
X002999Y-003609D01*
X002989Y-003623D01*
X002986Y-003640D01*
X002989Y-003657D01*
X002999Y-003671D01*
X003013Y-003681D01*
X003030Y-003684D01*
X003047Y-003681D01*
X003061Y-003671D01*
X003071Y-003657D01*
X003074Y-003640D01*
X003071Y-003623D01*
X003061Y-003609D01*
X003047Y-003599D01*
X003030Y-003596D01*
D02*
G37*
G36*
X004870Y-003656D02*
X004853Y-003659D01*
X004839Y-003669D01*
X004829Y-003683D01*
X004826Y-003700D01*
X004829Y-003717D01*
X004839Y-003731D01*
X004853Y-003741D01*
X004870Y-003744D01*
X004887Y-003741D01*
X004901Y-003731D01*
X004911Y-003717D01*
X004914Y-003700D01*
X004911Y-003683D01*
X004901Y-003669D01*
X004887Y-003659D01*
X004870Y-003656D01*
D02*
G37*
G36*
X005226Y-003662D02*
X005209Y-003665D01*
X005195Y-003675D01*
X005185Y-003689D01*
X005182Y-003706D01*
X005185Y-003723D01*
X005195Y-003737D01*
X005209Y-003747D01*
X005226Y-003750D01*
X005243Y-003747D01*
X005257Y-003737D01*
X005267Y-003723D01*
X005270Y-003706D01*
X005267Y-003689D01*
X005257Y-003675D01*
X005243Y-003665D01*
X005226Y-003662D01*
D02*
G37*
G36*
X004340Y-003676D02*
X004323Y-003679D01*
X004309Y-003689D01*
X004299Y-003703D01*
X004296Y-003720D01*
X004299Y-003737D01*
X004309Y-003751D01*
X004323Y-003761D01*
X004340Y-003764D01*
X004357Y-003761D01*
X004371Y-003751D01*
X004381Y-003737D01*
X004384Y-003720D01*
X004381Y-003703D01*
X004371Y-003689D01*
X004357Y-003679D01*
X004340Y-003676D01*
D02*
G37*
G36*
X000540Y-003706D02*
X000523Y-003709D01*
X000509Y-003719D01*
X000499Y-003733D01*
X000496Y-003750D01*
X000499Y-003767D01*
X000509Y-003781D01*
X000523Y-003791D01*
X000540Y-003794D01*
X000557Y-003791D01*
X000571Y-003781D01*
X000581Y-003767D01*
X000584Y-003750D01*
X000581Y-003733D01*
X000571Y-003719D01*
X000557Y-003709D01*
X000540Y-003706D01*
D02*
G37*
G36*
X000400Y-003716D02*
X000383Y-003719D01*
X000369Y-003729D01*
X000359Y-003743D01*
X000356Y-003760D01*
X000359Y-003777D01*
X000369Y-003791D01*
X000383Y-003801D01*
X000400Y-003804D01*
X000417Y-003801D01*
X000431Y-003791D01*
X000441Y-003777D01*
X000444Y-003760D01*
X000441Y-003743D01*
X000431Y-003729D01*
X000417Y-003719D01*
X000400Y-003716D01*
D02*
G37*
G36*
X004720Y-003426D02*
X004703Y-003429D01*
X004689Y-003439D01*
X004679Y-003453D01*
X004676Y-003470D01*
X004679Y-003487D01*
X004689Y-003501D01*
X004703Y-003511D01*
X004717Y-003514D01*
Y-003526D01*
X004703Y-003529D01*
X004689Y-003539D01*
X004679Y-003553D01*
X004676Y-003570D01*
X004679Y-003587D01*
X004689Y-003601D01*
X004703Y-003611D01*
X004717Y-003614D01*
Y-003626D01*
X004703Y-003629D01*
X004689Y-003639D01*
X004679Y-003653D01*
X004676Y-003670D01*
X004679Y-003687D01*
X004689Y-003701D01*
X004703Y-003711D01*
X004717Y-003714D01*
Y-003726D01*
X004703Y-003729D01*
X004689Y-003739D01*
X004679Y-003753D01*
X004676Y-003770D01*
X004679Y-003787D01*
X004689Y-003801D01*
X004703Y-003811D01*
X004720Y-003814D01*
X004737Y-003811D01*
X004751Y-003801D01*
X004761Y-003787D01*
X004764Y-003770D01*
X004761Y-003753D01*
X004751Y-003739D01*
X004737Y-003729D01*
X004723Y-003726D01*
Y-003714D01*
X004737Y-003711D01*
X004751Y-003701D01*
X004761Y-003687D01*
X004764Y-003670D01*
X004761Y-003653D01*
X004751Y-003639D01*
X004737Y-003629D01*
X004723Y-003626D01*
Y-003614D01*
X004737Y-003611D01*
X004751Y-003601D01*
X004761Y-003587D01*
X004764Y-003570D01*
X004761Y-003553D01*
X004751Y-003539D01*
X004737Y-003529D01*
X004723Y-003526D01*
Y-003514D01*
X004737Y-003511D01*
X004751Y-003501D01*
X004761Y-003487D01*
X004764Y-003470D01*
X004761Y-003453D01*
X004751Y-003439D01*
X004737Y-003429D01*
X004720Y-003426D01*
D02*
G37*
G36*
X004810Y-003826D02*
X004793Y-003829D01*
X004779Y-003839D01*
X004776Y-003843D01*
X004764D01*
X004761Y-003839D01*
X004747Y-003829D01*
X004730Y-003826D01*
X004713Y-003829D01*
X004699Y-003839D01*
X004689Y-003853D01*
X004686Y-003870D01*
X004689Y-003887D01*
X004699Y-003901D01*
X004713Y-003911D01*
X004730Y-003914D01*
X004747Y-003911D01*
X004761Y-003901D01*
X004764Y-003897D01*
X004776D01*
X004779Y-003901D01*
X004793Y-003911D01*
X004810Y-003914D01*
X004827Y-003911D01*
X004841Y-003901D01*
X004851Y-003887D01*
X004854Y-003870D01*
X004851Y-003853D01*
X004841Y-003839D01*
X004827Y-003829D01*
X004810Y-003826D01*
D02*
G37*
G36*
X003940Y-003786D02*
X003923Y-003789D01*
X003909Y-003799D01*
X003899Y-003813D01*
X003896Y-003830D01*
X003899Y-003847D01*
X003909Y-003861D01*
X003923Y-003871D01*
X003940Y-003874D01*
X003957Y-003871D01*
X003971Y-003861D01*
X003981Y-003847D01*
X003984Y-003830D01*
X003981Y-003813D01*
X003971Y-003799D01*
X003957Y-003789D01*
X003940Y-003786D01*
D02*
G37*
G36*
X002406Y-003792D02*
X002389Y-003795D01*
X002375Y-003805D01*
X002365Y-003819D01*
X002362Y-003836D01*
X002365Y-003853D01*
X002375Y-003867D01*
X002389Y-003877D01*
X002406Y-003880D01*
X002423Y-003877D01*
X002437Y-003867D01*
X002447Y-003853D01*
X002450Y-003836D01*
X002447Y-003819D01*
X002437Y-003805D01*
X002423Y-003795D01*
X002406Y-003792D01*
D02*
G37*
G36*
X003350Y-003946D02*
X003333Y-003949D01*
X003319Y-003959D01*
X003316Y-003963D01*
X003304D01*
X003301Y-003959D01*
X003287Y-003949D01*
X003270Y-003946D01*
X003253Y-003949D01*
X003239Y-003959D01*
X003229Y-003973D01*
X003226Y-003990D01*
X003229Y-004007D01*
X003239Y-004021D01*
X003253Y-004031D01*
X003270Y-004034D01*
X003287Y-004031D01*
X003301Y-004021D01*
X003304Y-004017D01*
X003316D01*
X003319Y-004021D01*
X003333Y-004031D01*
X003350Y-004034D01*
X003367Y-004031D01*
X003369Y-004035D01*
X003369Y-004037D01*
X003379Y-004051D01*
X003393Y-004061D01*
X003410Y-004064D01*
X003427Y-004061D01*
X003430Y-004058D01*
X003439Y-004071D01*
X003453Y-004081D01*
X003470Y-004084D01*
X003487Y-004081D01*
X003501Y-004071D01*
X003511Y-004057D01*
X003514Y-004040D01*
X003511Y-004023D01*
X003501Y-004009D01*
X003487Y-003999D01*
X003470Y-003996D01*
X003453Y-003999D01*
X003450Y-004002D01*
X003441Y-003989D01*
X003427Y-003979D01*
X003410Y-003976D01*
X003393Y-003979D01*
X003391Y-003975D01*
X003391Y-003973D01*
X003381Y-003959D01*
X003367Y-003949D01*
X003350Y-003946D01*
D02*
G37*
G36*
X005900Y-003886D02*
X005883Y-003889D01*
X005869Y-003899D01*
X005859Y-003913D01*
X005856Y-003930D01*
X005859Y-003947D01*
X005869Y-003961D01*
X005883Y-003971D01*
X005900Y-003974D01*
X005917Y-003971D01*
X005931Y-003961D01*
X005941Y-003947D01*
X005944Y-003930D01*
X005941Y-003913D01*
X005931Y-003899D01*
X005917Y-003889D01*
X005900Y-003886D01*
D02*
G37*
G36*
X004470Y-003896D02*
X004453Y-003899D01*
X004439Y-003909D01*
X004429Y-003923D01*
X004426Y-003940D01*
X004429Y-003957D01*
X004439Y-003971D01*
X004453Y-003981D01*
X004470Y-003984D01*
X004487Y-003981D01*
X004501Y-003971D01*
X004511Y-003957D01*
X004514Y-003940D01*
X004511Y-003923D01*
X004501Y-003909D01*
X004487Y-003899D01*
X004470Y-003896D01*
D02*
G37*
G36*
X005791Y-003957D02*
X005774Y-003961D01*
X005760Y-003970D01*
X005751Y-003984D01*
X005747Y-004001D01*
X005751Y-004018D01*
X005760Y-004032D01*
X005774Y-004042D01*
X005791Y-004045D01*
X005808Y-004042D01*
X005822Y-004032D01*
X005832Y-004018D01*
X005835Y-004001D01*
X005832Y-003984D01*
X005822Y-003970D01*
X005808Y-003961D01*
X005791Y-003957D01*
D02*
G37*
G36*
X000090Y-003966D02*
X000073Y-003969D01*
X000059Y-003979D01*
X000049Y-003993D01*
X000046Y-004010D01*
X000049Y-004027D01*
X000059Y-004041D01*
X000073Y-004051D01*
X000090Y-004054D01*
X000107Y-004051D01*
X000121Y-004041D01*
X000131Y-004027D01*
X000134Y-004010D01*
X000131Y-003993D01*
X000121Y-003979D01*
X000107Y-003969D01*
X000090Y-003966D01*
D02*
G37*
G36*
X003980Y-004026D02*
X003963Y-004029D01*
X003949Y-004039D01*
X003939Y-004053D01*
X003936Y-004070D01*
X003939Y-004087D01*
X003949Y-004101D01*
X003963Y-004111D01*
X003980Y-004114D01*
X003997Y-004111D01*
X004011Y-004101D01*
X004021Y-004087D01*
X004024Y-004070D01*
X004021Y-004053D01*
X004011Y-004039D01*
X003997Y-004029D01*
X003980Y-004026D01*
D02*
G37*
G36*
X001150Y-004116D02*
X001133Y-004119D01*
X001119Y-004129D01*
X001116Y-004133D01*
X001104D01*
X001101Y-004129D01*
X001087Y-004119D01*
X001070Y-004116D01*
X001053Y-004119D01*
X001039Y-004129D01*
X001029Y-004143D01*
X001026Y-004160D01*
X001029Y-004177D01*
X001039Y-004191D01*
X001053Y-004201D01*
X001070Y-004204D01*
X001087Y-004201D01*
X001101Y-004191D01*
X001104Y-004187D01*
X001116D01*
X001119Y-004191D01*
X001133Y-004201D01*
X001150Y-004204D01*
X001167Y-004201D01*
X001181Y-004191D01*
X001191Y-004177D01*
X001194Y-004160D01*
X001191Y-004143D01*
X001181Y-004129D01*
X001167Y-004119D01*
X001150Y-004116D01*
D02*
G37*
G36*
X001900Y-004076D02*
X001883Y-004079D01*
X001869Y-004089D01*
X001859Y-004103D01*
X001856Y-004120D01*
X001859Y-004137D01*
X001869Y-004151D01*
X001883Y-004161D01*
X001900Y-004164D01*
X001917Y-004161D01*
X001931Y-004151D01*
X001941Y-004137D01*
X001944Y-004120D01*
X001941Y-004103D01*
X001931Y-004089D01*
X001917Y-004079D01*
X001900Y-004076D01*
D02*
G37*
G36*
X004880Y-004036D02*
X004863Y-004039D01*
X004849Y-004049D01*
X004839Y-004063D01*
X004836Y-004080D01*
X004839Y-004097D01*
X004849Y-004111D01*
X004863Y-004121D01*
X004880Y-004124D01*
X004888Y-004122D01*
X004896Y-004134D01*
X004889Y-004143D01*
X004886Y-004160D01*
X004889Y-004177D01*
X004899Y-004191D01*
X004913Y-004201D01*
X004930Y-004204D01*
X004947Y-004201D01*
X004961Y-004191D01*
X004971Y-004177D01*
X004974Y-004160D01*
X004971Y-004143D01*
X004961Y-004129D01*
X004947Y-004119D01*
X004930Y-004116D01*
X004922Y-004118D01*
X004914Y-004106D01*
X004921Y-004097D01*
X004924Y-004080D01*
X004921Y-004063D01*
X004911Y-004049D01*
X004897Y-004039D01*
X004880Y-004036D01*
D02*
G37*
G36*
X000440Y-004166D02*
X000433Y-004167D01*
X000414Y-004174D01*
X000399Y-004186D01*
X000387Y-004202D01*
X000379Y-004220D01*
X000376Y-004240D01*
Y-004257D01*
X000440D01*
Y-004166D01*
D02*
G37*
G36*
X001360Y-004166D02*
Y-004257D01*
X001424D01*
Y-004240D01*
X001421Y-004220D01*
X001413Y-004202D01*
X001401Y-004186D01*
X001386Y-004174D01*
X001367Y-004167D01*
X001360Y-004166D01*
D02*
G37*
G36*
X004640Y-004166D02*
X004633Y-004167D01*
X004614Y-004174D01*
X004599Y-004186D01*
X004587Y-004202D01*
X004579Y-004220D01*
X004576Y-004240D01*
Y-004257D01*
X004640D01*
Y-004166D01*
D02*
G37*
G36*
X005560Y-004166D02*
Y-004257D01*
X005624D01*
Y-004240D01*
X005621Y-004220D01*
X005613Y-004202D01*
X005601Y-004186D01*
X005586Y-004174D01*
X005567Y-004167D01*
X005560Y-004166D01*
D02*
G37*
G36*
X005535Y-004166D02*
X005528Y-004167D01*
X005509Y-004174D01*
X005494Y-004186D01*
X005482Y-004202D01*
X005474Y-004220D01*
X005471Y-004240D01*
Y-004253D01*
X005459Y-004261D01*
X005445Y-004259D01*
X005425Y-004263D01*
X005409Y-004274D01*
X005398Y-004290D01*
X005394Y-004310D01*
X005398Y-004330D01*
X005409Y-004346D01*
X005418Y-004352D01*
X005414Y-004365D01*
X005395D01*
X005372Y-004369D01*
X005353Y-004382D01*
X005340Y-004401D01*
X005338Y-004411D01*
X005502D01*
X005500Y-004401D01*
X005487Y-004382D01*
X005468Y-004369D01*
X005466Y-004363D01*
X005466Y-004356D01*
X005481Y-004346D01*
X005488Y-004346D01*
X005494Y-004354D01*
X005509Y-004366D01*
X005528Y-004373D01*
X005535Y-004374D01*
Y-004270D01*
Y-004166D01*
D02*
G37*
G36*
X001335D02*
X001328Y-004167D01*
X001309Y-004174D01*
X001294Y-004186D01*
X001282Y-004202D01*
X001274Y-004220D01*
X001271Y-004240D01*
Y-004253D01*
X001259Y-004261D01*
X001245Y-004259D01*
X001225Y-004263D01*
X001209Y-004274D01*
X001198Y-004290D01*
X001194Y-004310D01*
X001198Y-004330D01*
X001209Y-004346D01*
X001218Y-004352D01*
X001214Y-004365D01*
X001195D01*
X001172Y-004369D01*
X001153Y-004382D01*
X001140Y-004401D01*
X001138Y-004411D01*
X001302D01*
X001300Y-004401D01*
X001287Y-004382D01*
X001268Y-004369D01*
X001266Y-004363D01*
X001266Y-004356D01*
X001281Y-004346D01*
X001288Y-004346D01*
X001294Y-004354D01*
X001309Y-004366D01*
X001328Y-004373D01*
X001335Y-004374D01*
Y-004270D01*
Y-004166D01*
D02*
G37*
G36*
X005851Y-004114D02*
X005827Y-004118D01*
X005804Y-004127D01*
X005785Y-004142D01*
X005770Y-004161D01*
X005760Y-004184D01*
X005757Y-004208D01*
X005760Y-004232D01*
X005770Y-004255D01*
X005785Y-004274D01*
X005804Y-004289D01*
X005827Y-004298D01*
X005851Y-004302D01*
X005875Y-004298D01*
X005898Y-004289D01*
X005917Y-004274D01*
X005932Y-004255D01*
X005941Y-004232D01*
X005944Y-004208D01*
X005941Y-004184D01*
X005932Y-004161D01*
X005917Y-004142D01*
X005898Y-004127D01*
X005875Y-004118D01*
X005851Y-004114D01*
D02*
G37*
G36*
X000150Y-004116D02*
X000126Y-004120D01*
X000103Y-004129D01*
X000084Y-004144D01*
X000069Y-004163D01*
X000060Y-004186D01*
X000056Y-004210D01*
X000060Y-004234D01*
X000069Y-004257D01*
X000084Y-004276D01*
X000103Y-004291D01*
X000126Y-004300D01*
X000150Y-004304D01*
X000174Y-004300D01*
X000197Y-004291D01*
X000216Y-004276D01*
X000231Y-004257D01*
X000240Y-004234D01*
X000244Y-004210D01*
X000240Y-004186D01*
X000231Y-004163D01*
X000216Y-004144D01*
X000197Y-004129D01*
X000174Y-004120D01*
X000150Y-004116D01*
D02*
G37*
G36*
X005624Y-004283D02*
X005560D01*
Y-004374D01*
X005567Y-004373D01*
X005586Y-004366D01*
X005601Y-004354D01*
X005613Y-004338D01*
X005621Y-004320D01*
X005624Y-004300D01*
Y-004283D01*
D02*
G37*
G36*
X001424Y-004283D02*
X001360D01*
Y-004374D01*
X001367Y-004373D01*
X001386Y-004366D01*
X001401Y-004354D01*
X001413Y-004338D01*
X001421Y-004320D01*
X001424Y-004300D01*
Y-004283D01*
D02*
G37*
G36*
X000440Y-004283D02*
X000376D01*
Y-004300D01*
X000379Y-004320D01*
X000387Y-004338D01*
X000399Y-004354D01*
X000414Y-004366D01*
X000433Y-004373D01*
X000440Y-004374D01*
Y-004283D01*
D02*
G37*
G36*
X004640Y-004283D02*
X004576D01*
Y-004300D01*
X004579Y-004320D01*
X004587Y-004338D01*
X004599Y-004354D01*
X004614Y-004366D01*
X004633Y-004373D01*
X004640Y-004374D01*
Y-004283D01*
D02*
G37*
G36*
X000465Y-004166D02*
Y-004270D01*
Y-004374D01*
X000472Y-004373D01*
X000491Y-004366D01*
X000506Y-004354D01*
X000512Y-004346D01*
X000519Y-004346D01*
X000534Y-004356D01*
X000534Y-004363D01*
X000532Y-004369D01*
X000513Y-004382D01*
X000500Y-004401D01*
X000498Y-004411D01*
X000580D01*
X000662D01*
X000660Y-004401D01*
X000647Y-004382D01*
X000628Y-004369D01*
X000605Y-004365D01*
X000586D01*
X000582Y-004352D01*
X000591Y-004346D01*
X000602Y-004330D01*
X000606Y-004310D01*
X000602Y-004290D01*
X000591Y-004274D01*
X000575Y-004263D01*
X000555Y-004259D01*
X000541Y-004261D01*
X000529Y-004253D01*
Y-004240D01*
X000526Y-004220D01*
X000518Y-004202D01*
X000506Y-004186D01*
X000491Y-004174D01*
X000472Y-004167D01*
X000465Y-004166D01*
D02*
G37*
G36*
X004665D02*
Y-004270D01*
Y-004374D01*
X004672Y-004373D01*
X004691Y-004366D01*
X004706Y-004354D01*
X004712Y-004346D01*
X004719Y-004346D01*
X004734Y-004356D01*
X004734Y-004363D01*
X004732Y-004369D01*
X004713Y-004382D01*
X004700Y-004401D01*
X004698Y-004411D01*
X004780D01*
X004862D01*
X004860Y-004401D01*
X004847Y-004382D01*
X004828Y-004369D01*
X004805Y-004365D01*
X004786D01*
X004782Y-004352D01*
X004791Y-004346D01*
X004802Y-004330D01*
X004806Y-004310D01*
X004802Y-004290D01*
X004791Y-004274D01*
X004775Y-004263D01*
X004755Y-004259D01*
X004741Y-004261D01*
X004729Y-004253D01*
Y-004240D01*
X004726Y-004220D01*
X004718Y-004202D01*
X004706Y-004186D01*
X004691Y-004174D01*
X004672Y-004167D01*
X004665Y-004166D01*
D02*
G37*
G36*
X005502Y-004437D02*
X005433D01*
Y-004483D01*
X005445D01*
X005468Y-004479D01*
X005487Y-004466D01*
X005500Y-004447D01*
X005502Y-004437D01*
D02*
G37*
G36*
X004767Y-004437D02*
X004698D01*
X004700Y-004447D01*
X004713Y-004466D01*
X004732Y-004479D01*
X004755Y-004483D01*
X004767D01*
Y-004437D01*
D02*
G37*
G36*
X001302Y-004437D02*
X001233D01*
Y-004483D01*
X001245D01*
X001268Y-004479D01*
X001287Y-004466D01*
X001300Y-004447D01*
X001302Y-004437D01*
D02*
G37*
G36*
X000567Y-004437D02*
X000498D01*
X000500Y-004447D01*
X000513Y-004466D01*
X000532Y-004479D01*
X000555Y-004483D01*
X000567D01*
Y-004437D01*
D02*
G37*
G36*
X001520Y-004352D02*
Y-004491D01*
X001584D01*
Y-004426D01*
X001581Y-004406D01*
X001573Y-004388D01*
X001561Y-004372D01*
X001546Y-004360D01*
X001527Y-004353D01*
X001520Y-004352D01*
D02*
G37*
G36*
X000305D02*
Y-004491D01*
X000369D01*
Y-004426D01*
X000366Y-004406D01*
X000358Y-004388D01*
X000346Y-004372D01*
X000331Y-004360D01*
X000312Y-004353D01*
X000305Y-004352D01*
D02*
G37*
G36*
X001495Y-004352D02*
X001488Y-004353D01*
X001469Y-004360D01*
X001454Y-004372D01*
X001442Y-004388D01*
X001434Y-004406D01*
X001431Y-004426D01*
Y-004491D01*
X001495D01*
Y-004352D01*
D02*
G37*
G36*
X000280D02*
X000273Y-004353D01*
X000254Y-004360D01*
X000239Y-004372D01*
X000227Y-004388D01*
X000219Y-004406D01*
X000216Y-004426D01*
Y-004491D01*
X000280D01*
Y-004352D01*
D02*
G37*
G36*
X005720D02*
Y-004491D01*
X005784D01*
Y-004426D01*
X005781Y-004406D01*
X005773Y-004388D01*
X005761Y-004372D01*
X005746Y-004360D01*
X005727Y-004353D01*
X005720Y-004352D01*
D02*
G37*
G36*
X004505D02*
Y-004491D01*
X004569D01*
Y-004426D01*
X004566Y-004406D01*
X004558Y-004388D01*
X004546Y-004372D01*
X004531Y-004360D01*
X004512Y-004353D01*
X004505Y-004352D01*
D02*
G37*
G36*
X004480Y-004352D02*
X004473Y-004353D01*
X004454Y-004360D01*
X004439Y-004372D01*
X004427Y-004388D01*
X004419Y-004406D01*
X004416Y-004426D01*
Y-004491D01*
X004480D01*
Y-004352D01*
D02*
G37*
G36*
X005695D02*
X005688Y-004353D01*
X005669Y-004360D01*
X005654Y-004372D01*
X005642Y-004388D01*
X005634Y-004406D01*
X005631Y-004426D01*
Y-004491D01*
X005695D01*
Y-004352D01*
D02*
G37*
G36*
X002010Y-004416D02*
X001993Y-004419D01*
X001979Y-004429D01*
X001969Y-004443D01*
X001966Y-004460D01*
X001969Y-004477D01*
X001979Y-004491D01*
X001993Y-004501D01*
X002010Y-004504D01*
X002027Y-004501D01*
X002041Y-004491D01*
X002051Y-004477D01*
X002054Y-004460D01*
X002051Y-004443D01*
X002041Y-004429D01*
X002027Y-004419D01*
X002010Y-004416D01*
D02*
G37*
G36*
X004090Y-004536D02*
X004073Y-004539D01*
X004059Y-004549D01*
X004049Y-004563D01*
X004046Y-004580D01*
X004049Y-004597D01*
X004059Y-004611D01*
X004073Y-004621D01*
X004090Y-004624D01*
X004107Y-004621D01*
X004121Y-004611D01*
X004131Y-004597D01*
X004134Y-004580D01*
X004131Y-004563D01*
X004121Y-004549D01*
X004107Y-004539D01*
X004090Y-004536D01*
D02*
G37*
G36*
X005784Y-004517D02*
X005720D01*
Y-004656D01*
X005727Y-004655D01*
X005746Y-004648D01*
X005761Y-004636D01*
X005773Y-004620D01*
X005781Y-004602D01*
X005784Y-004582D01*
Y-004517D01*
D02*
G37*
G36*
X000280Y-004517D02*
X000216D01*
Y-004582D01*
X000219Y-004602D01*
X000227Y-004620D01*
X000239Y-004636D01*
X000254Y-004648D01*
X000273Y-004655D01*
X000280Y-004656D01*
Y-004517D01*
D02*
G37*
G36*
X001584D02*
X001520D01*
Y-004656D01*
X001527Y-004655D01*
X001546Y-004648D01*
X001561Y-004636D01*
X001573Y-004620D01*
X001581Y-004602D01*
X001584Y-004582D01*
Y-004517D01*
D02*
G37*
G36*
X004480Y-004517D02*
X004416D01*
Y-004582D01*
X004419Y-004602D01*
X004427Y-004620D01*
X004439Y-004636D01*
X004454Y-004648D01*
X004473Y-004655D01*
X004480Y-004656D01*
Y-004517D01*
D02*
G37*
G36*
X000280Y-004728D02*
X000273Y-004729D01*
X000254Y-004736D01*
X000239Y-004748D01*
X000227Y-004764D01*
X000219Y-004782D01*
X000216Y-004802D01*
Y-004867D01*
X000280D01*
Y-004728D01*
D02*
G37*
G36*
X004480D02*
X004473Y-004729D01*
X004454Y-004736D01*
X004439Y-004748D01*
X004427Y-004764D01*
X004419Y-004782D01*
X004416Y-004802D01*
Y-004867D01*
X004480D01*
Y-004728D01*
D02*
G37*
G36*
X001520Y-004738D02*
Y-004877D01*
X001584D01*
Y-004812D01*
X001581Y-004792D01*
X001573Y-004774D01*
X001561Y-004758D01*
X001546Y-004746D01*
X001527Y-004739D01*
X001520Y-004738D01*
D02*
G37*
G36*
X005720D02*
Y-004877D01*
X005784D01*
Y-004812D01*
X005781Y-004792D01*
X005773Y-004774D01*
X005761Y-004758D01*
X005746Y-004746D01*
X005727Y-004739D01*
X005720Y-004738D01*
D02*
G37*
G36*
X000280Y-004893D02*
X000216D01*
Y-004958D01*
X000219Y-004978D01*
X000227Y-004996D01*
X000239Y-005012D01*
X000254Y-005024D01*
X000273Y-005031D01*
X000280Y-005032D01*
Y-004893D01*
D02*
G37*
G36*
X004480Y-004893D02*
X004416D01*
Y-004958D01*
X004419Y-004978D01*
X004427Y-004996D01*
X004439Y-005012D01*
X004454Y-005024D01*
X004473Y-005031D01*
X004480Y-005032D01*
Y-004893D01*
D02*
G37*
G36*
X005784Y-004903D02*
X005720D01*
Y-005042D01*
X005727Y-005041D01*
X005746Y-005034D01*
X005761Y-005022D01*
X005773Y-005006D01*
X005781Y-004988D01*
X005784Y-004968D01*
Y-004903D01*
D02*
G37*
G36*
X001584Y-004903D02*
X001520D01*
Y-005042D01*
X001527Y-005041D01*
X001546Y-005034D01*
X001561Y-005022D01*
X001573Y-005006D01*
X001581Y-004988D01*
X001584Y-004968D01*
Y-004903D01*
D02*
G37*
%LPD*%
D115*
X001220Y-004424D02*
D03*
X000580D02*
D03*
X004780D02*
D03*
X005420D02*
D03*
D117*
X000453Y-004270D02*
D03*
X001348D02*
D03*
X005547D02*
D03*
X004652D02*
D03*
D118*
X001507Y-004504D02*
D03*
X000292D02*
D03*
X001507Y-004890D02*
D03*
X000292Y-004880D02*
D03*
X004492D02*
D03*
X005707Y-004890D02*
D03*
X004492Y-004504D02*
D03*
X005707D02*
D03*
D119*
X000530Y-000123D02*
D03*
X001190D02*
D03*
X002290Y-000125D02*
D03*
X001630D02*
D03*
D121*
X-000340Y-001860D02*
D03*
X-000220D02*
D03*
X-000100D02*
D03*
X000020D02*
D03*
X-000280Y-001920D02*
D03*
X-000160D02*
D03*
X-000040D02*
D03*
X-000280Y-001800D02*
D03*
X-000160D02*
D03*
X-000040D02*
D03*
X001116Y-002886D02*
D03*
X000554D02*
D03*
X001590Y-002680D02*
D03*
X001380Y-002840D02*
D03*
X000990Y-002680D02*
D03*
X001110D02*
D03*
X005805Y-001765D02*
D03*
X005040Y-001880D02*
D03*
X005514Y-002066D02*
D03*
X003190Y-001990D02*
D03*
X003010Y-002200D02*
D03*
X002730Y-002260D02*
D03*
X005425Y-001555D02*
D03*
X004405D02*
D03*
X005110Y-001550D02*
D03*
X005153Y-001833D02*
D03*
X002850Y-000500D02*
D03*
X002670Y-000300D02*
D03*
X003070D02*
D03*
X003390D02*
D03*
X003470D02*
D03*
X003550D02*
D03*
X003750D02*
D03*
X003670D02*
D03*
X004060Y-000230D02*
D03*
X003670D02*
D03*
X003390D02*
D03*
X002590D02*
D03*
X002710D02*
D03*
X002990D02*
D03*
X000560Y-002400D02*
D03*
Y-002220D02*
D03*
X000020Y-001800D02*
D03*
X-000100Y-001920D02*
D03*
Y-001800D02*
D03*
X-000160Y-001860D02*
D03*
X000020Y-001920D02*
D03*
X-000040Y-001860D02*
D03*
X-000220Y-001920D02*
D03*
Y-001800D02*
D03*
X-000280Y-001860D02*
D03*
X-000340Y-001920D02*
D03*
Y-001800D02*
D03*
X003470Y-001990D02*
D03*
X004190Y-002260D02*
D03*
X004070D02*
D03*
X003990D02*
D03*
X003870D02*
D03*
X003670D02*
D03*
X003710Y-002190D02*
D03*
X003590Y-002190D02*
D03*
X003550Y-002260D02*
D03*
X003310D02*
D03*
X002510D02*
D03*
X002670Y-002190D02*
D03*
X002510D02*
D03*
X005650Y-003550D02*
D03*
X005226Y-003574D02*
D03*
Y-003794D02*
D03*
X005640Y-004050D02*
D03*
X005806Y-003444D02*
D03*
X005765Y-003695D02*
D03*
X005850Y-004000D02*
D03*
X000484Y-004024D02*
D03*
X000150Y-004010D02*
D03*
X004220Y-003460D02*
D03*
X003840Y-004010D02*
D03*
X004290D02*
D03*
X004440Y-003370D02*
D03*
X002320Y-000490D02*
D03*
X002150Y-000510D02*
D03*
X002320Y-000820D02*
D03*
X002030Y-000780D02*
D03*
X001840Y-000640D02*
D03*
X002320Y-001150D02*
D03*
X003270Y-003240D02*
D03*
X003350Y-003320D02*
D03*
X003270Y-003400D02*
D03*
X003190Y-003320D02*
D03*
X003510Y-003080D02*
D03*
Y-003560D02*
D03*
X003670Y-003720D02*
D03*
Y-002920D02*
D03*
X003830Y-003880D02*
D03*
Y-002760D02*
D03*
X003030Y-003480D02*
D03*
X003110Y-003080D02*
D03*
X003510Y-003160D02*
D03*
X003430Y-003560D02*
D03*
X003270Y-003720D02*
D03*
X003670Y-003320D02*
D03*
X003270Y-002920D02*
D03*
X000752Y-000638D02*
D03*
X004780Y-004190D02*
D03*
X005000Y-004190D02*
D03*
X005200D02*
D03*
X005420D02*
D03*
X000580Y-004190D02*
D03*
X000800Y-004190D02*
D03*
X001220D02*
D03*
X003986Y-002746D02*
D03*
X001990Y-001150D02*
D03*
X001730D02*
D03*
X002406Y-002656D02*
D03*
X002460Y-000540D02*
D03*
X000770Y-001190D02*
D03*
X000900D02*
D03*
X001390Y-000730D02*
D03*
X001550Y-000740D02*
D03*
X001460Y-000830D02*
D03*
X001570Y-001170D02*
D03*
X001380D02*
D03*
X001680Y-001330D02*
D03*
X001380D02*
D03*
X001100D02*
D03*
Y-001170D02*
D03*
X001170Y-002150D02*
D03*
Y-002360D02*
D03*
X001420Y-002150D02*
D03*
X001620Y-001620D02*
D03*
X000710Y-000500D02*
D03*
X000630D02*
D03*
X000550D02*
D03*
X002870Y-002920D02*
D03*
X002870Y-003320D02*
D03*
X002264Y-002914D02*
D03*
X001890Y-003000D02*
D03*
X002556Y-003924D02*
D03*
X001000Y-004190D02*
D03*
X002710Y-002760D02*
D03*
Y-003880D02*
D03*
X002870Y-003720D02*
D03*
X003030Y-003560D02*
D03*
Y-003080D02*
D03*
X002020Y-004840D02*
D03*
X005320Y-002810D02*
D03*
X005385Y-003220D02*
D03*
X004340Y-001770D02*
D03*
X004690Y-001990D02*
D03*
X004350Y-000140D02*
D03*
X005430Y-000190D02*
D03*
X005520Y-001120D02*
D03*
X003330Y-001090D02*
D03*
X003586Y-001054D02*
D03*
X000088Y-000638D02*
D03*
Y-002738D02*
D03*
Y-003608D02*
D03*
X001450Y-002360D02*
D03*
X003586Y-001274D02*
D03*
M02*
