G04*
G04 #@! TF.GenerationSoftware,Altium Limited,Altium Designer,19.0.15 (446)*
G04*
G04 Layer_Color=32896*
%FSAX42Y42*%
%MOMM*%
G71*
G01*
G75*
%ADD10C,0.25*%
%ADD11C,0.25*%
%ADD12C,0.20*%
%ADD13C,0.50*%
%ADD14C,0.10*%
%ADD15C,0.20*%
%ADD16C,0.15*%
%ADD17C,0.13*%
%ADD158C,0.60*%
%ADD159C,0.40*%
%ADD160R,29.00X6.00*%
D10*
X000775Y-003060D02*
G03*
X000775Y-003060I-000012J000000D01*
G01*
X001210Y-002525D02*
G03*
X001210Y-002525I-000012J000000D01*
G01*
X001034Y-000975D02*
G03*
X001034Y-000975I-000012J000000D01*
G01*
X000367Y-001140D02*
G03*
X000367Y-001140I-000012J000000D01*
G01*
X004008Y-003525D02*
G03*
X004008Y-003525I-000012J000000D01*
G01*
X005437Y-003803D02*
G03*
X005437Y-003803I-000012J000000D01*
G01*
X005617Y-003135D02*
G03*
X005617Y-003135I-000012J000000D01*
G01*
X005917D02*
G03*
X005917Y-003135I-000012J000000D01*
G01*
X005317D02*
G03*
X005317Y-003135I-000012J000000D01*
G01*
Y-002735D02*
G03*
X005317Y-002735I-000012J000000D01*
G01*
X005917D02*
G03*
X005917Y-002735I-000012J000000D01*
G01*
X005617D02*
G03*
X005617Y-002735I-000012J000000D01*
G01*
D11*
X005770Y-003605D02*
G03*
X005770Y-003605I-000010J000000D01*
G01*
X004881Y-001226D02*
G03*
X004881Y-001154I000029J000036D01*
G01*
X004999Y-001190D02*
G03*
X004999Y-001190I-000089J000000D01*
G01*
X005840Y-000895D02*
X005852Y-000901D01*
X005864Y-000913D01*
X005870Y-000932D01*
Y-000944D01*
X005864Y-000962D01*
X005852Y-000974D01*
X005840Y-000980D01*
X005822D01*
X005810Y-000974D01*
X005797Y-000962D01*
X005791Y-000944D01*
Y-000932D01*
X005797Y-000913D01*
X005810Y-000901D01*
X005822Y-000895D01*
X005840D01*
X005764D02*
Y-001022D01*
Y-000913D02*
X005751Y-000901D01*
X005739Y-000895D01*
X005721D01*
X005709Y-000901D01*
X005697Y-000913D01*
X005691Y-000932D01*
Y-000944D01*
X005697Y-000962D01*
X005709Y-000974D01*
X005721Y-000980D01*
X005739D01*
X005751Y-000974D01*
X005764Y-000962D01*
X005664Y-000932D02*
X005591D01*
Y-000920D01*
X005597Y-000907D01*
X005603Y-000901D01*
X005615Y-000895D01*
X005634D01*
X005646Y-000901D01*
X005658Y-000913D01*
X005664Y-000932D01*
Y-000944D01*
X005658Y-000962D01*
X005646Y-000974D01*
X005634Y-000980D01*
X005615D01*
X005603Y-000974D01*
X005591Y-000962D01*
X005564Y-000895D02*
Y-000980D01*
Y-000920D02*
X005546Y-000901D01*
X005534Y-000895D01*
X005516D01*
X005504Y-000901D01*
X005498Y-000920D01*
Y-000980D01*
X005398Y-000913D02*
X005404Y-000901D01*
X005422Y-000895D01*
X005440D01*
X005458Y-000901D01*
X005464Y-000913D01*
X005458Y-000926D01*
X005446Y-000932D01*
X005416Y-000938D01*
X005404Y-000944D01*
X005398Y-000956D01*
Y-000962D01*
X005404Y-000974D01*
X005422Y-000980D01*
X005440D01*
X005458Y-000974D01*
X005464Y-000962D01*
X005371Y-000895D02*
Y-001022D01*
Y-000913D02*
X005359Y-000901D01*
X005347Y-000895D01*
X005329D01*
X005317Y-000901D01*
X005305Y-000913D01*
X005299Y-000932D01*
Y-000944D01*
X005305Y-000962D01*
X005317Y-000974D01*
X005329Y-000980D01*
X005347D01*
X005359Y-000974D01*
X005371Y-000962D01*
X005271Y-000932D02*
X005199D01*
Y-000920D01*
X005205Y-000907D01*
X005211Y-000901D01*
X005223Y-000895D01*
X005241D01*
X005253Y-000901D01*
X005265Y-000913D01*
X005271Y-000932D01*
Y-000944D01*
X005265Y-000962D01*
X005253Y-000974D01*
X005241Y-000980D01*
X005223D01*
X005211Y-000974D01*
X005199Y-000962D01*
X005172Y-000932D02*
X005099D01*
Y-000920D01*
X005105Y-000907D01*
X005111Y-000901D01*
X005123Y-000895D01*
X005141D01*
X005154Y-000901D01*
X005166Y-000913D01*
X005172Y-000932D01*
Y-000944D01*
X005166Y-000962D01*
X005154Y-000974D01*
X005141Y-000980D01*
X005123D01*
X005111Y-000974D01*
X005099Y-000962D01*
X004999Y-000913D02*
X005011Y-000901D01*
X005024Y-000895D01*
X005042D01*
X005054Y-000901D01*
X005066Y-000913D01*
X005072Y-000932D01*
Y-000944D01*
X005066Y-000962D01*
X005054Y-000974D01*
X005042Y-000980D01*
X005024D01*
X005011Y-000974D01*
X004999Y-000962D01*
X004972Y-000853D02*
Y-000980D01*
Y-000920D02*
X004954Y-000901D01*
X004942Y-000895D01*
X004924D01*
X004912Y-000901D01*
X004906Y-000920D01*
Y-000980D01*
X004872Y-000895D02*
Y-001022D01*
Y-000913D02*
X004860Y-000901D01*
X004848Y-000895D01*
X004830D01*
X004818Y-000901D01*
X004806Y-000913D01*
X004800Y-000932D01*
Y-000944D01*
X004806Y-000962D01*
X004818Y-000974D01*
X004830Y-000980D01*
X004848D01*
X004860Y-000974D01*
X004872Y-000962D01*
X004773Y-000853D02*
Y-000980D01*
X004673Y-000895D02*
Y-000980D01*
Y-000913D02*
X004686Y-000901D01*
X004698Y-000895D01*
X004716D01*
X004728Y-000901D01*
X004740Y-000913D01*
X004746Y-000932D01*
Y-000944D01*
X004740Y-000962D01*
X004728Y-000974D01*
X004716Y-000980D01*
X004698D01*
X004686Y-000974D01*
X004673Y-000962D01*
X004621Y-000853D02*
Y-000956D01*
X004615Y-000974D01*
X004603Y-000980D01*
X004591D01*
X004640Y-000895D02*
X004597D01*
X004525Y-000853D02*
X004537D01*
X004549Y-000859D01*
X004555Y-000877D01*
Y-000980D01*
X004573Y-000895D02*
X004531D01*
X004476D02*
X004488Y-000901D01*
X004501Y-000913D01*
X004507Y-000932D01*
Y-000944D01*
X004501Y-000962D01*
X004488Y-000974D01*
X004476Y-000980D01*
X004458D01*
X004446Y-000974D01*
X004434Y-000962D01*
X004428Y-000944D01*
Y-000932D01*
X004434Y-000913D01*
X004446Y-000901D01*
X004458Y-000895D01*
X004476D01*
X004400D02*
Y-000980D01*
Y-000932D02*
X004394Y-000913D01*
X004382Y-000901D01*
X004370Y-000895D01*
X004352D01*
X004340D02*
Y-000980D01*
Y-000920D02*
X004322Y-000901D01*
X004310Y-000895D01*
X004292D01*
X004280Y-000901D01*
X004274Y-000920D01*
Y-000980D01*
Y-000920D02*
X004256Y-000901D01*
X004244Y-000895D01*
X004225D01*
X004213Y-000901D01*
X004207Y-000920D01*
Y-000980D01*
X004161Y-000968D02*
X004167Y-000974D01*
X004161Y-000980D01*
X004155Y-000974D01*
X004161Y-000968D01*
X004127Y-000895D02*
Y-000956D01*
X004121Y-000974D01*
X004109Y-000980D01*
X004091D01*
X004079Y-000974D01*
X004061Y-000956D01*
Y-000895D02*
Y-000980D01*
X003955Y-000913D02*
X003967Y-000901D01*
X003979Y-000895D01*
X003997D01*
X004010Y-000901D01*
X004022Y-000913D01*
X004028Y-000932D01*
Y-000944D01*
X004022Y-000962D01*
X004010Y-000974D01*
X003997Y-000980D01*
X003979D01*
X003967Y-000974D01*
X003955Y-000962D01*
X003861Y-000913D02*
X003867Y-000901D01*
X003886Y-000895D01*
X003904D01*
X003922Y-000901D01*
X003928Y-000913D01*
X003922Y-000926D01*
X003910Y-000932D01*
X003880Y-000938D01*
X003867Y-000944D01*
X003861Y-000956D01*
Y-000962D01*
X003867Y-000974D01*
X003886Y-000980D01*
X003904D01*
X003922Y-000974D01*
X003928Y-000962D01*
X003762Y-000853D02*
Y-000980D01*
Y-000913D02*
X003774Y-000901D01*
X003786Y-000895D01*
X003805D01*
X003817Y-000901D01*
X003829Y-000913D01*
X003835Y-000932D01*
Y-000944D01*
X003829Y-000962D01*
X003817Y-000974D01*
X003805Y-000980D01*
X003786D01*
X003774Y-000974D01*
X003762Y-000962D01*
X003722Y-000968D02*
X003728Y-000974D01*
X003722Y-000980D01*
X003716Y-000974D01*
X003722Y-000968D01*
X003688Y-000932D02*
X003616D01*
Y-000920D01*
X003622Y-000907D01*
X003628Y-000901D01*
X003640Y-000895D01*
X003658D01*
X003670Y-000901D01*
X003682Y-000913D01*
X003688Y-000932D01*
Y-000944D01*
X003682Y-000962D01*
X003670Y-000974D01*
X003658Y-000980D01*
X003640D01*
X003628Y-000974D01*
X003616Y-000962D01*
X003516Y-000853D02*
Y-000980D01*
Y-000913D02*
X003528Y-000901D01*
X003540Y-000895D01*
X003558D01*
X003571Y-000901D01*
X003583Y-000913D01*
X003589Y-000932D01*
Y-000944D01*
X003583Y-000962D01*
X003571Y-000974D01*
X003558Y-000980D01*
X003540D01*
X003528Y-000974D01*
X003516Y-000962D01*
X003482Y-000895D02*
Y-000956D01*
X003476Y-000974D01*
X003464Y-000980D01*
X003446D01*
X003434Y-000974D01*
X003416Y-000956D01*
Y-000895D02*
Y-000980D01*
X005834Y-000613D02*
X005846Y-000619D01*
X005858Y-000631D01*
X005864Y-000643D01*
X005870Y-000661D01*
Y-000692D01*
X005864Y-000710D01*
X005858Y-000722D01*
X005846Y-000734D01*
X005834Y-000740D01*
X005810D01*
X005797Y-000734D01*
X005785Y-000722D01*
X005779Y-000710D01*
X005773Y-000692D01*
Y-000661D01*
X005779Y-000643D01*
X005785Y-000631D01*
X005797Y-000619D01*
X005810Y-000613D01*
X005834D01*
X005659Y-000631D02*
X005671Y-000619D01*
X005689Y-000613D01*
X005713D01*
X005732Y-000619D01*
X005744Y-000631D01*
Y-000643D01*
X005738Y-000655D01*
X005732Y-000661D01*
X005719Y-000667D01*
X005683Y-000680D01*
X005671Y-000686D01*
X005665Y-000692D01*
X005659Y-000704D01*
Y-000722D01*
X005671Y-000734D01*
X005689Y-000740D01*
X005713D01*
X005732Y-000734D01*
X005744Y-000722D01*
X005631Y-000680D02*
X005576D01*
X005558Y-000673D01*
X005552Y-000667D01*
X005546Y-000655D01*
Y-000637D01*
X005552Y-000625D01*
X005558Y-000619D01*
X005576Y-000613D01*
X005631D01*
Y-000740D01*
X005517Y-000782D02*
X005421D01*
X005314Y-000643D02*
X005320Y-000631D01*
X005332Y-000619D01*
X005344Y-000613D01*
X005368D01*
X005380Y-000619D01*
X005392Y-000631D01*
X005398Y-000643D01*
X005404Y-000661D01*
Y-000692D01*
X005398Y-000710D01*
X005392Y-000722D01*
X005380Y-000734D01*
X005368Y-000740D01*
X005344D01*
X005332Y-000734D01*
X005320Y-000722D01*
X005314Y-000710D01*
X005206Y-000655D02*
Y-000740D01*
Y-000673D02*
X005218Y-000661D01*
X005230Y-000655D01*
X005248D01*
X005260Y-000661D01*
X005272Y-000673D01*
X005278Y-000692D01*
Y-000704D01*
X005272Y-000722D01*
X005260Y-000734D01*
X005248Y-000740D01*
X005230D01*
X005218Y-000734D01*
X005206Y-000722D01*
X005172Y-000655D02*
Y-000740D01*
Y-000692D02*
X005166Y-000673D01*
X005154Y-000661D01*
X005141Y-000655D01*
X005123D01*
X005112D02*
Y-000740D01*
Y-000692D02*
X005106Y-000673D01*
X005094Y-000661D01*
X005082Y-000655D01*
X005063D01*
X005040Y-000613D02*
X005034Y-000619D01*
X005028Y-000613D01*
X005034Y-000607D01*
X005040Y-000613D01*
X005034Y-000655D02*
Y-000740D01*
X005005Y-000692D02*
X004933D01*
Y-000680D01*
X004939Y-000667D01*
X004945Y-000661D01*
X004957Y-000655D01*
X004975D01*
X004987Y-000661D01*
X004999Y-000673D01*
X005005Y-000692D01*
Y-000704D01*
X004999Y-000722D01*
X004987Y-000734D01*
X004975Y-000740D01*
X004957D01*
X004945Y-000734D01*
X004933Y-000722D01*
X004906Y-000655D02*
Y-000740D01*
Y-000692D02*
X004900Y-000673D01*
X004887Y-000661D01*
X004875Y-000655D01*
X004857D01*
X004746Y-000613D02*
X004698Y-000740D01*
X004649Y-000613D02*
X004698Y-000740D01*
X004548Y-000613D02*
X004609Y-000740D01*
X004633Y-000613D02*
X004548D01*
X004514Y-000728D02*
X004520Y-000734D01*
X004514Y-000740D01*
X004508Y-000734D01*
X004514Y-000728D01*
X004444Y-000613D02*
X004462Y-000619D01*
X004474Y-000637D01*
X004480Y-000667D01*
Y-000686D01*
X004474Y-000716D01*
X004462Y-000734D01*
X004444Y-000740D01*
X004432D01*
X004413Y-000734D01*
X004401Y-000716D01*
X004395Y-000686D01*
Y-000667D01*
X004401Y-000637D01*
X004413Y-000619D01*
X004432Y-000613D01*
X004444D01*
X005779Y-001153D02*
X005785Y-001141D01*
X005797Y-001129D01*
X005810Y-001123D01*
X005834D01*
X005846Y-001129D01*
X005858Y-001141D01*
X005864Y-001153D01*
X005870Y-001171D01*
Y-001202D01*
X005864Y-001220D01*
X005858Y-001232D01*
X005846Y-001244D01*
X005834Y-001250D01*
X005810D01*
X005797Y-001244D01*
X005785Y-001232D01*
X005779Y-001220D01*
X005713Y-001165D02*
X005725Y-001171D01*
X005738Y-001183D01*
X005744Y-001202D01*
Y-001214D01*
X005738Y-001232D01*
X005725Y-001244D01*
X005713Y-001250D01*
X005695D01*
X005683Y-001244D01*
X005671Y-001232D01*
X005665Y-001214D01*
Y-001202D01*
X005671Y-001183D01*
X005683Y-001171D01*
X005695Y-001165D01*
X005713D01*
X005637D02*
Y-001292D01*
Y-001183D02*
X005625Y-001171D01*
X005613Y-001165D01*
X005595D01*
X005583Y-001171D01*
X005571Y-001183D01*
X005565Y-001202D01*
Y-001214D01*
X005571Y-001232D01*
X005583Y-001244D01*
X005595Y-001250D01*
X005613D01*
X005625Y-001244D01*
X005637Y-001232D01*
X005531Y-001165D02*
X005495Y-001250D01*
X005459Y-001165D02*
X005495Y-001250D01*
X005507Y-001274D01*
X005519Y-001286D01*
X005531Y-001292D01*
X005537D01*
X005438Y-001165D02*
Y-001250D01*
Y-001202D02*
X005432Y-001183D01*
X005420Y-001171D01*
X005407Y-001165D01*
X005389D01*
X005366Y-001123D02*
X005360Y-001129D01*
X005354Y-001123D01*
X005360Y-001117D01*
X005366Y-001123D01*
X005360Y-001165D02*
Y-001250D01*
X005259Y-001165D02*
Y-001262D01*
X005265Y-001280D01*
X005271Y-001286D01*
X005283Y-001292D01*
X005301D01*
X005313Y-001286D01*
X005259Y-001183D02*
X005271Y-001171D01*
X005283Y-001165D01*
X005301D01*
X005313Y-001171D01*
X005325Y-001183D01*
X005331Y-001202D01*
Y-001214D01*
X005325Y-001232D01*
X005313Y-001244D01*
X005301Y-001250D01*
X005283D01*
X005271Y-001244D01*
X005259Y-001232D01*
X005225Y-001123D02*
Y-001250D01*
Y-001190D02*
X005207Y-001171D01*
X005195Y-001165D01*
X005176D01*
X005164Y-001171D01*
X005158Y-001190D01*
Y-001250D01*
X005107Y-001123D02*
Y-001226D01*
X005101Y-001244D01*
X005089Y-001250D01*
X005077D01*
X005125Y-001165D02*
X005083D01*
X004753Y-001153D02*
Y-001147D01*
X004747Y-001135D01*
X004741Y-001129D01*
X004729Y-001123D01*
X004705D01*
X004693Y-001129D01*
X004687Y-001135D01*
X004681Y-001147D01*
Y-001159D01*
X004687Y-001171D01*
X004699Y-001190D01*
X004759Y-001250D01*
X004675D01*
X004610Y-001123D02*
X004628Y-001129D01*
X004640Y-001147D01*
X004646Y-001177D01*
Y-001196D01*
X004640Y-001226D01*
X004628Y-001244D01*
X004610Y-001250D01*
X004598D01*
X004580Y-001244D01*
X004568Y-001226D01*
X004562Y-001196D01*
Y-001177D01*
X004568Y-001147D01*
X004580Y-001129D01*
X004598Y-001123D01*
X004610D01*
X004533Y-001147D02*
X004521Y-001141D01*
X004503Y-001123D01*
Y-001250D01*
X004410Y-001123D02*
X004428Y-001129D01*
X004434Y-001141D01*
Y-001153D01*
X004428Y-001165D01*
X004416Y-001171D01*
X004392Y-001177D01*
X004374Y-001183D01*
X004361Y-001196D01*
X004355Y-001208D01*
Y-001226D01*
X004361Y-001238D01*
X004367Y-001244D01*
X004386Y-001250D01*
X004410D01*
X004428Y-001244D01*
X004434Y-001238D01*
X004440Y-001226D01*
Y-001208D01*
X004434Y-001196D01*
X004422Y-001183D01*
X004404Y-001177D01*
X004380Y-001171D01*
X004367Y-001165D01*
X004361Y-001153D01*
Y-001141D01*
X004367Y-001129D01*
X004386Y-001123D01*
X004410D01*
X004227D02*
Y-001214D01*
X004221Y-001232D01*
X004209Y-001244D01*
X004191Y-001250D01*
X004179D01*
X004161Y-001244D01*
X004149Y-001232D01*
X004143Y-001214D01*
Y-001123D01*
X004017Y-001153D02*
X004023Y-001141D01*
X004035Y-001129D01*
X004047Y-001123D01*
X004071D01*
X004083Y-001129D01*
X004095Y-001141D01*
X004101Y-001153D01*
X004107Y-001171D01*
Y-001202D01*
X004101Y-001220D01*
X004095Y-001232D01*
X004083Y-001244D01*
X004071Y-001250D01*
X004047D01*
X004035Y-001244D01*
X004023Y-001232D01*
X004017Y-001220D01*
X003896Y-001141D02*
X003909Y-001129D01*
X003927Y-001123D01*
X003951D01*
X003969Y-001129D01*
X003981Y-001141D01*
Y-001153D01*
X003975Y-001165D01*
X003969Y-001171D01*
X003957Y-001177D01*
X003921Y-001190D01*
X003909Y-001196D01*
X003903Y-001202D01*
X003896Y-001214D01*
Y-001232D01*
X003909Y-001244D01*
X003927Y-001250D01*
X003951D01*
X003969Y-001244D01*
X003981Y-001232D01*
X003868Y-001123D02*
Y-001250D01*
Y-001123D02*
X003826D01*
X003808Y-001129D01*
X003796Y-001141D01*
X003789Y-001153D01*
X003783Y-001171D01*
Y-001202D01*
X003789Y-001220D01*
X003796Y-001232D01*
X003808Y-001244D01*
X003826Y-001250D01*
X003868D01*
X003655Y-001268D02*
X003571Y-001123D01*
X003420D02*
Y-001250D01*
X003462Y-001123D02*
X003378D01*
X003363D02*
Y-001250D01*
X003278Y-001123D02*
Y-001250D01*
X003363Y-001183D02*
X003278D01*
X003164Y-001123D02*
X003243D01*
Y-001250D01*
X003164D01*
X003243Y-001183D02*
X003195D01*
X003143Y-001292D02*
X003046D01*
X003030Y-001123D02*
Y-001250D01*
X002957D01*
X002871Y-001165D02*
Y-001250D01*
Y-001183D02*
X002883Y-001171D01*
X002895Y-001165D01*
X002913D01*
X002925Y-001171D01*
X002938Y-001183D01*
X002944Y-001202D01*
Y-001214D01*
X002938Y-001232D01*
X002925Y-001244D01*
X002913Y-001250D01*
X002895D01*
X002883Y-001244D01*
X002871Y-001232D01*
X002837Y-001123D02*
Y-001250D01*
Y-001183D02*
X002825Y-001171D01*
X002813Y-001165D01*
X002795D01*
X002783Y-001171D01*
X002771Y-001183D01*
X002765Y-001202D01*
Y-001214D01*
X002771Y-001232D01*
X002783Y-001244D01*
X002795Y-001250D01*
X002813D01*
X002825Y-001244D01*
X002837Y-001232D01*
D12*
X000850Y-003035D02*
X000950D01*
X000850Y-002725D02*
X000950D01*
X000850Y-003035D02*
Y-002725D01*
X000950Y-003035D02*
Y-002725D01*
X001230Y-002710D02*
Y-002610D01*
Y-002710D02*
X001308D01*
X001530D02*
Y-002610D01*
X001453Y-002710D02*
X001530D01*
X001047Y-001088D02*
X001547D01*
X001047Y-001407D02*
X001547D01*
X001047D02*
Y-001088D01*
X001547Y-001407D02*
Y-001088D01*
X000255Y-001155D02*
X000998D01*
Y-001202D02*
Y-001155D01*
X000255Y-001295D02*
Y-001155D01*
X000998Y-001485D02*
Y-001438D01*
X000255Y-001295D02*
X000274D01*
Y-001155D01*
Y-001485D02*
Y-001345D01*
X000255D02*
X000274D01*
X000255Y-001485D02*
X000998D01*
X000255D02*
Y-001345D01*
X000590Y-001370D02*
Y-001270D01*
Y-001320D02*
X000660Y-001280D01*
X000590Y-001320D02*
X000660Y-001370D01*
Y-001280D01*
X000580Y-001320D02*
X000590D01*
X000660D02*
X000680D01*
X000440Y-001110D02*
X000540D01*
Y-001030D01*
X000440Y-000810D02*
X000540D01*
Y-000890D02*
Y-000810D01*
X000045Y-000195D02*
X000788D01*
Y-000242D02*
Y-000195D01*
X000045Y-000335D02*
Y-000195D01*
X000788Y-000525D02*
Y-000478D01*
X000045Y-000335D02*
X000064D01*
Y-000195D01*
Y-000525D02*
Y-000385D01*
X000045D02*
X000064D01*
X000045Y-000525D02*
X000788D01*
X000045D02*
Y-000385D01*
X000380Y-000410D02*
Y-000310D01*
Y-000360D02*
X000450Y-000320D01*
X000380Y-000360D02*
X000450Y-000410D01*
Y-000320D01*
X000370Y-000360D02*
X000380D01*
X000450D02*
X000470D01*
X004225Y-003688D02*
X004260D01*
Y-003588D01*
X004040Y-003688D02*
X004075D01*
X004040D02*
Y-003588D01*
X005610Y-003547D02*
Y-003470D01*
X005510D02*
X005610D01*
Y-003770D02*
Y-003692D01*
X005510Y-003770D02*
X005610D01*
X001390Y-004950D02*
X001440D01*
X001390Y-004830D02*
X001440D01*
X001370Y-004450D02*
X001440D01*
X001430Y-004610D02*
X001440Y-004610D01*
X001370Y-004540D02*
Y-004370D01*
X000900Y-004200D02*
X001280D01*
X000520D02*
X000900D01*
X000430Y-004540D02*
Y-004370D01*
X000360Y-004610D02*
X000370Y-004610D01*
X000360Y-004450D02*
X000430D01*
X000360Y-004830D02*
X000410D01*
X000360Y-004950D02*
X000410D01*
X004560D02*
X004610D01*
X004560Y-004830D02*
X004610D01*
X004560Y-004450D02*
X004630D01*
X004560Y-004610D02*
X004570Y-004610D01*
X004630Y-004540D02*
Y-004370D01*
X004720Y-004200D02*
X005100D01*
X005480D01*
X005570Y-004540D02*
Y-004370D01*
X005630Y-004610D02*
X005640Y-004610D01*
X005570Y-004450D02*
X005640D01*
X005590Y-004830D02*
X005640D01*
X005590Y-004950D02*
X005640D01*
X005340Y-002973D02*
X005375D01*
X005340Y-003073D02*
Y-002973D01*
X005525D02*
X005560D01*
Y-003073D02*
Y-002973D01*
X005640D02*
X005675D01*
X005640Y-003073D02*
Y-002973D01*
X005825D02*
X005860D01*
Y-003073D02*
Y-002973D01*
X005040D02*
X005075D01*
X005040Y-003073D02*
Y-002973D01*
X005225D02*
X005260D01*
Y-003073D02*
Y-002973D01*
X005040Y-002573D02*
X005075D01*
X005040Y-002673D02*
Y-002573D01*
X005225D02*
X005260D01*
Y-002673D02*
Y-002573D01*
X005640D02*
X005675D01*
X005640Y-002673D02*
Y-002573D01*
X005825D02*
X005860D01*
Y-002673D02*
Y-002573D01*
X005340D02*
X005375D01*
X005340Y-002673D02*
Y-002573D01*
X005525D02*
X005560D01*
Y-002673D02*
Y-002573D01*
D13*
X004340Y-000468D02*
G03*
X004340Y-000468I-000010J000000D01*
G01*
Y-002428D02*
G03*
X004340Y-002428I-000010J000000D01*
G01*
Y-000468D02*
G03*
X004340Y-000468I-000010J000000D01*
G01*
Y-002428D02*
G03*
X004340Y-002428I-000010J000000D01*
G01*
D14*
X005780Y-003655D02*
Y-003615D01*
Y-003775D02*
Y-003735D01*
X005940Y-003655D02*
Y-003615D01*
Y-003775D02*
Y-003735D01*
X002360Y-000418D02*
Y-000118D01*
X002490D01*
X002360Y-000418D02*
X002490D01*
X004290Y-000118D02*
X004420D01*
Y-000418D02*
Y-000118D01*
X004290Y-000418D02*
X004420D01*
X002360Y-002378D02*
Y-002078D01*
X002490D01*
X002360Y-002378D02*
X002490D01*
X004290Y-002078D02*
X004420D01*
Y-002378D02*
Y-002078D01*
X004290Y-002378D02*
X004420D01*
X001740Y-002498D02*
Y000002D01*
Y-002498D02*
X006000D01*
Y000002D01*
X001740D02*
X006000D01*
X002360Y-000418D02*
Y-000118D01*
X002490D01*
X002360Y-000418D02*
X002490D01*
X004290Y-000118D02*
X004420D01*
Y-000418D02*
Y-000118D01*
X004290Y-000418D02*
X004420D01*
X004290Y-002378D02*
X004420D01*
Y-002078D01*
X004290D02*
X004420D01*
X002360Y-002378D02*
X002490D01*
X002360Y-002078D02*
X002490D01*
X002360Y-002378D02*
Y-002078D01*
D15*
X000068Y-004340D02*
X000170D01*
X000068D02*
X000170Y-004379D01*
X000068Y-004417D02*
X000170Y-004379D01*
X000068Y-004417D02*
X000170D01*
X000068Y-004446D02*
X000170D01*
X000093Y-004540D02*
X000083Y-004535D01*
X000073Y-004526D01*
X000068Y-004516D01*
Y-004497D01*
X000073Y-004487D01*
X000083Y-004477D01*
X000093Y-004473D01*
X000107Y-004468D01*
X000131D01*
X000146Y-004473D01*
X000155Y-004477D01*
X000165Y-004487D01*
X000170Y-004497D01*
Y-004516D01*
X000165Y-004526D01*
X000155Y-004535D01*
X000146Y-004540D01*
X000068Y-004649D02*
X000170D01*
X000068D02*
Y-004692D01*
X000073Y-004707D01*
X000078Y-004711D01*
X000088Y-004716D01*
X000097D01*
X000107Y-004711D01*
X000112Y-004707D01*
X000117Y-004692D01*
Y-004649D01*
Y-004682D02*
X000170Y-004716D01*
X005828Y-004340D02*
X005930D01*
X005828D02*
X005930Y-004379D01*
X005828Y-004417D02*
X005930Y-004379D01*
X005828Y-004417D02*
X005930D01*
X005828Y-004446D02*
X005930D01*
X005853Y-004540D02*
X005843Y-004535D01*
X005833Y-004526D01*
X005828Y-004516D01*
Y-004497D01*
X005833Y-004487D01*
X005843Y-004477D01*
X005853Y-004473D01*
X005867Y-004468D01*
X005891D01*
X005906Y-004473D01*
X005915Y-004477D01*
X005925Y-004487D01*
X005930Y-004497D01*
Y-004516D01*
X005925Y-004526D01*
X005915Y-004535D01*
X005906Y-004540D01*
X005828Y-004649D02*
X005930D01*
Y-004707D01*
D16*
X000650Y-003030D02*
X000670D01*
Y-002830D01*
X000650D02*
X000670D01*
X000570D02*
X000590D01*
X000570Y-003030D02*
Y-002830D01*
Y-003030D02*
X000590D01*
X001210D02*
X001230D01*
Y-002830D01*
X001210D02*
X001230D01*
X001130D02*
X001150D01*
X001130Y-003030D02*
Y-002830D01*
Y-003030D02*
X001150D01*
X001140Y-002670D02*
X001160D01*
Y-002470D01*
X001140D02*
X001160D01*
X001060D02*
X001080D01*
X001060Y-002670D02*
Y-002470D01*
Y-002670D02*
X001080D01*
X001020D02*
X001040D01*
Y-002470D01*
X001020D02*
X001040D01*
X000940D02*
X000960D01*
X000940Y-002670D02*
Y-002470D01*
Y-002670D02*
X000960D01*
X001570Y-002470D02*
X001590D01*
X001570Y-002670D02*
Y-002470D01*
Y-002670D02*
X001590D01*
X001650D02*
X001670D01*
Y-002470D01*
X001650D02*
X001670D01*
X001300Y-001850D02*
Y-001630D01*
X001540Y-001850D02*
Y-001820D01*
X001060Y-001850D02*
X001540D01*
X001060D02*
Y-001820D01*
Y-001660D02*
Y-001630D01*
X001540D01*
Y-001660D02*
Y-001630D01*
X001057Y-002110D02*
X001282D01*
X001057Y-001873D02*
X001082D01*
X001057Y-002348D02*
Y-001873D01*
Y-002348D02*
X001082D01*
X001257D02*
X001282D01*
Y-001873D01*
X001257D02*
X001282D01*
X001307Y-002110D02*
X001532D01*
X001307Y-001873D02*
X001332D01*
X001307Y-002348D02*
Y-001873D01*
Y-002348D02*
X001332D01*
X001507D02*
X001532D01*
Y-001873D01*
X001507D02*
X001532D01*
X001570Y-001830D02*
X001590D01*
X001570D02*
Y-001630D01*
X001590D01*
X001650D02*
X001670D01*
Y-001830D02*
Y-001630D01*
X001650Y-001830D02*
X001670D01*
X001180Y-000780D02*
Y-000760D01*
X001380D01*
Y-000780D02*
Y-000760D01*
Y-000860D02*
Y-000840D01*
X001180Y-000860D02*
X001380D01*
X001180D02*
Y-000840D01*
X001160Y-000860D02*
Y-000840D01*
X000960Y-000860D02*
X001160D01*
X000960D02*
Y-000840D01*
Y-000780D02*
Y-000760D01*
X001160D01*
Y-000780D02*
Y-000760D01*
X000978Y-000886D02*
X000991D01*
Y-001114D02*
Y-000886D01*
X000978Y-001114D02*
X000991D01*
X000889D02*
X000902D01*
X000889D02*
Y-000886D01*
X000902D01*
X000889Y-001000D02*
X000991D01*
X000440Y-000772D02*
Y-000547D01*
X000203Y-000772D02*
Y-000747D01*
Y-000772D02*
X000678D01*
Y-000747D01*
Y-000572D02*
Y-000547D01*
X000203D02*
X000678D01*
X000203Y-000572D02*
Y-000547D01*
X000320Y-003960D02*
Y-003930D01*
X000040Y-003960D02*
X000320D01*
X000040D02*
Y-003930D01*
Y-003850D02*
Y-003820D01*
X000320D01*
Y-003850D02*
Y-003820D01*
X000180Y-003960D02*
Y-003820D01*
X002900Y-003540D02*
X002920D01*
X002900D02*
Y-003340D01*
X002920D01*
X002980D02*
X003000D01*
Y-003540D02*
Y-003340D01*
X002980Y-003540D02*
X003000D01*
X002890Y-003130D02*
Y-003110D01*
X003090D01*
Y-003130D02*
Y-003110D01*
Y-003210D02*
Y-003190D01*
X002890Y-003210D02*
X003090D01*
X002890D02*
Y-003190D01*
X003050Y-002970D02*
Y-002950D01*
X003250D01*
Y-002970D02*
Y-002950D01*
Y-003050D02*
Y-003030D01*
X003050Y-003050D02*
X003250D01*
X003050D02*
Y-003030D01*
X003460Y-002940D02*
X003480D01*
Y-003140D02*
Y-002940D01*
X003460Y-003140D02*
X003480D01*
X003380D02*
X003400D01*
X003380D02*
Y-002940D01*
X003400D01*
X003490Y-003690D02*
Y-003670D01*
X003290Y-003690D02*
X003490D01*
X003290D02*
Y-003670D01*
Y-003610D02*
Y-003590D01*
X003490D01*
Y-003610D02*
Y-003590D01*
X003060Y-003700D02*
X003080D01*
X003060D02*
Y-003500D01*
X003080D01*
X003140D02*
X003160D01*
Y-003700D02*
Y-003500D01*
X003140Y-003700D02*
X003160D01*
X005320Y-003430D02*
X005340D01*
Y-003630D02*
Y-003430D01*
X005320Y-003630D02*
X005340D01*
X005240D02*
X005260D01*
X005240D02*
Y-003430D01*
X005260D01*
X005320Y-003650D02*
X005340D01*
Y-003850D02*
Y-003650D01*
X005320Y-003850D02*
X005340D01*
X005240D02*
X005260D01*
X005240D02*
Y-003650D01*
X005260D01*
X002250Y-002870D02*
Y-002850D01*
Y-002870D02*
X002450D01*
Y-002850D01*
Y-002790D02*
Y-002770D01*
X002250D02*
X002450D01*
X002250Y-002790D02*
Y-002770D01*
X004578Y-003246D02*
X004591D01*
Y-003474D02*
Y-003246D01*
X004578Y-003474D02*
X004591D01*
X004489D02*
X004502D01*
X004489D02*
Y-003246D01*
X004502D01*
X004489Y-003360D02*
X004591D01*
X004614Y-003601D02*
Y-003588D01*
X004386Y-003601D02*
X004614D01*
X004386D02*
Y-003588D01*
Y-003512D02*
Y-003499D01*
X004614D01*
Y-003512D02*
Y-003499D01*
X004500Y-003601D02*
Y-003499D01*
X004614Y-003721D02*
Y-003708D01*
X004386Y-003721D02*
X004614D01*
X004386D02*
Y-003708D01*
Y-003632D02*
Y-003619D01*
X004614D01*
Y-003632D02*
Y-003619D01*
X004500Y-003721D02*
Y-003619D01*
Y-003841D02*
Y-003739D01*
X004614Y-003752D02*
Y-003739D01*
X004386D02*
X004614D01*
X004386Y-003752D02*
Y-003739D01*
Y-003841D02*
Y-003828D01*
Y-003841D02*
X004614D01*
Y-003828D01*
X004208Y-003776D02*
X004221D01*
Y-004004D02*
Y-003776D01*
X004208Y-004004D02*
X004221D01*
X004119D02*
X004132D01*
X004119D02*
Y-003776D01*
X004132D01*
X004119Y-003890D02*
X004221D01*
X004070Y-003770D02*
X004090D01*
Y-003970D02*
Y-003770D01*
X004070Y-003970D02*
X004090D01*
X003990D02*
X004010D01*
X003990D02*
Y-003770D01*
X004010D01*
X005440Y-003870D02*
Y-003840D01*
X005720D01*
Y-003870D02*
Y-003840D01*
Y-003980D02*
Y-003950D01*
X005440Y-003980D02*
X005720D01*
X005440D02*
Y-003950D01*
X005580Y-003980D02*
Y-003840D01*
X005299Y-004104D02*
X005312D01*
X005299D02*
Y-003876D01*
X005312D01*
X005388D02*
X005401D01*
Y-004104D02*
Y-003876D01*
X005388Y-004104D02*
X005401D01*
X005299Y-003990D02*
X005401D01*
X000346Y-003802D02*
Y-003789D01*
X000574D01*
Y-003802D02*
Y-003789D01*
Y-003891D02*
Y-003878D01*
X000346Y-003891D02*
X000574D01*
X000346D02*
Y-003878D01*
X000460Y-003891D02*
Y-003789D01*
X005620Y-004100D02*
Y-004080D01*
X005420Y-004100D02*
X005620D01*
X005420D02*
Y-004080D01*
Y-004020D02*
Y-004000D01*
X005620D01*
Y-004020D02*
Y-004000D01*
X000540Y-004010D02*
Y-003990D01*
X000340Y-004010D02*
X000540D01*
X000340D02*
Y-003990D01*
Y-003930D02*
Y-003910D01*
X000540D01*
Y-003930D02*
Y-003910D01*
X003650Y-003410D02*
Y-003390D01*
X003450Y-003410D02*
X003650D01*
X003450D02*
Y-003390D01*
Y-003330D02*
Y-003310D01*
X003650D01*
Y-003330D02*
Y-003310D01*
X003540Y-003300D02*
X003560D01*
X003540D02*
Y-003100D01*
X003560D01*
X003620D02*
X003640D01*
Y-003300D02*
Y-003100D01*
X003620Y-003300D02*
X003640D01*
X002890Y-003250D02*
Y-003230D01*
X003090D01*
Y-003250D02*
Y-003230D01*
Y-003330D02*
Y-003310D01*
X002890Y-003330D02*
X003090D01*
X002890D02*
Y-003310D01*
X003450Y-003450D02*
Y-003430D01*
X003650D01*
Y-003450D02*
Y-003430D01*
Y-003530D02*
Y-003510D01*
X003450Y-003530D02*
X003650D01*
X003450D02*
Y-003510D01*
X003180Y-003700D02*
X003200D01*
X003180D02*
Y-003500D01*
X003200D01*
X003260D02*
X003280D01*
Y-003700D02*
Y-003500D01*
X003260Y-003700D02*
X003280D01*
X003340Y-002940D02*
X003360D01*
Y-003140D02*
Y-002940D01*
X003340Y-003140D02*
X003360D01*
X003260D02*
X003280D01*
X003260D02*
Y-002940D01*
X003280D01*
X003300Y-003580D02*
X003320D01*
X003300D02*
Y-003380D01*
X003320D01*
X003380D02*
X003400D01*
Y-003580D02*
Y-003380D01*
X003380Y-003580D02*
X003400D01*
X003220Y-003060D02*
X003240D01*
Y-003260D02*
Y-003060D01*
X003220Y-003260D02*
X003240D01*
X003140D02*
X003160D01*
X003140D02*
Y-003060D01*
X003160D01*
X003010Y-003370D02*
Y-003350D01*
X003210D01*
Y-003370D02*
Y-003350D01*
Y-003450D02*
Y-003430D01*
X003010Y-003450D02*
X003210D01*
X003010D02*
Y-003430D01*
X003530Y-003210D02*
Y-003190D01*
X003330D02*
X003530D01*
X003330Y-003210D02*
Y-003190D01*
Y-003290D02*
Y-003270D01*
Y-003290D02*
X003530D01*
Y-003270D01*
X005950Y-003480D02*
Y-003460D01*
X005750D02*
X005950D01*
X005750Y-003480D02*
Y-003460D01*
Y-003560D02*
Y-003540D01*
Y-003560D02*
X005950D01*
Y-003540D01*
X005960Y-003820D02*
Y-003800D01*
X005760D02*
X005960D01*
X005760Y-003820D02*
Y-003800D01*
Y-003900D02*
Y-003880D01*
Y-003900D02*
X005960D01*
Y-003880D01*
X002130Y-002970D02*
X002150D01*
X002130D02*
Y-002770D01*
X002150D01*
X002210D02*
X002230D01*
Y-002970D02*
Y-002770D01*
X002210Y-002970D02*
X002230D01*
X002090Y-002770D02*
X002110D01*
Y-002970D02*
Y-002770D01*
X002090Y-002970D02*
X002110D01*
X002010D02*
X002030D01*
X002010D02*
Y-002770D01*
X002030D01*
X001970Y-002970D02*
X001990D01*
Y-002770D01*
X001970D02*
X001990D01*
X001890D02*
X001910D01*
X001890Y-002970D02*
Y-002770D01*
Y-002970D02*
X001910D01*
D17*
X000243Y-004210D02*
G03*
X000243Y-004210I-000093J000000D01*
G01*
X005943Y-004208D02*
G03*
X005943Y-004208I-000093J000000D01*
G01*
X004310Y-000389D02*
X004315Y-000392D01*
X004322Y-000399D01*
Y-000348D01*
X004312Y-000177D02*
Y-000179D01*
X004315Y-000184D01*
X004317Y-000186D01*
X004322Y-000189D01*
X004332D01*
X004337Y-000186D01*
X004339Y-000184D01*
X004341Y-000179D01*
Y-000174D01*
X004339Y-000169D01*
X004334Y-000162D01*
X004310Y-000138D01*
X004344D01*
X002412Y-000399D02*
X002405Y-000396D01*
X002402Y-000392D01*
Y-000387D01*
X002405Y-000382D01*
X002410Y-000379D01*
X002419Y-000377D01*
X002427Y-000375D01*
X002431Y-000370D01*
X002434Y-000365D01*
Y-000358D01*
X002431Y-000353D01*
X002429Y-000350D01*
X002422Y-000348D01*
X002412D01*
X002405Y-000350D01*
X002402Y-000353D01*
X002400Y-000358D01*
Y-000365D01*
X002402Y-000370D01*
X002407Y-000375D01*
X002415Y-000377D01*
X002424Y-000379D01*
X002429Y-000382D01*
X002431Y-000387D01*
Y-000392D01*
X002429Y-000396D01*
X002422Y-000399D01*
X002412D01*
X002477Y-000382D02*
X002474Y-000375D01*
X002469Y-000370D01*
X002462Y-000367D01*
X002460D01*
X002452Y-000370D01*
X002448Y-000375D01*
X002445Y-000382D01*
Y-000384D01*
X002448Y-000392D01*
X002452Y-000396D01*
X002460Y-000399D01*
X002462D01*
X002469Y-000396D01*
X002474Y-000392D01*
X002477Y-000382D01*
Y-000370D01*
X002474Y-000358D01*
X002469Y-000350D01*
X002462Y-000348D01*
X002457D01*
X002450Y-000350D01*
X002448Y-000355D01*
X002431Y-000172D02*
X002429Y-000165D01*
X002424Y-000160D01*
X002417Y-000157D01*
X002415D01*
X002407Y-000160D01*
X002402Y-000165D01*
X002400Y-000172D01*
Y-000174D01*
X002402Y-000182D01*
X002407Y-000186D01*
X002415Y-000189D01*
X002417D01*
X002424Y-000186D01*
X002429Y-000182D01*
X002431Y-000172D01*
Y-000160D01*
X002429Y-000148D01*
X002424Y-000140D01*
X002417Y-000138D01*
X002412D01*
X002405Y-000140D01*
X002402Y-000145D01*
X002460Y-000189D02*
X002452Y-000186D01*
X002448Y-000179D01*
X002445Y-000167D01*
Y-000160D01*
X002448Y-000148D01*
X002452Y-000140D01*
X002460Y-000138D01*
X002465D01*
X002472Y-000140D01*
X002477Y-000148D01*
X002479Y-000160D01*
Y-000167D01*
X002477Y-000179D01*
X002472Y-000186D01*
X002465Y-000189D01*
X002460D01*
X004310Y-002349D02*
X004315Y-002352D01*
X004322Y-002359D01*
Y-002308D01*
X004312Y-002137D02*
Y-002139D01*
X004315Y-002144D01*
X004317Y-002146D01*
X004322Y-002149D01*
X004332D01*
X004337Y-002146D01*
X004339Y-002144D01*
X004341Y-002139D01*
Y-002134D01*
X004339Y-002129D01*
X004334Y-002122D01*
X004310Y-002098D01*
X004344D01*
X002412Y-002359D02*
X002405Y-002356D01*
X002402Y-002352D01*
Y-002347D01*
X002405Y-002342D01*
X002410Y-002339D01*
X002419Y-002337D01*
X002427Y-002335D01*
X002431Y-002330D01*
X002434Y-002325D01*
Y-002318D01*
X002431Y-002313D01*
X002429Y-002310D01*
X002422Y-002308D01*
X002412D01*
X002405Y-002310D01*
X002402Y-002313D01*
X002400Y-002318D01*
Y-002325D01*
X002402Y-002330D01*
X002407Y-002335D01*
X002415Y-002337D01*
X002424Y-002339D01*
X002429Y-002342D01*
X002431Y-002347D01*
Y-002352D01*
X002429Y-002356D01*
X002422Y-002359D01*
X002412D01*
X002477Y-002342D02*
X002474Y-002335D01*
X002469Y-002330D01*
X002462Y-002327D01*
X002460D01*
X002452Y-002330D01*
X002448Y-002335D01*
X002445Y-002342D01*
Y-002344D01*
X002448Y-002352D01*
X002452Y-002356D01*
X002460Y-002359D01*
X002462D01*
X002469Y-002356D01*
X002474Y-002352D01*
X002477Y-002342D01*
Y-002330D01*
X002474Y-002318D01*
X002469Y-002310D01*
X002462Y-002308D01*
X002457D01*
X002450Y-002310D01*
X002448Y-002315D01*
X002431Y-002132D02*
X002429Y-002125D01*
X002424Y-002120D01*
X002417Y-002117D01*
X002415D01*
X002407Y-002120D01*
X002402Y-002125D01*
X002400Y-002132D01*
Y-002134D01*
X002402Y-002142D01*
X002407Y-002146D01*
X002415Y-002149D01*
X002417D01*
X002424Y-002146D01*
X002429Y-002142D01*
X002431Y-002132D01*
Y-002120D01*
X002429Y-002108D01*
X002424Y-002100D01*
X002417Y-002098D01*
X002412D01*
X002405Y-002100D01*
X002402Y-002105D01*
X002460Y-002149D02*
X002452Y-002146D01*
X002448Y-002139D01*
X002445Y-002127D01*
Y-002120D01*
X002448Y-002108D01*
X002452Y-002100D01*
X002460Y-002098D01*
X002465D01*
X002472Y-002100D01*
X002477Y-002108D01*
X002479Y-002120D01*
Y-002127D01*
X002477Y-002139D01*
X002472Y-002146D01*
X002465Y-002149D01*
X002460D01*
X003384Y-000289D02*
Y-000250D01*
X003382Y-000243D01*
X003379Y-000240D01*
X003375Y-000238D01*
X003370D01*
X003365Y-000240D01*
X003362Y-000243D01*
X003360Y-000250D01*
Y-000255D01*
X003397Y-000279D02*
X003402Y-000282D01*
X003409Y-000289D01*
Y-000238D01*
X004310Y-000389D02*
X004315Y-000392D01*
X004322Y-000399D01*
Y-000348D01*
X004312Y-000177D02*
Y-000179D01*
X004315Y-000184D01*
X004317Y-000186D01*
X004322Y-000189D01*
X004332D01*
X004337Y-000186D01*
X004339Y-000184D01*
X004341Y-000179D01*
Y-000174D01*
X004339Y-000169D01*
X004334Y-000162D01*
X004310Y-000138D01*
X004344D01*
X002412Y-000399D02*
X002405Y-000396D01*
X002402Y-000392D01*
Y-000387D01*
X002405Y-000382D01*
X002410Y-000379D01*
X002419Y-000377D01*
X002427Y-000375D01*
X002431Y-000370D01*
X002434Y-000365D01*
Y-000358D01*
X002431Y-000353D01*
X002429Y-000350D01*
X002422Y-000348D01*
X002412D01*
X002405Y-000350D01*
X002402Y-000353D01*
X002400Y-000358D01*
Y-000365D01*
X002402Y-000370D01*
X002407Y-000375D01*
X002415Y-000377D01*
X002424Y-000379D01*
X002429Y-000382D01*
X002431Y-000387D01*
Y-000392D01*
X002429Y-000396D01*
X002422Y-000399D01*
X002412D01*
X002477Y-000382D02*
X002474Y-000375D01*
X002469Y-000370D01*
X002462Y-000367D01*
X002460D01*
X002452Y-000370D01*
X002448Y-000375D01*
X002445Y-000382D01*
Y-000384D01*
X002448Y-000392D01*
X002452Y-000396D01*
X002460Y-000399D01*
X002462D01*
X002469Y-000396D01*
X002474Y-000392D01*
X002477Y-000382D01*
Y-000370D01*
X002474Y-000358D01*
X002469Y-000350D01*
X002462Y-000348D01*
X002457D01*
X002450Y-000350D01*
X002448Y-000355D01*
X002431Y-000172D02*
X002429Y-000165D01*
X002424Y-000160D01*
X002417Y-000157D01*
X002415D01*
X002407Y-000160D01*
X002402Y-000165D01*
X002400Y-000172D01*
Y-000174D01*
X002402Y-000182D01*
X002407Y-000186D01*
X002415Y-000189D01*
X002417D01*
X002424Y-000186D01*
X002429Y-000182D01*
X002431Y-000172D01*
Y-000160D01*
X002429Y-000148D01*
X002424Y-000140D01*
X002417Y-000138D01*
X002412D01*
X002405Y-000140D01*
X002402Y-000145D01*
X002460Y-000189D02*
X002452Y-000186D01*
X002448Y-000179D01*
X002445Y-000167D01*
Y-000160D01*
X002448Y-000148D01*
X002452Y-000140D01*
X002460Y-000138D01*
X002465D01*
X002472Y-000140D01*
X002477Y-000148D01*
X002479Y-000160D01*
Y-000167D01*
X002477Y-000179D01*
X002472Y-000186D01*
X002465Y-000189D01*
X002460D01*
X002431Y-002132D02*
X002429Y-002125D01*
X002424Y-002120D01*
X002417Y-002117D01*
X002415D01*
X002407Y-002120D01*
X002402Y-002125D01*
X002400Y-002132D01*
Y-002134D01*
X002402Y-002142D01*
X002407Y-002146D01*
X002415Y-002149D01*
X002417D01*
X002424Y-002146D01*
X002429Y-002142D01*
X002431Y-002132D01*
Y-002120D01*
X002429Y-002108D01*
X002424Y-002100D01*
X002417Y-002098D01*
X002412D01*
X002405Y-002100D01*
X002402Y-002105D01*
X002460Y-002149D02*
X002452Y-002146D01*
X002448Y-002139D01*
X002445Y-002127D01*
Y-002120D01*
X002448Y-002108D01*
X002452Y-002100D01*
X002460Y-002098D01*
X002465D01*
X002472Y-002100D01*
X002477Y-002108D01*
X002479Y-002120D01*
Y-002127D01*
X002477Y-002139D01*
X002472Y-002146D01*
X002465Y-002149D01*
X002460D01*
X002412Y-002359D02*
X002405Y-002356D01*
X002402Y-002352D01*
Y-002347D01*
X002405Y-002342D01*
X002410Y-002339D01*
X002419Y-002337D01*
X002427Y-002335D01*
X002431Y-002330D01*
X002434Y-002325D01*
Y-002318D01*
X002431Y-002313D01*
X002429Y-002310D01*
X002422Y-002308D01*
X002412D01*
X002405Y-002310D01*
X002402Y-002313D01*
X002400Y-002318D01*
Y-002325D01*
X002402Y-002330D01*
X002407Y-002335D01*
X002415Y-002337D01*
X002424Y-002339D01*
X002429Y-002342D01*
X002431Y-002347D01*
Y-002352D01*
X002429Y-002356D01*
X002422Y-002359D01*
X002412D01*
X002477Y-002342D02*
X002474Y-002335D01*
X002469Y-002330D01*
X002462Y-002327D01*
X002460D01*
X002452Y-002330D01*
X002448Y-002335D01*
X002445Y-002342D01*
Y-002344D01*
X002448Y-002352D01*
X002452Y-002356D01*
X002460Y-002359D01*
X002462D01*
X002469Y-002356D01*
X002474Y-002352D01*
X002477Y-002342D01*
Y-002330D01*
X002474Y-002318D01*
X002469Y-002310D01*
X002462Y-002308D01*
X002457D01*
X002450Y-002310D01*
X002448Y-002315D01*
X004312Y-002137D02*
Y-002139D01*
X004315Y-002144D01*
X004317Y-002146D01*
X004322Y-002149D01*
X004332D01*
X004337Y-002146D01*
X004339Y-002144D01*
X004341Y-002139D01*
Y-002134D01*
X004339Y-002129D01*
X004334Y-002122D01*
X004310Y-002098D01*
X004344D01*
X004310Y-002349D02*
X004315Y-002352D01*
X004322Y-002359D01*
Y-002308D01*
X003374Y-002249D02*
Y-002210D01*
X003372Y-002203D01*
X003369Y-002200D01*
X003365Y-002198D01*
X003360D01*
X003355Y-002200D01*
X003352Y-002203D01*
X003350Y-002210D01*
Y-002215D01*
X003390Y-002237D02*
Y-002239D01*
X003392Y-002244D01*
X003395Y-002246D01*
X003399Y-002249D01*
X003409D01*
X003414Y-002246D01*
X003416Y-002244D01*
X003419Y-002239D01*
Y-002234D01*
X003416Y-002229D01*
X003411Y-002222D01*
X003387Y-002198D01*
X003421D01*
D158*
X001177Y-001188D02*
G03*
X001177Y-001188I-000030J000000D01*
G01*
D159*
X000630Y-002090D02*
X000790D01*
X000630Y-001530D02*
X000790D01*
D160*
X004440Y-001640D02*
D03*
M02*
