M48
;Layer_Color=9474304
;FILE_FORMAT=4:2
METRIC
;TYPE=PLATED
T1F00S00C0.23
T2F00S00C0.40
T5F00S00C0.90
T6F00S00C1.50
;TYPE=NON_PLATED
T7F00S00C0.60
%
T01
X000090Y-004010
X000150Y-004010
X000484Y-004024
X000580Y-004190
X000800Y-004190
X001000
X001070Y-004160
X001150
X001220Y-004190
X001900Y-004120
X002010Y-004460
X002020Y-004840
X000540Y-003750
X000400Y-003760
X002406Y-003836
X002556Y-003924
X002710Y-003880
X002870Y-003720
X003270Y-003720
X003270Y-003990
X003350
X003410Y-004020
X003470Y-004040
X003840Y-004010
X003830Y-003880
X003940Y-003830
X003980Y-004070
X004290Y-004010
X004470Y-003940
X004730Y-003870
X004810
X004720Y-003770
X004870Y-003700
X005226Y-003706
X005226Y-003794
X005200Y-004190
X005000
X004930Y-004160
X004880Y-004080
X004780Y-004190
X005420Y-004190
X005640Y-004050
X005791Y-004001
X005850Y-004000
X005900Y-003930
X004340Y-003720
X003670Y-003720
X004090Y-004580
X004080Y-003450
X004220Y-003460
X004440Y-003370
X004590Y-003170
X004720Y-003470
Y-003570
X004720Y-003670
X005226Y-003574
X005290Y-003340
X005385Y-003220
X005320Y-002810
X005940Y-002790
Y-002640
Y-002490
X005940Y-002340
X005822Y-002188
X005514Y-002066
X005426Y-002066
X005260Y-002080
X005180
X005153Y-001833
X005040Y-001880
X004780Y-001850
X004730Y-001810
X004690Y-001990
X004710Y-002210
X004912Y-002058
X005050Y-002240
X005370Y-001910
Y-001833
X005425Y-001555
X005110Y-001550
X004405Y-001555
X004430Y-001770
X004340
X003750Y-001810
Y-001990
X003870
X003820Y-001930
X003710Y-002190
X003670Y-002260
X003550
X003590Y-002190
X003270
X003310Y-002260
X003330Y-002490
X003370Y-002550
X003410Y-002610
X003430Y-002920
X003510Y-003000
Y-003080
X003590
X003510Y-003160
X003430
X003270
Y-003240
X003350Y-003320
X003430
Y-003480
X003430Y-003560
X003510
X003590
X003510Y-003640
X003270Y-003480
Y-003400
X003190Y-003320
X003110
Y-003480
X003030
X003030Y-003560
X002950
X003030Y-003640
X002870Y-003320
X002950Y-003080
X003030
X003110Y-003080
X003110Y-003160
X003030Y-003000
X003110Y-002920
X003270
X002870
X002710Y-002760
X002670Y-002640
X002770Y-002650
X002810Y-002590
X002850Y-002530
X002890Y-002470
X002970Y-002500
X003010Y-002550
X003050Y-002610
X003090Y-002670
X003110Y-002190
X003010Y-002200
X002730Y-002260
X002670Y-002190
X002510
Y-002260
X002630Y-001990
Y-001710
X002700Y-001550
Y-001470
X002630Y-001430
X002730Y-001160
X002810Y-001090
X002850Y-001220
X003174Y-001216
X003130Y-001160
Y-001090
X003330Y-001090
X003586Y-001054
X003600Y-000970
X003586Y-001274
X003890Y-001350
X003200Y-001430
X003130Y-001470
Y-001590
Y-001670
X003200Y-001550
X003190Y-001990
X003470
X003650Y-002470
X003690Y-002530
X003730Y-002590
X003770Y-002650
X003870Y-002640
X003830Y-002760
X003986Y-002746
X004020Y-002650
Y-002460
X004090
X004170
X004250
X004190Y-002260
X004070
X003990
X003870
X004060Y-002900
X003670Y-002920
X003670Y-003320
X004430Y-002750
X004410Y-002680
X004460Y-002640
X004490Y-002520
X005940Y-002940
X005940Y-003090
X005894Y-003446
X005806Y-003444
X005650Y-003550
X005765Y-003695
X005805Y-001765
X005520Y-001120
X005430Y-000190
X004350Y-000140
X004250Y-000280
X004170
X004060Y-000230
X004090Y-000500
X004170
X004250
X003870Y-000500
X003750Y-000300
X003670
Y-000230
X003550Y-000300
X003470
X003390
Y-000230
X003430Y-000510
X003510
X003030Y-000650
X003010Y-000720
X002970Y-000600
X002850Y-000500
X002820Y-000300
X002880
X002930Y-000260
X002990Y-000230
X003070Y-000300
X002770Y-000260
X002710Y-000230
X002670Y-000300
X002590Y-000230
X002530Y-000500
X002460Y-000540
X002320Y-000490
X002150Y-000510
X002320Y-000820
X002550Y-000900
X002540Y-001090
X002320Y-001150
X002700Y-000780
X002340Y-001910
X002180Y-002510
X002406Y-002656
X002400Y-002730
X002264Y-002914
X001890Y-003000
X001940Y-002750
X001590Y-002680
X001720Y-002530
X001450Y-002360
X001420Y-002150
X001370Y-002060
X001470
X001220
X001120
X001170Y-002150
Y-002360
X000920Y-002400
X000920Y-002520
X000990Y-002680
X001110
X001116Y-002886
X001254Y-002974
X001316
X001380Y-002840
X000685Y-002785
X000554Y-002886
X000556Y-002974
X000560Y-002400
Y-002220
X000920
X000020Y-002170
Y-002110
X-000040
Y-002170
X-000100
Y-002110
X-000160
Y-002170
X-000220
Y-002110
X-000280
Y-002170
X-000340
Y-002110
Y-002050
X-000280
X-000220
X-000160
X-000100
X-000040
X000020
Y-001920
Y-001860
X-000040
Y-001920
X-000100
Y-001860
X-000160
Y-001920
X-000220
Y-001860
X-000280
Y-001920
X-000340
Y-001860
Y-001800
X-000280
X-000220
X-000160
X-000100
X-000040
X000020
Y-001670
Y-001610
X-000040
Y-001670
X-000100
Y-001610
X-000160
Y-001670
X-000220
Y-001610
X-000280
Y-001670
X-000340
Y-001610
Y-001550
X-000280
X-000220
X-000160
X-000100
X-000040
X000020
Y-001420
X-000040
Y-001360
X000020
Y-001300
X-000040
X-000100
X-000160
Y-001360
Y-001420
X-000100
Y-001360
X-000220
Y-001420
X-000280
Y-001360
Y-001300
X-000220
X-000340
Y-001360
Y-001420
X000450Y-001050
X000770Y-001190
X000900
X001100Y-001170
Y-001330
X001106Y-001416
X001380Y-001330
Y-001170
X001360Y-001090
X001570Y-001170
X001730Y-001150
X001680Y-001330
X001487Y-001413
X001620Y-001620
X001980Y-001590
X002050Y-001670
X001910Y-001830
X001990Y-001150
X002030Y-000780
X001840Y-000640
X001550Y-000740
X001390Y-000730
X001460Y-000830
X001320Y-000440
X001160Y-000490
X001060Y-000480
X001050Y-000370
X000990Y-000290
X000925Y-000495
X000860Y-000490
X000795Y-000495
X000710Y-000500
X000630
X000550
X000752Y-000638
X000088Y-000638
Y-002738
Y-003608
T02
X000650Y-004514
X000730
X000815
X000770Y-004424
X000860
X000940
X001030
X001070Y-004514
X001150
X000985
X004850
X004930
X005015
X004970Y-004424
X005060
X005140
X005230
X005270Y-004514
X005350
X005185
T05
X000150Y-004210
X005851Y-004208
T06
X005823Y-000181
X001921Y-002317
T07
X000555Y-004310
X001245
X004755
X005445
M30
