G04*
G04 #@! TF.GenerationSoftware,Altium Limited,Altium Designer,19.0.15 (446)*
G04*
G04 Layer_Physical_Order=4*
G04 Layer_Color=16711680*
%FSAX42Y42*%
%MOMM*%
G71*
G01*
G75*
%ADD15C,0.20*%
%ADD19R,0.60X0.75*%
%ADD20R,0.75X0.60*%
%ADD21R,0.60X0.64*%
%ADD23R,0.90X1.00*%
%ADD26R,0.64X0.60*%
%ADD48R,0.65X0.95*%
%ADD108C,0.51*%
%ADD109C,0.64*%
%ADD110C,0.15*%
%ADD111C,0.38*%
%ADD113C,1.45*%
%ADD114C,0.65*%
%ADD115O,1.15X0.65*%
%ADD116C,0.60*%
%ADD117O,1.00X1.60*%
%ADD118O,1.00X2.56*%
%ADD119O,0.90X1.60*%
%ADD120C,2.90*%
%ADD121C,0.46*%
%ADD122R,0.95X0.60*%
%ADD123R,1.15X1.70*%
%ADD124R,1.80X1.30*%
%ADD125R,2.00X6.00*%
%ADD126R,0.60X1.45*%
%ADD127R,2.50X1.70*%
%ADD128R,1.30X1.80*%
%ADD129R,0.90X0.60*%
%ADD130R,0.60X0.55*%
%ADD131R,0.95X0.65*%
%ADD132R,0.50X0.30*%
%ADD133R,0.35X0.60*%
%ADD134R,0.25X0.40*%
%ADD135R,1.40X0.50*%
%ADD136R,0.20X1.14*%
%ADD137C,0.76*%
%ADD138R,4.10X2.00*%
%ADD139R,4.20X2.00*%
G36*
X001759Y-000883D02*
Y-001380D01*
X001515D01*
X001504Y-001372D01*
X001487Y-001369D01*
X001470Y-001372D01*
X001459Y-001380D01*
X001130Y-001380D01*
X001123Y-001375D01*
X001106Y-001372D01*
X001089Y-001375D01*
X001082Y-001380D01*
X001050D01*
Y-001120D01*
X001300D01*
Y-001086D01*
X001310Y-001077D01*
X001317Y-001087D01*
X001316Y-001090D01*
X001319Y-001107D01*
X001329Y-001121D01*
X001343Y-001131D01*
X001360Y-001134D01*
X001377Y-001131D01*
X001391Y-001121D01*
X001401Y-001107D01*
X001404Y-001090D01*
X001402Y-001081D01*
X001410Y-001068D01*
X001410D01*
Y-000882D01*
X001320D01*
X001311Y-000871D01*
X001310Y-000869D01*
X001311Y-000867D01*
X001311D01*
Y-000810D01*
Y-000753D01*
X001300D01*
Y-000691D01*
X001567D01*
X001759Y-000883D01*
D02*
G37*
G36*
X002638Y-002660D02*
X002643Y-002667D01*
X002655Y-002676D01*
X002670Y-002679D01*
X002685Y-002676D01*
X002697Y-002667D01*
X002702Y-002660D01*
X002733Y-002660D01*
X002734Y-002665D01*
X002743Y-002677D01*
X002755Y-002686D01*
X002770Y-002689D01*
X002785Y-002686D01*
X002797Y-002677D01*
X002806Y-002665D01*
X002807Y-002660D01*
X002850Y-002660D01*
X002950Y-002760D01*
X002991Y-002760D01*
X002998Y-002767D01*
X003000Y-002779D01*
Y-002790D01*
X003000Y-002940D01*
X002991Y-002949D01*
X002890Y-003050D01*
Y-003273D01*
X002877Y-003283D01*
X002870Y-003281D01*
X002855Y-003284D01*
X002843Y-003293D01*
X002834Y-003305D01*
X002831Y-003320D01*
X002834Y-003335D01*
X002843Y-003347D01*
X002855Y-003356D01*
X002870Y-003359D01*
X002872Y-003358D01*
X002890Y-003377D01*
Y-003590D01*
X003000Y-003700D01*
X003223D01*
X003233Y-003713D01*
X003231Y-003720D01*
X003234Y-003735D01*
X003243Y-003747D01*
X003255Y-003756D01*
X003270Y-003759D01*
X003285Y-003756D01*
X003297Y-003747D01*
X003306Y-003735D01*
X003309Y-003720D01*
X003308Y-003715D01*
X003323Y-003700D01*
X003540D01*
X003650Y-003590D01*
Y-003367D01*
X003663Y-003357D01*
X003670Y-003359D01*
X003685Y-003356D01*
X003697Y-003347D01*
X003706Y-003335D01*
X003709Y-003320D01*
X003706Y-003305D01*
X003697Y-003293D01*
X003685Y-003284D01*
X003670Y-003281D01*
X003668Y-003282D01*
X003650Y-003263D01*
Y-003050D01*
X003540Y-002940D01*
X003477D01*
X003467Y-002927D01*
X003469Y-002920D01*
X003466Y-002905D01*
X003457Y-002893D01*
X003445Y-002884D01*
X003430Y-002881D01*
X003415Y-002884D01*
X003403Y-002893D01*
X003394Y-002905D01*
X003391Y-002920D01*
X003393Y-002927D01*
X003383Y-002940D01*
X003317D01*
X003307Y-002927D01*
X003309Y-002920D01*
X003306Y-002905D01*
X003297Y-002893D01*
X003285Y-002884D01*
X003270Y-002881D01*
X003255Y-002884D01*
X003243Y-002893D01*
X003234Y-002905D01*
X003231Y-002920D01*
X003232Y-002922D01*
X003213Y-002940D01*
X003157D01*
X003147Y-002927D01*
X003149Y-002920D01*
X003146Y-002905D01*
X003137Y-002893D01*
X003125Y-002884D01*
X003110Y-002881D01*
X003095Y-002884D01*
X003083Y-002893D01*
X003074Y-002905D01*
X003071Y-002920D01*
X003073Y-002927D01*
X003063Y-002940D01*
X003000D01*
X003000Y-002779D01*
Y-002760D01*
X003791Y-002760D01*
X003794Y-002775D01*
X003803Y-002787D01*
X003815Y-002796D01*
X003830Y-002799D01*
X003845Y-002796D01*
X003857Y-002787D01*
X003866Y-002775D01*
X003869Y-002760D01*
X003950D01*
X003950Y-002761D01*
X003959Y-002773D01*
X003971Y-002782D01*
X003986Y-002785D01*
X004001Y-002782D01*
X004013Y-002773D01*
X004022Y-002761D01*
X004022Y-002760D01*
X004050D01*
X004500Y-003210D01*
Y-003250D01*
X004495D01*
Y-003311D01*
X004465Y-003341D01*
X004455Y-003334D01*
X004440Y-003331D01*
X004425Y-003334D01*
X004413Y-003343D01*
X004404Y-003355D01*
X004401Y-003370D01*
X004404Y-003385D01*
X004413Y-003397D01*
X004425Y-003406D01*
X004440Y-003409D01*
X004455Y-003406D01*
X004467Y-003397D01*
X004469Y-003396D01*
X004472D01*
X004482Y-003394D01*
X004482Y-003394D01*
X004495Y-003401D01*
Y-003470D01*
X004500D01*
Y-003495D01*
X004455D01*
Y-003550D01*
X004442D01*
Y-003563D01*
X004380D01*
Y-003605D01*
X004380D01*
Y-003614D01*
X004380D01*
Y-003657D01*
X004442D01*
Y-003682D01*
X004380D01*
Y-003725D01*
X004380D01*
Y-003735D01*
X004380D01*
Y-003777D01*
X004442D01*
Y-003790D01*
X004455D01*
Y-003845D01*
X004500D01*
Y-003953D01*
X004359Y-004094D01*
X003841D01*
X003638Y-003892D01*
X003630Y-003886D01*
X003620Y-003884D01*
X003350D01*
X003340Y-003886D01*
X003332Y-003892D01*
X003272Y-003952D01*
X003270Y-003951D01*
X003255Y-003954D01*
X003243Y-003963D01*
X003234Y-003975D01*
X003231Y-003990D01*
X003233Y-003997D01*
X003223Y-004010D01*
X002350D01*
X002350Y-002877D01*
X002381D01*
Y-002820D01*
X002394D01*
D01*
X002381D01*
Y-002763D01*
X002350D01*
X002350Y-002674D01*
X002361Y-002664D01*
X002369Y-002666D01*
X002370Y-002671D01*
X002379Y-002683D01*
X002391Y-002692D01*
X002406Y-002695D01*
X002421Y-002692D01*
X002433Y-002683D01*
X002442Y-002671D01*
X002444Y-002660D01*
X002638Y-002660D01*
D02*
G37*
%LPC*%
G36*
X001379Y-000753D02*
X001337D01*
Y-000797D01*
X001379D01*
Y-000753D01*
D02*
G37*
G36*
Y-000823D02*
X001337D01*
Y-000867D01*
X001379D01*
Y-000823D01*
D02*
G37*
G36*
X001542Y-000877D02*
X001500D01*
Y-000962D01*
X001542D01*
Y-000877D01*
D02*
G37*
G36*
X001474D02*
X001432D01*
Y-000962D01*
X001474D01*
Y-000877D01*
D02*
G37*
G36*
X001542Y-000988D02*
X001500D01*
Y-001073D01*
X001542D01*
Y-000988D01*
D02*
G37*
G36*
X001474D02*
X001432D01*
Y-001073D01*
X001474D01*
Y-000988D01*
D02*
G37*
G36*
X002710Y-002721D02*
X002695Y-002724D01*
X002683Y-002733D01*
X002674Y-002745D01*
X002671Y-002760D01*
X002674Y-002775D01*
X002683Y-002787D01*
X002695Y-002796D01*
X002710Y-002799D01*
X002725Y-002796D01*
X002737Y-002787D01*
X002746Y-002775D01*
X002749Y-002760D01*
X002746Y-002745D01*
X002737Y-002733D01*
X002725Y-002724D01*
X002710Y-002721D01*
D02*
G37*
G36*
X002449Y-002763D02*
X002407D01*
Y-002807D01*
X002449D01*
Y-002763D01*
D02*
G37*
G36*
Y-002833D02*
X002407D01*
Y-002877D01*
X002449D01*
Y-002833D01*
D02*
G37*
G36*
X003670Y-002881D02*
X003655Y-002884D01*
X003643Y-002893D01*
X003634Y-002905D01*
X003631Y-002920D01*
X003634Y-002935D01*
X003643Y-002947D01*
X003655Y-002956D01*
X003670Y-002959D01*
X003685Y-002956D01*
X003697Y-002947D01*
X003706Y-002935D01*
X003709Y-002920D01*
X003706Y-002905D01*
X003697Y-002893D01*
X003685Y-002884D01*
X003670Y-002881D01*
D02*
G37*
G36*
X002870D02*
X002855Y-002884D01*
X002843Y-002893D01*
X002834Y-002905D01*
X002831Y-002920D01*
X002834Y-002935D01*
X002843Y-002947D01*
X002855Y-002956D01*
X002870Y-002959D01*
X002885Y-002956D01*
X002897Y-002947D01*
X002906Y-002935D01*
X002909Y-002920D01*
X002906Y-002905D01*
X002897Y-002893D01*
X002885Y-002884D01*
X002870Y-002881D01*
D02*
G37*
G36*
X004430Y-003495D02*
X004380D01*
Y-003537D01*
X004430D01*
Y-003495D01*
D02*
G37*
G36*
X004220Y-003421D02*
X004205Y-003424D01*
X004193Y-003433D01*
X004184Y-003445D01*
X004181Y-003460D01*
X004184Y-003472D01*
X004177Y-003485D01*
X004170D01*
Y-003570D01*
X004260D01*
Y-003485D01*
X004260Y-003485D01*
X004256Y-003472D01*
X004259Y-003460D01*
X004256Y-003445D01*
X004247Y-003433D01*
X004235Y-003424D01*
X004220Y-003421D01*
D02*
G37*
G36*
X004080Y-003411D02*
X004065Y-003414D01*
X004053Y-003423D01*
X004044Y-003435D01*
X004041Y-003450D01*
X004044Y-003465D01*
X004049Y-003472D01*
X004042Y-003485D01*
X004040D01*
Y-003570D01*
X004130D01*
Y-003485D01*
X004113D01*
X004111Y-003472D01*
X004116Y-003465D01*
X004119Y-003450D01*
X004116Y-003435D01*
X004107Y-003423D01*
X004095Y-003414D01*
X004080Y-003411D01*
D02*
G37*
G36*
X003670Y-003681D02*
X003655Y-003684D01*
X003643Y-003693D01*
X003634Y-003705D01*
X003631Y-003720D01*
X003634Y-003735D01*
X003643Y-003747D01*
X003655Y-003756D01*
X003670Y-003759D01*
X003685Y-003756D01*
X003697Y-003747D01*
X003706Y-003735D01*
X003709Y-003720D01*
X003706Y-003705D01*
X003697Y-003693D01*
X003685Y-003684D01*
X003670Y-003681D01*
D02*
G37*
G36*
X002870D02*
X002855Y-003684D01*
X002843Y-003693D01*
X002834Y-003705D01*
X002831Y-003720D01*
X002834Y-003735D01*
X002843Y-003747D01*
X002855Y-003756D01*
X002870Y-003759D01*
X002885Y-003756D01*
X002897Y-003747D01*
X002906Y-003735D01*
X002909Y-003720D01*
X002906Y-003705D01*
X002897Y-003693D01*
X002885Y-003684D01*
X002870Y-003681D01*
D02*
G37*
G36*
X004195Y-003670D02*
X004105D01*
Y-003755D01*
X004127D01*
Y-003780D01*
X004125D01*
Y-003803D01*
X004087D01*
Y-003781D01*
X003993D01*
Y-003807D01*
X003970D01*
X003967Y-003803D01*
X003955Y-003794D01*
X003940Y-003791D01*
X003925Y-003794D01*
X003913Y-003803D01*
X003904Y-003815D01*
X003901Y-003830D01*
X003904Y-003845D01*
X003913Y-003857D01*
X003918Y-003861D01*
X003915Y-003874D01*
X003868D01*
X003866Y-003865D01*
X003857Y-003853D01*
X003845Y-003844D01*
X003830Y-003841D01*
X003815Y-003844D01*
X003803Y-003853D01*
X003794Y-003865D01*
X003791Y-003880D01*
X003794Y-003895D01*
X003803Y-003907D01*
X003815Y-003916D01*
X003830Y-003919D01*
X003832Y-003918D01*
X003840Y-003924D01*
X003850Y-003926D01*
X003993D01*
Y-003959D01*
X004087D01*
Y-003849D01*
X004125D01*
Y-003885D01*
X004115D01*
Y-003935D01*
X004170D01*
X004225D01*
Y-003885D01*
X004215D01*
Y-003780D01*
X004173D01*
Y-003755D01*
X004195D01*
Y-003670D01*
D02*
G37*
G36*
X004430Y-003803D02*
X004380D01*
Y-003845D01*
X004430D01*
Y-003803D01*
D02*
G37*
G36*
X002710Y-003841D02*
X002695Y-003844D01*
X002683Y-003853D01*
X002674Y-003865D01*
X002671Y-003880D01*
X002674Y-003895D01*
X002683Y-003907D01*
X002695Y-003916D01*
X002710Y-003919D01*
X002725Y-003916D01*
X002737Y-003907D01*
X002746Y-003895D01*
X002749Y-003880D01*
X002746Y-003865D01*
X002737Y-003853D01*
X002725Y-003844D01*
X002710Y-003841D01*
D02*
G37*
G36*
X002556Y-003885D02*
X002541Y-003888D01*
X002529Y-003897D01*
X002520Y-003909D01*
X002517Y-003924D01*
X002520Y-003939D01*
X002529Y-003951D01*
X002541Y-003960D01*
X002556Y-003963D01*
X002571Y-003960D01*
X002583Y-003951D01*
X002592Y-003939D01*
X002595Y-003924D01*
X002592Y-003909D01*
X002583Y-003897D01*
X002571Y-003888D01*
X002556Y-003885D01*
D02*
G37*
G36*
X004225Y-003960D02*
X004183D01*
Y-004010D01*
X004225D01*
Y-003960D01*
D02*
G37*
G36*
X004157D02*
X004115D01*
Y-004010D01*
X004157D01*
Y-003960D01*
D02*
G37*
G36*
X004290Y-003971D02*
X004275Y-003974D01*
X004263Y-003983D01*
X004254Y-003995D01*
X004251Y-004010D01*
X004254Y-004025D01*
X004263Y-004037D01*
X004275Y-004046D01*
X004290Y-004049D01*
X004305Y-004046D01*
X004317Y-004037D01*
X004326Y-004025D01*
X004329Y-004010D01*
X004326Y-003995D01*
X004317Y-003983D01*
X004305Y-003974D01*
X004290Y-003971D01*
D02*
G37*
G36*
X003840D02*
X003825Y-003974D01*
X003813Y-003983D01*
X003804Y-003995D01*
X003801Y-004010D01*
X003804Y-004025D01*
X003813Y-004037D01*
X003825Y-004046D01*
X003840Y-004049D01*
X003855Y-004046D01*
X003867Y-004037D01*
X003876Y-004025D01*
X003879Y-004010D01*
X003876Y-003995D01*
X003867Y-003983D01*
X003855Y-003974D01*
X003840Y-003971D01*
D02*
G37*
%LPD*%
D15*
X002990Y-002200D02*
Y-002180D01*
Y-002220D02*
Y-002200D01*
X004430Y-002750D02*
X004450D01*
X004460Y-002640D02*
X005220Y-003400D01*
X004410Y-002680D02*
X004430Y-002700D01*
X004460D02*
X005170Y-003410D01*
X004430Y-002700D02*
X004460D01*
X004450Y-002750D02*
X005130Y-003430D01*
X005220Y-003400D02*
X005470D01*
X002700Y-001350D02*
X003890D01*
X003190Y-002096D02*
Y-001990D01*
X003270Y-002190D02*
Y-002096D01*
X003110Y-002096D02*
X003110Y-002096D01*
X003110Y-002190D02*
Y-002096D01*
X002990Y-002360D02*
Y-002220D01*
X003010Y-002200D01*
X002990Y-002180D02*
Y-002096D01*
Y-002180D02*
X003010Y-002200D01*
X002990D02*
X003010D01*
X002730Y-002260D02*
X002750Y-002280D01*
Y-002360D02*
Y-002280D01*
X002870Y-000480D02*
Y-000400D01*
X002850Y-000500D02*
X002870Y-000480D01*
X002670Y-000400D02*
Y-000300D01*
X003070D02*
X003070Y-000300D01*
Y-000400D02*
Y-000300D01*
X003380Y-000300D02*
X003390D01*
X003350Y-000330D02*
X003380Y-000300D01*
X003350Y-000400D02*
Y-000330D01*
X003390Y-000400D02*
Y-000300D01*
X003470D02*
X003470Y-000300D01*
Y-000400D02*
Y-000300D01*
X003550Y-000400D02*
Y-000300D01*
X003750Y-000400D02*
Y-000300D01*
X003670Y-000400D02*
Y-000300D01*
X004250Y-000500D02*
X004270Y-000480D01*
Y-000400D01*
X004230Y-000480D02*
X004250Y-000500D01*
X004230Y-000480D02*
Y-000400D01*
X004170Y-000500D02*
X004190Y-000480D01*
Y-000400D01*
X004150Y-000480D02*
X004170Y-000500D01*
X004150Y-000480D02*
Y-000400D01*
X004250Y-000280D02*
X004270Y-000260D01*
Y-000136D01*
X004230Y-000260D02*
X004250Y-000280D01*
X004230Y-000260D02*
Y-000136D01*
X004170Y-000280D02*
X004190Y-000260D01*
Y-000136D01*
X004150Y-000260D02*
X004170Y-000280D01*
X004150Y-000260D02*
Y-000136D01*
X004060Y-000230D02*
X004080D01*
X004110Y-000200D01*
Y-000136D01*
X003670Y-000230D02*
Y-000136D01*
X003390Y-000230D02*
Y-000136D01*
X002590Y-000230D02*
X002590Y-000230D01*
Y-000136D01*
X002820Y-000300D02*
X002830Y-000290D01*
Y-000136D01*
X002870Y-000290D02*
X002880Y-000300D01*
X002870Y-000290D02*
Y-000136D01*
X002770Y-000260D02*
X002790Y-000240D01*
Y-000136D01*
X002910Y-000240D02*
X002930Y-000260D01*
X002910Y-000240D02*
Y-000136D01*
X002710Y-000230D02*
X002730D01*
X002970D02*
X002990D01*
X002730D02*
X002750Y-000210D01*
Y-000136D01*
X002950Y-000210D02*
X002970Y-000230D01*
X002950Y-000210D02*
Y-000136D01*
X003470Y-001990D02*
X003470Y-001990D01*
Y-002096D02*
Y-001990D01*
X004190Y-002360D02*
Y-002260D01*
X004070Y-002360D02*
Y-002260D01*
X003990D02*
X003990Y-002260D01*
Y-002360D02*
Y-002260D01*
X003870Y-002260D02*
X003870Y-002260D01*
Y-002360D02*
Y-002260D01*
X003670Y-002360D02*
Y-002260D01*
X003710Y-002190D02*
Y-002096D01*
X003590Y-002190D02*
X003590Y-002190D01*
Y-002096D01*
X003550Y-002360D02*
Y-002260D01*
X003310Y-002360D02*
Y-002260D01*
X002510Y-002360D02*
Y-002260D01*
X002670Y-002190D02*
Y-002096D01*
X002510Y-002190D02*
Y-002096D01*
X003950Y-002560D02*
Y-002360D01*
X003870Y-002640D02*
X003950Y-002560D01*
X003830Y-002590D02*
Y-002360D01*
X003770Y-002650D02*
X003830Y-002590D01*
X003790Y-002530D02*
Y-002360D01*
X003730Y-002590D02*
X003790Y-002530D01*
X003750Y-002470D02*
Y-002360D01*
X003690Y-002530D02*
X003750Y-002470D01*
X003710Y-002430D02*
Y-002360D01*
X003670Y-002470D02*
X003710Y-002430D01*
X003650Y-002470D02*
X003670D01*
X003430Y-002590D02*
Y-002360D01*
X003410Y-002610D02*
X003430Y-002590D01*
X003350Y-002430D02*
Y-002360D01*
Y-002430D02*
X003390Y-002470D01*
Y-002530D02*
Y-002470D01*
X003370Y-002550D02*
X003390Y-002530D01*
X003270Y-002430D02*
Y-002360D01*
Y-002430D02*
X003330Y-002490D01*
X002590Y-002560D02*
Y-002360D01*
Y-002560D02*
X002670Y-002640D01*
X002950Y-002480D02*
Y-002360D01*
X003030Y-002530D02*
Y-002360D01*
X002710Y-002590D02*
Y-002360D01*
X002830Y-002510D02*
Y-002360D01*
X003070Y-002590D02*
Y-002360D01*
X002790Y-002570D02*
Y-002360D01*
X002910Y-002450D02*
Y-002360D01*
X003110Y-002650D02*
Y-002360D01*
X002950Y-002480D02*
X002970Y-002500D01*
X002890Y-002470D02*
X002910Y-002450D01*
X002830Y-002510D02*
X002850Y-002530D01*
X002790Y-002570D02*
X002810Y-002590D01*
X002710D02*
X002770Y-002650D01*
X003010Y-002550D02*
X003030Y-002530D01*
X003050Y-002610D02*
X003070Y-002590D01*
X003090Y-002670D02*
X003110Y-002650D01*
X005130Y-003890D02*
X005288Y-004047D01*
X005350D01*
X005170Y-003870D02*
X005233Y-003933D01*
X005350D01*
X005425Y-003525D02*
X005445D01*
X005350Y-003933D02*
Y-003930D01*
Y-004047D02*
X005353Y-004050D01*
X005476D01*
X005650Y-003615D02*
Y-003550D01*
Y-003615D02*
X005655Y-003620D01*
X005386Y-003486D02*
X005425Y-003525D01*
X005290Y-003486D02*
X005386D01*
X005226Y-003706D02*
X005290D01*
X005226Y-003574D02*
X005290D01*
X005226Y-003794D02*
X005290D01*
X005416Y-003706D02*
X005425Y-003715D01*
X005290Y-003706D02*
X005416D01*
X005564Y-004050D02*
X005640D01*
X005806Y-003510D02*
Y-003444D01*
Y-003510D02*
X005810Y-003506D01*
X005894Y-003510D02*
Y-003446D01*
X005900Y-003930D02*
X005904Y-003926D01*
Y-003850D01*
X005765Y-003695D02*
X005860D01*
X005832Y-003578D02*
X005910D01*
X005810Y-003600D02*
X005832Y-003578D01*
X005810Y-003630D02*
Y-003600D01*
X005910Y-003578D02*
Y-003526D01*
Y-003630D02*
Y-003578D01*
X005894Y-003510D02*
X005910Y-003526D01*
X005810Y-003760D02*
Y-003700D01*
Y-003844D02*
Y-003760D01*
Y-003844D02*
X005816Y-003850D01*
X005904D02*
X005910Y-003844D01*
Y-003760D01*
X000400Y-003838D02*
X000403Y-003840D01*
X000400Y-003838D02*
Y-003760D01*
X000484Y-004024D02*
Y-003960D01*
X000396D02*
X000403Y-003953D01*
Y-003840D01*
X000297D02*
X000403D01*
X000247Y-003890D02*
X000297Y-003840D01*
X000090Y-003912D02*
X000112Y-003890D01*
X000090Y-004010D02*
Y-003912D01*
X004220Y-003522D02*
Y-003460D01*
X004215Y-003528D02*
X004220Y-003522D01*
X004080Y-003450D02*
X004085Y-003455D01*
Y-003528D02*
Y-003455D01*
X003590Y-003560D02*
Y-003484D01*
X003594Y-003480D01*
X003506Y-003376D02*
X003594Y-003464D01*
X003506Y-003376D02*
X003506Y-003376D01*
X003506Y-003360D02*
X003506Y-003360D01*
X003496Y-003370D02*
X003506Y-003360D01*
X003506Y-003376D02*
Y-003360D01*
Y-003376D02*
Y-003376D01*
X003506Y-003360D02*
Y-003360D01*
Y-003376D02*
Y-003360D01*
X003594Y-003480D02*
Y-003464D01*
X004870Y-003700D02*
X004940Y-003770D01*
Y-003940D02*
Y-003770D01*
X004840Y-004040D02*
X004940Y-003940D01*
X004690Y-004040D02*
X004840D01*
X004150Y-004580D02*
X004690Y-004040D01*
X004090Y-004580D02*
X004150D01*
X004430Y-004240D02*
X004670Y-004000D01*
X003770Y-004240D02*
X004430D01*
X003570Y-004040D02*
X003770Y-004240D01*
X004410Y-004200D02*
X004650Y-003960D01*
X003790Y-004200D02*
X004410D01*
X003580Y-003990D02*
X003790Y-004200D01*
X004390Y-004160D02*
X004630Y-003920D01*
X003810Y-004160D02*
X004390D01*
X003600Y-003950D02*
X003810Y-004160D01*
X004370Y-004120D02*
X004620Y-003870D01*
X003830Y-004120D02*
X004370D01*
X003620Y-003910D02*
X003830Y-004120D01*
X004670Y-004000D02*
X004820D01*
X004650Y-003960D02*
X004800D01*
X004630Y-003920D02*
X004760D01*
X004720Y-003670D02*
X004750D01*
X004900Y-003820D01*
Y-003920D02*
Y-003820D01*
X004820Y-004000D02*
X004900Y-003920D01*
X004720Y-003770D02*
X004790D01*
X004860Y-003840D01*
Y-003900D02*
Y-003840D01*
X004800Y-003960D02*
X004860Y-003900D01*
X004760Y-003920D02*
X004810Y-003870D01*
X004620D02*
X004730D01*
X004558Y-003790D02*
X004578Y-003770D01*
X004720D01*
X004558Y-003670D02*
X004558Y-003670D01*
X004720D01*
X004558Y-003550D02*
X004578Y-003570D01*
X004720D01*
X004540Y-003417D02*
X004592Y-003470D01*
X004720D01*
X004440Y-003370D02*
X004472D01*
X004540Y-003303D01*
X004442Y-003790D02*
Y-003670D01*
Y-003550D01*
X003830Y-003880D02*
X003850Y-003900D01*
X004026D01*
X004040Y-003914D01*
X003434Y-003000D02*
X003510D01*
X003430Y-002996D02*
X003434Y-003000D01*
X003030D02*
X003106D01*
X002950Y-003156D02*
Y-003080D01*
X002946Y-003160D02*
X002950Y-003156D01*
X003590Y-003156D02*
Y-003080D01*
X003434Y-003640D02*
X003510D01*
X003030D02*
X003106D01*
X003110Y-003644D01*
X002950Y-003560D02*
Y-003484D01*
X003074Y-003320D02*
X003110D01*
X003034Y-003280D02*
X003074Y-003320D01*
X003270Y-003124D02*
X003310Y-003084D01*
X003270Y-003160D02*
Y-003124D01*
X003430Y-003320D02*
X003466D01*
X003506Y-003360D01*
X003270Y-003516D02*
Y-003480D01*
X003230Y-003556D02*
X003270Y-003516D01*
X003110Y-003480D02*
X003130Y-003460D01*
Y-003424D01*
X003154Y-003400D01*
X003410Y-003460D02*
X003430Y-003480D01*
X003374Y-003460D02*
X003410D01*
X003350Y-003436D02*
X003374Y-003460D01*
X003110Y-003160D02*
X003130Y-003180D01*
X003166D01*
X003430Y-003180D02*
Y-003160D01*
X003410Y-003200D02*
X003430Y-003180D01*
X003410Y-003216D02*
Y-003200D01*
X003386Y-003240D02*
X003410Y-003216D01*
X003030Y-003156D02*
Y-003080D01*
Y-003156D02*
X003034Y-003160D01*
X003434Y-003080D02*
X003510D01*
X003430Y-003084D02*
X003434Y-003080D01*
X003510Y-003560D02*
Y-003484D01*
X003506Y-003480D02*
X003510Y-003484D01*
X003030Y-003560D02*
X003106D01*
X003110Y-003556D01*
X003030Y-003436D02*
X003066Y-003400D01*
X003030Y-003480D02*
Y-003436D01*
X003154Y-003080D02*
X003190Y-003116D01*
X003110Y-003080D02*
X003154D01*
X003474Y-003240D02*
X003510Y-003204D01*
Y-003160D01*
X003350Y-003524D02*
X003386Y-003560D01*
X003430D01*
X003270Y-003720D02*
Y-003716D01*
X003346Y-003640D01*
X003230Y-003644D02*
X003270Y-003684D01*
Y-003716D02*
Y-003684D01*
X003590Y-003244D02*
X003594D01*
X003670Y-003320D01*
X003594Y-003360D02*
X003634Y-003320D01*
X003670D01*
X003194Y-003000D02*
Y-002996D01*
X003270Y-002920D01*
Y-002956D02*
X003310Y-002996D01*
X003270Y-002956D02*
Y-002920D01*
X002946Y-003396D02*
X002950D01*
X002870Y-003320D02*
X002946Y-003396D01*
X002906Y-003320D02*
X002946Y-003280D01*
X002870Y-003320D02*
X002906D01*
X003350Y-003436D02*
Y-003430D01*
X003220Y-003270D02*
Y-003234D01*
Y-003270D02*
X003270Y-003320D01*
X003380Y-003240D02*
X003386D01*
X003350Y-003270D02*
X003380Y-003240D01*
X003320Y-003270D02*
X003350D01*
X003270Y-003320D02*
X003320Y-003270D01*
X003320Y-003406D02*
X003350Y-003436D01*
X003320Y-003406D02*
Y-003370D01*
X003270Y-003320D02*
X003320Y-003370D01*
X003154Y-003400D02*
X003160D01*
X003190Y-003370D01*
X003220D01*
X003270Y-003320D01*
X003320Y-003370D02*
X003496D01*
X003220Y-003546D02*
Y-003370D01*
Y-003546D02*
X003230Y-003556D01*
X003214D02*
X003230D01*
X003126Y-003644D02*
X003214Y-003556D01*
X003110Y-003644D02*
X003126D01*
X003326Y-003084D02*
X003414Y-002996D01*
X003310Y-003084D02*
X003326D01*
X002946Y-003176D02*
Y-003160D01*
Y-003176D02*
X003034Y-003264D01*
Y-003280D02*
Y-003264D01*
X004780Y-004241D02*
Y-004190D01*
X005000Y-004241D02*
Y-004190D01*
X005200Y-004241D02*
Y-004190D01*
X005420Y-004241D02*
Y-004190D01*
X005375Y-004310D02*
Y-004286D01*
X005420Y-004241D01*
X004825Y-004310D02*
Y-004286D01*
X004780Y-004241D02*
X004825Y-004286D01*
X004925Y-004165D02*
X004930Y-004160D01*
X004925Y-004310D02*
Y-004165D01*
X004875Y-004085D02*
X004880Y-004080D01*
X004875Y-004310D02*
Y-004085D01*
X005225Y-004355D02*
Y-004310D01*
X005215Y-004365D02*
X005225Y-004355D01*
X005029Y-004365D02*
X005215D01*
X004970Y-004424D02*
X005029Y-004365D01*
X000580Y-004241D02*
Y-004190D01*
X000800Y-004241D02*
Y-004190D01*
X001000Y-004241D02*
Y-004190D01*
X001220Y-004241D02*
Y-004190D01*
X000625Y-004310D02*
Y-004286D01*
X000580Y-004241D02*
X000625Y-004286D01*
X001175Y-004310D02*
Y-004286D01*
X001220Y-004241D01*
X001025Y-004355D02*
Y-004310D01*
X001015Y-004365D02*
X001025Y-004355D01*
X000829Y-004365D02*
X001015D01*
X000770Y-004424D02*
X000829Y-004365D01*
X000725Y-004310D02*
Y-004185D01*
X000770Y-004140D01*
X001050D01*
X001070Y-004160D01*
X000675Y-004310D02*
Y-004178D01*
X000753Y-004099D01*
X001089D02*
X001150Y-004160D01*
X003470Y-004040D02*
X003570D01*
X003410Y-004020D02*
X003440Y-003990D01*
X003580D01*
X003350D02*
X003390Y-003950D01*
X003600D01*
X003270Y-003990D02*
X003350Y-003910D01*
X003620D01*
X003106Y-003000D02*
X003110Y-002996D01*
Y-002920D01*
X003430Y-002996D02*
Y-002920D01*
X003430Y-002920D01*
X003414Y-002996D02*
X003430D01*
X003430D01*
X002630Y-000820D02*
Y-000400D01*
X002550Y-000900D02*
X002630Y-000820D01*
X002590Y-000780D02*
Y-000400D01*
X003670Y-002000D02*
X003680Y-001990D01*
X003670Y-002096D02*
Y-002000D01*
X003620Y-001990D02*
X003630Y-002000D01*
Y-002096D02*
Y-002000D01*
X001580Y-000660D02*
X001790Y-000870D01*
X000795Y-000525D02*
Y-000495D01*
Y-000525D02*
X000930Y-000660D01*
X001580D01*
X001106Y-000975D02*
Y-000812D01*
X001104Y-000810D02*
X001106Y-000812D01*
X000970Y-000856D02*
X001016Y-000810D01*
X000970Y-000912D02*
Y-000856D01*
X000940Y-000943D02*
X000970Y-000912D01*
X000355Y-001055D02*
X000445D01*
X000450Y-001050D01*
X001360Y-001090D02*
Y-000975D01*
X001360Y-000975D02*
X001360Y-000975D01*
X001360Y-001620D02*
Y-001520D01*
Y-001620D02*
X001457Y-001717D01*
Y-001740D02*
Y-001717D01*
X001233Y-001637D02*
Y-001520D01*
X001143Y-001727D02*
X001233Y-001637D01*
X001143Y-001740D02*
Y-001727D01*
X001487Y-001520D02*
Y-001413D01*
X001106Y-001520D02*
Y-001416D01*
X001160Y-000490D02*
X001170Y-000500D01*
X000753Y-004099D02*
X001089D01*
X001900Y-004350D02*
X002010Y-004460D01*
X001900Y-004350D02*
Y-004120D01*
X005370Y-001833D02*
X005430Y-001892D01*
X003430Y-000510D02*
Y-000400D01*
X003510Y-000510D02*
Y-000400D01*
X003870Y-000500D02*
Y-000400D01*
X004070Y-000480D02*
Y-000400D01*
Y-000480D02*
X004090Y-000500D01*
X004110Y-000480D02*
Y-000400D01*
X004090Y-000500D02*
X004110Y-000480D01*
X003310Y-000490D02*
Y-000400D01*
Y-000490D02*
X003390Y-000570D01*
X003270Y-000510D02*
Y-000400D01*
X003230Y-000530D02*
Y-000400D01*
X003190Y-000550D02*
Y-000400D01*
X003150Y-000570D02*
Y-000400D01*
X003110Y-000590D02*
Y-000400D01*
X003270Y-000510D02*
X003370Y-000610D01*
X003230Y-000530D02*
X003350Y-000650D01*
X003190Y-000550D02*
X003330Y-000690D01*
X003150Y-000570D02*
X003310Y-000730D01*
X003110Y-000590D02*
X003290Y-000770D01*
X003390Y-000570D02*
X004360D01*
X003370Y-000610D02*
X004340D01*
X003350Y-000650D02*
X004320D01*
X003330Y-000690D02*
X004300D01*
X003310Y-000730D02*
X004280D01*
X003290Y-000770D02*
X004260D01*
X002540Y-001090D02*
Y-000990D01*
X002500Y-000950D02*
Y-000870D01*
X002590Y-000780D01*
X002500Y-000950D02*
X002540Y-000990D01*
X001170Y-000500D02*
X001850D01*
X002700Y-001350D01*
X002990Y-000580D02*
Y-000400D01*
X002970Y-000600D02*
X002990Y-000580D01*
X002910Y-000630D02*
Y-000400D01*
Y-000630D02*
X002940Y-000660D01*
X003020D01*
X002710Y-000490D02*
Y-000400D01*
Y-000490D02*
X002940Y-000720D01*
X003010D01*
X003020Y-000660D02*
X003030Y-000650D01*
X003190Y-002530D02*
Y-002360D01*
Y-002530D02*
X003370Y-002710D01*
X003790D01*
X003800Y-002700D01*
X003890D01*
X005720Y-002790D02*
X005940D01*
X005640Y-002870D02*
X005720Y-002790D01*
X005228Y-002870D02*
X005640D01*
X005150Y-002948D02*
X005228Y-002870D01*
X005870D02*
X005940Y-002940D01*
X005700Y-002870D02*
X005870D01*
X005622Y-002948D02*
X005700Y-002870D01*
X005450Y-002948D02*
X005622D01*
X005840Y-002990D02*
X005940Y-003090D01*
X005792Y-002990D02*
X005840D01*
X005750Y-002948D02*
X005792Y-002990D01*
X004270Y-002150D02*
Y-002096D01*
Y-002150D02*
X004940Y-002820D01*
Y-002910D02*
Y-002820D01*
Y-002910D02*
X005070Y-003040D01*
X005422D01*
X005515Y-003133D01*
X004230Y-002170D02*
Y-002096D01*
Y-002170D02*
X004900Y-002840D01*
Y-002930D02*
Y-002840D01*
Y-002930D02*
X005050Y-003080D01*
X005162D01*
X005215Y-003133D01*
X004150Y-002096D02*
Y-002020D01*
X004170Y-002000D01*
X004290D01*
X004310Y-002020D01*
Y-002130D02*
Y-002020D01*
Y-002130D02*
X004980Y-002800D01*
Y-002890D02*
Y-002800D01*
Y-002890D02*
X005090Y-003000D01*
X005683D01*
X005815Y-003133D01*
X005808Y-002490D02*
X005940D01*
X005750Y-002548D02*
X005808Y-002490D01*
X004110Y-002096D02*
Y-002000D01*
X004150Y-001960D01*
X004310D01*
X004350Y-002000D01*
Y-002110D02*
Y-002000D01*
X004070Y-002096D02*
Y-001980D01*
X004130Y-001920D01*
X004330D01*
X004390Y-001980D01*
Y-002090D02*
Y-001980D01*
Y-002090D02*
X004940Y-002640D01*
X004350Y-002110D02*
X004920Y-002680D01*
X005162D01*
X005215Y-002733D01*
X005278Y-002677D02*
X005460D01*
X005240Y-002640D02*
X005278Y-002677D01*
X005460D02*
X005515Y-002733D01*
X004940Y-002640D02*
X005240D01*
X005722D02*
X005815Y-002733D01*
X005300Y-002640D02*
X005722D01*
X005260Y-002600D02*
X005300Y-002640D01*
X004960Y-002600D02*
X005260D01*
X004430Y-002070D02*
X004960Y-002600D01*
X004430Y-002070D02*
Y-001960D01*
X005780Y-002640D02*
X005940D01*
X005740Y-002600D02*
X005780Y-002640D01*
X005320Y-002600D02*
X005740D01*
X005267Y-002548D02*
X005320Y-002600D01*
X005150Y-002548D02*
X005267D01*
X005658Y-002340D02*
X005940D01*
X005450Y-002548D02*
X005658Y-002340D01*
X004230Y-002440D02*
Y-002360D01*
Y-002440D02*
X004250Y-002460D01*
X004270Y-002440D02*
Y-002360D01*
X004250Y-002460D02*
X004270Y-002440D01*
X004150Y-002440D02*
Y-002360D01*
Y-002440D02*
X004170Y-002460D01*
X004110Y-002440D02*
Y-002360D01*
X004090Y-002460D02*
X004110Y-002440D01*
X004030Y-002450D02*
Y-002360D01*
X004020Y-002460D02*
X004030Y-002450D01*
X005350Y-001930D02*
X005370Y-001910D01*
X005390Y-001970D02*
X005430Y-001930D01*
Y-001892D01*
X004360Y-000570D02*
X004700Y-000910D01*
X004340Y-000610D02*
X004660Y-000930D01*
X004320Y-000650D02*
X004620Y-000950D01*
X004300Y-000690D02*
X004580Y-000970D01*
X004280Y-000730D02*
X004540Y-000990D01*
X004260Y-000770D02*
X004500Y-001010D01*
X004700Y-001780D02*
Y-000910D01*
Y-001780D02*
X004730Y-001810D01*
X004660Y-001820D02*
Y-000930D01*
X004620Y-001840D02*
Y-000950D01*
X004700Y-001860D02*
X004770D01*
X004780Y-001850D01*
X004660Y-001820D02*
X004700Y-001860D01*
X004680Y-001900D02*
X004980D01*
X005010Y-001930D01*
X004620Y-001840D02*
X004680Y-001900D01*
X005010Y-001930D02*
X005350D01*
X004580Y-001860D02*
X004660Y-001940D01*
X004960D01*
X004990Y-001970D01*
X004580Y-001860D02*
Y-000970D01*
X004990Y-001970D02*
X005390D01*
X004540Y-001880D02*
X004640Y-001980D01*
Y-002010D02*
Y-001980D01*
Y-002010D02*
X004670Y-002040D01*
X004730D01*
X004790Y-001980D01*
X004940D01*
X005040Y-002080D01*
X005180D01*
X004540Y-001880D02*
Y-000990D01*
X004500Y-001900D02*
X004600Y-002000D01*
Y-002030D02*
Y-002000D01*
Y-002030D02*
X004700Y-002130D01*
X005210D01*
X004500Y-001900D02*
Y-001010D01*
X005210Y-002130D02*
X005260Y-002080D01*
X002630Y-002096D02*
Y-001990D01*
X003030Y-002096D02*
Y-002020D01*
X002940Y-001930D02*
X003030Y-002020D01*
X002962Y-001890D02*
X003070Y-001998D01*
Y-002096D02*
Y-001998D01*
X002630Y-001710D02*
X002650Y-001730D01*
X003580D01*
X003870Y-002096D02*
Y-001990D01*
X003870Y-001990D02*
X003870Y-001990D01*
X004030Y-002096D02*
Y-002010D01*
X004070Y-002650D02*
X004590Y-003170D01*
X004020Y-002650D02*
X004070D01*
X005667Y-003938D02*
X005731Y-004001D01*
X005791D01*
X005667Y-003938D02*
Y-003910D01*
X005476Y-004050D02*
Y-003967D01*
X005770Y-003930D02*
X005900D01*
X005740Y-003900D02*
X005770Y-003930D01*
X005740Y-003900D02*
Y-003850D01*
X005550Y-003660D02*
X005740Y-003850D01*
X005550Y-003660D02*
Y-003480D01*
X005470Y-003400D02*
X005550Y-003480D01*
X003890Y-002700D02*
X004070Y-002520D01*
X004490D01*
X005130Y-003890D02*
Y-003430D01*
X003950Y-001930D02*
X004030Y-002010D01*
X003820Y-001930D02*
X003950D01*
X003580Y-001730D02*
X003720Y-001870D01*
X004340D01*
X004430Y-001960D01*
X002730Y-001160D02*
X003130D01*
X002810Y-001090D02*
X003130D01*
X002850Y-001220D02*
X003170D01*
X003174Y-001216D01*
X002550Y-000480D02*
Y-000400D01*
X002530Y-000500D02*
X002550Y-000480D01*
X005174Y-003486D02*
X005290D01*
X005170Y-003490D02*
X005174Y-003486D01*
X005170Y-003870D02*
Y-003490D01*
Y-003410D01*
X003110Y-001650D02*
X003130Y-001670D01*
X003110Y-001610D02*
X003130Y-001590D01*
X002340Y-001910D02*
X002360Y-001890D01*
X002962D01*
X002360Y-001970D02*
X002400Y-001930D01*
X002940D01*
X001980Y-001590D02*
X002000Y-001610D01*
X003110D01*
X002050Y-001670D02*
X002070Y-001650D01*
X003110D01*
X003180Y-001530D02*
X003200Y-001550D01*
X002720Y-001530D02*
X003180D01*
X003110Y-001490D02*
X003130Y-001470D01*
X002720Y-001490D02*
X003110D01*
X003180Y-001410D02*
X003200Y-001430D01*
X002700Y-001550D02*
X002720Y-001530D01*
X000540Y-003817D02*
Y-003750D01*
X000518Y-003840D02*
X000540Y-003817D01*
X002700Y-001470D02*
X002720Y-001490D01*
X002650Y-001410D02*
X003180D01*
X002630Y-001430D02*
X002650Y-001410D01*
X001790Y-001790D02*
Y-000870D01*
Y-001790D02*
X001970Y-001970D01*
X002360D01*
X002320Y-001890D02*
X002340Y-001910D01*
X001970Y-001890D02*
X002320D01*
X001910Y-001830D02*
X001970Y-001890D01*
X005476Y-003967D02*
X005533Y-003910D01*
X003166Y-003180D02*
X003220Y-003234D01*
D19*
X000940Y-000943D02*
D03*
Y-001057D02*
D03*
X004540Y-003303D02*
D03*
Y-003417D02*
D03*
X004170Y-003833D02*
D03*
Y-003947D02*
D03*
X005350Y-004047D02*
D03*
Y-003933D02*
D03*
D20*
X004558Y-003550D02*
D03*
X004442D02*
D03*
X004558Y-003670D02*
D03*
X004442D02*
D03*
Y-003790D02*
D03*
X004558D02*
D03*
X000403Y-003840D02*
D03*
X000518D02*
D03*
D21*
X001324Y-000810D02*
D03*
X001236D02*
D03*
X001016D02*
D03*
X001104D02*
D03*
X003034Y-003160D02*
D03*
X002946D02*
D03*
X003194Y-003000D02*
D03*
X003106D02*
D03*
X003346Y-003640D02*
D03*
X003434D02*
D03*
X002306Y-002820D02*
D03*
X002394D02*
D03*
X005476Y-004050D02*
D03*
X005564D02*
D03*
X000396Y-003960D02*
D03*
X000484D02*
D03*
X003506Y-003360D02*
D03*
X003594D02*
D03*
X003034Y-003280D02*
D03*
X002946D02*
D03*
X003594Y-003480D02*
D03*
X003506D02*
D03*
X003154Y-003400D02*
D03*
X003066D02*
D03*
X003474Y-003240D02*
D03*
X003386D02*
D03*
X005894Y-003510D02*
D03*
X005806D02*
D03*
X005904Y-003850D02*
D03*
X005816D02*
D03*
D23*
X000247Y-003890D02*
D03*
X000112D02*
D03*
X005512Y-003910D02*
D03*
X005647D02*
D03*
D26*
X000620Y-002974D02*
D03*
Y-002886D02*
D03*
X001180Y-002974D02*
D03*
Y-002886D02*
D03*
X001110Y-002614D02*
D03*
Y-002526D02*
D03*
X000990Y-002614D02*
D03*
Y-002526D02*
D03*
X001620Y-002526D02*
D03*
Y-002614D02*
D03*
X001620Y-001686D02*
D03*
Y-001774D02*
D03*
X002950Y-003396D02*
D03*
Y-003484D02*
D03*
X003430Y-003084D02*
D03*
Y-002996D02*
D03*
X003110Y-003556D02*
D03*
Y-003644D02*
D03*
X005290Y-003574D02*
D03*
Y-003486D02*
D03*
Y-003794D02*
D03*
Y-003706D02*
D03*
X004040Y-003914D02*
D03*
Y-003826D02*
D03*
X003590Y-003156D02*
D03*
Y-003244D02*
D03*
X003230Y-003556D02*
D03*
Y-003644D02*
D03*
X003310Y-003084D02*
D03*
Y-002996D02*
D03*
X003350Y-003436D02*
D03*
Y-003524D02*
D03*
X003190Y-003204D02*
D03*
Y-003116D02*
D03*
X002180Y-002826D02*
D03*
Y-002914D02*
D03*
X002060Y-002914D02*
D03*
Y-002826D02*
D03*
X001940Y-002914D02*
D03*
Y-002826D02*
D03*
D48*
X001285Y-002525D02*
D03*
X001475D02*
D03*
X001380Y-002755D02*
D03*
D108*
X000984Y-002520D02*
X000990Y-002526D01*
X000920Y-002520D02*
X000984D01*
X001116Y-002886D02*
X001180D01*
X001254Y-002974D02*
X001316D01*
X001180D02*
X001254D01*
X001179Y-002975D02*
X001180Y-002974D01*
X001037Y-002975D02*
X001179D01*
X000685Y-002785D02*
X000762D01*
X000556Y-002974D02*
X000620D01*
X000621Y-002975D01*
X000762D01*
X000554Y-002886D02*
X000620D01*
X000626Y-002880D02*
X000762D01*
X000620Y-002886D02*
X000626Y-002880D01*
X001590Y-002680D02*
Y-002644D01*
X001620Y-002614D01*
X001380Y-002840D02*
Y-002755D01*
X000990Y-002680D02*
Y-002614D01*
X001110Y-002680D02*
Y-002614D01*
X000990Y-002526D02*
X001110D01*
X001111Y-002525D01*
X001285D01*
X001475D02*
X001476Y-002526D01*
X001620D01*
X002160Y-002530D02*
X002180Y-002510D01*
X001720Y-002530D02*
X002160D01*
X001620Y-002526D02*
X001716D01*
X001720Y-002530D01*
X002890Y-000970D02*
X003600D01*
X002700Y-000780D02*
X002890Y-000970D01*
X003750Y-001810D02*
X004000Y-001560D01*
Y-001200D01*
X003770Y-000970D02*
X004000Y-001200D01*
X003600Y-000970D02*
X003770D01*
X002060Y-002914D02*
X002180D01*
X002060Y-002914D02*
X002060Y-002914D01*
X001940Y-002914D02*
X002060D01*
X001940Y-002914D02*
X001940Y-002914D01*
X001890Y-002964D02*
X001940Y-002914D01*
X001890Y-003000D02*
Y-002964D01*
X001940Y-002826D02*
X002060D01*
X002060Y-002826D01*
X002180D01*
X002180Y-002826D01*
X002300D01*
X002306Y-002820D01*
X001940Y-002826D02*
Y-002750D01*
X002180Y-002914D02*
X002264D01*
X000900Y-001098D02*
X000940Y-001057D01*
X000900Y-001190D02*
Y-001098D01*
X000910Y-000730D02*
X000920Y-000720D01*
X001180D01*
X001236Y-000776D01*
Y-000810D02*
Y-000776D01*
X001233Y-000813D02*
X001236Y-000810D01*
X001233Y-000975D02*
Y-000813D01*
X001491Y-001774D02*
X001620D01*
X001457Y-001740D02*
X001491Y-001774D01*
X001620Y-001686D02*
Y-001620D01*
X005608Y-002810D02*
X005685Y-002733D01*
X005385Y-002805D02*
Y-002733D01*
Y-002805D02*
X005390Y-002810D01*
X005608D01*
X005085Y-002733D02*
X005162Y-002810D01*
X005320D02*
X005390D01*
X005162D02*
X005320D01*
X005597Y-003220D02*
X005685Y-003133D01*
X005085D02*
X005172Y-003220D01*
X005385D02*
Y-003133D01*
X005172Y-003220D02*
X005385D01*
X005597D01*
D109*
X001050Y-000470D02*
X001060Y-000480D01*
X001050Y-000470D02*
Y-000370D01*
X000940Y-000360D02*
X001050Y-000470D01*
D110*
X004163Y-003826D02*
X004170Y-003833D01*
X004150Y-003812D02*
X004163Y-003826D01*
X004150Y-003812D02*
Y-003712D01*
X004040Y-003826D02*
X004163D01*
X004036Y-003830D02*
X004040Y-003826D01*
X003940Y-003830D02*
X004036D01*
D111*
X003594Y-003480D02*
X003680D01*
X003590Y-003156D02*
X003684D01*
X003110Y-003750D02*
Y-003644D01*
X003434Y-003734D02*
Y-003640D01*
X002860Y-003160D02*
X002946D01*
X002856Y-003484D02*
X002950D01*
X001620Y-000550D02*
X001900Y-000830D01*
X000925Y-000495D02*
X000980Y-000550D01*
X001620D01*
X001600Y-000610D02*
X001840Y-000850D01*
X000860Y-000520D02*
Y-000490D01*
Y-000520D02*
X000950Y-000610D01*
X001600D01*
X000550Y-000625D02*
X000585Y-000660D01*
X000550Y-000625D02*
Y-000500D01*
X000585Y-000660D02*
X000630Y-000615D01*
Y-000500D01*
X003620Y-001990D02*
Y-001940D01*
X003680Y-001990D02*
Y-001910D01*
X003520Y-001840D02*
X003620Y-001940D01*
X003550Y-001780D02*
X003680Y-001910D01*
X001840Y-001660D02*
Y-000850D01*
Y-001660D02*
X002020Y-001840D01*
X003520D01*
X001900Y-001630D02*
Y-000830D01*
Y-001630D02*
X002050Y-001780D01*
X003550D01*
D113*
X000150Y-004210D02*
D03*
X005851Y-004208D02*
D03*
D114*
X000730Y-004514D02*
D03*
X000650D02*
D03*
X000815D02*
D03*
X000860Y-004424D02*
D03*
X000770D02*
D03*
X001030D02*
D03*
X000940D02*
D03*
X000985Y-004514D02*
D03*
X001150D02*
D03*
X001070D02*
D03*
X005270D02*
D03*
X005350D02*
D03*
X005185D02*
D03*
X005140Y-004424D02*
D03*
X005230D02*
D03*
X004970D02*
D03*
X005060D02*
D03*
X005015Y-004514D02*
D03*
X004850D02*
D03*
X004930D02*
D03*
D115*
X001220Y-004424D02*
D03*
X000580D02*
D03*
X004780D02*
D03*
X005420D02*
D03*
D116*
X000555Y-004310D02*
D03*
X001245D02*
D03*
X005445D02*
D03*
X004755D02*
D03*
D117*
X000453Y-004270D02*
D03*
X001348D02*
D03*
X005547D02*
D03*
X004652D02*
D03*
D118*
X001507Y-004504D02*
D03*
X000292D02*
D03*
X001507Y-004890D02*
D03*
X000292Y-004880D02*
D03*
X004492D02*
D03*
X005707Y-004890D02*
D03*
X004492Y-004504D02*
D03*
X005707D02*
D03*
D119*
X000530Y-000123D02*
D03*
X001190D02*
D03*
X002290Y-000125D02*
D03*
X001630D02*
D03*
D120*
X001921Y-002317D02*
D03*
X005823Y-000181D02*
D03*
D121*
X000920Y-002520D02*
D03*
X-000340Y-002050D02*
D03*
Y-002170D02*
D03*
X-000280Y-002110D02*
D03*
X-000220Y-002050D02*
D03*
Y-002170D02*
D03*
X-000160Y-002110D02*
D03*
X-000100Y-002050D02*
D03*
Y-002170D02*
D03*
X-000040Y-002110D02*
D03*
X000020Y-002170D02*
D03*
Y-002050D02*
D03*
Y-002110D02*
D03*
X-000100D02*
D03*
X-000220D02*
D03*
X-000340D02*
D03*
X-000040Y-002050D02*
D03*
X-000160D02*
D03*
X-000280D02*
D03*
X-000040Y-002170D02*
D03*
X-000160D02*
D03*
X-000280D02*
D03*
X-000340Y-001550D02*
D03*
Y-001670D02*
D03*
X-000280Y-001610D02*
D03*
X-000220Y-001550D02*
D03*
Y-001670D02*
D03*
X-000160Y-001610D02*
D03*
X-000100Y-001550D02*
D03*
Y-001670D02*
D03*
X-000040Y-001610D02*
D03*
X000020Y-001670D02*
D03*
Y-001550D02*
D03*
Y-001610D02*
D03*
X-000100D02*
D03*
X-000220D02*
D03*
X-000340D02*
D03*
X-000040Y-001550D02*
D03*
X-000160D02*
D03*
X-000280D02*
D03*
X-000040Y-001670D02*
D03*
X-000160D02*
D03*
X-000280D02*
D03*
X-000340Y-001860D02*
D03*
X-000220D02*
D03*
X-000100D02*
D03*
X000020D02*
D03*
X-000280Y-001920D02*
D03*
X-000160D02*
D03*
X-000040D02*
D03*
X-000280Y-001800D02*
D03*
X-000160D02*
D03*
X-000040D02*
D03*
X-000280Y-001420D02*
D03*
X-000160D02*
D03*
X-000040D02*
D03*
X-000280Y-001300D02*
D03*
X-000160D02*
D03*
X-000040D02*
D03*
X-000340Y-001360D02*
D03*
X-000220D02*
D03*
X-000100D02*
D03*
X000020D02*
D03*
X001116Y-002886D02*
D03*
X001316Y-002974D02*
D03*
X001254D02*
D03*
X000685Y-002785D02*
D03*
X000556Y-002974D02*
D03*
X000554Y-002886D02*
D03*
X001590Y-002680D02*
D03*
X001380Y-002840D02*
D03*
X000990Y-002680D02*
D03*
X001110D02*
D03*
X002180Y-002510D02*
D03*
X001720Y-002530D02*
D03*
X002700Y-000780D02*
D03*
X004710Y-002210D02*
D03*
X004430Y-002750D02*
D03*
X004460Y-002640D02*
D03*
X004410Y-002680D02*
D03*
X003750Y-001990D02*
D03*
Y-001810D02*
D03*
X003890Y-001350D02*
D03*
X005805Y-001765D02*
D03*
X005370Y-001833D02*
D03*
Y-001910D02*
D03*
X005260Y-002080D02*
D03*
X005180D02*
D03*
X004912Y-002058D02*
D03*
X005040Y-001880D02*
D03*
X005514Y-002066D02*
D03*
X005426Y-002066D02*
D03*
X003190Y-001990D02*
D03*
X003270Y-002190D02*
D03*
X003110D02*
D03*
X003010Y-002200D02*
D03*
X002730Y-002260D02*
D03*
X005425Y-001555D02*
D03*
X004405D02*
D03*
X005110Y-001550D02*
D03*
X005153Y-001833D02*
D03*
X002850Y-000500D02*
D03*
X002670Y-000300D02*
D03*
X003070D02*
D03*
X003390D02*
D03*
X003470D02*
D03*
X003550D02*
D03*
X003750D02*
D03*
X003670D02*
D03*
X004250Y-000500D02*
D03*
X004170D02*
D03*
X004250Y-000280D02*
D03*
X004170D02*
D03*
X004060Y-000230D02*
D03*
X003670D02*
D03*
X003390D02*
D03*
X002590D02*
D03*
X002820Y-000300D02*
D03*
X002880D02*
D03*
X002770Y-000260D02*
D03*
X002930D02*
D03*
X002710Y-000230D02*
D03*
X002990D02*
D03*
X001320Y-000440D02*
D03*
X000920Y-002400D02*
D03*
Y-002220D02*
D03*
X000560Y-002400D02*
D03*
Y-002220D02*
D03*
X001470Y-002060D02*
D03*
X001370D02*
D03*
X001220D02*
D03*
X001120D02*
D03*
X000020Y-001800D02*
D03*
X-000100Y-001920D02*
D03*
Y-001800D02*
D03*
X-000160Y-001860D02*
D03*
X000020Y-001920D02*
D03*
X-000040Y-001860D02*
D03*
X-000220Y-001920D02*
D03*
Y-001800D02*
D03*
X-000280Y-001860D02*
D03*
X-000340Y-001920D02*
D03*
Y-001800D02*
D03*
X000020Y-001300D02*
D03*
Y-001420D02*
D03*
X-000040Y-001360D02*
D03*
X-000100Y-001420D02*
D03*
Y-001300D02*
D03*
X-000160Y-001360D02*
D03*
X-000220Y-001420D02*
D03*
Y-001300D02*
D03*
X-000280Y-001360D02*
D03*
X-000340Y-001420D02*
D03*
Y-001300D02*
D03*
X003470Y-001990D02*
D03*
X004190Y-002260D02*
D03*
X004070D02*
D03*
X003990D02*
D03*
X003870D02*
D03*
X003670D02*
D03*
X003710Y-002190D02*
D03*
X003590Y-002190D02*
D03*
X003550Y-002260D02*
D03*
X003310D02*
D03*
X002510D02*
D03*
X002670Y-002190D02*
D03*
X002510D02*
D03*
X003870Y-002640D02*
D03*
X003770Y-002650D02*
D03*
X003730Y-002590D02*
D03*
X003690Y-002530D02*
D03*
X003650Y-002470D02*
D03*
X003410Y-002610D02*
D03*
X003370Y-002550D02*
D03*
X003330Y-002490D02*
D03*
X002670Y-002640D02*
D03*
X002890Y-002470D02*
D03*
X002850Y-002530D02*
D03*
X002810Y-002590D02*
D03*
X002770Y-002650D02*
D03*
X002970Y-002500D02*
D03*
X003010Y-002550D02*
D03*
X003050Y-002610D02*
D03*
X003090Y-002670D02*
D03*
X005650Y-003550D02*
D03*
X005226Y-003706D02*
D03*
X005226Y-003574D02*
D03*
Y-003794D02*
D03*
X005640Y-004050D02*
D03*
X005806Y-003444D02*
D03*
X005894Y-003446D02*
D03*
X005900Y-003930D02*
D03*
X005765Y-003695D02*
D03*
X005791Y-004001D02*
D03*
X005850Y-004000D02*
D03*
X000400Y-003760D02*
D03*
X000484Y-004024D02*
D03*
X000090Y-004010D02*
D03*
X000150Y-004010D02*
D03*
X004080Y-003450D02*
D03*
X004340Y-003720D02*
D03*
X004220Y-003460D02*
D03*
X003590Y-003560D02*
D03*
X004870Y-003700D02*
D03*
X003980Y-004070D02*
D03*
X003840Y-004010D02*
D03*
X004290D02*
D03*
X004810Y-003870D02*
D03*
X004730D02*
D03*
X004720Y-003770D02*
D03*
Y-003670D02*
D03*
X004720Y-003570D02*
D03*
Y-003470D02*
D03*
X004440Y-003370D02*
D03*
X004470Y-003940D02*
D03*
X003940Y-003830D02*
D03*
X004090Y-004580D02*
D03*
X000925Y-000495D02*
D03*
X000860Y-000490D02*
D03*
X000795Y-000495D02*
D03*
X002320Y-000490D02*
D03*
X002150Y-000510D02*
D03*
X002320Y-000820D02*
D03*
X002030Y-000780D02*
D03*
X001840Y-000640D02*
D03*
X002320Y-001150D02*
D03*
X003270Y-003160D02*
D03*
X003110Y-003320D02*
D03*
X003270Y-003480D02*
D03*
X003430Y-003320D02*
D03*
X003270Y-003240D02*
D03*
X003350Y-003320D02*
D03*
X003270Y-003400D02*
D03*
X003190Y-003320D02*
D03*
X003510Y-003080D02*
D03*
Y-003560D02*
D03*
X003670Y-003720D02*
D03*
Y-002920D02*
D03*
X003110Y-003160D02*
D03*
X003430D02*
D03*
Y-003480D02*
D03*
X003110D02*
D03*
X003510Y-003000D02*
D03*
X003590Y-003080D02*
D03*
X003510Y-003640D02*
D03*
X003830Y-003880D02*
D03*
Y-002760D02*
D03*
X003030Y-003480D02*
D03*
X003110Y-003080D02*
D03*
X003510Y-003160D02*
D03*
X003430Y-003560D02*
D03*
X003270Y-003720D02*
D03*
X003670Y-003320D02*
D03*
X003270Y-002920D02*
D03*
X000752Y-000638D02*
D03*
X002550Y-000900D02*
D03*
X004780Y-004190D02*
D03*
X005000Y-004190D02*
D03*
X005200D02*
D03*
X005420D02*
D03*
X004930Y-004160D02*
D03*
X004880Y-004080D02*
D03*
X000580Y-004190D02*
D03*
X000800Y-004190D02*
D03*
X001220D02*
D03*
X001070Y-004160D02*
D03*
X001150D02*
D03*
X003470Y-004040D02*
D03*
X003410Y-004020D02*
D03*
X003350Y-003990D02*
D03*
X003270D02*
D03*
X003986Y-002746D02*
D03*
X004060Y-002900D02*
D03*
X003110Y-002920D02*
D03*
X003430D02*
D03*
X001990Y-001150D02*
D03*
X001730D02*
D03*
X002400Y-002730D02*
D03*
X002406Y-002656D02*
D03*
X005940Y-002340D02*
D03*
X005940Y-002490D02*
D03*
Y-002640D02*
D03*
Y-002790D02*
D03*
X005940Y-002940D02*
D03*
X005940Y-003090D02*
D03*
X002460Y-000540D02*
D03*
X001060Y-000480D02*
D03*
X000990Y-000290D02*
D03*
X001050Y-000370D02*
D03*
X000770Y-001190D02*
D03*
X000900D02*
D03*
X001390Y-000730D02*
D03*
X001550Y-000740D02*
D03*
X001460Y-000830D02*
D03*
X001570Y-001170D02*
D03*
X001380D02*
D03*
X001680Y-001330D02*
D03*
X001380D02*
D03*
X001100D02*
D03*
Y-001170D02*
D03*
X000450Y-001050D02*
D03*
X001360Y-001090D02*
D03*
X001170Y-002150D02*
D03*
Y-002360D02*
D03*
X001420Y-002150D02*
D03*
X001620Y-001620D02*
D03*
X001487Y-001413D02*
D03*
X001106Y-001416D02*
D03*
X000710Y-000500D02*
D03*
X000630D02*
D03*
X000550D02*
D03*
X001160Y-000490D02*
D03*
X002870Y-002920D02*
D03*
X002870Y-003320D02*
D03*
X002264Y-002914D02*
D03*
X001940Y-002750D02*
D03*
X001890Y-003000D02*
D03*
X002406Y-003836D02*
D03*
X002556Y-003924D02*
D03*
X001000Y-004190D02*
D03*
X002710Y-002760D02*
D03*
Y-003880D02*
D03*
X002950Y-003560D02*
D03*
X003030Y-003640D02*
D03*
X002950Y-003080D02*
D03*
X003030Y-003000D02*
D03*
X002870Y-003720D02*
D03*
X003030Y-003560D02*
D03*
Y-003080D02*
D03*
X002020Y-004840D02*
D03*
X002010Y-004460D02*
D03*
X001900Y-004120D02*
D03*
X003430Y-000510D02*
D03*
X003510D02*
D03*
X003870Y-000500D02*
D03*
X004090Y-000500D02*
D03*
X002540Y-001090D02*
D03*
X002970Y-000600D02*
D03*
X003010Y-000720D02*
D03*
X003030Y-000650D02*
D03*
X005822Y-002188D02*
D03*
X005320Y-002810D02*
D03*
X005385Y-003220D02*
D03*
X004340Y-001770D02*
D03*
X004430D02*
D03*
X004250Y-002460D02*
D03*
X004170D02*
D03*
X004090D02*
D03*
X004020D02*
D03*
X005050Y-002240D02*
D03*
X004730Y-001810D02*
D03*
X004780Y-001850D02*
D03*
X004690Y-001990D02*
D03*
X002630D02*
D03*
Y-001710D02*
D03*
X003870Y-001990D02*
D03*
X004590Y-003170D02*
D03*
X004020Y-002650D02*
D03*
X004350Y-000140D02*
D03*
X005430Y-000190D02*
D03*
X005520Y-001120D02*
D03*
X004490Y-002520D02*
D03*
X003820Y-001930D02*
D03*
X003130Y-001090D02*
D03*
Y-001160D02*
D03*
X003174Y-001216D02*
D03*
X003330Y-001090D02*
D03*
X003586Y-001054D02*
D03*
X002730Y-001160D02*
D03*
X002810Y-001090D02*
D03*
X002850Y-001220D02*
D03*
X000088Y-000638D02*
D03*
Y-002738D02*
D03*
Y-003608D02*
D03*
X002530Y-000500D02*
D03*
X003130Y-001670D02*
D03*
Y-001590D02*
D03*
X005290Y-003340D02*
D03*
X002340Y-001910D02*
D03*
X001980Y-001590D02*
D03*
X002050Y-001670D02*
D03*
X003200Y-001550D02*
D03*
X003130Y-001470D02*
D03*
X003200Y-001430D02*
D03*
X002700Y-001550D02*
D03*
X000540Y-003750D02*
D03*
X002700Y-001470D02*
D03*
X002630Y-001430D02*
D03*
X001910Y-001830D02*
D03*
X001450Y-002360D02*
D03*
X003586Y-001274D02*
D03*
X003600Y-000970D02*
D03*
D122*
X000762Y-002975D02*
D03*
Y-002880D02*
D03*
Y-002785D02*
D03*
X001037D02*
D03*
Y-002975D02*
D03*
D123*
X001143Y-001740D02*
D03*
X001457D02*
D03*
D124*
X001170Y-002255D02*
D03*
Y-001965D02*
D03*
X001420Y-002255D02*
D03*
Y-001965D02*
D03*
D125*
X000920Y-001810D02*
D03*
X000500D02*
D03*
D126*
X001106Y-000975D02*
D03*
X001233D02*
D03*
X001360D02*
D03*
X001487D02*
D03*
X001106Y-001520D02*
D03*
X001233D02*
D03*
X001360D02*
D03*
X001487D02*
D03*
D127*
X000830Y-001320D02*
D03*
X000430D02*
D03*
X000620Y-000360D02*
D03*
X000220D02*
D03*
D128*
X000585Y-000660D02*
D03*
X000295D02*
D03*
D129*
X000355Y-001055D02*
D03*
Y-000865D02*
D03*
X000585Y-000960D02*
D03*
D130*
X004150Y-003712D02*
D03*
X004215Y-003528D02*
D03*
X004085D02*
D03*
X005450Y-002948D02*
D03*
X005385Y-003133D02*
D03*
X005515D02*
D03*
X005750Y-002948D02*
D03*
X005685Y-003133D02*
D03*
X005815D02*
D03*
X005150Y-002948D02*
D03*
X005085Y-003133D02*
D03*
X005215D02*
D03*
X005150Y-002548D02*
D03*
X005085Y-002733D02*
D03*
X005215D02*
D03*
X005750Y-002548D02*
D03*
X005685Y-002733D02*
D03*
X005815D02*
D03*
X005450Y-002548D02*
D03*
X005385Y-002733D02*
D03*
X005515D02*
D03*
D131*
X005655Y-003620D02*
D03*
X005425Y-003525D02*
D03*
Y-003715D02*
D03*
D132*
X000800Y-004241D02*
D03*
X000580D02*
D03*
X001220D02*
D03*
X001000D02*
D03*
X005200D02*
D03*
X005420D02*
D03*
X004780D02*
D03*
X005000D02*
D03*
D133*
X001175Y-004310D02*
D03*
X001125D02*
D03*
X001075D02*
D03*
X001025D02*
D03*
X000975D02*
D03*
X000625D02*
D03*
X000675D02*
D03*
X000725D02*
D03*
X000775D02*
D03*
X000825D02*
D03*
X000875D02*
D03*
X000925D02*
D03*
X005125D02*
D03*
X005075D02*
D03*
X005025D02*
D03*
X004975D02*
D03*
X004925D02*
D03*
X004875D02*
D03*
X004825D02*
D03*
X005175D02*
D03*
X005225D02*
D03*
X005275D02*
D03*
X005325D02*
D03*
X005375D02*
D03*
D134*
X005810Y-003630D02*
D03*
X005860D02*
D03*
X005910D02*
D03*
Y-003760D02*
D03*
X005860D02*
D03*
X005810D02*
D03*
D135*
X005860Y-003695D02*
D03*
D136*
X002510Y-000136D02*
D03*
Y-000400D02*
D03*
X002550Y-000136D02*
D03*
Y-000400D02*
D03*
X002590Y-000136D02*
D03*
Y-000400D02*
D03*
X002630Y-000136D02*
D03*
Y-000400D02*
D03*
X002670Y-000136D02*
D03*
Y-000400D02*
D03*
X002710Y-000136D02*
D03*
Y-000400D02*
D03*
X002750Y-000136D02*
D03*
Y-000400D02*
D03*
X002790Y-000136D02*
D03*
Y-000400D02*
D03*
X002830Y-000136D02*
D03*
Y-000400D02*
D03*
X002870Y-000136D02*
D03*
Y-000400D02*
D03*
X002910Y-000136D02*
D03*
Y-000400D02*
D03*
X002950Y-000136D02*
D03*
Y-000400D02*
D03*
X002990Y-000136D02*
D03*
Y-000400D02*
D03*
X003030Y-000136D02*
D03*
Y-000400D02*
D03*
X003070Y-000136D02*
D03*
Y-000400D02*
D03*
X003110Y-000136D02*
D03*
Y-000400D02*
D03*
X003150Y-000136D02*
D03*
Y-000400D02*
D03*
X003190Y-000136D02*
D03*
Y-000400D02*
D03*
X003230Y-000136D02*
D03*
Y-000400D02*
D03*
X003270Y-000136D02*
D03*
Y-000400D02*
D03*
X003310Y-000136D02*
D03*
Y-000400D02*
D03*
X003350Y-000136D02*
D03*
Y-000400D02*
D03*
X003390Y-000136D02*
D03*
Y-000400D02*
D03*
X003430Y-000136D02*
D03*
Y-000400D02*
D03*
X003470Y-000136D02*
D03*
Y-000400D02*
D03*
X003510Y-000136D02*
D03*
Y-000400D02*
D03*
X003550Y-000136D02*
D03*
Y-000400D02*
D03*
X003590Y-000136D02*
D03*
Y-000400D02*
D03*
X003630Y-000136D02*
D03*
Y-000400D02*
D03*
X003670Y-000136D02*
D03*
Y-000400D02*
D03*
X003710Y-000136D02*
D03*
Y-000400D02*
D03*
X003750Y-000136D02*
D03*
Y-000400D02*
D03*
X003790Y-000136D02*
D03*
Y-000400D02*
D03*
X003830Y-000136D02*
D03*
Y-000400D02*
D03*
X003870Y-000136D02*
D03*
Y-000400D02*
D03*
X003910Y-000136D02*
D03*
Y-000400D02*
D03*
X003950Y-000136D02*
D03*
Y-000400D02*
D03*
X003990Y-000136D02*
D03*
Y-000400D02*
D03*
X004030Y-000136D02*
D03*
Y-000400D02*
D03*
X004070Y-000136D02*
D03*
Y-000400D02*
D03*
X004110Y-000136D02*
D03*
Y-000400D02*
D03*
X004150Y-000136D02*
D03*
Y-000400D02*
D03*
X004190Y-000136D02*
D03*
Y-000400D02*
D03*
X004230Y-000136D02*
D03*
Y-000400D02*
D03*
X004270Y-000136D02*
D03*
Y-000400D02*
D03*
Y-002360D02*
D03*
Y-002096D02*
D03*
X004230Y-002360D02*
D03*
Y-002096D02*
D03*
X004190Y-002360D02*
D03*
Y-002096D02*
D03*
X004150Y-002360D02*
D03*
Y-002096D02*
D03*
X004110Y-002360D02*
D03*
Y-002096D02*
D03*
X004070Y-002360D02*
D03*
Y-002096D02*
D03*
X004030Y-002360D02*
D03*
Y-002096D02*
D03*
X003990Y-002360D02*
D03*
Y-002096D02*
D03*
X003950Y-002360D02*
D03*
Y-002096D02*
D03*
X003910Y-002360D02*
D03*
Y-002096D02*
D03*
X003870Y-002360D02*
D03*
Y-002096D02*
D03*
X003830Y-002360D02*
D03*
Y-002096D02*
D03*
X003790Y-002360D02*
D03*
Y-002096D02*
D03*
X003750Y-002360D02*
D03*
Y-002096D02*
D03*
X003710Y-002360D02*
D03*
Y-002096D02*
D03*
X003670Y-002360D02*
D03*
Y-002096D02*
D03*
X003630Y-002360D02*
D03*
Y-002096D02*
D03*
X003590Y-002360D02*
D03*
Y-002096D02*
D03*
X003550Y-002360D02*
D03*
Y-002096D02*
D03*
X003510Y-002360D02*
D03*
Y-002096D02*
D03*
X003470Y-002360D02*
D03*
Y-002096D02*
D03*
X003430Y-002360D02*
D03*
Y-002096D02*
D03*
X003390Y-002360D02*
D03*
Y-002096D02*
D03*
X003350Y-002360D02*
D03*
Y-002096D02*
D03*
X003310Y-002360D02*
D03*
Y-002096D02*
D03*
X003270Y-002360D02*
D03*
Y-002096D02*
D03*
X003230Y-002360D02*
D03*
Y-002096D02*
D03*
X003190Y-002360D02*
D03*
Y-002096D02*
D03*
X003150Y-002360D02*
D03*
Y-002096D02*
D03*
X003110Y-002360D02*
D03*
Y-002096D02*
D03*
X003070Y-002360D02*
D03*
Y-002096D02*
D03*
X003030Y-002360D02*
D03*
Y-002096D02*
D03*
X002990Y-002360D02*
D03*
Y-002096D02*
D03*
X002950Y-002360D02*
D03*
Y-002096D02*
D03*
X002910Y-002360D02*
D03*
Y-002096D02*
D03*
X002870Y-002360D02*
D03*
Y-002096D02*
D03*
X002830Y-002360D02*
D03*
Y-002096D02*
D03*
X002790Y-002360D02*
D03*
Y-002096D02*
D03*
X002750Y-002360D02*
D03*
Y-002096D02*
D03*
X002710Y-002360D02*
D03*
Y-002096D02*
D03*
X002670Y-002360D02*
D03*
Y-002096D02*
D03*
X002630Y-002360D02*
D03*
Y-002096D02*
D03*
X002590Y-002360D02*
D03*
Y-002096D02*
D03*
X002550Y-002360D02*
D03*
Y-002096D02*
D03*
X002510Y-002360D02*
D03*
Y-002096D02*
D03*
D137*
X001470Y-002060D02*
Y-002015D01*
X001420Y-001965D02*
X001470Y-002015D01*
X001370Y-002060D02*
Y-002015D01*
X001420Y-001965D01*
X001220Y-002060D02*
Y-002015D01*
X001170Y-001965D02*
X001220Y-002015D01*
X001120Y-002060D02*
Y-002015D01*
X001170Y-001965D01*
X000620Y-000360D02*
X000920D01*
X000990Y-000290D01*
X001040Y-000360D02*
X001050Y-000370D01*
X000920Y-000360D02*
X000940D01*
X001040D01*
X000220D02*
X000295Y-000435D01*
Y-000660D02*
Y-000435D01*
Y-000805D02*
Y-000660D01*
Y-000805D02*
X000355Y-000865D01*
X000585Y-001165D02*
Y-000960D01*
X000430Y-001320D02*
X000585Y-001165D01*
X000430Y-001320D02*
X000500Y-001390D01*
Y-001810D02*
Y-001390D01*
X000770Y-001260D02*
X000830Y-001320D01*
X000770Y-001260D02*
Y-001190D01*
X000830Y-001320D02*
X000900Y-001250D01*
Y-001190D01*
X000355Y-000865D02*
X000455D01*
X000480Y-000840D01*
X000800D01*
X000910Y-000730D01*
X000920Y-001810D02*
X000990Y-001740D01*
X001143D01*
X001457Y-001927D02*
Y-001740D01*
X001420Y-001965D02*
X001457Y-001927D01*
X001170Y-001965D02*
X001420D01*
X001170Y-002255D02*
Y-002150D01*
X001170Y-002150D01*
X001170Y-002255D02*
X001170Y-002255D01*
Y-002360D02*
Y-002255D01*
X001420Y-002255D02*
Y-002150D01*
X001420Y-002150D01*
X001420Y-002255D02*
X001450Y-002285D01*
X001450Y-002360D02*
X001450Y-002285D01*
D138*
X-000165Y-002110D02*
D03*
Y-001860D02*
D03*
Y-001610D02*
D03*
D139*
X-000160Y-001360D02*
D03*
M02*
