G04*
G04 #@! TF.GenerationSoftware,Altium Limited,Altium Designer,19.0.15 (446)*
G04*
G04 Layer_Color=65535*
%FSLAX25Y25*%
%MOIN*%
G70*
G01*
G75*
%ADD10C,0.00787*%
%ADD11C,0.01000*%
D10*
X4521Y10625D02*
X3712Y11215D01*
X2731Y11417D01*
X1754Y11195D01*
X958Y10587D01*
X485Y9704D01*
X420Y8704D01*
X775Y7768D01*
X-82972Y-17815D02*
X-82017Y-17503D01*
X-81254Y-16849D01*
X-80799Y-15952D01*
X-80722Y-14950D01*
X-5906Y17717D02*
X-5726Y16813D01*
X-5214Y16046D01*
X-4447Y15534D01*
X-3543Y15354D01*
X49606Y-10630D02*
X50787Y-9449D01*
X49606Y-24016D02*
Y-10630D01*
X-74158Y-36327D02*
X787Y275D01*
X-34646Y17323D02*
X-21417Y20472D01*
X-47244Y12598D02*
X-34646Y17323D01*
X-57480Y7480D02*
X-47244Y12598D01*
X-68504Y394D02*
X-57480Y7480D01*
X-80722Y-14950D02*
X-68504Y394D01*
X-21417Y20472D02*
X-5906D01*
Y17717D02*
Y20472D01*
X787Y275D02*
Y7776D01*
X-77953Y-36319D02*
X-74158Y-36327D01*
X-84646Y-22441D02*
X-77953Y-36319D01*
X-84646Y-19685D02*
X-82972Y-17815D01*
X-84646Y-22441D02*
Y-19685D01*
X-5906Y17717D02*
Y17717D01*
X-3543Y15354D02*
X4331D01*
X8268Y13780D01*
Y10630D02*
Y13780D01*
X4521Y10630D02*
X8268D01*
X73622Y-31889D02*
Y-27953D01*
Y-31889D02*
X70998Y-27953D01*
Y-31889D02*
Y-27953D01*
X67099Y-30952D02*
X67287Y-31327D01*
X67662Y-31701D01*
X68036Y-31889D01*
X68786D01*
X69161Y-31701D01*
X69536Y-31327D01*
X69723Y-30952D01*
X69911Y-30389D01*
Y-29452D01*
X69723Y-28890D01*
X69536Y-28515D01*
X69161Y-28140D01*
X68786Y-27953D01*
X68036D01*
X67662Y-28140D01*
X67287Y-28515D01*
X67099Y-28890D01*
X61589Y-32639D02*
X61963Y-32264D01*
X62338Y-31701D01*
X62713Y-30952D01*
X62901Y-30015D01*
Y-29265D01*
X62713Y-28328D01*
X62338Y-27578D01*
X61963Y-27016D01*
X61589Y-26641D01*
X61963Y-32264D02*
X62338Y-31514D01*
X62526Y-30952D01*
X62713Y-30015D01*
Y-29265D01*
X62526Y-28328D01*
X62338Y-27765D01*
X61963Y-27016D01*
X60464Y-31889D02*
X58402D01*
X59527Y-30389D01*
X58965D01*
X58590Y-30202D01*
X58402Y-30015D01*
X58215Y-29452D01*
Y-29077D01*
X58402Y-28515D01*
X58777Y-28140D01*
X59339Y-27953D01*
X59902D01*
X60464Y-28140D01*
X60651Y-28328D01*
X60839Y-28703D01*
X57146Y-28328D02*
X57334Y-28140D01*
X57146Y-27953D01*
X56959Y-28140D01*
X57146Y-28328D01*
X55722Y-31889D02*
X53660D01*
X54785Y-30389D01*
X54222D01*
X53847Y-30202D01*
X53660Y-30015D01*
X53473Y-29452D01*
Y-29077D01*
X53660Y-28515D01*
X54035Y-28140D01*
X54597Y-27953D01*
X55160D01*
X55722Y-28140D01*
X55909Y-28328D01*
X56097Y-28703D01*
X52592Y-31889D02*
X51092Y-27953D01*
X49593Y-31889D02*
X51092Y-27953D01*
X49087Y-32639D02*
X48712Y-32264D01*
X48337Y-31701D01*
X47962Y-30952D01*
X47775Y-30015D01*
Y-29265D01*
X47962Y-28328D01*
X48337Y-27578D01*
X48712Y-27016D01*
X49087Y-26641D01*
X48712Y-32264D02*
X48337Y-31514D01*
X48149Y-30952D01*
X47962Y-30015D01*
Y-29265D01*
X48149Y-28328D01*
X48337Y-27765D01*
X48712Y-27016D01*
X-22835Y-4724D02*
X-25459Y-787D01*
Y-4724D02*
X-22835Y-787D01*
X-32283Y-9448D02*
X-34908Y-5512D01*
Y-9448D02*
X-32283Y-5512D01*
X-83296Y-8712D02*
X-80983Y-5528D01*
X-82235Y-9484D02*
X-84358Y-7941D01*
X-84737Y-7666D02*
X-82423Y-4481D01*
X-84737Y-7666D02*
X-85798Y-6895D01*
X-86143Y-6412D01*
X-86226Y-5889D01*
X-86157Y-5475D01*
X-85979Y-4910D01*
X-85428Y-4152D01*
X-84945Y-3807D01*
X-84574Y-3614D01*
X-84050Y-3531D01*
X-83485Y-3710D01*
X-82423Y-4481D01*
X-88482Y-4944D02*
X-88069Y-5013D01*
X-87545Y-4930D01*
X-87173Y-4737D01*
X-86691Y-4392D01*
X-86140Y-3634D01*
X-85962Y-3069D01*
X-85893Y-2656D01*
X-85976Y-2132D01*
X-86169Y-1760D01*
X-86775Y-1319D01*
X-87189Y-1251D01*
X-87712Y-1334D01*
X-88084Y-1527D01*
X-88567Y-1871D01*
X-89117Y-2630D01*
X-89296Y-3195D01*
X-89365Y-3608D01*
X-89282Y-4132D01*
X-89089Y-4504D01*
X-88482Y-4944D01*
X30184Y-17716D02*
Y-13780D01*
X31496Y-17716D02*
X28872D01*
X28403D02*
Y-13780D01*
Y-17716D02*
X27091D01*
X26529Y-17528D01*
X26154Y-17153D01*
X25967Y-16779D01*
X25779Y-16216D01*
Y-15279D01*
X25967Y-14717D01*
X26154Y-14342D01*
X26529Y-13967D01*
X27091Y-13780D01*
X28403D01*
X23774Y-17716D02*
X24149Y-17528D01*
X24523Y-17153D01*
X24711Y-16779D01*
X24898Y-16216D01*
Y-15279D01*
X24711Y-14717D01*
X24523Y-14342D01*
X24149Y-13967D01*
X23774Y-13780D01*
X23024D01*
X22649Y-13967D01*
X22274Y-14342D01*
X22087Y-14717D01*
X21899Y-15279D01*
Y-16216D01*
X22087Y-16779D01*
X22274Y-17153D01*
X22649Y-17528D01*
X23024Y-17716D01*
X23774D01*
X-86655Y-14224D02*
X-84341Y-11040D01*
X-85593Y-14995D02*
X-87716Y-13453D01*
X-88095Y-13178D02*
X-85782Y-9993D01*
X-88095Y-13178D02*
X-89157Y-12406D01*
X-89502Y-11924D01*
X-89585Y-11401D01*
X-89516Y-10987D01*
X-89337Y-10422D01*
X-88786Y-9664D01*
X-88304Y-9319D01*
X-87932Y-9126D01*
X-87408Y-9043D01*
X-86843Y-9222D01*
X-85782Y-9993D01*
X-90931Y-11117D02*
X-88617Y-7933D01*
X29003Y-8267D02*
Y-4331D01*
X30315Y-8267D02*
X27691D01*
X27222D02*
Y-4331D01*
Y-8267D02*
X25910D01*
X25348Y-8079D01*
X24973Y-7705D01*
X24786Y-7330D01*
X24598Y-6767D01*
Y-5830D01*
X24786Y-5268D01*
X24973Y-4893D01*
X25348Y-4518D01*
X25910Y-4331D01*
X27222D01*
X23717Y-8267D02*
Y-4331D01*
X-79359Y-3988D02*
X-77046Y-804D01*
X-78298Y-4759D02*
X-80421Y-3217D01*
X-80800Y-2941D02*
X-78486Y243D01*
X-80800Y-2941D02*
X-79699Y1124D01*
X-83226Y-1179D02*
X-79699Y1124D01*
X-83226Y-1179D02*
X-80913Y2006D01*
X-85928Y1480D02*
X-85846Y956D01*
X-85501Y474D01*
X-84894Y33D01*
X-84329Y-146D01*
X-83806Y-63D01*
X-83585Y241D01*
X-83516Y654D01*
X-83558Y916D01*
X-83751Y1288D01*
X-84440Y2252D01*
X-84634Y2624D01*
X-84675Y2886D01*
X-84606Y3299D01*
X-84276Y3754D01*
X-83752Y3837D01*
X-83187Y3658D01*
X-82581Y3218D01*
X-82236Y2736D01*
X-82153Y2212D01*
X30578Y2363D02*
Y6299D01*
X31890Y2363D02*
X29266D01*
X28797D02*
Y6299D01*
Y2363D02*
X27298Y6299D01*
X25798Y2363D02*
X27298Y6299D01*
X25798Y2363D02*
Y6299D01*
X22049Y2925D02*
X22424Y2551D01*
X22986Y2363D01*
X23736D01*
X24299Y2551D01*
X24674Y2925D01*
Y3300D01*
X24486Y3675D01*
X24299Y3862D01*
X23924Y4050D01*
X22799Y4425D01*
X22424Y4612D01*
X22237Y4800D01*
X22049Y5175D01*
Y5737D01*
X22424Y6112D01*
X22986Y6299D01*
X23736D01*
X24299Y6112D01*
X24674Y5737D01*
X-75422Y343D02*
X-73109Y3527D01*
X-74361Y-428D02*
X-76484Y1114D01*
X-78587Y3800D02*
X-78655Y3387D01*
X-78572Y2863D01*
X-78379Y2491D01*
X-77773Y2050D01*
X-77359Y1982D01*
X-76836Y2065D01*
X-76464Y2258D01*
X-75981Y2602D01*
X-75431Y3361D01*
X-75252Y3926D01*
X-75183Y4339D01*
X-75266Y4863D01*
X-75459Y5235D01*
X-76066Y5675D01*
X-76479Y5744D01*
X-77003Y5661D01*
X-77375Y5468D01*
X-80032Y3692D02*
X-77719Y6876D01*
X-82155Y5234D02*
X-78490Y5815D01*
X-79799Y5607D02*
X-79842Y8419D01*
X30184Y11812D02*
Y15748D01*
X31496Y11812D02*
X28872D01*
X25592Y12749D02*
X25779Y12374D01*
X26154Y11999D01*
X26529Y11812D01*
X27279D01*
X27654Y11999D01*
X28029Y12374D01*
X28216Y12749D01*
X28403Y13311D01*
Y14248D01*
X28216Y14811D01*
X28029Y15186D01*
X27654Y15561D01*
X27279Y15748D01*
X26529D01*
X26154Y15561D01*
X25779Y15186D01*
X25592Y14811D01*
X24486Y11812D02*
Y15748D01*
X21862Y11812D02*
X24486Y14436D01*
X23549Y13499D02*
X21862Y15748D01*
X-18999Y10744D02*
X-18663Y10994D01*
X-18359Y11428D01*
X-18239Y11830D01*
X-18369Y12568D01*
X-18619Y12905D01*
X-19053Y13209D01*
X-19455Y13328D01*
X-20041Y13415D01*
X-20964Y13252D01*
X-21486Y12970D01*
X-21822Y12721D01*
X-22126Y12286D01*
X-22246Y11885D01*
X-22116Y11146D01*
X-21866Y10810D01*
X-21431Y10505D01*
X-21030Y10386D01*
X-20476Y10484D01*
X-20639Y11407D02*
X-20476Y10484D01*
X-17920Y10021D02*
X-21797Y9337D01*
X-17920Y10021D02*
X-21341Y6753D01*
X-17464Y7436D02*
X-21341Y6753D01*
X-17276Y6366D02*
X-21152Y5682D01*
X-17276Y6366D02*
X-17048Y5074D01*
X-17135Y4487D01*
X-17439Y4053D01*
X-17775Y3804D01*
X-18297Y3521D01*
X-19220Y3359D01*
X-19806Y3446D01*
X-20208Y3565D01*
X-20642Y3869D01*
X-20924Y4390D01*
X-21152Y5682D01*
X-60336Y-26741D02*
X-60008Y-27001D01*
X-59509Y-27183D01*
X-59090Y-27194D01*
X-58411Y-26877D01*
X-58150Y-26549D01*
X-57969Y-26051D01*
X-57958Y-25632D01*
X-58025Y-25043D01*
X-58421Y-24194D01*
X-58829Y-23763D01*
X-59157Y-23503D01*
X-59655Y-23321D01*
X-60074Y-23310D01*
X-60754Y-23627D01*
X-61014Y-23955D01*
X-61196Y-24453D01*
X-61207Y-24872D01*
X-60970Y-25382D01*
X-60120Y-24986D02*
X-60970Y-25382D01*
X-60755Y-27970D02*
X-62419Y-24403D01*
X-60755Y-27970D02*
X-64797Y-25512D01*
X-63133Y-29079D02*
X-64797Y-25512D01*
X-64119Y-29539D02*
X-65782Y-25971D01*
X-64119Y-29539D02*
X-65308Y-30093D01*
X-65897Y-30161D01*
X-66395Y-29980D01*
X-66723Y-29719D01*
X-67131Y-29289D01*
X-67527Y-28440D01*
X-67594Y-27851D01*
X-67583Y-27432D01*
X-67402Y-26934D01*
X-66971Y-26526D01*
X-65782Y-25971D01*
X-61520Y-14794D02*
X-62946Y-11737D01*
X-60704Y-12552D02*
X-63762Y-13978D01*
X-64205Y-16666D02*
X-66073Y-17538D01*
X-65688Y-15703D01*
X-66197Y-15941D01*
X-66616Y-15930D01*
X-66865Y-15839D01*
X-67273Y-15409D01*
X-67431Y-15069D01*
X-67499Y-14480D01*
X-67318Y-13982D01*
X-66887Y-13574D01*
X-66378Y-13337D01*
X-65789Y-13269D01*
X-65540Y-13360D01*
X-65211Y-13620D01*
X-68716Y-14841D02*
X-68626Y-14592D01*
X-68875Y-14501D01*
X-68966Y-14750D01*
X-68716Y-14841D01*
X-70541Y-19621D02*
X-70506Y-15262D01*
X-68163Y-18512D02*
X-70541Y-19621D01*
X-15917Y33746D02*
X-19291D01*
X-17604Y35433D02*
Y32059D01*
X-15355Y30522D02*
Y28460D01*
X-16855Y29585D01*
Y29023D01*
X-17042Y28648D01*
X-17230Y28460D01*
X-17792Y28273D01*
X-18167D01*
X-18729Y28460D01*
X-19104Y28835D01*
X-19291Y29398D01*
Y29960D01*
X-19104Y30522D01*
X-18916Y30710D01*
X-18542Y30897D01*
X-18916Y27205D02*
X-19104Y27392D01*
X-19291Y27205D01*
X-19104Y27017D01*
X-18916Y27205D01*
X-15355Y23531D02*
X-19291Y25405D01*
X-15355Y26155D02*
Y23531D01*
X-2868Y-39201D02*
Y-35827D01*
X-1181Y-37514D02*
X-4555D01*
X-6092Y-39763D02*
X-8154D01*
X-7029Y-38263D01*
X-7591D01*
X-7966Y-38076D01*
X-8154Y-37889D01*
X-8341Y-37326D01*
Y-36951D01*
X-8154Y-36389D01*
X-7779Y-36014D01*
X-7216Y-35827D01*
X-6654D01*
X-6092Y-36014D01*
X-5904Y-36202D01*
X-5717Y-36577D01*
X-9410Y-36202D02*
X-9222Y-36014D01*
X-9410Y-35827D01*
X-9597Y-36014D01*
X-9410Y-36202D01*
X-13083Y-39763D02*
X-11209Y-35827D01*
X-10459Y-39763D02*
X-13083D01*
X55006Y39146D02*
Y42520D01*
X56693Y40833D02*
X53319D01*
X51782Y38583D02*
X49720D01*
X50845Y40083D01*
X50283D01*
X49908Y40270D01*
X49720Y40458D01*
X49533Y41020D01*
Y41395D01*
X49720Y41957D01*
X50095Y42332D01*
X50657Y42520D01*
X51220D01*
X51782Y42332D01*
X51969Y42145D01*
X52157Y41770D01*
X48464Y42145D02*
X48652Y42332D01*
X48464Y42520D01*
X48277Y42332D01*
X48464Y42145D01*
X44791Y38583D02*
X46665Y42520D01*
X47415Y38583D02*
X44791D01*
X28684Y22985D02*
X28872Y22610D01*
X29247Y22235D01*
X29622Y22048D01*
X30371D01*
X30746Y22235D01*
X31121Y22610D01*
X31309Y22985D01*
X31496Y23548D01*
Y24485D01*
X31309Y25047D01*
X31121Y25422D01*
X30746Y25797D01*
X30371Y25984D01*
X29622D01*
X29247Y25797D01*
X28872Y25422D01*
X28684Y25047D01*
Y24485D01*
X29622D02*
X28684D01*
X27785Y22048D02*
Y25984D01*
Y22048D02*
X25161Y25984D01*
Y22048D02*
Y25984D01*
X24074Y22048D02*
Y25984D01*
Y22048D02*
X22761D01*
X22199Y22235D01*
X21824Y22610D01*
X21637Y22985D01*
X21450Y23548D01*
Y24485D01*
X21637Y25047D01*
X21824Y25422D01*
X22199Y25797D01*
X22761Y25984D01*
X24074D01*
X68842Y39521D02*
X69029Y39146D01*
X69404Y38771D01*
X69779Y38583D01*
X70529D01*
X70904Y38771D01*
X71279Y39146D01*
X71466Y39521D01*
X71653Y40083D01*
Y41020D01*
X71466Y41583D01*
X71279Y41957D01*
X70904Y42332D01*
X70529Y42520D01*
X69779D01*
X69404Y42332D01*
X69029Y41957D01*
X68842Y41583D01*
Y41020D01*
X69779D02*
X68842D01*
X67942Y38583D02*
Y42520D01*
Y38583D02*
X65318Y42520D01*
Y38583D02*
Y42520D01*
X64231Y38583D02*
Y42520D01*
Y38583D02*
X62919D01*
X62357Y38771D01*
X61982Y39146D01*
X61794Y39521D01*
X61607Y40083D01*
Y41020D01*
X61794Y41583D01*
X61982Y41957D01*
X62357Y42332D01*
X62919Y42520D01*
X64231D01*
X-20528Y-38826D02*
X-20341Y-39201D01*
X-19966Y-39575D01*
X-19591Y-39763D01*
X-18841D01*
X-18466Y-39575D01*
X-18091Y-39201D01*
X-17904Y-38826D01*
X-17717Y-38263D01*
Y-37326D01*
X-17904Y-36764D01*
X-18091Y-36389D01*
X-18466Y-36014D01*
X-18841Y-35827D01*
X-19591D01*
X-19966Y-36014D01*
X-20341Y-36389D01*
X-20528Y-36764D01*
Y-37326D01*
X-19591D02*
X-20528D01*
X-21428Y-39763D02*
Y-35827D01*
Y-39763D02*
X-24052Y-35827D01*
Y-39763D02*
Y-35827D01*
X-25139Y-39763D02*
Y-35827D01*
Y-39763D02*
X-26451D01*
X-27013Y-39575D01*
X-27388Y-39201D01*
X-27576Y-38826D01*
X-27763Y-38263D01*
Y-37326D01*
X-27576Y-36764D01*
X-27388Y-36389D01*
X-27013Y-36014D01*
X-26451Y-35827D01*
X-25139D01*
D11*
X53150Y-14961D02*
Y-9843D01*
Y-14961D02*
X74803D01*
Y18898D01*
X53150D02*
X74803D01*
X53150Y13780D02*
Y18898D01*
X49055Y33496D02*
X52055Y36496D01*
X49055Y26496D02*
Y36496D01*
Y26496D02*
X69055D01*
Y36496D01*
X49055D02*
X69055D01*
X-8748Y-52244D02*
X-5748Y-49244D01*
Y-52244D02*
Y-42244D01*
X-25748D02*
X-5748D01*
X-25748Y-52244D02*
Y-42244D01*
Y-52244D02*
X-5748D01*
X34370Y-21063D02*
Y28937D01*
X44370D01*
Y-21063D02*
Y28937D01*
X34370Y-21063D02*
X44370D01*
X34370Y-18063D02*
X37370Y-21063D01*
M02*
