G04*
G04 #@! TF.GenerationSoftware,Altium Limited,Altium Designer,19.0.15 (446)*
G04*
G04 Layer_Physical_Order=2*
G04 Layer_Color=16711680*
%FSLAX25Y25*%
%MOIN*%
G70*
G01*
G75*
%ADD22C,0.03000*%
%ADD24C,0.25000*%
G04:AMPARAMS|DCode=25|XSize=31.5mil|YSize=70.87mil|CornerRadius=0mil|HoleSize=0mil|Usage=FLASHONLY|Rotation=52.000|XOffset=0mil|YOffset=0mil|HoleType=Round|Shape=Round|*
%AMOVALD25*
21,1,0.03937,0.03150,0.00000,0.00000,142.0*
1,1,0.03150,0.01551,-0.01212*
1,1,0.03150,-0.01551,0.01212*
%
%ADD25OVALD25*%

G04:AMPARAMS|DCode=26|XSize=31.5mil|YSize=70.87mil|CornerRadius=0mil|HoleSize=0mil|Usage=FLASHONLY|Rotation=116.000|XOffset=0mil|YOffset=0mil|HoleType=Round|Shape=Round|*
%AMOVALD26*
21,1,0.03937,0.03150,0.00000,0.00000,206.0*
1,1,0.03150,0.01769,0.00863*
1,1,0.03150,-0.01769,-0.00863*
%
%ADD26OVALD26*%

%ADD27O,0.03150X0.07087*%
G04:AMPARAMS|DCode=28|XSize=31.5mil|YSize=70.87mil|CornerRadius=0mil|HoleSize=0mil|Usage=FLASHONLY|Rotation=10.000|XOffset=0mil|YOffset=0mil|HoleType=Round|Shape=Round|*
%AMOVALD28*
21,1,0.03937,0.03150,0.00000,0.00000,100.0*
1,1,0.03150,0.00342,-0.01939*
1,1,0.03150,-0.00342,0.01939*
%
%ADD28OVALD28*%

G04:AMPARAMS|DCode=29|XSize=31.5mil|YSize=70.87mil|CornerRadius=0mil|HoleSize=0mil|Usage=FLASHONLY|Rotation=206.000|XOffset=0mil|YOffset=0mil|HoleType=Round|Shape=Round|*
%AMOVALD29*
21,1,0.03937,0.03150,0.00000,0.00000,296.0*
1,1,0.03150,-0.00863,0.01769*
1,1,0.03150,0.00863,-0.01769*
%
%ADD29OVALD29*%

%ADD30C,0.06000*%
%ADD31C,0.03150*%
G36*
X78740Y-62992D02*
X-94488D01*
X-94488Y47244D01*
X78740D01*
X78740Y-62992D01*
D02*
G37*
%LPC*%
G36*
X64555Y35465D02*
Y31996D01*
X68024D01*
X67952Y32540D01*
X67549Y33513D01*
X66908Y34349D01*
X66072Y34990D01*
X65099Y35393D01*
X64555Y35465D01*
D02*
G37*
G36*
X63555D02*
X63011Y35393D01*
X62038Y34990D01*
X61202Y34349D01*
X60561Y33513D01*
X60158Y32540D01*
X60086Y31996D01*
X63555D01*
Y35465D01*
D02*
G37*
G36*
X54055Y35228D02*
X53089Y35101D01*
X52189Y34728D01*
X51416Y34135D01*
X50823Y33362D01*
X50450Y32462D01*
X50323Y31496D01*
X50450Y30530D01*
X50823Y29630D01*
X51416Y28857D01*
X52189Y28264D01*
X53089Y27891D01*
X54055Y27764D01*
X55021Y27891D01*
X55921Y28264D01*
X56694Y28857D01*
X57287Y29630D01*
X57660Y30530D01*
X57787Y31496D01*
X57660Y32462D01*
X57287Y33362D01*
X56694Y34135D01*
X55921Y34728D01*
X55021Y35101D01*
X54055Y35228D01*
D02*
G37*
G36*
X68024Y30996D02*
X64555D01*
Y27527D01*
X65099Y27599D01*
X66072Y28002D01*
X66908Y28643D01*
X67549Y29479D01*
X67952Y30452D01*
X68024Y30996D01*
D02*
G37*
G36*
X63555D02*
X60086D01*
X60158Y30452D01*
X60561Y29479D01*
X61202Y28643D01*
X62038Y28002D01*
X63011Y27599D01*
X63555Y27527D01*
Y30996D01*
D02*
G37*
G36*
X39870Y27906D02*
Y24437D01*
X43339D01*
X43267Y24981D01*
X42864Y25954D01*
X42223Y26790D01*
X41387Y27431D01*
X40414Y27834D01*
X39870Y27906D01*
D02*
G37*
G36*
X38870D02*
X38326Y27834D01*
X37353Y27431D01*
X36517Y26790D01*
X35876Y25954D01*
X35473Y24981D01*
X35401Y24437D01*
X38870D01*
Y27906D01*
D02*
G37*
G36*
X43339Y23437D02*
X39870D01*
Y19968D01*
X40414Y20040D01*
X41387Y20443D01*
X42223Y21084D01*
X42864Y21920D01*
X43267Y22893D01*
X43339Y23437D01*
D02*
G37*
G36*
X38870D02*
X35401D01*
X35473Y22893D01*
X35876Y21920D01*
X36517Y21084D01*
X37353Y20443D01*
X38326Y20040D01*
X38870Y19968D01*
Y23437D01*
D02*
G37*
G36*
X49713Y17492D02*
Y15461D01*
X51744D01*
X51721Y15633D01*
X51462Y16259D01*
X51049Y16797D01*
X50511Y17210D01*
X49885Y17469D01*
X49713Y17492D01*
D02*
G37*
G36*
X48713D02*
X48540Y17469D01*
X47914Y17210D01*
X47376Y16797D01*
X46964Y16259D01*
X46704Y15633D01*
X46681Y15461D01*
X48713D01*
Y17492D01*
D02*
G37*
G36*
X-34138Y43556D02*
X-36209Y43393D01*
X-38229Y42908D01*
X-40149Y42113D01*
X-41921Y41027D01*
X-43501Y39678D01*
X-44850Y38098D01*
X-45935Y36326D01*
X-46731Y34407D01*
X-47216Y32386D01*
X-47379Y30315D01*
X-47216Y28244D01*
X-46731Y26223D01*
X-45935Y24304D01*
X-44850Y22532D01*
X-43501Y20952D01*
X-41921Y19603D01*
X-40149Y18517D01*
X-38229Y17722D01*
X-36209Y17237D01*
X-34138Y17074D01*
X-32067Y17237D01*
X-30046Y17722D01*
X-28127Y18517D01*
X-26355Y19603D01*
X-24977Y20780D01*
X-24467Y20558D01*
X-24463Y20466D01*
X-24208Y19020D01*
X-21650Y19470D01*
X-21563Y18978D01*
X-21071Y19065D01*
X-20290Y14634D01*
X-20124Y14686D01*
X-19552Y15050D01*
X-19191Y15444D01*
X-19089Y15550D01*
X-18527Y15556D01*
X-18112Y15278D01*
X-17224Y15102D01*
X-16337Y15278D01*
X-15584Y15781D01*
X-15082Y16534D01*
X-14905Y17421D01*
Y21358D01*
X-15082Y22246D01*
X-15584Y22998D01*
X-16337Y23501D01*
X-17224Y23678D01*
X-18112Y23501D01*
X-18864Y22998D01*
X-19234Y22446D01*
X-19797Y22413D01*
X-19808Y22417D01*
X-19916Y22586D01*
X-20416Y23044D01*
X-21017Y23357D01*
X-21679Y23504D01*
X-22259Y23479D01*
X-22608Y23866D01*
X-22340Y24304D01*
X-21545Y26223D01*
X-21060Y28244D01*
X-20897Y30315D01*
X-21060Y32386D01*
X-21545Y34407D01*
X-22340Y36326D01*
X-23426Y38098D01*
X-24775Y39678D01*
X-26355Y41027D01*
X-28127Y42113D01*
X-30046Y42908D01*
X-32067Y43393D01*
X-34138Y43556D01*
D02*
G37*
G36*
X4331Y41194D02*
X2259Y41031D01*
X239Y40545D01*
X-1681Y39750D01*
X-3452Y38665D01*
X-5032Y37315D01*
X-6381Y35735D01*
X-7467Y33964D01*
X-8262Y32044D01*
X-8747Y30024D01*
X-8910Y27953D01*
X-8747Y25881D01*
X-8262Y23861D01*
X-7467Y21942D01*
X-6381Y20170D01*
X-5032Y18590D01*
X-3452Y17241D01*
X-1681Y16155D01*
X239Y15360D01*
X2259Y14875D01*
X4331Y14712D01*
X6402Y14875D01*
X8422Y15360D01*
X10342Y16155D01*
X12113Y17241D01*
X13693Y18590D01*
X15043Y20170D01*
X16128Y21942D01*
X16924Y23861D01*
X17409Y25881D01*
X17571Y27953D01*
X17409Y30024D01*
X16924Y32044D01*
X16128Y33964D01*
X15043Y35735D01*
X13693Y37315D01*
X12113Y38665D01*
X10342Y39750D01*
X8422Y40545D01*
X6402Y41031D01*
X4331Y41194D01*
D02*
G37*
G36*
X-21969Y18399D02*
X-24034Y18035D01*
X-23779Y16589D01*
X-23575Y15942D01*
X-23211Y15370D01*
X-22711Y14912D01*
X-22110Y14599D01*
X-21448Y14452D01*
X-21274Y14460D01*
X-21969Y18399D01*
D02*
G37*
G36*
X51744Y14461D02*
X49713D01*
Y12429D01*
X49885Y12452D01*
X50511Y12711D01*
X51049Y13124D01*
X51462Y13662D01*
X51721Y14288D01*
X51744Y14461D01*
D02*
G37*
G36*
X48713D02*
X46681D01*
X46704Y14288D01*
X46964Y13662D01*
X47376Y13124D01*
X47914Y12711D01*
X48540Y12452D01*
X48713Y12429D01*
Y14461D01*
D02*
G37*
G36*
X39370Y17669D02*
X38404Y17542D01*
X37504Y17169D01*
X36731Y16576D01*
X36138Y15803D01*
X35765Y14903D01*
X35638Y13937D01*
X35765Y12971D01*
X36138Y12071D01*
X36731Y11298D01*
X37504Y10705D01*
X38404Y10332D01*
X39370Y10205D01*
X40336Y10332D01*
X41236Y10705D01*
X42009Y11298D01*
X42602Y12071D01*
X42975Y12971D01*
X43102Y13937D01*
X42975Y14903D01*
X42602Y15803D01*
X42009Y16576D01*
X41236Y17169D01*
X40336Y17542D01*
X39370Y17669D01*
D02*
G37*
G36*
Y7669D02*
X38404Y7542D01*
X37504Y7169D01*
X36731Y6576D01*
X36138Y5803D01*
X35765Y4903D01*
X35638Y3937D01*
X35765Y2971D01*
X36138Y2071D01*
X36731Y1298D01*
X37504Y705D01*
X38404Y332D01*
X39370Y205D01*
X40336Y332D01*
X41236Y705D01*
X42009Y1298D01*
X42602Y2071D01*
X42975Y2971D01*
X43102Y3937D01*
X42975Y4903D01*
X42602Y5803D01*
X42009Y6576D01*
X41236Y7169D01*
X40336Y7542D01*
X39370Y7669D01*
D02*
G37*
G36*
X-72843Y-1019D02*
X-73703Y-1302D01*
X-74388Y-1893D01*
X-74796Y-2701D01*
X-74863Y-3603D01*
X-74704Y-4084D01*
X-75075Y-4558D01*
X-75599Y-4519D01*
X-76459Y-4802D01*
X-77144Y-5393D01*
X-77552Y-6201D01*
X-77619Y-7103D01*
X-77555Y-7296D01*
X-77863Y-7690D01*
X-78158Y-7668D01*
X-79018Y-7952D01*
X-79703Y-8542D01*
X-80111Y-9351D01*
X-80178Y-10253D01*
X-80129Y-10402D01*
X-80436Y-10796D01*
X-80619Y-10783D01*
X-81478Y-11066D01*
X-82164Y-11657D01*
X-82571Y-12465D01*
X-82638Y-13367D01*
X-82355Y-14227D01*
X-81764Y-14912D01*
X-78662Y-17336D01*
X-77910Y-17715D01*
X-77787Y-18212D01*
X-78355Y-18489D01*
X-79076Y-19037D01*
X-79532Y-19818D01*
X-79654Y-20715D01*
X-79423Y-21590D01*
X-78876Y-22311D01*
X-78094Y-22767D01*
X-77197Y-22889D01*
X-76322Y-22658D01*
X-72783Y-20932D01*
X-72063Y-20385D01*
X-71607Y-19603D01*
X-71485Y-18706D01*
X-71715Y-17831D01*
X-72263Y-17111D01*
X-73045Y-16655D01*
X-73942Y-16533D01*
X-74750Y-16746D01*
X-74920Y-16618D01*
X-75111Y-16350D01*
X-74999Y-16128D01*
X-74932Y-15226D01*
X-74981Y-15077D01*
X-74673Y-14683D01*
X-74491Y-14696D01*
X-73631Y-14413D01*
X-72945Y-13822D01*
X-72538Y-13014D01*
X-72471Y-12112D01*
X-72535Y-11919D01*
X-72227Y-11525D01*
X-71931Y-11547D01*
X-71072Y-11263D01*
X-70386Y-10673D01*
X-69979Y-9864D01*
X-69912Y-8962D01*
X-70070Y-8482D01*
X-69700Y-8008D01*
X-69176Y-8047D01*
X-68316Y-7763D01*
X-67631Y-7173D01*
X-67223Y-6364D01*
X-67156Y-5462D01*
X-67440Y-4603D01*
X-68030Y-3917D01*
X-71133Y-1493D01*
X-71941Y-1086D01*
X-72843Y-1019D01*
D02*
G37*
G36*
X39370Y-2331D02*
X38404Y-2458D01*
X37504Y-2831D01*
X36731Y-3424D01*
X36138Y-4197D01*
X35765Y-5097D01*
X35638Y-6063D01*
X35765Y-7029D01*
X36138Y-7929D01*
X36731Y-8702D01*
X37504Y-9295D01*
X38404Y-9668D01*
X39370Y-9795D01*
X40336Y-9668D01*
X41236Y-9295D01*
X42009Y-8702D01*
X42602Y-7929D01*
X42975Y-7029D01*
X43102Y-6063D01*
X42975Y-5097D01*
X42602Y-4197D01*
X42009Y-3424D01*
X41236Y-2831D01*
X40336Y-2458D01*
X39370Y-2331D01*
D02*
G37*
G36*
X-24502Y-5639D02*
X-25378Y-5869D01*
X-26098Y-6417D01*
X-26554Y-7199D01*
X-26676Y-8095D01*
X-26446Y-8970D01*
X-24720Y-12509D01*
X-24172Y-13229D01*
X-23390Y-13685D01*
X-22493Y-13807D01*
X-21618Y-13577D01*
X-20898Y-13029D01*
X-20442Y-12247D01*
X-20320Y-11351D01*
X-20550Y-10475D01*
X-22276Y-6937D01*
X-22824Y-6217D01*
X-23606Y-5761D01*
X-24502Y-5639D01*
D02*
G37*
G36*
X-33849Y-10265D02*
X-34724Y-10495D01*
X-35445Y-11043D01*
X-35900Y-11825D01*
X-36022Y-12721D01*
X-35792Y-13596D01*
X-34066Y-17135D01*
X-33518Y-17855D01*
X-32737Y-18311D01*
X-31840Y-18433D01*
X-30965Y-18203D01*
X-30244Y-17655D01*
X-29789Y-16873D01*
X-29667Y-15977D01*
X-29897Y-15101D01*
X-31623Y-11563D01*
X-32171Y-10843D01*
X-32952Y-10387D01*
X-33849Y-10265D01*
D02*
G37*
G36*
X39370Y-12331D02*
X38404Y-12458D01*
X37504Y-12831D01*
X36731Y-13424D01*
X36138Y-14197D01*
X35765Y-15097D01*
X35638Y-16063D01*
X35765Y-17029D01*
X36138Y-17929D01*
X36731Y-18702D01*
X37504Y-19295D01*
X38404Y-19668D01*
X39370Y-19795D01*
X40336Y-19668D01*
X41236Y-19295D01*
X42009Y-18702D01*
X42602Y-17929D01*
X42975Y-17029D01*
X43102Y-16063D01*
X42975Y-15097D01*
X42602Y-14197D01*
X42009Y-13424D01*
X41236Y-12831D01*
X40336Y-12458D01*
X39370Y-12331D01*
D02*
G37*
G36*
X-59055Y-436D02*
X-59943Y-613D01*
X-60695Y-1116D01*
X-61198Y-1868D01*
X-61374Y-2756D01*
X-61298Y-3139D01*
Y-14031D01*
X-64701Y-17434D01*
X-65026Y-17651D01*
X-65529Y-18404D01*
X-65705Y-19291D01*
X-65529Y-20179D01*
X-65026Y-20931D01*
X-64273Y-21434D01*
X-63386Y-21611D01*
X-62498Y-21434D01*
X-61746Y-20931D01*
X-61529Y-20606D01*
X-59055Y-18133D01*
X-54219Y-22968D01*
X-54002Y-23294D01*
X-53250Y-23796D01*
X-52362Y-23973D01*
X-51475Y-23796D01*
X-50722Y-23294D01*
X-50219Y-22541D01*
X-50043Y-21654D01*
X-50219Y-20766D01*
X-50722Y-20013D01*
X-51047Y-19796D01*
X-56812Y-14031D01*
Y-3139D01*
X-56736Y-2756D01*
X-56912Y-1868D01*
X-57415Y-1116D01*
X-58167Y-613D01*
X-59055Y-436D01*
D02*
G37*
G36*
X-5118Y-3295D02*
X-7189Y-3458D01*
X-9210Y-3943D01*
X-11129Y-4738D01*
X-12901Y-5823D01*
X-14481Y-7173D01*
X-15830Y-8753D01*
X-16916Y-10524D01*
X-17711Y-12444D01*
X-18196Y-14464D01*
X-18359Y-16535D01*
X-18196Y-18607D01*
X-17711Y-20627D01*
X-16916Y-22547D01*
X-15830Y-24318D01*
X-14481Y-25898D01*
X-12901Y-27248D01*
X-11129Y-28333D01*
X-9210Y-29128D01*
X-7189Y-29613D01*
X-5118Y-29776D01*
X-3047Y-29613D01*
X-1027Y-29128D01*
X893Y-28333D01*
X2665Y-27248D01*
X4245Y-25898D01*
X5594Y-24318D01*
X6680Y-22547D01*
X7475Y-20627D01*
X7960Y-18607D01*
X8123Y-16535D01*
X7960Y-14464D01*
X7475Y-12444D01*
X6680Y-10524D01*
X5594Y-8753D01*
X4245Y-7173D01*
X2665Y-5823D01*
X893Y-4738D01*
X-1027Y-3943D01*
X-3047Y-3458D01*
X-5118Y-3295D01*
D02*
G37*
G36*
X-70028Y-28588D02*
X-70705Y-28629D01*
X-71348Y-28844D01*
X-72668Y-29488D01*
X-71749Y-31373D01*
X-68154Y-29619D01*
X-68250Y-29475D01*
X-68757Y-29025D01*
X-69364Y-28723D01*
X-70028Y-28588D01*
D02*
G37*
G36*
X-73567Y-29926D02*
X-74887Y-30570D01*
X-75452Y-30944D01*
X-75901Y-31452D01*
X-76204Y-32059D01*
X-76339Y-32723D01*
X-76297Y-33400D01*
X-76242Y-33564D01*
X-72648Y-31811D01*
X-73567Y-29926D01*
D02*
G37*
G36*
X-20248Y-43275D02*
Y-46744D01*
X-16779D01*
X-16851Y-46200D01*
X-17254Y-45227D01*
X-17895Y-44391D01*
X-18731Y-43750D01*
X-19704Y-43347D01*
X-20248Y-43275D01*
D02*
G37*
G36*
X-21248D02*
X-21792Y-43347D01*
X-22765Y-43750D01*
X-23601Y-44391D01*
X-24242Y-45227D01*
X-24645Y-46200D01*
X-24717Y-46744D01*
X-21248D01*
Y-43275D01*
D02*
G37*
G36*
X-10748Y-43512D02*
X-11714Y-43639D01*
X-12614Y-44012D01*
X-13387Y-44605D01*
X-13980Y-45378D01*
X-14353Y-46278D01*
X-14480Y-47244D01*
X-14353Y-48210D01*
X-13980Y-49110D01*
X-13387Y-49883D01*
X-12614Y-50476D01*
X-11714Y-50849D01*
X-10748Y-50976D01*
X-9782Y-50849D01*
X-8882Y-50476D01*
X-8109Y-49883D01*
X-7516Y-49110D01*
X-7143Y-48210D01*
X-7016Y-47244D01*
X-7143Y-46278D01*
X-7516Y-45378D01*
X-8109Y-44605D01*
X-8882Y-44012D01*
X-9782Y-43639D01*
X-10748Y-43512D01*
D02*
G37*
G36*
X-16779Y-47744D02*
X-20248D01*
Y-51213D01*
X-19704Y-51141D01*
X-18731Y-50738D01*
X-17895Y-50097D01*
X-17254Y-49261D01*
X-16851Y-48288D01*
X-16779Y-47744D01*
D02*
G37*
G36*
X-21248D02*
X-24717D01*
X-24645Y-48288D01*
X-24242Y-49261D01*
X-23601Y-50097D01*
X-22765Y-50738D01*
X-21792Y-51141D01*
X-21248Y-51213D01*
Y-47744D01*
D02*
G37*
G36*
X-67715Y-30518D02*
X-71760Y-32491D01*
X-75804Y-34463D01*
X-75708Y-34608D01*
X-75200Y-35057D01*
X-74594Y-35360D01*
X-73929Y-35495D01*
X-73253Y-35454D01*
X-72610Y-35239D01*
X-72453Y-35162D01*
X-72140Y-35566D01*
X-73114Y-36705D01*
X-74199Y-38477D01*
X-74994Y-40397D01*
X-75479Y-42417D01*
X-75642Y-44488D01*
X-75479Y-46560D01*
X-74994Y-48580D01*
X-74199Y-50499D01*
X-73114Y-52271D01*
X-71764Y-53851D01*
X-70184Y-55200D01*
X-68413Y-56286D01*
X-66493Y-57081D01*
X-64473Y-57566D01*
X-62402Y-57729D01*
X-60330Y-57566D01*
X-58310Y-57081D01*
X-56390Y-56286D01*
X-54619Y-55200D01*
X-53039Y-53851D01*
X-51689Y-52271D01*
X-50604Y-50499D01*
X-49809Y-48580D01*
X-49324Y-46560D01*
X-49161Y-44488D01*
X-49324Y-42417D01*
X-49809Y-40397D01*
X-50604Y-38477D01*
X-51689Y-36705D01*
X-53039Y-35125D01*
X-54619Y-33776D01*
X-56390Y-32691D01*
X-58310Y-31895D01*
X-60330Y-31410D01*
X-62402Y-31247D01*
X-64473Y-31410D01*
X-66493Y-31895D01*
X-67349Y-32250D01*
X-67721Y-31863D01*
X-67619Y-31360D01*
X-67660Y-30683D01*
X-67715Y-30518D01*
D02*
G37*
%LPD*%
D22*
X-59055Y-14961D02*
X-52362Y-21654D01*
X-52362D01*
X-63386Y-19291D02*
X-59055Y-14961D01*
Y-2756D01*
D24*
X-34138Y30315D02*
D03*
X4331Y27953D02*
D03*
X-62402Y-44488D02*
D03*
X-5118Y-16535D02*
D03*
D25*
X-78785Y-14297D02*
D03*
X-76324Y-11182D02*
D03*
X-73765Y-8033D02*
D03*
X-71009Y-4533D02*
D03*
D26*
X-75569Y-19711D02*
D03*
X-71979Y-32041D02*
D03*
D27*
X-17224Y19390D02*
D03*
D28*
X-21563Y18978D02*
D03*
D29*
X-23498Y-9723D02*
D03*
X-32844Y-14349D02*
D03*
D30*
X64055Y31496D02*
D03*
X54055D02*
D03*
X-20748Y-47244D02*
D03*
X-10748D02*
D03*
X39370Y13937D02*
D03*
Y-16063D02*
D03*
Y-6063D02*
D03*
Y3937D02*
D03*
Y23937D02*
D03*
D31*
X-52362Y-21654D02*
D03*
X-63386Y-19291D02*
D03*
X-59055Y-2756D02*
D03*
X49213Y14961D02*
D03*
M02*
