M48
;Layer_Color=9474304
;FILE_FORMAT=2:5
INCH,TZ
;TYPE=PLATED
T1F00S00C0.02008
T2F00S00C0.03543
T3F00S00C0.11600
%
T01
X-70917Y-31524
X-74508Y-19193
X-77854Y-15024
X-75394Y-11909
X-72835Y-8760
X-70079Y-5260
X-59055Y-2756
X-63386Y-19291
X-52362Y-21654
X-33362Y-13287
X-24016Y-8661
X-21358Y17815
X-17224Y18209
X49213Y14961
T02
X-20748Y-47244
X-10748
X39370Y-16063
Y-6063
Y3937
Y13937
Y23937
X54055Y31496
X64055
T03
X-62402Y-44488
X-5118Y-16535
X4331Y27953
X-34138Y30315
M30
