G04*
G04 #@! TF.GenerationSoftware,Altium Limited,Altium Designer,19.0.15 (446)*
G04*
G04 Layer_Color=39423*
%FSLAX42Y42*%
%MOMM*%
G71*
G01*
G75*
%ADD22C,0.08*%
D22*
X215Y455D02*
G03*
X160Y400I0J-55D01*
G01*
X-160D02*
G03*
X-215Y455I-55J0D01*
G01*
X150Y80D02*
G03*
X160Y90I0J10D01*
G01*
X145Y-40D02*
G03*
X160Y-25I0J15D01*
G01*
Y30D02*
G03*
X150Y40I-10J0D01*
G01*
X-160Y90D02*
G03*
X-150Y80I10J0D01*
G01*
X110Y50D02*
G03*
X120Y40I10J0D01*
G01*
Y80D02*
G03*
X110Y70I0J-10D01*
G01*
X-110D02*
G03*
X-120Y80I-10J0D01*
G01*
Y40D02*
G03*
X-110Y50I0J10D01*
G01*
X-150Y40D02*
G03*
X-160Y30I0J-10D01*
G01*
Y-25D02*
G03*
X-145Y-40I15J0D01*
G01*
X160Y223D02*
Y400D01*
Y90D02*
Y223D01*
X215Y455D02*
X1580D01*
X1670Y365D01*
X2250D01*
Y615D01*
X-945D02*
X2250D01*
X-945Y365D02*
Y615D01*
Y365D02*
X-385D01*
X-295Y455D01*
X-215D01*
X-160Y225D02*
Y400D01*
X-145Y-40D02*
X145D01*
X160Y-25D02*
Y30D01*
X-160Y90D02*
Y225D01*
X120Y40D02*
X150D01*
X110Y50D02*
Y70D01*
X120Y80D02*
X150D01*
X-150D02*
X-120D01*
X-110Y50D02*
Y70D01*
X-150Y40D02*
X-120D01*
X-160Y-25D02*
Y30D01*
M02*
