G04*
G04 #@! TF.GenerationSoftware,Altium Limited,Altium Designer,19.0.15 (446)*
G04*
G04 Layer_Physical_Order=1*
G04 Layer_Color=255*
%FSLAX42Y42*%
%MOMM*%
G71*
G01*
G75*
%ADD10R,0.64X0.60*%
%ADD11R,2.20X0.57*%
%ADD12R,2.20X0.38*%
%ADD17C,0.38*%
%ADD18C,0.38*%
%ADD19R,0.10X0.33*%
%ADD20C,0.51*%
%ADD21C,0.07*%
G36*
X150Y205D02*
X100Y205D01*
X100Y205D01*
X98Y205D01*
X94Y204D01*
X91Y201D01*
X90Y197D01*
X90Y195D01*
Y100D01*
X80Y90D01*
D01*
X78Y80D01*
X72D01*
X70Y90D01*
Y210D01*
X114Y270D01*
X150D01*
Y205D01*
D02*
G37*
G36*
X45Y270D02*
X30Y220D01*
Y120D01*
Y90D01*
X28Y80D01*
X22D01*
X20Y90D01*
Y90D01*
X15Y95D01*
Y130D01*
X10Y135D01*
Y275D01*
X15Y290D01*
X45D01*
Y270D01*
D02*
G37*
G36*
X-10Y275D02*
Y135D01*
X-15Y130D01*
Y95D01*
X-20Y90D01*
D01*
X-22Y80D01*
X-28D01*
X-30Y90D01*
D01*
Y90D01*
Y91D01*
Y220D01*
X-45Y270D01*
Y290D01*
X-15D01*
X-10Y275D01*
D02*
G37*
G36*
X-70Y210D02*
Y120D01*
Y91D01*
Y90D01*
X-72Y80D01*
X-78D01*
X-80Y90D01*
D01*
X-90Y100D01*
X-90Y195D01*
X-90Y197D01*
X-91Y201D01*
X-94Y204D01*
X-98Y205D01*
X-100Y205D01*
X-100Y205D01*
X-150Y205D01*
Y270D01*
X-114D01*
X-70Y210D01*
D02*
G37*
G36*
X95Y270D02*
X60Y215D01*
Y84D01*
X64Y80D01*
Y35D01*
X53Y25D01*
X47D01*
X36Y35D01*
Y80D01*
X40Y84D01*
Y220D01*
X65Y290D01*
X95D01*
Y270D01*
D02*
G37*
G36*
X5Y90D02*
X14Y80D01*
Y35D01*
X3Y25D01*
X-3D01*
X-14Y35D01*
Y80D01*
X-5Y90D01*
Y92D01*
X5D01*
Y90D01*
D02*
G37*
G36*
X-40Y220D02*
Y84D01*
X-36Y80D01*
Y35D01*
X-47Y25D01*
X-53D01*
X-64Y35D01*
Y80D01*
X-60Y84D01*
Y215D01*
X-95Y270D01*
Y290D01*
X-65D01*
X-40Y220D01*
D02*
G37*
G36*
X150Y95D02*
Y94D01*
X149Y92D01*
X148Y91D01*
X146Y90D01*
X123D01*
X119Y90D01*
X112Y87D01*
X106Y81D01*
X103Y74D01*
X103Y70D01*
Y50D01*
X103Y46D01*
X106Y39D01*
X112Y33D01*
X119Y30D01*
X123Y30D01*
X145D01*
X149Y28D01*
X151Y26D01*
X153Y22D01*
Y20D01*
Y-20D01*
Y-21D01*
X152Y-23D01*
X151Y-24D01*
X149Y-25D01*
X110D01*
Y-40D01*
X100D01*
Y22D01*
X93Y32D01*
Y81D01*
X100Y90D01*
Y193D01*
X150D01*
Y95D01*
D02*
G37*
G36*
X89Y22D02*
Y-25D01*
X80D01*
Y-40D01*
X70D01*
Y-25D01*
X61D01*
Y22D01*
X72Y32D01*
X78D01*
X89Y22D01*
D02*
G37*
G36*
X55Y-30D02*
Y-40D01*
X45D01*
Y-30D01*
X47Y-24D01*
X53D01*
X55Y-30D01*
D02*
G37*
G36*
X39Y22D02*
Y-25D01*
X30D01*
Y-40D01*
X20D01*
Y-25D01*
X11D01*
Y22D01*
X22Y32D01*
X28D01*
X39Y22D01*
D02*
G37*
G36*
X5Y-30D02*
Y-40D01*
X-5D01*
Y-30D01*
X-3Y-24D01*
X3D01*
X5Y-30D01*
D02*
G37*
G36*
X-11Y22D02*
Y-25D01*
X-20D01*
Y-40D01*
X-30D01*
Y-25D01*
X-39D01*
Y22D01*
X-28Y32D01*
X-22D01*
X-11Y22D01*
D02*
G37*
G36*
X-45Y-30D02*
Y-40D01*
X-55D01*
Y-30D01*
X-53Y-24D01*
X-47D01*
X-45Y-30D01*
D02*
G37*
G36*
X-61Y22D02*
Y-25D01*
X-70D01*
Y-40D01*
X-80D01*
Y-25D01*
X-89D01*
Y22D01*
X-78Y32D01*
X-72D01*
X-61Y22D01*
D02*
G37*
G36*
X-100Y90D02*
X-93Y81D01*
Y32D01*
X-100Y22D01*
Y-40D01*
X-110D01*
Y-25D01*
X-149D01*
X-151Y-24D01*
X-152Y-23D01*
X-153Y-21D01*
Y-20D01*
Y20D01*
Y22D01*
X-151Y26D01*
X-149Y28D01*
X-145Y30D01*
X-123D01*
X-119Y30D01*
X-112Y33D01*
X-106Y39D01*
X-103Y46D01*
X-103Y50D01*
Y70D01*
X-103Y74D01*
X-106Y81D01*
X-112Y87D01*
X-119Y90D01*
X-123Y90D01*
X-146D01*
X-148Y91D01*
X-149Y92D01*
X-150Y94D01*
Y95D01*
Y193D01*
X-100D01*
Y90D01*
D02*
G37*
D10*
X1730Y558D02*
D03*
Y470D02*
D03*
X-425Y422D02*
D03*
Y510D02*
D03*
D11*
X-603Y560D02*
D03*
Y420D02*
D03*
X1908D02*
D03*
Y560D02*
D03*
D12*
X-603Y490D02*
D03*
X1908D02*
D03*
D17*
X170Y485D02*
G03*
X130Y445I0J-40D01*
G01*
X-30D02*
G03*
X-170Y585I-140J0D01*
G01*
X-80Y445D02*
G03*
X-170Y535I-90J0D01*
G01*
X-130Y445D02*
G03*
X-170Y485I-40J0D01*
G01*
X-425Y422D02*
G03*
X-424Y421I2J0D01*
G01*
D02*
G03*
X-423Y420I1J1D01*
G01*
X1730Y558D02*
G03*
X1728Y560I-2J0D01*
G01*
X170Y535D02*
G03*
X80Y445I0J-90D01*
G01*
X170Y585D02*
G03*
X30Y445I0J-140D01*
G01*
X170Y485D02*
X1595D01*
X130Y250D02*
Y445D01*
X1680Y400D02*
X1807D01*
X1595Y485D02*
X1680Y400D01*
X1807D02*
X1826Y420D01*
X1908D01*
X-497Y585D02*
X-170D01*
X-398Y535D02*
X-170D01*
X-423Y510D02*
X-398Y535D01*
X-425Y510D02*
X-423D01*
X-330Y485D02*
X-170D01*
X-130Y250D02*
Y445D01*
X-424Y421D02*
X-412Y433D01*
X-425Y420D02*
X-424Y421D01*
X-380Y435D02*
X-330Y485D01*
X1689Y481D02*
X1719D01*
X1730Y470D01*
X1635Y535D02*
X1689Y481D01*
X170Y535D02*
X1635D01*
X1728Y560D02*
X1731D01*
X1730Y558D02*
X1731Y559D01*
X1728Y560D02*
X1735D01*
X1726D02*
X1728D01*
X170Y585D02*
X1701D01*
X1726Y560D01*
X-385Y435D02*
X-380D01*
X-387Y433D02*
X-385Y435D01*
X-412Y433D02*
X-387D01*
X-470Y490D02*
X-455Y505D01*
X-603Y490D02*
X-470D01*
X-522Y560D02*
X-497Y585D01*
X-595Y560D02*
X-522D01*
X-30Y280D02*
Y445D01*
X-80Y280D02*
Y445D01*
X30Y280D02*
Y445D01*
X80Y280D02*
Y445D01*
X1730Y470D02*
X1732D01*
X1771Y481D02*
X1780Y490D01*
X1741Y481D02*
X1771D01*
X1730Y470D02*
X1741Y481D01*
X1780Y490D02*
X1908D01*
X1907Y559D02*
X1908Y560D01*
X1731Y559D02*
X1907D01*
D18*
X1728Y560D02*
D03*
D19*
X75Y107D02*
D03*
X50D02*
D03*
X25D02*
D03*
X0D02*
D03*
X-25D02*
D03*
X-50D02*
D03*
X-75D02*
D03*
D20*
X-427Y420D02*
X-425Y422D01*
X-603Y420D02*
X-427D01*
D21*
X75Y107D02*
Y110D01*
Y-30D02*
Y107D01*
X-25D02*
Y110D01*
Y-30D02*
Y107D01*
X-50D02*
Y110D01*
Y-30D02*
Y107D01*
X-75D02*
Y110D01*
Y-30D02*
Y107D01*
X50D02*
Y110D01*
Y-30D02*
Y107D01*
X25D02*
Y110D01*
Y-30D02*
Y107D01*
X0Y-30D02*
Y110D01*
M02*
