G04*
G04 #@! TF.GenerationSoftware,Altium Limited,Altium Designer,19.0.15 (446)*
G04*
G04 Layer_Color=65535*
%FSLAX42Y42*%
%MOMM*%
G71*
G01*
G75*
%ADD10C,0.30*%
%ADD11C,0.25*%
%ADD12C,0.15*%
%ADD13C,0.13*%
%ADD14C,0.10*%
%ADD15C,0.20*%
%ADD16C,0.15*%
%ADD17C,0.05*%
D10*
X-160Y175D02*
G03*
X-160Y175I-5J0D01*
G01*
D11*
X-537Y297D02*
G03*
X-537Y297I-2J0D01*
G01*
X-1366Y-31D02*
G03*
X-1366Y-31I-10J0D01*
G01*
D12*
X-1822Y-431D02*
G03*
X-1912Y-390I-91J-79D01*
G01*
X-462Y148D02*
X-427Y123D01*
X-403Y158D01*
X-441Y202D02*
X-427Y123D01*
X-451Y89D02*
X-442Y90D01*
X-412Y96D02*
X-402Y97D01*
X-491Y82D02*
X-481Y83D01*
X-373Y103D02*
X-363Y104D01*
X-333Y109D02*
X-323Y111D01*
X-530Y75D02*
X-520Y77D01*
X-570Y68D02*
X-560Y70D01*
X-576Y46D02*
X-574Y37D01*
X-571Y17D02*
X-569Y7D01*
X-294Y116D02*
X-284Y118D01*
X-261Y102D02*
X-259Y92D01*
X-256Y72D02*
X-254Y63D01*
X-585Y-16D02*
X-487Y1D01*
X-630Y240D02*
X-585Y-16D01*
X-630Y240D02*
X-601Y245D01*
X-329Y29D02*
X-231Y46D01*
X-276Y302D02*
X-231Y46D01*
X-305Y297D02*
X-276Y302D01*
X-250Y43D02*
X-242Y-6D01*
X-321Y-20D02*
X-242Y-6D01*
X-557Y-62D02*
X-478Y-48D01*
X-566Y-13D02*
X-557Y-62D01*
D13*
X-1313Y132D02*
G03*
X-1313Y132I-38J0D01*
G01*
X-1347Y146D02*
G03*
X-1337Y125I-3J-14D01*
G01*
X-1353Y36D02*
X-1342Y13D01*
X-1353Y36D02*
X-1330Y47D01*
X-1105Y156D02*
X-1083Y167D01*
X-1072Y145D01*
X-1254Y-167D02*
X-1243Y-189D01*
X-1220Y-178D01*
X-984Y-35D02*
X-973Y-57D01*
X-996Y-68D02*
X-973Y-57D01*
X-1170Y-367D02*
X-1143Y-421D01*
X-1350Y-455D02*
X-1323Y-509D01*
X-1321Y-330D02*
X-1286Y-313D01*
X-1208Y-564D02*
X-1172Y-546D01*
X-605Y455D02*
X-609Y461D01*
X-617Y465D01*
X-629Y465D01*
X-636Y464D01*
X-648Y459D01*
X-654Y453D01*
X-655Y446D01*
X-654Y441D01*
X-650Y434D01*
X-643Y431D01*
X-630Y430D01*
X-623Y432D01*
X-612Y436D01*
X-605Y442D01*
X-604Y450D01*
X-605Y455D01*
X-327Y498D02*
Y471D01*
X-346Y486D01*
Y478D01*
X-348Y473D01*
X-351Y471D01*
X-358Y469D01*
X-363D01*
X-370Y471D01*
X-375Y476D01*
X-378Y483D01*
Y490D01*
X-375Y498D01*
X-373Y500D01*
X-368Y503D01*
X-373Y455D02*
X-375Y457D01*
X-378Y455D01*
X-375Y452D01*
X-373Y455D01*
X-327Y407D02*
X-378Y432D01*
X-327Y441D02*
Y407D01*
X-1307Y168D02*
X-1308Y170D01*
X-1308Y176D01*
X-1307Y179D01*
X-1304Y183D01*
X-1295Y187D01*
X-1290Y187D01*
X-1287Y186D01*
X-1282Y183D01*
X-1280Y179D01*
X-1280Y173D01*
X-1281Y165D01*
X-1292Y132D01*
X-1262Y147D01*
X-1261Y204D02*
X-1267Y199D01*
X-1268Y190D01*
X-1265Y178D01*
X-1261Y172D01*
X-1254Y162D01*
X-1246Y157D01*
X-1239Y158D01*
X-1234Y161D01*
X-1229Y166D01*
X-1228Y175D01*
X-1231Y186D01*
X-1234Y193D01*
X-1242Y203D01*
X-1249Y207D01*
X-1257Y206D01*
X-1261Y204D01*
X-1229Y209D02*
X-1226Y213D01*
X-1223Y223D01*
X-1200Y177D01*
X-1164Y232D02*
X-1163Y225D01*
X-1166Y218D01*
X-1171Y213D01*
X-1173Y212D01*
X-1181Y211D01*
X-1187Y213D01*
X-1193Y219D01*
X-1194Y221D01*
X-1195Y228D01*
X-1192Y235D01*
X-1187Y240D01*
X-1185Y241D01*
X-1177Y242D01*
X-1171Y240D01*
X-1164Y232D01*
X-1159Y222D01*
X-1156Y210D01*
X-1157Y201D01*
X-1163Y196D01*
X-1167Y193D01*
X-1174Y192D01*
X-1179Y196D01*
X-889Y-332D02*
X-874Y-365D01*
X-868Y-370D01*
X-862Y-373D01*
X-854Y-372D01*
X-850Y-369D01*
X-844Y-364D01*
X-842Y-358D01*
X-843Y-350D01*
X-859Y-317D01*
X-808Y-306D02*
X-813Y-303D01*
X-819Y-301D01*
X-825Y-301D01*
X-833Y-305D01*
X-837Y-309D01*
X-839Y-316D01*
X-839Y-321D01*
X-838Y-329D01*
X-833Y-340D01*
X-827Y-345D01*
X-823Y-348D01*
X-816Y-351D01*
X-811Y-351D01*
X-802Y-346D01*
X-799Y-342D01*
X-797Y-336D01*
X-797Y-330D01*
X-767Y-281D02*
X-774Y-279D01*
X-781Y-280D01*
X-790Y-284D01*
X-796Y-289D01*
X-798Y-296D01*
X-796Y-300D01*
X-791Y-303D01*
X-788Y-304D01*
X-783Y-304D01*
X-768Y-302D01*
X-762Y-303D01*
X-759Y-304D01*
X-755Y-307D01*
X-751Y-313D01*
X-754Y-320D01*
X-759Y-325D01*
X-768Y-329D01*
X-775Y-331D01*
X-782Y-328D01*
X-760Y-269D02*
X-738Y-315D01*
X-760Y-269D02*
X-745Y-262D01*
X-737Y-261D01*
X-731Y-263D01*
X-727Y-266D01*
X-721Y-272D01*
X-716Y-283D01*
X-715Y-290D01*
X-715Y-296D01*
X-717Y-302D01*
X-723Y-308D01*
X-738Y-315D01*
X-694Y-302D02*
X-689Y-235D01*
X-673Y-227D02*
X-676Y-231D01*
X-679Y-238D01*
X-679Y-243D01*
X-678Y-251D01*
X-672Y-261D01*
X-667Y-267D01*
X-663Y-270D01*
X-656Y-272D01*
X-651Y-272D01*
X-642Y-268D01*
X-639Y-264D01*
X-637Y-257D01*
X-637Y-252D01*
X-638Y-244D01*
X-643Y-234D01*
X-648Y-228D01*
X-653Y-225D01*
X-659Y-223D01*
X-664Y-223D01*
X-673Y-227D01*
X-607Y-203D02*
X-614Y-200D01*
X-621Y-201D01*
X-630Y-206D01*
X-635Y-211D01*
X-638Y-218D01*
X-635Y-222D01*
X-631Y-225D01*
X-628Y-226D01*
X-622Y-226D01*
X-607Y-224D01*
X-602Y-224D01*
X-599Y-225D01*
X-594Y-229D01*
X-591Y-235D01*
X-593Y-242D01*
X-599Y-247D01*
X-608Y-251D01*
X-615Y-252D01*
X-622Y-250D01*
X-588Y-215D02*
X-569Y-206D01*
X-563Y-200D01*
X-562Y-197D01*
X-562Y-192D01*
X-565Y-185D01*
X-570Y-182D01*
X-573Y-181D01*
X-581Y-182D01*
X-600Y-191D01*
X-578Y-237D01*
X-1811Y-710D02*
X-1816Y-705D01*
X-1825Y-704D01*
X-1837Y-707D01*
X-1844Y-710D01*
X-1853Y-717D01*
X-1858Y-725D01*
X-1857Y-733D01*
X-1855Y-737D01*
X-1849Y-742D01*
X-1841Y-744D01*
X-1829Y-740D01*
X-1822Y-737D01*
X-1812Y-730D01*
X-1808Y-722D01*
X-1809Y-715D01*
X-1811Y-710D01*
X-1885Y-550D02*
X-1873Y-574D01*
X-1897Y-569D01*
X-1894Y-576D01*
X-1894Y-581D01*
X-1895Y-584D01*
X-1900Y-590D01*
X-1905Y-592D01*
X-1912Y-593D01*
X-1919Y-591D01*
X-1924Y-585D01*
X-1927Y-579D01*
X-1928Y-571D01*
X-1927Y-568D01*
X-1924Y-563D01*
X-1907Y-608D02*
X-1910Y-607D01*
X-1912Y-611D01*
X-1908Y-612D01*
X-1907Y-608D01*
X-1845Y-631D02*
X-1901Y-631D01*
X-1860Y-600D02*
X-1845Y-631D01*
X-1702Y-167D02*
X-1748Y-188D01*
X-1709Y-151D02*
X-1695Y-182D01*
X-1688Y-226D02*
X-1685Y-221D01*
X-1682Y-215D01*
X-1682Y-210D01*
X-1686Y-201D01*
X-1690Y-197D01*
X-1697Y-195D01*
X-1702Y-195D01*
X-1710Y-196D01*
X-1721Y-201D01*
X-1726Y-206D01*
X-1730Y-210D01*
X-1732Y-217D01*
X-1732Y-222D01*
X-1728Y-231D01*
X-1724Y-234D01*
X-1718Y-237D01*
X-1712Y-237D01*
X-1671Y-234D02*
X-1717Y-255D01*
X-1657Y-264D02*
X-1702Y-248D01*
X-1686Y-254D02*
X-1703Y-285D01*
X-1783Y-247D02*
X-1814Y-288D01*
X-1797Y-237D02*
X-1770Y-258D01*
X-1765Y-261D02*
X-1796Y-302D01*
X-1765Y-261D02*
X-1780Y-314D01*
X-1734Y-285D02*
X-1780Y-314D01*
X-1734Y-285D02*
X-1765Y-325D01*
X-1700Y-320D02*
X-1701Y-313D01*
X-1705Y-307D01*
X-1713Y-301D01*
X-1720Y-299D01*
X-1727Y-300D01*
X-1730Y-303D01*
X-1731Y-309D01*
X-1731Y-312D01*
X-1728Y-317D01*
X-1720Y-330D01*
X-1717Y-334D01*
X-1717Y-338D01*
X-1718Y-343D01*
X-1722Y-349D01*
X-1729Y-350D01*
X-1736Y-347D01*
X-1744Y-341D01*
X-1748Y-335D01*
X-1749Y-328D01*
X-1833Y-315D02*
X-1864Y-355D01*
X-1846Y-305D02*
X-1820Y-326D01*
X-1815Y-329D02*
X-1846Y-370D01*
X-1815Y-329D02*
X-1801Y-340D01*
X-1797Y-346D01*
X-1796Y-353D01*
X-1797Y-358D01*
X-1800Y-365D01*
X-1807Y-375D01*
X-1814Y-379D01*
X-1819Y-382D01*
X-1825Y-382D01*
X-1833Y-380D01*
X-1846Y-370D01*
X-1768Y-366D02*
X-1773Y-365D01*
X-1780Y-366D01*
X-1785Y-368D01*
X-1791Y-372D01*
X-1798Y-382D01*
X-1801Y-389D01*
X-1802Y-395D01*
X-1801Y-401D01*
X-1799Y-406D01*
X-1791Y-412D01*
X-1786Y-413D01*
X-1779Y-412D01*
X-1774Y-410D01*
X-1768Y-406D01*
X-1760Y-396D01*
X-1758Y-389D01*
X-1757Y-384D01*
X-1758Y-377D01*
X-1760Y-372D01*
X-1768Y-366D01*
X-1795Y-439D02*
X-1772Y-485D01*
X-1810Y-447D02*
X-1779Y-432D01*
X-1774Y-429D02*
X-1752Y-475D01*
X-1774Y-429D02*
X-1759Y-422D01*
X-1751Y-421D01*
X-1745Y-423D01*
X-1740Y-426D01*
X-1735Y-432D01*
X-1730Y-443D01*
X-1729Y-450D01*
X-1729Y-456D01*
X-1731Y-462D01*
X-1736Y-468D01*
X-1752Y-475D01*
X-1733Y-410D02*
X-1711Y-455D01*
D14*
X-1544Y-110D02*
G03*
X-1544Y-110I-5J0D01*
G01*
X-145Y197D02*
X5D01*
X-145Y220D02*
X-105D01*
Y260D01*
X-320Y-99D02*
X-311Y-117D01*
X-185Y-56D01*
X-194Y-38D02*
X-185Y-56D01*
X-214Y2D02*
X-205Y-16D01*
X-340Y-59D02*
X-214Y2D01*
X-340Y-59D02*
X-331Y-77D01*
X-227Y50D02*
X-209Y59D01*
X-227Y50D02*
X-166Y-76D01*
X-148Y-67D01*
X-126Y-56D02*
X-108Y-47D01*
X-169Y78D02*
X-108Y-47D01*
X-187Y70D02*
X-169Y78D01*
X-738Y274D02*
X-720Y283D01*
X-781Y409D02*
X-720Y283D01*
X-799Y400D02*
X-781Y409D01*
X-840Y380D02*
X-822Y389D01*
X-840Y380D02*
X-779Y254D01*
X-761Y263D01*
X-305Y445D02*
X-305Y465D01*
X-305Y445D02*
X-165D01*
Y465D01*
X-165Y490D02*
X-165Y510D01*
X-305D02*
X-165D01*
X-305Y490D02*
Y510D01*
X-1669Y-199D02*
X-1660Y-217D01*
X-1669Y-199D02*
X-1548Y-140D01*
X-1539Y-158D01*
X-1528Y-181D02*
X-1519Y-199D01*
X-1641Y-258D02*
X-1519Y-199D01*
X-1649Y-240D02*
X-1641Y-258D01*
X-926Y-93D02*
X-908Y-84D01*
X-985Y29D02*
X-926Y-93D01*
X-985Y29D02*
X-967Y37D01*
X-944Y48D02*
X-926Y57D01*
X-867Y-64D01*
X-885Y-73D02*
X-867Y-64D01*
X-1432Y-12D02*
X-1424Y-30D01*
X-1545Y-89D02*
X-1424Y-30D01*
X-1554Y-71D02*
X-1545Y-89D01*
X-1573Y-30D02*
X-1565Y-48D01*
X-1573Y-30D02*
X-1452Y29D01*
X-1443Y11D01*
X-1397Y-83D02*
X-1389Y-101D01*
X-1510Y-161D02*
X-1389Y-101D01*
X-1519Y-143D02*
X-1510Y-161D01*
X-1538Y-102D02*
X-1530Y-120D01*
X-1538Y-102D02*
X-1417Y-43D01*
X-1408Y-61D01*
X-1494Y47D02*
X-1486Y29D01*
X-1607Y-30D02*
X-1486Y29D01*
X-1616Y-12D02*
X-1607Y-30D01*
X-1635Y28D02*
X-1627Y10D01*
X-1635Y28D02*
X-1514Y88D01*
X-1505Y70D01*
X-303Y391D02*
X-303Y411D01*
X-167Y411D01*
Y391D02*
Y411D01*
Y346D02*
Y366D01*
X-303Y346D02*
X-167D01*
X-303D02*
X-303Y366D01*
X-936Y-360D02*
X-928Y-378D01*
X-1049Y-437D02*
X-928Y-378D01*
X-1058Y-419D02*
X-1049Y-437D01*
X-1078Y-379D02*
X-1069Y-397D01*
X-1078Y-379D02*
X-956Y-320D01*
X-947Y-337D01*
X-821Y-114D02*
X-803Y-105D01*
X-744Y-226D01*
X-761Y-235D02*
X-744Y-226D01*
X-802Y-255D02*
X-784Y-246D01*
X-861Y-134D02*
X-802Y-255D01*
X-861Y-134D02*
X-843Y-125D01*
X-819Y-236D02*
X-810Y-254D01*
X-932Y-313D02*
X-810Y-254D01*
X-940Y-295D02*
X-932Y-313D01*
X-960Y-255D02*
X-951Y-273D01*
X-960Y-255D02*
X-839Y-195D01*
X-830Y-213D01*
X-1763Y-749D02*
X-1745Y-740D01*
X-1824Y-623D02*
X-1763Y-749D01*
X-1824Y-623D02*
X-1806Y-614D01*
X-1784Y-603D02*
X-1766Y-594D01*
X-1704Y-720D01*
X-1722Y-729D02*
X-1704Y-720D01*
X-850Y223D02*
X-832Y231D01*
X-910Y344D02*
X-850Y223D01*
X-910Y344D02*
X-892Y353D01*
X-869Y364D02*
X-851Y372D01*
X-792Y251D01*
X-810Y242D02*
X-792Y251D01*
X-49Y350D02*
X-29Y350D01*
Y215D02*
Y350D01*
X-49Y215D02*
X-29D01*
X-94D02*
X-74D01*
X-94D02*
Y350D01*
X-74D01*
X-867Y-131D02*
X-858Y-149D01*
X-993Y-193D02*
X-867Y-131D01*
X-993Y-193D02*
X-984Y-211D01*
X-973Y-233D02*
X-964Y-251D01*
X-839Y-190D01*
X-847Y-172D02*
X-839Y-190D01*
X-1045Y-167D02*
X-1036Y-185D01*
X-1157Y-245D02*
X-1036Y-185D01*
X-1166Y-227D02*
X-1157Y-245D01*
X-1186Y-186D02*
X-1177Y-204D01*
X-1186Y-186D02*
X-1065Y-127D01*
X-1056Y-145D01*
X-1858Y-547D02*
X-1849Y-565D01*
X-1858Y-547D02*
X-1732Y-486D01*
X-1723Y-504D01*
X-1713Y-527D02*
X-1704Y-544D01*
X-1830Y-606D02*
X-1704Y-544D01*
X-1838Y-588D02*
X-1830Y-606D01*
X-1760Y-589D02*
X-1751Y-607D01*
X-1760Y-589D02*
X-1634Y-527D01*
X-1625Y-545D01*
X-1615Y-568D02*
X-1606Y-586D01*
X-1732Y-647D02*
X-1606Y-586D01*
X-1740Y-629D02*
X-1732Y-647D01*
X-1725Y-661D02*
X-1716Y-679D01*
X-1725Y-661D02*
X-1599Y-599D01*
X-1590Y-617D01*
X-1579Y-640D02*
X-1571Y-658D01*
X-1697Y-719D02*
X-1571Y-658D01*
X-1705Y-701D02*
X-1697Y-719D01*
X-1607Y-742D02*
X-1599Y-760D01*
X-1724Y-822D02*
X-1599Y-760D01*
X-1733Y-804D02*
X-1724Y-822D01*
X-1753Y-763D02*
X-1744Y-781D01*
X-1753Y-763D02*
X-1627Y-702D01*
X-1618Y-720D01*
X-1463Y-622D02*
X-1454Y-640D01*
X-1463Y-622D02*
X-1342Y-563D01*
X-1333Y-581D01*
X-1322Y-603D02*
X-1313Y-621D01*
X-1435Y-680D02*
X-1313Y-621D01*
X-1443Y-662D02*
X-1435Y-680D01*
X-1408Y-472D02*
X-1399Y-490D01*
X-1529Y-532D02*
X-1408Y-472D01*
X-1529Y-532D02*
X-1520Y-550D01*
X-1509Y-572D02*
X-1501Y-590D01*
X-1379Y-531D01*
X-1388Y-513D02*
X-1379Y-531D01*
X-1744Y-74D02*
X-1735Y-92D01*
X-1609Y-31D01*
X-1618Y-13D02*
X-1609Y-31D01*
X-1638Y27D02*
X-1629Y9D01*
X-1764Y-34D02*
X-1638Y27D01*
X-1764Y-34D02*
X-1755Y-52D01*
D15*
X-1055Y-475D02*
G03*
X-1055Y-475I-10J0D01*
G01*
D16*
X-537Y-139D02*
X-528Y-157D01*
X-537Y-139D02*
X-357Y-51D01*
X-348Y-69D01*
X-322Y-123D02*
X-313Y-141D01*
X-493Y-229D02*
X-313Y-141D01*
X-502Y-211D02*
X-493Y-229D01*
X-793Y-108D02*
X-784Y-126D01*
X-793Y-108D02*
X-613Y-21D01*
X-604Y-39D01*
X-578Y-93D02*
X-569Y-111D01*
X-749Y-198D02*
X-569Y-111D01*
X-758Y-180D02*
X-749Y-198D01*
X-1163Y-301D02*
X-1154Y-319D01*
X-1163Y-301D02*
X-983Y-213D01*
X-974Y-231D01*
X-948Y-285D02*
X-939Y-303D01*
X-1119Y-391D02*
X-939Y-303D01*
X-1128Y-373D02*
X-1119Y-391D01*
X-1063Y271D02*
X-1045Y280D01*
X-1063Y271D02*
X-976Y91D01*
X-958Y100D01*
X-904Y126D02*
X-886Y135D01*
X-973Y315D02*
X-886Y135D01*
X-991Y306D02*
X-973Y315D01*
X-724Y258D02*
X-715Y240D01*
X-903Y171D02*
X-724Y258D01*
X-903Y171D02*
X-895Y153D01*
X-868Y99D02*
X-859Y81D01*
X-680Y169D01*
X-688Y187D02*
X-680Y169D01*
X-680Y169D02*
X-671Y151D01*
X-859Y81D02*
X-680Y169D01*
X-859Y81D02*
X-851Y63D01*
X-824Y9D02*
X-816Y-9D01*
X-636Y79D01*
X-645Y97D02*
X-636Y79D01*
X-636Y79D02*
X-627Y61D01*
X-816Y-9D02*
X-636Y79D01*
X-816Y-9D02*
X-807Y-27D01*
X-781Y-81D02*
X-772Y-99D01*
X-592Y-11D01*
X-601Y7D02*
X-592Y-11D01*
D17*
X-1639Y-176D02*
X-1549Y-132D01*
X-1593Y-42D02*
X-1549Y-132D01*
X-1682Y-86D02*
X-1639Y-176D01*
X-1682Y-86D02*
X-1593Y-42D01*
M02*
