G04*
G04 #@! TF.GenerationSoftware,Altium Limited,Altium Designer,19.0.15 (446)*
G04*
G04 Layer_Physical_Order=2*
G04 Layer_Color=36540*
%FSLAX42Y42*%
%MOMM*%
G71*
G01*
G75*
G04:AMPARAMS|DCode=71|XSize=0.9mm|YSize=1.5mm|CornerRadius=0mm|HoleSize=0mm|Usage=FLASHONLY|Rotation=116.000|XOffset=0mm|YOffset=0mm|HoleType=Round|Shape=Round|*
%AMOVALD71*
21,1,0.60,0.90,0.00,0.00,206.0*
1,1,0.90,0.27,0.13*
1,1,0.90,-0.27,-0.13*
%
%ADD71OVALD71*%

%ADD72C,0.30*%
%ADD73C,0.24*%
G36*
X-497Y504D02*
X-490Y496D01*
X-487Y491D01*
X-488Y485D01*
X-487Y477D01*
X-484Y470D01*
X-479Y463D01*
X-473Y458D01*
X-465Y455D01*
X-457Y454D01*
X-450Y455D01*
X-442Y458D01*
X-436Y463D01*
X-431Y470D01*
X-428Y477D01*
X-427Y485D01*
X-428Y491D01*
X-425Y496D01*
X-418Y504D01*
X-166Y504D01*
Y450D01*
X-166Y449D01*
X-166Y448D01*
X-165Y437D01*
X-164Y434D01*
Y432D01*
X-155Y410D01*
X-153Y408D01*
X-152Y405D01*
X-135Y388D01*
X-132Y387D01*
X-130Y385D01*
X-108Y376D01*
X-106D01*
X-103Y375D01*
X-92Y374D01*
X-91Y374D01*
X-90Y374D01*
X-17D01*
X7Y272D01*
X7Y272D01*
X5Y270D01*
X-4Y248D01*
Y246D01*
X-5Y243D01*
X-6Y232D01*
X-6Y230D01*
X-6Y229D01*
X-6Y225D01*
X-6Y224D01*
X-6Y223D01*
X-5Y215D01*
X-4Y213D01*
X-4Y212D01*
X-2Y204D01*
X-1Y203D01*
X-1Y202D01*
X3Y194D01*
X3Y193D01*
X4Y193D01*
Y17D01*
X-515Y-236D01*
X-523Y-231D01*
X-527Y-228D01*
X-528Y-221D01*
X-531Y-214D01*
X-536Y-207D01*
X-542Y-202D01*
X-550Y-199D01*
X-558Y-198D01*
X-566Y-199D01*
X-573Y-202D01*
X-579Y-207D01*
X-584Y-214D01*
X-587Y-221D01*
X-588Y-229D01*
X-587Y-237D01*
X-584Y-244D01*
X-579Y-251D01*
X-577Y-252D01*
X-578Y-265D01*
X-578Y-267D01*
X-613Y-284D01*
X-623Y-274D01*
X-623Y-274D01*
X-622Y-266D01*
X-623Y-258D01*
X-626Y-250D01*
X-631Y-244D01*
X-637Y-239D01*
X-644Y-236D01*
X-652Y-235D01*
X-660Y-236D01*
X-668Y-239D01*
X-674Y-244D01*
X-679Y-250D01*
X-682Y-258D01*
X-683Y-266D01*
X-682Y-274D01*
X-679Y-281D01*
X-674Y-287D01*
X-668Y-292D01*
X-663Y-294D01*
X-662Y-303D01*
X-662Y-308D01*
X-1323Y-630D01*
X-1328Y-627D01*
X-1333Y-621D01*
X-1331Y-616D01*
X-1329Y-608D01*
X-1331Y-600D01*
X-1334Y-592D01*
X-1338Y-586D01*
X-1345Y-581D01*
X-1352Y-578D01*
X-1353Y-565D01*
X-1352Y-563D01*
X-1353Y-555D01*
X-1356Y-548D01*
X-1361Y-542D01*
X-1368Y-537D01*
X-1375Y-534D01*
X-1383Y-533D01*
X-1391Y-534D01*
X-1398Y-537D01*
X-1405Y-542D01*
X-1410Y-548D01*
X-1413Y-555D01*
X-1414Y-563D01*
X-1413Y-571D01*
X-1410Y-579D01*
X-1405Y-585D01*
X-1398Y-590D01*
X-1391Y-593D01*
X-1391Y-606D01*
X-1391Y-608D01*
X-1390Y-616D01*
X-1387Y-623D01*
X-1382Y-630D01*
X-1376Y-634D01*
X-1368Y-637D01*
X-1367Y-638D01*
X-1365Y-651D01*
X-1800Y-863D01*
X-1804Y-861D01*
X-1810Y-854D01*
X-1808Y-845D01*
X-1808Y-832D01*
X-1810Y-819D01*
X-1810Y-819D01*
X-1895Y-860D01*
X-1906Y-837D01*
X-1821Y-796D01*
X-1821Y-796D01*
X-1830Y-787D01*
X-1840Y-779D01*
X-1852Y-774D01*
X-1864Y-771D01*
X-1867Y-771D01*
X-1874Y-758D01*
X-1869Y-748D01*
X-1866Y-736D01*
X-1865Y-724D01*
X-1867Y-712D01*
X-1871Y-701D01*
X-1878Y-691D01*
X-1886Y-683D01*
X-1895Y-676D01*
X-1906Y-671D01*
X-1918Y-668D01*
X-1923Y-668D01*
X-1929Y-655D01*
X-1926Y-651D01*
X-1921Y-640D01*
X-1918Y-628D01*
X-1918Y-616D01*
X-1920Y-605D01*
X-1924Y-593D01*
X-1930Y-583D01*
X-1938Y-575D01*
X-1948Y-568D01*
X-1959Y-563D01*
X-1970Y-560D01*
X-1976Y-560D01*
X-1982Y-547D01*
X-1979Y-543D01*
X-1974Y-532D01*
X-1971Y-520D01*
X-1971Y-508D01*
X-1972Y-497D01*
X-1977Y-486D01*
X-1983Y-476D01*
X-1991Y-467D01*
X-2001Y-460D01*
X-2011Y-455D01*
X-2023Y-452D01*
X-2035Y-452D01*
X-2046Y-454D01*
X-2049Y-455D01*
X-2057Y-444D01*
X-2044Y-427D01*
X-2043Y-424D01*
X-2041Y-422D01*
X-2034Y-397D01*
X-2034Y-395D01*
X-2033Y-393D01*
X-2033Y-386D01*
X-1729Y-2D01*
X-1452Y176D01*
X-1194Y305D01*
X-875Y424D01*
X-542Y504D01*
X-497D01*
D02*
G37*
%LPC*%
G36*
X-715Y426D02*
X-723Y425D01*
X-730Y422D01*
X-737Y417D01*
X-742Y410D01*
X-745Y403D01*
X-746Y395D01*
X-745Y387D01*
X-742Y380D01*
X-737Y373D01*
X-730Y368D01*
X-723Y365D01*
X-715Y364D01*
X-707Y365D01*
X-700Y368D01*
X-693Y373D01*
X-688Y380D01*
X-685Y387D01*
X-684Y395D01*
X-685Y403D01*
X-688Y410D01*
X-693Y417D01*
X-700Y422D01*
X-707Y425D01*
X-715Y426D01*
D02*
G37*
G36*
X-333Y406D02*
X-340Y405D01*
X-348Y402D01*
X-354Y397D01*
X-359Y390D01*
X-362Y383D01*
X-363Y375D01*
X-362Y367D01*
X-359Y360D01*
X-354Y353D01*
X-348Y348D01*
X-340Y345D01*
X-333Y344D01*
X-325Y345D01*
X-317Y348D01*
X-311Y353D01*
X-306Y360D01*
X-303Y367D01*
X-302Y375D01*
X-303Y383D01*
X-306Y390D01*
X-311Y397D01*
X-317Y402D01*
X-325Y405D01*
X-333Y406D01*
D02*
G37*
G36*
X-440Y403D02*
X-448Y402D01*
X-455Y399D01*
X-462Y394D01*
X-467Y388D01*
X-470Y380D01*
X-471Y372D01*
X-470Y365D01*
X-467Y357D01*
X-462Y351D01*
X-455Y346D01*
X-448Y343D01*
X-440Y342D01*
X-432Y343D01*
X-425Y346D01*
X-418Y351D01*
X-413Y357D01*
X-410Y365D01*
X-409Y372D01*
X-410Y380D01*
X-413Y388D01*
X-418Y394D01*
X-425Y399D01*
X-432Y402D01*
X-440Y403D01*
D02*
G37*
G36*
X-203Y401D02*
X-210Y400D01*
X-218Y397D01*
X-224Y392D01*
X-229Y385D01*
X-232Y378D01*
X-233Y370D01*
X-232Y362D01*
X-229Y355D01*
X-224Y348D01*
X-218Y343D01*
X-210Y340D01*
X-203Y339D01*
X-195Y340D01*
X-187Y343D01*
X-181Y348D01*
X-176Y355D01*
X-173Y362D01*
X-172Y370D01*
X-173Y378D01*
X-176Y385D01*
X-181Y392D01*
X-187Y397D01*
X-195Y400D01*
X-203Y401D01*
D02*
G37*
G36*
X-627Y386D02*
X-635Y385D01*
X-642Y382D01*
X-649Y377D01*
X-654Y370D01*
X-657Y363D01*
X-658Y355D01*
X-657Y347D01*
X-654Y340D01*
X-649Y333D01*
X-642Y328D01*
X-635Y325D01*
X-627Y324D01*
X-619Y325D01*
X-612Y328D01*
X-605Y333D01*
X-600Y340D01*
X-597Y347D01*
X-596Y355D01*
X-597Y363D01*
X-600Y370D01*
X-605Y377D01*
X-612Y382D01*
X-619Y385D01*
X-627Y386D01*
D02*
G37*
G36*
X-917Y309D02*
X-925Y308D01*
X-932Y305D01*
X-939Y300D01*
X-943Y294D01*
X-955Y288D01*
X-963Y289D01*
X-971Y288D01*
X-978Y285D01*
X-985Y280D01*
X-989Y274D01*
X-993Y267D01*
X-994Y259D01*
X-993Y251D01*
X-989Y243D01*
X-985Y237D01*
X-978Y232D01*
X-971Y229D01*
X-963Y228D01*
X-955Y229D01*
X-947Y232D01*
X-941Y237D01*
X-936Y243D01*
X-933Y251D01*
X-925Y249D01*
X-917Y248D01*
X-909Y249D01*
X-901Y252D01*
X-895Y257D01*
X-890Y263D01*
X-887Y270D01*
X-886Y278D01*
X-887Y286D01*
X-890Y294D01*
X-895Y300D01*
X-901Y305D01*
X-909Y308D01*
X-917Y309D01*
D02*
G37*
G36*
X-67Y277D02*
X-75Y276D01*
X-82Y273D01*
X-88Y268D01*
X-93Y262D01*
X-96Y255D01*
X-97Y247D01*
X-96Y239D01*
X-93Y231D01*
X-88Y225D01*
X-82Y220D01*
X-75Y217D01*
X-67Y216D01*
X-59Y217D01*
X-51Y220D01*
X-45Y225D01*
X-40Y231D01*
X-37Y239D01*
X-36Y247D01*
X-37Y255D01*
X-40Y262D01*
X-45Y268D01*
X-51Y273D01*
X-59Y276D01*
X-67Y277D01*
D02*
G37*
G36*
X-522Y238D02*
X-530Y237D01*
X-538Y234D01*
X-544Y229D01*
X-549Y223D01*
X-552Y215D01*
X-553Y208D01*
X-552Y200D01*
X-549Y192D01*
X-544Y186D01*
X-538Y181D01*
X-530Y178D01*
X-522Y177D01*
X-515Y178D01*
X-507Y181D01*
X-501Y186D01*
X-496Y192D01*
X-493Y200D01*
X-492Y208D01*
X-493Y215D01*
X-496Y223D01*
X-501Y229D01*
X-507Y234D01*
X-515Y237D01*
X-522Y238D01*
D02*
G37*
G36*
X-756Y218D02*
X-764Y217D01*
X-771Y214D01*
X-777Y209D01*
X-782Y203D01*
X-785Y195D01*
X-786Y187D01*
X-785Y179D01*
X-782Y172D01*
X-777Y165D01*
X-771Y161D01*
X-764Y158D01*
X-756Y156D01*
X-748Y158D01*
X-740Y161D01*
X-734Y165D01*
X-729Y172D01*
X-726Y179D01*
X-725Y187D01*
X-726Y195D01*
X-729Y203D01*
X-734Y209D01*
X-740Y214D01*
X-748Y217D01*
X-756Y218D01*
D02*
G37*
G36*
X-447Y156D02*
X-455Y155D01*
X-463Y152D01*
X-469Y147D01*
X-474Y140D01*
X-477Y133D01*
X-478Y125D01*
X-477Y117D01*
X-474Y110D01*
X-469Y103D01*
X-463Y98D01*
X-455Y95D01*
X-447Y94D01*
X-440Y95D01*
X-432Y98D01*
X-426Y103D01*
X-421Y110D01*
X-418Y117D01*
X-417Y125D01*
X-418Y133D01*
X-421Y140D01*
X-426Y147D01*
X-432Y152D01*
X-440Y155D01*
X-447Y156D01*
D02*
G37*
G36*
X-1195Y195D02*
X-1203Y194D01*
X-1211Y191D01*
X-1217Y186D01*
X-1222Y180D01*
X-1225Y173D01*
X-1226Y165D01*
X-1225Y158D01*
X-1225Y157D01*
X-1232Y145D01*
X-1233Y144D01*
X-1240Y142D01*
X-1246Y137D01*
X-1251Y130D01*
X-1254Y123D01*
X-1255Y115D01*
X-1254Y107D01*
X-1251Y100D01*
X-1246Y93D01*
X-1240Y88D01*
X-1232Y85D01*
X-1224Y84D01*
X-1216Y85D01*
X-1209Y88D01*
X-1203Y93D01*
X-1198Y100D01*
X-1195Y107D01*
X-1194Y115D01*
X-1194Y122D01*
X-1195Y123D01*
X-1187Y135D01*
X-1187Y135D01*
X-1180Y138D01*
X-1173Y143D01*
X-1169Y149D01*
X-1165Y157D01*
X-1164Y165D01*
X-1165Y173D01*
X-1169Y180D01*
X-1173Y186D01*
X-1180Y191D01*
X-1187Y194D01*
X-1195Y195D01*
D02*
G37*
G36*
X-712Y128D02*
X-720Y127D01*
X-727Y124D01*
X-733Y119D01*
X-738Y113D01*
X-741Y105D01*
X-742Y97D01*
X-741Y89D01*
X-738Y82D01*
X-733Y76D01*
X-727Y71D01*
X-720Y68D01*
X-712Y67D01*
X-704Y68D01*
X-696Y71D01*
X-690Y76D01*
X-685Y82D01*
X-682Y89D01*
X-681Y97D01*
X-682Y105D01*
X-685Y113D01*
X-690Y119D01*
X-696Y124D01*
X-704Y127D01*
X-712Y128D01*
D02*
G37*
G36*
X-1341Y111D02*
X-1349Y110D01*
X-1356Y107D01*
X-1363Y102D01*
X-1368Y96D01*
X-1371Y88D01*
X-1372Y80D01*
X-1371Y72D01*
X-1368Y65D01*
X-1363Y59D01*
X-1356Y54D01*
X-1349Y51D01*
X-1341Y50D01*
X-1333Y51D01*
X-1326Y54D01*
X-1319Y59D01*
X-1314Y65D01*
X-1311Y72D01*
X-1310Y80D01*
X-1311Y88D01*
X-1314Y96D01*
X-1319Y102D01*
X-1326Y107D01*
X-1333Y110D01*
X-1341Y111D01*
D02*
G37*
G36*
X-292Y43D02*
X-300Y42D01*
X-308Y39D01*
X-314Y34D01*
X-319Y28D01*
X-322Y20D01*
X-323Y12D01*
X-322Y5D01*
X-319Y-3D01*
X-314Y-9D01*
X-308Y-14D01*
X-300Y-17D01*
X-292Y-18D01*
X-285Y-17D01*
X-277Y-14D01*
X-271Y-9D01*
X-266Y-3D01*
X-263Y5D01*
X-262Y12D01*
X-263Y20D01*
X-266Y28D01*
X-271Y34D01*
X-277Y39D01*
X-285Y42D01*
X-292Y43D01*
D02*
G37*
G36*
X-668Y38D02*
X-676Y37D01*
X-683Y34D01*
X-690Y29D01*
X-694Y23D01*
X-698Y15D01*
X-699Y7D01*
X-698Y-0D01*
X-694Y-8D01*
X-690Y-14D01*
X-683Y-19D01*
X-676Y-22D01*
X-668Y-23D01*
X-660Y-22D01*
X-653Y-19D01*
X-646Y-14D01*
X-641Y-8D01*
X-638Y-0D01*
X-637Y7D01*
X-638Y15D01*
X-641Y23D01*
X-646Y29D01*
X-653Y34D01*
X-660Y37D01*
X-668Y38D01*
D02*
G37*
G36*
X-1522Y-22D02*
X-1530Y-23D01*
X-1537Y-26D01*
X-1544Y-31D01*
X-1549Y-37D01*
X-1552Y-45D01*
X-1553Y-53D01*
X-1552Y-60D01*
X-1549Y-68D01*
X-1544Y-74D01*
X-1537Y-79D01*
X-1530Y-82D01*
X-1522Y-83D01*
X-1514Y-82D01*
X-1507Y-79D01*
X-1500Y-74D01*
X-1495Y-68D01*
X-1492Y-60D01*
X-1491Y-53D01*
X-1492Y-45D01*
X-1495Y-37D01*
X-1500Y-31D01*
X-1507Y-26D01*
X-1514Y-23D01*
X-1522Y-22D01*
D02*
G37*
G36*
X-490Y-33D02*
X-498Y-34D01*
X-505Y-37D01*
X-512Y-42D01*
X-517Y-48D01*
X-520Y-55D01*
X-521Y-63D01*
X-520Y-71D01*
X-517Y-79D01*
X-512Y-85D01*
X-505Y-90D01*
X-498Y-93D01*
X-490Y-94D01*
X-482Y-93D01*
X-475Y-90D01*
X-468Y-85D01*
X-463Y-79D01*
X-460Y-71D01*
X-459Y-63D01*
X-460Y-55D01*
X-463Y-48D01*
X-468Y-42D01*
X-475Y-37D01*
X-482Y-34D01*
X-490Y-33D01*
D02*
G37*
G36*
X-1397Y-116D02*
X-1405Y-118D01*
X-1412Y-121D01*
X-1419Y-125D01*
X-1423Y-132D01*
X-1427Y-139D01*
X-1428Y-147D01*
X-1427Y-155D01*
X-1423Y-163D01*
X-1419Y-169D01*
X-1412Y-174D01*
X-1405Y-177D01*
X-1397Y-178D01*
X-1389Y-177D01*
X-1381Y-174D01*
X-1375Y-169D01*
X-1370Y-163D01*
X-1367Y-155D01*
X-1366Y-147D01*
X-1367Y-139D01*
X-1370Y-132D01*
X-1375Y-125D01*
X-1381Y-121D01*
X-1389Y-118D01*
X-1397Y-116D01*
D02*
G37*
G36*
X-540Y-121D02*
X-548Y-122D01*
X-555Y-125D01*
X-562Y-130D01*
X-567Y-137D01*
X-570Y-144D01*
X-571Y-152D01*
X-570Y-160D01*
X-567Y-167D01*
X-562Y-174D01*
X-555Y-179D01*
X-548Y-182D01*
X-540Y-183D01*
X-532Y-182D01*
X-525Y-179D01*
X-518Y-174D01*
X-513Y-167D01*
X-510Y-160D01*
X-509Y-152D01*
X-510Y-144D01*
X-513Y-137D01*
X-518Y-130D01*
X-525Y-125D01*
X-532Y-122D01*
X-540Y-121D01*
D02*
G37*
G36*
X-1777Y-157D02*
X-1785Y-158D01*
X-1793Y-161D01*
X-1799Y-166D01*
X-1804Y-172D01*
X-1807Y-180D01*
X-1808Y-188D01*
X-1807Y-195D01*
X-1804Y-203D01*
X-1799Y-209D01*
X-1793Y-214D01*
X-1785Y-217D01*
X-1777Y-218D01*
X-1770Y-217D01*
X-1762Y-214D01*
X-1756Y-209D01*
X-1751Y-203D01*
X-1748Y-195D01*
X-1747Y-188D01*
X-1748Y-180D01*
X-1751Y-172D01*
X-1756Y-166D01*
X-1762Y-161D01*
X-1770Y-158D01*
X-1777Y-157D01*
D02*
G37*
G36*
X-1496Y-187D02*
X-1504Y-188D01*
X-1511Y-191D01*
X-1518Y-196D01*
X-1523Y-202D01*
X-1526Y-210D01*
X-1527Y-218D01*
X-1526Y-226D01*
X-1523Y-233D01*
X-1518Y-240D01*
X-1511Y-244D01*
X-1504Y-248D01*
X-1496Y-249D01*
X-1488Y-248D01*
X-1481Y-244D01*
X-1474Y-240D01*
X-1469Y-233D01*
X-1466Y-226D01*
X-1465Y-218D01*
X-1466Y-210D01*
X-1469Y-202D01*
X-1474Y-196D01*
X-1481Y-191D01*
X-1488Y-188D01*
X-1496Y-187D01*
D02*
G37*
G36*
X-1581Y-218D02*
X-1589Y-219D01*
X-1596Y-223D01*
X-1602Y-227D01*
X-1607Y-234D01*
X-1610Y-241D01*
X-1611Y-249D01*
X-1610Y-257D01*
X-1607Y-265D01*
X-1602Y-271D01*
X-1596Y-276D01*
X-1589Y-279D01*
X-1581Y-280D01*
X-1573Y-279D01*
X-1565Y-276D01*
X-1559Y-271D01*
X-1554Y-265D01*
X-1551Y-257D01*
X-1550Y-249D01*
X-1551Y-241D01*
X-1554Y-234D01*
X-1559Y-227D01*
X-1565Y-223D01*
X-1573Y-219D01*
X-1581Y-218D01*
D02*
G37*
G36*
X-763Y-235D02*
X-771Y-236D01*
X-778Y-239D01*
X-784Y-244D01*
X-789Y-250D01*
X-792Y-258D01*
X-793Y-266D01*
X-792Y-274D01*
X-789Y-281D01*
X-784Y-287D01*
X-778Y-292D01*
X-771Y-295D01*
X-763Y-296D01*
X-755Y-295D01*
X-747Y-292D01*
X-741Y-287D01*
X-736Y-281D01*
X-733Y-274D01*
X-732Y-266D01*
X-733Y-258D01*
X-736Y-250D01*
X-741Y-244D01*
X-747Y-239D01*
X-755Y-236D01*
X-763Y-235D01*
D02*
G37*
G36*
X-1827Y-247D02*
X-1835Y-248D01*
X-1843Y-251D01*
X-1849Y-256D01*
X-1854Y-262D01*
X-1857Y-270D01*
X-1858Y-278D01*
X-1857Y-285D01*
X-1854Y-293D01*
X-1849Y-299D01*
X-1843Y-304D01*
X-1835Y-307D01*
X-1827Y-308D01*
X-1820Y-307D01*
X-1812Y-304D01*
X-1806Y-299D01*
X-1801Y-293D01*
X-1798Y-285D01*
X-1797Y-278D01*
X-1798Y-270D01*
X-1801Y-262D01*
X-1806Y-256D01*
X-1812Y-251D01*
X-1820Y-248D01*
X-1827Y-247D01*
D02*
G37*
G36*
X-1353Y-251D02*
X-1361Y-252D01*
X-1369Y-255D01*
X-1375Y-260D01*
X-1380Y-266D01*
X-1383Y-274D01*
X-1384Y-282D01*
X-1383Y-290D01*
X-1380Y-297D01*
X-1375Y-304D01*
X-1369Y-308D01*
X-1361Y-312D01*
X-1353Y-313D01*
X-1345Y-312D01*
X-1338Y-308D01*
X-1332Y-304D01*
X-1327Y-297D01*
X-1324Y-290D01*
X-1323Y-282D01*
X-1324Y-274D01*
X-1327Y-266D01*
X-1332Y-260D01*
X-1338Y-255D01*
X-1345Y-252D01*
X-1353Y-251D01*
D02*
G37*
G36*
X-1720Y-274D02*
X-1728Y-275D01*
X-1736Y-278D01*
X-1742Y-283D01*
X-1747Y-290D01*
X-1750Y-297D01*
X-1751Y-305D01*
X-1750Y-313D01*
X-1747Y-320D01*
X-1742Y-327D01*
X-1736Y-332D01*
X-1728Y-335D01*
X-1720Y-336D01*
X-1712Y-335D01*
X-1705Y-332D01*
X-1699Y-327D01*
X-1694Y-320D01*
X-1691Y-313D01*
X-1690Y-305D01*
X-1691Y-297D01*
X-1694Y-290D01*
X-1699Y-283D01*
X-1705Y-278D01*
X-1712Y-275D01*
X-1720Y-274D01*
D02*
G37*
G36*
X-897Y-302D02*
X-905Y-303D01*
X-912Y-306D01*
X-919Y-311D01*
X-924Y-317D01*
X-927Y-324D01*
X-928Y-332D01*
X-927Y-340D01*
X-924Y-348D01*
X-919Y-354D01*
X-912Y-359D01*
X-905Y-362D01*
X-897Y-363D01*
X-889Y-362D01*
X-882Y-359D01*
X-875Y-354D01*
X-870Y-348D01*
X-867Y-340D01*
X-866Y-332D01*
X-867Y-324D01*
X-870Y-317D01*
X-875Y-311D01*
X-882Y-306D01*
X-889Y-303D01*
X-897Y-302D01*
D02*
G37*
G36*
X-967Y-330D02*
X-975Y-331D01*
X-982Y-334D01*
X-988Y-339D01*
X-993Y-345D01*
X-996Y-353D01*
X-997Y-361D01*
X-996Y-369D01*
X-993Y-376D01*
X-988Y-383D01*
X-982Y-387D01*
X-975Y-390D01*
X-967Y-392D01*
X-959Y-390D01*
X-951Y-387D01*
X-945Y-383D01*
X-940Y-376D01*
X-937Y-369D01*
X-936Y-361D01*
X-937Y-353D01*
X-940Y-345D01*
X-945Y-339D01*
X-951Y-334D01*
X-959Y-331D01*
X-967Y-330D01*
D02*
G37*
G36*
X-1475Y-325D02*
X-1482Y-326D01*
X-1489Y-328D01*
X-1494Y-333D01*
X-1499Y-338D01*
X-1501Y-345D01*
X-1502Y-352D01*
X-1501Y-359D01*
X-1499Y-366D01*
X-1499Y-366D01*
X-1499Y-371D01*
X-1503Y-380D01*
X-1507Y-382D01*
X-1513Y-386D01*
X-1517Y-392D01*
X-1520Y-398D01*
X-1522Y-397D01*
X-1529Y-396D01*
X-1536Y-397D01*
X-1543Y-399D01*
X-1549Y-404D01*
X-1553Y-409D01*
X-1556Y-416D01*
X-1557Y-423D01*
X-1556Y-430D01*
X-1553Y-437D01*
X-1553Y-437D01*
X-1554Y-442D01*
X-1557Y-451D01*
X-1561Y-453D01*
X-1567Y-457D01*
X-1572Y-463D01*
X-1574Y-470D01*
X-1575Y-477D01*
X-1574Y-484D01*
X-1572Y-490D01*
X-1567Y-496D01*
X-1561Y-501D01*
X-1556Y-503D01*
X-1557Y-506D01*
X-1558Y-513D01*
X-1557Y-520D01*
X-1554Y-526D01*
X-1550Y-532D01*
X-1544Y-536D01*
X-1537Y-539D01*
X-1530Y-540D01*
X-1523Y-539D01*
X-1516Y-536D01*
X-1511Y-532D01*
X-1506Y-526D01*
X-1504Y-520D01*
X-1503Y-513D01*
X-1504Y-506D01*
X-1506Y-499D01*
X-1511Y-493D01*
X-1516Y-489D01*
X-1522Y-486D01*
X-1521Y-484D01*
X-1520Y-477D01*
X-1521Y-470D01*
X-1524Y-463D01*
X-1524Y-463D01*
X-1523Y-457D01*
X-1519Y-449D01*
X-1515Y-447D01*
X-1510Y-443D01*
X-1505Y-437D01*
X-1503Y-431D01*
X-1500Y-432D01*
X-1493Y-433D01*
X-1486Y-432D01*
X-1480Y-430D01*
X-1474Y-425D01*
X-1469Y-419D01*
X-1467Y-414D01*
X-1464Y-415D01*
X-1457Y-416D01*
X-1450Y-415D01*
X-1444Y-412D01*
X-1438Y-408D01*
X-1433Y-402D01*
X-1431Y-395D01*
X-1430Y-388D01*
X-1431Y-381D01*
X-1433Y-374D01*
X-1438Y-369D01*
X-1444Y-364D01*
X-1449Y-362D01*
X-1448Y-359D01*
X-1447Y-352D01*
X-1448Y-345D01*
X-1451Y-338D01*
X-1455Y-333D01*
X-1461Y-328D01*
X-1468Y-326D01*
X-1475Y-325D01*
D02*
G37*
G36*
X-1819Y-345D02*
X-1827Y-346D01*
X-1835Y-349D01*
X-1841Y-354D01*
X-1846Y-360D01*
X-1849Y-368D01*
X-1850Y-376D01*
X-1849Y-384D01*
X-1846Y-391D01*
X-1841Y-397D01*
X-1835Y-402D01*
X-1827Y-405D01*
X-1819Y-406D01*
X-1817Y-406D01*
X-1813Y-413D01*
X-1812Y-418D01*
X-1815Y-423D01*
X-1818Y-431D01*
X-1820Y-439D01*
X-1818Y-446D01*
X-1815Y-454D01*
X-1811Y-460D01*
X-1804Y-465D01*
X-1797Y-468D01*
X-1789Y-469D01*
X-1781Y-468D01*
X-1773Y-465D01*
X-1767Y-460D01*
X-1762Y-454D01*
X-1759Y-446D01*
X-1758Y-439D01*
X-1759Y-431D01*
X-1762Y-423D01*
X-1767Y-417D01*
X-1773Y-412D01*
X-1781Y-409D01*
X-1789Y-408D01*
X-1791Y-408D01*
X-1795Y-401D01*
X-1797Y-396D01*
X-1793Y-391D01*
X-1790Y-384D01*
X-1789Y-376D01*
X-1790Y-368D01*
X-1793Y-360D01*
X-1798Y-354D01*
X-1804Y-349D01*
X-1812Y-346D01*
X-1819Y-345D01*
D02*
G37*
G36*
X-1270Y-422D02*
X-1278Y-423D01*
X-1286Y-426D01*
X-1292Y-431D01*
X-1297Y-437D01*
X-1300Y-445D01*
X-1301Y-453D01*
X-1300Y-461D01*
X-1297Y-468D01*
X-1292Y-474D01*
X-1286Y-479D01*
X-1278Y-482D01*
X-1270Y-483D01*
X-1262Y-482D01*
X-1255Y-479D01*
X-1248Y-474D01*
X-1244Y-468D01*
X-1240Y-461D01*
X-1239Y-453D01*
X-1240Y-445D01*
X-1244Y-437D01*
X-1248Y-431D01*
X-1255Y-426D01*
X-1262Y-423D01*
X-1270Y-422D01*
D02*
G37*
G36*
X-1458Y-450D02*
X-1465Y-451D01*
X-1472Y-454D01*
X-1478Y-458D01*
X-1482Y-464D01*
X-1485Y-470D01*
X-1486Y-478D01*
X-1485Y-485D01*
X-1482Y-491D01*
X-1478Y-497D01*
X-1472Y-501D01*
X-1465Y-504D01*
X-1458Y-505D01*
X-1451Y-504D01*
X-1444Y-501D01*
X-1439Y-497D01*
X-1434Y-491D01*
X-1432Y-485D01*
X-1431Y-478D01*
X-1432Y-470D01*
X-1434Y-464D01*
X-1439Y-458D01*
X-1444Y-454D01*
X-1451Y-451D01*
X-1458Y-450D01*
D02*
G37*
G36*
X-1691Y-471D02*
X-1699Y-472D01*
X-1706Y-475D01*
X-1713Y-480D01*
X-1718Y-487D01*
X-1721Y-494D01*
X-1722Y-502D01*
X-1721Y-510D01*
X-1718Y-517D01*
X-1713Y-524D01*
X-1706Y-529D01*
X-1699Y-532D01*
X-1691Y-533D01*
X-1683Y-532D01*
X-1676Y-529D01*
X-1669Y-524D01*
X-1664Y-517D01*
X-1661Y-510D01*
X-1660Y-502D01*
X-1661Y-494D01*
X-1664Y-487D01*
X-1669Y-480D01*
X-1676Y-475D01*
X-1683Y-472D01*
X-1691Y-471D01*
D02*
G37*
G36*
X-1611Y-499D02*
X-1619Y-500D01*
X-1626Y-503D01*
X-1633Y-508D01*
X-1637Y-514D01*
X-1640Y-522D01*
X-1642Y-530D01*
X-1640Y-538D01*
X-1637Y-545D01*
X-1633Y-551D01*
X-1626Y-556D01*
X-1619Y-559D01*
X-1611Y-560D01*
X-1603Y-559D01*
X-1595Y-556D01*
X-1589Y-551D01*
X-1584Y-545D01*
X-1581Y-538D01*
X-1580Y-530D01*
X-1581Y-522D01*
X-1584Y-514D01*
X-1589Y-508D01*
X-1595Y-503D01*
X-1603Y-500D01*
X-1611Y-499D01*
D02*
G37*
G36*
X-1544Y-567D02*
X-1552Y-568D01*
X-1560Y-571D01*
X-1566Y-576D01*
X-1571Y-582D01*
X-1574Y-590D01*
X-1575Y-597D01*
X-1574Y-605D01*
X-1571Y-613D01*
X-1566Y-619D01*
X-1560Y-624D01*
X-1552Y-627D01*
X-1544Y-628D01*
X-1536Y-627D01*
X-1529Y-624D01*
X-1517Y-629D01*
X-1511Y-634D01*
X-1503Y-637D01*
X-1495Y-638D01*
X-1487Y-637D01*
X-1480Y-634D01*
X-1474Y-629D01*
X-1469Y-622D01*
X-1466Y-615D01*
X-1465Y-607D01*
X-1466Y-599D01*
X-1469Y-592D01*
X-1474Y-585D01*
X-1480Y-580D01*
X-1487Y-577D01*
X-1495Y-576D01*
X-1503Y-577D01*
X-1506Y-578D01*
X-1511Y-580D01*
X-1523Y-576D01*
X-1529Y-571D01*
X-1536Y-568D01*
X-1544Y-567D01*
D02*
G37*
%LPD*%
D71*
X-1900Y-849D02*
D03*
D72*
X-265Y376D02*
D03*
X-310Y258D02*
D03*
X-555Y422D02*
D03*
X-64Y312D02*
D03*
X-478Y-130D02*
D03*
X-440Y-35D02*
D03*
X-562Y167D02*
D03*
X-243Y97D02*
D03*
X-655Y408D02*
D03*
X-679Y326D02*
D03*
X-560Y-106D02*
D03*
X-1295Y-242D02*
D03*
X-1415Y-635D02*
D03*
X-1767Y-483D02*
D03*
X-1646Y-747D02*
D03*
X-1117Y232D02*
D03*
X-1546Y-298D02*
D03*
X-1422Y-95D02*
D03*
X-1220Y-417D02*
D03*
X-1626Y-202D02*
D03*
X-816Y-152D02*
D03*
X-1096Y-91D02*
D03*
X-1083Y-172D02*
D03*
X-912Y-46D02*
D03*
X-861Y-233D02*
D03*
X-1032Y-398D02*
D03*
X-717Y-245D02*
D03*
X-955Y163D02*
D03*
X-743Y-29D02*
D03*
X-787Y61D02*
D03*
X-831Y150D02*
D03*
X-1130Y-32D02*
D03*
X-1015Y-127D02*
D03*
X-982Y-73D02*
D03*
X-1127Y32D02*
D03*
X-1182Y5D02*
D03*
X-885Y85D02*
D03*
X-968Y77D02*
D03*
D73*
X-1494Y-495D02*
D03*
M02*
