G04*
G04 #@! TF.GenerationSoftware,Altium Limited,Altium Designer,19.0.15 (446)*
G04*
G04 Layer_Color=8388736*
%FSLAX42Y42*%
%MOMM*%
G71*
G01*
G75*
%ADD37R,0.25X0.70*%
%ADD38R,1.50X1.10*%
%ADD39R,1.57X0.70*%
%ADD40R,0.30X0.30*%
%ADD41P,0.97X4X180.0*%
G04:AMPARAMS|DCode=42|XSize=0.47mm|YSize=0.85mm|CornerRadius=0mm|HoleSize=0mm|Usage=FLASHONLY|Rotation=190.000|XOffset=0mm|YOffset=0mm|HoleType=Round|Shape=Rectangle|*
%AMROTATEDRECTD42*
4,1,4,0.16,0.46,0.31,-0.38,-0.16,-0.46,-0.31,0.38,0.16,0.46,0.0*
%
%ADD42ROTATEDRECTD42*%

G04:AMPARAMS|DCode=43|XSize=0.45mm|YSize=0.85mm|CornerRadius=0mm|HoleSize=0mm|Usage=FLASHONLY|Rotation=190.000|XOffset=0mm|YOffset=0mm|HoleType=Round|Shape=Rectangle|*
%AMROTATEDRECTD43*
4,1,4,0.15,0.46,0.30,-0.38,-0.15,-0.46,-0.30,0.38,0.15,0.46,0.0*
%
%ADD43ROTATEDRECTD43*%

%ADD44R,1.00X1.00*%
%ADD45P,1.42X4X55.0*%
%ADD46P,1.42X4X161.0*%
%ADD47P,1.42X4X97.0*%
G04:AMPARAMS|DCode=48|XSize=0.55mm|YSize=0.64mm|CornerRadius=0mm|HoleSize=0mm|Usage=FLASHONLY|Rotation=116.000|XOffset=0mm|YOffset=0mm|HoleType=Round|Shape=Rectangle|*
%AMROTATEDRECTD48*
4,1,4,0.41,-0.11,-0.17,-0.39,-0.41,0.11,0.17,0.39,0.41,-0.11,0.0*
%
%ADD48ROTATEDRECTD48*%

G04:AMPARAMS|DCode=49|XSize=0.84mm|YSize=0.8mm|CornerRadius=0mm|HoleSize=0mm|Usage=FLASHONLY|Rotation=116.000|XOffset=0mm|YOffset=0mm|HoleType=Round|Shape=Rectangle|*
%AMROTATEDRECTD49*
4,1,4,0.55,-0.20,-0.18,-0.55,-0.55,0.20,0.18,0.55,0.55,-0.20,0.0*
%
%ADD49ROTATEDRECTD49*%

G04:AMPARAMS|DCode=50|XSize=0.55mm|YSize=0.64mm|CornerRadius=0mm|HoleSize=0mm|Usage=FLASHONLY|Rotation=26.000|XOffset=0mm|YOffset=0mm|HoleType=Round|Shape=Rectangle|*
%AMROTATEDRECTD50*
4,1,4,-0.11,-0.41,-0.39,0.17,0.11,0.41,0.39,-0.17,-0.11,-0.41,0.0*
%
%ADD50ROTATEDRECTD50*%

%ADD51R,0.64X0.55*%
G04:AMPARAMS|DCode=52|XSize=0.55mm|YSize=0.6mm|CornerRadius=0mm|HoleSize=0mm|Usage=FLASHONLY|Rotation=116.000|XOffset=0mm|YOffset=0mm|HoleType=Round|Shape=Rectangle|*
%AMROTATEDRECTD52*
4,1,4,0.39,-0.12,-0.15,-0.38,-0.39,0.12,0.15,0.38,0.39,-0.12,0.0*
%
%ADD52ROTATEDRECTD52*%

G04:AMPARAMS|DCode=53|XSize=0.55mm|YSize=0.6mm|CornerRadius=0mm|HoleSize=0mm|Usage=FLASHONLY|Rotation=206.000|XOffset=0mm|YOffset=0mm|HoleType=Round|Shape=Rectangle|*
%AMROTATEDRECTD53*
4,1,4,0.12,0.39,0.38,-0.15,-0.12,-0.39,-0.38,0.15,0.12,0.39,0.0*
%
%ADD53ROTATEDRECTD53*%

%ADD54R,0.60X0.55*%
G04:AMPARAMS|DCode=55|XSize=0.84mm|YSize=0.8mm|CornerRadius=0mm|HoleSize=0mm|Usage=FLASHONLY|Rotation=26.000|XOffset=0mm|YOffset=0mm|HoleType=Round|Shape=Rectangle|*
%AMROTATEDRECTD55*
4,1,4,-0.20,-0.55,-0.55,0.18,0.20,0.55,0.55,-0.18,-0.20,-0.55,0.0*
%
%ADD55ROTATEDRECTD55*%

%ADD56P,0.31X4X251.0*%
%ADD57P,0.24X8X228.5*%
G04:AMPARAMS|DCode=58|XSize=0.88mm|YSize=0.45mm|CornerRadius=0mm|HoleSize=0mm|Usage=FLASHONLY|Rotation=26.000|XOffset=0mm|YOffset=0mm|HoleType=Round|Shape=Rectangle|*
%AMROTATEDRECTD58*
4,1,4,-0.30,-0.40,-0.49,0.01,0.30,0.40,0.49,-0.01,-0.30,-0.40,0.0*
%
%ADD58ROTATEDRECTD58*%

G04:AMPARAMS|DCode=59|XSize=0.88mm|YSize=0.45mm|CornerRadius=0mm|HoleSize=0mm|Usage=FLASHONLY|Rotation=296.000|XOffset=0mm|YOffset=0mm|HoleType=Round|Shape=Rectangle|*
%AMROTATEDRECTD59*
4,1,4,-0.40,0.30,0.01,0.49,0.40,-0.30,-0.01,-0.49,-0.40,0.30,0.0*
%
%ADD59ROTATEDRECTD59*%

%ADD60R,0.55X0.60*%
G04:AMPARAMS|DCode=61|XSize=0.85mm|YSize=1.05mm|CornerRadius=0mm|HoleSize=0mm|Usage=FLASHONLY|Rotation=116.000|XOffset=0mm|YOffset=0mm|HoleType=Round|Shape=Rectangle|*
%AMROTATEDRECTD61*
4,1,4,0.66,-0.15,-0.29,-0.61,-0.66,0.15,0.29,0.61,0.66,-0.15,0.0*
%
%ADD61ROTATEDRECTD61*%

G04:AMPARAMS|DCode=62|XSize=1.1mm|YSize=1.7mm|CornerRadius=0mm|HoleSize=0mm|Usage=FLASHONLY|Rotation=116.000|XOffset=0mm|YOffset=0mm|HoleType=Round|Shape=Round|*
%AMOVALD62*
21,1,0.60,1.10,0.00,0.00,206.0*
1,1,1.10,0.27,0.13*
1,1,1.10,-0.27,-0.13*
%
%ADD62OVALD62*%

G36*
X-227Y270D02*
X-225Y270D01*
X-224Y269D01*
X-223Y269D01*
X-222Y268D01*
X-221Y267D01*
X-203Y249D01*
X-202Y248D01*
X-201Y247D01*
X-201Y246D01*
X-200Y245D01*
X-200Y243D01*
X-200Y242D01*
Y235D01*
X-200Y234D01*
X-200Y232D01*
X-201Y231D01*
X-201Y230D01*
X-202Y229D01*
X-203Y228D01*
X-204Y227D01*
X-205Y226D01*
X-206Y226D01*
X-207Y225D01*
X-209Y225D01*
X-210Y225D01*
X-250D01*
X-251Y225D01*
X-253Y225D01*
X-254Y226D01*
X-255Y226D01*
X-256Y227D01*
X-257Y228D01*
X-258Y229D01*
X-259Y230D01*
X-259Y231D01*
X-260Y232D01*
X-260Y234D01*
X-260Y235D01*
Y260D01*
X-260Y261D01*
X-260Y263D01*
X-259Y264D01*
X-259Y265D01*
X-258Y266D01*
X-257Y267D01*
X-256Y268D01*
X-255Y269D01*
X-254Y269D01*
X-253Y270D01*
X-251Y270D01*
X-250Y270D01*
X-228D01*
X-227Y270D01*
D02*
G37*
G36*
X-209Y335D02*
X-207Y335D01*
X-206Y334D01*
X-205Y334D01*
X-204Y333D01*
X-203Y332D01*
X-202Y331D01*
X-201Y330D01*
X-201Y329D01*
X-200Y328D01*
X-200Y326D01*
X-200Y325D01*
Y318D01*
X-200Y317D01*
X-200Y315D01*
X-201Y314D01*
X-201Y313D01*
X-202Y312D01*
X-203Y311D01*
X-221Y293D01*
X-222Y292D01*
X-223Y291D01*
X-224Y291D01*
X-225Y290D01*
X-227Y290D01*
X-228Y290D01*
X-250D01*
X-251Y290D01*
X-253Y290D01*
X-254Y291D01*
X-255Y291D01*
X-256Y292D01*
X-257Y293D01*
X-258Y294D01*
X-259Y295D01*
X-259Y296D01*
X-260Y297D01*
X-260Y299D01*
X-260Y300D01*
Y325D01*
X-260Y326D01*
X-260Y328D01*
X-259Y329D01*
X-259Y330D01*
X-258Y331D01*
X-257Y332D01*
X-256Y333D01*
X-255Y334D01*
X-254Y334D01*
X-253Y335D01*
X-251Y335D01*
X-250Y335D01*
X-210D01*
X-209Y335D01*
D02*
G37*
G36*
X-119Y270D02*
X-117Y270D01*
X-116Y269D01*
X-115Y269D01*
X-114Y268D01*
X-113Y267D01*
X-112Y266D01*
X-111Y265D01*
X-111Y264D01*
X-110Y263D01*
X-110Y261D01*
X-110Y260D01*
Y235D01*
X-110Y234D01*
X-110Y232D01*
X-111Y231D01*
X-111Y230D01*
X-112Y229D01*
X-113Y228D01*
X-114Y227D01*
X-115Y226D01*
X-116Y226D01*
X-117Y225D01*
X-119Y225D01*
X-120Y225D01*
X-167D01*
X-168Y225D01*
X-170Y225D01*
X-171Y226D01*
X-172Y226D01*
X-173Y227D01*
X-174Y228D01*
X-175Y229D01*
X-176Y230D01*
X-176Y231D01*
X-177Y232D01*
X-177Y234D01*
X-177Y235D01*
X-177Y236D01*
X-177Y238D01*
X-176Y239D01*
X-176Y240D01*
X-175Y241D01*
X-174Y242D01*
X-149Y267D01*
X-148Y268D01*
X-147Y269D01*
X-146Y269D01*
X-145Y270D01*
X-143Y270D01*
X-142Y270D01*
X-120D01*
X-119Y270D01*
D02*
G37*
G36*
Y335D02*
X-117Y335D01*
X-116Y334D01*
X-115Y334D01*
X-114Y333D01*
X-113Y332D01*
X-112Y331D01*
X-111Y330D01*
X-111Y329D01*
X-110Y328D01*
X-110Y326D01*
X-110Y325D01*
Y300D01*
X-110Y299D01*
X-110Y297D01*
X-111Y296D01*
X-111Y295D01*
X-112Y294D01*
X-113Y293D01*
X-114Y292D01*
X-115Y291D01*
X-116Y291D01*
X-117Y290D01*
X-119Y290D01*
X-120Y290D01*
X-142D01*
X-143Y290D01*
X-145Y290D01*
X-146Y291D01*
X-147Y291D01*
X-148Y292D01*
X-149Y293D01*
X-167Y311D01*
X-168Y312D01*
X-169Y313D01*
X-169Y314D01*
X-170Y315D01*
X-170Y317D01*
X-170Y318D01*
Y325D01*
X-170Y326D01*
X-170Y328D01*
X-169Y329D01*
X-169Y330D01*
X-168Y331D01*
X-167Y332D01*
X-166Y333D01*
X-165Y334D01*
X-164Y334D01*
X-163Y335D01*
X-161Y335D01*
X-160Y335D01*
X-120D01*
X-119Y335D01*
D02*
G37*
D37*
X15Y72D02*
D03*
X15Y157D02*
D03*
D38*
X-185Y280D02*
D03*
D39*
X-71Y72D02*
D03*
Y157D02*
D03*
D40*
X-238Y247D02*
D03*
Y312D02*
D03*
X-133D02*
D03*
Y247D02*
D03*
D41*
X-185Y280D02*
D03*
D42*
X-573Y230D02*
D03*
X-327Y273D02*
D03*
D43*
X-524Y238D02*
D03*
X-455Y-3D02*
D03*
X-474Y247D02*
D03*
X-406Y5D02*
D03*
X-425Y256D02*
D03*
X-357Y14D02*
D03*
X-376Y264D02*
D03*
D44*
X-438Y462D02*
D03*
D45*
X-543Y453D02*
D03*
D46*
X-1801Y-801D02*
D03*
X-1892Y-488D02*
D03*
D47*
X-1780Y-134D02*
D03*
X-1850Y-222D02*
D03*
X-1977Y-382D02*
D03*
X-1915Y-303D02*
D03*
D48*
X-292Y-72D02*
D03*
X-233Y-43D02*
D03*
X-887Y-177D02*
D03*
X-945Y-206D02*
D03*
X-1752Y-532D02*
D03*
X-1810Y-560D02*
D03*
X-1654Y-573D02*
D03*
X-1712Y-601D02*
D03*
X-1619Y-645D02*
D03*
X-1677Y-673D02*
D03*
X-1705Y-776D02*
D03*
X-1646Y-747D02*
D03*
X-1716Y-47D02*
D03*
X-1657Y-18D02*
D03*
D49*
X-465Y-159D02*
D03*
X-385Y-121D02*
D03*
X-720Y-129D02*
D03*
X-641Y-90D02*
D03*
X-1091Y-321D02*
D03*
X-1012Y-283D02*
D03*
X-831Y150D02*
D03*
X-752Y189D02*
D03*
X-787Y61D02*
D03*
X-708Y99D02*
D03*
X-743Y-29D02*
D03*
X-664Y9D02*
D03*
D50*
X-182Y30D02*
D03*
X-153Y-28D02*
D03*
X-766Y302D02*
D03*
X-794Y361D02*
D03*
X-1779Y-642D02*
D03*
X-1750Y-701D02*
D03*
D51*
X-267Y478D02*
D03*
X-203D02*
D03*
D52*
X-1622Y-213D02*
D03*
X-1566Y-185D02*
D03*
X-1471Y-16D02*
D03*
X-1526Y-44D02*
D03*
X-1436Y-88D02*
D03*
X-1491Y-115D02*
D03*
X-1533Y42D02*
D03*
X-1588Y15D02*
D03*
X-975Y-365D02*
D03*
X-1030Y-392D02*
D03*
X-857Y-241D02*
D03*
X-913Y-268D02*
D03*
X-1083Y-172D02*
D03*
X-1139Y-199D02*
D03*
X-1416Y-635D02*
D03*
X-1360Y-608D02*
D03*
X-1482Y-545D02*
D03*
X-1426Y-518D02*
D03*
D53*
X-912Y-46D02*
D03*
X-940Y10D02*
D03*
X-816Y-152D02*
D03*
X-789Y-208D02*
D03*
X-837Y270D02*
D03*
X-864Y325D02*
D03*
D54*
X-266Y378D02*
D03*
X-204Y378D02*
D03*
D55*
X-955Y163D02*
D03*
X-994Y242D02*
D03*
D56*
X-1598Y-145D02*
D03*
X-1641Y-149D02*
D03*
X-1663Y-104D02*
D03*
X-1633Y-73D02*
D03*
X-1591Y-69D02*
D03*
D57*
X-1569Y-114D02*
D03*
D58*
X-1309Y1D02*
D03*
X-1287Y-44D02*
D03*
X-1265Y-89D02*
D03*
X-1244Y-134D02*
D03*
X-1017Y-23D02*
D03*
X-1038Y22D02*
D03*
X-1060Y67D02*
D03*
X-1082Y112D02*
D03*
D59*
X-1163Y-124D02*
D03*
X-1119Y-102D02*
D03*
X-1074Y-80D02*
D03*
X-1162Y102D02*
D03*
X-1207Y80D02*
D03*
X-1252Y58D02*
D03*
D60*
X-62Y313D02*
D03*
X-62Y252D02*
D03*
D61*
X-1280Y-546D02*
D03*
X-1352Y-398D02*
D03*
X-1213Y-330D02*
D03*
X-1141Y-478D02*
D03*
D62*
X-2058Y-525D02*
D03*
X-2005Y-633D02*
D03*
X-1953Y-741D02*
D03*
X-1900Y-849D02*
D03*
M02*
