M48
;Layer_Color=9474304
;FILE_FORMAT=4:2
METRIC,LZ
;TYPE=PLATED
T1F00S00C0.13
T2F00S00C0.15
T3F00S00C0.60
%
T01
X-00153Y-000513
X-001548Y-000477
X-001494Y-000495
X-001458Y-000478
X-001457Y-000388
X-001493Y-000406
X-001529Y-000423
X-001475Y-000352
T02
X-001646Y-000747
X-001544Y-000597
X-001495Y-000607
X-001415Y-000635
X-00136Y-000608
X-001383Y-000563
X-00127Y-000453
X-001295Y-000242
X-001353Y-000282
X-001397Y-000147
X-001422Y-000095
X-001522Y-000053
X-001496Y-000218
X-001581Y-000249
X-001546Y-000298
X-001626Y-000202
X-001777Y-000188
X-001827Y-000278
X-001819Y-000376
X-001789Y-000439
X-001767Y-000483
X-001691Y-000502
X-001611Y-00053
X-00172Y-000305
X-001341Y00008
X-001224Y000115
X-001195Y000165
X-001117Y000232
X-000963Y000259
X-000917Y000278
X-000955Y000163
X-000968Y000077
X-000885Y000085
X-000831Y00015
X-000756Y000187
X-000712Y000097
X-000787Y000061
X-000743Y-000029
X-000668Y000007
X-00056Y-000106
X-00054Y-000152
X-000478Y-00013
X-00049Y-000063
X-00044Y-000035
X-000447Y000125
X-000522Y000208
X-000562Y000167
X-000627Y000355
X-000679Y000326
X-000715Y000395
X-000655Y000408
X-000555Y000422
X-000457Y000485
X-00044Y000372
X-000333Y000375
X-000265Y000376
X-000203Y00037
X-000064Y000312
X-000067Y000247
X-00031Y000258
X-000243Y000097
X-000292Y000012
X-000558Y-000229
X-000652Y-000266
X-000717Y-000245
X-000763Y-000266
X-000861Y-000233
X-000816Y-000152
X-000912Y-000046
X-000982Y-000073
X-001015Y-000127
X-001083Y-000172
X-001096Y-000091
X-00113Y-000032
X-001127Y000032
X-001182Y000005
X-00122Y-000417
X-001032Y-000398
X-000967Y-000361
X-000897Y-000332
T03
X-0019Y-000849
X-001953Y-000741
X-002005Y-000633
X-002058Y-000525
M30
