G04*
G04 #@! TF.GenerationSoftware,Altium Limited,Altium Designer,19.0.15 (446)*
G04*
G04 Layer_Color=32896*
%FSLAX42Y42*%
%MOMM*%
G71*
G01*
G75*
%ADD13C,0.13*%
%ADD14C,0.10*%
%ADD15C,0.20*%
%ADD16C,0.15*%
%ADD17C,0.05*%
%ADD101C,0.25*%
%ADD102C,0.10*%
D13*
X-1714Y-808D02*
G03*
X-1714Y-808I-6J0D01*
G01*
X-1135Y-472D02*
X-1112Y-518D01*
X-1135Y-472D02*
X-1154Y-481D01*
X-1160Y-487D01*
X-1161Y-490D01*
X-1161Y-495D01*
X-1159Y-500D01*
X-1155Y-503D01*
X-1151Y-504D01*
X-1144Y-503D01*
X-1124Y-494D01*
X-1139Y-501D02*
X-1143Y-532D01*
X-1175Y-492D02*
X-1153Y-537D01*
X-1212Y-523D02*
X-1212Y-518D01*
X-1210Y-511D01*
X-1207Y-507D01*
X-1198Y-503D01*
X-1193Y-503D01*
X-1186Y-505D01*
X-1182Y-508D01*
X-1176Y-514D01*
X-1171Y-525D01*
X-1170Y-532D01*
X-1170Y-538D01*
X-1172Y-544D01*
X-1176Y-548D01*
X-1184Y-553D01*
X-1190Y-553D01*
X-1196Y-550D01*
X-1201Y-547D01*
X-1266Y-536D02*
X-1261Y-590D01*
X-1301Y-553D02*
X-1261Y-590D01*
X-1304Y-568D02*
X-1305Y-566D01*
X-1309Y-562D01*
X-1312Y-561D01*
X-1318Y-561D01*
X-1326Y-565D01*
X-1330Y-570D01*
X-1331Y-573D01*
X-1331Y-578D01*
X-1329Y-583D01*
X-1325Y-586D01*
X-1317Y-590D01*
X-1285Y-601D01*
X-1315Y-616D01*
X-170Y-2D02*
X-148Y-47D01*
X-170Y-2D02*
X-185Y-9D01*
X-190Y-15D01*
X-193Y-21D01*
X-193Y-27D01*
X-192Y-34D01*
X-186Y-45D01*
X-181Y-50D01*
X-177Y-54D01*
X-170Y-56D01*
X-163Y-55D01*
X-148Y-47D01*
X-238Y-48D02*
X-238Y-43D01*
X-235Y-37D01*
X-232Y-32D01*
X-223Y-28D01*
X-218Y-28D01*
X-212Y-30D01*
X-207Y-34D01*
X-202Y-39D01*
X-197Y-50D01*
X-196Y-58D01*
X-196Y-63D01*
X-198Y-69D01*
X-201Y-74D01*
X-210Y-78D01*
X-215Y-78D01*
X-222Y-76D01*
X-226Y-72D01*
X-229Y-66D01*
X-218Y-61D02*
X-229Y-66D01*
X-269Y-50D02*
X-246Y-96D01*
X-253Y-43D02*
X-284Y-58D01*
X-289Y-60D02*
X-267Y-106D01*
X-293Y-119D01*
X-356Y-93D02*
X-334Y-138D01*
X-356Y-93D02*
X-376Y-102D01*
X-381Y-108D01*
X-382Y-111D01*
X-382Y-116D01*
X-380Y-121D01*
X-376Y-124D01*
X-373Y-125D01*
X-365Y-124D01*
X-346Y-115D02*
X-365Y-124D01*
X-371Y-129D01*
X-372Y-133D01*
X-372Y-138D01*
X-369Y-145D01*
X-364Y-148D01*
X-361Y-149D01*
X-354Y-148D01*
X-334Y-138D01*
X-412Y-120D02*
X-390Y-166D01*
X-397Y-113D02*
X-427Y-127D01*
X-461Y-144D02*
X-433Y-130D01*
X-411Y-176D01*
X-439Y-190D01*
X-422Y-152D02*
X-440Y-160D01*
X-456Y-174D02*
X-495Y-193D01*
X-1761Y-785D02*
X-1760Y-792D01*
X-1764Y-800D01*
X-1774Y-807D01*
X-1780Y-810D01*
X-1792Y-814D01*
X-1801Y-812D01*
X-1806Y-807D01*
X-1808Y-803D01*
X-1809Y-795D01*
X-1805Y-788D01*
X-1795Y-780D01*
X-1789Y-777D01*
X-1777Y-774D01*
X-1768Y-775D01*
X-1763Y-780D01*
X-1761Y-785D01*
X-1792Y-721D02*
X-1837Y-743D01*
X-1792Y-721D02*
X-1799Y-706D01*
X-1804Y-701D01*
X-1811Y-698D01*
X-1816Y-698D01*
X-1824Y-699D01*
X-1835Y-705D01*
X-1840Y-710D01*
X-1844Y-714D01*
X-1846Y-721D01*
X-1845Y-728D01*
X-1837Y-743D01*
X-1828Y-664D02*
X-1867Y-683D01*
X-1838Y-693D02*
X-1857Y-654D01*
X-1855Y-592D02*
X-1900Y-614D01*
X-1855Y-592D02*
X-1862Y-577D01*
X-1867Y-571D01*
X-1874Y-569D01*
X-1879Y-569D01*
X-1887Y-570D01*
X-1898Y-575D01*
X-1903Y-581D01*
X-1906Y-585D01*
X-1909Y-592D01*
X-1908Y-599D01*
X-1900Y-614D01*
X-1901Y-564D02*
X-1920Y-525D01*
X-1920Y-459D02*
X-1931Y-435D01*
X-1942Y-456D01*
X-1946Y-450D01*
X-1950Y-446D01*
X-1953Y-445D01*
X-1961Y-446D01*
X-1965Y-448D01*
X-1971Y-454D01*
X-1973Y-460D01*
X-1972Y-468D01*
X-1969Y-474D01*
X-1963Y-480D01*
X-1960Y-481D01*
X-1955Y-481D01*
X-1980Y-440D02*
X-1981Y-444D01*
X-1984Y-442D01*
X-1983Y-439D01*
X-1980Y-440D01*
X-1959Y-378D02*
X-1994Y-422D01*
X-1944Y-408D02*
X-1959Y-378D01*
D14*
X-1679Y-368D02*
G03*
X-1679Y-368I-5J0D01*
G01*
X-450Y375D02*
X-430D01*
Y235D02*
Y375D01*
X-450Y235D02*
X-430D01*
X-495D02*
X-475D01*
X-495D02*
Y375D01*
X-475D01*
X-643Y468D02*
X-634Y450D01*
X-764Y409D02*
X-643Y468D01*
X-764Y409D02*
X-755Y391D01*
X-744Y368D02*
X-736Y351D01*
X-614Y410D01*
X-623Y428D02*
X-614Y410D01*
X-1492Y-19D02*
X-1474Y-10D01*
X-1492Y-19D02*
X-1433Y-140D01*
X-1415Y-132D01*
X-1393Y-121D02*
X-1375Y-112D01*
X-1434Y9D02*
X-1375Y-112D01*
X-1452Y1D02*
X-1434Y9D01*
X-415Y9D02*
X-407Y-9D01*
X-537Y-50D02*
X-415Y9D01*
X-537Y-50D02*
X-528Y-68D01*
X-517Y-91D02*
X-508Y-109D01*
X-387Y-50D01*
X-396Y-32D02*
X-387Y-50D01*
X-1385Y-634D02*
X-1376Y-652D01*
X-1497Y-711D02*
X-1376Y-652D01*
X-1506Y-693D02*
X-1497Y-711D01*
X-1526Y-652D02*
X-1517Y-670D01*
X-1526Y-652D02*
X-1405Y-593D01*
X-1396Y-611D01*
X-550Y-25D02*
X-541Y-43D01*
X-420Y17D01*
X-429Y35D02*
X-420Y17D01*
X-449Y75D02*
X-440Y57D01*
X-570Y16D02*
X-449Y75D01*
X-570Y16D02*
X-561Y-2D01*
X-645Y169D02*
X-636Y151D01*
X-515Y210D01*
X-524Y228D02*
X-515Y210D01*
X-544Y269D02*
X-535Y251D01*
X-665Y210D02*
X-544Y269D01*
X-665Y210D02*
X-656Y192D01*
X-724Y345D02*
X-706Y353D01*
X-724Y345D02*
X-665Y223D01*
X-647Y232D01*
X-624Y243D02*
X-606Y252D01*
X-665Y373D02*
X-606Y252D01*
X-683Y364D02*
X-665Y373D01*
X-1322Y-431D02*
X-1314Y-449D01*
X-1322Y-431D02*
X-1201Y-372D01*
X-1192Y-390D01*
X-1181Y-412D02*
X-1173Y-430D01*
X-1294Y-489D02*
X-1173Y-430D01*
X-1303Y-471D02*
X-1294Y-489D01*
X-1684Y-591D02*
X-1675Y-608D01*
X-1797Y-668D02*
X-1675Y-608D01*
X-1805Y-650D02*
X-1797Y-668D01*
X-1825Y-609D02*
X-1816Y-627D01*
X-1825Y-609D02*
X-1704Y-550D01*
X-1695Y-568D01*
X-1793Y-516D02*
X-1784Y-534D01*
X-1793Y-516D02*
X-1672Y-456D01*
X-1663Y-474D01*
X-1652Y-497D02*
X-1643Y-515D01*
X-1764Y-574D02*
X-1643Y-515D01*
X-1773Y-556D02*
X-1764Y-574D01*
X-1819Y-467D02*
X-1810Y-485D01*
X-1685Y-424D01*
X-1693Y-406D02*
X-1685Y-424D01*
X-1713Y-365D02*
X-1704Y-383D01*
X-1839Y-427D02*
X-1713Y-365D01*
X-1839Y-427D02*
X-1830Y-445D01*
X-1850Y-404D02*
X-1841Y-422D01*
X-1715Y-361D01*
X-1724Y-343D02*
X-1715Y-361D01*
X-1744Y-303D02*
X-1735Y-321D01*
X-1870Y-364D02*
X-1744Y-303D01*
X-1870Y-364D02*
X-1861Y-382D01*
X-1855Y-327D02*
X-1846Y-345D01*
X-1720Y-284D01*
X-1729Y-266D02*
X-1720Y-284D01*
X-1749Y-225D02*
X-1740Y-243D01*
X-1875Y-286D02*
X-1749Y-225D01*
X-1875Y-286D02*
X-1866Y-304D01*
X-1866Y-257D02*
X-1858Y-275D01*
X-1732Y-213D01*
X-1741Y-195D02*
X-1732Y-213D01*
X-1760Y-155D02*
X-1752Y-173D01*
X-1886Y-216D02*
X-1760Y-155D01*
X-1886Y-216D02*
X-1877Y-234D01*
X-1631Y-164D02*
X-1613Y-155D01*
X-1554Y-277D01*
X-1571Y-285D02*
X-1554Y-277D01*
X-1612Y-305D02*
X-1594Y-296D01*
X-1671Y-184D02*
X-1612Y-305D01*
X-1671Y-184D02*
X-1653Y-175D01*
X-1401Y-269D02*
X-1393Y-287D01*
X-1401Y-269D02*
X-1280Y-210D01*
X-1271Y-228D01*
X-1260Y-250D02*
X-1252Y-268D01*
X-1373Y-327D02*
X-1252Y-268D01*
X-1382Y-310D02*
X-1373Y-327D01*
D15*
X-805Y380D02*
X-786Y342D01*
X-843Y361D02*
X-805Y380D01*
X-543Y-157D02*
X-525Y-195D01*
X-563Y-214D02*
X-525Y-195D01*
X-1100Y-476D02*
X-1062Y-457D01*
X-1118Y-438D02*
X-1100Y-476D01*
X-1380Y99D02*
X-1362Y61D01*
X-1380Y99D02*
X-1342Y118D01*
D16*
X-200Y133D02*
Y152D01*
X-400D02*
X-200D01*
X-400Y133D02*
Y152D01*
Y52D02*
Y73D01*
Y52D02*
X-200D01*
Y73D01*
X-587Y44D02*
X-578Y26D01*
X-398Y114D01*
X-407Y132D02*
X-398Y114D01*
X-442Y204D02*
X-433Y186D01*
X-622Y116D02*
X-442Y204D01*
X-622Y116D02*
X-613Y98D01*
X-1443Y-182D02*
X-1425Y-173D01*
X-1513Y7D02*
X-1425Y-173D01*
X-1531Y-2D02*
X-1513Y7D01*
X-1603Y-37D02*
X-1585Y-28D01*
X-1603Y-37D02*
X-1515Y-217D01*
X-1497Y-208D01*
X-528Y280D02*
X-508D01*
Y480D01*
X-528Y480D02*
X-508Y480D01*
X-608D02*
X-588D01*
X-608D02*
X-608Y280D01*
X-588Y280D01*
D17*
X-1697Y-627D02*
X-1625Y-592D01*
X-1555Y-736D01*
X-1699Y-806D02*
X-1555Y-736D01*
X-1769Y-662D02*
X-1699Y-806D01*
X-1769Y-662D02*
X-1697Y-627D01*
X-1705Y-793D02*
X-1699Y-806D01*
D101*
X-1383Y164D02*
G03*
X-1383Y164I-12J0D01*
G01*
D102*
X-158Y165D02*
Y515D01*
X-423Y165D02*
X-158D01*
X-423D02*
Y515D01*
X-158D01*
M02*
