G04*
G04 #@! TF.GenerationSoftware,Altium Limited,Altium Designer,19.0.15 (446)*
G04*
G04 Layer_Physical_Order=3*
G04 Layer_Color=16440176*
%FSLAX42Y42*%
%MOMM*%
G71*
G01*
G75*
%ADD69C,0.20*%
%ADD70C,0.33*%
G04:AMPARAMS|DCode=71|XSize=0.9mm|YSize=1.5mm|CornerRadius=0mm|HoleSize=0mm|Usage=FLASHONLY|Rotation=116.000|XOffset=0mm|YOffset=0mm|HoleType=Round|Shape=Round|*
%AMOVALD71*
21,1,0.60,0.90,0.00,0.00,206.0*
1,1,0.90,0.27,0.13*
1,1,0.90,-0.27,-0.13*
%
%ADD71OVALD71*%

%ADD72C,0.30*%
G36*
X-235Y451D02*
Y407D01*
X-248Y401D01*
X-253Y405D01*
X-265Y407D01*
X-277Y405D01*
X-287Y398D01*
X-294Y388D01*
X-296Y376D01*
X-294Y364D01*
X-287Y354D01*
X-277Y347D01*
X-265Y345D01*
X-253Y347D01*
X-244Y354D01*
X-243Y354D01*
X-242Y354D01*
X-229Y352D01*
X-225Y347D01*
X-215Y340D01*
X-203Y338D01*
X-190Y340D01*
X-180Y347D01*
X-173Y358D01*
X-170Y370D01*
Y413D01*
X-157Y416D01*
X-155Y410D01*
X-153Y408D01*
X-152Y405D01*
X-135Y388D01*
X-132Y387D01*
X-130Y385D01*
X-108Y376D01*
X-106D01*
X-103Y375D01*
X-92Y374D01*
X-91Y374D01*
X-90Y374D01*
X-16D01*
X8Y273D01*
X7Y272D01*
X5Y270D01*
X-4Y248D01*
X-4Y246D01*
X-5Y243D01*
X-6Y232D01*
X-6Y230D01*
X-6Y229D01*
X-6Y225D01*
X-6Y224D01*
X-6Y223D01*
X-5Y215D01*
X-4Y213D01*
X-4Y212D01*
X-2Y204D01*
X-1Y203D01*
X-1Y202D01*
X3Y194D01*
X3Y193D01*
X4Y193D01*
Y17D01*
X-370Y-165D01*
X-425Y-62D01*
X-418Y-57D01*
X-411Y-47D01*
X-409Y-35D01*
X-411Y-23D01*
X-418Y-13D01*
X-428Y-6D01*
X-440Y-4D01*
X-452Y-6D01*
X-455Y-5D01*
X-538Y149D01*
X-534Y156D01*
X-532Y165D01*
X-528Y171D01*
X-526Y173D01*
X-520Y177D01*
X-511Y179D01*
X-501Y186D01*
X-494Y196D01*
X-491Y208D01*
X-494Y219D01*
X-501Y229D01*
X-511Y236D01*
X-522Y239D01*
X-534Y236D01*
X-544Y229D01*
X-551Y219D01*
X-553Y210D01*
X-555Y208D01*
X-565Y207D01*
X-569Y208D01*
X-586Y240D01*
X-614Y282D01*
X-630Y309D01*
X-633Y311D01*
X-639Y320D01*
X-657Y361D01*
X-656Y362D01*
X-656Y365D01*
X-656Y369D01*
X-655Y372D01*
X-645Y379D01*
X-644Y379D01*
X-643Y379D01*
X-633Y386D01*
X-626Y396D01*
X-624Y408D01*
X-626Y420D01*
X-620Y434D01*
X-594Y440D01*
X-585Y429D01*
X-586Y422D01*
X-584Y411D01*
X-577Y401D01*
X-567Y394D01*
X-555Y391D01*
X-543Y394D01*
X-533Y401D01*
X-526Y411D01*
X-524Y422D01*
X-526Y434D01*
X-530Y440D01*
X-524Y453D01*
X-236D01*
X-235Y451D01*
D02*
G37*
G36*
X-686Y405D02*
X-684Y396D01*
X-679Y388D01*
X-671Y369D01*
X-677Y360D01*
X-681Y357D01*
X-690Y355D01*
X-701Y348D01*
X-707Y338D01*
X-710Y326D01*
X-707Y314D01*
X-701Y304D01*
X-690Y297D01*
X-679Y295D01*
X-667Y297D01*
X-660Y302D01*
X-647Y301D01*
X-644Y300D01*
X-590Y210D01*
X-581Y192D01*
X-584Y189D01*
X-591Y179D01*
X-594Y167D01*
X-591Y156D01*
X-584Y146D01*
X-574Y139D01*
X-562Y136D01*
X-552Y138D01*
X-468Y-22D01*
X-469Y-23D01*
X-471Y-35D01*
X-469Y-47D01*
X-462Y-57D01*
X-452Y-64D01*
X-446Y-65D01*
X-393Y-166D01*
X-397Y-178D01*
X-515Y-236D01*
X-524Y-231D01*
X-527Y-227D01*
X-529Y-217D01*
X-536Y-207D01*
X-546Y-200D01*
X-558Y-198D01*
X-569Y-200D01*
X-580Y-207D01*
X-586Y-217D01*
X-589Y-229D01*
X-586Y-241D01*
X-581Y-249D01*
X-583Y-261D01*
X-583Y-263D01*
X-591Y-268D01*
X-623Y-257D01*
X-624Y-254D01*
X-630Y-244D01*
X-640Y-237D01*
X-652Y-235D01*
X-664Y-237D01*
X-670Y-241D01*
X-688Y-234D01*
X-689Y-233D01*
X-695Y-223D01*
X-705Y-216D01*
X-717Y-214D01*
X-729Y-216D01*
X-733Y-219D01*
X-753Y-212D01*
X-819Y-244D01*
X-831Y-235D01*
X-830Y-233D01*
X-832Y-221D01*
X-839Y-211D01*
X-849Y-204D01*
X-861Y-202D01*
X-873Y-204D01*
X-883Y-211D01*
X-890Y-221D01*
X-892Y-233D01*
X-890Y-244D01*
X-883Y-255D01*
X-873Y-261D01*
X-861Y-264D01*
X-849Y-261D01*
X-795Y-373D01*
X-1151Y-546D01*
X-1163Y-542D01*
X-1209Y-448D01*
X-1208Y-446D01*
X-1198Y-439D01*
X-1191Y-429D01*
X-1189Y-417D01*
X-1191Y-405D01*
X-1198Y-395D01*
X-1208Y-388D01*
X-1220Y-386D01*
X-1232Y-388D01*
X-1239Y-386D01*
X-1290Y-282D01*
X-1284Y-271D01*
X-1283Y-271D01*
X-1273Y-264D01*
X-1266Y-254D01*
X-1264Y-242D01*
X-1266Y-230D01*
X-1273Y-220D01*
X-1283Y-213D01*
X-1295Y-211D01*
X-1307Y-213D01*
X-1317Y-220D01*
X-1321Y-226D01*
X-1393Y-201D01*
X-1424Y-137D01*
X-1416Y-124D01*
X-1411Y-123D01*
X-1400Y-117D01*
X-1394Y-107D01*
X-1391Y-95D01*
X-1394Y-83D01*
X-1400Y-73D01*
X-1411Y-66D01*
X-1422Y-64D01*
X-1434Y-66D01*
X-1442Y-71D01*
X-1457Y-70D01*
X-1518Y56D01*
X-1475Y90D01*
X-1158Y245D01*
X-1147Y236D01*
X-1148Y232D01*
X-1145Y220D01*
X-1139Y210D01*
X-1129Y203D01*
X-1117Y201D01*
X-1105Y203D01*
X-1095Y210D01*
X-1088Y220D01*
X-1086Y232D01*
X-1088Y244D01*
X-1095Y254D01*
X-1101Y258D01*
X-1102Y270D01*
X-1101Y272D01*
X-1021Y312D01*
X-859Y377D01*
X-696Y416D01*
X-686Y405D01*
D02*
G37*
G36*
X-1529Y34D02*
X-1406Y-219D01*
X-1326Y-246D01*
X-1324Y-250D01*
X-1324Y-254D01*
X-1319Y-260D01*
X-1249Y-406D01*
X-1251Y-417D01*
X-1248Y-429D01*
X-1242Y-439D01*
X-1232Y-446D01*
X-1229Y-446D01*
X-1174Y-558D01*
X-1378Y-657D01*
X-1387Y-647D01*
X-1386Y-646D01*
X-1384Y-635D01*
X-1386Y-623D01*
X-1393Y-613D01*
X-1403Y-606D01*
X-1415Y-603D01*
X-1427Y-606D01*
X-1437Y-613D01*
X-1444Y-623D01*
X-1446Y-635D01*
X-1444Y-646D01*
X-1437Y-657D01*
X-1427Y-663D01*
X-1422Y-664D01*
X-1420Y-678D01*
X-1610Y-770D01*
X-1618Y-760D01*
X-1618Y-759D01*
X-1615Y-747D01*
X-1618Y-736D01*
X-1625Y-725D01*
X-1635Y-719D01*
X-1646Y-716D01*
X-1658Y-719D01*
X-1668Y-725D01*
X-1675Y-736D01*
X-1678Y-747D01*
X-1675Y-759D01*
X-1668Y-769D01*
X-1658Y-776D01*
X-1653Y-777D01*
X-1652Y-790D01*
X-1756Y-841D01*
X-1814Y-826D01*
X-1818Y-809D01*
X-1833Y-790D01*
X-1853Y-778D01*
X-1869Y-775D01*
X-1876Y-762D01*
X-1868Y-748D01*
X-1865Y-724D01*
X-1871Y-701D01*
X-1885Y-682D01*
X-1906Y-670D01*
X-1922Y-668D01*
X-1929Y-654D01*
X-1920Y-640D01*
X-1917Y-616D01*
X-1923Y-593D01*
X-1938Y-574D01*
X-1958Y-562D01*
X-1975Y-560D01*
X-1981Y-546D01*
X-1973Y-532D01*
X-1970Y-508D01*
X-1976Y-485D01*
X-1984Y-474D01*
X-1894Y-299D01*
X-1870Y-271D01*
X-1858Y-277D01*
X-1859Y-278D01*
X-1856Y-289D01*
X-1849Y-299D01*
X-1839Y-306D01*
X-1827Y-309D01*
X-1816Y-306D01*
X-1806Y-299D01*
X-1799Y-289D01*
X-1796Y-278D01*
X-1799Y-266D01*
X-1806Y-256D01*
X-1816Y-249D01*
X-1827Y-246D01*
X-1833Y-248D01*
X-1840Y-236D01*
X-1816Y-208D01*
X-1800Y-209D01*
X-1799Y-209D01*
X-1789Y-216D01*
X-1777Y-219D01*
X-1766Y-216D01*
X-1756Y-209D01*
X-1749Y-199D01*
X-1746Y-188D01*
X-1749Y-176D01*
X-1756Y-166D01*
X-1760Y-163D01*
X-1763Y-147D01*
X-1750Y-131D01*
X-1648Y-49D01*
X-1632Y-36D01*
X-1619Y-39D01*
X-1525Y-232D01*
X-1517Y-242D01*
X-1506Y-248D01*
X-1494Y-250D01*
X-1482Y-247D01*
X-1472Y-239D01*
X-1465Y-228D01*
X-1464Y-216D01*
X-1467Y-204D01*
X-1572Y12D01*
X-1542Y36D01*
X-1529Y34D01*
D02*
G37*
%LPC*%
G36*
X-64Y343D02*
X-75Y340D01*
X-86Y334D01*
X-92Y324D01*
X-95Y312D01*
X-92Y300D01*
X-86Y290D01*
X-75Y283D01*
X-64Y281D01*
X-52Y283D01*
X-42Y290D01*
X-35Y300D01*
X-32Y312D01*
X-35Y324D01*
X-42Y334D01*
X-52Y340D01*
X-64Y343D01*
D02*
G37*
G36*
X-310Y289D02*
X-322Y286D01*
X-332Y279D01*
X-339Y269D01*
X-341Y258D01*
X-339Y246D01*
X-332Y236D01*
X-322Y229D01*
X-310Y226D01*
X-298Y229D01*
X-288Y236D01*
X-281Y246D01*
X-279Y258D01*
X-281Y269D01*
X-288Y279D01*
X-298Y286D01*
X-310Y289D01*
D02*
G37*
G36*
X-447Y156D02*
X-459Y154D01*
X-469Y147D01*
X-476Y137D01*
X-479Y125D01*
X-476Y113D01*
X-469Y103D01*
X-459Y96D01*
X-447Y94D01*
X-436Y96D01*
X-426Y103D01*
X-419Y113D01*
X-416Y125D01*
X-419Y137D01*
X-426Y147D01*
X-436Y154D01*
X-447Y156D01*
D02*
G37*
G36*
X-243Y128D02*
X-255Y126D01*
X-265Y119D01*
X-272Y109D01*
X-274Y97D01*
X-272Y85D01*
X-265Y75D01*
X-255Y69D01*
X-243Y66D01*
X-231Y69D01*
X-221Y75D01*
X-214Y85D01*
X-212Y97D01*
X-214Y109D01*
X-221Y119D01*
X-231Y126D01*
X-243Y128D01*
D02*
G37*
G36*
X-917Y309D02*
X-929Y307D01*
X-939Y300D01*
X-945Y290D01*
X-959Y289D01*
X-963Y290D01*
X-975Y287D01*
X-985Y281D01*
X-992Y270D01*
X-994Y259D01*
X-992Y247D01*
X-985Y237D01*
X-975Y230D01*
X-963Y228D01*
X-951Y230D01*
X-941Y237D01*
X-934Y247D01*
X-922Y248D01*
X-917Y247D01*
X-905Y250D01*
X-895Y256D01*
X-888Y266D01*
X-886Y278D01*
X-888Y290D01*
X-895Y300D01*
X-905Y307D01*
X-917Y309D01*
D02*
G37*
G36*
X-756Y218D02*
X-767Y216D01*
X-778Y209D01*
X-784Y199D01*
X-787Y187D01*
X-784Y175D01*
X-778Y165D01*
X-767Y159D01*
X-756Y156D01*
X-744Y159D01*
X-734Y165D01*
X-727Y175D01*
X-724Y187D01*
X-727Y199D01*
X-734Y209D01*
X-744Y216D01*
X-756Y218D01*
D02*
G37*
G36*
X-955Y194D02*
X-967Y192D01*
X-977Y185D01*
X-984Y175D01*
X-986Y163D01*
X-984Y151D01*
X-977Y141D01*
X-967Y135D01*
X-955Y132D01*
X-943Y135D01*
X-933Y141D01*
X-927Y151D01*
X-924Y163D01*
X-927Y175D01*
X-933Y185D01*
X-943Y192D01*
X-955Y194D01*
D02*
G37*
G36*
X-831Y181D02*
X-843Y179D01*
X-853Y172D01*
X-860Y162D01*
X-862Y150D01*
X-860Y139D01*
X-853Y128D01*
X-843Y122D01*
X-831Y119D01*
X-819Y122D01*
X-809Y128D01*
X-802Y139D01*
X-800Y150D01*
X-802Y162D01*
X-809Y172D01*
X-819Y179D01*
X-831Y181D01*
D02*
G37*
G36*
X-1195Y196D02*
X-1207Y193D01*
X-1217Y187D01*
X-1224Y177D01*
X-1226Y165D01*
X-1225Y158D01*
X-1225Y152D01*
X-1233Y144D01*
X-1236Y144D01*
X-1246Y137D01*
X-1253Y127D01*
X-1255Y115D01*
X-1253Y103D01*
X-1246Y93D01*
X-1236Y86D01*
X-1224Y84D01*
X-1212Y86D01*
X-1202Y93D01*
X-1196Y103D01*
X-1193Y115D01*
X-1195Y122D01*
X-1195Y127D01*
X-1186Y135D01*
X-1183Y136D01*
X-1173Y143D01*
X-1166Y153D01*
X-1164Y165D01*
X-1166Y177D01*
X-1173Y187D01*
X-1183Y193D01*
X-1195Y196D01*
D02*
G37*
G36*
X-712Y128D02*
X-724Y126D01*
X-734Y119D01*
X-740Y109D01*
X-743Y97D01*
X-740Y85D01*
X-734Y75D01*
X-724Y69D01*
X-712Y66D01*
X-700Y69D01*
X-690Y75D01*
X-683Y85D01*
X-681Y97D01*
X-683Y109D01*
X-690Y119D01*
X-700Y126D01*
X-712Y128D01*
D02*
G37*
G36*
X-885Y116D02*
X-897Y114D01*
X-907Y107D01*
X-914Y97D01*
X-916Y85D01*
X-914Y73D01*
X-907Y63D01*
X-897Y56D01*
X-885Y54D01*
X-873Y56D01*
X-863Y63D01*
X-856Y73D01*
X-854Y85D01*
X-856Y97D01*
X-863Y107D01*
X-873Y114D01*
X-885Y116D01*
D02*
G37*
G36*
X-1341Y111D02*
X-1353Y109D01*
X-1363Y102D01*
X-1370Y92D01*
X-1372Y80D01*
X-1370Y68D01*
X-1363Y58D01*
X-1353Y52D01*
X-1341Y49D01*
X-1329Y52D01*
X-1319Y58D01*
X-1312Y68D01*
X-1310Y80D01*
X-1312Y92D01*
X-1319Y102D01*
X-1329Y109D01*
X-1341Y111D01*
D02*
G37*
G36*
X-968Y109D02*
X-979Y106D01*
X-989Y99D01*
X-996Y89D01*
X-999Y77D01*
X-996Y66D01*
X-989Y56D01*
X-979Y49D01*
X-968Y46D01*
X-956Y49D01*
X-946Y56D01*
X-939Y66D01*
X-936Y77D01*
X-939Y89D01*
X-946Y99D01*
X-956Y106D01*
X-968Y109D01*
D02*
G37*
G36*
X-1127Y64D02*
X-1139Y61D01*
X-1149Y54D01*
X-1156Y44D01*
X-1157Y40D01*
X-1171Y34D01*
X-1171Y34D01*
X-1182Y36D01*
X-1194Y34D01*
X-1204Y27D01*
X-1211Y17D01*
X-1214Y5D01*
X-1211Y-7D01*
X-1204Y-17D01*
X-1194Y-24D01*
X-1182Y-26D01*
X-1172Y-24D01*
X-1166Y-28D01*
X-1161Y-32D01*
X-1159Y-44D01*
X-1152Y-54D01*
X-1142Y-61D01*
X-1130Y-64D01*
X-1130Y-64D01*
X-1122Y-75D01*
X-1125Y-79D01*
X-1127Y-91D01*
X-1125Y-103D01*
X-1118Y-113D01*
X-1108Y-120D01*
X-1096Y-122D01*
X-1084Y-120D01*
X-1074Y-113D01*
X-1067Y-103D01*
X-1065Y-91D01*
X-1067Y-79D01*
X-1074Y-69D01*
X-1084Y-62D01*
X-1096Y-60D01*
X-1096Y-60D01*
X-1104Y-48D01*
X-1101Y-44D01*
X-1099Y-32D01*
X-1101Y-21D01*
X-1108Y-11D01*
X-1112Y-8D01*
X-1112Y-7D01*
X-1111Y7D01*
X-1106Y11D01*
X-1099Y21D01*
X-1096Y32D01*
X-1099Y44D01*
X-1106Y54D01*
X-1116Y61D01*
X-1127Y64D01*
D02*
G37*
G36*
X-787Y92D02*
X-799Y89D01*
X-809Y82D01*
X-816Y72D01*
X-818Y61D01*
X-816Y49D01*
X-809Y39D01*
X-799Y32D01*
X-787Y29D01*
X-775Y32D01*
X-765Y39D01*
X-758Y49D01*
X-756Y61D01*
X-758Y72D01*
X-765Y82D01*
X-775Y89D01*
X-787Y92D01*
D02*
G37*
G36*
X-668Y39D02*
X-680Y36D01*
X-690Y29D01*
X-697Y19D01*
X-699Y7D01*
X-697Y-4D01*
X-690Y-15D01*
X-680Y-21D01*
X-668Y-24D01*
X-656Y-21D01*
X-646Y-15D01*
X-639Y-4D01*
X-637Y7D01*
X-639Y19D01*
X-646Y29D01*
X-656Y36D01*
X-668Y39D01*
D02*
G37*
G36*
X-743Y2D02*
X-755Y-1D01*
X-765Y-7D01*
X-772Y-17D01*
X-774Y-29D01*
X-772Y-41D01*
X-765Y-51D01*
X-755Y-58D01*
X-743Y-60D01*
X-731Y-58D01*
X-721Y-51D01*
X-715Y-41D01*
X-712Y-29D01*
X-715Y-17D01*
X-721Y-7D01*
X-731Y-1D01*
X-743Y2D01*
D02*
G37*
G36*
X-912Y-14D02*
X-924Y-17D01*
X-934Y-24D01*
X-941Y-34D01*
X-943Y-46D01*
X-941Y-57D01*
X-934Y-68D01*
X-924Y-74D01*
X-912Y-77D01*
X-900Y-74D01*
X-890Y-68D01*
X-884Y-57D01*
X-881Y-46D01*
X-884Y-34D01*
X-890Y-24D01*
X-900Y-17D01*
X-912Y-14D01*
D02*
G37*
G36*
X-560Y-75D02*
X-572Y-78D01*
X-582Y-84D01*
X-589Y-94D01*
X-591Y-106D01*
X-589Y-118D01*
X-582Y-128D01*
X-572Y-135D01*
X-560Y-137D01*
X-548Y-135D01*
X-538Y-128D01*
X-531Y-118D01*
X-529Y-106D01*
X-531Y-94D01*
X-538Y-84D01*
X-548Y-78D01*
X-560Y-75D01*
D02*
G37*
G36*
X-982Y-41D02*
X-994Y-44D01*
X-1004Y-51D01*
X-1011Y-61D01*
X-1014Y-73D01*
X-1011Y-84D01*
X-1012Y-88D01*
X-1018Y-97D01*
X-1027Y-99D01*
X-1037Y-106D01*
X-1044Y-116D01*
X-1046Y-127D01*
X-1044Y-139D01*
X-1037Y-149D01*
X-1027Y-156D01*
X-1015Y-159D01*
X-1003Y-156D01*
X-993Y-149D01*
X-986Y-139D01*
X-984Y-127D01*
X-986Y-116D01*
X-985Y-112D01*
X-979Y-103D01*
X-971Y-101D01*
X-961Y-94D01*
X-954Y-84D01*
X-951Y-73D01*
X-954Y-61D01*
X-961Y-51D01*
X-971Y-44D01*
X-982Y-41D01*
D02*
G37*
G36*
X-478Y-99D02*
X-489Y-102D01*
X-499Y-108D01*
X-506Y-118D01*
X-509Y-130D01*
X-506Y-142D01*
X-499Y-152D01*
X-489Y-159D01*
X-478Y-161D01*
X-466Y-159D01*
X-456Y-152D01*
X-449Y-142D01*
X-446Y-130D01*
X-449Y-118D01*
X-456Y-108D01*
X-466Y-102D01*
X-478Y-99D01*
D02*
G37*
G36*
X-816Y-121D02*
X-828Y-123D01*
X-838Y-130D01*
X-845Y-140D01*
X-847Y-152D01*
X-845Y-164D01*
X-838Y-174D01*
X-828Y-181D01*
X-816Y-183D01*
X-804Y-181D01*
X-794Y-174D01*
X-787Y-164D01*
X-785Y-152D01*
X-787Y-140D01*
X-794Y-130D01*
X-804Y-123D01*
X-816Y-121D01*
D02*
G37*
G36*
X-1083Y-141D02*
X-1095Y-144D01*
X-1105Y-150D01*
X-1112Y-160D01*
X-1114Y-172D01*
X-1112Y-184D01*
X-1105Y-194D01*
X-1095Y-201D01*
X-1083Y-203D01*
X-1071Y-201D01*
X-1061Y-194D01*
X-1054Y-184D01*
X-1052Y-172D01*
X-1054Y-160D01*
X-1061Y-150D01*
X-1071Y-144D01*
X-1083Y-141D01*
D02*
G37*
G36*
X-897Y-301D02*
X-909Y-304D01*
X-919Y-310D01*
X-926Y-321D01*
X-928Y-332D01*
X-926Y-344D01*
X-919Y-354D01*
X-909Y-361D01*
X-897Y-363D01*
X-885Y-361D01*
X-875Y-354D01*
X-868Y-344D01*
X-866Y-332D01*
X-868Y-321D01*
X-875Y-310D01*
X-885Y-304D01*
X-897Y-301D01*
D02*
G37*
G36*
X-967Y-330D02*
X-979Y-332D01*
X-989Y-339D01*
X-995Y-349D01*
X-998Y-361D01*
X-995Y-373D01*
X-989Y-383D01*
X-979Y-390D01*
X-967Y-392D01*
X-955Y-390D01*
X-945Y-383D01*
X-938Y-373D01*
X-936Y-361D01*
X-938Y-349D01*
X-945Y-339D01*
X-955Y-332D01*
X-967Y-330D01*
D02*
G37*
G36*
X-1032Y-367D02*
X-1044Y-369D01*
X-1054Y-376D01*
X-1061Y-386D01*
X-1063Y-398D01*
X-1061Y-410D01*
X-1054Y-420D01*
X-1044Y-427D01*
X-1032Y-429D01*
X-1020Y-427D01*
X-1010Y-420D01*
X-1003Y-410D01*
X-1001Y-398D01*
X-1003Y-386D01*
X-1010Y-376D01*
X-1020Y-369D01*
X-1032Y-367D01*
D02*
G37*
G36*
X-1626Y-171D02*
X-1638Y-174D01*
X-1648Y-180D01*
X-1655Y-190D01*
X-1657Y-202D01*
X-1655Y-214D01*
X-1648Y-224D01*
X-1638Y-231D01*
X-1626Y-233D01*
X-1620Y-232D01*
X-1620Y-232D01*
X-1611Y-243D01*
X-1612Y-249D01*
X-1610Y-256D01*
X-1655Y-384D01*
X-1656Y-394D01*
X-1654Y-404D01*
X-1614Y-486D01*
X-1621Y-501D01*
X-1623Y-501D01*
X-1633Y-508D01*
X-1640Y-518D01*
X-1642Y-530D01*
X-1640Y-542D01*
X-1633Y-552D01*
X-1623Y-558D01*
X-1611Y-561D01*
X-1599Y-558D01*
X-1594Y-555D01*
X-1579Y-558D01*
X-1578Y-558D01*
X-1573Y-565D01*
X-1572Y-567D01*
X-1571Y-582D01*
X-1573Y-586D01*
X-1575Y-597D01*
X-1573Y-609D01*
X-1566Y-619D01*
X-1556Y-626D01*
X-1544Y-629D01*
X-1532Y-626D01*
X-1523Y-620D01*
X-1517Y-629D01*
X-1507Y-636D01*
X-1495Y-638D01*
X-1483Y-636D01*
X-1473Y-629D01*
X-1467Y-619D01*
X-1464Y-607D01*
X-1466Y-597D01*
X-1466Y-595D01*
X-1469Y-586D01*
X-1485Y-552D01*
X-1491Y-544D01*
X-1493Y-543D01*
X-1496Y-532D01*
X-1496Y-528D01*
X-1496Y-527D01*
X-1492Y-522D01*
X-1484Y-521D01*
X-1474Y-515D01*
X-1468Y-506D01*
X-1468Y-503D01*
X-1458Y-505D01*
X-1448Y-503D01*
X-1439Y-497D01*
X-1433Y-488D01*
X-1430Y-478D01*
X-1433Y-467D01*
X-1439Y-458D01*
X-1448Y-452D01*
X-1458Y-450D01*
X-1469Y-452D01*
X-1478Y-458D01*
X-1484Y-467D01*
X-1484Y-469D01*
X-1494Y-467D01*
X-1505Y-469D01*
X-1517Y-463D01*
X-1518Y-461D01*
X-1519Y-449D01*
X-1510Y-443D01*
X-1504Y-434D01*
X-1503Y-432D01*
X-1493Y-434D01*
X-1483Y-431D01*
X-1474Y-425D01*
X-1468Y-416D01*
X-1467Y-414D01*
X-1457Y-416D01*
X-1447Y-414D01*
X-1438Y-408D01*
X-1432Y-399D01*
X-1430Y-388D01*
X-1432Y-377D01*
X-1438Y-368D01*
X-1447Y-362D01*
X-1449Y-362D01*
X-1447Y-352D01*
X-1449Y-342D01*
X-1455Y-333D01*
X-1464Y-326D01*
X-1475Y-324D01*
X-1486Y-326D01*
X-1495Y-333D01*
X-1501Y-342D01*
X-1503Y-352D01*
X-1501Y-363D01*
X-1499Y-366D01*
X-1504Y-380D01*
X-1504Y-380D01*
X-1513Y-386D01*
X-1519Y-395D01*
X-1519Y-397D01*
X-1529Y-395D01*
X-1540Y-397D01*
X-1549Y-404D01*
X-1555Y-413D01*
X-1557Y-423D01*
X-1555Y-434D01*
X-1553Y-437D01*
X-1558Y-451D01*
X-1558Y-451D01*
X-1559Y-451D01*
X-1575Y-447D01*
X-1602Y-391D01*
X-1579Y-324D01*
X-1565Y-322D01*
X-1558Y-327D01*
X-1546Y-329D01*
X-1534Y-327D01*
X-1524Y-320D01*
X-1517Y-310D01*
X-1515Y-298D01*
X-1517Y-286D01*
X-1524Y-276D01*
X-1534Y-269D01*
X-1541Y-268D01*
X-1547Y-264D01*
X-1551Y-255D01*
X-1550Y-249D01*
X-1552Y-237D01*
X-1559Y-227D01*
X-1569Y-220D01*
X-1581Y-218D01*
X-1586Y-219D01*
X-1587Y-219D01*
X-1596Y-209D01*
X-1595Y-202D01*
X-1597Y-190D01*
X-1604Y-180D01*
X-1614Y-174D01*
X-1626Y-171D01*
D02*
G37*
G36*
X-1819Y-345D02*
X-1831Y-347D01*
X-1841Y-354D01*
X-1848Y-364D01*
X-1851Y-376D01*
X-1848Y-388D01*
X-1841Y-398D01*
X-1831Y-404D01*
X-1819Y-407D01*
X-1818Y-406D01*
X-1814Y-412D01*
X-1812Y-418D01*
X-1818Y-427D01*
X-1820Y-439D01*
X-1818Y-450D01*
X-1811Y-461D01*
X-1801Y-467D01*
X-1797Y-481D01*
X-1798Y-483D01*
X-1796Y-495D01*
X-1789Y-505D01*
X-1779Y-512D01*
X-1767Y-515D01*
X-1755Y-512D01*
X-1745Y-505D01*
X-1738Y-495D01*
X-1736Y-483D01*
X-1738Y-472D01*
X-1745Y-462D01*
X-1755Y-455D01*
X-1758Y-441D01*
X-1758Y-439D01*
X-1760Y-427D01*
X-1767Y-417D01*
X-1777Y-410D01*
X-1789Y-407D01*
X-1790Y-408D01*
X-1794Y-402D01*
X-1796Y-396D01*
X-1791Y-388D01*
X-1788Y-376D01*
X-1791Y-364D01*
X-1798Y-354D01*
X-1808Y-347D01*
X-1819Y-345D01*
D02*
G37*
G36*
X-1383Y-532D02*
X-1395Y-535D01*
X-1405Y-541D01*
X-1412Y-551D01*
X-1414Y-563D01*
X-1412Y-575D01*
X-1405Y-585D01*
X-1395Y-592D01*
X-1383Y-594D01*
X-1371Y-592D01*
X-1361Y-585D01*
X-1354Y-575D01*
X-1352Y-563D01*
X-1354Y-551D01*
X-1361Y-541D01*
X-1371Y-535D01*
X-1383Y-532D01*
D02*
G37*
%LPD*%
D69*
X-1630Y-393D02*
X-1581Y-249D01*
X-1630Y-393D02*
X-1555Y-547D01*
X-1508Y-563D01*
X-1492Y-597D01*
X-1495Y-607D02*
X-1492Y-597D01*
D70*
X-203Y370D02*
Y465D01*
X-223Y485D02*
X-203Y465D01*
X-2049Y-530D02*
X-1921Y-281D01*
X-546Y485D02*
X-223D01*
X-868Y407D02*
X-546Y485D01*
X-1034Y341D02*
X-868Y407D01*
X-2049Y-530D02*
X-2049Y-530D01*
X-1610Y23D02*
X-1493Y118D01*
X-1668Y-24D02*
X-1610Y23D01*
X-1612Y19D02*
X-1610Y23D01*
X-1612Y19D02*
X-1496Y-218D01*
X-1772Y-108D02*
X-1668Y-24D01*
X-1493Y118D02*
X-1034Y341D01*
X-1921Y-281D02*
X-1772Y-108D01*
D71*
X-2058Y-525D02*
D03*
D72*
X-333Y375D02*
D03*
X-457Y485D02*
D03*
X-440Y372D02*
D03*
X-203Y370D02*
D03*
X-67Y247D02*
D03*
X-292Y12D02*
D03*
X-490Y-63D02*
D03*
X-540Y-152D02*
D03*
X-627Y355D02*
D03*
X-715Y395D02*
D03*
X-1397Y-147D02*
D03*
X-1353Y-282D02*
D03*
X-1496Y-218D02*
D03*
X-1495Y-607D02*
D03*
X-1691Y-502D02*
D03*
X-1522Y-53D02*
D03*
X-1360Y-608D02*
D03*
X-1270Y-453D02*
D03*
X-1581Y-249D02*
D03*
X-1720Y-305D02*
D03*
M02*
